<svg xmlns="http://www.w3.org/2000/svg" viewBox="0 0 760 400" width="760" height="400" style="background:white">
<rect x="65" y="20" width="610" height="330" fill="#f9f9f9"/>
<line x1="65" y1="308.5" x2="675" y2="308.5" stroke="#ececec" stroke-width="1"/>
<line x1="65" y1="260.0" x2="675" y2="260.0" stroke="#ececec" stroke-width="1"/>
<line x1="65" y1="199.0" x2="675" y2="199.0" stroke="#ececec" stroke-width="1"/>
<line x1="65" y1="116.3" x2="675" y2="116.3" stroke="#ddd" stroke-width="1"/>
<line x1="65" y1="33.5" x2="675" y2="33.5" stroke="#ececec" stroke-width="1"/>
<line x1="65.0" y1="20" x2="65.0" y2="350" stroke="#ececec" stroke-width="1"/>
<line x1="187.1" y1="20" x2="187.1" y2="350" stroke="#ececec" stroke-width="1"/>
<line x1="309.1" y1="20" x2="309.1" y2="350" stroke="#ececec" stroke-width="1"/>
<line x1="431.2" y1="20" x2="431.2" y2="350" stroke="#ececec" stroke-width="1"/>
<line x1="553.3" y1="20" x2="553.3" y2="350" stroke="#ececec" stroke-width="1"/>
<line x1="675.4" y1="20" x2="675.4" y2="350" stroke="#ececec" stroke-width="1"/>
<polyline points="65.0,119.3 65.1,52.9 65.3,87.3 65.4,144.1 65.6,161.3 65.7,152.0 65.9,153.9 66.0,160.1 66.2,165.6 66.3,168.5 66.5,170.4 66.7,173.3 67.0,175.1 67.3,178.0 67.5,179.2 67.8,182.3 68.0,183.3 68.3,185.5 68.5,186.7 68.8,189.0 69.0,191.1 69.3,192.9 69.6,194.7 69.8,198.1 70.1,198.9 70.3,201.1 70.6,202.6 70.8,204.4 71.0,205.7 71.3,207.1 71.5,208.5 71.8,209.8 72.0,211.0 72.3,211.0 72.5,213.0 72.8,213.1 73.0,214.0 73.2,215.0 73.5,214.1 73.7,216.1 74.0,216.3 74.2,217.8 74.4,217.2 74.7,218.4 74.9,218.5 75.1,218.6 75.4,219.4 75.6,220.8 75.9,220.6 76.1,221.7 76.3,222.5 76.6,224.4 76.8,225.1 77.0,226.8 77.2,225.4 77.5,226.1 77.7,228.2 77.9,229.3 78.1,229.5 78.4,231.2 78.6,231.8 78.8,231.9 79.1,232.0 79.3,233.2 79.5,233.9 79.7,235.0 79.9,235.4 80.2,235.0 80.4,234.0 80.6,237.9 80.8,237.2 81.0,237.8 81.2,239.3 81.4,240.2 81.7,239.9 81.9,240.9 82.1,241.2 82.3,241.2 82.5,240.9 82.7,239.4 82.9,241.2 83.2,242.3 83.4,242.9 83.6,243.0 83.8,244.2 84.0,244.9 84.2,245.1 84.4,246.3 84.6,245.8 84.8,244.3 85.0,245.2 85.2,246.3 85.4,246.3 85.7,248.1 85.8,246.6 86.0,246.0 86.2,245.1 86.5,249.6 86.7,248.2 86.9,249.3 87.1,249.1 87.3,246.6 87.5,248.5 87.7,250.6 87.9,249.5 88.1,251.0 88.3,251.8 88.5,250.5 88.7,250.1 88.9,252.0 89.1,252.1 89.3,251.8 89.4,251.2 89.6,251.9 89.8,252.8 90.0,252.7 90.2,253.7 90.6,253.5 90.8,254.3 91.0,252.6 91.2,254.3 91.4,255.4 91.5,253.3 91.7,254.7 92.1,255.8 92.3,255.6 92.5,255.4 92.7,256.3 92.9,256.7 93.1,256.6 93.3,256.6 93.5,258.5 93.7,257.1 93.8,257.6 94.0,257.8 94.2,258.6 94.4,257.6 94.6,257.1 94.8,258.5 95.0,256.0 95.2,262.1 95.3,258.6 95.5,257.6 95.7,258.5 95.9,259.9 96.1,261.2 96.3,260.1 96.5,258.9 96.6,262.1 96.8,259.9 97.0,261.5 97.2,260.4 97.4,261.6 97.6,262.8 97.8,260.1 97.9,262.7 98.1,262.8 98.3,262.0 98.5,262.4 98.6,262.1 98.8,261.5 99.0,262.5 99.2,262.2 99.4,264.7 99.6,263.1 99.7,262.6 99.9,264.2 100.1,263.4 100.3,263.2 100.5,264.9 100.6,264.3 100.8,263.2 101.0,263.0 101.4,264.0 101.6,262.9 101.7,266.6 101.9,265.9 102.1,264.9 102.3,264.4 102.5,263.2 102.6,265.8 102.8,264.8 103.0,266.7 103.2,264.4 103.3,263.3 103.5,265.3 103.7,265.5 103.9,266.5 104.0,263.9 104.2,265.8 104.4,267.4 104.6,267.7 104.8,267.3 104.9,266.5 105.1,266.4 105.3,266.3 105.4,268.6 105.6,269.2 105.8,267.1 106.0,264.9 106.2,265.8 106.3,267.0 106.5,268.2 106.7,266.5 106.8,266.7 107.0,266.0 107.2,268.5 107.3,267.1 107.5,268.3 107.7,271.5 107.8,269.6 108.0,267.8 108.2,267.5 108.4,271.2 108.5,266.8 108.7,268.4 109.0,269.3 109.2,269.3 109.4,267.2 109.5,269.4 109.7,271.0 109.9,270.9 110.1,268.2 110.2,267.7 110.4,269.2 110.6,269.1 110.7,268.6 110.9,269.2 111.1,268.6 111.2,269.3 111.4,270.3 111.6,270.9 111.7,268.5 111.9,269.3 112.1,269.7 112.2,271.3 112.4,273.3 112.6,269.4 112.7,271.4 112.9,271.4 113.2,271.6 113.3,273.3 113.5,268.9 113.7,270.9 113.8,271.9 114.0,271.4 114.2,271.2 114.3,271.5 114.5,271.0 114.7,271.5 114.8,271.2 115.0,271.4 115.2,272.7 115.3,272.2 115.5,274.8 115.6,271.1 115.8,273.5 116.0,272.6 116.1,274.7 116.3,273.6 116.4,274.3 116.6,272.3 116.8,272.9 116.9,272.7 117.1,271.9 117.3,272.2 117.4,272.4 117.6,271.0 117.7,272.4 117.9,273.1 118.1,273.8 118.2,275.4 118.4,275.1 118.6,274.2 118.7,273.1 118.9,271.4 119.0,274.2 119.3,271.9 119.5,274.6 119.7,272.5 119.8,273.2 120.0,270.4 120.1,275.4 120.3,273.3 120.5,274.5 120.6,274.0 120.8,276.2 120.9,270.6 121.1,274.2 121.3,273.3 121.4,276.7 121.6,275.1 121.7,274.9 121.9,274.6 122.1,276.6 122.2,274.9 122.4,273.4 122.5,275.0 122.7,274.2 122.9,275.0 123.0,270.4 123.2,276.1 123.3,278.3 123.5,274.8 123.7,275.7 123.8,275.4 124.0,275.6 124.2,274.4 124.3,274.9 124.5,276.3 124.6,275.1 124.8,275.0 125.0,274.4 125.1,277.8 125.3,274.5 125.4,274.8 125.6,275.8 125.8,274.1 125.9,276.7 126.1,279.0 126.3,276.9 126.4,276.0 126.6,276.8 126.7,276.5 126.9,272.6 127.0,277.4 127.2,272.2 127.4,278.2 127.5,275.7 127.7,272.6 127.9,276.3 128.0,277.5 128.2,274.4 128.3,275.9 128.5,276.1 128.6,275.8 128.8,276.5 129.0,276.8 129.1,274.5 129.3,277.3 129.4,276.4 129.6,276.1 129.7,277.5 129.9,278.0 130.0,276.7 130.2,277.9 130.3,278.2 130.5,276.8 130.6,277.6 130.8,275.8 131.0,275.3 131.1,279.4 131.3,279.0 131.4,278.4 131.6,277.3 131.7,278.0 131.9,278.3 132.0,277.8 132.2,278.7 132.3,279.0 132.5,277.7 132.6,275.4 132.8,279.5 132.9,277.0 133.1,278.5 133.3,277.7 133.4,278.3 133.6,279.3 133.7,277.8 133.9,275.7 134.0,279.5 134.2,279.4 134.3,278.8 134.5,276.4 134.6,277.4 134.8,278.1 134.9,278.7 135.1,278.0 135.2,278.3 135.4,277.8 135.5,278.0 135.8,276.5 136.0,278.7 136.2,278.4 136.3,278.8 136.5,278.7 136.6,276.6 136.8,281.9 136.9,279.6 137.1,280.0 137.2,276.9 137.4,281.5 137.5,279.5 137.7,277.7 137.8,279.4 138.0,279.3 138.1,278.8 138.3,276.0 138.4,278.9 138.6,280.2 138.7,280.5 138.9,279.6 139.0,280.8 139.2,277.2 139.3,281.5 139.5,279.1 139.6,277.9 139.8,280.0 139.9,279.8 140.1,278.7 140.2,278.8 140.4,280.0 140.5,279.6 140.7,278.5 140.8,278.6 141.0,279.6 141.1,280.4 141.3,279.2 141.4,280.0 141.6,279.6 141.7,281.2 141.9,280.1 142.0,277.5 142.2,281.9 142.3,280.1 142.5,280.7 142.6,281.2 142.8,281.7 142.9,282.5 143.1,277.6 143.2,277.7 143.4,281.4 143.5,281.2 143.7,280.9 143.9,280.2 144.0,280.1 144.1,280.9 144.3,281.6 144.4,282.7 144.6,282.7 144.7,281.9 144.9,281.3 145.0,281.4 145.2,280.6 145.3,278.7 145.5,279.5 145.6,281.0 145.8,281.6 145.9,278.9 146.0,279.6 146.2,279.5 146.3,281.9 146.5,281.3 146.6,280.1 146.8,282.0 146.9,279.3 147.1,282.5 147.2,280.4 147.4,282.7 147.5,281.3 147.7,279.9 147.8,281.2 148.0,283.3 148.1,284.1 148.2,283.1 148.4,283.5 148.5,282.1 148.7,283.3 148.8,279.5 149.0,280.1 149.1,282.8 149.3,282.6 149.4,281.9 149.6,284.5 149.7,283.0 149.8,282.5 150.0,282.9 150.1,281.7 150.3,280.3 150.4,283.3 150.6,282.4 150.7,281.0 150.9,282.0 151.0,282.9 151.2,279.1 151.3,282.1 151.5,283.4 151.6,280.4 151.7,283.2 151.9,283.4 152.0,279.8 152.2,281.9 152.4,280.0 152.5,279.4 152.6,280.1 152.8,284.6 152.9,280.7 153.1,282.4 153.2,284.2 153.4,282.9 153.5,284.4 153.6,281.6 153.8,283.6 153.9,282.9 154.1,283.2 154.2,285.6 154.4,282.5 154.5,283.0 154.7,283.3 154.8,283.2 154.9,282.9 155.1,280.6 155.2,283.3 155.4,282.4 155.5,282.4 155.7,281.4 155.8,281.3 156.0,283.6 156.1,283.5 156.2,281.8 156.4,283.0 156.5,283.4 156.7,280.8 156.8,283.8 157.0,282.3 157.1,283.4 157.2,283.2 157.4,282.8 157.5,285.9 157.7,286.8 157.8,283.5 158.0,284.1 158.1,287.0 158.3,284.4 158.4,282.2 158.5,284.5 158.7,281.5 158.8,281.6 159.0,283.9 159.1,284.8 159.3,282.7 159.4,286.1 159.5,282.8 159.7,281.7 159.8,285.3 160.0,283.7 160.1,284.6 160.3,282.2 160.4,287.1 160.5,283.1 160.7,282.2 160.8,283.4 161.0,282.0 161.1,283.8 161.3,286.6 161.4,286.7 161.5,284.8 161.7,285.2 161.8,283.6 162.0,285.2 162.2,285.1 162.3,283.0 162.4,286.6 162.6,282.8 162.7,282.4 162.9,285.6 163.0,285.1 163.2,285.1 163.3,282.3 163.4,284.3 163.6,280.9 163.7,284.9 163.9,281.8 164.0,284.6 164.2,284.5 164.3,284.9 164.4,286.1 164.6,283.0 164.7,285.7 164.9,284.1 165.0,284.0 165.2,289.2 165.3,287.0 165.4,285.8 165.6,285.8 165.7,285.2 165.9,285.6 166.1,283.6 166.3,285.1 166.4,287.8 166.5,286.5 166.7,284.9 166.8,285.7 167.0,282.5 167.1,284.6 167.3,284.0 167.4,284.2 167.5,284.5 167.7,286.8 167.8,284.7 168.0,283.3 168.1,283.3 168.3,286.9 168.4,286.2 168.5,285.8 168.7,283.2 168.8,284.3 169.0,286.5 169.1,282.0 169.2,283.3 169.4,283.8 169.5,284.8 169.7,284.5 169.8,283.9 170.0,282.5 170.1,288.1 170.2,284.6 170.4,286.6 170.5,287.2 170.7,285.2 170.8,284.1 171.0,288.5 171.1,285.7 171.3,285.2 171.4,286.3 171.5,284.9 171.7,289.3 171.8,286.2 172.0,283.4 172.1,285.7 172.3,282.5 172.4,287.8 172.5,284.6 172.7,288.7 172.8,285.0 173.0,286.3 173.1,284.8 173.3,285.8 173.4,284.7 173.5,285.9 173.7,288.3 173.8,285.9 174.0,284.1 174.1,282.6 174.3,284.5 174.4,283.5 174.5,286.6 174.7,287.1 174.8,289.0 175.0,286.9 175.1,286.2 175.3,286.8 175.4,282.6 175.6,286.9 175.7,287.9 175.8,287.6 176.0,285.2 176.1,286.6 176.3,288.5 176.4,288.1 176.6,286.4 176.7,286.9 176.8,288.8 177.0,288.1 177.1,288.6 177.3,287.9 177.4,287.3 177.6,288.6 177.7,288.5 177.9,286.7 178.0,287.7 178.1,284.1 178.3,286.3 178.4,288.9 178.6,287.0 178.7,285.7 178.9,288.1 179.0,287.1 179.1,284.6 179.3,288.5 179.4,287.2 179.6,287.9 179.7,288.0 179.9,286.3 180.0,288.1 180.1,285.5 180.3,287.3 180.4,288.5 180.6,287.0 180.7,288.5 180.9,288.5 181.0,286.9 181.2,287.0 181.3,287.7 181.4,286.3 181.6,289.8 181.7,286.5 181.9,288.5 182.0,284.4 182.2,288.7 182.3,288.6 182.5,286.0 182.6,285.4 182.7,285.8 182.9,285.9 183.0,286.2 183.2,286.4 183.3,286.7 183.5,289.4 183.6,286.5 183.8,288.9 183.9,287.4 184.1,287.7 184.2,287.3 184.4,286.8 184.5,288.4 184.7,285.4 184.8,288.1 184.9,285.3 185.1,284.9 185.2,289.5 185.4,288.1 185.5,286.1 185.7,286.3 185.8,289.4 186.0,288.3 186.1,291.0 186.2,286.4 186.4,285.8 186.5,285.8 186.7,286.2 186.8,284.6 187.0,288.9 187.1,286.2 187.2,289.2 187.4,287.7 187.5,289.5 187.7,288.4 187.8,283.7 188.0,290.4 188.1,287.3 188.2,288.8 188.4,286.9 188.5,288.5 188.7,286.7 188.8,285.7 188.9,290.8 189.1,288.7 189.2,285.9 189.4,286.0 189.5,289.3 189.7,287.2 189.8,286.8 189.9,286.0 190.1,286.4 190.2,289.1 190.4,287.5 190.5,290.0 190.7,288.0 190.8,289.6 190.9,289.2 191.1,287.6 191.2,289.3 191.4,287.5 191.5,287.9 191.6,288.9 191.8,287.9 191.9,288.7 192.1,286.6 192.2,285.5 192.4,285.8 192.5,288.8 192.6,288.8 192.8,288.2 192.9,288.8 193.1,289.0 193.2,288.3 193.3,289.0 193.5,288.9 193.6,289.0 193.8,285.7 193.9,286.7 194.1,290.4 194.2,287.1 194.4,287.7 194.5,292.6 194.6,289.0 194.8,287.0 194.9,288.7 195.1,288.9 195.2,290.7 195.4,292.1 195.5,290.9 195.6,289.8 195.8,288.9 195.9,291.5 196.1,289.1 196.2,285.8 196.4,289.2 196.5,287.9 196.6,288.6 196.8,286.8 196.9,290.0 197.1,287.3 197.2,290.5 197.4,289.5 197.5,291.4 197.6,288.6 197.8,287.8 197.9,288.7 198.1,288.9 198.2,290.7 198.4,289.6 198.5,292.5 198.6,289.3 198.8,289.0 198.9,290.8 199.1,290.4 199.2,286.8 199.4,287.4 199.5,289.1 199.6,287.1 199.8,288.7 199.9,290.5 200.1,287.4 200.2,286.2 200.3,290.9 200.5,291.1 200.6,287.0 200.8,288.8 200.9,289.9 201.1,286.9 201.2,290.8 201.3,293.0 201.5,288.6 201.6,287.9 201.8,291.3 201.9,286.9 202.1,287.6 202.2,289.8 202.3,288.7 202.5,290.8 202.6,290.7 202.8,289.2 202.9,289.8 203.1,288.8 203.2,289.9 203.3,290.7 203.5,288.6 203.6,286.0 203.8,291.3 203.9,290.5 204.0,287.6 204.2,289.5 204.3,288.5 204.5,289.4 204.6,289.9 204.8,292.5 204.9,289.7 205.0,287.4 205.2,289.2 205.3,289.7 205.5,290.5 205.6,289.5 205.8,290.5 205.9,288.6 206.0,290.0 206.2,288.5 206.3,291.8 206.5,290.0 206.6,288.0 206.8,291.1 206.9,289.2 207.0,288.7 207.2,288.8 207.3,289.1 207.5,289.3 207.6,291.5 207.8,290.7 207.9,289.3 208.0,288.4 208.2,291.7 208.3,289.9 208.5,290.2 208.6,289.7 208.7,291.1 208.9,290.8 209.0,290.6 209.2,288.5 209.3,289.1 209.5,290.5 209.6,288.7 209.8,292.2 209.9,291.9 210.0,289.9 210.2,287.2 210.3,289.5 210.5,292.0 210.6,292.4 210.7,287.7 210.9,289.2 211.0,289.0 211.2,289.5 211.3,293.1 211.5,289.0 211.6,293.0 211.7,288.4 211.9,289.4 212.0,287.8 212.2,291.8 212.3,289.8 212.5,291.8 212.6,288.3 212.7,289.6 212.9,290.9 213.0,289.9 213.2,292.1 213.3,291.0 213.5,289.3 213.6,289.8 213.7,289.4 213.9,288.9 214.0,291.6 214.2,291.8 214.3,289.1 214.5,288.1 214.6,289.9 214.7,292.5 214.9,288.9 215.0,290.5 215.2,291.0 215.3,291.4 215.4,292.8 215.6,291.2 215.7,290.9 215.9,289.6 216.0,292.2 216.2,289.1 216.3,291.8 216.5,290.6 216.6,292.9 216.7,291.0 216.9,289.6 217.0,291.5 217.2,288.9 217.3,288.9 217.5,291.7 217.6,289.3 217.8,290.1 217.9,291.2 218.0,288.8 218.2,287.9 218.3,289.4 218.5,291.5 218.6,291.1 218.7,291.0 218.9,288.2 219.0,289.1 219.2,291.9 219.3,288.6 219.5,293.4 219.6,290.0 219.7,292.6 219.9,291.1 220.0,288.9 220.2,288.2 220.3,287.5 220.5,293.3 220.6,290.2 220.7,290.3 220.9,288.7 221.0,293.1 221.2,291.3 221.3,290.8 221.5,290.0 221.6,291.2 221.7,292.0 221.9,289.3 222.0,290.3 222.2,288.9 222.3,291.7 222.5,291.1 222.6,291.5 222.8,292.7 222.9,288.8 223.0,292.0 223.2,289.7 223.3,291.5 223.5,289.4 223.6,291.4 223.7,291.0 223.9,288.4 224.0,291.3 224.2,293.0 224.3,293.3 224.5,290.4 224.6,290.0 224.7,289.0 224.9,292.4 225.0,292.5 225.2,290.3 225.3,290.8 225.5,294.6 225.6,289.0 225.7,291.2 225.9,288.7 226.0,290.9 226.2,291.0 226.3,292.5 226.5,289.8 226.6,289.7 226.7,292.2 226.9,289.2 227.0,292.2 227.2,290.4 227.3,293.5 227.4,290.9 227.6,290.7 227.7,293.8 227.9,293.6 228.0,289.2 228.2,289.9 228.3,290.7 228.4,287.2 228.6,290.7 228.7,289.2 228.9,291.9 229.0,291.8 229.1,290.5 229.3,294.1 229.4,291.7 229.6,289.7 229.7,288.6 229.9,290.7 230.0,290.5 230.1,294.7 230.3,290.5 230.4,291.4 230.6,292.7 230.7,291.0 230.9,290.4 231.0,292.2 231.1,290.4 231.3,293.5 231.4,291.7 231.6,291.0 231.7,291.1 231.9,290.0 232.0,289.4 232.2,290.8 232.3,292.0 232.4,289.8 232.6,290.4 232.7,290.5 232.9,290.4 233.0,291.6 233.2,289.8 233.3,293.3 233.4,289.7 233.6,292.4 233.7,290.7 233.9,290.7 234.0,293.6 234.2,291.9 234.3,290.2 234.4,293.5 234.6,290.3 234.7,292.5 234.9,289.0 235.0,291.6 235.2,288.4 235.3,289.2 235.4,290.1 235.6,290.8 235.7,292.4 235.9,289.1 236.0,293.1 236.2,292.0 236.3,294.1 236.4,292.4 236.6,289.8 236.7,291.2 236.9,289.9 237.0,291.3 237.2,292.4 237.3,294.1 237.4,292.1 237.6,292.1 237.7,287.8 237.9,287.1 238.0,292.5 238.2,293.6 238.3,290.7 238.4,293.8 238.6,291.8 238.7,291.9 238.9,293.1 239.0,290.5 239.2,291.9 239.3,291.1 239.4,289.5 239.6,292.8 239.7,291.0 239.9,291.3 240.0,291.6 240.2,289.2 240.3,290.6 240.4,293.4 240.6,294.6 240.7,287.3 240.9,291.9 241.0,291.1 241.2,293.1 241.3,290.1 241.4,292.7 241.6,290.0 241.7,289.9 241.9,296.0 242.0,292.6 242.2,291.0 242.3,289.7 242.5,291.2 242.6,292.0 242.7,292.6 242.9,293.5 243.0,290.7 243.2,288.9 243.3,293.7 243.5,291.5 243.6,290.6 243.8,293.4 243.9,291.8 244.0,290.6 244.2,290.1 244.3,292.4 244.5,291.0 244.6,293.6 244.8,295.2 244.9,289.3 245.1,293.2 245.2,290.8 245.4,294.9 245.5,293.5 245.6,291.3 245.8,290.9 245.9,292.9 246.1,292.4 246.2,295.3 246.4,293.6 246.5,288.4 246.7,294.8 246.8,291.4 246.9,291.4 247.1,292.7 247.2,293.3 247.4,292.6 247.5,292.5 247.7,293.4 247.8,292.1 247.9,292.5 248.1,292.3 248.2,290.0 248.4,290.8 248.5,291.8 248.7,288.6 248.8,290.4 248.9,290.0 249.1,292.0 249.2,293.9 249.4,290.0 249.5,290.8 249.7,290.4 249.8,292.5 249.9,292.0 250.1,290.9 250.2,292.7 250.4,295.8 250.5,292.2 250.7,290.4 250.8,292.7 250.9,290.7 251.1,290.8 251.2,292.4 251.4,294.5 251.5,291.3 251.7,293.9 251.8,291.6 252.0,292.4 252.1,294.8 252.2,291.4 252.4,294.0 252.5,292.5 252.7,291.3 252.8,292.9 253.0,293.7 253.1,293.1 253.2,291.3 253.4,291.4 253.5,293.2 253.7,292.4 253.8,293.2 254.0,292.1 254.1,291.4 254.2,293.5 254.4,291.5 254.5,292.9 254.7,289.6 254.8,294.6 255.0,292.7 255.1,290.9 255.3,292.5 255.4,290.7 255.5,292.4 255.7,289.8 255.8,291.8 256.0,295.2 256.1,291.9 256.3,290.9 256.4,294.6 256.5,291.5 256.7,291.9 256.8,292.2 257.0,293.5 257.1,292.9 257.3,292.7 257.4,294.1 257.6,291.6 257.7,289.4 257.8,291.8 258.0,290.9 258.1,295.6 258.3,292.7 258.4,291.5 258.6,293.6 258.7,291.4 258.8,291.6 259.0,292.9 259.1,294.9 259.3,291.9 259.4,289.6 259.6,293.4 259.7,291.7 259.8,290.7 260.0,292.8 260.1,292.7 260.3,294.3 260.4,292.1 260.6,292.3 260.7,288.8 260.8,292.9 261.0,290.4 261.1,291.9 261.3,290.8 261.4,293.0 261.6,295.0 261.7,295.7 261.9,293.6 262.0,296.6 262.1,293.8 262.3,294.1 262.4,293.3 262.6,293.9 262.7,291.6 262.9,291.2 263.0,292.2 263.2,294.7 263.3,291.4 263.5,292.3 263.6,289.8 263.7,293.5 263.9,293.2 264.0,291.3 264.2,294.0 264.3,291.5 264.5,294.7 264.6,293.8 264.8,289.6 264.9,293.7 265.0,292.3 265.2,294.2 265.3,292.2 265.5,293.7 265.6,296.4 265.8,293.0 265.9,293.1 266.0,292.4 266.2,294.0 266.3,292.4 266.5,293.8 266.6,292.3 266.8,294.7 266.9,293.2 267.0,289.4 267.2,291.9 267.3,296.5 267.5,292.5 267.6,293.7 267.7,291.1 267.9,292.6 268.0,292.1 268.2,294.9 268.3,289.6 268.5,291.9 268.6,292.6 268.7,294.9 268.9,293.7 269.0,292.4 269.2,289.4 269.3,291.1 269.5,291.0 269.6,290.3 269.7,293.6 269.9,293.8 270.0,292.9 270.2,294.5 270.3,295.4 270.5,291.9 270.6,291.9 270.7,294.7 270.9,295.4 271.0,295.3 271.2,293.9 271.3,293.3 271.5,295.0 271.6,293.8 271.7,295.1 271.9,292.3 272.0,295.3 272.2,292.7 272.3,291.1 272.5,292.7 272.6,293.2 272.7,294.0 272.9,293.1 273.0,295.4 273.2,293.5 273.3,290.3 273.5,292.8 273.6,293.3 273.7,293.3 273.9,294.6 274.0,292.5 274.2,292.6 274.3,293.5 274.5,291.4 274.6,291.4 274.7,294.3 274.9,295.1 275.0,292.7 275.2,293.8 275.3,294.0 275.5,294.9 275.6,295.1 275.7,292.7 275.9,293.8 276.0,290.9 276.2,294.8 276.3,294.7 276.4,292.4 276.6,291.6 276.7,293.6 276.9,290.0 277.0,292.7 277.2,295.4 277.3,293.2 277.4,293.7 277.6,292.0 277.7,293.2 277.9,293.6 278.0,294.4 278.2,292.4 278.3,297.4 278.4,294.2 278.6,291.9 278.7,293.9 278.9,291.4 279.0,293.7 279.1,293.1 279.3,294.3 279.4,293.8 279.6,291.6 279.7,292.3 279.9,290.0 280.0,292.0 280.2,291.5 280.3,294.5 280.4,292.2 280.6,295.1 280.7,293.5 280.9,292.3 281.0,291.2 281.1,294.7 281.3,293.5 281.4,291.0 281.6,294.6 281.7,293.6 281.9,294.3 282.0,294.3 282.1,295.1 282.3,293.8 282.4,293.7 282.6,296.6 282.7,292.6 282.9,293.1 283.0,291.7 283.1,294.9 283.3,289.8 283.4,293.6 283.6,294.3 283.7,295.4 283.8,292.5 284.0,296.1 284.1,296.2 284.3,294.7 284.4,291.5 284.6,295.8 284.7,295.8 284.8,293.0 285.0,289.9 285.1,293.8 285.3,294.6 285.4,291.2 285.6,294.6 285.7,297.4 285.8,294.9 286.0,293.5 286.1,294.1 286.3,292.8 286.4,294.1 286.5,294.2 286.7,293.9 286.8,293.3 287.0,292.4 287.1,293.7 287.3,295.7 287.4,294.8 287.5,296.8 287.7,292.9 287.8,296.0 288.0,296.6 288.1,292.1 288.3,294.6 288.4,293.9 288.5,291.5 288.7,293.3 288.8,293.9 289.0,296.1 289.1,292.5 289.2,294.2 289.4,292.0 289.5,293.5 289.7,294.2 289.8,293.4 290.0,293.2 290.1,291.3 290.2,291.0 290.4,293.5 290.5,293.1 290.7,297.0 290.8,294.6 291.0,293.2 291.1,292.5 291.2,293.2 291.4,292.9 291.5,293.9 291.7,297.0 291.8,293.7 292.0,292.3 292.1,293.9 292.2,295.4 292.4,292.8 292.5,293.4 292.7,292.7 292.8,293.4 292.9,293.9 293.1,293.5 293.2,292.3 293.4,294.7 293.5,294.8 293.7,298.3 293.8,294.4 293.9,292.9 294.1,294.1 294.2,294.8 294.4,294.1 294.5,295.4 294.7,295.6 294.8,293.1 294.9,296.0 295.1,291.4 295.2,294.2 295.4,295.3 295.5,293.4 295.6,295.6 295.8,296.6 295.9,296.1 296.1,293.1 296.2,295.9 296.4,296.9 296.5,295.2 296.6,294.7 296.8,295.8 296.9,293.5 297.1,294.9 297.2,294.3 297.4,295.4 297.5,293.6 297.6,296.5 297.8,293.7 297.9,292.1 298.1,293.7 298.2,292.0 298.4,298.9 298.5,296.9 298.6,296.3 298.8,295.4 298.9,293.0 299.1,295.0 299.2,294.1 299.4,295.2 299.5,294.9 299.7,290.7 299.8,292.3 299.9,294.0 300.1,295.3 300.2,292.3 300.4,292.6 300.5,293.8 300.7,295.5 300.8,293.6 300.9,292.4 301.1,292.8 301.2,296.5 301.4,294.0 301.5,294.7 301.6,293.2 301.8,296.4 301.9,294.8 302.1,295.6 302.2,293.4 302.4,290.5 302.5,297.3 302.6,298.1 302.8,295.8 302.9,294.5 303.1,294.8 303.2,295.5 303.4,293.7 303.5,296.3 303.6,295.9 303.8,290.9 303.9,295.6 304.1,295.8 304.2,294.0 304.4,293.3 304.5,295.3 304.7,294.0 304.8,296.2 305.0,296.6 305.1,292.5 305.2,293.2 305.4,292.2 305.5,294.0 305.7,293.7 305.8,292.8 306.0,294.6 306.1,295.6 306.3,293.0 306.4,294.4 306.5,292.8 306.7,293.3 306.8,294.3 307.0,296.6 307.1,296.6 307.3,295.1 307.4,294.0 307.6,294.7 307.7,294.2 307.8,297.2 308.0,296.9 308.1,295.5 308.3,293.5 308.4,294.9 308.5,292.6 308.7,295.8 308.8,294.7 309.0,298.7 309.1,292.8 309.3,293.9 309.4,295.6 309.5,294.1 309.7,293.2 309.8,292.0 310.0,292.0 310.1,294.5 310.3,293.7 310.4,291.1 310.5,292.2 310.7,294.9 310.8,294.4 311.0,291.8 311.1,294.9 311.3,293.1 311.4,295.7 311.5,294.9 311.7,293.8 311.8,295.1 312.0,295.1 312.1,293.0 312.3,294.8 312.4,295.6 312.5,294.9 312.7,295.0 312.8,294.0 313.0,295.6 313.1,295.8 313.3,295.4 313.4,293.3 313.5,295.0 313.7,292.4 313.8,296.3 314.0,295.1 314.1,293.5 314.3,292.6 314.4,294.2 314.5,294.1 314.7,294.3 314.8,295.3 315.0,295.5 315.1,295.8 315.3,293.9 315.4,296.1 315.5,295.9 315.7,292.8 315.8,292.6 316.0,297.2 316.1,291.5 316.2,294.8 316.4,296.2 316.5,293.1 316.7,295.4 316.8,293.1 317.0,296.2 317.1,294.8 317.2,295.1 317.4,295.4 317.5,292.4 317.7,296.4 317.8,294.4 318.0,295.0 318.1,295.1 318.2,296.2 318.4,294.9 318.5,293.6 318.7,294.9 318.8,295.8 319.0,296.9 319.1,293.8 319.2,294.8 319.4,296.6 319.5,294.2 319.7,293.5 319.8,295.4 319.9,294.4 320.1,296.9 320.2,293.2 320.4,296.4 320.5,294.8 320.7,296.4 320.8,292.0 321.0,297.2 321.1,295.7 321.2,296.2 321.4,293.9 321.5,295.0 321.7,295.4 321.8,294.9 321.9,296.5 322.1,293.8 322.2,294.8 322.4,295.8 322.5,296.2 322.7,293.1 322.8,292.3 322.9,296.0 323.1,295.0 323.2,296.6 323.4,294.0 323.5,294.4 323.7,296.5 323.8,296.3 323.9,292.3 324.1,295.6 324.2,295.3 324.4,297.9 324.5,297.7 324.6,293.6 324.8,292.0 324.9,295.3 325.1,292.6 325.2,296.6 325.4,292.8 325.5,294.1 325.6,293.2 325.8,296.2 325.9,292.7 326.1,292.0 326.2,292.5 326.4,294.8 326.5,294.6 326.6,294.5 326.8,296.3 326.9,294.2 327.1,295.6 327.2,295.9 327.4,297.6 327.5,295.3 327.6,292.3 327.8,295.9 327.9,292.6 328.1,294.4 328.2,297.5 328.4,293.9 328.5,297.8 328.7,293.6 328.8,292.9 328.9,292.1 329.1,292.9 329.2,295.5 329.4,293.7 329.5,295.7 329.7,295.2 329.8,292.7 329.9,295.9 330.1,295.2 330.2,294.1 330.4,295.4 330.5,295.8 330.7,291.7 330.8,295.2 330.9,297.8 331.1,295.8 331.2,294.8 331.4,293.5 331.5,296.5 331.6,296.4 331.8,296.5 331.9,296.3 332.1,294.9 332.2,293.6 332.4,294.0 332.5,293.4 332.6,294.7 332.8,294.7 332.9,296.1 333.1,293.8 333.2,293.9 333.4,296.8 333.5,292.4 333.6,295.4 333.8,293.7 333.9,293.7 334.1,294.7 334.2,292.3 334.4,293.4 334.5,295.8 334.6,296.5 334.8,296.8 334.9,297.2 335.1,297.2 335.2,297.7 335.3,296.4 335.5,292.3 335.6,295.9 335.8,294.8 335.9,294.6 336.1,296.6 336.2,293.8 336.4,296.8 336.5,292.2 336.6,295.4 336.8,296.0 336.9,293.2 337.1,295.7 337.2,293.7 337.3,296.7 337.5,297.5 337.6,294.6 337.8,294.6 337.9,297.3 338.1,294.5 338.2,295.2 338.3,294.2 338.5,294.3 338.6,295.9 338.8,296.5 338.9,296.0 339.1,297.7 339.2,296.2 339.3,297.1 339.5,294.8 339.6,296.8 339.8,296.2 339.9,294.9 340.1,296.8 340.2,297.3 340.3,294.1 340.5,294.0 340.6,297.5 340.8,292.1 340.9,296.1 341.0,293.8 341.2,296.8 341.3,295.1 341.5,296.8 341.6,294.9 341.8,296.2 341.9,297.9 342.1,296.7 342.2,297.3 342.3,291.8 342.5,295.5 342.6,295.4 342.8,297.7 342.9,297.3 343.1,293.9 343.2,300.5 343.3,295.4 343.5,297.0 343.6,294.0 343.8,297.2 343.9,298.6 344.1,295.4 344.2,296.1 344.3,294.0 344.5,294.7 344.6,293.0 344.8,294.6 344.9,295.0 345.1,295.3 345.2,295.2 345.3,294.3 345.5,295.3 345.6,293.1 345.8,294.5 345.9,297.0 346.0,295.2 346.2,297.1 346.3,295.3 346.5,295.2 346.6,295.1 346.8,296.1 346.9,295.5 347.0,294.9 347.2,292.7 347.3,295.3 347.5,295.3 347.6,296.8 347.8,292.9 347.9,297.9 348.0,293.5 348.2,294.6 348.3,297.5 348.5,295.7 348.6,298.0 348.8,297.1 348.9,295.0 349.0,294.6 349.2,295.3 349.3,296.7 349.5,296.7 349.6,296.9 349.8,294.3 349.9,296.4 350.0,293.6 350.2,295.2 350.3,298.9 350.5,298.5 350.6,295.9 350.7,295.0 350.9,292.8 351.0,293.8 351.2,293.1 351.3,297.4 351.5,294.3 351.6,296.9 351.7,297.7 351.9,295.4 352.0,293.3 352.2,293.7 352.3,296.1 352.5,292.4 352.6,297.7 352.7,294.2 352.9,296.8 353.0,295.0 353.2,298.2 353.3,298.4 353.5,291.5 353.6,296.6 353.8,294.1 353.9,290.7 354.0,300.6 354.2,296.1 354.3,290.6 354.5,294.0 354.6,294.8 354.8,297.3 354.9,298.5 355.0,297.0 355.2,297.8 355.3,296.6 355.5,295.7 355.6,297.3 355.8,296.9 355.9,292.8 356.0,294.8 356.2,295.9 356.3,295.4 356.5,298.3 356.6,292.9 356.8,294.2 356.9,294.1 357.1,296.2 357.2,296.0 357.3,293.9 357.5,294.5 357.6,296.3 357.8,295.9 357.9,296.6 358.0,295.4 358.2,295.0 358.3,293.6 358.5,297.0 358.6,295.5 358.8,295.0 358.9,297.6 359.0,296.9 359.2,295.3 359.3,296.1 359.5,294.1 359.6,298.8 359.8,296.1 359.9,294.3 360.0,295.6 360.2,292.8 360.3,297.1 360.5,296.7 360.6,297.4 360.8,296.7 360.9,294.4 361.0,297.1 361.2,293.6 361.3,297.0 361.5,294.0 361.6,298.2 361.8,296.4 361.9,296.5 362.0,296.0 362.2,294.9 362.3,295.9 362.5,295.7 362.6,294.1 362.8,295.0 362.9,294.7 363.0,295.6 363.2,294.8 363.3,297.0 363.5,296.4 363.6,295.8 363.8,297.3 363.9,296.5 364.1,297.0 364.2,293.1 364.4,296.1 364.5,296.4 364.6,297.5 364.8,297.6 364.9,295.6 365.1,295.4 365.2,296.0 365.4,296.7 365.5,296.0 365.7,295.4 365.8,296.6 365.9,298.1 366.1,297.3 366.2,292.7 366.4,295.5 366.5,293.8 366.7,297.3 366.8,297.0 366.9,295.8 367.1,299.1 367.2,300.2 367.4,295.7 367.5,296.7 367.7,296.2 367.8,294.7 367.9,296.6 368.1,295.0 368.2,297.5 368.4,293.4 368.5,296.4 368.7,299.6 368.8,293.4 368.9,297.5 369.1,294.4 369.2,295.8 369.4,295.7 369.5,293.7 369.7,298.2 369.8,294.6 370.0,296.9 370.1,292.1 370.2,294.4 370.4,297.0 370.5,297.0 370.7,295.7 370.8,298.3 371.0,296.9 371.1,296.0 371.2,293.4 371.4,295.7 371.5,298.8 371.7,296.1 371.8,294.1 372.0,297.0 372.1,293.7 372.3,293.4 372.4,296.8 372.5,295.6 372.7,293.8 372.8,294.8 373.0,298.2 373.1,294.2 373.3,295.5 373.4,297.1 373.5,294.1 373.7,295.4 373.8,296.4 374.0,294.2 374.1,294.5 374.3,293.3 374.4,300.6 374.5,294.0 374.7,297.5 374.8,298.2 375.0,297.5 375.1,294.0 375.3,294.4 375.4,297.0 375.6,297.0 375.7,297.3 375.8,297.1 376.0,298.1 376.1,296.0 376.3,294.6 376.4,293.9 376.6,296.0 376.7,299.7 376.8,296.5 377.0,293.2 377.1,295.9 377.3,296.1 377.4,297.3 377.6,301.6 377.7,299.3 377.8,295.4 378.0,294.7 378.1,297.7 378.3,297.6 378.4,296.9 378.6,297.6 378.7,297.7 378.8,295.2 379.0,295.0 379.1,293.3 379.3,296.2 379.4,298.0 379.6,297.0 379.7,294.8 379.8,298.0 380.0,297.9 380.1,296.0 380.3,294.6 380.4,294.6 380.6,296.2 380.7,297.8 380.8,294.9 381.0,296.3 381.1,292.9 381.3,294.1 381.4,296.6 381.6,294.3 381.7,292.7 381.8,297.9 382.0,293.2 382.1,297.4 382.3,296.6 382.4,297.7 382.6,298.1 382.7,298.4 382.9,296.8 383.0,295.2 383.1,296.5 383.3,294.8 383.4,295.6 383.6,298.9 383.7,300.1 383.9,297.4 384.0,294.4 384.1,296.0 384.4,296.1 384.5,296.0 384.7,295.2 384.8,293.8 384.9,297.8 385.1,296.6 385.2,296.8 385.4,297.4 385.5,295.5 385.7,298.9 385.8,297.2 385.9,299.1 386.1,298.2 386.2,295.6 386.4,297.8 386.5,296.9 386.7,298.0 386.8,294.5 386.9,298.6 387.1,293.8 387.2,297.5 387.4,299.9 387.5,294.4 387.7,295.2 387.8,295.3 387.9,295.5 388.1,295.6 388.2,296.6 388.4,297.6 388.5,296.0 388.7,296.3 388.8,297.7 388.9,295.9 389.1,297.2 389.2,296.9 389.4,294.8 389.5,293.6 389.7,296.6 389.8,299.5 389.9,291.9 390.1,299.2 390.2,297.7 390.4,297.0 390.5,296.5 390.7,296.8 390.8,297.1 390.9,299.2 391.1,297.7 391.2,294.0 391.4,297.1 391.5,296.4 391.7,297.7 391.8,294.9 391.9,295.5 392.1,296.0 392.2,295.2 392.4,296.3 392.5,294.8 392.7,297.6 392.8,298.9 392.9,298.0 393.1,297.5 393.2,296.9 393.4,296.4 393.5,297.3 393.7,296.0 393.8,295.3 393.9,293.8 394.1,297.0 394.2,298.7 394.4,297.0 394.5,296.5 394.7,296.6 394.8,296.1 394.9,296.8 395.1,295.3 395.2,295.1 395.4,295.2 395.5,298.6 395.7,300.3 395.8,298.3 395.9,296.3 396.1,295.7 396.2,297.3 396.4,293.3 396.5,295.7 396.7,293.1 396.8,296.6 397.0,296.2 397.1,298.8 397.2,298.0 397.4,296.1 397.5,297.6 397.7,299.7 397.8,297.3 398.0,293.8 398.1,297.3 398.2,297.0 398.4,297.1 398.5,295.9 398.7,296.4 398.8,297.3 398.9,296.7 399.1,296.7 399.2,294.6 399.4,298.0 399.5,300.7 399.7,296.7 399.8,296.9 399.9,294.3 400.1,298.2 400.2,296.4 400.4,294.4 400.5,294.3 400.7,294.6 400.8,297.7 400.9,295.6 401.1,297.8 401.2,296.8 401.4,297.5 401.5,296.2 401.7,292.0 401.8,293.6 401.9,294.4 402.1,296.8 402.2,296.3 402.4,295.1 402.5,296.8 402.7,298.2 402.8,295.9 402.9,297.7 403.1,296.7 403.2,297.9 403.4,295.7 403.5,297.3 403.7,293.6 403.8,294.5 403.9,294.6 404.1,293.9 404.2,293.6 404.4,296.6 404.5,296.3 404.7,295.8 404.8,297.6 405.0,297.9 405.1,298.2 405.2,295.0 405.4,294.2 405.5,296.0 405.7,298.1 405.8,296.9 406.0,294.9 406.1,293.5 406.2,297.0 406.4,297.5 406.5,297.3 406.7,298.1 406.8,296.7 407.0,297.6 407.1,297.2 407.2,296.7 407.4,297.9 407.5,298.4 407.7,296.1 407.8,295.0 408.0,297.2 408.1,293.6 408.2,296.2 408.4,296.5 408.5,294.8 408.7,296.9 408.8,297.6 409.0,294.7 409.1,298.2 409.3,297.3 409.4,298.2 409.5,296.0 409.7,296.5 409.8,296.8 410.0,294.6 410.1,296.7 410.2,299.2 410.4,296.8 410.5,297.5 410.7,297.2 410.8,293.9 411.0,293.1 411.1,293.3 411.2,297.7 411.4,296.7 411.5,295.8 411.7,298.1 411.8,297.7 412.0,298.1 412.1,296.8 412.2,296.8 412.4,297.2 412.5,298.2 412.7,297.8 412.8,295.0 413.0,297.9 413.1,299.7 413.2,294.8 413.4,298.4 413.5,298.4 413.7,295.8 413.8,295.7 414.0,300.9 414.1,296.2 414.2,293.9 414.4,297.8 414.5,296.2 414.7,297.2 414.8,294.2 415.0,299.8 415.1,294.8 415.2,295.8 415.4,301.0 415.5,297.5 415.7,296.1 415.8,296.0 416.0,296.2 416.1,298.1 416.2,297.3 416.4,296.0 416.5,297.0 416.7,298.0 416.8,295.9 417.0,299.2 417.1,294.8 417.2,296.3 417.4,296.2 417.5,299.2 417.7,298.0 417.8,295.8 418.0,298.9 418.1,296.5 418.2,295.0 418.4,299.0 418.5,296.7 418.7,293.7 418.8,297.4 419.0,297.0 419.1,296.3 419.2,296.5 419.4,299.4 419.5,294.6 419.7,293.7 419.8,294.0 420.0,293.7 420.1,299.0 420.2,294.2 420.4,298.0 420.5,297.4 420.7,297.4 420.8,294.1 421.0,297.0 421.1,295.2 421.2,295.5 421.4,298.3 421.5,299.7 421.7,297.9 421.8,297.8 422.0,292.5 422.1,297.0 422.2,296.9 422.4,294.9 422.5,296.0 422.7,299.7 422.8,296.7 423.0,297.4 423.1,297.5 423.2,298.2 423.4,297.1 423.5,294.5 423.7,297.0 423.8,295.4 424.0,296.1 424.1,298.2 424.2,296.1 424.4,297.3 424.5,294.2 424.7,295.9 424.8,292.9 425.0,293.2 425.1,298.9 425.3,296.0 425.4,298.3 425.5,297.8 425.7,298.5 425.8,296.6 426.0,295.7 426.1,293.3 426.3,296.5 426.4,297.8 426.6,298.1 426.7,293.2 426.8,298.2 427.0,296.9 427.1,299.3 427.3,293.5 427.4,296.8 427.6,297.6 427.7,294.5 427.8,298.8 428.0,297.5 428.1,298.5 428.3,297.4 428.4,295.9 428.6,292.8 428.7,296.7 428.8,297.9 429.0,297.2 429.1,296.0 429.3,294.7 429.4,297.6 429.6,295.6 429.7,298.1 429.8,298.8 430.0,295.7 430.1,294.0 430.3,296.9 430.4,296.6 430.6,298.7 430.7,300.0 430.8,297.6 431.0,296.2 431.1,296.9 431.3,299.1 431.4,297.2 431.5,296.1 431.7,296.9 431.8,295.9 432.0,296.7 432.1,298.0 432.3,296.3 432.4,294.1 432.5,294.3 432.7,296.8 432.8,295.1 433.0,298.3 433.1,295.9 433.3,297.2 433.4,296.2 433.5,297.3 433.7,300.2 433.8,296.7 434.0,294.6 434.1,301.6 434.3,295.7 434.4,298.3 434.5,298.5 434.7,299.1 434.8,295.6 435.0,296.5 435.1,295.5 435.3,298.0 435.4,297.8 435.5,296.5 435.7,294.8 435.8,296.7 436.0,298.3 436.1,299.0 436.3,295.7 436.4,298.2 436.5,295.7 436.7,297.2 436.8,295.7 437.0,296.1 437.1,296.2 437.3,296.4 437.4,295.3 437.5,295.0 437.7,294.0 437.8,297.2 438.0,298.5 438.1,298.4 438.2,297.4 438.4,298.6 438.5,299.0 438.7,296.3 438.8,299.6 439.0,299.3 439.1,298.7 439.3,295.1 439.4,296.8 439.5,299.2 439.7,292.8 439.8,298.3 440.0,298.1 440.1,296.8 440.3,296.4 440.4,298.2 440.6,295.9 440.7,294.6 440.8,295.1 441.0,299.3 441.1,297.6 441.3,299.6 441.4,298.1 441.6,298.4 441.7,295.0 441.9,300.1 442.0,296.7 442.1,299.5 442.3,298.9 442.4,295.8 442.6,296.8 442.7,297.6 442.9,295.8 443.0,295.3 443.1,300.8 443.3,298.8 443.4,298.7 443.6,296.7 443.7,297.7 443.9,295.6 444.0,298.1 444.2,295.8 444.3,300.7 444.4,295.8 444.6,298.0 444.7,296.9 444.9,295.0 445.0,296.4 445.2,295.6 445.3,295.7 445.4,296.7 445.6,299.2 445.7,296.0 445.9,298.9 446.0,292.6 446.2,297.9 446.3,297.4 446.5,296.7 446.6,297.9 446.7,297.0 446.9,297.7 447.0,297.7 447.2,293.3 447.3,296.1 447.5,297.4 447.6,299.6 447.7,296.3 447.9,296.1 448.0,301.0 448.2,297.1 448.3,298.2 448.5,293.8 448.6,298.3 448.7,296.6 448.9,297.8 449.0,296.5 449.2,296.6 449.3,300.0 449.5,297.0 449.6,296.2 449.8,297.4 449.9,296.0 450.0,297.5 450.2,300.3 450.3,299.1 450.5,295.8 450.6,299.5 450.8,298.8 450.9,299.2 451.0,297.9 451.2,298.3 451.3,291.8 451.5,297.1 451.6,293.9 451.8,297.4 451.9,296.7 452.1,296.7 452.2,299.1 452.3,298.2 452.5,297.7 452.7,297.4 452.8,295.9 453.0,296.4 453.1,297.3 453.3,297.9 453.4,300.3 453.5,297.5 453.7,294.8 453.8,296.2 454.0,298.9 454.1,298.1 454.3,295.8 454.4,299.5 454.5,296.0 454.7,298.5 454.8,296.7 455.0,295.5 455.1,295.0 455.3,297.8 455.4,295.3 455.5,297.6 455.7,296.5 455.8,299.6 456.0,297.8 456.1,301.0 456.3,294.0 456.4,298.2 456.6,296.8 456.7,300.0 456.8,299.9 457.0,296.0 457.1,295.2 457.3,296.5 457.4,295.2 457.6,300.7 457.7,297.9 457.8,295.2 458.0,299.7 458.1,300.2 458.3,298.4 458.4,296.8 458.6,297.4 458.7,297.4 458.8,297.4 459.0,296.9 459.1,296.4 459.3,299.7 459.4,298.2 459.6,299.0 459.7,299.3 459.8,297.0 460.0,298.2 460.1,300.1 460.3,296.8 460.4,296.5 460.5,297.5 460.7,298.9 460.8,297.1 461.0,297.4 461.1,297.8 461.3,299.9 461.4,298.1 461.5,295.4 461.7,297.4 461.8,296.2 462.0,295.5 462.1,297.7 462.3,297.0 462.4,296.9 462.5,296.4 462.7,299.5 462.8,296.6 463.0,298.7 463.1,298.3 463.3,298.1 463.4,297.4 463.5,296.4 463.7,296.0 463.8,297.2 464.0,297.1 464.1,299.4 464.3,298.7 464.4,300.6 464.5,298.4 464.7,297.9 464.8,300.3 465.0,297.7 465.1,298.1 465.3,302.3 465.4,295.3 465.5,294.7 465.7,294.6 465.8,299.7 466.0,297.3 466.1,297.3 466.3,298.2 466.4,296.6 466.5,299.5 466.7,297.3 466.8,297.5 467.0,296.9 467.1,297.5 467.2,295.5 467.4,300.9 467.5,297.5 467.7,298.8 467.8,297.4 468.0,298.0 468.1,296.7 468.2,296.3 468.4,298.1 468.5,298.9 468.7,299.5 468.8,296.0 469.0,301.7 469.1,297.3 469.2,294.8 469.4,298.5 469.5,294.6 469.7,301.1 469.8,299.0 469.9,298.4 470.1,296.6 470.2,296.6 470.4,296.1 470.5,298.4 470.7,296.6 470.8,297.9 470.9,297.5 471.1,296.4 471.2,297.5 471.4,299.6 471.5,298.7 471.7,295.7 471.8,299.4 471.9,297.9 472.1,300.6 472.2,298.6 472.4,297.2 472.5,299.4 472.7,296.1 472.8,296.2 472.9,297.5 473.1,295.5 473.2,295.7 473.4,301.5 473.5,296.5 473.7,298.5 473.8,299.1 473.9,298.9 474.1,298.7 474.2,295.5 474.4,299.4 474.5,297.0 474.7,301.5 474.8,297.8 474.9,298.6 475.1,295.1 475.2,299.4 475.4,297.1 475.5,296.8 475.7,297.6 475.8,299.5 475.9,297.3 476.1,295.3 476.2,299.9 476.4,297.7 476.5,297.9 476.7,296.3 476.8,297.7 476.9,299.0 477.1,299.2 477.2,296.9 477.4,294.8 477.5,294.9 477.7,297.3 477.8,299.9 477.9,297.3 478.1,297.4 478.2,296.1 478.4,296.7 478.5,297.6 478.7,295.8 478.8,296.7 478.9,298.4 479.1,299.5 479.2,300.0 479.4,299.8 479.5,298.2 479.7,295.5 479.8,297.1 479.9,297.4 480.1,297.1 480.2,298.8 480.4,297.2 480.5,296.1 480.7,296.3 480.8,297.2 480.9,299.7 481.1,297.8 481.2,299.5 481.4,298.5 481.5,298.5 481.7,298.5 481.8,296.6 481.9,296.9 482.1,301.1 482.2,296.8 482.4,297.9 482.5,300.5 482.7,296.1 482.8,295.6 482.9,297.3 483.1,298.0 483.2,295.8 483.4,293.9 483.5,298.3 483.7,297.0 483.8,298.4 483.9,297.7 484.1,300.0 484.2,297.2 484.4,295.7 484.5,297.4 484.7,295.5 484.8,296.9 484.9,298.9 485.1,301.6 485.2,301.7 485.4,300.4 485.5,297.1 485.7,297.5 485.8,297.8 486.0,300.4 486.1,300.6 486.2,297.8 486.4,294.4 486.5,298.0 486.7,300.8 486.8,298.0 487.0,296.6 487.1,299.5 487.2,293.3 487.4,300.3 487.5,300.1 487.7,296.9 487.8,298.8 488.0,299.8 488.1,296.8 488.2,300.8 488.4,299.0 488.5,298.1 488.7,298.1 488.8,301.5 489.0,299.2 489.1,295.8 489.2,296.3 489.4,297.5 489.5,294.9 489.7,297.0 489.8,295.4 490.0,296.0 490.1,300.2 490.2,297.8 490.4,296.2 490.5,299.7 490.7,300.0 490.8,297.7 491.0,298.0 491.1,295.1 491.2,295.8 491.4,298.4 491.5,296.4 491.7,297.6 491.8,298.2 492.0,298.4 492.1,297.4 492.2,296.6 492.4,300.9 492.5,297.5 492.7,298.5 492.8,298.5 492.9,297.0 493.1,298.2 493.2,297.3 493.4,298.9 493.5,297.2 493.7,294.5 493.8,299.0 493.9,298.4 494.1,298.8 494.2,295.8 494.4,299.1 494.5,298.5 494.7,297.6 494.8,300.0 494.9,296.7 495.1,298.8 495.2,295.8 495.4,300.0 495.5,300.5 495.7,299.7 495.8,294.8 495.9,299.0 496.1,297.0 496.2,297.5 496.4,296.2 496.5,299.5 496.7,299.5 496.8,297.6 496.9,297.6 497.1,299.1 497.2,298.8 497.4,298.1 497.5,297.8 497.7,299.2 497.8,300.8 498.0,297.1 498.1,299.2 498.2,296.1 498.4,299.6 498.5,294.1 498.7,300.5 498.8,296.9 498.9,294.9 499.1,298.1 499.2,298.6 499.4,301.1 499.5,299.9 499.7,296.5 499.8,299.9 500.0,298.0 500.1,299.2 500.2,298.4 500.4,298.0 500.5,296.7 500.7,302.8 500.8,299.2 501.0,294.2 501.1,300.4 501.2,295.4 501.4,299.3 501.5,298.2 501.7,296.6 501.8,300.4 501.9,298.9 502.1,298.4 502.2,296.0 502.4,296.1 502.5,297.8 502.7,296.5 502.8,297.8 502.9,298.1 503.1,299.2 503.2,298.8 503.4,293.7 503.5,296.5 503.7,299.6 503.8,297.8 503.9,297.4 504.1,298.5 504.2,297.1 504.4,297.9 504.5,297.8 504.7,298.4 504.8,297.1 505.0,296.7 505.1,299.2 505.2,296.6 505.4,299.2 505.5,299.1 505.7,298.4 505.8,299.2 506.0,296.9 506.1,299.1 506.2,294.7 506.4,299.3 506.5,299.7 506.7,296.3 506.8,297.0 506.9,301.3 507.1,296.3 507.2,298.3 507.4,300.6 507.5,297.9 507.7,298.4 507.8,297.5 507.9,299.2 508.1,296.7 508.2,295.7 508.4,298.7 508.5,300.0 508.6,296.5 508.8,297.9 508.9,299.1 509.1,298.3 509.2,298.5 509.4,297.3 509.5,299.5 509.6,299.5 509.8,298.6 509.9,297.0 510.1,294.1 510.2,295.6 510.4,296.4 510.5,301.9 510.7,296.1 510.8,298.3 510.9,295.9 511.1,298.4 511.2,300.2 511.4,299.4 511.5,297.0 511.7,296.7 511.8,297.8 511.9,298.7 512.1,295.2 512.2,296.7 512.4,299.1 512.5,299.8 512.7,294.4 512.8,295.9 512.9,298.2 513.1,298.0 513.2,297.7 513.4,298.1 513.5,298.9 513.7,297.5 513.8,297.6 514.0,295.2 514.1,297.9 514.2,297.6 514.4,297.7 514.5,296.6 514.7,296.3 514.8,298.1 515.0,296.8 515.1,297.9 515.2,299.8 515.4,298.8 515.5,298.6 515.7,294.9 515.8,295.3 516.0,298.2 516.1,297.0 516.2,296.6 516.4,299.2 516.5,298.2 516.7,298.6 516.8,299.2 517.0,299.0 517.1,296.7 517.2,298.6 517.4,296.6 517.5,298.6 517.7,297.5 517.8,297.7 518.0,296.5 518.1,296.1 518.2,296.5 518.4,297.2 518.5,297.9 518.7,299.7 518.8,296.1 519.0,299.5 519.1,298.7 519.3,296.6 519.4,300.7 519.5,296.9 519.7,300.1 519.8,298.0 520.0,300.0 520.1,298.7 520.3,296.9 520.4,297.8 520.5,300.0 520.7,298.4 520.8,300.8 521.0,295.6 521.1,299.0 521.3,301.0 521.4,296.9 521.5,296.3 521.7,298.0 521.8,300.6 522.0,297.0 522.1,298.7 522.3,298.8 522.4,299.6 522.5,297.9 522.7,298.9 522.8,298.0 523.0,298.9 523.1,296.0 523.3,300.0 523.4,298.4 523.5,295.8 523.7,295.3 523.8,295.8 524.0,299.2 524.1,299.5 524.3,300.5 524.4,297.9 524.5,298.1 524.7,298.5 524.8,297.5 525.0,298.2 525.1,296.4 525.2,295.3 525.4,299.8 525.5,297.9 525.7,299.0 525.8,297.4 526.0,297.5 526.1,299.8 526.2,297.0 526.4,299.5 526.5,299.0 526.7,297.4 526.8,298.0 527.0,296.2 527.1,296.4 527.2,298.5 527.4,296.6 527.5,300.2 527.7,299.0 527.8,295.5 527.9,296.1 528.1,296.9 528.2,300.3 528.4,299.6 528.5,299.1 528.7,300.2 528.8,299.1 528.9,298.5 529.1,296.6 529.2,298.6 529.4,297.4 529.5,296.8 529.7,298.6 529.8,299.5 529.9,300.8 530.1,296.5 530.2,300.2 530.4,297.2 530.5,297.2 530.7,297.1 530.8,297.5 530.9,299.8 531.1,300.1 531.2,296.8 531.4,296.0 531.5,298.2 531.6,298.2 531.8,298.3 531.9,298.9 532.1,299.3 532.2,301.0 532.4,297.6 532.5,297.9 532.6,297.1 532.8,297.0 532.9,297.9 533.1,297.0 533.2,299.6 533.4,299.0 533.5,298.0 533.6,300.0 533.8,298.5 533.9,300.5 534.1,298.6 534.2,299.0 534.3,299.7 534.5,298.3 534.6,299.4 534.8,298.1 534.9,299.0 535.1,297.8 535.2,294.7 535.3,295.1 535.5,297.4 535.6,299.9 535.8,301.1 535.9,298.9 536.1,297.3 536.2,300.2 536.3,298.0 536.5,296.4 536.6,295.8 536.8,296.3 536.9,302.4 537.0,295.7 537.2,297.0 537.3,299.4 537.5,297.0 537.6,299.2 537.8,297.3 537.9,298.8 538.0,296.8 538.2,301.3 538.3,295.9 538.5,300.0 538.6,299.1 538.8,295.8 538.9,299.0 539.0,300.9 539.2,297.2 539.3,297.7 539.5,299.5 539.6,299.1 539.7,299.3 539.9,297.9 540.0,299.3 540.2,296.4 540.3,297.8 540.5,298.9 540.6,295.6 540.7,300.0 540.9,300.4 541.0,296.2 541.2,300.8 541.3,299.4 541.5,298.5 541.6,298.6 541.7,298.4 541.9,296.6 542.0,298.0 542.2,293.9 542.3,295.3 542.4,298.3 542.6,298.8 542.7,300.4 542.9,300.5 543.0,295.6 543.2,299.2 543.3,296.0 543.5,300.3 543.6,299.5 543.7,298.6 543.9,299.1 544.0,299.3 544.2,295.4 544.3,299.1 544.5,299.1 544.6,296.2 544.7,296.7 544.9,298.0 545.0,298.6 545.2,299.6 545.3,296.4 545.5,299.6 545.6,298.0 545.7,301.7 545.9,297.1 546.0,298.1 546.2,296.2 546.3,299.7 546.5,298.0 546.6,297.6 546.7,300.2 546.9,297.9 547.0,301.4 547.2,297.7 547.3,298.4 547.5,301.1 547.6,299.5 547.8,300.9 547.9,299.9 548.0,300.4 548.2,300.9 548.3,300.9 548.5,298.8 548.6,301.0 548.8,296.5 548.9,294.2 549.1,297.2 549.2,296.7 549.3,298.2 549.5,298.1 549.6,296.5 549.8,297.1 549.9,296.2 550.1,298.7 550.2,300.0 550.3,296.6 550.5,300.8 550.6,298.4 550.8,297.5 550.9,295.6 551.0,301.1 551.2,297.0 551.3,297.1 551.5,299.2 551.6,298.8 551.8,297.8 551.9,299.5 552.0,296.4 552.2,298.5 552.3,296.2 552.5,297.9 552.6,300.8 552.8,299.0 552.9,297.8 553.0,295.8 553.2,298.1 553.3,299.9 553.5,298.5 553.6,299.8 553.8,297.8 553.9,301.5 554.0,298.6 554.2,302.2 554.3,296.8 554.5,298.6 554.6,303.0 554.8,299.3 554.9,297.7 555.0,298.1 555.2,298.3 555.3,299.1 555.5,298.6 555.6,301.2 555.8,297.7 555.9,298.3 556.0,301.0 556.2,300.9 556.3,296.8 556.5,299.3 556.6,297.7 556.7,300.9 556.9,297.2 557.0,298.1 557.2,299.4 557.3,302.5 557.5,300.3 557.6,298.6 557.7,299.3 557.9,301.1 558.0,298.6 558.2,300.6 558.3,299.4 558.5,298.3 558.6,298.6 558.7,298.3 558.9,298.3 559.0,297.4 559.2,298.8 559.3,298.1 559.5,300.0 559.6,298.4 559.7,294.5 559.9,292.4 560.0,301.4 560.2,300.3 560.3,297.0 560.4,298.2 560.6,299.0 560.7,298.5 560.9,296.2 561.0,297.4 561.2,298.3 561.3,299.0 561.4,300.6 561.6,300.6 561.7,297.0 561.9,299.3 562.0,297.9 562.2,299.1 562.3,296.1 562.4,301.0 562.6,299.1 562.7,298.8 562.9,296.2 563.0,295.9 563.2,296.0 563.3,297.9 563.4,298.3 563.6,296.5 563.7,299.7 563.9,301.1 564.0,299.8 564.2,299.9 564.3,299.1 564.4,299.0 564.6,297.3 564.7,298.4 564.9,299.6 565.0,301.7 565.1,299.1 565.3,297.4 565.4,299.8 565.6,300.7 565.7,298.9 565.9,297.0 566.0,297.8 566.2,295.5 566.3,296.3 566.4,294.5 566.6,297.8 566.7,298.2 566.9,295.6 567.0,298.2 567.2,297.3 567.3,297.2 567.4,298.9 567.6,299.7 567.7,298.5 567.9,298.7 568.0,297.8 568.2,298.9 568.3,295.7 568.4,300.0 568.6,297.9 568.7,299.6 568.9,296.4 569.0,300.8 569.2,298.0 569.3,296.9 569.4,298.5 569.6,298.4 569.7,299.2 569.9,297.7 570.0,298.8 570.1,297.5 570.3,300.8 570.4,298.8 570.6,302.8 570.7,298.3 570.9,299.3 571.0,298.7 571.1,298.6 571.3,297.4 571.4,296.3 571.6,299.4 571.7,300.3 571.9,299.4 572.0,296.3 572.1,299.0 572.3,297.8 572.4,297.4 572.6,295.9 572.7,298.4 572.9,299.1 573.0,302.1 573.1,297.6 573.3,301.1 573.4,300.8 573.6,299.3 573.7,301.7 573.8,297.7 574.0,301.9 574.1,298.0 574.3,297.6 574.4,296.5 574.6,297.5 574.7,297.4 574.8,301.4 575.0,299.0 575.1,296.1 575.3,298.2 575.4,300.4 575.6,298.4 575.7,298.1 575.8,302.0 576.0,300.2 576.1,300.5 576.3,300.0 576.4,301.2 576.6,299.1 576.7,299.7 576.8,297.2 577.0,298.6 577.1,300.0 577.3,296.2 577.4,301.9 577.6,296.6 577.7,299.8 577.8,299.3 578.0,298.6 578.1,297.0 578.3,296.6 578.4,300.4 578.6,299.1 578.7,299.2 578.8,298.9 579.0,297.9 579.1,297.7 579.3,301.7 579.4,301.1 579.5,299.8 579.7,301.0 579.8,298.0 580.0,298.8 580.1,300.9 580.3,295.5 580.4,299.3 580.5,300.0 580.7,298.5 580.8,302.4 581.0,299.0 581.1,302.0 581.2,298.4 581.4,297.9 581.5,299.5 581.7,301.4 581.8,299.5 582.0,297.1 582.1,300.2 582.2,299.9 582.4,298.2 582.5,300.0 582.7,296.2 582.8,298.3 583.0,299.8 583.1,300.0 583.2,300.2 583.4,298.9 583.5,298.9 583.7,300.2 583.8,301.9 583.9,299.2 584.1,297.7 584.2,300.6 584.4,298.7 584.5,298.1 584.7,299.4 584.8,298.2 584.9,296.9 585.1,298.2 585.2,299.3 585.4,294.5 585.5,301.1 585.6,299.1 585.8,296.9 585.9,300.9 586.1,300.6 586.2,299.4 586.4,297.3 586.5,299.6 586.7,298.7 586.8,298.3 586.9,299.7 587.1,296.8 587.2,299.9 587.4,297.4 587.5,298.1 587.7,300.3 587.8,299.9 587.9,300.1 588.1,300.7 588.2,303.1 588.4,300.6 588.5,299.2 588.7,297.7 588.8,297.5 588.9,299.6 589.1,299.3 589.2,298.2 589.4,298.7 589.5,296.6 589.7,297.9 589.8,299.7 590.0,295.9 590.1,298.9 590.2,296.8 590.4,297.8 590.5,295.9 590.7,297.7 590.8,297.5 591.0,296.1 591.1,302.6 591.2,300.5 591.4,299.0 591.5,299.6 591.7,296.2 591.8,301.2 592.0,297.5 592.1,299.3 592.2,299.0 592.4,298.0 592.5,299.9 592.7,300.3 592.8,296.7 592.9,298.1 593.1,296.7 593.2,299.9 593.4,298.1 593.5,298.1 593.7,297.6 593.8,297.3 593.9,299.2 594.1,299.5 594.2,298.4 594.4,297.9 594.5,297.7 594.7,297.3 594.8,302.9 594.9,297.2 595.1,298.5 595.2,298.0 595.4,298.4 595.5,299.9 595.7,299.3 595.8,299.4 595.9,299.3 596.1,299.1 596.2,299.2 596.4,299.0 596.5,300.3 596.6,299.0 596.8,299.6 596.9,300.4 597.1,300.1 597.2,297.9 597.4,300.0 597.5,297.7 597.6,301.7 597.8,297.2 597.9,298.2 598.1,296.6 598.2,299.9 598.4,298.3 598.5,301.4 598.6,300.5 598.8,298.4 598.9,296.8 599.1,298.6 599.2,299.4 599.4,299.8 599.5,299.2 599.6,297.4 599.8,297.8 599.9,298.0 600.1,298.1 600.2,299.7 600.3,299.6 600.5,299.3 600.6,297.2 600.8,300.6 600.9,297.6 601.1,299.4 601.2,298.8 601.3,294.2 601.5,299.7 601.6,300.2 601.8,295.9 601.9,296.4 602.0,300.2 602.2,303.2 602.3,303.2 602.5,299.1 602.6,299.3 602.8,298.4 602.9,300.0 603.0,296.9 603.2,299.3 603.3,300.3 603.5,301.8 603.6,301.0 603.8,299.3 603.9,296.1 604.0,294.1 604.2,297.9 604.3,299.0 604.5,298.2 604.6,301.5 604.8,298.5 604.9,298.6 605.1,299.6 605.2,298.0 605.3,301.3 605.5,300.6 605.6,297.0 605.8,297.3 605.9,295.9 606.1,297.1 606.2,297.8 606.3,293.9 606.5,299.2 606.6,299.8 606.8,296.7 606.9,298.7 607.1,298.1 607.2,300.0 607.3,299.6 607.5,295.6 607.6,301.4 607.8,300.7 607.9,298.5 608.1,299.4 608.2,300.6 608.3,300.4 608.5,301.0 608.6,298.3 608.8,294.6 608.9,296.8 609.1,298.3 609.2,300.0 609.4,300.7 609.5,299.7 609.7,299.0 609.8,299.8 610.0,298.1 610.1,299.8 610.2,297.9 610.4,295.5 610.5,303.7 610.7,297.4 610.8,298.3 610.9,298.7 611.1,296.1 611.2,301.1 611.4,299.3 611.5,303.5 611.7,300.5 611.8,300.6 611.9,298.5 612.1,298.8 612.2,301.3 612.4,299.2 612.5,303.8 612.7,300.4 612.8,296.7 613.0,298.4 613.1,297.3 613.2,299.2 613.4,297.1 613.5,298.6 613.7,294.5 613.8,300.0 614.0,295.7 614.1,298.6 614.2,300.2 614.4,299.2 614.5,301.1 614.7,298.2 614.8,299.8 615.0,301.9 615.1,304.1 615.2,298.8 615.4,301.5 615.5,295.4 615.7,299.2 615.8,297.3 616.0,296.9 616.1,301.8 616.2,299.9 616.4,299.8 616.5,298.0 616.7,296.8 616.8,298.4 617.0,297.8 617.1,300.0 617.3,298.8 617.4,299.6 617.5,301.5 617.7,299.8 617.8,298.5 618.0,299.7 618.1,298.4 618.3,298.6 618.4,297.7 618.5,297.5 618.7,298.1 618.8,300.3 619.0,299.0 619.1,300.5 619.3,300.8 619.4,300.4 619.5,299.1 619.7,297.2 619.8,298.5 620.0,297.1 620.1,295.6 620.3,300.0 620.4,299.7 620.5,301.8 620.7,297.0 620.8,299.1 621.0,297.8 621.1,300.8 621.3,298.8 621.4,298.0 621.5,299.0 621.7,300.1 621.8,299.9 622.0,297.9 622.1,295.6 622.3,298.2 622.4,297.9 622.5,297.4 622.7,298.9 622.8,299.4 623.0,299.0 623.1,300.5 623.3,302.4 623.4,297.0 623.6,299.0 623.7,299.8 623.8,300.0 624.0,298.6 624.1,299.9 624.3,300.4 624.4,296.8 624.6,297.4 624.7,298.7 624.8,299.3 625.0,297.4 625.1,294.7 625.3,302.1 625.4,298.4 625.6,301.6 625.7,300.3 625.9,299.8 626.0,297.4 626.1,299.7 626.3,299.7 626.4,300.8 626.6,301.0 626.7,298.8 626.9,300.3 627.0,299.6 627.1,296.7 627.3,300.8 627.4,301.4 627.6,300.6 627.7,297.1 627.9,296.8 628.0,301.7 628.1,300.4 628.3,301.5 628.4,296.6 628.6,302.9 628.7,296.7 628.9,300.1 629.0,295.7 629.1,294.4 629.3,295.8 629.4,294.6 629.6,298.5 629.7,302.2 629.9,299.4 630.0,295.3 630.2,297.5 630.3,299.6 630.4,298.5 630.6,300.3 630.7,299.5 630.9,299.8 631.0,300.1 631.2,298.9 631.3,302.4 631.4,297.6 631.6,300.2 631.7,300.4 631.9,297.5 632.0,300.7 632.2,296.8 632.3,298.0 632.5,300.4 632.6,298.5 632.7,297.0 632.9,301.1 633.0,299.7 633.2,301.6 633.3,299.4 633.5,300.3 633.6,296.6 633.7,297.2 633.9,299.9 634.0,300.3 634.2,299.5 634.3,297.6 634.5,298.4 634.6,298.7 634.7,297.3 634.9,300.3 635.0,299.8 635.2,299.8 635.3,301.9 635.5,296.3 635.6,297.1 635.8,300.5 635.9,301.7 636.0,300.5 636.2,301.4 636.3,300.5 636.5,297.8 636.6,294.8 636.8,298.5 636.9,301.4 637.1,299.7 637.2,302.3 637.3,299.7 637.5,300.7 637.6,300.8 637.8,299.2 637.9,300.3 638.1,300.4 638.2,297.8 638.3,300.3 638.5,299.6 638.6,297.1 638.8,296.9 638.9,300.4 639.1,301.6 639.2,297.3 639.3,298.7 639.5,297.6 639.6,296.9 639.8,297.6 639.9,298.5 640.1,301.2 640.2,301.7 640.3,296.7 640.5,299.4 640.6,300.4 640.8,300.1 640.9,298.2 641.1,299.6 641.2,302.4 641.3,302.1 641.5,300.7 641.6,300.0 641.8,298.0 641.9,301.4 642.1,296.9 642.2,296.0 642.3,297.6 642.5,298.2 642.6,297.5 642.8,299.1 642.9,300.3 643.1,298.8 643.2,300.1 643.3,301.2 643.5,298.1 643.6,300.6 643.8,300.4 643.9,297.9 644.1,300.5 644.2,297.3 644.4,300.6 644.5,297.3 644.6,297.7 644.8,298.8 644.9,297.7 645.1,300.2 645.2,298.7 645.4,297.0 645.5,299.7 645.6,302.1 645.8,300.6 645.9,296.2 646.1,299.5 646.2,299.5 646.4,301.9 646.5,299.8 646.7,295.2 646.8,301.7 647.0,299.3 647.1,301.5 647.2,300.1 647.4,298.5 647.5,298.5 647.7,296.9 647.8,301.2 648.0,300.2 648.1,299.4 648.3,300.8 648.4,300.8 648.5,299.9 648.7,297.9 648.8,300.6 649.0,297.8 649.1,300.5 649.3,300.1 649.4,300.6 649.5,299.5 649.7,300.8 649.8,303.3 650.0,301.3 650.1,299.0 650.3,299.5 650.4,300.6 650.5,301.4 650.7,300.8 650.8,302.3 651.0,298.3 651.1,295.9 651.2,299.8 651.4,296.9 651.5,300.7 651.7,297.8 651.8,297.8 652.0,302.9 652.1,298.3 652.2,296.9 652.4,298.9 652.5,297.6 652.7,301.3 652.8,299.7 653.0,300.3 653.1,297.6 653.2,301.8 653.4,298.9 653.5,298.3 653.7,299.7 653.8,295.3 654.0,300.7 654.1,297.9 654.3,299.4 654.4,302.3 654.5,297.5 654.7,299.5 654.8,302.3 655.0,298.8 655.1,296.3 655.3,301.1 655.4,300.3 655.6,297.7 655.7,301.1 655.8,295.5 656.0,297.7 656.1,297.7 656.3,299.9 656.4,297.6 656.6,300.2 656.7,298.7 656.8,299.0 657.0,298.5 657.1,299.4 657.3,300.3 657.4,298.2 657.6,295.5 657.7,298.7 657.8,300.8 658.0,297.5 658.1,298.7 658.3,297.3 658.4,297.7 658.6,302.8 658.7,300.4 658.8,299.4 659.0,297.6 659.1,298.1 659.3,300.2 659.4,300.4 659.6,300.4 659.7,299.2 659.8,299.7 660.0,300.1 660.1,297.6 660.3,297.1 660.4,297.8 660.6,300.2 660.7,300.0 660.8,298.6 661.0,300.7 661.1,301.3 661.3,299.5 661.4,297.1 661.6,299.7 661.7,301.5 661.8,298.2 662.0,303.3 662.1,302.5 662.3,301.2 662.4,296.6 662.6,298.8 662.7,300.8 662.8,300.4 663.0,299.4 663.1,298.2 663.3,295.4 663.4,299.8 663.5,300.4 663.7,300.5 663.8,297.5 664.0,297.1 664.1,300.7 664.3,299.7 664.4,298.1 664.5,300.0 664.7,298.7 664.8,300.9 665.0,304.9 665.1,298.9 665.3,298.5 665.4,299.5 665.5,299.6 665.7,300.1 665.8,298.2 666.0,297.8 666.1,302.8 666.3,299.1 666.4,300.2 666.5,301.8 666.7,298.8 666.8,299.5 667.0,303.3 667.1,297.6 667.3,297.5 667.4,299.8 667.5,301.6 667.7,301.8 667.8,299.0 668.0,300.4 668.1,301.3 668.3,301.9 668.4,302.7 668.5,300.0 668.7,300.8 668.8,298.0 669.0,299.5 669.1,302.2 669.3,298.7 669.4,297.9 669.5,298.0 669.7,299.2 669.8,301.2 670.0,299.1 670.1,298.3 670.3,299.7 670.4,301.1 670.6,302.6 670.7,300.5 670.9,299.8 671.0,297.0 671.1,297.8 671.3,298.1 671.4,298.0 671.6,298.0 671.7,298.7 671.9,297.6 672.0,297.9 672.1,301.0 672.3,300.5 672.4,297.7 672.6,298.7 672.7,299.4 672.9,301.2 673.0,300.2 673.1,301.8 673.3,299.6 673.4,299.6 673.6,297.8 673.7,300.2 673.9,299.0 674.0,302.8 674.1,300.2 674.3,298.3 674.4,299.1 674.6,300.3 674.7,299.5 674.9,298.8 675.0,300.2" fill="none" stroke="#16a34a" stroke-width="1.5"/>
<rect x="65" y="20" width="610" height="330" fill="none" stroke="#888" stroke-width="1.5"/>
<line x1="62" y1="308.5" x2="65" y2="308.5" stroke="#64748b" stroke-width="1" opacity="0.6"/>
<line x1="62" y1="260.0" x2="65" y2="260.0" stroke="#64748b" stroke-width="1" opacity="0.6"/>
<line x1="62" y1="199.0" x2="65" y2="199.0" stroke="#64748b" stroke-width="1" opacity="0.6"/>
<line x1="60" y1="116.3" x2="65" y2="116.3" stroke="#64748b" stroke-width="1.5"/>
<text x="57" y="116.3" text-anchor="end" dominant-baseline="middle" font-size="11" font-family="monospace,sans-serif" fill="#64748b">10</text>
<line x1="62" y1="33.5" x2="65" y2="33.5" stroke="#64748b" stroke-width="1" opacity="0.6"/>
<line x1="65.0" y1="350" x2="65.0" y2="355" stroke="#888" stroke-width="1.5"/>
<text x="65.0" y="368" text-anchor="middle" font-size="11" font-family="monospace,sans-serif">0</text>
<line x1="187.1" y1="350" x2="187.1" y2="355" stroke="#888" stroke-width="1.5"/>
<text x="187.1" y="368" text-anchor="middle" font-size="11" font-family="monospace,sans-serif">2</text>
<line x1="309.1" y1="350" x2="309.1" y2="355" stroke="#888" stroke-width="1.5"/>
<text x="309.1" y="368" text-anchor="middle" font-size="11" font-family="monospace,sans-serif">4</text>
<line x1="431.2" y1="350" x2="431.2" y2="355" stroke="#888" stroke-width="1.5"/>
<text x="431.2" y="368" text-anchor="middle" font-size="11" font-family="monospace,sans-serif">6</text>
<line x1="553.3" y1="350" x2="553.3" y2="355" stroke="#888" stroke-width="1.5"/>
<text x="553.3" y="368" text-anchor="middle" font-size="11" font-family="monospace,sans-serif">8</text>
<line x1="675.4" y1="350" x2="675.4" y2="355" stroke="#888" stroke-width="1.5"/>
<text x="675.4" y="368" text-anchor="middle" font-size="11" font-family="monospace,sans-serif">10</text>
<text x="370" y="392" text-anchor="middle" font-size="13" font-family="sans-serif">Runtime (minutes)</text>
<text transform="rotate(-90,28,185)" x="28" y="185" text-anchor="middle" font-size="13" font-family="sans-serif" fill="#64748b">Train loss (log scale)</text>
</svg>