<svg xmlns="http://www.w3.org/2000/svg" viewBox="0 0 760 400" width="760" height="400" style="background:white">
<rect x="65" y="20" width="625" height="330" fill="#f9f9f9"/>
<line x1="65" y1="308.5" x2="690" y2="308.5" stroke="#ececec" stroke-width="1"/>
<line x1="65" y1="260.0" x2="690" y2="260.0" stroke="#ececec" stroke-width="1"/>
<line x1="65" y1="199.0" x2="690" y2="199.0" stroke="#ececec" stroke-width="1"/>
<line x1="65" y1="116.3" x2="690" y2="116.3" stroke="#ddd" stroke-width="1"/>
<line x1="65" y1="33.5" x2="690" y2="33.5" stroke="#ececec" stroke-width="1"/>
<line x1="65.0" y1="20" x2="65.0" y2="350" stroke="#ececec" stroke-width="1"/>
<line x1="190.1" y1="20" x2="190.1" y2="350" stroke="#ececec" stroke-width="1"/>
<line x1="315.1" y1="20" x2="315.1" y2="350" stroke="#ececec" stroke-width="1"/>
<line x1="440.2" y1="20" x2="440.2" y2="350" stroke="#ececec" stroke-width="1"/>
<line x1="565.3" y1="20" x2="565.3" y2="350" stroke="#ececec" stroke-width="1"/>
<line x1="690.4" y1="20" x2="690.4" y2="350" stroke="#ececec" stroke-width="1"/>
<polyline points="65.0,119.3 65.1,52.9 65.3,87.3 65.4,144.1 65.6,161.3 65.7,152.0 65.9,153.9 66.0,160.1 66.2,165.6 66.3,168.5 66.5,170.4 66.8,173.3 67.0,175.1 67.3,178.0 67.6,179.2 67.8,182.3 68.1,183.3 68.4,185.5 68.6,186.7 68.9,189.0 69.1,191.1 69.4,192.9 69.7,194.7 69.9,198.1 70.2,198.9 70.4,201.1 70.7,202.6 70.9,204.4 71.2,205.7 71.4,207.1 71.7,208.5 72.0,209.8 72.2,211.0 72.5,211.0 72.7,213.0 73.0,213.1 73.2,214.0 73.5,215.0 73.7,214.1 73.9,216.1 74.2,216.3 74.4,217.8 74.7,217.2 74.9,218.4 75.2,218.5 75.4,218.6 75.6,219.4 75.9,220.8 76.1,220.6 76.4,221.7 76.6,222.5 76.8,224.4 77.1,225.1 77.3,226.8 77.5,225.4 77.8,226.1 78.0,228.2 78.2,229.3 78.5,229.5 78.7,231.2 78.9,231.8 79.2,231.9 79.4,232.0 79.6,233.2 79.9,233.9 80.1,235.0 80.3,235.4 80.5,235.0 80.8,234.0 81.0,237.9 81.2,237.2 81.4,237.8 81.6,239.3 81.8,240.2 82.1,239.9 82.3,240.9 82.5,241.2 82.7,241.2 82.9,240.9 83.2,239.4 83.4,241.2 83.6,242.3 83.8,242.9 84.0,243.0 84.3,244.2 84.5,244.9 84.7,245.1 84.9,246.3 85.1,245.8 85.3,244.3 85.5,245.2 85.7,246.3 86.0,246.3 86.2,248.1 86.4,246.6 86.6,246.0 86.8,245.1 87.0,249.6 87.2,248.2 87.4,249.3 87.6,249.1 87.8,246.6 88.0,248.5 88.2,250.6 88.4,249.5 88.7,251.0 88.8,251.8 89.0,250.5 89.3,250.1 89.4,252.0 89.6,252.1 89.8,251.8 90.0,251.2 90.2,251.9 90.4,252.8 90.6,252.7 90.8,253.7 91.2,253.5 91.4,254.3 91.6,252.6 91.8,254.3 92.0,255.4 92.2,253.3 92.4,254.7 92.8,255.8 93.0,255.6 93.2,255.4 93.4,256.3 93.6,256.7 93.8,256.6 94.0,256.6 94.2,258.5 94.4,257.1 94.5,257.6 94.7,257.8 94.9,258.6 95.1,257.6 95.3,257.1 95.5,258.5 95.7,256.0 95.9,262.1 96.1,258.6 96.3,257.6 96.5,258.5 96.7,259.9 96.8,261.2 97.0,260.1 97.2,258.9 97.4,262.1 97.6,259.9 97.8,261.5 98.0,260.4 98.2,261.6 98.4,262.8 98.6,260.1 98.7,262.7 98.9,262.8 99.1,262.0 99.3,262.4 99.5,262.1 99.7,261.5 99.9,262.5 100.0,262.2 100.2,264.7 100.4,263.1 100.6,262.6 100.8,264.2 101.0,263.4 101.1,263.2 101.3,264.9 101.5,264.3 101.7,263.2 101.9,263.0 102.3,264.0 102.5,262.9 102.6,266.6 102.8,265.9 103.0,264.9 103.2,264.4 103.4,263.2 103.6,265.8 103.7,264.8 103.9,266.7 104.1,264.4 104.3,263.3 104.5,265.3 104.7,265.5 104.8,266.5 105.0,263.9 105.2,265.8 105.4,267.4 105.5,267.7 105.7,267.3 105.9,266.5 106.1,266.4 106.3,266.3 106.4,268.6 106.6,269.2 106.8,267.1 107.0,264.9 107.2,265.8 107.3,267.0 107.5,268.2 107.7,266.5 107.9,266.7 108.0,266.0 108.2,268.5 108.4,267.1 108.6,268.3 108.7,271.5 108.9,269.6 109.1,267.8 109.2,267.5 109.4,271.2 109.6,266.8 109.8,268.4 110.1,269.3 110.3,269.3 110.5,267.2 110.6,269.4 110.8,271.0 111.0,270.9 111.2,268.2 111.3,267.7 111.5,269.2 111.7,269.1 111.9,268.6 112.0,269.2 112.2,268.6 112.4,269.3 112.6,270.3 112.7,270.9 112.9,268.5 113.1,269.3 113.2,269.7 113.4,271.3 113.6,273.3 113.7,269.4 113.9,271.4 114.1,271.4 114.4,271.6 114.5,273.3 114.7,268.9 114.9,270.9 115.0,271.9 115.2,271.4 115.4,271.2 115.5,271.5 115.7,271.0 115.9,271.5 116.1,271.2 116.2,271.4 116.4,272.7 116.6,272.2 116.7,274.8 116.9,271.1 117.1,273.5 117.2,272.6 117.4,274.7 117.6,273.6 117.7,274.3 117.9,272.3 118.1,272.9 118.2,272.7 118.4,271.9 118.5,272.2 118.7,272.4 118.9,271.0 119.0,272.4 119.2,273.1 119.4,273.8 119.5,275.4 119.7,275.1 119.9,274.2 120.0,273.1 120.2,271.4 120.4,274.2 120.6,271.9 120.8,274.6 121.0,272.5 121.2,273.2 121.3,270.4 121.5,275.4 121.7,273.3 121.8,274.5 122.0,274.0 122.2,276.2 122.3,270.6 122.5,274.2 122.6,273.3 122.8,276.7 123.0,275.1 123.1,274.9 123.3,274.6 123.5,276.6 123.6,274.9 123.8,273.4 124.0,275.0 124.1,274.2 124.3,275.0 124.5,270.4 124.6,276.1 124.8,278.3 124.9,274.8 125.1,275.7 125.3,275.4 125.4,275.6 125.6,274.4 125.8,274.9 125.9,276.3 126.1,275.1 126.3,275.0 126.4,274.4 126.6,277.8 126.8,274.5 126.9,274.8 127.1,275.8 127.3,274.1 127.4,276.7 127.6,279.0 127.8,276.9 127.9,276.0 128.1,276.8 128.2,276.5 128.4,272.6 128.5,277.4 128.7,272.2 128.9,278.2 129.1,275.7 129.2,272.6 129.4,276.3 129.6,277.5 129.7,274.4 129.9,275.9 130.0,276.1 130.2,275.8 130.4,276.5 130.5,276.8 130.7,274.5 130.8,277.3 131.0,276.4 131.2,276.1 131.3,277.5 131.5,278.0 131.6,276.7 131.8,277.9 131.9,278.2 132.1,276.8 132.3,277.6 132.4,275.8 132.6,275.3 132.7,279.4 132.9,279.0 133.1,278.4 133.2,277.3 133.4,278.0 133.5,278.3 133.7,277.8 133.8,278.7 134.0,279.0 134.1,277.7 134.3,275.4 134.5,279.5 134.6,277.0 134.8,278.5 134.9,277.7 135.1,278.3 135.2,279.3 135.4,277.8 135.6,275.7 135.7,279.5 135.9,279.4 136.0,278.8 136.2,276.4 136.3,277.4 136.5,278.1 136.6,278.7 136.8,278.0 137.0,278.3 137.1,277.8 137.3,278.0 137.6,276.5 137.7,278.7 137.9,278.4 138.1,278.8 138.2,278.7 138.4,276.6 138.5,281.9 138.7,279.6 138.8,280.0 139.0,276.9 139.2,281.5 139.3,279.5 139.5,277.7 139.6,279.4 139.8,279.3 139.9,278.8 140.1,276.0 140.2,278.9 140.4,280.2 140.6,280.5 140.7,279.6 140.9,280.8 141.0,277.2 141.2,281.5 141.3,279.1 141.5,277.9 141.6,280.0 141.8,279.8 141.9,278.7 142.1,278.8 142.2,280.0 142.4,279.6 142.5,278.5 142.7,278.6 142.9,279.6 143.0,280.4 143.2,279.2 143.3,280.0 143.5,279.6 143.6,281.2 143.8,280.1 143.9,277.5 144.1,281.9 144.2,280.1 144.4,280.7 144.5,281.2 144.7,281.7 144.8,282.5 145.0,277.6 145.2,277.7 145.3,281.4 145.5,281.2 145.6,280.9 145.8,280.2 145.9,280.1 146.1,280.9 146.2,281.6 146.4,282.7 146.5,282.7 146.7,281.9 146.8,281.3 147.0,281.4 147.1,280.6 147.3,278.7 147.4,279.5 147.6,281.0 147.7,281.6 147.9,278.9 148.0,279.6 148.2,279.5 148.3,281.9 148.5,281.3 148.7,280.1 148.8,282.0 148.9,279.3 149.1,282.5 149.3,280.4 149.4,282.7 149.6,281.3 149.7,279.9 149.9,281.2 150.0,283.3 150.1,284.1 150.3,283.1 150.4,283.5 150.6,282.1 150.7,283.3 150.9,279.5 151.0,280.1 151.2,282.8 151.3,282.6 151.5,281.9 151.6,284.5 151.8,283.0 151.9,282.5 152.1,282.9 152.2,281.7 152.4,280.3 152.5,283.3 152.7,282.4 152.8,281.0 153.0,282.0 153.1,282.9 153.3,279.1 153.4,282.1 153.6,283.4 153.7,280.4 153.9,283.2 154.0,283.4 154.2,279.8 154.4,281.9 154.5,280.0 154.6,279.4 154.8,280.1 154.9,284.6 155.1,280.7 155.2,282.4 155.4,284.2 155.5,282.9 155.7,284.4 155.8,281.6 156.0,283.6 156.1,282.9 156.3,283.2 156.4,285.6 156.6,282.5 156.7,283.0 156.9,283.3 157.0,283.2 157.2,282.9 157.3,280.6 157.4,283.3 157.6,282.4 157.7,282.4 157.9,281.4 158.0,281.3 158.2,283.6 158.3,283.5 158.5,281.8 158.6,283.0 158.8,283.4 158.9,280.8 159.1,283.8 159.2,282.3 159.4,283.4 159.5,283.2 159.7,282.8 159.8,285.9 160.0,286.8 160.1,283.5 160.3,284.1 160.4,287.0 160.5,284.4 160.7,282.2 160.8,284.5 161.0,281.5 161.1,281.6 161.3,283.9 161.4,284.8 161.6,282.7 161.7,286.1 161.9,282.8 162.0,281.7 162.2,285.3 162.3,283.7 162.5,284.6 162.6,282.2 162.7,287.1 162.9,283.1 163.0,282.2 163.2,283.4 163.3,282.0 163.5,283.8 163.6,286.6 163.8,286.7 163.9,284.8 164.1,285.2 164.2,283.6 164.4,285.2 164.6,285.1 164.7,283.0 164.8,286.6 165.0,282.8 165.1,282.4 165.3,285.6 165.4,285.1 165.6,285.1 165.7,282.3 165.9,284.3 166.0,280.9 166.2,284.9 166.3,281.8 166.5,284.6 166.6,284.5 166.7,284.9 166.9,286.1 167.0,283.0 167.2,285.7 167.3,284.1 167.5,284.0 167.6,289.2 167.8,287.0 167.9,285.8 168.1,285.8 168.2,285.2 168.3,285.6 168.6,283.6 168.7,285.1 168.9,287.8 169.0,286.5 169.2,284.9 169.3,285.7 169.5,282.5 169.6,284.6 169.8,284.0 169.9,284.2 170.1,284.5 170.2,286.8 170.4,284.7 170.5,283.3 170.6,283.3 170.8,286.9 170.9,286.2 171.1,285.8 171.2,283.2 171.4,284.3 171.5,286.5 171.7,282.0 171.8,283.3 172.0,283.8 172.1,284.8 172.2,284.5 172.4,283.9 172.5,282.5 172.7,288.1 172.8,284.6 173.0,286.6 173.1,287.2 173.3,285.2 173.4,284.1 173.6,288.5 173.7,285.7 173.9,285.2 174.0,286.3 174.2,284.9 174.3,289.3 174.5,286.2 174.6,283.4 174.8,285.7 174.9,282.5 175.0,287.8 175.2,284.6 175.3,288.7 175.5,285.0 175.6,286.3 175.8,284.8 175.9,285.8 176.1,284.7 176.2,285.9 176.4,288.3 176.5,285.9 176.7,284.1 176.8,282.6 176.9,284.5 177.1,283.5 177.2,286.6 177.4,287.1 177.5,289.0 177.7,286.9 177.8,286.2 178.0,286.8 178.1,282.6 178.3,286.9 178.4,287.9 178.6,287.6 178.7,285.2 178.9,286.6 179.0,288.5 179.2,288.1 179.3,286.4 179.4,286.9 179.6,288.8 179.7,288.1 179.9,288.6 180.0,287.9 180.2,287.3 180.3,288.6 180.5,288.5 180.6,286.7 180.8,287.7 180.9,284.1 181.1,286.3 181.2,288.9 181.4,287.0 181.5,285.7 181.7,288.1 181.8,287.1 182.0,284.6 182.1,288.5 182.2,287.2 182.4,287.9 182.5,288.0 182.7,286.3 182.8,288.1 183.0,285.5 183.1,287.3 183.3,288.5 183.4,287.0 183.6,288.5 183.7,288.5 183.9,286.9 184.0,287.0 184.2,287.7 184.3,286.3 184.5,289.8 184.6,286.5 184.8,288.5 184.9,284.4 185.1,288.7 185.2,288.6 185.3,286.0 185.5,285.4 185.6,285.8 185.8,285.9 185.9,286.2 186.1,286.4 186.2,286.7 186.4,289.4 186.5,286.5 186.7,288.9 186.9,287.4 187.0,287.7 187.1,287.3 187.3,286.8 187.4,288.4 187.6,285.4 187.7,288.1 187.9,285.3 188.0,284.9 188.2,289.5 188.3,288.1 188.5,286.1 188.6,286.3 188.8,289.4 188.9,288.3 189.1,291.0 189.2,286.4 189.4,285.8 189.5,285.8 189.7,286.2 189.8,284.6 190.0,288.9 190.1,286.2 190.2,289.2 190.4,287.7 190.5,289.5 190.7,288.4 190.8,283.7 191.0,290.4 191.1,287.3 191.3,288.8 191.4,286.9 191.6,288.5 191.7,286.7 191.9,285.7 192.0,290.8 192.1,288.7 192.3,285.9 192.4,286.0 192.6,289.3 192.7,287.2 192.9,286.8 193.0,286.0 193.2,286.4 193.3,289.1 193.4,287.5 193.6,290.0 193.7,288.0 193.9,289.6 194.0,289.2 194.2,287.6 194.3,289.3 194.5,287.5 194.6,287.9 194.8,288.9 194.9,287.9 195.0,288.7 195.2,286.6 195.3,285.5 195.5,285.8 195.6,288.8 195.8,288.8 195.9,288.2 196.1,288.8 196.2,289.0 196.4,288.3 196.5,289.0 196.6,288.9 196.8,289.0 196.9,285.7 197.1,286.7 197.2,290.4 197.4,287.1 197.5,287.7 197.7,292.6 197.8,289.0 198.0,287.0 198.1,288.7 198.3,288.9 198.4,290.7 198.6,292.1 198.7,290.9 198.9,289.8 199.0,288.9 199.2,291.5 199.3,289.1 199.4,285.8 199.6,289.2 199.7,287.9 199.9,288.6 200.0,286.8 200.2,290.0 200.3,287.3 200.5,290.5 200.6,289.5 200.8,291.4 200.9,288.6 201.0,287.8 201.2,288.7 201.3,288.9 201.5,290.7 201.6,289.6 201.8,292.5 201.9,289.3 202.1,289.0 202.2,290.8 202.4,290.4 202.5,286.8 202.7,287.4 202.8,289.1 202.9,287.1 203.1,288.7 203.2,290.5 203.4,287.4 203.5,286.2 203.7,290.9 203.8,291.1 204.0,287.0 204.1,288.8 204.3,289.9 204.4,286.9 204.6,290.8 204.7,293.0 204.8,288.6 205.0,287.9 205.1,291.3 205.3,286.9 205.4,287.6 205.6,289.8 205.7,288.7 205.9,290.8 206.0,290.7 206.2,289.2 206.3,289.8 206.4,288.8 206.6,289.9 206.7,290.7 206.9,288.6 207.0,286.0 207.2,291.3 207.3,290.5 207.5,287.6 207.6,289.5 207.8,288.5 207.9,289.4 208.1,289.9 208.2,292.5 208.3,289.7 208.5,287.4 208.6,289.2 208.8,289.7 208.9,290.5 209.1,289.5 209.2,290.5 209.4,288.6 209.5,290.0 209.7,288.5 209.8,291.8 210.0,290.0 210.1,288.0 210.2,291.1 210.4,289.2 210.5,288.7 210.7,288.8 210.8,289.1 211.0,289.3 211.1,291.5 211.3,290.7 211.4,289.3 211.6,288.4 211.7,291.7 211.8,289.9 212.0,290.2 212.1,289.7 212.3,291.1 212.4,290.8 212.6,290.6 212.7,288.5 212.9,289.1 213.0,290.5 213.2,288.7 213.3,292.2 213.5,291.9 213.6,289.9 213.7,287.2 213.9,289.5 214.0,292.0 214.2,292.4 214.3,287.7 214.5,289.2 214.6,289.0 214.8,289.5 214.9,293.1 215.1,289.0 215.2,293.0 215.4,288.4 215.5,289.4 215.6,287.8 215.8,291.8 215.9,289.8 216.1,291.8 216.2,288.3 216.4,289.6 216.5,290.9 216.7,289.9 216.8,292.1 217.0,291.0 217.1,289.3 217.3,289.8 217.4,289.4 217.5,288.9 217.7,291.6 217.8,291.8 218.0,289.1 218.1,288.1 218.3,289.9 218.4,292.5 218.6,288.9 218.7,290.5 218.9,291.0 219.0,291.4 219.1,292.8 219.3,291.2 219.4,290.9 219.6,289.6 219.7,292.2 219.9,289.1 220.0,291.8 220.2,290.6 220.3,292.9 220.5,291.0 220.6,289.6 220.8,291.5 220.9,288.9 221.1,288.9 221.2,291.7 221.4,289.3 221.5,290.1 221.7,291.2 221.8,288.8 221.9,287.9 222.1,289.4 222.2,291.5 222.4,291.1 222.5,291.0 222.7,288.2 222.8,289.1 223.0,291.9 223.1,288.6 223.3,293.4 223.4,290.0 223.6,292.6 223.7,291.1 223.8,288.9 224.0,288.2 224.1,287.5 224.3,293.3 224.4,290.2 224.6,290.3 224.7,288.7 224.9,293.1 225.0,291.3 225.2,290.8 225.3,290.0 225.5,291.2 225.6,292.0 225.7,289.3 225.9,290.3 226.0,288.9 226.2,291.7 226.3,291.1 226.5,291.5 226.6,292.7 226.8,288.8 226.9,292.0 227.1,289.7 227.2,291.5 227.4,289.4 227.5,291.4 227.7,291.0 227.8,288.4 227.9,291.3 228.1,293.0 228.2,293.3 228.4,290.4 228.5,290.0 228.7,289.0 228.8,292.4 229.0,292.5 229.1,290.3 229.3,290.8 229.4,294.6 229.5,289.0 229.7,291.2 229.8,288.7 230.0,290.9 230.1,291.0 230.3,292.5 230.4,289.8 230.6,289.7 230.7,292.2 230.9,289.2 231.0,292.2 231.1,290.4 231.3,293.5 231.4,290.9 231.6,290.7 231.7,293.8 231.9,293.6 232.0,289.2 232.2,289.9 232.3,290.7 232.5,287.2 232.6,290.7 232.7,289.2 232.9,291.9 233.0,291.8 233.2,290.5 233.3,294.1 233.5,291.7 233.6,289.7 233.8,288.6 233.9,290.7 234.1,290.5 234.2,294.7 234.3,290.5 234.5,291.4 234.6,292.7 234.8,291.0 234.9,290.4 235.1,292.2 235.2,290.4 235.4,293.5 235.5,291.7 235.7,291.0 235.8,291.1 236.0,290.0 236.1,289.4 236.3,290.8 236.4,292.0 236.6,289.8 236.7,290.4 236.8,290.5 237.0,290.4 237.1,291.6 237.3,289.8 237.4,293.3 237.6,289.7 237.7,292.4 237.9,290.7 238.0,290.7 238.2,293.6 238.3,291.9 238.5,290.2 238.6,293.5 238.8,290.3 238.9,292.5 239.1,289.0 239.2,291.6 239.3,288.4 239.5,289.2 239.6,290.1 239.8,290.8 239.9,292.4 240.1,289.1 240.2,293.1 240.4,292.0 240.5,294.1 240.7,292.4 240.8,289.8 241.0,291.2 241.1,289.9 241.2,291.3 241.4,292.4 241.5,294.1 241.7,292.1 241.8,292.1 242.0,287.8 242.1,287.1 242.3,292.5 242.4,293.6 242.6,290.7 242.7,293.8 242.9,291.8 243.0,291.9 243.1,293.1 243.3,290.5 243.4,291.9 243.6,291.1 243.7,289.5 243.9,292.8 244.0,291.0 244.2,291.3 244.3,291.6 244.5,289.2 244.6,290.6 244.8,293.4 244.9,294.6 245.1,287.3 245.2,291.9 245.3,291.1 245.5,293.1 245.6,290.1 245.8,292.7 245.9,290.0 246.1,289.9 246.2,296.0 246.4,292.6 246.5,291.0 246.7,289.7 246.8,291.2 247.0,292.0 247.1,292.6 247.3,293.5 247.4,290.7 247.6,288.9 247.7,293.7 247.9,291.5 248.0,290.6 248.2,293.4 248.3,291.8 248.4,290.6 248.6,290.1 248.7,292.4 248.9,291.0 249.0,293.6 249.2,295.2 249.3,289.3 249.5,293.2 249.6,290.8 249.8,294.9 249.9,293.5 250.1,291.3 250.2,290.9 250.4,292.9 250.5,292.4 250.7,295.3 250.8,293.6 251.0,288.4 251.1,294.8 251.3,291.4 251.4,291.4 251.6,292.7 251.7,293.3 251.9,292.6 252.0,292.5 252.1,293.4 252.3,292.1 252.4,292.5 252.6,292.3 252.7,290.0 252.9,290.8 253.0,291.8 253.2,288.6 253.3,290.4 253.5,290.0 253.6,292.0 253.8,293.9 253.9,290.0 254.1,290.8 254.2,290.4 254.3,292.5 254.5,292.0 254.6,290.9 254.8,292.7 254.9,295.8 255.1,292.2 255.2,290.4 255.4,292.7 255.5,290.7 255.7,290.8 255.8,292.4 256.0,294.5 256.1,291.3 256.3,293.9 256.4,291.6 256.5,292.4 256.7,294.8 256.8,291.4 257.0,294.0 257.1,292.5 257.3,291.3 257.4,292.9 257.6,293.7 257.7,293.1 257.9,291.3 258.0,291.4 258.2,293.2 258.3,292.4 258.5,293.2 258.6,292.1 258.8,291.4 258.9,293.5 259.0,291.5 259.2,292.9 259.3,289.6 259.5,294.6 259.6,292.7 259.8,290.9 259.9,292.5 260.1,290.7 260.2,292.4 260.4,289.8 260.5,291.8 260.7,295.2 260.8,291.9 261.0,290.9 261.1,294.6 261.3,291.5 261.4,291.9 261.6,292.2 261.7,293.5 261.9,292.9 262.0,292.7 262.1,294.1 262.3,291.6 262.4,289.4 262.6,291.8 262.7,290.9 262.9,295.6 263.0,292.7 263.2,291.5 263.3,293.6 263.5,291.4 263.6,291.6 263.8,292.9 263.9,294.9 264.0,291.9 264.2,289.6 264.3,293.4 264.5,291.7 264.6,290.7 264.8,292.8 264.9,292.7 265.1,294.3 265.2,292.1 265.4,292.3 265.5,288.8 265.7,292.9 265.8,290.4 266.0,291.9 266.1,290.8 266.3,293.0 266.4,295.0 266.6,295.7 266.7,293.6 266.8,296.6 267.0,293.8 267.1,294.1 267.3,293.3 267.4,293.9 267.6,291.6 267.7,291.2 267.9,292.2 268.0,294.7 268.2,291.4 268.3,292.3 268.5,289.8 268.6,293.5 268.8,293.2 268.9,291.3 269.1,294.0 269.2,291.5 269.4,294.7 269.5,293.8 269.7,289.6 269.8,293.7 270.0,292.3 270.1,294.2 270.3,292.2 270.4,293.7 270.5,296.4 270.7,293.0 270.8,293.1 271.0,292.4 271.1,294.0 271.3,292.4 271.4,293.8 271.6,292.3 271.7,294.7 271.9,293.2 272.0,289.4 272.2,291.9 272.3,296.5 272.4,292.5 272.6,293.7 272.7,291.1 272.9,292.6 273.0,292.1 273.2,294.9 273.3,289.6 273.5,291.9 273.6,292.6 273.8,294.9 273.9,293.7 274.1,292.4 274.2,289.4 274.3,291.1 274.5,291.0 274.6,290.3 274.8,293.6 274.9,293.8 275.1,292.9 275.2,294.5 275.4,295.4 275.5,291.9 275.7,291.9 275.8,294.7 276.0,295.4 276.1,295.3 276.2,293.9 276.4,293.3 276.5,295.0 276.7,293.8 276.8,295.1 277.0,292.3 277.1,295.3 277.3,292.7 277.4,291.1 277.6,292.7 277.7,293.2 277.9,294.0 278.0,293.1 278.1,295.4 278.3,293.5 278.4,290.3 278.6,292.8 278.7,293.3 278.9,293.3 279.0,294.6 279.2,292.5 279.3,292.6 279.5,293.5 279.6,291.4 279.8,291.4 279.9,294.3 280.0,295.1 280.2,292.7 280.3,293.8 280.5,294.0 280.6,294.9 280.8,295.1 280.9,292.7 281.1,293.8 281.2,290.9 281.4,294.8 281.5,294.7 281.6,292.4 281.8,291.6 281.9,293.6 282.1,290.0 282.2,292.7 282.4,295.4 282.5,293.2 282.7,293.7 282.8,292.0 283.0,293.2 283.1,293.6 283.2,294.4 283.4,292.4 283.5,297.4 283.7,294.2 283.8,291.9 284.0,293.9 284.1,291.4 284.3,293.7 284.4,293.1 284.6,294.3 284.7,293.8 284.9,291.6 285.0,292.3 285.2,290.0 285.3,292.0 285.4,291.5 285.6,294.5 285.7,292.2 285.9,295.1 286.0,293.5 286.2,292.3 286.3,291.2 286.5,294.7 286.6,293.5 286.8,291.0 286.9,294.6 287.0,293.6 287.2,294.3 287.3,294.3 287.5,295.1 287.6,293.8 287.8,293.7 287.9,296.6 288.1,292.6 288.2,293.1 288.4,291.7 288.5,294.9 288.6,289.8 288.8,293.6 288.9,294.3 289.1,295.4 289.2,292.5 289.4,296.1 289.5,296.2 289.7,294.7 289.8,291.5 290.0,295.8 290.1,295.8 290.2,293.0 290.4,289.9 290.5,293.8 290.7,294.6 290.8,291.2 291.0,294.6 291.1,297.4 291.3,294.9 291.4,293.5 291.6,294.1 291.7,292.8 291.8,294.1 292.0,294.2 292.1,293.9 292.3,293.3 292.4,292.4 292.6,293.7 292.7,295.7 292.9,294.8 293.0,296.8 293.2,292.9 293.3,296.0 293.4,296.6 293.6,292.1 293.7,294.6 293.9,293.9 294.0,291.5 294.2,293.3 294.3,293.9 294.5,296.1 294.6,292.5 294.8,294.2 294.9,292.0 295.1,293.5 295.2,294.2 295.3,293.4 295.5,293.2 295.6,291.3 295.8,291.0 295.9,293.5 296.1,293.1 296.2,297.0 296.4,294.6 296.5,293.2 296.7,292.5 296.8,293.2 297.0,292.9 297.1,293.9 297.2,297.0 297.4,293.7 297.5,292.3 297.7,293.9 297.8,295.4 298.0,292.8 298.1,293.4 298.3,292.7 298.4,293.4 298.6,293.9 298.7,293.5 298.8,292.3 299.0,294.7 299.1,294.8 299.3,298.3 299.4,294.4 299.6,292.9 299.7,294.1 299.9,294.8 300.0,294.1 300.2,295.4 300.3,295.6 300.4,293.1 300.6,296.0 300.7,291.4 300.9,294.2 301.0,295.3 301.2,293.4 301.3,295.6 301.5,296.6 301.6,296.1 301.8,293.1 301.9,295.9 302.1,296.9 302.2,295.2 302.3,294.7 302.5,295.8 302.6,293.5 302.8,294.9 302.9,294.3 303.1,295.4 303.2,293.6 303.4,296.5 303.5,293.7 303.7,292.1 303.8,293.7 304.0,292.0 304.1,298.9 304.2,296.9 304.4,296.3 304.5,295.4 304.7,293.0 304.8,295.0 305.0,294.1 305.1,295.2 305.3,294.9 305.4,290.7 305.6,292.3 305.7,294.0 305.9,295.3 306.0,292.3 306.2,292.6 306.3,293.8 306.4,295.5 306.6,293.6 306.7,292.4 306.9,292.8 307.0,296.5 307.2,294.0 307.3,294.7 307.5,293.2 307.6,296.4 307.8,294.8 307.9,295.6 308.1,293.4 308.2,290.5 308.3,297.3 308.5,298.1 308.6,295.8 308.8,294.5 308.9,294.8 309.1,295.5 309.2,293.7 309.4,296.3 309.5,295.9 309.7,290.9 309.8,295.6 310.0,295.8 310.1,294.0 310.3,293.3 310.4,295.3 310.6,294.0 310.7,296.2 310.9,296.6 311.0,292.5 311.1,293.2 311.3,292.2 311.4,294.0 311.6,293.7 311.7,292.8 311.9,294.6 312.0,295.6 312.2,293.0 312.3,294.4 312.5,292.8 312.6,293.3 312.8,294.3 312.9,296.6 313.1,296.6 313.2,295.1 313.4,294.0 313.5,294.7 313.7,294.2 313.8,297.2 314.0,296.9 314.1,295.5 314.2,293.5 314.4,294.9 314.5,292.6 314.7,295.8 314.8,294.7 315.0,298.7 315.1,292.8 315.3,293.9 315.4,295.6 315.6,294.1 315.7,293.2 315.8,292.0 316.0,292.0 316.1,294.5 316.3,293.7 316.4,291.1 316.6,292.2 316.7,294.9 316.9,294.4 317.0,291.8 317.2,294.9 317.3,293.1 317.5,295.7 317.6,294.9 317.7,293.8 317.9,295.1 318.0,295.1 318.2,293.0 318.3,294.8 318.5,295.6 318.6,294.9 318.8,295.0 318.9,294.0 319.1,295.6 319.2,295.8 319.4,295.4 319.5,293.3 319.6,295.0 319.8,292.4 319.9,296.3 320.1,295.1 320.2,293.5 320.4,292.6 320.5,294.2 320.7,294.1 320.8,294.3 321.0,295.3 321.1,295.5 321.3,295.8 321.4,293.9 321.6,296.1 321.7,295.9 321.8,292.8 322.0,292.6 322.1,297.2 322.3,291.5 322.4,294.8 322.6,296.2 322.7,293.1 322.9,295.4 323.0,293.1 323.2,296.2 323.3,294.8 323.4,295.1 323.6,295.4 323.7,292.4 323.9,296.4 324.0,294.4 324.2,295.0 324.3,295.1 324.5,296.2 324.6,294.9 324.8,293.6 324.9,294.9 325.1,295.8 325.2,296.9 325.3,293.8 325.5,294.8 325.6,296.6 325.8,294.2 325.9,293.5 326.1,295.4 326.2,294.4 326.4,296.9 326.5,293.2 326.7,296.4 326.8,294.8 326.9,296.4 327.1,292.0 327.2,297.2 327.4,295.7 327.5,296.2 327.7,293.9 327.8,295.0 328.0,295.4 328.1,294.9 328.3,296.5 328.4,293.8 328.6,294.8 328.7,295.8 328.8,296.2 329.0,293.1 329.1,292.3 329.3,296.0 329.4,295.0 329.6,296.6 329.7,294.0 329.9,294.4 330.0,296.5 330.2,296.3 330.3,292.3 330.4,295.6 330.6,295.3 330.7,297.9 330.9,297.7 331.0,293.6 331.2,292.0 331.3,295.3 331.5,292.6 331.6,296.6 331.8,292.8 331.9,294.1 332.0,293.2 332.2,296.2 332.3,292.7 332.5,292.0 332.6,292.5 332.8,294.8 332.9,294.6 333.1,294.5 333.2,296.3 333.4,294.2 333.5,295.6 333.7,295.9 333.8,297.6 334.0,295.3 334.1,292.3 334.3,295.9 334.4,292.6 334.6,294.4 334.7,297.5 334.8,293.9 335.0,297.8 335.1,293.6 335.3,292.9 335.4,292.1 335.6,292.9 335.7,295.5 335.9,293.7 336.0,295.7 336.2,295.2 336.3,292.7 336.5,295.9 336.6,295.2 336.7,294.1 336.9,295.4 337.0,295.8 337.2,291.7 337.3,295.2 337.5,297.8 337.6,295.8 337.8,294.8 337.9,293.5 338.1,296.5 338.2,296.4 338.4,296.5 338.5,296.3 338.6,294.9 338.8,293.6 338.9,294.0 339.1,293.4 339.2,294.7 339.4,294.7 339.5,296.1 339.7,293.8 339.8,293.9 340.0,296.8 340.1,292.4 340.2,295.4 340.4,293.7 340.5,293.7 340.7,294.7 340.8,292.3 341.0,293.4 341.1,295.8 341.3,296.5 341.4,296.8 341.6,297.2 341.7,297.2 341.8,297.7 342.0,296.4 342.1,292.3 342.3,295.9 342.4,294.8 342.6,294.6 342.7,296.6 342.9,293.8 343.0,296.8 343.2,292.2 343.3,295.4 343.5,296.0 343.6,293.2 343.8,295.7 343.9,293.7 344.0,296.7 344.2,297.5 344.3,294.6 344.5,294.6 344.6,297.3 344.8,294.5 344.9,295.2 345.1,294.2 345.2,294.3 345.4,295.9 345.5,296.5 345.7,296.0 345.8,297.7 345.9,296.2 346.1,297.1 346.2,294.8 346.4,296.8 346.5,296.2 346.7,294.9 346.8,296.8 347.0,297.3 347.1,294.1 347.3,294.0 347.4,297.5 347.5,292.1 347.7,296.1 347.8,293.8 348.0,296.8 348.1,295.1 348.3,296.8 348.4,294.9 348.6,296.2 348.7,297.9 348.9,296.7 349.0,297.3 349.2,291.8 349.3,295.5 349.4,295.4 349.6,297.7 349.7,297.3 349.9,293.9 350.0,300.5 350.2,295.4 350.3,297.0 350.5,294.0 350.6,297.2 350.8,298.6 350.9,295.4 351.1,296.1 351.2,294.0 351.4,294.7 351.5,293.0 351.7,294.6 351.8,295.0 351.9,295.3 352.1,295.2 352.2,294.3 352.4,295.3 352.5,293.1 352.7,294.5 352.8,297.0 353.0,295.2 353.1,297.1 353.3,295.3 353.4,295.2 353.5,295.1 353.7,296.1 353.8,295.5 354.0,294.9 354.1,292.7 354.3,295.3 354.4,295.3 354.6,296.8 354.7,292.9 354.9,297.9 355.0,293.5 355.1,294.6 355.3,297.5 355.4,295.7 355.6,298.0 355.7,297.1 355.9,295.0 356.0,294.6 356.2,295.3 356.3,296.7 356.5,296.7 356.6,296.9 356.8,294.3 356.9,296.4 357.0,293.6 357.2,295.2 357.3,298.9 357.5,298.5 357.6,295.9 357.8,295.0 357.9,292.8 358.1,293.8 358.2,293.1 358.4,297.4 358.5,294.3 358.7,296.9 358.8,297.7 358.9,295.4 359.1,293.3 359.2,293.7 359.4,296.1 359.5,292.4 359.7,297.7 359.8,294.2 360.0,296.8 360.1,295.0 360.3,298.2 360.4,298.4 360.6,291.5 360.7,296.6 360.9,294.1 361.0,290.7 361.1,300.6 361.3,296.1 361.4,290.6 361.6,294.0 361.7,294.8 361.9,297.3 362.0,298.5 362.2,297.0 362.3,297.8 362.5,296.6 362.6,295.7 362.8,297.3 362.9,296.9 363.1,292.8 363.2,294.8 363.4,295.9 363.5,295.4 363.6,298.3 363.8,292.9 363.9,294.2 364.1,294.1 364.2,296.2 364.4,296.0 364.5,293.9 364.7,294.5 364.8,296.3 365.0,295.9 365.1,296.6 365.3,295.4 365.4,295.0 365.5,293.6 365.7,297.0 365.8,295.5 366.0,295.0 366.1,297.6 366.3,296.9 366.4,295.3 366.6,296.1 366.7,294.1 366.9,298.8 367.0,296.1 367.2,294.3 367.3,295.6 367.4,292.8 367.6,297.1 367.7,296.7 367.9,297.4 368.0,296.7 368.2,294.4 368.3,297.1 368.5,293.6 368.6,297.0 368.8,294.0 368.9,298.2 369.1,296.4 369.2,296.5 369.3,296.0 369.5,294.9 369.6,295.9 369.8,295.7 369.9,294.1 370.1,295.0 370.2,294.7 370.4,295.6 370.5,294.8 370.7,297.0 370.8,296.4 371.0,295.8 371.1,297.3 371.3,296.5 371.4,297.0 371.6,293.1 371.7,296.1 371.9,296.4 372.0,297.5 372.2,297.6 372.3,295.6 372.5,295.4 372.6,296.0 372.8,296.7 372.9,296.0 373.0,295.4 373.2,296.6 373.3,298.1 373.5,297.3 373.6,292.7 373.8,295.5 373.9,293.8 374.1,297.3 374.2,297.0 374.4,295.8 374.5,299.1 374.7,300.2 374.8,295.7 374.9,296.7 375.1,296.2 375.2,294.7 375.4,296.6 375.5,295.0 375.7,297.5 375.8,293.4 376.0,296.4 376.1,299.6 376.3,293.4 376.4,297.5 376.6,294.4 376.7,295.8 376.9,295.7 377.0,293.7 377.2,298.2 377.3,294.6 377.5,296.9 377.6,292.1 377.7,294.4 377.9,297.0 378.0,297.0 378.2,295.7 378.3,298.3 378.5,296.9 378.6,296.0 378.8,293.4 378.9,295.7 379.1,298.8 379.2,296.1 379.4,294.1 379.5,297.0 379.7,293.7 379.8,293.4 380.0,296.8 380.1,295.6 380.2,293.8 380.4,294.8 380.5,298.2 380.7,294.2 380.8,295.5 381.0,297.1 381.1,294.1 381.3,295.4 381.4,296.4 381.6,294.2 381.7,294.5 381.9,293.3 382.0,300.6 382.2,294.0 382.3,297.5 382.5,298.2 382.6,297.5 382.7,294.0 382.9,294.4 383.0,297.0 383.2,297.0 383.3,297.3 383.5,297.1 383.6,298.1 383.8,296.0 383.9,294.6 384.1,293.9 384.2,296.0 384.4,299.7 384.5,296.5 384.7,293.2 384.8,295.9 384.9,296.1 385.1,297.3 385.2,301.6 385.4,299.3 385.5,295.4 385.7,294.7 385.8,297.7 386.0,297.6 386.1,296.9 386.3,297.6 386.4,297.7 386.6,295.2 386.7,295.0 386.8,293.3 387.0,296.2 387.1,298.0 387.3,297.0 387.4,294.8 387.6,298.0 387.7,297.9 387.9,296.0 388.0,294.6 388.2,294.6 388.3,296.2 388.5,297.8 388.6,294.9 388.8,296.3 388.9,292.9 389.0,294.1 389.2,296.6 389.3,294.3 389.5,292.7 389.6,297.9 389.8,293.2 389.9,297.4 390.1,296.6 390.2,297.7 390.4,298.1 390.5,298.4 390.7,296.8 390.8,295.2 391.0,296.5 391.1,294.8 391.3,295.6 391.4,298.9 391.5,300.1 391.7,297.4 391.8,294.4 392.0,296.0 392.2,296.1 392.4,296.0 392.5,295.2 392.7,293.8 392.8,297.8 393.0,296.6 393.1,296.8 393.2,297.4 393.4,295.5 393.5,298.9 393.7,297.2 393.8,299.1 394.0,298.2 394.1,295.6 394.3,297.8 394.4,296.9 394.6,298.0 394.7,294.5 394.9,298.6 395.0,293.8 395.2,297.5 395.3,299.9 395.4,294.4 395.6,295.2 395.7,295.3 395.9,295.5 396.0,295.6 396.2,296.6 396.3,297.6 396.5,296.0 396.6,296.3 396.8,297.7 396.9,295.9 397.1,297.2 397.2,296.9 397.3,294.8 397.5,293.6 397.6,296.6 397.8,299.5 397.9,291.9 398.1,299.2 398.2,297.7 398.4,297.0 398.5,296.5 398.7,296.8 398.8,297.1 399.0,299.2 399.1,297.7 399.3,294.0 399.4,297.1 399.5,296.4 399.7,297.7 399.8,294.9 400.0,295.5 400.1,296.0 400.3,295.2 400.4,296.3 400.6,294.8 400.7,297.6 400.9,298.9 401.0,298.0 401.2,297.5 401.3,296.9 401.4,296.4 401.6,297.3 401.7,296.0 401.9,295.3 402.0,293.8 402.2,297.0 402.3,298.7 402.5,297.0 402.6,296.5 402.8,296.6 402.9,296.1 403.1,296.8 403.2,295.3 403.4,295.1 403.5,295.2 403.6,298.6 403.8,300.3 403.9,298.3 404.1,296.3 404.2,295.7 404.4,297.3 404.5,293.3 404.7,295.7 404.8,293.1 405.0,296.6 405.1,296.2 405.3,298.8 405.4,298.0 405.6,296.1 405.7,297.6 405.8,299.7 406.0,297.3 406.1,293.8 406.3,297.3 406.4,297.0 406.6,297.1 406.7,295.9 406.9,296.4 407.0,297.3 407.2,296.7 407.3,296.7 407.4,294.6 407.6,298.0 407.7,300.7 407.9,296.7 408.0,296.9 408.2,294.3 408.3,298.2 408.5,296.4 408.6,294.4 408.8,294.3 408.9,294.6 409.1,297.7 409.2,295.6 409.3,297.8 409.5,296.8 409.6,297.5 409.8,296.2 409.9,292.0 410.1,293.6 410.2,294.4 410.4,296.8 410.5,296.3 410.7,295.1 410.8,296.8 411.0,298.2 411.1,295.9 411.3,297.7 411.4,296.7 411.6,297.9 411.7,295.7 411.8,297.3 412.0,293.6 412.1,294.5 412.3,294.6 412.4,293.9 412.6,293.6 412.7,296.6 412.9,296.3 413.0,295.8 413.2,297.6 413.3,297.9 413.5,298.2 413.6,295.0 413.7,294.2 413.9,296.0 414.0,298.1 414.2,296.9 414.3,294.9 414.5,293.5 414.6,297.0 414.8,297.5 414.9,297.3 415.1,298.1 415.2,296.7 415.4,297.6 415.5,297.2 415.7,296.7 415.8,297.9 416.0,298.4 416.1,296.1 416.3,295.0 416.4,297.2 416.5,293.6 416.7,296.2 416.8,296.5 417.0,294.8 417.1,296.9 417.3,297.6 417.4,294.7 417.6,298.2 417.7,297.3 417.9,298.2 418.0,296.0 418.2,296.5 418.3,296.8 418.4,294.6 418.6,296.7 418.7,299.2 418.9,296.8 419.0,297.5 419.2,297.2 419.3,293.9 419.5,293.1 419.6,293.3 419.8,297.7 419.9,296.7 420.1,295.8 420.2,298.1 420.3,297.7 420.5,298.1 420.6,296.8 420.8,296.8 420.9,297.2 421.1,298.2 421.2,297.8 421.4,295.0 421.5,297.9 421.7,299.7 421.8,294.8 422.0,298.4 422.1,298.4 422.2,295.8 422.4,295.7 422.5,300.9 422.7,296.2 422.8,293.9 423.0,297.8 423.1,296.2 423.3,297.2 423.4,294.2 423.6,299.8 423.7,294.8 423.9,295.8 424.0,301.0 424.1,297.5 424.3,296.1 424.4,296.0 424.6,296.2 424.7,298.1 424.9,297.3 425.0,296.0 425.2,297.0 425.3,298.0 425.5,295.9 425.6,299.2 425.8,294.8 425.9,296.3 426.0,296.2 426.2,299.2 426.3,298.0 426.5,295.8 426.6,298.9 426.8,296.5 426.9,295.0 427.1,299.0 427.2,296.7 427.4,293.7 427.5,297.4 427.7,297.0 427.8,296.3 428.0,296.5 428.1,299.4 428.2,294.6 428.4,293.7 428.5,294.0 428.7,293.7 428.8,299.0 429.0,294.2 429.1,298.0 429.3,297.4 429.4,297.4 429.6,294.1 429.7,297.0 429.9,295.2 430.0,295.5 430.2,298.3 430.3,299.7 430.4,297.9 430.6,297.8 430.7,292.5 430.9,297.0 431.0,296.9 431.2,294.9 431.3,296.0 431.5,299.7 431.6,296.7 431.8,297.4 431.9,297.5 432.1,298.2 432.2,297.1 432.3,294.5 432.5,297.0 432.6,295.4 432.8,296.1 432.9,298.2 433.1,296.1 433.2,297.3 433.4,294.2 433.5,295.9 433.7,292.9 433.8,293.2 434.0,298.9 434.1,296.0 434.3,298.3 434.4,297.8 434.6,298.5 434.7,296.6 434.9,295.7 435.0,293.3 435.2,296.5 435.3,297.8 435.5,298.1 435.6,293.2 435.7,298.2 435.9,296.9 436.0,299.3 436.2,293.5 436.3,296.8 436.5,297.6 436.6,294.5 436.8,298.8 436.9,297.5 437.1,298.5 437.2,297.4 437.4,295.9 437.5,292.8 437.6,296.7 437.8,297.9 437.9,297.2 438.1,296.0 438.2,294.7 438.4,297.6 438.5,295.6 438.7,298.1 438.8,298.8 439.0,295.7 439.1,294.0 439.3,296.9 439.4,296.6 439.5,298.7 439.7,300.0 439.8,297.6 440.0,296.2 440.1,296.9 440.3,299.1 440.4,297.2 440.6,296.1 440.7,296.9 440.9,295.9 441.0,296.7 441.1,298.0 441.3,296.3 441.4,294.1 441.6,294.3 441.7,296.8 441.9,295.1 442.0,298.3 442.2,295.9 442.3,297.2 442.5,296.2 442.6,297.3 442.8,300.2 442.9,296.7 443.0,294.6 443.2,301.6 443.3,295.7 443.5,298.3 443.6,298.5 443.8,299.1 443.9,295.6 444.1,296.5 444.2,295.5 444.4,298.0 444.5,297.8 444.7,296.5 444.8,294.8 444.9,296.7 445.1,298.3 445.2,299.0 445.4,295.7 445.5,298.2 445.7,295.7 445.8,297.2 446.0,295.7 446.1,296.1 446.3,296.2 446.4,296.4 446.6,295.3 446.7,295.0 446.8,294.0 447.0,297.2 447.1,298.5 447.3,298.4 447.4,297.4 447.6,298.6 447.7,299.0 447.9,296.3 448.0,299.6 448.2,299.3 448.3,298.7 448.5,295.1 448.6,296.8 448.8,299.2 448.9,292.8 449.1,298.3 449.2,298.1 449.4,296.8 449.5,296.4 449.6,298.2 449.8,295.9 449.9,294.6 450.1,295.1 450.2,299.3 450.4,297.6 450.5,299.6 450.7,298.1 450.8,298.4 451.0,295.0 451.1,300.1 451.3,296.7 451.4,299.5 451.6,298.9 451.7,295.8 451.9,296.8 452.0,297.6 452.1,295.8 452.3,295.3 452.4,300.8 452.6,298.8 452.7,298.7 452.9,296.7 453.0,297.7 453.2,295.6 453.3,298.1 453.5,295.8 453.6,300.7 453.8,295.8 453.9,298.0 454.1,296.9 454.2,295.0 454.4,296.4 454.5,295.6 454.7,295.7 454.8,296.7 454.9,299.2 455.1,296.0 455.2,298.9 455.4,292.6 455.5,297.9 455.7,297.4 455.8,296.7 456.0,297.9 456.1,297.0 456.3,297.7 456.4,297.7 456.6,293.3 456.7,296.1 456.9,297.4 457.0,299.6 457.2,296.3 457.3,296.1 457.4,301.0 457.6,297.1 457.7,298.2 457.9,293.8 458.0,298.3 458.2,296.6 458.3,297.8 458.5,296.5 458.6,296.6 458.8,300.0 458.9,297.0 459.1,296.2 459.2,297.4 459.4,296.0 459.5,297.5 459.7,300.3 459.8,299.1 460.0,295.8 460.1,299.5 460.2,298.8 460.4,299.2 460.5,297.9 460.7,298.3 460.8,291.8 461.0,297.1 461.1,293.9 461.3,297.4 461.4,296.7 461.6,296.7 461.7,299.1 461.9,298.2 462.1,297.7 462.2,297.4 462.4,295.9 462.5,296.4 462.7,297.3 462.8,297.9 463.0,300.3 463.1,297.5 463.2,294.8 463.4,296.2 463.5,298.9 463.7,298.1 463.8,295.8 464.0,299.5 464.1,296.0 464.3,298.5 464.4,296.7 464.6,295.5 464.7,295.0 464.9,297.8 465.0,295.3 465.1,297.6 465.3,296.5 465.4,299.6 465.6,297.8 465.7,301.0 465.9,294.0 466.0,298.2 466.2,296.8 466.3,300.0 466.5,299.9 466.6,296.0 466.8,295.2 466.9,296.5 467.1,295.2 467.2,300.7 467.4,297.9 467.5,295.2 467.6,299.7 467.8,300.2 467.9,298.4 468.1,296.8 468.2,297.4 468.4,297.4 468.5,297.4 468.7,296.9 468.8,296.4 469.0,299.7 469.1,298.2 469.3,299.0 469.4,299.3 469.5,297.0 469.7,298.2 469.8,300.1 470.0,296.8 470.1,296.5 470.3,297.5 470.4,298.9 470.6,297.1 470.7,297.4 470.9,297.8 471.0,299.9 471.2,298.1 471.3,295.4 471.4,297.4 471.6,296.2 471.7,295.5 471.9,297.7 472.0,297.0 472.2,296.9 472.3,296.4 472.5,299.5 472.6,296.6 472.8,298.7 472.9,298.3 473.1,298.1 473.2,297.4 473.3,296.4 473.5,296.0 473.6,297.2 473.8,297.1 473.9,299.4 474.1,298.7 474.2,300.6 474.4,298.4 474.5,297.9 474.7,300.3 474.8,297.7 475.0,298.1 475.1,302.3 475.2,295.3 475.4,294.7 475.5,294.6 475.7,299.7 475.8,297.3 476.0,297.3 476.1,298.2 476.3,296.6 476.4,299.5 476.6,297.3 476.7,297.5 476.8,296.9 477.0,297.5 477.1,295.5 477.3,300.9 477.4,297.5 477.6,298.8 477.7,297.4 477.9,298.0 478.0,296.7 478.2,296.3 478.3,298.1 478.4,298.9 478.6,299.5 478.7,296.0 478.9,301.7 479.0,297.3 479.2,294.8 479.3,298.5 479.5,294.6 479.6,301.1 479.8,299.0 479.9,298.4 480.1,296.6 480.2,296.6 480.3,296.1 480.5,298.4 480.6,296.6 480.8,297.9 480.9,297.5 481.1,296.4 481.2,297.5 481.4,299.6 481.5,298.7 481.7,295.7 481.8,299.4 482.0,297.9 482.1,300.6 482.2,298.6 482.4,297.2 482.5,299.4 482.7,296.1 482.8,296.2 483.0,297.5 483.1,295.5 483.3,295.7 483.4,301.5 483.6,296.5 483.7,298.5 483.9,299.1 484.0,298.9 484.2,298.7 484.3,295.5 484.4,299.4 484.6,297.0 484.7,301.5 484.9,297.8 485.0,298.6 485.2,295.1 485.3,299.4 485.5,297.1 485.6,296.8 485.8,297.6 485.9,299.5 486.0,297.3 486.2,295.3 486.3,299.9 486.5,297.7 486.6,297.9 486.8,296.3 486.9,297.7 487.1,299.0 487.2,299.2 487.4,296.9 487.5,294.8 487.7,294.9 487.8,297.3 487.9,299.9 488.1,297.3 488.2,297.4 488.4,296.1 488.5,296.7 488.7,297.6 488.8,295.8 489.0,296.7 489.1,298.4 489.3,299.5 489.4,300.0 489.6,299.8 489.7,298.2 489.9,295.5 490.0,297.1 490.2,297.4 490.3,297.1 490.4,298.8 490.6,297.2 490.7,296.1 490.9,296.3 491.0,297.2 491.2,299.7 491.3,297.8 491.5,299.5 491.6,298.5 491.8,298.5 491.9,298.5 492.0,296.6 492.2,296.9 492.3,301.1 492.5,296.8 492.6,297.9 492.8,300.5 492.9,296.1 493.1,295.6 493.2,297.3 493.4,298.0 493.5,295.8 493.7,293.9 493.8,298.3 494.0,297.0 494.1,298.4 494.3,297.7 494.4,300.0 494.5,297.2 494.7,295.7 494.8,297.4 495.0,295.5 495.1,296.9 495.3,298.9 495.4,301.6 495.6,301.7 495.7,300.4 495.9,297.1 496.0,297.5 496.2,297.8 496.3,300.4 496.5,300.6 496.6,297.8 496.7,294.4 496.9,298.0 497.0,300.8 497.2,298.0 497.3,296.6 497.5,299.5 497.6,293.3 497.8,300.3 497.9,300.1 498.1,296.9 498.2,298.8 498.4,299.8 498.5,296.8 498.6,300.8 498.8,299.0 498.9,298.1 499.1,298.1 499.2,301.5 499.4,299.2 499.5,295.8 499.7,296.3 499.8,297.5 500.0,294.9 500.1,297.0 500.3,295.4 500.4,296.0 500.6,300.2 500.7,297.8 500.8,296.2 501.0,299.7 501.1,300.0 501.3,297.7 501.4,298.0 501.6,295.1 501.7,295.8 501.9,298.4 502.0,296.4 502.2,297.6 502.3,298.2 502.5,298.4 502.6,297.4 502.7,296.6 502.9,300.9 503.0,297.5 503.2,298.5 503.3,298.5 503.5,297.0 503.6,298.2 503.8,297.3 503.9,298.9 504.1,297.2 504.2,294.5 504.3,299.0 504.5,298.4 504.6,298.8 504.8,295.8 504.9,299.1 505.1,298.5 505.2,297.6 505.4,300.0 505.5,296.7 505.7,298.8 505.8,295.8 506.0,300.0 506.1,300.5 506.2,299.7 506.4,294.8 506.5,299.0 506.7,297.0 506.8,297.5 507.0,296.2 507.1,299.5 507.3,299.5 507.4,297.6 507.6,297.6 507.7,299.1 507.9,298.8 508.0,298.1 508.2,297.8 508.3,299.2 508.5,300.8 508.6,297.1 508.7,299.2 508.9,296.1 509.0,299.6 509.2,294.1 509.3,300.5 509.5,296.9 509.6,294.9 509.8,298.1 509.9,298.6 510.1,301.1 510.2,299.9 510.4,296.5 510.5,299.9 510.6,298.0 510.8,299.2 510.9,298.4 511.1,298.0 511.2,296.7 511.4,302.8 511.5,299.2 511.7,294.2 511.8,300.4 512.0,295.4 512.1,299.3 512.3,298.2 512.4,296.6 512.5,300.4 512.7,298.9 512.8,298.4 513.0,296.0 513.1,296.1 513.3,297.8 513.4,296.5 513.6,297.8 513.7,298.1 513.9,299.2 514.0,298.8 514.2,293.7 514.3,296.5 514.4,299.6 514.6,297.8 514.7,297.4 514.9,298.5 515.0,297.1 515.2,297.9 515.3,297.8 515.5,298.4 515.6,297.1 515.8,296.7 515.9,299.2 516.1,296.6 516.2,299.2 516.4,299.1 516.5,298.4 516.6,299.2 516.8,296.9 516.9,299.1 517.1,294.7 517.2,299.3 517.4,299.7 517.5,296.3 517.7,297.0 517.8,301.3 518.0,296.3 518.1,298.3 518.2,300.6 518.4,297.9 518.5,298.4 518.7,297.5 518.8,299.2 519.0,296.7 519.1,295.7 519.3,298.7 519.4,300.0 519.6,296.5 519.7,297.9 519.8,299.1 520.0,298.3 520.1,298.5 520.3,297.3 520.4,299.5 520.6,299.5 520.7,298.6 520.9,297.0 521.0,294.1 521.2,295.6 521.3,296.4 521.5,301.9 521.6,296.1 521.8,298.3 521.9,295.9 522.1,298.4 522.2,300.2 522.4,299.4 522.5,297.0 522.6,296.7 522.8,297.8 522.9,298.7 523.1,295.2 523.2,296.7 523.4,299.1 523.5,299.8 523.7,294.4 523.8,295.9 524.0,298.2 524.1,298.0 524.3,297.7 524.4,298.1 524.6,298.9 524.7,297.5 524.8,297.6 525.0,295.2 525.1,297.9 525.3,297.6 525.4,297.7 525.6,296.6 525.7,296.3 525.9,298.1 526.0,296.8 526.2,297.9 526.3,299.8 526.5,298.8 526.6,298.6 526.8,294.9 526.9,295.3 527.0,298.2 527.2,297.0 527.3,296.6 527.5,299.2 527.6,298.2 527.8,298.6 527.9,299.2 528.1,299.0 528.2,296.7 528.4,298.6 528.5,296.6 528.7,298.6 528.8,297.5 529.0,297.7 529.1,296.5 529.2,296.1 529.4,296.5 529.5,297.2 529.7,297.9 529.8,299.7 530.0,296.1 530.1,299.5 530.3,298.7 530.4,296.6 530.6,300.7 530.7,296.9 530.9,300.1 531.0,298.0 531.2,300.0 531.3,298.7 531.4,296.9 531.6,297.8 531.7,300.0 531.9,298.4 532.0,300.8 532.2,295.6 532.3,299.0 532.5,301.0 532.6,296.9 532.8,296.3 532.9,298.0 533.1,300.6 533.2,297.0 533.3,298.7 533.5,298.8 533.6,299.6 533.8,297.9 533.9,298.9 534.1,298.0 534.2,298.9 534.4,296.0 534.5,300.0 534.7,298.4 534.8,295.8 535.0,295.3 535.1,295.8 535.3,299.2 535.4,299.5 535.5,300.5 535.7,297.9 535.8,298.1 536.0,298.5 536.1,297.5 536.3,298.2 536.4,296.4 536.6,295.3 536.7,299.8 536.9,297.9 537.0,299.0 537.1,297.4 537.3,297.5 537.4,299.8 537.6,297.0 537.7,299.5 537.9,299.0 538.0,297.4 538.2,298.0 538.3,296.2 538.5,296.4 538.6,298.5 538.7,296.6 538.9,300.2 539.0,299.0 539.2,295.5 539.3,296.1 539.5,296.9 539.6,300.3 539.8,299.6 539.9,299.1 540.1,300.2 540.2,299.1 540.3,298.5 540.5,296.6 540.6,298.6 540.8,297.4 540.9,296.8 541.1,298.6 541.2,299.5 541.4,300.8 541.5,296.5 541.7,300.2 541.8,297.2 542.0,297.2 542.1,297.1 542.2,297.5 542.4,299.8 542.5,300.1 542.7,296.8 542.8,296.0 543.0,298.2 543.1,298.2 543.3,298.3 543.4,298.9 543.6,299.3 543.7,301.0 543.8,297.6 544.0,297.9 544.1,297.1 544.3,297.0 544.4,297.9 544.6,297.0 544.7,299.6 544.9,299.0 545.0,298.0 545.2,300.0 545.3,298.5 545.5,300.5 545.6,298.6 545.7,299.0 545.9,299.7 546.0,298.3 546.2,299.4 546.3,298.1 546.5,299.0 546.6,297.8 546.8,294.7 546.9,295.1 547.1,297.4 547.2,299.9 547.3,301.1 547.5,298.9 547.6,297.3 547.8,300.2 547.9,298.0 548.1,296.4 548.2,295.8 548.4,296.3 548.5,302.4 548.7,295.7 548.8,297.0 548.9,299.4 549.1,297.0 549.2,299.2 549.4,297.3 549.5,298.8 549.7,296.8 549.8,301.3 550.0,295.9 550.1,300.0 550.3,299.1 550.4,295.8 550.5,299.0 550.7,300.9 550.8,297.2 551.0,297.7 551.1,299.5 551.3,299.1 551.4,299.3 551.6,297.9 551.7,299.3 551.9,296.4 552.0,297.8 552.1,298.9 552.3,295.6 552.4,300.0 552.6,300.4 552.7,296.2 552.9,300.8 553.0,299.4 553.2,298.5 553.3,298.6 553.5,298.4 553.6,296.6 553.8,298.0 553.9,293.9 554.0,295.3 554.2,298.3 554.3,298.8 554.5,300.4 554.6,300.5 554.8,295.6 554.9,299.2 555.1,296.0 555.2,300.3 555.4,299.5 555.5,298.6 555.7,299.1 555.8,299.3 556.0,295.4 556.1,299.1 556.2,299.1 556.4,296.2 556.5,296.7 556.7,298.0 556.8,298.6 557.0,299.6 557.1,296.4 557.3,299.6 557.4,298.0 557.6,301.7 557.7,297.1 557.9,298.1 558.0,296.2 558.2,299.7 558.3,298.0 558.4,297.6 558.6,300.2 558.7,297.9 558.9,301.4 559.0,297.7 559.2,298.4 559.3,301.1 559.5,299.5 559.6,300.9 559.8,299.9 559.9,300.4 560.1,300.9 560.2,300.9 560.4,298.8 560.5,301.0 560.7,296.5 560.8,294.2 561.0,297.2 561.1,296.7 561.3,298.2 561.4,298.1 561.5,296.5 561.7,297.1 561.8,296.2 562.0,298.7 562.1,300.0 562.3,296.6 562.4,300.8 562.6,298.4 562.7,297.5 562.9,295.6 563.0,301.1 563.1,297.0 563.3,297.1 563.4,299.2 563.6,298.8 563.7,297.8 563.9,299.5 564.0,296.4 564.2,298.5 564.3,296.2 564.5,297.9 564.6,300.8 564.8,299.0 564.9,297.8 565.0,295.8 565.2,298.1 565.3,299.9 565.5,298.5 565.6,299.8 565.8,297.8 565.9,301.5 566.1,298.6 566.2,302.2 566.4,296.8 566.5,298.6 566.7,303.0 566.8,299.3 566.9,297.7 567.1,298.1 567.2,298.3 567.4,299.1 567.5,298.6 567.7,301.2 567.8,297.7 568.0,298.3 568.1,301.0 568.3,300.9 568.4,296.8 568.5,299.3 568.7,297.7 568.8,300.9 569.0,297.2 569.1,298.1 569.3,299.4 569.4,302.5 569.6,300.3 569.7,298.6 569.9,299.3 570.0,301.1 570.2,298.6 570.3,300.6 570.4,299.4 570.6,298.3 570.7,298.6 570.9,298.3 571.0,298.3 571.2,297.4 571.3,298.8 571.5,298.1 571.6,300.0 571.8,298.4 571.9,294.5 572.1,292.4 572.2,301.4 572.3,300.3 572.5,297.0 572.6,298.2 572.8,299.0 572.9,298.5 573.1,296.2 573.2,297.4 573.4,298.3 573.5,299.0 573.7,300.6 573.8,300.6 573.9,297.0 574.1,299.3 574.2,297.9 574.4,299.1 574.5,296.1 574.7,301.0 574.8,299.1 575.0,298.8 575.1,296.2 575.3,295.9 575.4,296.0 575.5,297.9 575.7,298.3 575.8,296.5 576.0,299.7 576.1,301.1 576.3,299.8 576.4,299.9 576.6,299.1 576.7,299.0 576.9,297.3 577.0,298.4 577.2,299.6 577.3,301.7 577.4,299.1 577.6,297.4 577.7,299.8 577.9,300.7 578.0,298.9 578.2,297.0 578.3,297.8 578.5,295.5 578.6,296.3 578.8,294.5 578.9,297.8 579.1,298.2 579.2,295.6 579.4,298.2 579.5,297.3 579.7,297.2 579.8,298.9 579.9,299.7 580.1,298.5 580.2,298.7 580.4,297.8 580.5,298.9 580.7,295.7 580.8,300.0 581.0,297.9 581.1,299.6 581.3,296.4 581.4,300.8 581.5,298.0 581.7,296.9 581.8,298.5 582.0,298.4 582.1,299.2 582.3,297.7 582.4,298.8 582.6,297.5 582.7,300.8 582.9,298.8 583.0,302.8 583.2,298.3 583.3,299.3 583.4,298.7 583.6,298.6 583.7,297.4 583.9,296.3 584.0,299.4 584.2,300.3 584.3,299.4 584.5,296.3 584.6,299.0 584.8,297.8 584.9,297.4 585.0,295.9 585.2,298.4 585.3,299.1 585.5,302.1 585.6,297.6 585.8,301.1 585.9,300.8 586.1,299.3 586.2,301.7 586.4,297.7 586.5,301.9 586.7,298.0 586.8,297.6 586.9,296.5 587.1,297.5 587.2,297.4 587.4,301.4 587.5,299.0 587.7,296.1 587.8,298.2 588.0,300.4 588.1,298.4 588.3,298.1 588.4,302.0 588.6,300.2 588.7,300.5 588.8,300.0 589.0,301.2 589.1,299.1 589.3,299.7 589.4,297.2 589.6,298.6 589.7,300.0 589.9,296.2 590.0,301.9 590.2,296.6 590.3,299.8 590.5,299.3 590.6,298.6 590.7,297.0 590.9,296.6 591.0,300.4 591.2,299.1 591.3,299.2 591.5,298.9 591.6,297.9 591.8,297.7 591.9,301.7 592.0,301.1 592.2,299.8 592.3,301.0 592.5,298.0 592.6,298.8 592.8,300.9 592.9,295.5 593.1,299.3 593.2,300.0 593.4,298.5 593.5,302.4 593.6,299.0 593.8,302.0 593.9,298.4 594.1,297.9 594.2,299.5 594.4,301.4 594.5,299.5 594.7,297.1 594.8,300.2 595.0,299.9 595.1,298.2 595.3,300.0 595.4,296.2 595.5,298.3 595.7,299.8 595.8,300.0 596.0,300.2 596.1,298.9 596.3,298.9 596.4,300.2 596.6,301.9 596.7,299.2 596.9,297.7 597.0,300.6 597.1,298.7 597.3,298.1 597.4,299.4 597.6,298.2 597.7,296.9 597.9,298.2 598.0,299.3 598.2,294.5 598.3,301.1 598.5,299.1 598.6,296.9 598.7,300.9 598.9,300.6 599.0,299.4 599.2,297.3 599.3,299.6 599.5,298.7 599.6,298.3 599.8,299.7 599.9,296.8 600.1,299.9 600.2,297.4 600.4,298.1 600.5,300.3 600.7,299.9 600.8,300.1 600.9,300.7 601.1,303.1 601.2,300.6 601.4,299.2 601.5,297.7 601.7,297.5 601.8,299.6 602.0,299.3 602.1,298.2 602.3,298.7 602.4,296.6 602.6,297.9 602.7,299.7 602.9,295.9 603.0,298.9 603.2,296.8 603.3,297.8 603.4,295.9 603.6,297.7 603.7,297.5 603.9,296.1 604.0,302.6 604.2,300.5 604.3,299.0 604.5,299.6 604.6,296.2 604.8,301.2 604.9,297.5 605.1,299.3 605.2,299.0 605.3,298.0 605.5,299.9 605.6,300.3 605.8,296.7 605.9,298.1 606.1,296.7 606.2,299.9 606.4,298.1 606.5,298.1 606.7,297.6 606.8,297.3 607.0,299.2 607.1,299.5 607.2,298.4 607.4,297.9 607.5,297.7 607.7,297.3 607.8,302.9 608.0,297.2 608.1,298.5 608.3,298.0 608.4,298.4 608.6,299.9 608.7,299.3 608.8,299.4 609.0,299.3 609.1,299.1 609.3,299.2 609.4,299.0 609.6,300.3 609.7,299.0 609.9,299.6 610.0,300.4 610.2,300.1 610.3,297.9 610.5,300.0 610.6,297.7 610.7,301.7 610.9,297.2 611.0,298.2 611.2,296.6 611.3,299.9 611.5,298.3 611.6,301.4 611.8,300.5 611.9,298.4 612.1,296.8 612.2,298.6 612.3,299.4 612.5,299.8 612.6,299.2 612.8,297.4 612.9,297.8 613.1,298.0 613.2,298.1 613.4,299.7 613.5,299.6 613.7,299.3 613.8,297.2 613.9,300.6 614.1,297.6 614.2,299.4 614.4,298.8 614.5,294.2 614.7,299.7 614.8,300.2 615.0,295.9 615.1,296.4 615.3,300.2 615.4,303.2 615.5,303.2 615.7,299.1 615.8,299.3 616.0,298.4 616.1,300.0 616.3,296.9 616.4,299.3 616.6,300.3 616.7,301.8 616.9,301.0 617.0,299.3 617.2,296.1 617.3,294.1 617.4,297.9 617.6,299.0 617.7,298.2 617.9,301.5 618.0,298.5 618.2,298.6 618.3,299.6 618.5,298.0 618.6,301.3 618.8,300.6 618.9,297.0 619.1,297.3 619.2,295.9 619.4,297.1 619.5,297.8 619.7,293.9 619.8,299.2 619.9,299.8 620.1,296.7 620.2,298.7 620.4,298.1 620.5,300.0 620.7,299.6 620.8,295.6 621.0,301.4 621.1,300.7 621.3,298.5 621.4,299.4 621.6,300.6 621.7,300.4 621.9,301.0 622.0,298.3 622.2,294.6 622.3,296.8 622.5,298.3 622.6,300.0 622.8,300.7 622.9,299.7 623.1,299.0 623.2,299.8 623.4,298.1 623.5,299.8 623.6,297.9 623.8,295.5 623.9,303.7 624.1,297.4 624.2,298.3 624.4,298.7 624.5,296.1 624.7,301.1 624.8,299.3 625.0,303.5 625.1,300.5 625.3,300.6 625.4,298.5 625.5,298.8 625.7,301.3 625.8,299.2 626.0,303.8 626.1,300.4 626.3,296.7 626.4,298.4 626.6,297.3 626.7,299.2 626.9,297.1 627.0,298.6 627.2,294.5 627.3,300.0 627.5,295.7 627.6,298.6 627.8,300.2 627.9,299.2 628.0,301.1 628.2,298.2 628.3,299.8 628.5,301.9 628.6,304.1 628.8,298.8 628.9,301.5 629.1,295.4 629.2,299.2 629.4,297.3 629.5,296.9 629.7,301.8 629.8,299.9 630.0,299.8 630.1,298.0 630.2,296.8 630.4,298.4 630.5,297.8 630.7,300.0 630.8,298.8 631.0,299.6 631.1,301.5 631.3,299.8 631.4,298.5 631.6,299.7 631.7,298.4 631.9,298.6 632.0,297.7 632.2,297.5 632.3,298.1 632.4,300.3 632.6,299.0 632.7,300.5 632.9,300.8 633.0,300.4 633.2,299.1 633.3,297.2 633.5,298.5 633.6,297.1 633.8,295.6 633.9,300.0 634.1,299.7 634.2,301.8 634.4,297.0 634.5,299.1 634.6,297.8 634.8,300.8 634.9,298.8 635.1,298.0 635.2,299.0 635.4,300.1 635.5,299.9 635.7,297.9 635.8,295.6 636.0,298.2 636.1,297.9 636.3,297.4 636.4,298.9 636.5,299.4 636.7,299.0 636.8,300.5 637.0,302.4 637.1,297.0 637.3,299.0 637.4,299.8 637.6,300.0 637.7,298.6 637.9,299.9 638.0,300.4 638.2,296.8 638.3,297.4 638.5,298.7 638.6,299.3 638.8,297.4 638.9,294.7 639.1,302.1 639.2,298.4 639.4,301.6 639.5,300.3 639.6,299.8 639.8,297.4 639.9,299.7 640.1,299.7 640.2,300.8 640.4,301.0 640.5,298.8 640.7,300.3 640.8,299.6 641.0,296.7 641.1,300.8 641.3,301.4 641.4,300.6 641.6,297.1 641.7,296.8 641.8,301.7 642.0,300.4 642.1,301.5 642.3,296.6 642.4,302.9 642.6,296.7 642.7,300.1 642.9,295.7 643.0,294.4 643.2,295.8 643.3,294.6 643.5,298.5 643.6,302.2 643.8,299.4 643.9,295.3 644.0,297.5 644.2,299.6 644.3,298.5 644.5,300.3 644.6,299.5 644.8,299.8 644.9,300.1 645.1,298.9 645.2,302.4 645.4,297.6 645.5,300.2 645.7,300.4 645.8,297.5 646.0,300.7 646.1,296.8 646.3,298.0 646.4,300.4 646.6,298.5 646.7,297.0 646.8,301.1 647.0,299.7 647.1,301.6 647.3,299.4 647.4,300.3 647.6,296.6 647.7,297.2 647.9,299.9 648.0,300.3 648.2,299.5 648.3,297.6 648.5,298.4 648.6,298.7 648.8,297.3 648.9,300.3 649.1,299.8 649.2,299.8 649.4,301.9 649.5,296.3 649.6,297.1 649.8,300.5 649.9,301.7 650.1,300.5 650.2,301.4 650.4,300.5 650.5,297.8 650.7,294.8 650.8,298.5 651.0,301.4 651.1,299.7 651.3,302.3 651.4,299.7 651.6,300.7 651.7,300.8 651.9,299.2 652.0,300.3 652.1,300.4 652.3,297.8 652.4,300.3 652.6,299.6 652.7,297.1 652.9,296.9 653.0,300.4 653.2,301.6 653.3,297.3 653.5,298.7 653.6,297.6 653.8,296.9 653.9,297.6 654.0,298.5 654.2,301.2 654.3,301.7 654.5,296.7 654.6,299.4 654.8,300.4 654.9,300.1 655.1,298.2 655.2,299.6 655.4,302.4 655.5,302.1 655.7,300.7 655.8,300.0 656.0,298.0 656.1,301.4 656.2,296.9 656.4,296.0 656.5,297.6 656.7,298.2 656.8,297.5 657.0,299.1 657.1,300.3 657.3,298.8 657.4,300.1 657.6,301.2 657.7,298.1 657.9,300.6 658.0,300.4 658.2,297.9 658.3,300.5 658.4,297.3 658.6,300.6 658.7,297.3 658.9,297.7 659.0,298.8 659.2,297.7 659.3,300.2 659.5,298.7 659.6,297.0 659.8,299.7 659.9,302.1 660.1,300.6 660.2,296.2 660.4,299.5 660.5,299.5 660.7,301.9 660.8,299.8 661.0,295.2 661.1,301.7 661.3,299.3 661.4,301.5 661.6,300.1 661.7,298.5 661.9,298.5 662.0,296.9 662.2,301.2 662.3,300.2 662.4,299.4 662.6,300.8 662.7,300.8 662.9,299.9 663.0,297.9 663.2,300.6 663.3,297.8 663.5,300.5 663.6,300.1 663.8,300.6 663.9,299.5 664.1,300.8 664.2,303.3 664.4,301.3 664.5,299.0 664.6,299.5 664.8,300.6 664.9,301.4 665.1,300.8 665.2,302.3 665.4,298.3 665.5,295.9 665.7,299.8 665.8,296.9 666.0,300.7 666.1,297.8 666.2,297.8 666.4,302.9 666.5,298.3 666.7,296.9 666.8,298.9 667.0,297.6 667.1,301.3 667.3,299.7 667.4,300.3 667.6,297.6 667.7,301.8 667.8,298.9 668.0,298.3 668.1,299.7 668.3,295.3 668.4,300.7 668.6,297.9 668.7,299.4 668.9,302.3 669.0,297.5 669.2,299.5 669.3,302.3 669.5,298.8 669.6,296.3 669.8,301.1 669.9,300.3 670.1,297.7 670.2,301.1 670.4,295.5 670.5,297.7 670.7,297.7 670.8,299.9 671.0,297.6 671.1,300.2 671.3,298.7 671.4,299.0 671.5,298.5 671.7,299.4 671.8,300.3 672.0,298.2 672.1,295.5 672.3,298.7 672.4,300.8 672.6,297.5 672.7,298.7 672.9,297.3 673.0,297.7 673.2,302.8 673.3,300.4 673.4,299.4 673.6,297.6 673.7,298.1 673.9,300.2 674.0,300.4 674.2,300.4 674.3,299.2 674.5,299.7 674.6,300.1 674.8,297.6 674.9,297.1 675.1,297.8 675.2,300.2 675.3,300.0 675.5,298.6 675.6,300.7 675.8,301.3 675.9,299.5 676.1,297.1 676.2,299.7 676.4,301.5 676.5,298.2 676.7,303.3 676.8,302.5 677.0,301.2 677.1,296.6 677.2,298.8 677.4,300.8 677.5,300.4 677.7,299.4 677.8,298.2 678.0,295.4 678.1,299.8 678.3,300.4 678.4,300.5 678.6,297.5 678.7,297.1 678.8,300.7 679.0,299.7 679.1,298.1 679.3,300.0 679.4,298.7 679.6,300.9 679.7,304.9 679.9,298.9 680.0,298.5 680.2,299.5 680.3,299.6 680.5,300.1 680.6,298.2 680.7,297.8 680.9,302.8 681.0,299.1 681.2,300.2 681.3,301.8 681.5,298.8 681.6,299.5 681.8,303.3 681.9,297.6 682.1,297.5 682.2,299.8 682.4,301.6 682.5,301.8 682.7,299.0 682.8,300.4 682.9,301.3 683.1,301.9 683.2,302.7 683.4,300.0 683.5,300.8 683.7,298.0 683.8,299.5 684.0,302.2 684.1,298.7 684.3,297.9 684.4,298.0 684.6,299.2 684.7,301.2 684.9,299.1 685.0,298.3 685.2,299.7 685.3,301.1 685.5,302.6 685.6,300.5 685.8,299.8 685.9,297.0 686.0,297.8 686.2,298.1 686.3,298.0 686.5,298.0 686.6,298.7 686.8,297.6 686.9,297.9 687.1,301.0 687.2,300.5 687.4,297.7 687.5,298.7 687.7,299.4 687.8,301.2 688.0,300.2 688.1,301.8 688.2,299.6 688.4,299.6 688.5,297.8 688.7,300.2 688.8,299.0 689.0,302.8 689.1,300.2 689.3,298.3 689.4,299.1 689.6,300.3 689.7,299.5 689.9,298.8 690.0,300.2" fill="none" stroke="#86efac" stroke-width="1.5"/>
<rect x="65" y="20" width="625" height="330" fill="none" stroke="#888" stroke-width="1.5"/>
<line x1="62" y1="308.5" x2="65" y2="308.5" stroke="#64748b" stroke-width="1" opacity="0.6"/>
<line x1="62" y1="260.0" x2="65" y2="260.0" stroke="#64748b" stroke-width="1" opacity="0.6"/>
<line x1="62" y1="199.0" x2="65" y2="199.0" stroke="#64748b" stroke-width="1" opacity="0.6"/>
<line x1="60" y1="116.3" x2="65" y2="116.3" stroke="#64748b" stroke-width="1.5"/>
<text x="57" y="116.3" text-anchor="end" dominant-baseline="middle" font-size="11" font-family="monospace,sans-serif" fill="#64748b">10</text>
<line x1="62" y1="33.5" x2="65" y2="33.5" stroke="#64748b" stroke-width="1" opacity="0.6"/>
<line x1="65.0" y1="350" x2="65.0" y2="355" stroke="#888" stroke-width="1.5"/>
<text x="65.0" y="368" text-anchor="middle" font-size="11" font-family="monospace,sans-serif">0</text>
<line x1="190.1" y1="350" x2="190.1" y2="355" stroke="#888" stroke-width="1.5"/>
<text x="190.1" y="368" text-anchor="middle" font-size="11" font-family="monospace,sans-serif">2</text>
<line x1="315.1" y1="350" x2="315.1" y2="355" stroke="#888" stroke-width="1.5"/>
<text x="315.1" y="368" text-anchor="middle" font-size="11" font-family="monospace,sans-serif">4</text>
<line x1="440.2" y1="350" x2="440.2" y2="355" stroke="#888" stroke-width="1.5"/>
<text x="440.2" y="368" text-anchor="middle" font-size="11" font-family="monospace,sans-serif">6</text>
<line x1="565.3" y1="350" x2="565.3" y2="355" stroke="#888" stroke-width="1.5"/>
<text x="565.3" y="368" text-anchor="middle" font-size="11" font-family="monospace,sans-serif">8</text>
<line x1="690.4" y1="350" x2="690.4" y2="355" stroke="#888" stroke-width="1.5"/>
<text x="690.4" y="368" text-anchor="middle" font-size="11" font-family="monospace,sans-serif">10</text>
<text x="377" y="392" text-anchor="middle" font-size="13" font-family="sans-serif">Runtime (minutes)</text>
<text transform="rotate(-90,16,185)" x="16" y="185" text-anchor="middle" font-size="13" font-family="sans-serif" fill="#64748b">Train loss (log scale)</text>
</svg>