<svg xmlns="http://www.w3.org/2000/svg" viewBox="0 0 760 400" width="760" height="400" style="background:white">
<rect x="65" y="20" width="610" height="330" fill="#f9f9f9"/>
<line x1="65" y1="308.5" x2="675" y2="308.5" stroke="#ececec" stroke-width="1"/>
<line x1="65" y1="260.0" x2="675" y2="260.0" stroke="#ececec" stroke-width="1"/>
<line x1="65" y1="199.0" x2="675" y2="199.0" stroke="#ececec" stroke-width="1"/>
<line x1="65" y1="116.3" x2="675" y2="116.3" stroke="#ddd" stroke-width="1"/>
<line x1="65" y1="33.5" x2="675" y2="33.5" stroke="#ececec" stroke-width="1"/>
<line x1="65.0" y1="20" x2="65.0" y2="350" stroke="#ececec" stroke-width="1"/>
<line x1="187.1" y1="20" x2="187.1" y2="350" stroke="#ececec" stroke-width="1"/>
<line x1="309.2" y1="20" x2="309.2" y2="350" stroke="#ececec" stroke-width="1"/>
<line x1="431.3" y1="20" x2="431.3" y2="350" stroke="#ececec" stroke-width="1"/>
<line x1="553.4" y1="20" x2="553.4" y2="350" stroke="#ececec" stroke-width="1"/>
<line x1="675.6" y1="20" x2="675.6" y2="350" stroke="#ececec" stroke-width="1"/>
<line x1="65" y1="317.6" x2="675" y2="317.6" stroke="#2563eb" stroke-width="0.75" stroke-dasharray="3,3" opacity="0.4"/>
<polyline points="65.0,119.8 65.7,52.7 66.4,85.4 67.2,143.1 67.9,161.7 68.6,155.9 69.3,156.3 70.1,160.5 70.8,165.4 71.5,169.2 72.2,173.0 72.9,174.1 73.7,175.4 74.4,177.2 75.1,179.4 75.9,182.9 76.6,182.6 77.3,184.4 78.1,185.3 78.8,187.9 79.5,183.4 80.3,190.6 81.0,195.3 81.7,195.4 82.5,197.5 83.2,199.1 83.9,201.0 84.7,202.6 85.4,203.9 86.1,205.5 86.9,207.3 87.6,206.5 88.3,208.8 89.1,210.2 89.8,209.9 90.5,211.2 91.3,211.7 92.0,213.6 92.7,213.0 93.5,211.6 94.2,215.0 94.9,216.3 95.7,215.9 96.4,216.4 97.1,218.2 97.9,216.4 98.6,215.7 99.3,216.3 100.1,217.6 100.8,217.9 101.5,220.5 102.3,218.4 103.0,221.0 103.7,216.1 104.5,223.2 105.2,221.9 105.9,224.2 106.7,223.4 107.4,223.2 108.1,225.6 108.9,224.9 109.6,226.2 110.3,225.8 111.1,228.0 111.8,229.5 112.5,228.1 113.3,229.9 114.0,229.6 114.7,229.6 115.5,228.9 116.2,231.5 116.9,228.9 117.7,229.7 118.4,231.5 119.1,231.5 119.9,233.3 120.6,232.0 121.3,234.0 122.1,232.7 122.8,236.1 123.6,235.2 124.3,234.4 125.0,234.6 125.8,233.6 126.5,232.0 127.2,230.8 128.0,235.6 128.7,233.4 129.4,235.9 130.2,236.0 130.9,235.3 131.6,234.7 132.4,232.1 133.1,234.5 133.8,236.5 134.6,236.2 135.3,237.5 136.0,235.4 136.8,239.0 137.5,233.1 138.3,238.7 139.0,238.8 139.7,238.1 140.5,239.0 141.2,240.5 141.9,239.5 142.7,239.8 143.4,241.3 144.2,240.6 144.9,241.0 145.6,236.4 146.4,241.3 147.1,241.1 147.8,242.2 148.6,241.8 149.3,241.0 150.1,244.4 150.8,239.8 151.5,240.6 152.3,242.8 153.0,242.2 153.7,244.3 154.5,242.3 155.2,238.8 155.9,245.0 156.7,243.3 157.4,243.1 158.2,243.9 158.9,244.6 159.6,244.0 160.4,245.5 161.1,244.2 161.8,245.5 162.6,246.0 163.3,241.8 164.1,246.5 164.8,246.6 165.5,245.1 166.3,247.4 167.0,247.2 167.8,246.3 168.5,247.1 169.2,246.4 170.0,244.9 170.7,248.1 171.4,246.2 172.2,248.8 172.9,246.1 173.6,247.4 174.4,245.7 175.1,247.1 175.8,247.5 176.6,245.5 177.3,249.1 178.1,248.2 178.8,248.1 179.5,247.3 180.3,246.2 181.0,247.8 181.7,248.0 182.5,250.2 183.2,247.2 184.0,248.8 184.7,246.6 185.4,243.3 186.2,247.7 186.9,248.8 187.6,249.7 188.4,248.0 189.1,247.2 189.9,246.4 190.6,248.4 191.3,248.0 192.1,249.3 192.8,247.3 193.5,249.0 194.3,249.4 195.0,250.6 195.8,250.2 196.5,248.7 197.2,250.5 198.0,240.0 198.7,248.8 199.4,250.7 200.2,251.8 200.9,246.5 201.7,252.7 202.4,250.3 203.1,252.9 203.9,250.6 204.6,252.3 205.3,250.1 206.1,252.6 206.8,251.4 207.6,251.6 208.3,251.9 209.0,250.9 209.8,252.5 210.5,253.6 211.2,252.8 212.0,251.7 212.7,251.3 213.5,255.2 214.2,254.8 214.9,248.8 215.7,252.1 216.4,254.0 217.2,253.9 217.9,254.9 218.6,258.1 219.4,256.3 220.1,255.7 220.8,255.1 221.6,254.5 222.3,254.8 223.1,255.2 223.8,254.4 224.5,255.3 225.3,257.0 226.0,257.0 226.7,258.2 227.5,257.4 228.2,257.5 229.0,257.2 229.7,259.1 230.4,259.2 231.2,258.0 231.9,260.6 232.7,258.7 233.4,260.1 234.1,259.0 234.9,260.3 235.6,259.9 236.3,261.2 237.1,260.1 237.8,262.0 238.5,262.1 239.3,259.5 240.0,244.4 240.7,260.8 241.5,257.8 242.2,257.5 243.0,260.7 243.7,264.4 244.4,257.7 245.2,257.9 245.9,260.4 246.6,260.1 247.4,259.8 248.1,261.3 248.9,262.3 249.6,260.4 250.3,261.6 251.1,260.3 251.8,259.6 252.5,263.2 253.3,261.6 254.0,260.1 254.8,260.7 255.5,264.0 256.2,263.3 256.9,262.9 257.7,261.4 258.4,264.1 259.2,262.7 259.9,263.8 260.6,261.5 261.4,262.5 262.1,261.4 262.8,259.0 263.6,259.5 264.3,262.0 265.0,264.0 265.8,261.6 266.5,258.9 267.3,262.2 268.0,262.2 268.7,261.9 269.5,261.5 270.2,260.3 270.9,264.5 271.7,264.6 272.4,258.7 273.2,254.7 273.9,255.7 274.6,260.8 275.4,262.0 276.1,263.4 276.8,259.3 277.6,261.9 278.3,263.4 279.0,265.7 279.8,262.5 280.5,260.2 281.3,262.3 282.0,263.6 282.7,262.4 283.5,262.0 284.2,259.0 284.9,263.3 285.7,262.5 286.4,262.8 287.1,263.2 287.9,262.9 288.6,268.3 289.4,263.3 290.1,263.3 290.8,264.3 291.6,265.5 292.3,263.1 293.1,263.1 293.8,262.9 294.5,260.9 295.3,268.0 296.0,266.2 296.8,263.6 297.5,263.3 298.2,266.8 299.0,266.5 299.7,263.4 300.5,264.6 301.2,263.9 301.9,263.0 302.7,266.0 303.4,266.6 304.1,265.9 304.9,266.2 305.6,264.5 306.4,266.9 307.1,266.5 307.8,267.8 308.6,267.3 309.3,266.6 310.0,264.8 310.8,264.8 311.5,265.7 312.2,267.6 313.0,268.6 313.7,268.4 314.5,269.6 315.2,266.7 315.9,266.4 316.7,264.1 317.4,267.2 318.1,268.5 318.9,267.1 319.6,264.7 320.3,267.2 321.1,272.0 321.8,269.2 322.6,267.2 323.3,266.8 324.0,267.8 324.8,268.5 325.5,269.5 326.3,267.1 327.0,268.4 327.7,267.2 328.5,271.3 329.2,266.2 329.9,267.9 330.7,268.3 331.4,268.8 332.1,268.6 332.9,269.2 333.6,272.0 334.4,266.2 335.1,269.5 335.8,265.3 336.6,266.1 337.3,263.6 338.0,267.2 338.8,267.9 339.5,266.1 340.3,267.3 341.0,269.8 341.7,267.3 342.5,265.1 343.2,272.1 343.9,251.6 344.7,262.1 345.4,260.5 346.2,275.1 346.9,264.9 347.6,269.8 348.4,265.1 349.1,266.7 349.9,268.6 350.6,267.2 351.3,265.8 352.1,266.0 352.8,267.9 353.5,267.1 354.3,267.6 355.0,267.2 355.7,267.7 356.5,266.3 357.2,274.1 358.0,268.6 358.7,266.3 359.4,267.1 360.2,267.6 360.9,266.1 361.7,267.6 362.4,268.9 363.1,266.8 363.9,267.7 364.6,268.2 365.3,270.2 366.1,267.5 366.8,270.8 367.5,267.9 368.3,267.0 369.0,265.9 369.7,268.4 370.5,277.4 371.2,269.7 372.0,265.5 372.7,267.6 373.4,265.7 374.2,265.4 374.9,267.5 375.6,266.6 376.4,270.2 377.1,268.7 377.8,269.0 378.6,267.6 379.3,269.5 380.1,273.2 380.8,279.5 381.5,270.0 382.3,269.6 383.0,269.3 383.8,269.6 384.5,272.7 385.2,270.3 386.0,268.3 386.7,272.7 387.4,270.7 388.2,273.3 388.9,268.6 389.7,271.4 390.4,270.0 391.1,270.2 391.9,270.5 392.6,272.7 393.3,268.8 394.1,265.9 394.8,270.9 395.6,273.7 396.3,269.4 397.0,272.0 397.8,272.6 398.5,269.7 399.2,271.8 400.0,273.2 400.7,271.2 401.4,270.1 402.2,273.8 402.9,270.9 403.7,273.0 404.4,274.1 405.1,270.7 405.9,272.4 406.6,271.0 407.3,273.8 408.1,274.0 408.8,270.9 409.5,267.2 410.3,268.8 411.0,269.2 411.8,270.4 412.5,270.7 413.3,270.3 414.0,269.7 414.7,268.3 415.5,268.7 416.2,269.6 416.9,271.5 417.7,269.3 418.4,266.8 419.2,270.3 419.9,269.8 420.6,269.3 421.3,268.6 422.1,269.2 422.8,272.8 423.6,265.8 424.3,272.7 425.0,267.7 425.8,273.7 426.5,271.9 427.3,270.9 428.0,269.3 428.7,270.0 429.5,275.4 430.2,271.9 431.0,270.4 431.7,271.7 432.4,270.3 433.2,270.1 433.9,266.5 434.6,272.1 435.4,268.7 436.1,268.8 436.8,269.5 437.6,271.6 438.3,269.8 439.1,272.0 439.8,272.8 440.5,271.9 441.3,267.8 442.0,270.8 442.7,269.0 443.5,271.6 444.2,266.6 444.9,268.9 445.7,269.4 446.4,271.2 447.1,272.4 447.9,272.6 448.6,266.4 449.4,268.4 450.1,270.6 450.8,268.3 451.6,269.7 452.3,270.5 453.0,271.3 453.8,271.2 454.5,272.2 455.3,271.2 456.0,269.9 456.7,270.5 457.5,269.8 458.2,272.7 458.9,273.1 459.7,275.3 460.4,271.2 461.2,272.5 461.9,272.8 462.6,276.0 463.4,274.0 464.1,273.0 464.8,276.6 465.6,273.5 466.3,272.7 467.0,275.0 467.8,274.3 468.5,273.8 469.3,272.5 470.0,276.1 470.7,275.6 471.5,270.5 472.2,278.0 472.9,276.1 473.7,275.1 474.4,274.1 475.2,275.2 475.9,276.6 476.6,273.6 477.4,275.0 478.1,273.3 478.8,273.1 479.6,272.6 480.3,269.2 481.0,267.8 481.8,272.3 482.5,270.9 483.3,273.4 484.0,271.0 484.7,270.3 485.5,271.5 486.2,271.4 486.9,271.9 487.7,279.3 488.4,274.7 489.1,272.6 489.9,274.4 490.6,273.8 491.4,278.7 492.1,258.4 492.8,271.8 493.6,272.6 494.3,276.6 495.0,272.8 495.8,274.0 496.5,274.3 497.2,273.5 498.0,276.4 498.7,274.5 499.4,272.5 500.2,272.2 500.9,271.4 501.7,271.3 502.4,271.4 503.1,271.4 503.9,271.8 504.6,271.3 505.3,272.1 506.1,272.6 506.8,274.3 507.5,274.1 508.3,273.8 509.0,273.3 509.7,269.4 510.5,270.8 511.2,272.6 512.0,272.9 512.7,275.9 513.4,273.4 514.2,270.3 514.9,272.4 515.6,272.6 516.4,270.9 517.1,272.9 517.9,275.7 518.6,274.1 519.3,272.7 520.1,276.0 520.8,276.4 521.5,272.8 522.3,267.7 523.0,276.9 523.8,275.3 524.5,274.4 525.2,276.0 526.0,278.2 526.7,275.6 527.4,274.6 528.2,277.0 528.9,273.0 529.6,277.3 530.4,281.3 531.1,274.9 531.9,274.8 532.6,277.9 533.3,274.4 534.1,276.6 534.8,275.9 535.5,276.2 536.3,276.5 537.0,274.5 537.8,272.7 538.5,277.3 539.2,275.1 540.0,277.9 540.7,279.8 541.4,275.7 542.2,276.6 542.9,276.6 543.6,275.5 544.4,277.6 545.1,278.1 545.9,274.1 546.6,275.6 547.3,276.7 548.1,270.1 548.8,274.0 549.5,275.2 550.3,272.7 551.0,275.4 551.7,275.6 552.5,275.6 553.2,274.8 554.0,276.2 554.7,271.5 555.4,272.5 556.2,265.9 556.9,274.9 557.6,273.8 558.4,275.8 559.1,276.9 559.9,279.1 560.6,273.6 561.3,276.7 562.1,273.2 562.8,272.3 563.5,271.3 564.3,272.7 565.0,275.1 565.7,275.9 566.5,280.3 567.2,276.8 568.0,274.6 568.7,275.5 569.4,260.9 570.2,276.9 570.9,276.4 571.6,274.0 572.4,274.9 573.1,275.8 573.9,275.8 574.6,276.3 575.3,275.4 576.1,278.3 576.8,271.3 577.5,275.9 578.3,276.4 579.0,279.1 579.8,283.6 580.5,279.9 581.2,277.5 582.0,277.8 582.7,275.4 583.4,276.0 584.2,276.5 584.9,277.2 585.7,276.3 586.4,275.6 587.1,274.3 587.9,279.9 588.6,277.1 589.3,273.7 590.1,270.0 590.8,274.0 591.5,276.9 592.3,278.1 593.0,279.0 593.7,276.1 594.5,273.8 595.2,281.4 596.0,270.3 596.7,278.2 597.4,275.5 598.2,279.5 598.9,276.5 599.7,276.2 600.4,276.6 601.1,275.1 601.9,273.2 602.6,275.3 603.3,277.2 604.1,286.5 604.8,278.8 605.6,274.6 606.3,276.1 607.0,274.3 607.8,272.3 608.5,275.9 609.2,277.5 610.0,275.1 610.7,278.5 611.5,278.1 612.2,276.3 612.9,277.7 613.7,278.4 614.4,278.1 615.1,273.8 615.9,275.3 616.6,276.8 617.4,279.0 618.1,275.3 618.8,287.6 619.6,274.6 620.3,277.9 621.0,274.8 621.8,271.4 622.5,281.9 623.3,274.8 624.0,276.4 624.7,273.2 625.5,276.1 626.2,277.5 627.0,275.6 627.7,274.0 628.5,274.0 629.2,273.0 629.9,275.5 630.7,276.9 631.4,276.2 632.1,278.3 632.9,281.9 633.6,279.1 634.3,278.7 635.1,276.7 635.8,278.3 636.5,278.5 637.3,277.2 638.0,277.3 638.8,275.2 639.5,276.3 640.2,276.4 641.0,277.7 641.7,278.0 642.4,276.2 643.2,279.2 643.9,278.6 644.6,281.1 645.4,280.1 646.1,279.2 646.9,274.3 647.6,280.3 648.3,281.9 649.1,292.1 649.8,280.0 650.5,278.3 651.3,277.4 652.0,278.2 652.8,281.5 653.5,279.4 654.2,279.0 655.0,277.7 655.7,282.5 656.4,278.6 657.2,281.7 657.9,278.3 658.7,278.7 659.4,277.4 660.1,278.6 660.9,278.8 661.6,278.2 662.3,281.6 663.1,276.4 663.8,278.2 664.5,277.5 665.3,282.3 666.0,279.1 666.7,280.0 667.5,282.8 668.2,279.9 668.9,280.2 669.7,277.4 670.4,281.5 671.2,280.2 671.9,280.6 672.6,278.8 673.4,277.9 674.1,276.0 674.8,282.3" fill="none" stroke="#64748b" stroke-width="1.5" stroke-dasharray="5,3"/>
<polyline points="65.0,119.8 66.2,55.7 67.4,92.2 68.6,146.7 69.8,161.9 71.0,152.1 72.2,153.6 73.5,158.5 74.7,163.3 75.9,167.6 77.1,172.0 78.3,173.5 79.5,175.1 80.7,176.8 81.9,179.3 83.1,182.5 84.3,183.0 85.5,185.0 86.7,186.5 87.9,189.7 89.1,185.3 90.3,192.5 91.6,197.0 92.8,197.5 94.0,199.8 95.2,200.4 96.4,202.3 97.6,203.6 98.8,204.8 100.0,206.4 101.2,207.9 102.4,207.2 103.7,209.3 104.9,210.3 106.1,210.2 107.3,211.2 108.5,211.7 109.7,213.5 110.9,212.6 112.1,212.0 113.3,215.1 114.6,216.1 115.8,216.2 117.0,216.4 118.2,218.4 119.4,216.7 120.6,215.7 121.9,216.6 123.1,217.9 124.3,218.0 125.5,221.8 126.7,219.2 127.9,221.8 129.1,217.1 130.3,224.2 131.5,222.6 132.7,225.6 134.0,224.5 135.2,224.7 136.4,226.4 137.6,225.8 138.8,226.8 140.0,226.8 141.2,228.9 142.5,230.9 143.7,229.6 144.9,231.0 146.1,230.5 147.3,230.4 148.5,230.0 149.7,232.7 151.0,229.5 152.2,230.6 153.4,232.3 154.6,232.5 155.8,234.2 157.0,232.5 158.2,234.7 159.4,233.2 160.6,236.5 161.8,235.4 163.0,235.0 164.3,235.4 165.5,234.0 166.7,232.4 167.9,231.8 169.1,236.3 170.3,233.9 171.5,235.8 172.8,236.5 174.0,236.1 175.2,235.5 176.4,232.8 177.6,235.2 178.8,237.0 180.0,236.2 181.2,237.9 182.4,235.9 183.6,239.1 184.9,233.9 186.1,239.0 187.3,239.0 188.5,238.6 189.7,239.7 190.9,241.3 192.1,239.9 193.3,240.4 194.6,241.9 195.8,241.2 197.0,241.4 198.2,237.5 199.4,241.9 200.6,241.6 201.8,242.8 203.0,242.6 204.2,241.3 205.4,244.6 206.6,240.1 207.9,241.0 209.1,243.6 210.3,242.9 211.5,245.0 212.7,242.7 213.9,239.2 215.1,245.5 216.3,243.9 217.5,243.6 218.7,244.7 219.9,245.6 221.1,244.9 222.3,246.3 223.6,245.0 224.8,246.6 226.0,246.5 227.2,242.6 228.4,246.9 229.6,247.2 230.8,245.7 232.0,248.2 233.2,247.7 234.4,247.0 235.6,247.9 236.8,247.2 238.1,245.7 239.3,249.1 240.5,247.1 241.7,249.6 242.9,246.9 244.1,248.0 245.3,247.1 246.5,248.0 247.7,247.7 248.9,245.8 250.1,250.0 251.4,249.2 252.6,249.2 253.8,248.2 255.0,247.0 256.2,248.2 257.4,249.0 258.7,251.4 259.9,247.9 261.1,249.7 262.3,247.7 263.5,245.3 264.7,249.3 265.9,249.9 267.1,250.6 268.3,249.1 269.6,248.0 270.8,247.4 272.0,250.0 273.2,249.2 274.4,250.6 275.6,248.5 276.8,250.2 278.0,250.3 279.2,251.7 280.5,251.4 281.7,250.3 282.9,252.1 284.1,240.9 285.3,250.1 286.5,252.0 287.8,253.0 289.0,247.4 290.2,254.6 291.4,251.8 292.6,255.0 293.8,252.1 295.0,253.7 296.2,251.6 297.4,253.7 298.7,252.6 299.9,253.2 301.1,253.2 302.3,251.9 303.5,253.7 304.7,254.9 305.9,254.5 307.2,253.2 308.4,252.6 309.6,256.7 310.8,256.2 312.0,249.6 313.2,253.1 314.5,255.0 315.7,254.6 316.9,255.7 318.1,259.1 319.3,257.4 320.5,257.1 321.7,256.5 322.9,255.5 324.1,255.8 325.3,256.2 326.6,255.1 327.8,256.4 329.0,258.1 330.2,258.0 331.4,258.9 332.6,258.3 333.8,258.6 335.1,258.2 336.3,260.3 337.5,260.4 338.7,259.1 339.9,261.6 341.1,259.6 342.3,260.8 343.5,259.7 344.7,261.1 346.0,260.8 347.2,262.1 348.4,260.7 349.6,262.4 350.8,263.0 352.0,260.0 353.2,246.2 354.4,261.4 355.6,257.9 356.8,257.9 358.0,261.1 359.3,265.1 360.5,257.7 361.7,258.4 362.9,261.1 364.1,260.6 365.3,260.1 366.5,261.4 367.7,262.2 368.9,261.0 370.1,261.7 371.3,260.6 372.6,259.7 373.8,263.4 375.0,261.8 376.2,260.1 377.4,260.9 378.6,264.2 379.9,262.9 381.1,262.9 382.3,261.6 383.5,264.5 384.7,262.6 385.9,263.9 387.1,261.6 388.3,262.5 389.5,261.6 390.7,259.2 392.0,259.6 393.2,262.2 394.4,264.0 395.6,261.2 396.8,258.9 398.0,261.4 399.2,261.2 400.4,262.0 401.6,261.8 402.8,261.0 404.0,264.8 405.2,264.6 406.5,258.7 407.7,254.5 408.9,255.7 410.1,260.7 411.3,261.7 412.5,263.0 413.7,259.4 414.9,261.5 416.1,263.0 417.3,265.9 418.5,262.5 419.7,260.2 420.9,262.0 422.2,263.5 423.4,262.4 424.6,261.6 425.8,258.7 427.0,263.6 428.2,262.6 429.4,262.6 430.6,263.0 431.8,262.7 433.0,268.4 434.2,263.1 435.4,263.4 436.7,264.2 437.9,265.3 439.1,262.6 440.3,262.5 441.5,262.6 442.7,260.9 443.9,267.6 445.1,265.8 446.3,263.0 447.5,262.7 448.7,266.7 449.9,267.2 451.1,263.5 452.4,264.3 453.6,264.2 454.8,263.0 456.0,265.7 457.2,266.5 458.4,265.8 459.6,266.1 460.8,264.4 462.0,267.1 463.2,266.5 464.5,267.6 465.7,267.3 466.9,266.4 468.1,264.8 469.3,264.8 470.5,265.9 471.8,266.8 473.0,268.6 474.2,268.4 475.4,269.4 476.6,266.4 477.8,266.5 479.0,264.3 480.2,266.8 481.4,268.2 482.6,266.9 483.9,264.8 485.1,267.0 486.3,271.9 487.5,269.2 488.7,267.3 489.9,266.9 491.1,267.8 492.3,268.4 493.5,269.5 494.7,266.9 495.9,268.0 497.1,267.1 498.4,271.2 499.6,266.1 500.8,268.0 502.0,268.4 503.2,269.2 504.4,268.8 505.6,269.1 506.8,272.1 508.0,266.4 509.2,269.7 510.4,265.9 511.6,266.3 512.9,263.5 514.1,267.5 515.3,268.1 516.5,266.1 517.7,267.0 518.9,269.7 520.1,267.3 521.3,265.3 522.5,271.9 523.7,252.4 524.9,262.5 526.2,260.9 527.4,275.5 528.6,265.0 529.8,270.0 531.0,265.3 532.2,266.9 533.4,268.6 534.6,267.5 535.8,266.1 537.1,266.3 538.3,268.1 539.5,267.3 540.7,267.9 541.9,267.4 543.1,268.2 544.3,266.7 545.5,274.3 546.7,269.0 547.9,266.7 549.2,267.5 550.4,268.0 551.6,266.5 552.8,268.3 554.0,269.3 555.2,267.3 556.4,267.6 557.6,268.6 558.9,270.6 560.1,267.9 561.3,271.0 562.5,268.1 563.7,267.2 564.9,266.1 566.1,268.7 567.3,278.5 568.5,270.0 569.7,266.0 570.9,268.2 572.1,266.0 573.3,266.1 574.6,268.1 575.8,266.9 577.0,270.5 578.2,269.1 579.4,269.2 580.6,268.0 581.8,270.1 583.0,273.2 584.2,279.7 585.4,270.6 586.6,270.2 587.8,269.6 589.0,269.9 590.3,273.2 591.5,270.7 592.7,268.8 593.9,273.3 595.1,271.3 596.3,273.9 597.5,268.8 598.7,271.6 599.9,270.7 601.1,270.9 602.3,271.1 603.6,273.0 604.8,269.3 606.0,266.4 607.2,271.1 608.4,273.9 609.6,269.8 610.8,272.8 612.1,273.0 613.3,270.4 614.5,272.5 615.7,273.7 616.9,271.6 618.1,270.6 619.3,274.4 620.5,271.6 621.8,273.5 623.0,274.5 624.2,271.3 625.4,272.9 626.6,271.4 627.8,274.4 629.0,274.8 630.2,271.2 631.4,268.1 632.6,269.4 633.8,269.7 635.1,271.1 636.3,271.3 637.5,271.1 638.7,270.4 639.9,268.8 641.1,269.1 642.3,270.2 643.6,272.2 644.8,270.0 646.0,267.7 647.2,270.8 648.4,270.5 649.6,270.1 650.8,269.2 652.0,269.8 653.2,273.6 654.4,266.3 655.7,273.1 656.9,268.2 658.1,274.6 659.3,273.1 660.5,271.5 661.7,269.5 662.9,270.8 664.2,276.2 665.4,272.7 666.6,271.1 667.8,272.3 669.0,270.7 670.2,270.7 671.4,267.1 672.6,273.0 673.8,269.2 675.0,269.4" fill="none" stroke="#16a34a" stroke-width="1.5"/>
<polyline points="65.0,317.1 66.2,181.0 67.4,42.8 68.6,283.5 69.8,327.2 71.0,267.1 72.2,252.5 73.5,263.9 74.7,271.4 75.9,271.1 77.1,282.7 78.3,280.9 79.5,292.4 80.7,271.5 81.9,272.7 83.1,274.1 84.3,268.3 85.5,268.4 86.7,265.8 87.9,273.3 89.1,255.2 90.3,273.1 91.6,280.9 92.8,281.2 94.0,284.8 95.2,281.3 96.4,285.5 97.6,287.1 98.8,292.6 100.0,292.8 101.2,292.4 102.4,291.5 103.7,301.7 104.9,291.6 106.1,288.1 107.3,292.0 108.5,288.9 109.7,291.3 110.9,286.6 112.1,282.5 113.3,287.5 114.6,290.3 115.8,289.5 117.0,292.1 118.2,292.3 119.4,286.4 120.6,284.5 121.9,284.5 123.1,282.4 124.3,285.1 125.5,293.8 126.7,292.7 127.9,291.9 129.1,282.4 130.3,295.3 131.5,293.9 132.7,302.8 134.0,294.7 135.2,293.7 136.4,297.5 137.6,302.5 138.8,295.2 140.0,295.6 141.2,296.2 142.5,301.4 143.7,296.4 144.9,299.4 146.1,301.4 147.3,297.5 148.5,295.9 149.7,299.2 151.0,298.3 152.2,295.9 153.4,297.9 154.6,300.8 155.8,300.5 157.0,298.3 158.2,301.0 159.4,298.1 160.6,302.6 161.8,299.8 163.0,302.7 164.3,298.1 165.5,297.9 166.7,291.2 167.9,291.4 169.1,299.9 170.3,295.4 171.5,298.6 172.8,299.9 174.0,299.1 175.2,297.3 176.4,294.1 177.6,294.1 178.8,298.4 180.0,299.5 181.2,300.5 182.4,293.3 183.6,302.3 184.9,296.5 186.1,303.9 187.3,300.1 188.5,301.8 189.7,305.8 190.9,306.0 192.1,301.9 193.3,303.6 194.6,304.2 195.8,302.5 197.0,303.4 198.2,309.1 199.4,303.0 200.6,305.3 201.8,302.0 203.0,301.3 204.2,300.9 205.4,308.1 206.6,298.1 207.9,299.8 209.1,305.4 210.3,300.6 211.5,305.4 212.7,303.2 213.9,291.5 215.1,311.0 216.3,301.6 217.5,300.0 218.7,296.4 219.9,301.1 221.1,301.3 222.3,304.0 223.6,301.9 224.8,302.7 226.0,300.8 227.2,293.1 228.4,300.8 229.6,299.0 230.8,297.1 232.0,298.5 233.2,298.6 234.4,297.8 235.6,298.6 236.8,296.8 238.1,292.1 239.3,301.4 240.5,305.4 241.7,304.8 242.9,296.3 244.1,297.7 245.3,299.6 246.5,298.5 247.7,297.5 248.9,292.1 250.1,300.1 251.4,300.6 252.6,296.0 253.8,298.4 255.0,294.2 256.2,294.4 257.4,297.6 258.7,298.9 259.9,293.0 261.1,298.4 262.3,297.0 263.5,295.1 264.7,296.4 265.9,300.2 267.1,300.9 268.3,297.6 269.6,296.8 270.8,292.5 272.0,298.8 273.2,308.8 274.4,304.4 275.6,296.0 276.8,303.3 278.0,298.3 279.2,297.6 280.5,303.7 281.7,298.1 282.9,301.9 284.1,287.8 285.3,298.0 286.5,301.0 287.8,302.5 289.0,289.1 290.2,304.4 291.4,297.4 292.6,305.4 293.8,301.0 295.0,300.1 296.2,296.7 297.4,303.1 298.7,296.6 299.9,301.8 301.1,301.3 302.3,298.3 303.5,298.5 304.7,300.9 305.9,301.0 307.2,297.4 308.4,295.4 309.6,304.1 310.8,304.7 312.0,291.3 313.2,294.8 314.5,296.2 315.7,299.9 316.9,303.8 318.1,304.0 319.3,305.4 320.5,301.3 321.7,298.6 322.9,300.6 324.1,299.8 325.3,298.5 326.6,299.2 327.8,301.4 329.0,303.5 330.2,302.9 331.4,303.3 332.6,302.2 333.8,300.8 335.1,301.6 336.3,309.6 337.5,312.0 338.7,305.0 339.9,310.2 341.1,303.4 342.3,310.6 343.5,312.1 344.7,316.4 346.0,302.8 347.2,310.9 348.4,311.0 349.6,309.6 350.8,312.1 352.0,308.9 353.2,285.1 354.4,308.9 355.6,303.4 356.8,300.2 358.0,307.2 359.3,315.1 360.5,304.1 361.7,304.0 362.9,308.3 364.1,307.1 365.3,303.2 366.5,306.1 367.7,309.7 368.9,310.3 370.1,301.5 371.3,305.6 372.6,306.7 373.8,314.4 375.0,309.6 376.2,304.2 377.4,306.2 378.6,312.5 379.9,304.7 381.1,299.6 382.3,306.2 383.5,310.6 384.7,304.3 385.9,311.0 387.1,303.3 388.3,303.3 389.5,304.6 390.7,301.8 392.0,301.6 393.2,306.9 394.4,312.0 395.6,300.3 396.8,300.0 398.0,303.1 399.2,302.7 400.4,303.6 401.6,304.7 402.8,303.0 404.0,305.5 405.2,308.7 406.5,299.6 407.7,289.7 408.9,296.0 410.1,306.7 411.3,306.3 412.5,306.7 413.7,302.5 414.9,307.7 416.1,308.4 417.3,311.4 418.5,310.6 419.7,303.7 420.9,307.6 422.2,309.0 423.4,310.3 424.6,304.7 425.8,296.4 427.0,306.8 428.2,307.8 429.4,300.7 430.6,306.2 431.8,305.2 433.0,315.1 434.2,309.5 435.4,310.1 436.7,310.4 437.9,309.9 439.1,304.3 440.3,304.0 441.5,308.8 442.7,305.9 443.9,316.3 445.1,313.0 446.3,306.4 447.5,303.9 448.7,317.5 449.9,313.5 451.1,310.0 452.4,308.7 453.6,307.7 454.8,305.1 456.0,311.8 457.2,312.6 458.4,307.9 459.6,305.3 460.8,307.2 462.0,308.9 463.2,306.9 464.5,307.8 465.7,309.3 466.9,306.5 468.1,304.8 469.3,306.3 470.5,304.2 471.8,308.4 473.0,307.5 474.2,309.4 475.4,309.3 476.6,307.5 477.8,307.4 479.0,305.5 480.2,313.6 481.4,315.1 482.6,311.4 483.9,308.3 485.1,312.3 486.3,318.2 487.5,306.7 488.7,308.5 489.9,307.4 491.1,305.2 492.3,326.4 493.5,313.5 494.7,307.3 495.9,309.3 497.1,308.6 498.4,311.9 499.6,308.8 500.8,312.7 502.0,313.5 503.2,314.6 504.4,314.0 505.6,313.3 506.8,314.6 508.0,307.4 509.2,314.3 510.4,310.9 511.6,308.7 512.9,301.3 514.1,313.2 515.3,311.5 516.5,310.6 517.7,306.6 518.9,312.5 520.1,305.9 521.3,305.8 522.5,319.1 523.7,284.5 524.9,299.7 526.2,294.6 527.4,318.6 528.6,304.4 529.8,306.7 531.0,303.4 532.2,304.8 533.4,309.4 534.6,306.1 535.8,303.7 537.1,306.5 538.3,307.2 539.5,305.8 540.7,301.8 541.9,305.7 543.1,306.7 544.3,303.1 545.5,315.6 546.7,308.4 547.9,311.5 549.2,307.9 550.4,310.7 551.6,305.2 552.8,308.1 554.0,308.6 555.2,310.8 556.4,316.0 557.6,310.4 558.9,309.8 560.1,304.7 561.3,310.4 562.5,311.3 563.7,311.5 564.9,305.9 566.1,305.3 567.3,320.1 568.5,310.6 569.7,316.8 570.9,306.6 572.1,305.9 573.3,304.3 574.6,306.7 575.8,303.8 577.0,315.1 578.2,307.8 579.4,301.7 580.6,302.3 581.8,307.4 583.0,314.4 584.2,321.6 585.4,309.6 586.6,310.9 587.8,304.3 589.0,310.8 590.3,320.3 591.5,309.5 592.7,304.5 593.9,314.4 595.1,306.1 596.3,317.5 597.5,308.0 598.7,310.1 599.9,310.2 601.1,312.0 602.3,313.0 603.6,308.7 604.8,304.6 606.0,305.2 607.2,314.0 608.4,315.4 609.6,309.0 610.8,310.2 612.1,312.8 613.3,307.5 614.5,310.7 615.7,316.1 616.9,309.7 618.1,311.1 619.3,311.2 620.5,310.5 621.8,320.1 623.0,313.3 624.2,311.7 625.4,313.9 626.6,310.7 627.8,318.1 629.0,319.6 630.2,311.1 631.4,306.6 632.6,302.8 633.8,305.3 635.1,310.1 636.3,308.2 637.5,309.5 638.7,311.0 639.9,307.5 641.1,306.1 642.3,309.3 643.6,308.8 644.8,303.4 646.0,302.1 647.2,309.3 648.4,301.3 649.6,300.9 650.8,305.8 652.0,306.4 653.2,309.2 654.4,301.1 655.7,305.9 656.9,301.4 658.1,312.6 659.3,311.8 660.5,308.1 661.7,305.2 662.9,309.0 664.2,315.4 665.4,305.8 666.6,306.3 667.8,305.5 669.0,305.2 670.2,305.2 671.4,300.0 672.6,309.9 673.8,307.5" fill="none" stroke="#2563eb" stroke-width="2.5"/>
<rect x="65" y="20" width="610" height="330" fill="none" stroke="#888" stroke-width="1.5"/>
<line x1="62" y1="308.5" x2="65" y2="308.5" stroke="#64748b" stroke-width="1" opacity="0.6"/>
<line x1="62" y1="260.0" x2="65" y2="260.0" stroke="#64748b" stroke-width="1" opacity="0.6"/>
<line x1="62" y1="199.0" x2="65" y2="199.0" stroke="#64748b" stroke-width="1" opacity="0.6"/>
<line x1="60" y1="116.3" x2="65" y2="116.3" stroke="#64748b" stroke-width="1.5"/>
<text x="57" y="116.3" text-anchor="end" dominant-baseline="middle" font-size="11" font-family="monospace,sans-serif" fill="#64748b">10</text>
<line x1="62" y1="33.5" x2="65" y2="33.5" stroke="#64748b" stroke-width="1" opacity="0.6"/>
<line x1="675" y1="317.6" x2="680" y2="317.6" stroke="#2563eb" stroke-width="1.5"/>
<text x="683" y="317.6" text-anchor="start" dominant-baseline="middle" font-size="11" font-family="monospace,sans-serif" fill="#2563eb">0.0</text>
<line x1="675" y1="199.0" x2="680" y2="199.0" stroke="#2563eb" stroke-width="1.5"/>
<text x="683" y="199.0" text-anchor="start" dominant-baseline="middle" font-size="11" font-family="monospace,sans-serif" fill="#2563eb">2.0</text>
<line x1="675" y1="80.5" x2="680" y2="80.5" stroke="#2563eb" stroke-width="1.5"/>
<text x="683" y="80.5" text-anchor="start" dominant-baseline="middle" font-size="11" font-family="monospace,sans-serif" fill="#2563eb">4.0</text>
<line x1="65.0" y1="350" x2="65.0" y2="355" stroke="#888" stroke-width="1.5"/>
<text x="65.0" y="368" text-anchor="middle" font-size="11" font-family="monospace,sans-serif">0</text>
<line x1="187.1" y1="350" x2="187.1" y2="355" stroke="#888" stroke-width="1.5"/>
<text x="187.1" y="368" text-anchor="middle" font-size="11" font-family="monospace,sans-serif">2</text>
<line x1="309.2" y1="350" x2="309.2" y2="355" stroke="#888" stroke-width="1.5"/>
<text x="309.2" y="368" text-anchor="middle" font-size="11" font-family="monospace,sans-serif">4</text>
<line x1="431.3" y1="350" x2="431.3" y2="355" stroke="#888" stroke-width="1.5"/>
<text x="431.3" y="368" text-anchor="middle" font-size="11" font-family="monospace,sans-serif">6</text>
<line x1="553.4" y1="350" x2="553.4" y2="355" stroke="#888" stroke-width="1.5"/>
<text x="553.4" y="368" text-anchor="middle" font-size="11" font-family="monospace,sans-serif">8</text>
<line x1="675.6" y1="350" x2="675.6" y2="355" stroke="#888" stroke-width="1.5"/>
<text x="675.6" y="368" text-anchor="middle" font-size="11" font-family="monospace,sans-serif">10</text>
<text x="370" y="392" text-anchor="middle" font-size="13" font-family="sans-serif">Runtime (minutes)</text>
<text transform="rotate(-90,28,185)" x="28" y="185" text-anchor="middle" font-size="13" font-family="sans-serif" fill="#64748b">Train loss (log scale)</text>
<text transform="rotate(90,746,185)" x="746" y="185" text-anchor="middle" font-size="13" font-family="sans-serif" fill="#2563eb">Train loss diff (exp − base)</text>
<rect x="72" y="26" width="140" height="62" fill="white" fill-opacity="0.85" stroke="#ddd" stroke-width="1" rx="3"/>
<line x1="77" y1="37" x2="99" y2="37" stroke="#64748b" stroke-width="1.5" stroke-dasharray="5,3"/>
<text x="104" y="41" font-size="11" font-family="sans-serif" fill="#64748b">Baseline train loss</text>
<line x1="77" y1="55" x2="99" y2="55" stroke="#16a34a" stroke-width="1.5"/>
<text x="104" y="59" font-size="11" font-family="sans-serif" fill="#16a34a">Experiment train loss</text>
<line x1="77" y1="73" x2="99" y2="73" stroke="#2563eb" stroke-width="2.5"/>
<text x="104" y="77" font-size="11" font-family="sans-serif" fill="#2563eb">Train loss diff</text>
</svg>