<svg xmlns="http://www.w3.org/2000/svg" viewBox="0 0 760 400" width="760" height="400" style="background:white">
<rect x="65" y="20" width="610" height="330" fill="#f9f9f9"/>
<line x1="65" y1="315.6" x2="675" y2="315.6" stroke="#ececec" stroke-width="1"/>
<line x1="65" y1="275.6" x2="675" y2="275.6" stroke="#ececec" stroke-width="1"/>
<line x1="65" y1="225.1" x2="675" y2="225.1" stroke="#ececec" stroke-width="1"/>
<line x1="65" y1="156.6" x2="675" y2="156.6" stroke="#ddd" stroke-width="1"/>
<line x1="65" y1="88.0" x2="675" y2="88.0" stroke="#ececec" stroke-width="1"/>
<line x1="65" y1="48.0" x2="675" y2="48.0" stroke="#ececec" stroke-width="1"/>
<line x1="65.0" y1="20" x2="65.0" y2="350" stroke="#ececec" stroke-width="1"/>
<line x1="187.1" y1="20" x2="187.1" y2="350" stroke="#ececec" stroke-width="1"/>
<line x1="309.1" y1="20" x2="309.1" y2="350" stroke="#ececec" stroke-width="1"/>
<line x1="431.2" y1="20" x2="431.2" y2="350" stroke="#ececec" stroke-width="1"/>
<line x1="553.3" y1="20" x2="553.3" y2="350" stroke="#ececec" stroke-width="1"/>
<line x1="675.4" y1="20" x2="675.4" y2="350" stroke="#ececec" stroke-width="1"/>
<line x1="65" y1="309.8" x2="675" y2="309.8" stroke="#2563eb" stroke-width="0.75" stroke-dasharray="3,3" opacity="0.4"/>
<polyline points="65.0,159.5 65.7,104.0 66.4,131.0 67.2,178.8 67.9,194.2 68.6,189.4 69.3,189.7 70.1,193.2 70.8,197.2 71.5,200.3 72.2,203.5 72.9,204.4 73.7,205.5 74.4,207.0 75.1,208.8 75.9,211.7 76.6,211.5 77.3,213.0 78.1,213.7 78.8,215.9 79.5,212.1 80.3,218.1 81.0,222.0 81.7,222.0 82.5,223.8 83.2,225.1 83.9,226.7 84.7,228.0 85.4,229.1 86.1,230.4 86.8,231.9 87.6,231.2 88.3,233.2 89.1,234.3 89.8,234.1 90.5,235.1 91.3,235.5 92.0,237.1 92.7,236.7 93.5,235.4 94.2,238.3 94.9,239.4 95.7,239.0 96.4,239.4 97.1,240.9 97.9,239.5 98.6,238.8 99.3,239.3 100.1,240.4 100.8,240.7 101.5,242.8 102.3,241.1 103.0,243.2 103.7,239.2 104.5,245.1 105.2,244.0 105.9,245.9 106.7,245.2 107.4,245.0 108.1,247.1 108.8,246.5 109.6,247.5 110.3,247.2 111.1,249.0 111.8,250.3 112.5,249.1 113.2,250.6 114.0,250.4 114.7,250.3 115.4,249.8 116.2,252.0 116.9,249.8 117.6,250.4 118.4,252.0 119.1,252.0 119.9,253.4 120.6,252.3 121.3,254.0 122.1,252.9 122.8,255.8 123.5,255.0 124.3,254.3 125.0,254.5 125.7,253.6 126.5,252.4 127.2,251.4 128.0,255.3 128.7,253.5 129.4,255.6 130.1,255.6 130.9,255.1 131.6,254.5 132.3,252.4 133.1,254.4 133.8,256.1 134.5,255.8 135.3,256.9 136.0,255.1 136.8,258.1 137.5,253.2 138.2,257.9 139.0,258.0 139.7,257.4 140.4,258.2 141.2,259.4 141.9,258.6 142.7,258.8 143.4,260.1 144.1,259.5 144.9,259.8 145.6,256.0 146.3,260.0 147.1,259.9 147.8,260.8 148.6,260.5 149.3,259.8 150.0,262.6 150.8,258.8 151.5,259.5 152.2,261.3 153.0,260.7 153.7,262.5 154.5,260.9 155.2,257.9 155.9,263.1 156.7,261.7 157.4,261.5 158.1,262.2 158.9,262.7 159.6,262.2 160.4,263.5 161.1,262.4 161.8,263.5 162.6,263.9 163.3,260.5 164.0,264.3 164.8,264.4 165.5,263.2 166.2,265.1 167.0,264.9 167.7,264.2 168.5,264.9 169.2,264.3 169.9,263.0 170.7,265.7 171.4,264.1 172.1,266.2 172.9,264.0 173.6,265.1 174.3,263.7 175.1,264.9 175.8,265.1 176.5,263.5 177.3,266.5 178.0,265.7 178.8,265.7 179.5,265.0 180.2,264.1 181.0,265.4 181.7,265.5 182.4,267.4 183.2,264.9 183.9,266.2 184.7,264.4 185.4,261.7 186.1,265.3 186.9,266.2 187.6,267.0 188.3,265.5 189.1,264.9 189.8,264.2 190.5,265.9 191.3,265.6 192.0,266.6 192.8,265.0 193.5,266.4 194.2,266.8 195.0,267.7 195.7,267.4 196.5,266.2 197.2,267.7 197.9,259.0 198.7,266.3 199.4,267.9 200.1,268.8 200.9,264.4 201.6,269.5 202.4,267.5 203.1,269.6 203.8,267.7 204.6,269.1 205.3,267.3 206.0,269.4 206.8,268.4 207.5,268.5 208.2,268.8 209.0,268.0 209.7,269.3 210.5,270.2 211.2,269.5 211.9,268.7 212.7,268.3 213.4,271.5 214.2,271.2 214.9,266.2 215.6,269.0 216.4,270.5 217.1,270.4 217.9,271.3 218.6,273.9 219.3,272.4 220.1,271.9 220.8,271.5 221.5,271.0 222.3,271.2 223.0,271.6 223.8,270.9 224.5,271.6 225.2,273.0 226.0,273.0 226.7,274.0 227.4,273.3 228.2,273.5 228.9,273.2 229.6,274.8 230.4,274.8 231.1,273.9 231.9,276.0 232.6,274.5 233.3,275.6 234.1,274.7 234.8,275.8 235.5,275.4 236.3,276.5 237.0,275.6 237.8,277.1 238.5,277.2 239.2,275.1 240.0,262.6 240.7,276.2 241.4,273.7 242.2,273.5 242.9,276.1 243.6,279.1 244.4,273.6 245.1,273.8 245.9,275.8 246.6,275.6 247.3,275.3 248.1,276.6 248.8,277.4 249.5,275.9 250.3,276.9 251.0,275.8 251.8,275.2 252.5,278.2 253.2,276.8 254.0,275.6 254.7,276.1 255.4,278.9 256.2,278.2 256.9,277.9 257.6,276.7 258.4,278.9 259.1,277.7 259.8,278.7 260.6,276.8 261.3,277.5 262.0,276.7 262.8,274.7 263.5,275.1 264.3,277.2 265.0,278.8 265.7,276.8 266.5,274.6 267.2,277.3 267.9,277.3 268.7,277.1 269.4,276.7 270.2,275.8 270.9,279.3 271.6,279.4 272.4,274.5 273.1,271.1 273.8,271.9 274.6,276.2 275.3,277.2 276.0,278.3 276.8,274.9 277.5,277.1 278.2,278.3 279.0,280.2 279.7,277.6 280.5,275.7 281.2,277.4 281.9,278.5 282.7,277.5 283.4,277.2 284.1,274.7 284.9,278.3 285.6,277.6 286.3,277.8 287.1,278.1 287.8,277.9 288.6,282.4 289.3,278.2 290.0,278.3 290.8,279.0 291.5,280.1 292.3,278.1 293.0,278.1 293.7,277.9 294.5,276.3 295.2,282.2 296.0,280.6 296.7,278.5 297.4,278.2 298.2,281.1 298.9,280.9 299.6,278.3 300.4,279.3 301.1,278.7 301.8,278.0 302.6,280.5 303.3,281.0 304.1,280.4 304.8,280.6 305.5,279.3 306.3,281.2 307.0,280.9 307.7,282.0 308.5,281.6 309.2,281.0 309.9,279.5 310.7,279.5 311.4,280.2 312.2,281.8 312.9,282.6 313.6,282.4 314.4,283.5 315.1,281.0 315.9,280.8 316.6,279.0 317.3,281.5 318.1,282.6 318.8,281.4 319.5,279.4 320.3,281.5 321.0,285.4 321.8,283.1 322.5,281.4 323.2,281.2 324.0,282.0 324.7,282.5 325.4,283.4 326.2,281.4 326.9,282.5 327.6,281.4 328.4,284.9 329.1,280.7 329.8,282.1 330.6,282.3 331.3,282.8 332.1,282.6 332.8,283.1 333.5,285.5 334.3,280.6 335.0,283.4 335.8,279.9 336.5,280.6 337.2,278.5 338.0,281.5 338.7,282.1 339.4,280.6 340.2,281.5 340.9,283.6 341.7,281.5 342.4,279.7 343.1,285.5 343.9,268.6 344.6,277.2 345.4,275.9 346.1,288.0 346.8,279.5 347.6,283.6 348.3,279.8 349.0,281.1 349.8,282.6 350.5,281.5 351.2,280.4 352.0,280.5 352.7,282.0 353.4,281.4 354.2,281.8 354.9,281.4 355.7,281.9 356.4,280.7 357.1,287.2 357.9,282.7 358.6,280.7 359.3,281.4 360.1,281.8 360.8,280.6 361.6,281.8 362.3,282.9 363.0,281.2 363.8,281.9 364.5,282.3 365.2,283.9 366.0,281.7 366.7,284.4 367.4,282.1 368.2,281.3 368.9,280.4 369.7,282.5 370.4,289.9 371.1,283.5 371.9,280.1 372.6,281.8 373.3,280.2 374.1,280.0 374.8,281.7 375.5,281.0 376.3,284.0 377.0,282.7 377.8,282.9 378.5,281.8 379.2,283.4 380.0,286.4 380.7,291.6 381.4,283.8 382.2,283.5 382.9,283.2 383.7,283.4 384.4,286.0 385.1,284.1 385.9,282.4 386.6,286.0 387.3,284.4 388.1,286.6 388.8,282.6 389.6,284.9 390.3,283.8 391.0,284.0 391.8,284.2 392.5,286.0 393.2,282.8 394.0,280.4 394.7,284.6 395.5,286.8 396.2,283.3 396.9,285.4 397.7,285.9 398.4,283.6 399.1,285.3 399.9,286.4 400.6,284.8 401.3,283.9 402.1,287.0 402.8,284.5 403.5,286.3 404.3,287.2 405.0,284.4 405.7,285.8 406.5,284.6 407.2,286.9 408.0,287.1 408.7,284.5 409.4,281.5 410.2,282.8 410.9,283.1 411.7,284.1 412.4,284.4 413.1,284.0 413.9,283.6 414.6,282.4 415.4,282.7 416.1,283.5 416.8,285.1 417.6,283.2 418.3,281.2 419.0,284.0 419.8,283.7 420.5,283.2 421.2,282.6 422.0,283.1 422.7,286.1 423.5,280.3 424.2,286.0 424.9,281.9 425.7,286.8 426.4,285.4 427.1,284.5 427.9,283.2 428.6,283.8 429.4,288.3 430.1,285.3 430.8,284.1 431.6,285.2 432.3,284.0 433.1,283.9 433.8,280.9 434.5,285.5 435.3,282.7 436.0,282.8 436.7,283.4 437.5,285.1 438.2,283.6 438.9,285.5 439.7,286.1 440.4,285.4 441.1,282.0 441.9,284.4 442.6,282.9 443.3,285.1 444.1,281.0 444.8,282.9 445.6,283.3 446.3,284.8 447.0,285.8 447.8,285.9 448.5,280.8 449.2,282.5 450.0,284.3 450.7,282.3 451.5,283.5 452.2,284.2 452.9,284.9 453.7,284.8 454.4,285.6 455.1,284.8 455.9,283.7 456.6,284.2 457.3,283.7 458.1,286.0 458.8,286.4 459.6,288.2 460.3,284.8 461.0,285.8 461.8,286.1 462.5,288.7 463.2,287.1 464.0,286.3 464.7,289.3 465.5,286.7 466.2,286.0 466.9,287.9 467.7,287.3 468.4,286.9 469.1,285.9 469.9,288.9 470.6,288.4 471.3,284.2 472.1,290.4 472.8,288.9 473.6,288.0 474.3,287.2 475.0,288.1 475.8,289.3 476.5,286.7 477.2,288.0 478.0,286.5 478.7,286.4 479.5,286.0 480.2,283.1 480.9,282.0 481.7,285.7 482.4,284.5 483.1,286.6 483.9,284.7 484.6,284.0 485.3,285.1 486.1,284.9 486.8,285.4 487.5,291.5 488.3,287.7 489.0,286.0 489.7,287.5 490.5,286.9 491.2,291.0 492.0,274.2 492.7,285.3 493.4,285.9 494.2,289.2 494.9,286.1 495.6,287.1 496.4,287.4 497.1,286.7 497.8,289.1 498.6,287.5 499.3,285.9 500.0,285.6 500.8,285.0 501.5,284.8 502.3,285.0 503.0,284.9 503.7,285.3 504.5,284.9 505.2,285.5 505.9,285.9 506.7,287.3 507.4,287.2 508.1,286.9 508.9,286.5 509.6,283.3 510.3,284.4 511.1,286.0 511.8,286.2 512.6,288.6 513.3,286.6 514.0,284.0 514.8,285.8 515.5,285.9 516.2,284.5 517.0,286.2 517.7,288.5 518.5,287.1 519.2,286.0 519.9,288.7 520.7,289.1 521.4,286.1 522.1,281.9 522.9,289.5 523.6,288.2 524.4,287.4 525.1,288.7 525.8,290.6 526.6,288.5 527.3,287.6 528.0,289.6 528.8,286.3 529.5,289.8 530.2,293.1 531.0,287.8 531.7,287.8 532.5,290.3 533.2,287.4 533.9,289.3 534.7,288.7 535.4,288.9 536.1,289.1 536.9,287.6 537.6,286.0 538.3,289.8 539.1,288.1 539.8,290.3 540.6,291.9 541.3,288.5 542.0,289.2 542.8,289.3 543.5,288.4 544.2,290.0 545.0,290.5 545.7,287.2 546.4,288.4 547.2,289.4 547.9,283.9 548.7,287.1 549.4,288.1 550.1,286.0 550.9,288.2 551.6,288.4 552.3,288.4 553.1,287.8 553.8,288.9 554.6,285.1 555.3,285.9 556.0,280.4 556.8,287.8 557.5,287.0 558.2,288.6 559.0,289.5 559.7,291.4 560.4,286.8 561.2,289.3 561.9,286.4 562.7,285.7 563.4,284.9 564.1,286.0 564.9,288.0 565.6,288.6 566.3,292.3 567.1,289.4 567.8,287.6 568.5,288.4 569.3,276.2 570.0,289.5 570.8,289.1 571.5,287.1 572.2,287.8 573.0,288.6 573.7,288.6 574.4,289.0 575.2,288.3 575.9,290.6 576.7,284.9 577.4,288.7 578.1,289.1 578.9,291.3 579.6,295.0 580.3,292.0 581.1,290.0 581.8,290.2 582.5,288.2 583.3,288.8 584.0,289.2 584.8,289.7 585.5,289.0 586.2,288.4 587.0,287.3 587.7,292.0 588.4,289.6 589.2,286.8 589.9,283.8 590.6,287.1 591.4,289.5 592.1,290.5 592.8,291.2 593.6,288.9 594.3,286.9 595.1,293.2 595.8,284.1 596.5,290.6 597.3,288.3 598.0,291.7 598.8,289.2 599.5,288.9 600.2,289.2 601.0,288.0 601.7,286.5 602.4,288.1 603.2,289.8 603.9,297.5 604.7,291.0 605.4,287.6 606.1,288.8 606.9,287.3 607.6,285.7 608.3,288.7 609.1,290.0 609.8,288.0 610.6,290.8 611.3,290.5 612.0,289.0 612.8,290.1 613.5,290.8 614.2,290.5 615.0,286.9 615.7,288.2 616.5,289.4 617.2,291.2 617.9,288.2 618.7,298.3 619.4,287.6 620.2,290.3 620.9,287.8 621.6,285.0 622.4,293.6 623.1,287.8 623.8,289.1 624.6,286.4 625.3,288.9 626.1,290.0 626.8,288.5 627.5,287.1 628.3,287.1 629.0,286.3 629.8,288.3 630.5,289.5 631.2,288.9 632.0,290.6 632.7,293.7 633.4,291.4 634.2,291.0 634.9,289.4 635.6,290.7 636.4,290.8 637.1,289.7 637.8,289.8 638.6,288.1 639.3,289.0 640.0,289.1 640.8,290.1 641.5,290.4 642.3,288.9 643.0,291.4 643.7,290.9 644.5,292.9 645.2,292.1 645.9,291.4 646.7,287.4 647.4,292.3 648.1,293.6 648.9,302.1 649.6,292.1 650.4,290.7 651.1,289.9 651.8,290.6 652.6,293.3 653.3,291.6 654.0,291.2 654.8,290.1 655.5,294.1 656.3,290.9 657.0,293.5 657.7,290.7 658.5,291.0 659.2,289.9 659.9,290.9 660.7,291.0 661.4,290.6 662.2,293.4 662.9,289.1 663.6,290.6 664.4,290.0 665.1,293.9 665.8,291.3 666.6,292.0 667.3,294.4 668.0,292.0 668.8,292.2 669.5,289.9 670.2,293.3 671.0,292.2 671.7,292.6 672.4,291.1 673.2,290.4 673.9,288.7 674.7,294.0" fill="none" stroke="#64748b" stroke-width="1.5" stroke-dasharray="5,3"/>
<polyline points="65.0,159.5 65.9,53.0 66.8,72.8 67.7,155.7 68.5,199.8 69.4,202.5 70.3,201.1 71.2,200.2 72.1,199.6 73.0,199.4 73.9,199.6 74.8,200.4 75.7,200.7 76.6,201.2 77.5,201.6 78.4,202.2 79.3,203.0 80.2,203.8 81.1,204.2 82.0,204.6 82.9,204.9 83.8,205.9 84.7,206.4 85.6,206.8 86.5,207.5 87.4,208.3 88.3,209.2 89.2,209.9 90.1,210.2 91.0,211.8 91.9,212.0 92.8,213.6 93.7,214.0 94.6,215.9 95.5,215.9 96.4,217.7 97.3,218.3 98.2,219.3 99.1,220.6 100.0,222.1 100.9,223.2 101.8,224.5 102.7,224.2 103.6,226.2 104.5,226.5 105.4,227.1 106.3,228.7 107.2,229.2 108.1,229.9 109.0,230.8 109.9,231.3 110.9,232.6 111.8,233.2 112.7,233.8 113.6,233.7 114.5,234.9 115.4,235.2 116.3,235.9 117.2,236.6 118.1,237.3 119.0,237.3 119.9,238.2 120.8,238.4 121.7,238.8 122.6,239.3 123.5,240.4 124.4,240.4 125.3,240.9 126.2,241.5 127.1,242.2 128.0,242.5 128.9,242.1 129.8,243.7 130.7,244.5 131.6,245.0 132.5,245.4 133.4,245.9 134.3,245.7 135.2,246.7 136.1,247.7 137.0,248.1 137.9,248.0 138.8,249.4 139.7,249.2 140.6,249.3 141.5,249.9 142.4,250.5 143.3,252.6 144.2,251.6 145.1,251.7 146.1,252.4 146.9,252.7 147.8,252.5 148.7,252.2 149.6,253.6 150.5,254.0 151.4,254.5 152.3,254.2 153.3,253.8 154.2,255.4 155.1,255.5 156.0,255.4 156.9,257.3 157.8,256.1 158.7,255.6 159.6,256.4 160.5,256.4 161.4,256.8 162.3,257.5 163.2,257.4 164.1,256.9 165.0,257.7 165.9,258.2 166.8,258.4 167.7,257.9 168.6,258.8 169.5,259.6 170.4,259.8 171.3,258.9 172.2,259.7 173.1,260.3 174.0,259.5 174.9,259.7 175.8,259.5 176.7,260.6 177.6,259.9 178.5,260.9 179.5,261.0 180.4,261.0 181.3,260.6 182.1,261.3 183.1,261.7 184.0,261.1 184.9,261.1 185.8,261.3 186.7,262.3 187.6,262.6 188.5,261.9 189.4,262.1 190.3,262.9 191.2,262.6 192.1,263.6 193.0,263.1 193.9,262.9 194.8,262.5 195.7,263.3 196.6,262.3 197.5,263.5 198.5,264.2 199.4,263.6 200.3,263.9 201.2,263.3 202.1,263.5 203.0,263.9 203.9,263.8 204.8,264.1 205.7,265.3 206.6,263.8 207.5,264.5 208.4,264.5 209.3,264.2 210.2,264.8 211.1,264.8 212.0,265.6 212.9,265.2 213.8,264.6 214.7,263.9 215.6,265.0 216.5,265.4 217.4,264.4 218.3,265.6 219.2,265.6 220.1,265.4 221.0,265.6 221.9,267.3 222.8,266.6 223.7,266.5 224.6,266.4 225.5,265.8 226.4,266.2 227.3,266.4 228.2,265.4 229.1,267.9 230.0,266.5 230.9,266.4 231.8,266.3 232.7,267.9 233.6,265.7 234.5,268.6 235.4,268.1 236.3,266.8 237.2,268.6 238.1,268.2 239.0,268.0 239.9,269.0 240.8,269.1 241.7,268.3 242.6,268.0 243.5,269.4 244.4,268.1 245.3,269.1 246.2,269.7 247.1,269.1 248.0,268.9 248.9,269.4 249.8,270.3 250.7,269.1 251.6,270.0 252.5,269.5 253.4,269.8 254.3,270.2 255.2,270.5 256.1,270.4 257.0,270.1 257.9,271.5 258.7,270.8 259.7,270.9 260.6,272.7 261.5,271.6 262.4,271.4 263.3,271.9 264.2,271.5 265.1,272.5 266.0,272.8 266.9,271.4 267.8,272.5 268.7,271.9 269.6,273.5 270.5,272.7 271.4,271.7 272.3,272.6 273.2,272.6 274.1,273.3 275.0,274.1 275.9,273.2 276.8,273.6 277.7,272.7 278.6,272.1 279.5,274.8 280.4,275.2 281.3,274.8 282.2,274.7 283.1,275.1 284.0,273.7 285.0,274.5 285.9,275.3 286.8,275.1 287.7,275.6 288.6,276.0 289.5,276.0 290.4,275.2 291.3,275.7 292.2,274.6 293.1,276.3 294.0,276.5 294.9,275.6 295.8,275.5 296.7,275.8 297.6,276.8 298.5,276.9 299.4,276.6 300.3,275.6 301.2,275.1 302.1,276.3 303.0,277.6 303.9,277.0 304.8,277.2 305.7,277.0 306.6,276.3 307.5,276.6 308.4,276.9 309.3,276.9 310.2,278.9 311.1,278.1 312.0,277.2 312.9,278.6 313.8,277.6 314.7,277.0 315.7,277.2 316.6,277.2 317.5,277.6 318.4,277.4 319.3,279.0 320.2,279.5 321.1,278.9 322.0,277.9 322.9,278.8 323.8,279.9 324.7,279.3 325.6,279.4 326.5,278.7 327.4,278.8 328.3,279.8 329.2,279.9 330.1,278.1 331.0,278.5 331.9,279.5 332.8,278.7 333.7,277.3 334.6,280.1 335.5,278.4 336.4,280.5 337.3,280.9 338.2,279.3 339.1,279.6 340.0,280.4 340.9,279.9 341.8,279.5 342.7,279.2 343.6,280.1 344.6,280.2 345.5,279.1 346.4,280.5 347.3,280.1 348.2,281.7 349.1,279.1 350.0,280.1 350.9,281.7 351.8,281.0 352.7,280.7 353.6,280.8 354.5,280.2 355.4,279.4 356.3,281.2 357.2,281.1 358.1,280.6 359.0,280.3 359.9,280.9 360.8,281.4 361.7,281.7 362.6,281.4 363.5,281.6 364.4,280.7 365.3,281.4 366.2,281.5 367.1,281.6 368.0,279.2 368.9,282.2 369.8,283.2 370.7,280.9 371.6,280.5 372.5,282.3 373.4,280.7 374.3,282.4 375.2,281.5 376.1,282.1 377.0,282.8 377.9,281.3 378.8,279.9 379.7,280.6 380.6,282.4 381.5,282.6 382.4,282.4 383.3,282.6 384.3,282.5 385.2,281.0 386.1,281.7 387.0,280.6 387.9,283.8 388.8,280.9 389.7,282.7 390.6,282.4 391.5,282.2 392.4,281.8 393.3,282.4 394.2,280.7 395.1,282.8 396.0,282.5 396.9,282.0 397.8,281.5 398.7,282.2 399.6,281.9 400.5,284.3 401.4,281.9 402.3,283.1 403.2,282.1 404.1,282.6 405.0,283.0 406.0,282.0 406.9,283.3 407.8,282.8 408.7,284.1 409.6,283.3 410.5,282.6 411.4,282.2 412.3,282.9 413.2,283.1 414.1,283.6 415.0,283.0 415.9,282.5 416.8,283.9 417.7,283.2 418.6,283.3 419.5,284.3 420.4,283.8 421.3,280.3 422.2,283.8 423.1,282.0 424.0,282.3 424.9,283.4 425.8,284.0 426.7,284.7 427.6,282.6 428.5,283.7 429.4,285.3 430.3,285.9 431.2,285.5 432.1,281.4 433.0,283.5 433.9,283.8 434.8,283.8 435.7,283.5 436.6,284.4 437.5,282.8 438.4,284.0 439.4,284.8 440.2,284.3 441.1,283.2 442.0,282.2 442.9,283.8 443.8,284.4 444.7,283.8 445.6,284.9 446.5,284.9 447.4,284.5 448.3,284.2 449.2,284.1 450.1,285.0 451.0,284.8 451.9,282.8 452.8,284.8 453.7,283.6 454.7,282.7 455.6,283.8 456.5,284.3 457.4,283.1 458.3,282.9 459.2,284.4 460.1,284.2 461.0,284.8 461.9,285.4 462.8,285.7 463.7,284.1 464.6,283.7 465.5,285.2 466.4,285.5 467.3,286.6 468.2,283.6 469.1,284.4 470.0,283.8 470.9,285.5 471.8,285.8 472.8,284.8 473.7,284.8 474.6,284.5 475.5,284.1 476.4,285.3 477.3,284.6 478.2,285.0 479.1,284.3 480.0,284.8 480.9,284.5 481.8,284.6 482.7,285.2 483.6,284.6 484.5,285.3 485.4,285.8 486.3,283.7 487.2,285.0 488.1,284.3 489.0,285.2 489.9,284.6 490.8,284.7 491.7,284.2 492.6,285.8 493.5,285.6 494.4,286.4 495.3,284.9 496.2,285.1 497.1,285.2 498.0,284.3 498.9,285.7 499.8,284.6 500.7,285.7 501.6,285.9 502.5,285.0 503.4,285.9 504.3,284.6 505.2,286.5 506.1,285.1 507.0,287.0 507.9,285.4 508.8,284.8 509.7,286.0 510.6,284.9 511.5,286.7 512.4,285.1 513.3,286.1 514.2,284.6 515.1,284.9 516.0,285.0 516.9,286.3 517.8,286.2 518.7,285.2 519.6,285.3 520.5,285.8 521.4,286.8 522.3,284.6 523.2,285.9 524.1,286.8 525.0,287.7 525.9,287.2 526.8,285.7 527.7,285.3 528.6,286.6 529.5,286.1 530.4,286.7 531.3,284.8 532.2,286.7 533.2,286.6 534.0,287.1 534.9,286.4 535.9,286.1 536.7,286.2 537.7,285.8 538.6,285.3 539.5,287.2 540.4,285.6 541.3,286.5 542.2,286.5 543.1,286.2 544.0,285.6 544.9,286.3 545.8,287.5 546.7,286.8 547.6,288.1 548.5,287.2 549.4,286.7 550.3,288.0 551.2,286.5 552.1,286.5 553.0,287.2 553.9,286.7 554.8,286.1 555.7,288.3 556.6,286.0 557.5,287.8 558.4,285.9 559.3,285.9 560.2,286.9 561.1,287.3 562.0,288.0 562.9,286.8 563.9,287.6 564.7,286.2 565.6,288.2 566.6,285.0 567.5,287.0 568.4,287.3 569.3,287.1 570.2,286.7 571.1,286.4 572.0,287.1 572.9,287.9 573.8,286.6 574.7,288.6 575.6,286.1 576.5,287.9 577.4,287.0 578.3,286.7 579.2,286.0 580.1,287.1 581.0,286.0 582.0,287.9 582.9,287.3 583.8,288.2 584.7,287.3 585.6,286.1 586.5,287.6 587.4,287.9 588.3,287.1 589.3,288.1 590.2,288.1 591.1,287.4 592.0,286.7 592.9,287.4 593.8,289.3 594.7,288.2 595.6,287.1 596.5,287.9 597.4,287.5 598.3,286.8 599.2,287.1 600.1,289.0 601.0,286.7 601.9,290.1 602.8,287.5 603.7,286.5 604.6,287.6 605.5,288.5 606.4,289.1 607.3,286.9 608.2,288.5 609.1,286.4 610.0,287.5 610.9,287.3 611.8,287.0 612.7,289.5 613.6,288.0 614.5,287.8 615.5,288.7 616.4,286.7 617.3,288.4 618.2,288.3 619.1,289.8 620.0,287.6 620.9,285.7 621.8,286.8 622.7,287.8 623.6,288.5 624.5,288.7 625.4,286.6 626.3,287.9 627.2,287.9 628.1,290.1 629.0,287.5 629.9,289.1 630.8,288.9 631.7,288.4 632.6,289.0 633.5,287.8 634.4,289.4 635.2,287.5 636.1,288.0 637.0,286.3 637.9,288.3 638.8,288.0 639.7,288.2 640.7,287.7 641.6,288.3 642.5,288.9 643.4,288.8 644.3,290.3 645.2,287.4 646.1,288.8 647.0,286.5 647.9,289.8 648.8,288.0 649.7,289.9 650.6,287.7 651.5,289.7 652.4,290.3 653.3,289.8 654.2,288.1 655.1,288.5 656.0,288.6 656.9,288.8 657.8,287.4 658.7,288.4 659.6,289.8 660.5,286.9 661.4,288.6 662.3,289.9 663.2,287.6 664.1,290.5 665.1,289.6 666.0,288.9 666.9,289.8 667.8,288.7 668.7,289.7 669.6,288.8 670.5,288.7 671.4,288.0 672.3,290.5 673.2,288.9 674.1,288.5 675.0,289.1" fill="none" stroke="#16a34a" stroke-width="1.5"/>
<polyline points="65.0,309.7 65.9,48.2 66.8,42.8 67.7,248.8 68.5,324.3 69.4,327.2 70.3,318.8 71.2,311.3 72.1,305.1 73.0,303.0 73.9,301.3 74.8,299.9 75.7,296.4 76.6,296.5 77.5,295.0 78.4,294.1 79.3,296.6 80.2,292.9 81.1,288.3 82.0,288.1 82.9,286.6 83.8,285.9 84.7,284.7 85.6,283.9 86.5,283.0 87.4,283.7 88.3,283.3 89.2,283.0 90.1,283.1 91.0,284.2 91.9,283.0 92.8,285.2 93.7,286.1 94.6,285.8 95.5,285.5 96.4,287.4 97.3,286.9 98.2,289.4 99.1,290.9 100.0,291.5 100.9,292.2 101.8,292.4 102.7,292.0 103.6,296.3 104.5,292.0 105.4,293.1 106.3,293.8 107.2,294.8 108.1,293.8 109.0,294.9 109.9,295.0 110.9,295.3 111.8,294.4 112.7,295.7 113.6,294.7 114.5,296.0 115.4,296.7 116.3,295.9 117.2,297.9 118.1,297.4 119.0,297.0 119.9,296.7 120.8,297.3 121.7,297.1 122.6,296.3 123.5,297.4 124.4,297.9 125.3,298.6 126.2,300.1 127.1,301.8 128.0,299.2 128.9,299.6 129.8,299.8 130.7,300.9 131.6,301.9 132.5,303.4 133.4,302.1 134.3,301.4 135.2,301.6 136.1,303.4 137.0,303.1 137.9,303.3 138.8,302.9 139.7,303.2 140.6,302.5 141.5,302.6 142.4,303.3 143.3,304.1 144.2,303.6 145.1,304.6 146.1,305.0 146.9,304.2 147.8,303.4 148.7,303.5 149.6,304.0 150.5,305.1 151.4,306.0 152.3,304.4 153.3,303.9 154.2,305.1 155.1,307.5 156.0,304.0 156.9,306.5 157.8,305.4 158.7,304.4 159.6,305.4 160.5,304.6 161.4,305.2 162.3,305.1 163.2,307.1 164.1,304.2 165.0,305.1 165.9,305.3 166.8,304.9 167.7,305.1 168.6,305.4 169.5,306.8 170.4,306.1 171.3,305.9 172.2,305.3 173.1,306.7 174.0,306.2 174.9,306.2 175.8,305.7 176.7,307.1 177.6,305.2 178.5,306.3 179.5,306.8 180.4,307.3 181.3,306.2 182.1,305.9 183.1,307.1 184.0,306.1 184.9,307.9 185.8,308.1 186.7,307.1 187.6,306.7 188.5,307.2 189.4,307.9 190.3,308.0 191.2,307.6 192.1,307.7 193.0,308.1 193.9,307.1 194.8,306.2 195.7,306.8 196.6,306.7 197.5,309.6 198.5,309.8 199.4,306.8 200.3,306.8 201.2,307.7 202.1,306.4 203.0,306.0 203.9,307.0 204.8,306.6 205.7,307.6 206.6,306.3 207.5,306.9 208.4,306.9 209.3,306.8 210.2,306.2 211.1,306.4 212.0,307.7 212.9,306.9 213.8,305.1 214.7,307.3 215.6,307.1 216.5,306.2 217.4,305.4 218.3,304.8 219.2,304.9 220.1,305.3 221.0,305.8 221.9,307.2 222.8,306.5 223.7,306.7 224.6,306.0 225.5,304.9 226.4,304.8 227.3,305.0 228.2,304.3 229.1,305.9 230.0,304.2 230.9,304.5 231.8,303.4 232.7,305.3 233.6,303.3 234.5,305.3 235.4,304.9 236.3,303.3 237.2,305.0 238.1,303.9 239.0,304.6 239.9,313.3 240.8,305.3 241.7,306.2 242.6,305.1 243.5,303.9 244.4,306.0 245.3,306.3 246.2,305.8 247.1,305.6 248.0,304.8 248.9,304.6 249.8,305.9 250.7,305.0 251.6,306.2 252.5,304.2 253.4,305.3 254.3,306.1 255.2,305.0 256.1,304.7 257.0,304.8 257.9,306.0 258.7,304.9 259.7,304.9 260.6,307.1 261.5,306.0 262.4,306.9 263.3,307.8 264.2,306.3 265.1,305.9 266.0,307.7 266.9,306.7 267.8,306.7 268.7,306.4 269.6,307.8 270.5,306.8 271.4,304.9 272.3,308.3 273.2,310.7 274.1,309.7 275.0,308.0 275.9,306.6 276.8,308.8 277.7,306.7 278.6,305.2 279.5,307.6 280.4,309.4 281.3,308.0 282.2,307.6 283.1,308.4 284.0,308.9 285.0,307.5 285.9,308.3 286.8,307.9 287.7,308.3 288.6,305.9 289.5,308.4 290.4,307.6 291.3,307.3 292.2,307.5 293.1,308.7 294.0,309.2 294.9,307.3 295.8,306.4 296.7,308.1 297.6,308.4 298.5,307.2 299.4,308.2 300.3,307.5 301.2,307.5 302.1,308.1 303.0,307.8 303.9,307.6 304.8,307.7 305.7,308.0 306.6,306.8 307.5,306.6 308.4,306.9 309.3,307.4 310.2,309.4 311.1,308.6 312.0,307.1 312.9,307.3 313.8,306.6 314.7,306.6 315.7,307.5 316.6,308.6 317.5,307.2 318.4,306.9 319.3,309.1 320.2,308.7 321.1,306.0 322.0,306.9 322.9,308.2 323.8,308.6 324.7,307.8 325.6,307.6 326.5,307.9 327.4,307.9 328.3,307.0 329.2,309.2 330.1,307.3 331.0,307.3 331.9,307.8 332.8,307.1 333.7,305.6 334.6,308.7 335.5,308.2 336.4,309.8 337.3,311.0 338.2,308.3 339.1,308.8 340.0,309.2 340.9,307.6 341.8,308.8 342.7,307.9 343.6,314.0 344.6,312.0 345.5,310.8 346.4,307.2 347.3,308.7 348.2,310.5 349.1,308.5 350.0,308.4 350.9,310.2 351.8,310.1 352.7,309.0 353.6,309.4 354.5,308.9 355.4,308.4 356.3,309.9 357.2,306.3 358.1,308.9 359.0,309.3 359.9,309.3 360.8,310.2 361.7,309.6 362.6,309.3 363.5,309.7 364.4,308.8 365.3,308.4 366.2,309.2 367.1,308.8 368.0,308.4 368.9,310.8 369.8,309.3 370.7,306.1 371.6,309.4 372.5,310.2 373.4,310.1 374.3,310.9 375.2,309.9 376.1,309.0 377.0,309.8 377.9,309.0 378.8,308.2 379.7,306.9 380.6,304.7 381.5,309.1 382.4,309.2 383.3,309.4 384.3,308.0 385.2,307.9 386.1,308.8 387.0,307.0 387.9,308.5 388.8,308.6 389.7,308.5 390.6,308.9 391.5,308.6 392.4,307.5 393.3,309.6 394.2,309.3 395.1,308.1 396.0,308.7 396.9,307.8 397.8,307.4 398.7,308.5 399.6,307.3 400.5,309.3 401.4,308.4 402.3,307.9 403.2,307.8 404.1,307.2 405.0,308.9 406.0,307.7 406.9,308.3 407.8,307.3 408.7,309.4 409.6,310.7 410.5,309.6 411.4,308.9 412.3,308.9 413.2,309.2 414.1,310.0 415.0,310.0 415.9,309.3 416.8,309.1 417.7,310.0 418.6,310.4 419.5,310.1 420.4,310.1 421.3,308.4 422.2,309.6 423.1,309.2 424.0,308.4 424.9,310.6 425.8,308.3 426.7,309.6 427.6,309.1 428.5,309.7 429.4,308.2 430.3,310.3 431.2,310.3 432.1,308.1 433.0,309.5 433.9,311.1 434.8,309.4 435.7,310.2 436.6,310.4 437.5,308.5 438.4,309.7 439.4,309.2 440.2,309.1 441.1,310.5 442.0,308.7 442.9,309.7 443.8,311.0 444.7,310.4 445.6,310.6 446.5,309.7 447.4,309.0 448.3,311.0 449.2,310.8 450.1,310.4 451.0,310.9 451.9,309.0 452.8,309.8 453.7,309.0 454.7,308.2 455.6,309.6 456.5,309.9 457.4,309.4 458.3,307.9 459.2,308.2 460.1,308.8 461.0,309.2 461.9,309.2 462.8,308.4 463.7,308.3 464.6,306.9 465.5,308.9 466.4,309.2 467.3,309.2 468.2,307.8 469.1,308.9 470.0,306.9 470.9,309.2 471.8,308.3 472.8,307.4 473.7,308.0 474.6,308.0 475.5,307.1 476.4,308.7 477.3,307.9 478.2,308.9 479.1,308.7 480.0,310.2 480.9,311.2 481.8,309.2 482.7,309.7 483.6,309.3 484.5,310.5 485.4,310.2 486.3,309.0 487.2,307.6 488.1,307.3 489.0,309.3 489.9,308.2 490.8,307.4 491.7,312.7 492.6,310.5 493.5,309.3 494.4,308.8 495.3,308.7 496.2,308.5 497.1,308.9 498.0,307.2 498.9,309.1 499.8,309.1 500.7,310.2 501.6,310.4 502.5,309.8 503.4,310.2 504.3,309.6 505.2,310.3 506.1,309.1 507.0,309.6 507.9,308.9 508.8,308.8 509.7,311.2 510.6,309.7 511.5,310.1 512.4,308.0 513.3,309.5 514.2,309.9 515.1,309.2 516.0,309.8 516.9,309.9 517.8,308.5 518.7,308.9 519.6,308.4 520.5,307.9 521.4,310.2 522.3,310.4 523.2,308.1 524.1,309.3 525.0,309.2 525.9,308.1 526.8,308.4 527.7,307.8 528.6,309.6 529.5,307.5 530.4,307.0 531.3,308.0 532.2,308.2 533.2,309.2 534.0,308.6 534.9,308.4 535.9,308.1 536.7,308.8 537.7,309.5 538.6,307.5 539.5,308.6 540.4,306.4 541.3,308.6 542.2,308.2 543.1,308.2 544.0,307.6 544.9,307.4 545.8,309.8 546.7,308.7 547.6,310.8 548.5,310.3 549.4,309.0 550.3,310.6 551.2,308.8 552.1,308.6 553.0,309.4 553.9,308.8 554.8,310.2 555.7,313.1 556.6,309.5 557.5,310.2 558.4,308.1 559.3,307.2 560.2,309.2 561.1,308.7 562.0,310.7 562.9,310.6 563.9,310.9 564.7,308.9 565.6,309.4 566.6,306.2 567.5,309.0 568.4,309.3 569.3,316.1 570.2,308.2 571.1,308.7 572.0,309.5 572.9,309.4 573.8,308.6 574.7,309.7 575.6,307.7 576.5,310.9 577.4,308.8 578.3,308.1 579.2,305.8 580.1,306.6 581.0,307.5 582.0,308.8 582.9,309.1 583.8,309.3 584.7,308.4 585.6,308.2 586.5,309.6 587.4,308.4 588.3,308.2 589.3,310.7 590.2,311.6 591.1,309.2 592.0,307.7 592.9,307.6 593.8,310.2 594.7,308.9 595.6,309.9 596.5,308.6 597.4,309.1 598.3,307.6 599.2,308.7 600.1,309.7 601.0,309.1 601.9,311.6 602.8,309.0 603.7,305.0 604.6,307.5 605.5,310.2 606.4,310.2 607.3,310.1 608.2,309.9 609.1,307.8 610.0,309.0 610.9,307.9 611.8,308.4 612.7,309.4 613.6,308.2 614.5,309.1 615.5,310.3 616.4,308.3 617.3,308.4 618.2,308.2 619.1,308.3 620.0,308.7 620.9,308.5 621.8,309.9 622.7,307.9 623.6,309.7 624.5,310.8 625.4,308.4 626.3,308.9 627.2,309.8 628.1,311.5 629.0,310.4 629.9,310.1 630.8,309.6 631.7,308.9 632.6,307.5 633.5,307.8 634.4,309.2 635.2,308.4 636.1,308.2 637.0,307.8 637.9,309.1 638.8,309.5 639.7,309.3 640.7,308.5 641.6,308.6 642.5,309.4 643.4,308.5 644.3,308.6 645.2,307.2 646.1,308.7 647.0,308.2 647.9,307.9 648.8,303.0 649.7,308.6 650.6,308.2 651.5,309.4 652.4,308.5 653.3,308.8 654.2,308.2 655.1,307.9 656.0,307.9 656.9,307.3 657.8,307.9 658.7,308.6 659.6,309.4 660.5,307.5 661.4,308.6 662.3,308.5 663.2,308.5 664.1,310.0 665.1,307.5 666.0,308.3 666.9,308.0 667.8,307.5 668.7,308.4 669.6,308.9 670.5,307.4 671.4,307.3 672.3,309.3 673.2,309.0 674.1,308.9" fill="none" stroke="#2563eb" stroke-width="2.5"/>
<rect x="65" y="20" width="610" height="330" fill="none" stroke="#888" stroke-width="1.5"/>
<line x1="62" y1="315.6" x2="65" y2="315.6" stroke="#64748b" stroke-width="1" opacity="0.6"/>
<line x1="62" y1="275.6" x2="65" y2="275.6" stroke="#64748b" stroke-width="1" opacity="0.6"/>
<line x1="62" y1="225.1" x2="65" y2="225.1" stroke="#64748b" stroke-width="1" opacity="0.6"/>
<line x1="60" y1="156.6" x2="65" y2="156.6" stroke="#64748b" stroke-width="1.5"/>
<text x="57" y="156.6" text-anchor="end" dominant-baseline="middle" font-size="11" font-family="monospace,sans-serif" fill="#64748b">10</text>
<line x1="62" y1="88.0" x2="65" y2="88.0" stroke="#64748b" stroke-width="1" opacity="0.6"/>
<line x1="62" y1="48.0" x2="65" y2="48.0" stroke="#64748b" stroke-width="1" opacity="0.6"/>
<line x1="675" y1="309.8" x2="680" y2="309.8" stroke="#2563eb" stroke-width="1.5"/>
<text x="683" y="309.8" text-anchor="start" dominant-baseline="middle" font-size="11" font-family="monospace,sans-serif" fill="#2563eb">0.0</text>
<line x1="675" y1="204.5" x2="680" y2="204.5" stroke="#2563eb" stroke-width="1.5"/>
<text x="683" y="204.5" text-anchor="start" dominant-baseline="middle" font-size="11" font-family="monospace,sans-serif" fill="#2563eb">5.0</text>
<line x1="675" y1="99.1" x2="680" y2="99.1" stroke="#2563eb" stroke-width="1.5"/>
<text x="683" y="99.1" text-anchor="start" dominant-baseline="middle" font-size="11" font-family="monospace,sans-serif" fill="#2563eb">10.0</text>
<line x1="65.0" y1="350" x2="65.0" y2="355" stroke="#888" stroke-width="1.5"/>
<text x="65.0" y="368" text-anchor="middle" font-size="11" font-family="monospace,sans-serif">0</text>
<line x1="187.1" y1="350" x2="187.1" y2="355" stroke="#888" stroke-width="1.5"/>
<text x="187.1" y="368" text-anchor="middle" font-size="11" font-family="monospace,sans-serif">2</text>
<line x1="309.1" y1="350" x2="309.1" y2="355" stroke="#888" stroke-width="1.5"/>
<text x="309.1" y="368" text-anchor="middle" font-size="11" font-family="monospace,sans-serif">4</text>
<line x1="431.2" y1="350" x2="431.2" y2="355" stroke="#888" stroke-width="1.5"/>
<text x="431.2" y="368" text-anchor="middle" font-size="11" font-family="monospace,sans-serif">6</text>
<line x1="553.3" y1="350" x2="553.3" y2="355" stroke="#888" stroke-width="1.5"/>
<text x="553.3" y="368" text-anchor="middle" font-size="11" font-family="monospace,sans-serif">8</text>
<line x1="675.4" y1="350" x2="675.4" y2="355" stroke="#888" stroke-width="1.5"/>
<text x="675.4" y="368" text-anchor="middle" font-size="11" font-family="monospace,sans-serif">10</text>
<text x="370" y="392" text-anchor="middle" font-size="13" font-family="sans-serif">Runtime (minutes)</text>
<text transform="rotate(-90,28,185)" x="28" y="185" text-anchor="middle" font-size="13" font-family="sans-serif" fill="#64748b">Train loss (log scale)</text>
<text transform="rotate(90,746,185)" x="746" y="185" text-anchor="middle" font-size="13" font-family="sans-serif" fill="#2563eb">Train loss diff (exp − base)</text>
<rect x="72" y="26" width="140" height="62" fill="white" fill-opacity="0.85" stroke="#ddd" stroke-width="1" rx="3"/>
<line x1="77" y1="37" x2="99" y2="37" stroke="#64748b" stroke-width="1.5" stroke-dasharray="5,3"/>
<text x="104" y="41" font-size="11" font-family="sans-serif" fill="#64748b">Baseline train loss</text>
<line x1="77" y1="55" x2="99" y2="55" stroke="#16a34a" stroke-width="1.5"/>
<text x="104" y="59" font-size="11" font-family="sans-serif" fill="#16a34a">Experiment train loss</text>
<line x1="77" y1="73" x2="99" y2="73" stroke="#2563eb" stroke-width="2.5"/>
<text x="104" y="77" font-size="11" font-family="sans-serif" fill="#2563eb">Train loss diff</text>
</svg>