<svg xmlns="http://www.w3.org/2000/svg" viewBox="0 0 760 400" width="760" height="400" style="background:white">
<rect x="65" y="20" width="610" height="330" fill="#f9f9f9"/>
<line x1="65" y1="315.6" x2="675" y2="315.6" stroke="#ececec" stroke-width="1"/>
<line x1="65" y1="275.6" x2="675" y2="275.6" stroke="#ececec" stroke-width="1"/>
<line x1="65" y1="225.1" x2="675" y2="225.1" stroke="#ececec" stroke-width="1"/>
<line x1="65" y1="156.6" x2="675" y2="156.6" stroke="#ddd" stroke-width="1"/>
<line x1="65" y1="88.0" x2="675" y2="88.0" stroke="#ececec" stroke-width="1"/>
<line x1="65" y1="48.0" x2="675" y2="48.0" stroke="#ececec" stroke-width="1"/>
<line x1="65.0" y1="20" x2="65.0" y2="350" stroke="#ececec" stroke-width="1"/>
<line x1="187.1" y1="20" x2="187.1" y2="350" stroke="#ececec" stroke-width="1"/>
<line x1="309.1" y1="20" x2="309.1" y2="350" stroke="#ececec" stroke-width="1"/>
<line x1="431.2" y1="20" x2="431.2" y2="350" stroke="#ececec" stroke-width="1"/>
<line x1="553.3" y1="20" x2="553.3" y2="350" stroke="#ececec" stroke-width="1"/>
<line x1="675.4" y1="20" x2="675.4" y2="350" stroke="#ececec" stroke-width="1"/>
<line x1="65" y1="306.5" x2="675" y2="306.5" stroke="#2563eb" stroke-width="0.75" stroke-dasharray="3,3" opacity="0.4"/>
<polyline points="65.0,159.4 65.9,103.7 66.8,131.5 67.7,177.8 68.5,193.3 69.4,189.2 70.3,189.8 71.2,195.0 72.1,198.4 73.0,200.9 73.9,203.0 74.8,204.2 75.7,205.9 76.6,207.2 77.5,209.0 78.4,210.2 79.3,211.8 80.2,212.1 81.1,213.2 82.0,214.9 82.9,216.3 83.9,217.5 84.8,219.1 85.7,221.0 86.6,222.6 87.5,224.5 88.4,226.0 89.3,227.6 90.2,229.0 91.1,229.9 92.0,230.7 92.9,231.2 93.8,232.6 94.7,233.4 95.6,234.5 96.6,235.1 97.5,235.0 98.4,235.9 99.3,236.4 100.2,237.1 101.1,237.5 102.0,238.2 102.9,238.8 103.8,238.9 104.7,239.2 105.6,240.6 106.6,240.6 107.5,240.8 108.4,240.2 109.3,242.2 110.2,241.6 111.1,242.9 112.0,243.3 112.9,243.6 113.8,244.6 114.7,244.9 115.6,245.3 116.5,245.4 117.5,246.6 118.4,246.8 119.3,247.0 120.2,248.3 121.1,247.9 122.0,248.7 122.9,249.8 123.8,250.8 124.7,251.8 125.6,251.6 126.5,251.7 127.4,252.4 128.4,253.0 129.3,253.1 130.2,254.2 131.1,254.3 132.0,253.9 132.9,254.9 133.8,254.4 134.7,255.6 135.6,255.3 136.5,257.2 137.4,256.6 138.4,256.6 139.3,256.5 140.2,256.9 141.1,258.5 142.0,257.5 142.9,258.0 143.8,258.9 144.7,258.5 145.6,257.6 146.5,260.5 147.4,259.6 148.4,258.8 149.3,259.9 150.2,260.2 151.1,259.7 152.0,260.2 152.9,259.9 153.8,260.6 154.7,261.2 155.6,260.5 156.6,261.0 157.5,261.9 158.4,260.7 159.3,262.6 160.2,261.6 161.1,260.4 162.0,262.0 162.9,261.5 163.8,261.5 164.8,262.3 165.7,262.8 166.6,263.2 167.5,263.0 168.4,262.0 169.3,263.6 170.2,263.0 171.2,263.7 172.1,263.8 173.0,263.2 173.9,263.5 174.8,262.1 175.7,264.2 176.6,264.8 177.5,263.8 178.4,264.5 179.4,263.7 180.3,264.4 181.2,266.2 182.1,264.7 183.0,264.9 183.9,264.3 184.8,264.8 185.7,264.9 186.6,264.7 187.6,265.9 188.5,266.0 189.4,264.9 190.3,265.7 191.2,265.0 192.1,265.6 193.0,266.2 194.0,266.2 194.9,266.7 195.8,267.1 196.7,267.2 197.6,266.2 198.5,266.3 199.4,266.8 200.3,267.1 201.3,267.7 202.2,268.0 203.1,267.7 204.0,267.7 204.9,267.9 205.8,268.3 206.7,268.0 207.6,268.7 208.5,268.1 209.4,268.5 210.3,267.7 211.3,268.7 212.2,269.6 213.1,269.0 214.0,268.4 214.9,269.6 215.8,270.7 216.7,269.0 217.6,270.7 218.5,269.3 219.4,269.9 220.3,269.6 221.2,269.9 222.2,269.7 223.1,269.8 224.0,269.8 224.9,271.2 225.8,270.5 226.7,270.8 227.6,270.6 228.5,271.4 229.4,270.7 230.4,271.4 231.3,271.3 232.2,271.8 233.1,272.0 234.0,271.7 234.9,271.5 235.8,272.1 236.7,272.7 237.6,271.3 238.5,273.0 239.5,273.1 240.4,273.3 241.3,272.7 242.2,272.3 243.1,273.6 244.0,273.0 244.9,272.9 245.8,273.1 246.8,273.4 247.7,275.6 248.6,273.3 249.5,274.8 250.4,274.2 251.3,275.5 252.2,273.9 253.1,274.8 254.0,274.0 255.0,274.3 255.9,275.5 256.8,275.4 257.7,275.1 258.6,274.6 259.5,275.8 260.4,276.7 261.3,274.8 262.2,275.0 263.1,275.4 264.0,275.6 264.9,275.8 265.8,275.5 266.7,276.0 267.6,275.4 268.5,276.7 269.4,275.9 270.3,276.7 271.2,276.7 272.1,276.5 273.0,277.0 273.9,276.7 274.8,276.7 275.7,276.4 276.7,277.4 277.6,278.0 278.5,277.1 279.4,277.9 280.3,279.1 281.2,277.8 282.1,278.2 283.0,276.7 283.9,278.0 284.8,278.3 285.7,277.8 286.6,279.0 287.5,279.3 288.4,277.8 289.3,278.3 290.2,277.4 291.1,278.0 292.0,278.4 292.9,276.4 293.8,279.2 294.8,278.4 295.7,278.4 296.6,278.9 297.5,278.9 298.4,278.5 299.3,279.9 300.2,281.0 301.1,280.0 302.0,278.4 302.9,279.4 303.8,280.7 304.7,279.4 305.6,279.6 306.5,279.8 307.4,278.6 308.3,279.7 309.2,279.0 310.1,279.1 311.0,277.9 311.9,280.1 312.9,280.0 313.8,279.6 314.7,279.8 315.6,279.8 316.5,279.5 317.4,280.3 318.3,280.8 319.2,279.1 320.1,281.4 321.0,278.5 321.9,281.5 322.9,279.2 323.8,280.4 324.7,280.7 325.6,281.5 326.5,279.0 327.4,279.9 328.3,281.3 329.2,281.8 330.1,281.8 331.0,279.7 331.9,282.3 332.8,280.8 333.8,280.8 334.7,281.3 335.6,281.1 336.5,281.5 337.4,281.8 338.3,282.2 339.2,281.3 340.1,281.4 341.0,281.6 341.9,282.4 342.8,281.5 343.7,282.7 344.6,281.3 345.5,282.0 346.4,281.4 347.4,283.1 348.3,282.7 349.2,282.0 350.1,283.6 351.0,282.7 351.9,282.7 352.8,282.8 353.7,281.4 354.6,282.8 355.5,282.7 356.4,282.7 357.3,281.5 358.2,281.5 359.2,281.7 360.1,282.8 361.0,283.3 361.9,283.2 362.8,283.5 363.7,282.1 364.6,281.9 365.5,283.1 366.4,283.0 367.3,282.6 368.2,281.0 369.1,282.2 370.0,283.2 370.9,283.5 371.9,283.2 372.8,283.4 373.7,283.0 374.6,282.2 375.5,283.0 376.4,282.3 377.3,283.1 378.2,284.3 379.1,282.0 380.0,282.9 380.9,284.0 381.8,283.8 382.7,283.0 383.6,282.8 384.6,284.1 385.5,282.4 386.4,284.4 387.3,284.4 388.2,283.4 389.1,284.6 390.0,284.6 390.9,284.7 391.8,283.2 392.7,285.7 393.6,283.8 394.6,284.7 395.5,283.2 396.4,281.7 397.3,284.4 398.2,284.0 399.1,286.0 400.0,283.8 400.9,283.9 401.8,283.5 402.7,284.5 403.6,285.3 404.5,285.8 405.4,283.2 406.4,284.1 407.3,285.1 408.2,284.3 409.1,286.4 410.0,285.2 410.9,283.1 411.8,283.6 412.7,284.4 413.6,285.4 414.5,285.9 415.4,284.9 416.3,284.4 417.3,284.9 418.2,283.8 419.1,284.0 420.0,285.7 420.9,284.4 421.8,284.3 422.7,284.9 423.6,283.7 424.5,284.6 425.4,286.1 426.3,284.0 427.3,285.6 428.2,285.3 429.1,284.6 430.0,286.1 430.9,284.5 431.8,286.2 432.7,285.3 433.6,286.0 434.5,285.0 435.4,285.3 436.3,284.7 437.2,284.5 438.1,283.8 439.0,285.2 440.0,284.8 440.9,284.2 441.8,285.2 442.7,286.0 443.6,286.5 444.5,285.6 445.4,286.1 446.3,286.6 447.2,285.0 448.1,285.4 449.0,285.0 449.9,285.4 450.9,285.3 451.8,284.4 452.7,286.1 453.6,284.8 454.5,283.9 455.4,286.6 456.3,284.5 457.2,285.3 458.1,286.1 459.0,285.2 459.9,286.4 460.8,287.1 461.7,286.0 462.6,286.5 463.6,284.8 464.5,285.7 465.4,286.2 466.3,286.5 467.2,286.0 468.1,286.5 469.0,285.7 469.9,286.2 470.8,286.9 471.7,286.8 472.6,286.1 473.5,284.3 474.5,286.2 475.4,287.7 476.3,284.8 477.2,287.6 478.1,287.7 479.0,286.4 479.9,288.2 480.8,284.9 481.7,286.8 482.6,286.6 483.5,285.9 484.4,286.8 485.4,285.0 486.3,286.1 487.2,287.1 488.1,287.0 489.0,286.1 489.9,287.6 490.8,287.4 491.7,286.3 492.6,286.7 493.5,287.6 494.4,286.7 495.3,286.1 496.2,286.8 497.1,287.5 498.1,285.8 499.0,286.6 499.9,286.5 500.8,284.6 501.7,286.5 502.6,286.0 503.5,286.4 504.4,286.1 505.3,287.8 506.2,287.7 507.1,287.3 508.0,288.9 508.9,285.2 509.9,286.7 510.8,286.4 511.7,287.1 512.6,287.5 513.5,287.5 514.4,287.1 515.3,287.4 516.2,287.3 517.1,286.1 518.0,287.5 518.9,284.9 519.8,286.3 520.7,286.1 521.6,287.2 522.6,287.7 523.5,285.9 524.4,285.4 525.3,287.5 526.2,286.9 527.1,286.3 528.0,286.6 528.9,288.2 529.8,287.8 530.7,287.2 531.6,287.3 532.5,287.1 533.4,286.9 534.3,286.3 535.2,287.2 536.2,289.1 537.1,288.2 538.0,288.4 538.9,289.5 539.8,286.8 540.7,289.3 541.6,288.9 542.5,288.0 543.4,288.6 544.3,288.2 545.2,287.7 546.1,287.3 547.0,287.7 548.0,287.3 548.9,287.9 549.8,288.7 550.7,289.0 551.6,286.9 552.5,287.9 553.4,286.5 554.3,288.6 555.2,287.0 556.1,289.4 557.0,286.8 557.9,287.3 558.8,286.5 559.7,288.0 560.6,287.8 561.6,288.0 562.5,287.3 563.4,287.6 564.3,288.2 565.2,288.7 566.1,287.7 567.0,289.1 567.9,286.9 568.8,288.1 569.7,288.1 570.7,286.3 571.6,289.1 572.5,290.4 573.4,288.7 574.3,289.4 575.2,289.0 576.1,289.7 577.0,288.9 577.9,287.6 578.8,288.5 579.7,289.0 580.6,288.1 581.5,289.2 582.4,289.0 583.3,288.7 584.3,289.0 585.2,289.1 586.1,287.5 587.0,289.7 587.9,289.4 588.9,287.3 589.8,290.5 590.7,288.1 591.6,289.8 592.5,287.7 593.4,288.4 594.3,288.0 595.2,287.3 596.1,288.7 597.0,288.3 597.9,288.3 598.8,289.9 599.7,289.6 600.6,288.1 601.5,288.2 602.5,288.7 603.4,288.3 604.3,289.2 605.2,290.8 606.1,289.5 607.0,289.4 607.9,287.0 608.8,288.3 609.7,291.6 610.6,290.3 611.5,290.2 612.4,289.0 613.4,289.9 614.3,288.8 615.2,290.1 616.1,289.7 617.0,289.0 617.9,288.1 618.8,291.8 619.7,290.7 620.6,288.2 621.5,289.6 622.4,289.5 623.3,288.7 624.2,290.3 625.1,288.2 626.0,288.5 626.9,289.4 627.8,289.3 628.7,289.4 629.6,291.4 630.6,290.3 631.5,288.0 632.4,290.8 633.3,290.1 634.2,288.3 635.1,291.2 636.0,289.1 636.9,291.5 637.8,289.5 638.7,288.7 639.6,289.5 640.5,291.3 641.4,288.9 642.3,290.8 643.2,289.2 644.1,289.0 645.0,290.4 646.0,288.1 646.9,289.9 647.8,288.2 648.7,289.1 649.6,291.3 650.5,291.0 651.4,288.9 652.3,290.7 653.2,290.2 654.1,290.4 655.0,290.4 655.9,290.2 656.8,288.8 657.7,290.5 658.6,289.9 659.5,288.7 660.4,290.8 661.3,290.0 662.3,288.5 663.2,290.8 664.1,289.2 665.0,289.6 665.9,290.6 666.8,288.9 667.7,289.9 668.6,291.4 669.5,290.3 670.4,291.8 671.3,288.9 672.2,291.1 673.1,290.1 674.0,291.2 674.9,289.0" fill="none" stroke="#64748b" stroke-width="1.5" stroke-dasharray="5,3"/>
<polyline points="65.0,159.5 65.9,53.0 66.8,72.8 67.7,155.7 68.5,199.8 69.4,202.5 70.3,201.1 71.2,200.2 72.1,199.6 73.0,199.4 73.9,199.6 74.8,200.4 75.7,200.7 76.6,201.2 77.5,201.6 78.4,202.2 79.3,203.0 80.2,203.8 81.1,204.2 82.0,204.6 82.9,204.9 83.8,205.9 84.7,206.4 85.6,206.8 86.5,207.5 87.4,208.3 88.3,209.2 89.2,209.9 90.1,210.2 91.0,211.8 91.9,212.0 92.8,213.6 93.7,214.0 94.6,215.9 95.5,215.9 96.4,217.7 97.3,218.3 98.2,219.3 99.1,220.6 100.0,222.1 100.9,223.2 101.8,224.5 102.7,224.2 103.6,226.2 104.5,226.5 105.4,227.1 106.3,228.7 107.2,229.2 108.1,229.9 109.0,230.8 109.9,231.3 110.9,232.6 111.8,233.2 112.7,233.8 113.6,233.7 114.5,234.9 115.4,235.2 116.3,235.9 117.2,236.6 118.1,237.3 119.0,237.3 119.9,238.2 120.8,238.4 121.7,238.8 122.6,239.3 123.5,240.4 124.4,240.4 125.3,240.9 126.2,241.5 127.1,242.2 128.0,242.5 128.9,242.1 129.8,243.7 130.7,244.5 131.6,245.0 132.5,245.4 133.4,245.9 134.3,245.7 135.2,246.7 136.1,247.7 137.0,248.1 137.9,248.0 138.8,249.4 139.7,249.2 140.6,249.3 141.5,249.9 142.4,250.5 143.3,252.6 144.2,251.6 145.1,251.7 146.1,252.4 146.9,252.7 147.8,252.5 148.7,252.2 149.6,253.6 150.5,254.0 151.4,254.5 152.3,254.2 153.3,253.8 154.2,255.4 155.1,255.5 156.0,255.4 156.9,257.3 157.8,256.1 158.7,255.6 159.6,256.4 160.5,256.4 161.4,256.8 162.3,257.5 163.2,257.4 164.1,256.9 165.0,257.7 165.9,258.2 166.8,258.4 167.7,257.9 168.6,258.8 169.5,259.6 170.4,259.8 171.3,258.9 172.2,259.7 173.1,260.3 174.0,259.5 174.9,259.7 175.8,259.5 176.7,260.6 177.6,259.9 178.5,260.9 179.5,261.0 180.4,261.0 181.3,260.6 182.1,261.3 183.1,261.7 184.0,261.1 184.9,261.1 185.8,261.3 186.7,262.3 187.6,262.6 188.5,261.9 189.4,262.1 190.3,262.9 191.2,262.6 192.1,263.6 193.0,263.1 193.9,262.9 194.8,262.5 195.7,263.3 196.6,262.3 197.5,263.5 198.5,264.2 199.4,263.6 200.3,263.9 201.2,263.3 202.1,263.5 203.0,263.9 203.9,263.8 204.8,264.1 205.7,265.3 206.6,263.8 207.5,264.5 208.4,264.5 209.3,264.2 210.2,264.8 211.1,264.8 212.0,265.6 212.9,265.2 213.8,264.6 214.7,263.9 215.6,265.0 216.5,265.4 217.4,264.4 218.3,265.6 219.2,265.6 220.1,265.4 221.0,265.6 221.9,267.3 222.8,266.6 223.7,266.5 224.6,266.4 225.5,265.8 226.4,266.2 227.3,266.4 228.2,265.4 229.1,267.9 230.0,266.5 230.9,266.4 231.8,266.3 232.7,267.9 233.6,265.7 234.5,268.6 235.4,268.1 236.3,266.8 237.2,268.6 238.1,268.2 239.0,268.0 239.9,269.0 240.8,269.1 241.7,268.3 242.6,268.0 243.5,269.4 244.4,268.1 245.3,269.1 246.2,269.7 247.1,269.1 248.0,268.9 248.9,269.4 249.8,270.3 250.7,269.1 251.6,270.0 252.5,269.5 253.4,269.8 254.3,270.2 255.2,270.5 256.1,270.4 257.0,270.1 257.9,271.5 258.7,270.8 259.7,270.9 260.6,272.7 261.5,271.6 262.4,271.4 263.3,271.9 264.2,271.5 265.1,272.5 266.0,272.8 266.9,271.4 267.8,272.5 268.7,271.9 269.6,273.5 270.5,272.7 271.4,271.7 272.3,272.6 273.2,272.6 274.1,273.3 275.0,274.1 275.9,273.2 276.8,273.6 277.7,272.7 278.6,272.1 279.5,274.8 280.4,275.2 281.3,274.8 282.2,274.7 283.1,275.1 284.0,273.7 285.0,274.5 285.9,275.3 286.8,275.1 287.7,275.6 288.6,276.0 289.5,276.0 290.4,275.2 291.3,275.7 292.2,274.6 293.1,276.3 294.0,276.5 294.9,275.6 295.8,275.5 296.7,275.8 297.6,276.8 298.5,276.9 299.4,276.6 300.3,275.6 301.2,275.1 302.1,276.3 303.0,277.6 303.9,277.0 304.8,277.2 305.7,277.0 306.6,276.3 307.5,276.6 308.4,276.9 309.3,276.9 310.2,278.9 311.1,278.1 312.0,277.2 312.9,278.6 313.8,277.6 314.7,277.0 315.7,277.2 316.6,277.2 317.5,277.6 318.4,277.4 319.3,279.0 320.2,279.5 321.1,278.9 322.0,277.9 322.9,278.8 323.8,279.9 324.7,279.3 325.6,279.4 326.5,278.7 327.4,278.8 328.3,279.8 329.2,279.9 330.1,278.1 331.0,278.5 331.9,279.5 332.8,278.7 333.7,277.3 334.6,280.1 335.5,278.4 336.4,280.5 337.3,280.9 338.2,279.3 339.1,279.6 340.0,280.4 340.9,279.9 341.8,279.5 342.7,279.2 343.6,280.1 344.6,280.2 345.5,279.1 346.4,280.5 347.3,280.1 348.2,281.7 349.1,279.1 350.0,280.1 350.9,281.7 351.8,281.0 352.7,280.7 353.6,280.8 354.5,280.2 355.4,279.4 356.3,281.2 357.2,281.1 358.1,280.6 359.0,280.3 359.9,280.9 360.8,281.4 361.7,281.7 362.6,281.4 363.5,281.6 364.4,280.7 365.3,281.4 366.2,281.5 367.1,281.6 368.0,279.2 368.9,282.2 369.8,283.2 370.7,280.9 371.6,280.5 372.5,282.3 373.4,280.7 374.3,282.4 375.2,281.5 376.1,282.1 377.0,282.8 377.9,281.3 378.8,279.9 379.7,280.6 380.6,282.4 381.5,282.6 382.4,282.4 383.3,282.6 384.3,282.5 385.2,281.0 386.1,281.7 387.0,280.6 387.9,283.8 388.8,280.9 389.7,282.7 390.6,282.4 391.5,282.2 392.4,281.8 393.3,282.4 394.2,280.7 395.1,282.8 396.0,282.5 396.9,282.0 397.8,281.5 398.7,282.2 399.6,281.9 400.5,284.3 401.4,281.9 402.3,283.1 403.2,282.1 404.1,282.6 405.0,283.0 406.0,282.0 406.9,283.3 407.8,282.8 408.7,284.1 409.6,283.3 410.5,282.6 411.4,282.2 412.3,282.9 413.2,283.1 414.1,283.6 415.0,283.0 415.9,282.5 416.8,283.9 417.7,283.2 418.6,283.3 419.5,284.3 420.4,283.8 421.3,280.3 422.2,283.8 423.1,282.0 424.0,282.3 424.9,283.4 425.8,284.0 426.7,284.7 427.6,282.6 428.5,283.7 429.4,285.3 430.3,285.9 431.2,285.5 432.1,281.4 433.0,283.5 433.9,283.8 434.8,283.8 435.7,283.5 436.6,284.4 437.5,282.8 438.4,284.0 439.4,284.8 440.2,284.3 441.1,283.2 442.0,282.2 442.9,283.8 443.8,284.4 444.7,283.8 445.6,284.9 446.5,284.9 447.4,284.5 448.3,284.2 449.2,284.1 450.1,285.0 451.0,284.8 451.9,282.8 452.8,284.8 453.7,283.6 454.7,282.7 455.6,283.8 456.5,284.3 457.4,283.1 458.3,282.9 459.2,284.4 460.1,284.2 461.0,284.8 461.9,285.4 462.8,285.7 463.7,284.1 464.6,283.7 465.5,285.2 466.4,285.5 467.3,286.6 468.2,283.6 469.1,284.4 470.0,283.8 470.9,285.5 471.8,285.8 472.8,284.8 473.7,284.8 474.6,284.5 475.5,284.1 476.4,285.3 477.3,284.6 478.2,285.0 479.1,284.3 480.0,284.8 480.9,284.5 481.8,284.6 482.7,285.2 483.6,284.6 484.5,285.3 485.4,285.8 486.3,283.7 487.2,285.0 488.1,284.3 489.0,285.2 489.9,284.6 490.8,284.7 491.7,284.2 492.6,285.8 493.5,285.6 494.4,286.4 495.3,284.9 496.2,285.1 497.1,285.2 498.0,284.3 498.9,285.7 499.8,284.6 500.7,285.7 501.6,285.9 502.5,285.0 503.4,285.9 504.3,284.6 505.2,286.5 506.1,285.1 507.0,287.0 507.9,285.4 508.8,284.8 509.7,286.0 510.6,284.9 511.5,286.7 512.4,285.1 513.3,286.1 514.2,284.6 515.1,284.9 516.0,285.0 516.9,286.3 517.8,286.2 518.7,285.2 519.6,285.3 520.5,285.8 521.4,286.8 522.3,284.6 523.2,285.9 524.1,286.8 525.0,287.7 525.9,287.2 526.8,285.7 527.7,285.3 528.6,286.6 529.5,286.1 530.4,286.7 531.3,284.8 532.2,286.7 533.2,286.6 534.0,287.1 534.9,286.4 535.9,286.1 536.7,286.2 537.7,285.8 538.6,285.3 539.5,287.2 540.4,285.6 541.3,286.5 542.2,286.5 543.1,286.2 544.0,285.6 544.9,286.3 545.8,287.5 546.7,286.8 547.6,288.1 548.5,287.2 549.4,286.7 550.3,288.0 551.2,286.5 552.1,286.5 553.0,287.2 553.9,286.7 554.8,286.1 555.7,288.3 556.6,286.0 557.5,287.8 558.4,285.9 559.3,285.9 560.2,286.9 561.1,287.3 562.0,288.0 562.9,286.8 563.9,287.6 564.7,286.2 565.6,288.2 566.6,285.0 567.5,287.0 568.4,287.3 569.3,287.1 570.2,286.7 571.1,286.4 572.0,287.1 572.9,287.9 573.8,286.6 574.7,288.6 575.6,286.1 576.5,287.9 577.4,287.0 578.3,286.7 579.2,286.0 580.1,287.1 581.0,286.0 582.0,287.9 582.9,287.3 583.8,288.2 584.7,287.3 585.6,286.1 586.5,287.6 587.4,287.9 588.3,287.1 589.3,288.1 590.2,288.1 591.1,287.4 592.0,286.7 592.9,287.4 593.8,289.3 594.7,288.2 595.6,287.1 596.5,287.9 597.4,287.5 598.3,286.8 599.2,287.1 600.1,289.0 601.0,286.7 601.9,290.1 602.8,287.5 603.7,286.5 604.6,287.6 605.5,288.5 606.4,289.1 607.3,286.9 608.2,288.5 609.1,286.4 610.0,287.5 610.9,287.3 611.8,287.0 612.7,289.5 613.6,288.0 614.5,287.8 615.5,288.7 616.4,286.7 617.3,288.4 618.2,288.3 619.1,289.8 620.0,287.6 620.9,285.7 621.8,286.8 622.7,287.8 623.6,288.5 624.5,288.7 625.4,286.6 626.3,287.9 627.2,287.9 628.1,290.1 629.0,287.5 629.9,289.1 630.8,288.9 631.7,288.4 632.6,289.0 633.5,287.8 634.4,289.4 635.2,287.5 636.1,288.0 637.0,286.3 637.9,288.3 638.8,288.0 639.7,288.2 640.7,287.7 641.6,288.3 642.5,288.9 643.4,288.8 644.3,290.3 645.2,287.4 646.1,288.8 647.0,286.5 647.9,289.8 648.8,288.0 649.7,289.9 650.6,287.7 651.5,289.7 652.4,290.3 653.3,289.8 654.2,288.1 655.1,288.5 656.0,288.6 656.9,288.8 657.8,287.4 658.7,288.4 659.6,289.8 660.5,286.9 661.4,288.6 662.3,289.9 663.2,287.6 664.1,290.5 665.1,289.6 666.0,288.9 666.9,289.8 667.8,288.7 668.7,289.7 669.6,288.8 670.5,288.7 671.4,288.0 672.3,290.5 673.2,288.9 674.1,288.5 675.0,289.1" fill="none" stroke="#16a34a" stroke-width="1.5"/>
<polyline points="65.0,306.5 65.9,42.8 66.8,65.3 67.7,259.8 68.5,316.6 69.4,327.2 70.3,324.2 71.2,314.6 72.1,308.3 73.0,304.2 73.9,301.4 74.8,301.0 75.7,298.8 76.6,297.8 77.5,296.0 78.4,295.3 79.3,294.3 80.2,294.9 81.1,294.2 82.0,292.5 82.9,291.3 83.8,291.2 84.7,289.9 85.6,288.2 86.5,287.2 87.4,286.1 88.3,285.5 89.2,284.7 90.1,283.5 91.0,284.5 91.9,283.9 92.8,285.5 93.7,284.7 94.6,286.2 95.5,285.0 96.4,286.6 97.3,287.2 98.2,287.8 99.1,288.8 100.0,290.0 100.9,290.8 101.8,291.7 102.7,290.7 103.6,292.7 104.5,292.9 105.4,292.4 106.3,293.8 107.2,294.3 108.1,295.4 109.0,295.1 109.9,295.6 110.9,296.3 111.8,296.3 112.7,296.6 113.6,295.7 114.5,296.5 115.4,296.5 116.3,297.1 117.2,297.0 118.1,297.1 119.0,297.0 119.9,297.0 120.8,297.2 121.7,297.1 122.6,296.7 123.5,296.9 124.4,296.0 125.3,296.4 126.2,296.9 127.1,297.2 128.0,296.9 128.9,296.3 129.8,297.2 130.7,297.5 131.6,298.2 132.5,298.2 133.4,298.6 134.3,298.0 135.2,298.7 136.1,298.8 137.0,298.7 137.9,298.9 138.8,300.2 139.7,299.8 140.6,299.1 141.5,299.5 142.4,300.2 143.3,301.5 144.2,300.4 145.1,301.0 146.1,300.9 146.9,300.2 147.8,300.7 148.7,300.4 149.6,301.0 150.5,301.4 151.4,302.0 152.3,301.5 153.3,301.1 154.2,301.9 155.1,301.9 156.0,302.1 156.9,303.2 157.8,302.0 158.7,301.7 159.6,301.7 160.5,302.5 161.4,303.1 162.3,302.9 163.2,303.1 164.1,302.5 165.0,302.6 165.9,302.6 166.8,302.6 167.7,302.5 168.6,303.6 169.5,303.4 170.4,303.8 171.3,302.6 172.2,303.3 173.1,304.1 174.0,303.4 174.9,304.3 175.8,302.6 176.7,303.2 177.6,303.3 178.5,303.6 179.5,304.3 180.4,303.6 181.3,302.1 182.1,303.8 183.1,304.0 184.0,303.9 184.9,303.5 185.8,303.6 186.7,304.5 187.6,303.9 188.5,303.3 189.4,304.2 190.3,304.2 191.2,304.6 192.1,304.9 193.0,304.1 193.9,303.9 194.8,303.2 195.7,303.5 196.6,302.7 197.5,304.3 198.5,304.9 199.4,304.0 200.3,304.0 201.2,303.1 202.1,303.0 203.0,303.5 203.9,303.5 204.8,303.6 205.7,304.3 206.6,303.2 207.5,303.3 208.4,303.6 209.3,303.2 210.2,304.1 211.1,303.6 212.0,303.6 212.9,303.5 213.8,303.4 214.7,302.3 215.6,302.4 216.5,303.5 217.4,302.1 218.3,303.5 219.2,303.3 220.1,303.2 221.0,303.3 221.9,304.7 222.8,304.1 223.7,304.0 224.6,303.2 225.5,302.8 226.4,303.1 227.3,303.3 228.2,302.2 229.1,304.2 230.0,303.0 230.9,302.7 231.8,302.5 232.7,303.5 233.6,301.8 234.5,304.2 235.4,303.8 236.3,302.4 237.2,304.0 238.1,303.6 239.0,302.8 239.9,303.4 240.8,303.6 241.7,303.4 242.6,302.9 243.5,303.6 244.4,302.9 245.3,303.7 246.2,304.0 247.1,302.8 248.0,302.2 248.9,303.3 249.8,303.4 250.7,302.5 251.6,302.8 252.5,303.1 253.4,303.0 254.3,303.7 255.2,303.6 256.1,302.9 257.0,302.7 257.9,304.0 258.7,303.6 259.7,302.8 260.6,303.9 261.5,304.2 262.4,303.9 263.3,303.9 264.2,303.6 265.1,304.2 266.0,304.5 266.9,303.3 267.8,304.3 268.7,303.2 269.6,304.7 270.5,303.7 271.4,302.9 272.3,303.6 273.2,303.4 274.1,304.1 275.0,304.7 275.9,304.1 276.8,303.7 277.7,302.9 278.6,302.9 279.5,304.2 280.4,303.9 281.3,304.3 282.2,304.2 283.1,305.2 284.0,303.4 285.0,303.9 285.9,304.6 286.8,303.8 287.7,304.2 288.6,305.2 289.5,305.0 290.4,304.9 291.3,304.9 292.2,304.1 293.1,306.1 294.0,304.7 294.9,304.5 295.8,304.5 296.7,304.3 297.6,305.1 298.5,305.3 299.4,304.1 300.3,302.9 301.2,303.2 302.1,304.9 303.0,305.1 303.9,304.1 304.8,305.0 305.7,304.7 306.6,304.2 307.5,305.0 308.4,304.6 309.3,305.0 310.2,306.4 311.1,306.4 312.0,304.5 312.9,305.6 313.8,305.1 314.7,304.6 315.7,304.7 316.6,304.9 317.5,304.6 318.4,304.2 319.3,306.3 320.2,305.3 321.1,306.7 322.0,304.1 322.9,306.2 323.8,306.1 324.7,305.5 325.6,305.1 326.5,306.3 327.4,305.7 328.3,305.5 329.2,305.2 330.1,304.0 331.0,305.6 331.9,304.6 332.8,305.1 333.7,304.1 334.6,305.7 335.5,304.6 336.4,305.8 337.3,305.9 338.2,304.5 339.1,305.3 340.0,305.8 340.9,305.4 341.8,304.6 342.7,304.9 343.6,304.8 344.6,305.7 345.5,304.6 346.4,305.9 347.3,304.6 348.2,305.8 349.1,304.5 350.0,304.3 350.9,305.7 351.8,305.4 352.7,305.1 353.6,306.0 354.5,304.9 355.4,304.3 356.3,305.5 357.2,306.1 358.1,305.9 359.0,305.5 359.9,305.4 360.8,305.3 361.7,305.5 362.6,305.2 363.5,305.9 364.4,305.6 365.3,305.5 366.2,305.5 367.1,305.8 368.0,305.0 368.9,306.7 369.8,306.7 370.7,304.8 371.6,304.7 372.5,305.8 373.4,304.9 374.3,306.4 375.2,305.7 376.1,306.2 377.0,306.4 377.9,304.8 378.8,304.6 379.7,305.2 380.6,305.7 381.5,305.7 382.4,305.9 383.3,306.3 384.3,305.7 385.2,305.1 386.1,305.2 387.0,304.0 387.9,306.5 388.8,304.4 389.7,305.2 390.6,305.0 391.5,305.4 392.4,304.6 393.3,305.0 394.2,304.1 395.1,305.8 396.0,306.6 396.9,305.7 397.8,304.7 398.7,304.6 399.6,304.6 400.5,306.8 401.4,305.3 402.3,305.9 403.2,304.7 404.1,304.6 405.0,305.6 406.0,305.4 406.9,305.6 407.8,305.3 408.7,305.6 409.6,304.9 410.5,305.6 411.4,305.7 412.3,305.8 413.2,305.3 414.1,305.2 415.0,305.0 415.9,305.1 416.8,305.9 417.7,305.7 418.6,306.1 419.5,306.2 420.4,305.7 421.3,303.8 422.2,305.9 423.1,305.0 424.0,305.3 424.9,305.3 425.8,305.7 426.7,306.5 427.6,304.6 428.5,305.6 429.4,306.6 430.3,306.7 431.2,306.7 432.1,303.6 433.0,305.1 433.9,305.3 434.8,305.6 435.7,305.4 436.6,306.3 437.5,305.5 438.4,306.3 439.4,306.2 440.2,306.3 441.1,305.6 442.0,304.4 442.9,305.0 443.8,305.3 444.7,305.2 445.6,305.6 446.5,305.6 447.4,306.1 448.3,305.8 449.2,305.9 450.1,306.2 451.0,306.2 451.9,305.2 452.8,305.8 453.7,305.8 454.7,305.3 455.6,304.9 456.5,306.2 457.4,304.9 458.3,304.5 459.2,305.9 460.1,305.0 461.0,305.1 461.9,306.0 462.8,306.1 463.7,306.0 464.6,305.2 465.5,305.8 466.4,305.9 467.3,306.8 468.2,304.7 469.1,305.6 470.0,304.9 470.9,305.6 471.8,305.9 472.8,305.8 473.7,306.6 474.6,305.3 475.5,304.4 476.4,306.6 477.3,304.6 478.2,304.9 479.1,305.1 480.0,304.5 480.9,306.1 481.8,305.1 482.7,305.6 483.6,305.6 484.5,305.6 485.4,307.0 486.3,304.9 487.2,305.1 488.1,304.8 489.0,305.9 489.9,304.6 490.8,304.8 491.7,305.1 492.6,305.9 493.5,305.2 494.4,306.3 495.3,305.7 496.2,305.4 497.1,305.0 498.0,305.5 498.9,305.9 499.8,305.3 500.7,307.1 501.6,306.2 502.5,305.8 503.4,306.2 504.3,305.5 505.2,305.8 506.1,304.8 507.0,306.3 507.9,304.4 508.8,305.9 509.7,306.2 510.6,305.5 511.5,306.3 512.4,305.0 513.3,305.6 514.2,304.9 515.1,304.9 516.0,305.0 516.9,306.4 517.8,305.8 518.7,306.3 519.6,306.0 520.5,306.3 521.4,306.4 522.3,304.6 523.2,306.2 524.1,307.3 525.0,307.0 525.9,306.6 526.8,306.0 527.7,305.7 528.6,305.8 529.5,305.3 530.4,306.1 531.3,304.9 532.2,306.2 533.2,306.2 534.0,306.9 534.9,306.1 535.9,305.0 536.7,305.1 537.7,304.9 538.6,304.1 539.5,306.1 540.4,304.7 541.3,304.9 542.2,305.3 543.1,305.1 544.0,304.7 544.9,305.5 545.8,306.5 546.7,306.0 547.6,306.9 548.5,306.2 549.4,305.5 550.3,305.9 551.2,305.7 552.1,305.8 553.0,306.6 553.9,305.8 554.8,305.5 555.7,306.4 556.6,305.3 557.5,306.9 558.4,305.9 559.3,305.6 560.2,305.8 561.1,306.1 562.0,306.7 562.9,306.1 563.9,306.3 564.7,305.1 565.6,306.5 566.6,304.4 567.5,305.9 568.4,306.4 569.3,305.9 570.2,306.2 571.1,305.7 572.0,304.9 572.9,305.4 573.8,304.9 574.7,306.1 575.6,304.5 576.5,305.6 577.4,305.7 578.3,305.7 579.2,304.8 580.1,305.6 581.0,304.9 582.0,305.8 582.9,305.5 583.8,306.1 584.7,305.4 585.6,305.0 586.5,306.0 587.4,305.4 588.3,305.6 589.3,306.1 590.2,305.6 591.1,305.6 592.0,305.1 592.9,306.1 593.8,307.1 594.7,306.8 595.6,306.0 596.5,306.1 597.4,306.0 598.3,305.2 599.2,304.8 600.1,306.5 601.0,305.6 601.9,307.5 602.8,305.8 603.7,305.2 604.6,305.1 605.5,305.4 606.4,306.3 607.3,305.4 608.2,307.1 609.1,304.6 610.0,304.2 610.9,304.7 611.8,304.7 612.7,306.6 613.6,305.5 614.5,305.6 615.5,305.7 616.4,304.8 617.3,306.3 618.2,305.8 619.1,305.5 620.0,305.1 620.9,304.6 621.8,304.8 622.7,305.6 623.6,306.1 624.5,305.8 625.4,305.4 626.3,305.9 627.2,305.6 628.1,307.0 629.0,305.0 629.9,305.3 630.8,306.0 631.7,306.3 632.6,305.5 633.5,305.3 634.4,306.8 635.2,304.4 636.1,305.6 637.0,303.5 637.9,305.8 638.8,306.0 639.7,305.6 640.7,304.5 641.6,305.9 642.5,305.5 643.4,306.2 644.3,307.1 645.2,304.9 646.1,306.8 647.0,304.5 647.9,307.3 648.8,305.6 649.7,305.6 650.6,304.6 651.5,306.8 652.4,306.3 653.3,306.2 654.2,305.1 655.1,305.3 656.0,305.6 656.9,306.4 657.8,304.6 658.7,305.6 659.6,307.0 660.5,304.1 661.4,305.7 662.3,307.2 663.2,304.6 664.1,307.2 665.1,306.4 666.0,305.5 666.9,306.9 667.8,305.6 668.7,305.5 669.6,305.5 670.5,304.8 671.4,305.8 672.3,306.2 673.2,305.7 674.1,304.9" fill="none" stroke="#2563eb" stroke-width="2.5"/>
<rect x="65" y="20" width="610" height="330" fill="none" stroke="#888" stroke-width="1.5"/>
<line x1="62" y1="315.6" x2="65" y2="315.6" stroke="#64748b" stroke-width="1" opacity="0.6"/>
<line x1="62" y1="275.6" x2="65" y2="275.6" stroke="#64748b" stroke-width="1" opacity="0.6"/>
<line x1="62" y1="225.1" x2="65" y2="225.1" stroke="#64748b" stroke-width="1" opacity="0.6"/>
<line x1="60" y1="156.6" x2="65" y2="156.6" stroke="#64748b" stroke-width="1.5"/>
<text x="57" y="156.6" text-anchor="end" dominant-baseline="middle" font-size="11" font-family="monospace,sans-serif" fill="#64748b">10</text>
<line x1="62" y1="88.0" x2="65" y2="88.0" stroke="#64748b" stroke-width="1" opacity="0.6"/>
<line x1="62" y1="48.0" x2="65" y2="48.0" stroke="#64748b" stroke-width="1" opacity="0.6"/>
<line x1="675" y1="306.5" x2="680" y2="306.5" stroke="#2563eb" stroke-width="1.5"/>
<text x="683" y="306.5" text-anchor="start" dominant-baseline="middle" font-size="11" font-family="monospace,sans-serif" fill="#2563eb">0.0</text>
<line x1="675" y1="191.3" x2="680" y2="191.3" stroke="#2563eb" stroke-width="1.5"/>
<text x="683" y="191.3" text-anchor="start" dominant-baseline="middle" font-size="11" font-family="monospace,sans-serif" fill="#2563eb">5.0</text>
<line x1="675" y1="76.1" x2="680" y2="76.1" stroke="#2563eb" stroke-width="1.5"/>
<text x="683" y="76.1" text-anchor="start" dominant-baseline="middle" font-size="11" font-family="monospace,sans-serif" fill="#2563eb">10.0</text>
<line x1="65.0" y1="350" x2="65.0" y2="355" stroke="#888" stroke-width="1.5"/>
<text x="65.0" y="368" text-anchor="middle" font-size="11" font-family="monospace,sans-serif">0</text>
<line x1="187.1" y1="350" x2="187.1" y2="355" stroke="#888" stroke-width="1.5"/>
<text x="187.1" y="368" text-anchor="middle" font-size="11" font-family="monospace,sans-serif">2</text>
<line x1="309.1" y1="350" x2="309.1" y2="355" stroke="#888" stroke-width="1.5"/>
<text x="309.1" y="368" text-anchor="middle" font-size="11" font-family="monospace,sans-serif">4</text>
<line x1="431.2" y1="350" x2="431.2" y2="355" stroke="#888" stroke-width="1.5"/>
<text x="431.2" y="368" text-anchor="middle" font-size="11" font-family="monospace,sans-serif">6</text>
<line x1="553.3" y1="350" x2="553.3" y2="355" stroke="#888" stroke-width="1.5"/>
<text x="553.3" y="368" text-anchor="middle" font-size="11" font-family="monospace,sans-serif">8</text>
<line x1="675.4" y1="350" x2="675.4" y2="355" stroke="#888" stroke-width="1.5"/>
<text x="675.4" y="368" text-anchor="middle" font-size="11" font-family="monospace,sans-serif">10</text>
<text x="370" y="392" text-anchor="middle" font-size="13" font-family="sans-serif">Runtime (minutes)</text>
<text transform="rotate(-90,28,185)" x="28" y="185" text-anchor="middle" font-size="13" font-family="sans-serif" fill="#64748b">Train loss (log scale)</text>
<text transform="rotate(90,746,185)" x="746" y="185" text-anchor="middle" font-size="13" font-family="sans-serif" fill="#2563eb">Train loss diff (exp − base)</text>
<rect x="72" y="26" width="140" height="62" fill="white" fill-opacity="0.85" stroke="#ddd" stroke-width="1" rx="3"/>
<line x1="77" y1="37" x2="99" y2="37" stroke="#64748b" stroke-width="1.5" stroke-dasharray="5,3"/>
<text x="104" y="41" font-size="11" font-family="sans-serif" fill="#64748b">Baseline train loss</text>
<line x1="77" y1="55" x2="99" y2="55" stroke="#16a34a" stroke-width="1.5"/>
<text x="104" y="59" font-size="11" font-family="sans-serif" fill="#16a34a">Experiment train loss</text>
<line x1="77" y1="73" x2="99" y2="73" stroke="#2563eb" stroke-width="2.5"/>
<text x="104" y="77" font-size="11" font-family="sans-serif" fill="#2563eb">Train loss diff</text>
</svg>