<svg xmlns="http://www.w3.org/2000/svg" viewBox="0 0 760 400" width="760" height="400" style="background:white">
<rect x="65" y="20" width="610" height="330" fill="#f9f9f9"/>
<line x1="65" y1="308.5" x2="675" y2="308.5" stroke="#ececec" stroke-width="1"/>
<line x1="65" y1="260.0" x2="675" y2="260.0" stroke="#ececec" stroke-width="1"/>
<line x1="65" y1="199.0" x2="675" y2="199.0" stroke="#ececec" stroke-width="1"/>
<line x1="65" y1="116.3" x2="675" y2="116.3" stroke="#ddd" stroke-width="1"/>
<line x1="65" y1="33.5" x2="675" y2="33.5" stroke="#ececec" stroke-width="1"/>
<line x1="65.0" y1="20" x2="65.0" y2="350" stroke="#ececec" stroke-width="1"/>
<line x1="187.1" y1="20" x2="187.1" y2="350" stroke="#ececec" stroke-width="1"/>
<line x1="309.3" y1="20" x2="309.3" y2="350" stroke="#ececec" stroke-width="1"/>
<line x1="431.4" y1="20" x2="431.4" y2="350" stroke="#ececec" stroke-width="1"/>
<line x1="553.6" y1="20" x2="553.6" y2="350" stroke="#ececec" stroke-width="1"/>
<line x1="675.7" y1="20" x2="675.7" y2="350" stroke="#ececec" stroke-width="1"/>
<line x1="65" y1="309.9" x2="675" y2="309.9" stroke="#2563eb" stroke-width="0.75" stroke-dasharray="3,3" opacity="0.4"/>
<polyline points="65.0,119.8 65.7,52.7 66.4,85.4 67.2,143.1 67.9,161.7 68.6,155.9 69.3,156.3 70.1,160.5 70.8,165.4 71.5,169.2 72.2,173.0 72.9,174.1 73.7,175.4 74.4,177.2 75.1,179.4 75.9,182.9 76.6,182.6 77.3,184.4 78.1,185.3 78.8,187.9 79.5,183.4 80.3,190.6 81.0,195.3 81.7,195.4 82.5,197.5 83.2,199.1 83.9,201.0 84.7,202.6 85.4,203.9 86.1,205.5 86.9,207.3 87.6,206.5 88.3,208.8 89.1,210.2 89.8,209.9 90.5,211.2 91.3,211.7 92.0,213.6 92.7,213.0 93.5,211.6 94.2,215.0 94.9,216.3 95.7,215.9 96.4,216.4 97.2,218.2 97.9,216.4 98.6,215.7 99.3,216.3 100.1,217.6 100.8,217.9 101.5,220.5 102.3,218.4 103.0,221.0 103.7,216.1 104.5,223.2 105.2,221.9 105.9,224.2 106.7,223.4 107.4,223.2 108.1,225.6 108.9,224.9 109.6,226.2 110.3,225.8 111.1,228.0 111.8,229.5 112.6,228.1 113.3,229.9 114.0,229.6 114.7,229.6 115.5,228.9 116.2,231.5 116.9,228.9 117.7,229.7 118.4,231.5 119.1,231.5 119.9,233.3 120.6,232.0 121.4,234.0 122.1,232.7 122.8,236.1 123.6,235.2 124.3,234.4 125.0,234.6 125.8,233.6 126.5,232.0 127.2,230.8 128.0,235.6 128.7,233.4 129.5,235.9 130.2,236.0 130.9,235.3 131.7,234.7 132.4,232.1 133.1,234.5 133.9,236.5 134.6,236.2 135.3,237.5 136.1,235.4 136.8,239.0 137.5,233.1 138.3,238.7 139.0,238.8 139.8,238.1 140.5,239.0 141.2,240.5 142.0,239.5 142.7,239.8 143.4,241.3 144.2,240.6 144.9,241.0 145.6,236.4 146.4,241.3 147.1,241.1 147.9,242.2 148.6,241.8 149.3,241.0 150.1,244.4 150.8,239.8 151.5,240.6 152.3,242.8 153.0,242.2 153.8,244.3 154.5,242.3 155.2,238.8 156.0,245.0 156.7,243.3 157.4,243.1 158.2,243.9 158.9,244.6 159.7,244.0 160.4,245.5 161.1,244.2 161.9,245.5 162.6,246.0 163.3,241.8 164.1,246.5 164.8,246.6 165.6,245.1 166.3,247.4 167.0,247.2 167.8,246.3 168.5,247.1 169.2,246.4 170.0,244.9 170.7,248.1 171.5,246.2 172.2,248.8 172.9,246.1 173.7,247.4 174.4,245.7 175.1,247.1 175.9,247.5 176.6,245.5 177.3,249.1 178.1,248.2 178.8,248.1 179.6,247.3 180.3,246.2 181.0,247.8 181.8,248.0 182.5,250.2 183.2,247.2 184.0,248.8 184.7,246.6 185.5,243.3 186.2,247.7 186.9,248.8 187.7,249.7 188.4,248.0 189.2,247.2 189.9,246.4 190.6,248.4 191.4,248.0 192.1,249.3 192.8,247.3 193.6,249.0 194.3,249.4 195.0,250.6 195.8,250.2 196.5,248.7 197.3,250.5 198.0,240.0 198.7,248.8 199.5,250.7 200.2,251.8 201.0,246.5 201.7,252.7 202.4,250.3 203.2,252.9 203.9,250.6 204.6,252.3 205.4,250.1 206.1,252.6 206.8,251.4 207.6,251.6 208.3,251.9 209.1,250.9 209.8,252.5 210.5,253.6 211.3,252.8 212.0,251.7 212.8,251.3 213.5,255.2 214.2,254.8 215.0,248.8 215.7,252.1 216.5,254.0 217.2,253.9 217.9,254.9 218.7,258.1 219.4,256.3 220.1,255.7 220.9,255.1 221.6,254.5 222.4,254.8 223.1,255.2 223.8,254.4 224.6,255.3 225.3,257.0 226.0,257.0 226.8,258.2 227.5,257.4 228.3,257.5 229.0,257.2 229.7,259.1 230.5,259.2 231.2,258.0 232.0,260.6 232.7,258.7 233.4,260.1 234.2,259.0 234.9,260.3 235.6,259.9 236.4,261.2 237.1,260.1 237.8,262.0 238.6,262.1 239.3,259.5 240.1,244.4 240.8,260.8 241.5,257.8 242.3,257.5 243.0,260.7 243.7,264.4 244.5,257.7 245.2,257.9 246.0,260.4 246.7,260.1 247.4,259.8 248.2,261.3 248.9,262.3 249.6,260.4 250.4,261.6 251.1,260.3 251.9,259.6 252.6,263.2 253.3,261.6 254.1,260.1 254.8,260.7 255.5,264.0 256.3,263.3 257.0,262.9 257.7,261.4 258.5,264.1 259.2,262.7 259.9,263.8 260.7,261.5 261.4,262.5 262.2,261.4 262.9,259.0 263.6,259.5 264.4,262.0 265.1,264.0 265.8,261.6 266.6,258.9 267.3,262.2 268.1,262.2 268.8,261.9 269.5,261.5 270.3,260.3 271.0,264.5 271.7,264.6 272.5,258.7 273.2,254.7 273.9,255.7 274.7,260.8 275.4,262.0 276.2,263.4 276.9,259.3 277.6,261.9 278.4,263.4 279.1,265.7 279.8,262.5 280.6,260.2 281.3,262.3 282.1,263.6 282.8,262.4 283.5,262.0 284.3,259.0 285.0,263.3 285.7,262.5 286.5,262.8 287.2,263.2 287.9,262.9 288.7,268.3 289.4,263.3 290.2,263.3 290.9,264.3 291.7,265.5 292.4,263.1 293.1,263.1 293.9,262.9 294.6,260.9 295.3,268.0 296.1,266.2 296.8,263.6 297.6,263.3 298.3,266.8 299.0,266.5 299.8,263.4 300.5,264.6 301.3,263.9 302.0,263.0 302.7,266.0 303.5,266.6 304.2,265.9 304.9,266.2 305.7,264.5 306.4,266.9 307.1,266.5 307.9,267.8 308.6,267.3 309.3,266.6 310.1,264.8 310.8,264.8 311.6,265.7 312.3,267.6 313.0,268.6 313.8,268.4 314.5,269.6 315.3,266.7 316.0,266.4 316.7,264.1 317.5,267.2 318.2,268.5 318.9,267.1 319.7,264.7 320.4,267.2 321.2,272.0 321.9,269.2 322.6,267.2 323.4,266.8 324.1,267.8 324.9,268.5 325.6,269.5 326.3,267.1 327.1,268.4 327.8,267.2 328.5,271.3 329.3,266.2 330.0,267.9 330.7,268.3 331.5,268.8 332.2,268.6 332.9,269.2 333.7,272.0 334.4,266.2 335.2,269.5 335.9,265.3 336.6,266.1 337.4,263.6 338.1,267.2 338.9,267.9 339.6,266.1 340.3,267.3 341.1,269.8 341.8,267.3 342.6,265.1 343.3,272.1 344.0,251.6 344.8,262.1 345.5,260.5 346.2,275.1 347.0,264.9 347.7,269.8 348.5,265.1 349.2,266.7 349.9,268.6 350.7,267.2 351.4,265.8 352.1,266.0 352.9,267.9 353.6,267.1 354.3,267.6 355.1,267.2 355.8,267.7 356.6,266.3 357.3,274.1 358.0,268.6 358.8,266.3 359.5,267.1 360.3,267.6 361.0,266.1 361.7,267.6 362.5,268.9 363.2,266.8 363.9,267.7 364.7,268.2 365.4,270.2 366.1,267.5 366.9,270.8 367.6,267.9 368.4,267.0 369.1,265.9 369.8,268.4 370.6,277.4 371.3,269.7 372.0,265.5 372.8,267.6 373.5,265.7 374.3,265.4 375.0,267.5 375.7,266.6 376.4,270.2 377.2,268.7 377.9,269.0 378.7,267.6 379.4,269.5 380.1,273.2 380.9,279.5 381.6,270.0 382.4,269.6 383.1,269.3 383.8,269.6 384.6,272.7 385.3,270.3 386.1,268.3 386.8,272.7 387.5,270.7 388.3,273.3 389.0,268.6 389.7,271.4 390.5,270.0 391.2,270.2 391.9,270.5 392.7,272.7 393.4,268.8 394.2,265.9 394.9,270.9 395.6,273.7 396.4,269.4 397.1,272.0 397.9,272.6 398.6,269.7 399.3,271.8 400.0,273.2 400.8,271.2 401.5,270.1 402.3,273.8 403.0,270.9 403.7,273.0 404.5,274.1 405.2,270.7 405.9,272.4 406.7,271.0 407.4,273.8 408.2,274.0 408.9,270.9 409.6,267.2 410.4,268.8 411.1,269.2 411.9,270.4 412.6,270.7 413.3,270.3 414.1,269.7 414.8,268.3 415.6,268.7 416.3,269.6 417.0,271.5 417.8,269.3 418.5,266.8 419.2,270.3 420.0,269.8 420.7,269.3 421.4,268.6 422.2,269.2 422.9,272.8 423.7,265.8 424.4,272.7 425.1,267.7 425.9,273.7 426.6,271.9 427.4,270.9 428.1,269.3 428.8,270.0 429.6,275.4 430.3,271.9 431.1,270.4 431.8,271.7 432.5,270.3 433.3,270.1 434.0,266.5 434.7,272.1 435.5,268.7 436.2,268.8 436.9,269.5 437.7,271.6 438.4,269.8 439.2,272.0 439.9,272.8 440.6,271.9 441.4,267.8 442.1,270.8 442.8,269.0 443.6,271.6 444.3,266.6 445.0,268.9 445.8,269.4 446.5,271.2 447.2,272.4 448.0,272.6 448.7,266.4 449.5,268.4 450.2,270.6 450.9,268.3 451.7,269.7 452.4,270.5 453.1,271.3 453.9,271.2 454.6,272.2 455.4,271.2 456.1,269.9 456.8,270.5 457.6,269.8 458.3,272.7 459.0,273.1 459.8,275.3 460.5,271.2 461.3,272.5 462.0,272.8 462.7,276.0 463.5,274.0 464.2,273.0 464.9,276.6 465.7,273.5 466.4,272.7 467.2,275.0 467.9,274.3 468.6,273.8 469.4,272.5 470.1,276.1 470.8,275.6 471.6,270.5 472.3,278.0 473.0,276.1 473.8,275.1 474.5,274.1 475.3,275.2 476.0,276.6 476.7,273.6 477.5,275.0 478.2,273.3 479.0,273.1 479.7,272.6 480.4,269.2 481.2,267.8 481.9,272.3 482.6,270.9 483.4,273.4 484.1,271.0 484.8,270.3 485.6,271.5 486.3,271.4 487.0,271.9 487.8,279.3 488.5,274.7 489.3,272.6 490.0,274.4 490.7,273.8 491.5,278.7 492.2,258.4 492.9,271.8 493.7,272.6 494.4,276.6 495.1,272.8 495.9,274.0 496.6,274.3 497.4,273.5 498.1,276.4 498.8,274.5 499.6,272.5 500.3,272.2 501.0,271.4 501.8,271.3 502.5,271.4 503.2,271.4 504.0,271.8 504.7,271.3 505.5,272.1 506.2,272.6 506.9,274.3 507.7,274.1 508.4,273.8 509.1,273.3 509.9,269.4 510.6,270.8 511.3,272.6 512.1,272.9 512.8,275.9 513.5,273.4 514.3,270.3 515.0,272.4 515.8,272.6 516.5,270.9 517.2,272.9 518.0,275.7 518.7,274.1 519.4,272.7 520.2,276.0 520.9,276.4 521.7,272.8 522.4,267.7 523.1,276.9 523.9,275.3 524.6,274.4 525.3,276.0 526.1,278.2 526.8,275.6 527.6,274.6 528.3,277.0 529.0,273.0 529.8,277.3 530.5,281.3 531.2,274.9 532.0,274.8 532.7,277.9 533.5,274.4 534.2,276.6 534.9,275.9 535.7,276.2 536.4,276.5 537.1,274.5 537.9,272.7 538.6,277.3 539.4,275.1 540.1,277.9 540.8,279.8 541.6,275.7 542.3,276.6 543.0,276.6 543.8,275.5 544.5,277.6 545.2,278.1 546.0,274.1 546.7,275.6 547.5,276.7 548.2,270.1 548.9,274.0 549.7,275.2 550.4,272.7 551.1,275.4 551.9,275.6 552.6,275.6 553.4,274.8 554.1,276.2 554.8,271.5 555.6,272.5 556.3,265.9 557.0,274.9 557.8,273.8 558.5,275.8 559.2,276.9 560.0,279.1 560.7,273.6 561.5,276.7 562.2,273.2 562.9,272.3 563.7,271.3 564.4,272.7 565.2,275.1 565.9,275.9 566.6,280.3 567.4,276.8 568.1,274.6 568.8,275.5 569.6,260.9 570.3,276.9 571.0,276.4 571.8,274.0 572.5,274.9 573.3,275.8 574.0,275.8 574.7,276.3 575.5,275.4 576.2,278.3 576.9,271.3 577.7,275.9 578.4,276.4 579.2,279.1 579.9,283.6 580.6,279.9 581.4,277.5 582.1,277.8 582.8,275.4 583.6,276.0 584.3,276.5 585.0,277.2 585.8,276.3 586.5,275.6 587.3,274.3 588.0,279.9 588.7,277.1 589.5,273.7 590.2,270.0 590.9,274.0 591.7,276.9 592.4,278.1 593.1,279.0 593.9,276.1 594.6,273.8 595.4,281.4 596.1,270.3 596.8,278.2 597.6,275.5 598.3,279.5 599.1,276.5 599.8,276.2 600.5,276.6 601.3,275.1 602.0,273.2 602.7,275.3 603.5,277.2 604.2,286.5 605.0,278.8 605.7,274.6 606.4,276.1 607.2,274.3 607.9,272.3 608.6,275.9 609.4,277.5 610.1,275.1 610.9,278.5 611.6,278.1 612.3,276.3 613.1,277.7 613.8,278.4 614.6,278.1 615.3,273.8 616.0,275.3 616.8,276.8 617.5,279.0 618.3,275.3 619.0,287.6 619.7,274.6 620.5,277.9 621.2,274.8 621.9,271.4 622.7,281.9 623.4,274.8 624.2,276.4 624.9,273.2 625.6,276.1 626.4,277.5 627.1,275.6 627.9,274.0 628.6,274.0 629.3,273.0 630.1,275.5 630.8,276.9 631.6,276.2 632.3,278.3 633.0,281.9 633.8,279.1 634.5,278.7 635.2,276.7 636.0,278.3 636.7,278.5 637.4,277.2 638.2,277.3 638.9,275.2 639.6,276.3 640.4,276.4 641.1,277.7 641.8,278.0 642.6,276.2 643.3,279.2 644.1,278.6 644.8,281.1 645.5,280.1 646.3,279.2 647.0,274.3 647.7,280.3 648.5,281.9 649.2,292.1 650.0,280.0 650.7,278.3 651.4,277.4 652.2,278.2 652.9,281.5 653.6,279.4 654.4,279.0 655.1,277.7 655.9,282.5 656.6,278.6 657.3,281.7 658.1,278.3 658.8,278.7 659.5,277.4 660.3,278.6 661.0,278.8 661.8,278.2 662.5,281.6 663.2,276.4 664.0,278.2 664.7,277.5 665.4,282.3 666.2,279.1 666.9,280.0 667.6,282.8 668.4,279.9 669.1,280.2 669.8,277.4 670.6,281.5 671.3,280.2 672.1,280.6 672.8,278.8 673.5,277.9 674.3,276.0 675.0,282.3" fill="none" stroke="#64748b" stroke-width="1.5" stroke-dasharray="5,3"/>
<polyline points="65.0,119.3 66.1,53.4 67.2,87.7 68.2,144.0 69.3,161.5 70.4,154.1 71.5,155.3 72.6,159.3 73.7,163.1 74.7,168.1 75.8,171.9 76.9,174.0 78.0,175.7 79.1,178.0 80.2,179.4 81.3,181.2 82.4,182.1 83.5,184.4 84.5,185.9 85.6,188.2 86.7,190.0 87.8,192.9 88.9,194.6 90.0,196.6 91.1,198.4 92.2,200.0 93.3,201.5 94.4,202.5 95.5,204.7 96.5,205.7 97.6,206.8 98.7,207.8 99.8,208.7 100.9,209.9 102.0,210.7 103.1,212.1 104.2,212.2 105.3,212.4 106.4,213.7 107.4,214.0 108.5,215.1 109.6,215.6 110.7,216.1 111.8,217.0 112.9,217.7 114.0,218.2 115.1,218.3 116.2,219.2 117.3,219.8 118.4,220.3 119.4,221.4 120.5,222.0 121.6,222.7 122.7,223.7 123.8,224.5 124.9,224.7 126.0,224.8 127.1,227.3 128.2,226.2 129.3,227.1 130.3,229.4 131.4,229.5 132.5,229.2 133.6,231.5 134.7,231.7 135.8,231.3 136.9,231.0 138.0,233.3 139.1,232.2 140.2,234.0 141.3,232.2 142.4,234.5 143.5,236.1 144.6,235.9 145.7,234.9 146.8,235.2 147.8,236.3 148.9,236.9 150.0,236.7 151.1,237.5 152.2,238.9 153.3,238.8 154.4,237.7 155.5,237.7 156.6,238.4 157.7,238.8 158.8,240.1 159.9,240.3 161.0,240.0 162.1,240.0 163.2,240.8 164.3,241.4 165.3,240.8 166.4,241.5 167.5,240.5 168.6,241.7 169.7,241.3 170.8,242.1 171.9,242.8 173.0,242.2 174.1,242.2 175.2,243.4 176.3,244.2 177.4,242.0 178.5,243.7 179.6,243.1 180.7,244.2 181.8,244.3 182.9,244.2 184.0,245.1 185.1,244.3 186.2,244.6 187.2,245.8 188.3,244.6 189.4,244.5 190.5,244.5 191.6,245.7 192.7,245.8 193.8,245.5 194.9,246.4 196.0,247.2 197.1,246.7 198.2,245.2 199.3,246.8 200.4,245.3 201.5,247.7 202.6,246.9 203.7,245.6 204.8,247.6 205.9,247.9 207.0,248.1 208.1,248.0 209.2,248.0 210.2,247.6 211.3,249.2 212.4,248.7 213.5,249.4 214.6,249.0 215.7,248.7 216.8,249.4 217.9,250.1 219.0,249.0 220.1,248.5 221.2,251.0 222.3,249.7 223.4,250.4 224.5,249.1 225.6,250.0 226.7,250.9 227.8,251.2 228.9,251.6 230.0,252.5 231.1,251.3 232.2,251.8 233.3,252.9 234.4,253.4 235.4,251.6 236.5,253.6 237.6,252.5 238.7,253.2 239.8,254.0 240.9,252.6 242.0,253.1 243.1,254.3 244.2,254.3 245.3,254.4 246.4,253.8 247.5,255.0 248.6,254.4 249.7,254.2 250.8,255.6 251.9,254.9 252.9,254.1 254.0,255.4 255.2,256.2 256.2,255.0 257.3,255.7 258.4,256.2 259.5,256.5 260.6,256.1 261.7,256.2 262.8,258.1 263.9,257.7 265.0,255.3 266.1,257.1 267.1,256.0 268.2,256.7 269.3,257.0 270.4,257.7 271.5,258.8 272.6,256.3 273.7,257.8 274.8,259.1 275.9,257.6 277.0,257.4 278.1,258.9 279.2,258.0 280.3,257.7 281.3,258.7 282.4,256.7 283.5,258.7 284.6,259.3 285.7,259.1 286.8,260.3 287.9,259.1 289.0,260.7 290.1,259.2 291.2,260.9 292.3,260.6 293.4,259.9 294.5,258.6 295.5,260.6 296.6,259.0 297.7,260.4 298.8,260.7 299.9,261.2 301.0,261.6 302.1,260.1 303.2,261.5 304.3,259.9 305.3,260.2 306.4,262.1 307.5,260.5 308.6,260.4 309.7,261.1 310.8,261.1 311.8,262.4 312.9,261.3 314.0,261.9 315.1,262.1 316.2,261.3 317.3,261.3 318.3,261.2 319.4,262.1 320.5,261.8 321.6,260.4 322.7,262.9 323.7,262.4 324.8,261.7 325.9,262.8 327.0,261.4 328.1,261.7 329.2,262.1 330.3,262.5 331.3,263.0 332.4,263.0 333.5,263.2 334.6,263.2 335.7,262.4 336.8,265.9 337.9,265.2 339.0,263.4 340.1,264.2 341.2,264.3 342.2,264.8 343.3,263.3 344.4,264.5 345.5,261.5 346.6,263.0 347.7,263.2 348.8,264.4 349.9,263.5 351.0,265.2 352.1,263.1 353.2,263.8 354.3,264.4 355.4,264.6 356.5,263.7 357.6,265.8 358.6,265.7 359.7,263.1 360.8,265.0 361.9,262.5 363.0,266.0 364.1,265.7 365.2,264.6 366.3,265.1 367.4,265.5 368.5,266.6 369.6,265.1 370.7,265.5 371.8,265.5 372.9,264.9 373.9,265.7 375.0,265.3 376.1,262.2 377.2,265.4 378.3,264.2 379.4,264.3 380.5,265.0 381.6,264.3 382.7,265.5 383.8,265.7 384.9,264.7 386.0,267.3 387.1,265.6 388.2,266.1 389.3,265.6 390.3,267.5 391.4,266.6 392.5,266.4 393.6,267.8 394.7,267.7 395.8,266.6 396.9,267.3 398.0,268.1 399.1,268.3 400.2,264.9 401.2,268.4 402.3,269.0 403.4,265.7 404.5,265.9 405.6,266.1 406.7,268.1 407.8,266.6 408.9,266.6 410.0,266.3 411.1,268.2 412.2,265.5 413.2,266.7 414.3,266.6 415.4,267.8 416.5,265.8 417.6,268.1 418.7,269.2 419.8,268.0 420.9,267.7 421.9,268.1 423.0,266.9 424.1,268.4 425.2,268.5 426.3,267.3 427.4,267.1 428.5,267.4 429.5,266.6 430.6,267.7 431.7,267.6 432.8,268.4 433.9,268.0 435.0,268.2 436.1,268.9 437.2,266.5 438.3,269.5 439.3,266.2 440.4,269.4 441.5,269.9 442.6,268.9 443.7,269.3 444.8,268.7 445.9,269.2 447.0,269.3 448.1,269.1 449.2,267.8 450.3,268.6 451.4,268.6 452.5,267.6 453.5,268.1 454.6,268.1 455.7,268.9 456.8,268.4 457.9,268.7 459.0,271.1 460.1,269.6 461.2,268.9 462.3,269.9 463.3,271.1 464.4,269.4 465.5,269.4 466.6,269.2 467.7,272.8 468.8,267.2 469.9,271.6 471.0,271.4 472.0,270.6 473.1,269.5 474.2,270.2 475.3,268.8 476.4,269.8 477.5,269.7 478.6,270.6 479.7,267.8 480.7,271.7 481.8,270.5 482.9,269.8 484.0,271.3 485.1,271.5 486.2,270.2 487.3,270.0 488.4,272.4 489.5,270.9 490.6,271.5 491.6,271.4 492.7,271.7 493.8,271.2 494.9,270.5 496.0,270.6 497.1,270.6 498.2,271.5 499.2,268.3 500.3,271.4 501.4,270.9 502.5,269.5 503.6,270.3 504.7,271.3 505.8,270.3 506.9,271.0 508.0,271.5 509.1,271.7 510.2,271.7 511.2,270.1 512.3,271.3 513.4,270.1 514.5,270.6 515.6,270.1 516.7,272.5 517.8,272.0 518.9,270.1 520.0,272.2 521.1,272.1 522.2,269.8 523.2,270.9 524.3,271.7 525.4,271.8 526.5,269.8 527.6,270.9 528.7,270.7 529.8,272.4 530.9,271.3 532.0,272.1 533.1,272.1 534.2,271.4 535.3,271.1 536.4,271.2 537.4,270.8 538.5,271.0 539.6,271.4 540.7,271.7 541.8,272.1 542.9,270.9 544.0,272.4 545.1,270.6 546.1,272.4 547.2,271.6 548.3,273.1 549.4,272.1 550.5,272.5 551.6,271.2 552.7,273.4 553.7,272.1 554.8,272.1 555.9,274.0 557.0,273.1 558.1,271.5 559.2,274.2 560.3,272.2 561.4,272.5 562.5,272.5 563.6,272.9 564.7,272.1 565.8,273.8 566.8,272.8 567.9,272.0 569.0,270.8 570.1,273.0 571.2,272.5 572.3,271.4 573.4,272.7 574.5,272.1 575.5,273.1 576.6,273.3 577.7,272.2 578.8,273.8 579.9,274.3 581.0,272.8 582.1,275.2 583.2,272.7 584.2,273.5 585.3,270.8 586.4,273.4 587.5,273.8 588.6,273.4 589.7,273.2 590.8,272.5 591.9,274.2 593.0,274.3 594.0,273.4 595.1,272.3 596.2,275.0 597.3,273.5 598.4,274.8 599.5,271.8 600.6,273.7 601.7,272.7 602.8,273.6 603.9,273.6 604.9,273.8 606.0,275.1 607.1,273.9 608.2,274.8 609.3,273.7 610.4,272.4 611.5,274.9 612.6,273.3 613.7,275.1 614.7,275.0 615.8,273.3 616.9,273.6 618.0,272.5 619.1,275.3 620.2,272.6 621.3,272.0 622.4,273.7 623.4,274.4 624.5,275.0 625.6,274.8 626.7,273.5 627.8,275.2 628.9,273.9 630.0,274.7 631.1,275.1 632.2,273.6 633.3,275.9 634.3,274.2 635.4,273.8 636.5,274.6 637.6,275.0 638.7,275.0 639.8,272.4 640.9,275.4 642.0,274.1 643.0,274.6 644.1,275.1 645.2,274.1 646.3,275.4 647.4,275.8 648.5,276.1 649.6,276.2 650.7,274.6 651.7,276.0 652.8,273.5 653.9,275.7 655.0,276.5 656.1,275.8 657.2,274.0 658.3,275.2 659.4,273.4 660.5,274.5 661.6,275.3 662.7,275.4 663.7,276.0 664.8,275.3 665.9,275.8 667.0,275.4 668.1,273.1 669.2,273.1 670.2,274.0 671.3,275.7 672.4,275.8 673.5,277.6 674.6,274.9" fill="none" stroke="#16a34a" stroke-width="1.5"/>
<polyline points="65.0,307.2 66.1,200.6 67.2,42.8 68.2,257.5 69.3,327.2 70.4,280.4 71.5,265.1 72.6,265.3 73.7,272.4 74.7,280.1 75.8,279.2 76.9,283.4 78.0,283.6 79.1,287.7 80.2,282.1 81.3,273.1 82.4,271.0 83.5,271.2 84.5,269.3 85.6,270.5 86.7,269.4 87.8,276.4 88.9,274.5 90.0,278.8 91.1,280.1 92.2,279.9 93.3,286.6 94.4,281.9 95.5,285.4 96.5,286.3 97.6,288.2 98.7,292.9 99.8,292.0 100.9,292.6 102.0,292.2 103.1,292.4 104.2,293.6 105.3,290.2 106.4,289.7 107.4,291.3 108.5,289.8 109.6,289.0 110.7,288.8 111.8,285.8 112.9,288.0 114.0,287.9 115.1,288.8 116.2,286.7 117.3,291.7 118.4,288.8 119.4,289.6 120.5,290.8 121.6,289.6 122.7,288.3 123.8,290.7 124.9,291.8 126.0,294.5 127.1,302.8 128.2,293.8 129.3,295.1 130.3,298.3 131.4,300.2 132.5,303.8 133.6,302.0 134.7,301.5 135.8,301.6 136.9,297.5 138.0,304.1 139.1,298.5 140.2,301.7 141.3,295.6 142.4,301.0 143.5,301.1 144.6,301.5 145.7,306.9 146.8,299.7 147.8,299.9 148.9,302.2 150.0,297.4 151.1,305.4 152.2,303.7 153.3,302.9 154.4,301.8 155.5,304.2 156.6,301.4 157.7,302.3 158.8,302.7 159.9,303.0 161.0,302.6 162.1,300.6 163.2,306.7 164.3,301.5 165.3,302.3 166.4,300.4 167.5,299.9 168.6,301.2 169.7,303.2 170.8,300.7 171.9,301.8 173.0,303.4 174.1,303.0 175.2,303.9 176.3,306.4 177.4,298.6 178.5,302.8 179.6,303.3 180.7,305.3 181.8,304.1 182.9,302.7 184.0,304.2 185.1,308.5 186.2,305.5 187.2,304.7 188.3,304.3 189.4,306.1 190.5,304.2 191.6,305.5 192.7,307.0 193.8,304.1 194.9,303.6 196.0,305.8 197.1,304.5 198.2,314.5 199.3,304.4 200.4,301.8 201.5,304.6 202.6,303.6 203.7,301.2 204.8,303.3 205.9,303.8 207.0,304.6 208.1,304.1 209.2,305.1 210.2,301.3 211.3,304.6 212.4,305.5 213.5,301.1 214.6,305.6 215.7,304.8 216.8,303.0 217.9,302.7 219.0,297.4 220.1,298.9 221.2,304.0 222.3,302.2 223.4,303.1 224.5,300.5 225.6,299.3 226.7,299.3 227.8,300.6 228.9,301.5 230.0,300.0 231.1,299.6 232.2,297.7 233.3,299.8 234.4,301.1 235.4,297.5 236.5,299.1 237.6,296.9 238.7,297.8 239.8,318.3 240.9,298.7 242.0,303.2 243.1,299.7 244.2,301.3 245.3,304.4 246.4,300.5 247.5,302.8 248.6,299.2 249.7,300.7 250.8,302.1 251.9,303.1 252.9,297.9 254.0,303.0 255.2,301.2 256.2,298.0 257.3,300.5 258.4,298.9 259.5,300.5 260.6,301.8 261.7,301.6 262.8,308.2 263.9,306.2 265.0,298.0 266.1,304.6 267.1,302.1 268.2,302.2 269.3,303.3 270.4,304.9 271.5,301.7 272.6,307.5 273.7,313.5 274.8,307.3 275.9,302.3 277.0,306.8 278.1,304.4 279.2,299.6 280.3,304.9 281.3,304.7 282.4,300.9 283.5,305.3 284.6,307.4 285.7,305.1 286.8,306.1 287.9,304.5 289.0,302.2 290.1,304.1 291.2,304.7 292.3,305.9 293.4,305.5 294.5,306.0 295.5,300.4 296.6,302.6 297.7,304.8 298.8,301.7 299.9,306.6 301.0,306.3 302.1,305.3 303.2,303.2 304.3,301.5 305.3,302.9 306.4,303.3 307.5,300.7 308.6,300.2 309.7,303.4 310.8,304.7 311.8,304.4 312.9,300.2 314.0,300.5 315.1,302.7 316.2,303.5 317.3,303.0 318.3,300.2 319.4,305.1 320.5,301.9 321.6,296.2 322.7,304.1 323.7,303.1 324.8,300.7 325.9,302.3 327.0,300.5 328.1,300.2 329.2,303.4 330.3,302.3 331.3,302.1 332.4,302.1 333.5,298.9 334.6,304.7 335.7,304.3 336.8,310.3 337.9,308.8 339.0,304.1 340.1,306.2 341.2,302.8 342.2,308.3 343.3,299.3 344.4,320.8 345.5,311.1 346.6,300.9 347.7,301.0 348.8,307.9 349.9,303.1 351.0,308.0 352.1,305.9 353.2,304.9 354.3,305.6 355.4,306.2 356.5,306.1 357.6,301.4 358.6,308.5 359.7,304.2 360.8,307.9 361.9,302.5 363.0,308.1 364.1,307.1 365.2,303.1 366.3,305.8 367.4,305.4 368.5,309.6 369.6,306.5 370.7,295.8 371.8,307.8 372.9,306.4 373.9,310.1 375.0,307.0 376.1,301.1 377.2,305.4 378.3,304.4 379.4,302.9 380.5,295.3 381.6,302.0 382.7,304.6 383.8,304.7 384.9,300.6 386.0,308.3 387.1,301.4 388.2,300.9 389.3,304.8 390.3,306.2 391.4,304.9 392.5,302.1 393.6,309.6 394.7,307.4 395.8,301.8 396.9,304.7 398.0,304.8 399.1,306.2 400.2,299.3 401.2,307.0 402.3,303.9 403.4,301.4 404.5,299.4 405.6,302.5 406.7,306.1 407.8,300.3 408.9,304.2 410.0,307.7 411.1,308.6 412.2,303.1 413.2,305.0 414.3,306.4 415.4,308.8 416.5,304.0 417.6,307.7 418.7,311.9 419.8,307.4 420.9,308.0 421.9,308.7 423.0,303.8 424.1,307.6 425.2,310.3 426.3,302.8 427.4,305.0 428.5,306.9 429.5,298.9 430.6,305.2 431.7,304.6 432.8,307.6 433.9,311.2 435.0,306.3 436.1,310.0 437.2,305.1 438.3,309.0 439.3,302.0 440.4,306.3 441.5,311.6 442.6,309.2 443.7,308.4 444.8,310.5 445.9,309.3 447.0,306.4 448.1,306.4 449.2,310.2 450.3,307.5 451.4,309.2 452.5,306.0 453.5,305.8 454.6,304.5 455.7,307.8 456.8,307.1 457.9,306.7 459.0,307.3 460.1,304.8 461.2,305.5 462.3,304.7 463.3,305.8 464.4,303.7 465.5,303.8 466.6,304.7 467.7,307.9 468.8,301.6 469.9,305.6 471.0,305.6 472.0,304.0 473.1,301.6 474.2,304.4 475.3,301.6 476.4,303.2 477.5,303.1 478.6,306.6 479.7,303.5 480.7,314.0 481.8,308.1 482.9,307.1 484.0,309.9 485.1,310.9 486.2,308.3 487.3,304.2 488.4,305.9 489.5,307.0 490.6,306.8 491.6,306.8 492.7,315.4 493.8,307.3 494.9,305.2 496.0,305.5 497.1,305.6 498.2,304.0 499.2,303.3 500.3,309.0 501.4,309.4 502.5,307.3 503.6,308.3 504.7,309.8 505.8,307.3 506.9,305.9 508.0,306.7 509.1,307.8 510.2,312.2 511.2,306.9 512.3,306.5 513.4,305.1 514.5,309.5 515.6,306.8 516.7,311.3 517.8,306.1 518.9,305.2 520.0,306.4 521.1,305.2 522.2,310.4 523.2,302.6 524.3,306.0 525.4,304.3 526.5,301.2 527.6,304.8 528.7,304.8 529.8,303.5 530.9,301.8 532.0,306.4 533.1,304.8 534.2,303.3 535.3,303.6 536.4,303.3 537.4,306.0 538.5,302.6 539.6,303.9 540.7,300.1 541.8,305.0 542.9,302.7 544.0,305.3 545.1,300.6 546.1,307.3 547.2,303.8 548.3,312.9 549.4,306.6 550.5,309.3 551.6,304.5 552.7,307.1 553.7,305.5 554.8,310.6 555.9,316.3 557.0,307.9 558.1,305.8 559.2,306.7 560.3,304.2 561.4,305.0 562.5,309.5 563.6,311.8 564.7,308.2 565.8,307.5 566.8,301.8 567.9,305.9 569.0,308.3 570.1,311.6 571.2,305.4 572.3,305.8 573.4,305.9 574.5,304.8 575.5,306.6 576.6,308.8 577.7,305.1 578.8,304.9 579.9,298.7 581.0,302.5 582.1,306.7 583.2,306.2 584.2,306.2 585.3,302.3 586.4,307.1 587.5,306.8 588.6,304.7 589.7,310.8 590.8,309.1 591.9,306.1 593.0,304.4 594.0,307.1 595.1,301.6 596.2,314.3 597.3,306.2 598.4,304.6 599.5,304.2 600.6,306.4 601.7,308.2 602.8,307.7 603.9,299.8 604.9,303.5 606.0,309.7 607.1,309.3 608.2,311.1 609.3,305.3 610.4,305.0 611.5,305.9 612.6,305.6 613.7,306.0 614.7,307.3 615.8,307.9 616.9,305.3 618.0,304.7 619.1,297.4 620.2,304.9 621.3,306.7 622.4,305.6 623.4,309.2 624.5,310.2 625.6,308.3 626.7,305.9 627.8,311.2 628.9,310.3 630.0,309.3 631.1,308.0 632.2,304.5 633.3,303.6 634.3,304.3 635.4,305.7 636.5,305.1 637.6,307.1 638.7,308.8 639.8,304.9 640.9,307.6 642.0,305.4 643.0,305.6 644.1,305.3 645.2,302.1 646.3,305.7 647.4,307.7 648.5,302.6 649.6,298.2 650.7,305.1 651.7,307.8 652.8,300.5 653.9,305.5 655.0,308.2 656.1,303.3 657.2,301.1 658.3,305.9 659.4,304.6 660.5,304.8 661.6,306.1 662.7,303.8 663.7,307.8 664.8,306.2 665.9,304.5 667.0,303.9 668.1,300.0 669.2,301.3 670.2,302.9 671.3,304.4 672.4,305.0 673.5,309.4 674.6,305.1" fill="none" stroke="#2563eb" stroke-width="2.5"/>
<rect x="65" y="20" width="610" height="330" fill="none" stroke="#888" stroke-width="1.5"/>
<line x1="62" y1="308.5" x2="65" y2="308.5" stroke="#64748b" stroke-width="1" opacity="0.6"/>
<line x1="62" y1="260.0" x2="65" y2="260.0" stroke="#64748b" stroke-width="1" opacity="0.6"/>
<line x1="62" y1="199.0" x2="65" y2="199.0" stroke="#64748b" stroke-width="1" opacity="0.6"/>
<line x1="60" y1="116.3" x2="65" y2="116.3" stroke="#64748b" stroke-width="1.5"/>
<text x="57" y="116.3" text-anchor="end" dominant-baseline="middle" font-size="11" font-family="monospace,sans-serif" fill="#64748b">10</text>
<line x1="62" y1="33.5" x2="65" y2="33.5" stroke="#64748b" stroke-width="1" opacity="0.6"/>
<line x1="675" y1="309.9" x2="680" y2="309.9" stroke="#2563eb" stroke-width="1.5"/>
<text x="683" y="309.9" text-anchor="start" dominant-baseline="middle" font-size="11" font-family="monospace,sans-serif" fill="#2563eb">0.0</text>
<line x1="675" y1="196.4" x2="680" y2="196.4" stroke="#2563eb" stroke-width="1.5"/>
<text x="683" y="196.4" text-anchor="start" dominant-baseline="middle" font-size="11" font-family="monospace,sans-serif" fill="#2563eb">2.0</text>
<line x1="675" y1="82.9" x2="680" y2="82.9" stroke="#2563eb" stroke-width="1.5"/>
<text x="683" y="82.9" text-anchor="start" dominant-baseline="middle" font-size="11" font-family="monospace,sans-serif" fill="#2563eb">4.0</text>
<line x1="65.0" y1="350" x2="65.0" y2="355" stroke="#888" stroke-width="1.5"/>
<text x="65.0" y="368" text-anchor="middle" font-size="11" font-family="monospace,sans-serif">0</text>
<line x1="187.1" y1="350" x2="187.1" y2="355" stroke="#888" stroke-width="1.5"/>
<text x="187.1" y="368" text-anchor="middle" font-size="11" font-family="monospace,sans-serif">2</text>
<line x1="309.3" y1="350" x2="309.3" y2="355" stroke="#888" stroke-width="1.5"/>
<text x="309.3" y="368" text-anchor="middle" font-size="11" font-family="monospace,sans-serif">4</text>
<line x1="431.4" y1="350" x2="431.4" y2="355" stroke="#888" stroke-width="1.5"/>
<text x="431.4" y="368" text-anchor="middle" font-size="11" font-family="monospace,sans-serif">6</text>
<line x1="553.6" y1="350" x2="553.6" y2="355" stroke="#888" stroke-width="1.5"/>
<text x="553.6" y="368" text-anchor="middle" font-size="11" font-family="monospace,sans-serif">8</text>
<line x1="675.7" y1="350" x2="675.7" y2="355" stroke="#888" stroke-width="1.5"/>
<text x="675.7" y="368" text-anchor="middle" font-size="11" font-family="monospace,sans-serif">10</text>
<text x="370" y="392" text-anchor="middle" font-size="13" font-family="sans-serif">Runtime (minutes)</text>
<text transform="rotate(-90,28,185)" x="28" y="185" text-anchor="middle" font-size="13" font-family="sans-serif" fill="#64748b">Train loss (log scale)</text>
<text transform="rotate(90,746,185)" x="746" y="185" text-anchor="middle" font-size="13" font-family="sans-serif" fill="#2563eb">Train loss diff (exp − base)</text>
<rect x="72" y="26" width="140" height="62" fill="white" fill-opacity="0.85" stroke="#ddd" stroke-width="1" rx="3"/>
<line x1="77" y1="37" x2="99" y2="37" stroke="#64748b" stroke-width="1.5" stroke-dasharray="5,3"/>
<text x="104" y="41" font-size="11" font-family="sans-serif" fill="#64748b">Baseline train loss</text>
<line x1="77" y1="55" x2="99" y2="55" stroke="#16a34a" stroke-width="1.5"/>
<text x="104" y="59" font-size="11" font-family="sans-serif" fill="#16a34a">Experiment train loss</text>
<line x1="77" y1="73" x2="99" y2="73" stroke="#2563eb" stroke-width="2.5"/>
<text x="104" y="77" font-size="11" font-family="sans-serif" fill="#2563eb">Train loss diff</text>
</svg>