<svg xmlns="http://www.w3.org/2000/svg" viewBox="0 0 760 400" width="760" height="400" style="background:white">
<rect x="65" y="20" width="610" height="330" fill="#f9f9f9"/>
<line x1="65" y1="308.5" x2="675" y2="308.5" stroke="#ececec" stroke-width="1"/>
<line x1="65" y1="260.0" x2="675" y2="260.0" stroke="#ececec" stroke-width="1"/>
<line x1="65" y1="199.0" x2="675" y2="199.0" stroke="#ececec" stroke-width="1"/>
<line x1="65" y1="116.3" x2="675" y2="116.3" stroke="#ddd" stroke-width="1"/>
<line x1="65" y1="33.5" x2="675" y2="33.5" stroke="#ececec" stroke-width="1"/>
<line x1="65.0" y1="20" x2="65.0" y2="350" stroke="#ececec" stroke-width="1"/>
<line x1="187.1" y1="20" x2="187.1" y2="350" stroke="#ececec" stroke-width="1"/>
<line x1="309.2" y1="20" x2="309.2" y2="350" stroke="#ececec" stroke-width="1"/>
<line x1="431.3" y1="20" x2="431.3" y2="350" stroke="#ececec" stroke-width="1"/>
<line x1="553.3" y1="20" x2="553.3" y2="350" stroke="#ececec" stroke-width="1"/>
<line x1="675.4" y1="20" x2="675.4" y2="350" stroke="#ececec" stroke-width="1"/>
<line x1="65" y1="288.3" x2="675" y2="288.3" stroke="#2563eb" stroke-width="0.75" stroke-dasharray="3,3" opacity="0.4"/>
<polyline points="65.0,119.8 65.9,52.3 66.8,85.9 67.7,141.9 68.5,160.7 69.4,155.7 70.3,156.5 71.2,162.7 72.1,166.9 73.0,169.9 73.9,172.4 74.8,173.8 75.7,175.9 76.6,177.5 77.5,179.6 78.4,181.0 79.3,183.0 80.2,183.4 81.1,184.7 82.0,186.8 82.9,188.5 83.9,189.8 84.8,191.8 85.7,194.1 86.6,196.0 87.5,198.4 88.4,200.2 89.3,202.2 90.2,203.8 91.1,204.9 92.0,205.8 92.9,206.4 93.8,208.2 94.7,209.1 95.6,210.4 96.6,211.1 97.5,211.1 98.4,212.1 99.3,212.8 100.2,213.6 101.1,214.1 102.0,214.9 102.9,215.6 103.8,215.8 104.7,216.1 105.7,217.8 106.6,217.8 107.5,218.1 108.4,217.3 109.3,219.7 110.2,219.0 111.1,220.6 112.0,221.1 112.9,221.4 113.8,222.7 114.7,223.0 115.6,223.5 116.6,223.5 117.5,225.0 118.4,225.3 119.3,225.5 120.2,227.1 121.1,226.6 122.0,227.6 122.9,229.0 123.8,230.1 124.7,231.3 125.6,231.1 126.5,231.2 127.4,232.1 128.4,232.8 129.3,232.9 130.2,234.2 131.1,234.4 132.0,233.9 132.9,235.0 133.8,234.5 134.7,235.9 135.6,235.6 136.5,237.9 137.5,237.1 138.4,237.2 139.3,237.0 140.2,237.6 141.1,239.4 142.0,238.3 142.9,238.8 143.8,239.9 144.7,239.5 145.6,238.3 146.5,241.9 147.5,240.8 148.4,239.8 149.3,241.2 150.2,241.4 151.1,240.8 152.0,241.5 152.9,241.1 153.8,242.0 154.7,242.8 155.7,241.8 156.6,242.4 157.5,243.6 158.4,242.1 159.3,244.4 160.2,243.1 161.1,241.7 162.0,243.7 162.9,243.0 163.9,243.0 164.8,244.0 165.7,244.7 166.6,245.1 167.5,244.9 168.4,243.6 169.3,245.6 170.2,244.9 171.2,245.7 172.1,245.8 173.0,245.1 173.9,245.5 174.8,243.8 175.7,246.4 176.6,247.1 177.5,245.8 178.5,246.7 179.4,245.7 180.3,246.6 181.2,248.8 182.1,246.9 183.0,247.1 183.9,246.4 184.8,247.0 185.8,247.1 186.7,246.9 187.6,248.4 188.5,248.5 189.4,247.2 190.3,248.2 191.2,247.3 192.1,248.0 193.1,248.8 194.0,248.7 194.9,249.3 195.8,249.8 196.7,249.9 197.6,248.7 198.5,248.9 199.4,249.4 200.4,249.8 201.3,250.6 202.2,250.9 203.1,250.6 204.0,250.6 204.9,250.7 205.8,251.2 206.7,250.9 207.6,251.7 208.5,251.1 209.5,251.6 210.4,250.5 211.3,251.8 212.2,252.9 213.1,252.1 214.0,251.4 214.9,252.8 215.8,254.1 216.7,252.1 217.6,254.1 218.5,252.5 219.4,253.2 220.3,252.9 221.3,253.3 222.2,252.9 223.1,253.1 224.0,253.1 224.9,254.8 225.8,253.9 226.7,254.3 227.6,254.1 228.5,255.1 229.5,254.1 230.4,255.0 231.3,254.9 232.2,255.5 233.1,255.8 234.0,255.4 234.9,255.2 235.8,255.8 236.7,256.6 237.7,254.9 238.6,257.0 239.5,257.0 240.4,257.3 241.3,256.6 242.2,256.1 243.1,257.7 244.0,257.0 244.9,256.8 245.9,257.0 246.8,257.4 247.7,260.1 248.6,257.3 249.5,259.1 250.4,258.5 251.3,260.0 252.2,258.0 253.2,259.1 254.1,258.2 255.0,258.5 255.9,260.0 256.8,259.8 257.7,259.5 258.6,258.8 259.5,260.4 260.4,261.4 261.3,259.1 262.2,259.4 263.1,259.9 264.0,260.1 264.9,260.3 265.8,260.0 266.7,260.6 267.6,259.9 268.5,261.4 269.4,260.4 270.3,261.5 271.2,261.4 272.2,261.2 273.1,261.8 274.0,261.4 274.9,261.4 275.8,261.1 276.7,262.3 277.6,262.9 278.5,261.9 279.4,262.9 280.3,264.3 281.2,262.7 282.1,263.3 283.0,261.5 283.9,263.0 284.8,263.4 285.7,262.7 286.6,264.2 287.5,264.5 288.4,262.7 289.4,263.4 290.3,262.3 291.2,263.0 292.1,263.5 293.0,261.0 293.9,264.5 294.8,263.5 295.7,263.4 296.6,264.1 297.5,264.0 298.4,263.6 299.3,265.3 300.2,266.6 301.1,265.4 302.0,263.5 302.9,264.7 303.8,266.3 304.7,264.6 305.6,264.9 306.5,265.2 307.4,263.7 308.3,265.0 309.2,264.3 310.2,264.3 311.1,262.9 312.0,265.6 312.9,265.4 313.8,265.0 314.7,265.2 315.6,265.2 316.5,264.8 317.4,265.8 318.3,266.4 319.2,264.3 320.2,267.2 321.1,263.6 322.0,267.2 322.9,264.4 323.8,265.9 324.7,266.3 325.6,267.2 326.5,264.2 327.4,265.3 328.3,267.0 329.2,267.6 330.2,267.6 331.1,265.1 332.0,268.2 332.9,266.4 333.8,266.4 334.7,266.9 335.6,266.8 336.5,267.2 337.4,267.6 338.3,268.1 339.2,267.0 340.1,267.1 341.0,267.3 341.9,268.4 342.8,267.3 343.7,268.7 344.7,267.0 345.6,267.8 346.5,267.1 347.4,269.2 348.3,268.7 349.2,267.8 350.1,269.7 351.0,268.7 351.9,268.7 352.8,268.8 353.7,267.1 354.6,268.8 355.5,268.7 356.5,268.7 357.4,267.2 358.3,267.2 359.2,267.5 360.1,268.8 361.0,269.4 361.9,269.2 362.8,269.6 363.7,268.0 364.6,267.7 365.5,269.2 366.4,269.0 367.3,268.5 368.3,266.7 369.2,268.0 370.1,269.3 371.0,269.6 371.9,269.3 372.8,269.6 373.7,269.0 374.6,268.1 375.5,269.0 376.4,268.2 377.3,269.1 378.2,270.6 379.2,267.9 380.1,268.9 381.0,270.2 381.9,270.0 382.8,269.0 383.7,268.8 384.6,270.4 385.5,268.3 386.4,270.8 387.3,270.7 388.2,269.5 389.1,271.0 390.0,271.0 390.9,271.1 391.9,269.2 392.8,272.3 393.7,270.0 394.6,271.1 395.5,269.3 396.4,267.4 397.3,270.8 398.2,270.3 399.1,272.6 400.0,270.0 400.9,270.1 401.9,269.6 402.8,270.8 403.7,271.8 404.6,272.5 405.5,269.3 406.4,270.3 407.3,271.5 408.2,270.6 409.1,273.1 410.0,271.7 410.9,269.1 411.8,269.7 412.7,270.7 413.6,272.0 414.6,272.5 415.5,271.3 416.4,270.7 417.3,271.4 418.2,270.0 419.1,270.3 420.0,272.3 420.9,270.7 421.8,270.6 422.7,271.3 423.7,269.8 424.6,271.0 425.5,272.8 426.4,270.2 427.3,272.2 428.2,271.8 429.1,271.0 430.0,272.8 430.9,270.8 431.8,272.9 432.7,271.8 433.6,272.7 434.5,271.4 435.4,271.9 436.3,271.1 437.3,270.9 438.2,270.0 439.1,271.7 440.0,271.3 440.9,270.5 441.8,271.7 442.7,272.6 443.6,273.3 444.5,272.2 445.4,272.8 446.3,273.4 447.3,271.5 448.2,271.9 449.1,271.4 450.0,272.0 450.9,271.9 451.8,270.8 452.7,272.8 453.6,271.2 454.5,270.2 455.4,273.4 456.3,270.9 457.2,271.9 458.1,272.8 459.0,271.7 460.0,273.1 460.9,274.0 461.8,272.7 462.7,273.3 463.6,271.2 464.5,272.4 465.4,272.9 466.3,273.2 467.2,272.7 468.1,273.3 469.0,272.3 469.9,272.9 470.9,273.8 471.8,273.6 472.7,272.7 473.6,270.7 474.5,272.9 475.4,274.7 476.3,271.2 477.2,274.6 478.1,274.7 479.0,273.1 479.9,275.3 480.9,271.3 481.8,273.6 482.7,273.4 483.6,272.5 484.5,273.6 485.4,271.4 486.3,272.7 487.2,274.0 488.1,273.9 489.0,272.7 489.9,274.6 490.8,274.3 491.7,273.1 492.6,273.5 493.5,274.6 494.5,273.5 495.4,272.8 496.3,273.6 497.2,274.5 498.1,272.4 499.0,273.3 499.9,273.3 500.8,270.9 501.7,273.3 502.6,272.7 503.5,273.1 504.4,272.8 505.3,274.8 506.3,274.7 507.2,274.2 508.1,276.2 509.0,271.7 509.9,273.5 510.8,273.2 511.7,274.0 512.6,274.5 513.5,274.5 514.4,274.0 515.3,274.4 516.2,274.2 517.2,272.8 518.1,274.5 519.0,271.4 519.9,273.0 520.8,272.7 521.7,274.1 522.6,274.7 523.5,272.6 524.4,272.0 525.3,274.4 526.2,273.8 527.1,273.1 528.0,273.3 529.0,275.3 529.9,274.8 530.8,274.1 531.7,274.3 532.6,274.1 533.5,273.7 534.4,273.1 535.3,274.1 536.2,276.4 537.1,275.3 538.0,275.6 538.9,276.9 539.8,273.7 540.7,276.7 541.6,276.2 542.6,275.1 543.5,275.9 544.4,275.4 545.3,274.7 546.2,274.2 547.1,274.7 548.0,274.2 548.9,274.9 549.8,275.9 550.7,276.2 551.6,273.7 552.5,275.0 553.4,273.3 554.3,275.8 555.2,273.9 556.2,276.8 557.1,273.7 558.0,274.2 558.9,273.3 559.8,275.1 560.7,274.9 561.6,275.0 562.5,274.3 563.4,274.6 564.3,275.3 565.2,275.9 566.1,274.7 567.1,276.4 568.0,273.7 568.9,275.2 569.8,275.2 570.7,273.0 571.6,276.4 572.5,278.0 573.4,275.9 574.3,276.8 575.2,276.2 576.1,277.2 577.0,276.2 577.9,274.6 578.8,275.6 579.8,276.3 580.7,275.2 581.6,276.5 582.5,276.3 583.4,275.9 584.3,276.3 585.3,276.4 586.2,274.4 587.1,277.2 588.0,276.8 588.9,274.2 589.8,278.1 590.7,275.1 591.6,277.3 592.5,274.7 593.4,275.6 594.3,275.0 595.3,274.3 596.2,275.9 597.1,275.5 598.0,275.5 598.9,277.4 599.8,277.0 600.7,275.2 601.6,275.3 602.5,276.0 603.4,275.4 604.3,276.6 605.2,278.5 606.1,276.9 607.1,276.7 608.0,273.9 608.9,275.4 609.8,279.5 610.7,277.9 611.6,277.7 612.5,276.2 613.4,277.4 614.3,276.1 615.2,277.7 616.1,277.1 617.0,276.3 617.9,275.2 618.8,279.7 619.7,278.3 620.6,275.4 621.5,277.0 622.5,276.9 623.4,275.9 624.3,277.9 625.2,275.3 626.1,275.7 627.0,276.8 627.9,276.6 628.8,276.8 629.7,279.1 630.6,277.9 631.5,275.0 632.4,278.4 633.3,277.6 634.2,275.4 635.1,278.9 636.0,276.4 637.0,279.3 637.9,276.9 638.8,275.9 639.7,276.9 640.6,279.1 641.5,276.2 642.4,278.5 643.3,276.6 644.2,276.2 645.1,278.0 646.0,275.3 646.9,277.4 647.8,275.3 648.7,276.5 649.6,279.1 650.5,278.8 651.4,276.1 652.3,278.3 653.2,277.7 654.1,278.0 655.1,278.0 656.0,277.8 656.9,276.0 657.8,278.1 658.7,277.4 659.6,275.9 660.5,278.5 661.4,277.5 662.3,275.7 663.2,278.4 664.1,276.5 665.0,277.0 665.9,278.3 666.8,276.2 667.7,277.4 668.6,279.2 669.6,277.8 670.5,279.6 671.4,276.1 672.3,278.8 673.2,277.6 674.1,279.0 675.0,276.3" fill="none" stroke="#64748b" stroke-width="1.5" stroke-dasharray="5,3"/>
<polyline points="65.0,119.3 66.1,53.4 67.2,87.7 68.2,144.0 69.3,161.5 70.4,154.1 71.5,155.3 72.6,159.3 73.7,163.1 74.7,168.1 75.8,171.9 76.9,174.0 78.0,175.7 79.1,178.0 80.2,179.4 81.3,181.2 82.4,182.1 83.4,184.4 84.5,185.9 85.6,188.2 86.7,190.0 87.8,192.9 88.9,194.6 90.0,196.6 91.1,198.4 92.2,200.0 93.3,201.5 94.3,202.5 95.4,204.7 96.5,205.7 97.6,206.8 98.7,207.8 99.8,208.7 100.9,209.9 102.0,210.7 103.1,212.1 104.2,212.2 105.2,212.4 106.3,213.7 107.4,214.0 108.5,215.1 109.6,215.6 110.7,216.1 111.8,217.0 112.9,217.7 114.0,218.2 115.1,218.3 116.1,219.2 117.2,219.8 118.3,220.3 119.4,221.4 120.5,222.0 121.6,222.7 122.7,223.7 123.8,224.5 124.9,224.7 125.9,224.8 127.0,227.3 128.1,226.2 129.2,227.1 130.3,229.4 131.4,229.5 132.5,229.2 133.6,231.5 134.7,231.7 135.8,231.3 136.9,231.0 138.0,233.3 139.1,232.2 140.2,234.0 141.3,232.2 142.4,234.5 143.5,236.1 144.5,235.9 145.6,234.9 146.7,235.2 147.8,236.3 148.9,236.9 150.0,236.7 151.1,237.5 152.2,238.9 153.3,238.8 154.4,237.7 155.5,237.7 156.6,238.4 157.7,238.8 158.8,240.1 159.9,240.3 160.9,240.0 162.1,240.0 163.1,240.8 164.2,241.4 165.3,240.8 166.4,241.5 167.5,240.5 168.6,241.7 169.7,241.3 170.8,242.1 171.9,242.8 173.0,242.2 174.1,242.2 175.1,243.4 176.2,244.2 177.3,242.0 178.4,243.7 179.5,243.1 180.6,244.2 181.7,244.3 182.8,244.2 183.9,245.1 185.0,244.3 186.1,244.6 187.2,245.8 188.3,244.6 189.4,244.5 190.5,244.5 191.6,245.7 192.7,245.8 193.8,245.5 194.8,246.4 195.9,247.2 197.1,246.7 198.1,245.2 199.2,246.8 200.3,245.3 201.4,247.7 202.5,246.9 203.6,245.6 204.7,247.6 205.8,247.9 206.9,248.1 208.0,248.0 209.1,248.0 210.2,247.6 211.3,249.2 212.3,248.7 213.4,249.4 214.5,249.0 215.6,248.7 216.7,249.4 217.8,250.1 218.9,249.0 220.0,248.5 221.1,251.0 222.2,249.7 223.3,250.4 224.4,249.1 225.5,250.0 226.6,250.9 227.7,251.2 228.8,251.6 229.9,252.5 231.0,251.3 232.1,251.8 233.2,252.9 234.3,253.4 235.4,251.6 236.5,253.6 237.6,252.5 238.7,253.2 239.8,254.0 240.9,252.6 241.9,253.1 243.0,254.3 244.1,254.3 245.2,254.4 246.3,253.8 247.4,255.0 248.5,254.4 249.6,254.2 250.7,255.6 251.8,254.9 252.9,254.1 254.0,255.4 255.1,256.2 256.2,255.0 257.2,255.7 258.3,256.2 259.4,256.5 260.5,256.1 261.6,256.2 262.7,258.1 263.8,257.7 264.9,255.3 266.0,257.1 267.0,256.0 268.1,256.7 269.2,257.0 270.3,257.7 271.4,258.8 272.5,256.3 273.6,257.8 274.7,259.1 275.8,257.6 276.9,257.4 278.0,258.9 279.1,258.0 280.2,257.7 281.2,258.7 282.3,256.7 283.4,258.7 284.5,259.3 285.6,259.1 286.7,260.3 287.8,259.1 288.9,260.7 290.0,259.2 291.1,260.9 292.2,260.6 293.2,259.9 294.3,258.6 295.4,260.6 296.5,259.0 297.6,260.4 298.7,260.7 299.8,261.2 300.9,261.6 302.0,260.1 303.1,261.5 304.1,259.9 305.2,260.2 306.3,262.1 307.4,260.5 308.5,260.4 309.6,261.1 310.6,261.1 311.7,262.4 312.8,261.3 313.9,261.9 315.0,262.1 316.0,261.3 317.1,261.3 318.2,261.2 319.3,262.1 320.4,261.8 321.5,260.4 322.5,262.9 323.6,262.4 324.7,261.7 325.8,262.8 326.9,261.4 328.0,261.7 329.1,262.1 330.1,262.5 331.2,263.0 332.3,263.0 333.4,263.2 334.5,263.2 335.6,262.4 336.7,265.9 337.7,265.2 338.8,263.4 339.9,264.2 341.0,264.3 342.1,264.8 343.2,263.3 344.3,264.5 345.4,261.5 346.5,263.0 347.6,263.2 348.7,264.4 349.8,263.5 350.9,265.2 352.0,263.1 353.1,263.8 354.2,264.4 355.2,264.6 356.3,263.7 357.4,265.8 358.5,265.7 359.6,263.1 360.7,265.0 361.8,262.5 362.9,266.0 364.0,265.7 365.1,264.6 366.2,265.1 367.3,265.5 368.3,266.6 369.4,265.1 370.5,265.5 371.6,265.5 372.7,264.9 373.8,265.7 374.9,265.3 376.0,262.2 377.1,265.4 378.2,264.2 379.3,264.3 380.4,265.0 381.4,264.3 382.5,265.5 383.6,265.7 384.7,264.7 385.8,267.3 386.9,265.6 388.0,266.1 389.1,265.6 390.2,267.5 391.3,266.6 392.4,266.4 393.5,267.8 394.6,267.7 395.6,266.6 396.7,267.3 397.8,268.1 398.9,268.3 400.0,264.9 401.1,268.4 402.2,269.0 403.3,265.7 404.4,265.9 405.4,266.1 406.5,268.1 407.6,266.6 408.7,266.6 409.8,266.3 410.9,268.2 412.0,265.5 413.1,266.7 414.2,266.6 415.3,267.8 416.3,265.8 417.4,268.1 418.5,269.2 419.6,268.0 420.7,267.7 421.8,268.1 422.9,266.9 424.0,268.4 425.0,268.5 426.1,267.3 427.2,267.1 428.3,267.4 429.4,266.6 430.4,267.7 431.5,267.6 432.6,268.4 433.7,268.0 434.8,268.2 435.9,268.9 437.0,266.5 438.1,269.5 439.2,266.2 440.3,269.4 441.4,269.9 442.5,268.9 443.5,269.3 444.6,268.7 445.7,269.2 446.8,269.3 447.9,269.1 449.0,267.8 450.1,268.6 451.2,268.6 452.3,267.6 453.4,268.1 454.4,268.1 455.5,268.9 456.6,268.4 457.7,268.7 458.8,271.1 459.9,269.6 461.0,268.9 462.1,269.9 463.2,271.1 464.2,269.4 465.3,269.4 466.4,269.2 467.5,272.8 468.6,267.2 469.7,271.6 470.8,271.4 471.8,270.6 472.9,269.5 474.0,270.2 475.1,268.8 476.2,269.8 477.3,269.7 478.4,270.6 479.5,267.8 480.6,271.7 481.6,270.5 482.7,269.8 483.8,271.3 484.9,271.5 486.0,270.2 487.1,270.0 488.2,272.4 489.3,270.9 490.3,271.5 491.4,271.4 492.5,271.7 493.6,271.2 494.7,270.5 495.8,270.6 496.9,270.6 497.9,271.5 499.0,268.3 500.1,271.4 501.2,270.9 502.3,269.5 503.4,270.3 504.5,271.3 505.6,270.3 506.7,271.0 507.7,271.5 508.8,271.7 509.9,271.7 511.0,270.1 512.1,271.3 513.2,270.1 514.3,270.6 515.4,270.1 516.5,272.5 517.6,272.0 518.7,270.1 519.7,272.2 520.8,272.1 521.9,269.8 523.0,270.9 524.1,271.7 525.2,271.8 526.3,269.8 527.4,270.9 528.5,270.7 529.6,272.4 530.7,271.3 531.8,272.1 532.9,272.1 533.9,271.4 535.0,271.1 536.1,271.2 537.2,270.8 538.3,271.0 539.4,271.4 540.5,271.7 541.6,272.1 542.7,270.9 543.7,272.4 544.8,270.6 545.9,272.4 547.0,271.6 548.1,273.1 549.2,272.1 550.3,272.5 551.4,271.2 552.4,273.4 553.5,272.1 554.6,272.1 555.7,274.0 556.8,273.1 557.9,271.5 559.0,274.2 560.1,272.2 561.2,272.5 562.2,272.5 563.3,272.9 564.4,272.1 565.5,273.8 566.6,272.8 567.7,272.0 568.8,270.8 569.8,273.0 570.9,272.5 572.0,271.4 573.1,272.7 574.2,272.1 575.3,273.1 576.4,273.3 577.5,272.2 578.6,273.8 579.6,274.3 580.7,272.8 581.8,275.2 582.9,272.7 584.0,273.5 585.1,270.8 586.2,273.4 587.3,273.8 588.4,273.4 589.4,273.2 590.5,272.5 591.6,274.2 592.7,274.3 593.8,273.4 594.9,272.3 596.0,275.0 597.1,273.5 598.1,274.8 599.2,271.8 600.3,273.7 601.4,272.7 602.5,273.6 603.6,273.6 604.7,273.8 605.8,275.1 606.9,273.9 608.0,274.8 609.1,273.7 610.1,272.4 611.2,274.9 612.3,273.3 613.4,275.1 614.5,275.0 615.6,273.3 616.7,273.6 617.7,272.5 618.8,275.3 619.9,272.6 621.0,272.0 622.1,273.7 623.2,274.4 624.3,275.0 625.4,274.8 626.4,273.5 627.5,275.2 628.6,273.9 629.7,274.7 630.8,275.1 631.9,273.6 633.0,275.9 634.1,274.2 635.1,273.8 636.2,274.6 637.3,275.0 638.4,275.0 639.5,272.4 640.6,275.4 641.7,274.1 642.8,274.6 643.9,275.1 645.0,274.1 646.0,275.4 647.1,275.8 648.2,276.1 649.3,276.2 650.4,274.6 651.5,276.0 652.5,273.5 653.6,275.7 654.7,276.5 655.8,275.8 656.9,274.0 658.0,275.2 659.1,273.4 660.2,274.5 661.3,275.3 662.4,275.4 663.5,276.0 664.5,275.3 665.6,275.8 666.7,275.4 667.8,273.1 668.9,273.1 670.0,274.0 671.0,275.7 672.1,275.8 673.2,277.6 674.3,274.9" fill="none" stroke="#16a34a" stroke-width="1.5"/>
<polyline points="65.0,283.2 66.1,193.0 67.2,42.8 68.2,207.1 69.3,327.2 70.4,265.9 71.5,224.2 72.6,223.0 73.7,228.0 74.7,250.4 75.8,260.5 76.9,261.1 78.0,258.7 79.1,260.3 80.2,264.0 81.3,265.2 82.4,256.7 83.4,259.8 84.5,257.0 85.6,255.2 86.7,252.5 87.8,255.3 88.9,252.4 90.0,252.7 91.1,254.4 92.2,257.8 93.3,260.0 94.3,257.2 95.4,261.4 96.5,261.6 97.6,266.7 98.7,266.3 99.8,266.2 100.9,269.0 102.0,268.7 103.1,271.5 104.2,271.0 105.2,266.5 106.3,269.4 107.4,269.9 108.5,276.8 109.6,270.7 110.7,271.3 111.8,270.6 112.9,271.6 114.0,268.1 115.1,267.0 116.1,269.4 117.2,266.8 118.3,266.5 119.4,269.4 120.5,267.0 121.6,269.2 122.7,267.6 123.8,264.7 124.9,260.8 125.9,261.6 127.0,269.9 128.1,261.9 129.2,264.6 130.3,268.7 131.4,269.1 132.5,266.8 133.6,275.5 134.7,271.7 135.8,269.7 136.9,262.3 138.0,273.3 139.1,269.1 140.2,274.2 141.3,261.2 142.4,273.0 143.5,275.5 144.5,274.2 145.6,274.9 146.7,263.4 147.8,272.4 148.9,274.2 150.0,270.5 151.1,275.6 152.2,278.8 153.3,278.3 154.4,270.4 155.5,271.7 156.6,273.2 157.7,271.7 158.8,277.5 159.9,275.8 160.9,281.0 162.1,274.7 163.1,279.9 164.2,280.6 165.3,275.1 166.4,275.5 167.5,272.1 168.6,279.9 169.7,273.6 170.8,276.4 171.9,277.3 173.0,277.5 174.1,277.3 175.1,283.4 176.2,278.9 177.3,273.2 178.4,277.4 179.5,278.5 180.6,276.5 181.7,276.3 182.8,277.8 183.9,283.5 185.0,278.3 186.1,279.6 187.2,281.4 188.3,274.5 189.4,278.5 190.5,275.8 191.6,281.5 192.7,279.0 193.8,276.8 194.8,277.9 195.9,278.9 197.1,278.5 198.1,275.4 199.2,279.5 200.3,272.4 201.4,278.0 202.5,274.8 203.6,270.8 204.7,277.3 205.8,276.8 206.9,277.7 208.0,276.3 209.1,276.5 210.2,277.2 211.3,279.5 212.3,274.5 213.4,280.0 214.5,276.8 215.6,270.6 216.7,278.8 217.8,275.9 218.9,275.3 220.0,272.7 221.1,280.7 222.2,277.1 223.3,279.2 224.4,271.8 225.5,274.0 226.6,277.0 227.7,278.2 228.8,277.6 229.9,281.2 231.0,275.9 232.1,275.9 233.2,278.8 234.3,281.6 235.4,275.2 236.5,279.1 237.6,279.6 238.7,275.7 239.8,278.0 240.9,273.7 241.9,277.7 243.0,277.5 244.1,279.5 245.2,280.2 246.3,277.1 247.4,274.3 248.5,277.8 249.6,272.2 250.7,277.5 251.8,274.7 252.9,273.0 254.0,278.8 255.1,280.2 256.2,272.1 257.2,275.3 258.3,279.0 259.4,276.3 260.5,271.9 261.6,278.7 262.7,283.4 263.8,280.9 264.9,272.0 266.0,278.6 267.0,274.2 268.1,275.3 269.2,276.5 270.3,276.3 271.4,280.1 272.5,271.8 273.6,276.2 274.7,281.0 275.8,277.0 276.9,272.2 278.0,276.9 279.1,273.9 280.2,268.1 281.2,275.5 282.3,268.7 283.4,277.3 284.5,275.6 285.6,276.5 286.7,275.8 287.8,272.7 288.9,280.8 290.0,277.3 291.1,282.1 292.2,280.1 293.2,281.3 294.3,271.3 295.4,279.4 296.5,272.4 297.6,277.2 298.7,277.4 299.8,273.4 300.9,275.4 302.0,277.4 303.1,277.5 304.1,270.0 305.2,273.9 306.3,278.9 307.4,277.8 308.5,274.0 309.6,278.3 310.6,280.6 311.7,280.7 312.8,275.7 313.9,278.6 315.0,278.7 316.0,276.8 317.1,275.4 318.2,272.3 319.3,280.9 320.4,274.4 321.5,273.4 322.5,280.4 323.6,278.3 324.7,274.1 325.8,276.6 326.9,278.2 328.0,274.1 329.1,271.9 330.1,272.5 331.2,280.3 332.3,274.7 333.4,278.4 334.5,277.2 335.6,274.7 336.7,284.1 337.7,280.6 338.8,275.8 339.9,279.4 341.0,279.0 342.1,278.2 343.2,274.5 344.3,278.7 345.4,269.3 346.5,275.7 347.6,270.6 348.7,276.5 349.8,271.4 350.9,277.1 352.0,271.4 353.1,274.6 354.2,277.8 355.2,275.8 356.3,273.0 357.4,284.0 358.5,283.4 359.6,273.0 360.7,275.6 361.8,267.8 362.9,277.9 364.0,281.6 365.1,276.5 366.2,276.3 367.3,278.9 368.3,287.8 369.4,278.2 370.5,276.3 371.6,276.4 372.7,274.2 373.8,278.4 374.9,279.0 376.0,268.7 377.1,277.7 378.2,269.5 379.3,277.3 380.4,275.3 381.4,271.0 382.5,277.0 383.6,278.9 384.7,272.2 385.8,282.7 386.9,272.9 388.0,277.0 389.1,272.6 390.2,277.7 391.3,276.9 392.4,274.6 393.5,280.1 394.6,278.5 395.6,281.2 396.7,284.2 397.8,281.3 398.9,277.2 400.0,272.6 401.1,283.4 402.2,285.0 403.3,271.5 404.4,269.4 405.4,278.3 406.5,281.2 407.6,274.6 408.7,272.4 409.8,271.2 410.9,285.2 412.0,275.0 413.1,274.9 414.2,271.6 415.3,277.1 416.3,273.5 417.4,279.4 418.5,285.7 419.6,278.5 420.7,278.3 421.8,280.7 422.9,275.8 424.0,282.9 425.0,278.4 426.1,277.4 427.2,273.8 428.3,275.6 429.4,273.8 430.4,276.1 431.5,274.5 432.6,278.0 433.7,274.9 434.8,278.5 435.9,280.6 437.0,275.1 438.1,286.5 439.2,272.1 440.3,283.3 441.4,284.6 442.5,278.1 443.5,276.7 444.6,277.9 445.7,277.3 446.8,279.2 447.9,280.4 449.0,277.5 450.1,278.5 451.2,279.7 452.3,275.8 453.4,278.0 454.4,282.0 455.5,276.2 456.6,279.8 457.7,277.5 458.8,285.7 459.9,278.3 461.0,274.0 462.1,279.6 463.2,285.1 464.2,280.5 465.3,278.3 466.4,276.9 467.5,288.2 468.6,271.9 469.7,285.0 470.8,281.8 471.8,280.0 472.9,280.5 474.0,283.8 475.1,272.7 476.2,282.9 477.3,274.3 478.4,277.7 479.5,269.6 480.6,285.6 481.6,280.0 482.7,278.0 483.8,283.9 484.9,285.3 486.0,282.1 487.1,277.0 488.2,284.3 489.3,281.4 490.3,279.7 491.4,282.3 492.5,283.4 493.6,278.4 494.7,280.0 495.8,281.0 496.9,277.8 497.9,284.8 499.0,273.6 500.1,284.5 501.2,285.2 502.3,278.3 503.4,280.4 504.5,283.7 505.6,275.4 506.7,278.1 507.7,276.8 508.8,286.2 509.9,283.4 511.0,278.8 512.1,279.7 513.2,275.6 514.3,278.3 515.4,276.0 516.5,284.3 517.6,283.7 518.7,281.4 519.7,286.7 520.8,286.0 521.9,275.3 523.0,280.4 524.1,286.8 525.2,281.5 526.3,277.0 527.4,281.7 528.5,277.8 529.6,281.1 530.7,280.2 531.8,282.1 532.9,282.9 533.9,282.4 535.0,280.5 536.1,274.1 537.2,275.4 538.3,274.1 539.4,277.3 540.5,276.4 541.6,276.8 542.7,276.1 543.7,278.9 544.8,275.6 545.9,282.7 547.0,279.6 548.1,285.0 549.2,279.5 550.3,278.2 551.4,279.0 552.4,284.1 553.5,284.3 554.6,279.2 555.7,284.7 556.8,283.9 557.9,280.7 559.0,290.4 560.1,280.3 561.2,281.3 562.2,282.7 563.3,283.6 564.4,279.0 565.5,283.4 566.6,280.4 567.7,281.0 568.8,276.2 569.8,282.5 570.9,284.4 572.0,271.9 573.1,277.1 574.2,275.2 575.3,279.1 576.4,278.3 577.5,279.0 578.6,284.0 579.6,283.0 580.7,281.3 581.8,284.6 582.9,278.8 584.0,280.9 585.1,272.4 586.2,285.4 587.3,278.9 588.4,281.5 589.4,279.0 590.5,279.1 591.6,279.6 592.7,286.7 593.8,282.7 594.9,281.7 596.0,286.7 597.1,282.6 598.1,285.5 599.2,272.9 600.3,282.0 601.4,281.0 602.5,281.5 603.6,282.5 604.7,278.4 605.8,281.4 606.9,280.2 608.0,290.6 609.1,281.1 610.1,270.4 611.2,280.4 612.3,279.1 613.4,281.9 614.5,284.3 615.6,276.7 616.7,279.6 617.7,279.8 618.8,276.2 619.9,273.7 621.0,276.9 622.1,279.3 623.2,283.3 624.3,280.0 625.4,286.7 626.4,280.7 627.5,284.1 628.6,280.3 629.7,275.9 630.8,282.2 631.9,280.2 633.0,282.5 634.1,283.8 635.1,273.9 636.2,281.5 637.3,278.8 638.4,284.5 639.5,276.1 640.6,278.0 641.7,280.9 642.8,279.7 643.9,284.8 645.0,278.3 646.0,288.5 647.1,285.3 648.2,289.0 649.3,282.9 650.4,276.5 651.5,287.8 652.5,275.1 653.6,282.3 654.7,284.0 655.8,282.7 656.9,282.2 658.0,280.7 659.1,279.0 660.2,279.6 661.3,281.7 662.4,287.1 663.5,283.0 664.5,284.2 665.6,282.5 666.7,285.3 667.8,275.8 668.9,272.1 670.0,275.4 671.0,283.5 672.1,281.1 673.2,288.0 674.3,278.6" fill="none" stroke="#2563eb" stroke-width="2.5"/>
<rect x="65" y="20" width="610" height="330" fill="none" stroke="#888" stroke-width="1.5"/>
<line x1="62" y1="308.5" x2="65" y2="308.5" stroke="#64748b" stroke-width="1" opacity="0.6"/>
<line x1="62" y1="260.0" x2="65" y2="260.0" stroke="#64748b" stroke-width="1" opacity="0.6"/>
<line x1="62" y1="199.0" x2="65" y2="199.0" stroke="#64748b" stroke-width="1" opacity="0.6"/>
<line x1="60" y1="116.3" x2="65" y2="116.3" stroke="#64748b" stroke-width="1.5"/>
<text x="57" y="116.3" text-anchor="end" dominant-baseline="middle" font-size="11" font-family="monospace,sans-serif" fill="#64748b">10</text>
<line x1="62" y1="33.5" x2="65" y2="33.5" stroke="#64748b" stroke-width="1" opacity="0.6"/>
<line x1="675" y1="288.3" x2="680" y2="288.3" stroke="#2563eb" stroke-width="1.5"/>
<text x="683" y="288.3" text-anchor="start" dominant-baseline="middle" font-size="11" font-family="monospace,sans-serif" fill="#2563eb">0.0</text>
<line x1="675" y1="161.2" x2="680" y2="161.2" stroke="#2563eb" stroke-width="1.5"/>
<text x="683" y="161.2" text-anchor="start" dominant-baseline="middle" font-size="11" font-family="monospace,sans-serif" fill="#2563eb">1.0</text>
<line x1="675" y1="34.2" x2="680" y2="34.2" stroke="#2563eb" stroke-width="1.5"/>
<text x="683" y="34.2" text-anchor="start" dominant-baseline="middle" font-size="11" font-family="monospace,sans-serif" fill="#2563eb">2.0</text>
<line x1="65.0" y1="350" x2="65.0" y2="355" stroke="#888" stroke-width="1.5"/>
<text x="65.0" y="368" text-anchor="middle" font-size="11" font-family="monospace,sans-serif">0</text>
<line x1="187.1" y1="350" x2="187.1" y2="355" stroke="#888" stroke-width="1.5"/>
<text x="187.1" y="368" text-anchor="middle" font-size="11" font-family="monospace,sans-serif">2</text>
<line x1="309.2" y1="350" x2="309.2" y2="355" stroke="#888" stroke-width="1.5"/>
<text x="309.2" y="368" text-anchor="middle" font-size="11" font-family="monospace,sans-serif">4</text>
<line x1="431.3" y1="350" x2="431.3" y2="355" stroke="#888" stroke-width="1.5"/>
<text x="431.3" y="368" text-anchor="middle" font-size="11" font-family="monospace,sans-serif">6</text>
<line x1="553.3" y1="350" x2="553.3" y2="355" stroke="#888" stroke-width="1.5"/>
<text x="553.3" y="368" text-anchor="middle" font-size="11" font-family="monospace,sans-serif">8</text>
<line x1="675.4" y1="350" x2="675.4" y2="355" stroke="#888" stroke-width="1.5"/>
<text x="675.4" y="368" text-anchor="middle" font-size="11" font-family="monospace,sans-serif">10</text>
<text x="370" y="392" text-anchor="middle" font-size="13" font-family="sans-serif">Runtime (minutes)</text>
<text transform="rotate(-90,28,185)" x="28" y="185" text-anchor="middle" font-size="13" font-family="sans-serif" fill="#64748b">Train loss (log scale)</text>
<text transform="rotate(90,746,185)" x="746" y="185" text-anchor="middle" font-size="13" font-family="sans-serif" fill="#2563eb">Train loss diff (exp − base)</text>
<rect x="72" y="26" width="140" height="62" fill="white" fill-opacity="0.85" stroke="#ddd" stroke-width="1" rx="3"/>
<line x1="77" y1="37" x2="99" y2="37" stroke="#64748b" stroke-width="1.5" stroke-dasharray="5,3"/>
<text x="104" y="41" font-size="11" font-family="sans-serif" fill="#64748b">Baseline train loss</text>
<line x1="77" y1="55" x2="99" y2="55" stroke="#16a34a" stroke-width="1.5"/>
<text x="104" y="59" font-size="11" font-family="sans-serif" fill="#16a34a">Experiment train loss</text>
<line x1="77" y1="73" x2="99" y2="73" stroke="#2563eb" stroke-width="2.5"/>
<text x="104" y="77" font-size="11" font-family="sans-serif" fill="#2563eb">Train loss diff</text>
</svg>