<svg xmlns="http://www.w3.org/2000/svg" viewBox="0 0 760 400" width="760" height="400" style="background:white">
<rect x="65" y="20" width="610" height="330" fill="#f9f9f9"/>
<line x1="65" y1="308.5" x2="675" y2="308.5" stroke="#ececec" stroke-width="1"/>
<line x1="65" y1="260.0" x2="675" y2="260.0" stroke="#ececec" stroke-width="1"/>
<line x1="65" y1="199.0" x2="675" y2="199.0" stroke="#ececec" stroke-width="1"/>
<line x1="65" y1="116.3" x2="675" y2="116.3" stroke="#ddd" stroke-width="1"/>
<line x1="65" y1="33.5" x2="675" y2="33.5" stroke="#ececec" stroke-width="1"/>
<line x1="65.0" y1="20" x2="65.0" y2="350" stroke="#ececec" stroke-width="1"/>
<line x1="187.1" y1="20" x2="187.1" y2="350" stroke="#ececec" stroke-width="1"/>
<line x1="309.2" y1="20" x2="309.2" y2="350" stroke="#ececec" stroke-width="1"/>
<line x1="431.3" y1="20" x2="431.3" y2="350" stroke="#ececec" stroke-width="1"/>
<line x1="553.4" y1="20" x2="553.4" y2="350" stroke="#ececec" stroke-width="1"/>
<line x1="675.6" y1="20" x2="675.6" y2="350" stroke="#ececec" stroke-width="1"/>
<line x1="65" y1="298.8" x2="675" y2="298.8" stroke="#2563eb" stroke-width="0.75" stroke-dasharray="3,3" opacity="0.4"/>
<polyline points="65.0,119.8 65.7,52.7 66.4,85.4 67.2,143.1 67.9,161.7 68.6,155.9 69.3,156.3 70.1,160.5 70.8,165.4 71.5,169.2 72.2,173.0 72.9,174.1 73.7,175.4 74.4,177.2 75.1,179.4 75.9,182.9 76.6,182.6 77.3,184.4 78.1,185.3 78.8,187.9 79.5,183.4 80.3,190.6 81.0,195.3 81.7,195.4 82.5,197.5 83.2,199.1 83.9,201.0 84.7,202.6 85.4,203.9 86.1,205.5 86.9,207.3 87.6,206.5 88.3,208.8 89.1,210.2 89.8,209.9 90.5,211.2 91.3,211.7 92.0,213.6 92.7,213.0 93.5,211.6 94.2,215.0 94.9,216.3 95.7,215.9 96.4,216.4 97.1,218.2 97.9,216.4 98.6,215.7 99.3,216.3 100.1,217.6 100.8,217.9 101.5,220.5 102.3,218.4 103.0,221.0 103.7,216.1 104.5,223.2 105.2,221.9 105.9,224.2 106.7,223.4 107.4,223.2 108.1,225.6 108.9,224.9 109.6,226.2 110.3,225.8 111.1,228.0 111.8,229.5 112.5,228.1 113.3,229.9 114.0,229.6 114.7,229.6 115.5,228.9 116.2,231.5 116.9,228.9 117.7,229.7 118.4,231.5 119.1,231.5 119.9,233.3 120.6,232.0 121.3,234.0 122.1,232.7 122.8,236.1 123.6,235.2 124.3,234.4 125.0,234.6 125.8,233.6 126.5,232.0 127.2,230.8 128.0,235.6 128.7,233.4 129.4,235.9 130.2,236.0 130.9,235.3 131.6,234.7 132.4,232.1 133.1,234.5 133.8,236.5 134.6,236.2 135.3,237.5 136.0,235.4 136.8,239.0 137.5,233.1 138.3,238.7 139.0,238.8 139.7,238.1 140.5,239.0 141.2,240.5 141.9,239.5 142.7,239.8 143.4,241.3 144.2,240.6 144.9,241.0 145.6,236.4 146.4,241.3 147.1,241.1 147.8,242.2 148.6,241.8 149.3,241.0 150.1,244.4 150.8,239.8 151.5,240.6 152.3,242.8 153.0,242.2 153.7,244.3 154.5,242.3 155.2,238.8 155.9,245.0 156.7,243.3 157.4,243.1 158.1,243.9 158.9,244.6 159.6,244.0 160.4,245.5 161.1,244.2 161.8,245.5 162.6,246.0 163.3,241.8 164.1,246.5 164.8,246.6 165.5,245.1 166.3,247.4 167.0,247.2 167.8,246.3 168.5,247.1 169.2,246.4 170.0,244.9 170.7,248.1 171.4,246.2 172.2,248.8 172.9,246.1 173.6,247.4 174.4,245.7 175.1,247.1 175.8,247.5 176.6,245.5 177.3,249.1 178.1,248.2 178.8,248.1 179.5,247.3 180.3,246.2 181.0,247.8 181.7,248.0 182.5,250.2 183.2,247.2 184.0,248.8 184.7,246.6 185.4,243.3 186.2,247.7 186.9,248.8 187.6,249.7 188.4,248.0 189.1,247.2 189.9,246.4 190.6,248.4 191.3,248.0 192.1,249.3 192.8,247.3 193.5,249.0 194.3,249.4 195.0,250.6 195.8,250.2 196.5,248.7 197.2,250.5 198.0,240.0 198.7,248.8 199.4,250.7 200.2,251.8 200.9,246.5 201.7,252.7 202.4,250.3 203.1,252.9 203.9,250.6 204.6,252.3 205.3,250.1 206.1,252.6 206.8,251.4 207.6,251.6 208.3,251.9 209.0,250.9 209.8,252.5 210.5,253.6 211.2,252.8 212.0,251.7 212.7,251.3 213.5,255.2 214.2,254.8 214.9,248.8 215.7,252.1 216.4,254.0 217.2,253.9 217.9,254.9 218.6,258.1 219.4,256.3 220.1,255.7 220.8,255.1 221.6,254.5 222.3,254.8 223.1,255.2 223.8,254.4 224.5,255.3 225.3,257.0 226.0,257.0 226.7,258.2 227.5,257.4 228.2,257.5 229.0,257.2 229.7,259.1 230.4,259.2 231.2,258.0 231.9,260.6 232.6,258.7 233.4,260.1 234.1,259.0 234.9,260.3 235.6,259.9 236.3,261.2 237.1,260.1 237.8,262.0 238.5,262.1 239.3,259.5 240.0,244.4 240.7,260.8 241.5,257.8 242.2,257.5 243.0,260.7 243.7,264.4 244.4,257.7 245.2,257.9 245.9,260.4 246.6,260.1 247.4,259.8 248.1,261.3 248.9,262.3 249.6,260.4 250.3,261.6 251.1,260.3 251.8,259.6 252.5,263.2 253.3,261.6 254.0,260.1 254.8,260.7 255.5,264.0 256.2,263.3 256.9,262.9 257.7,261.4 258.4,264.1 259.2,262.7 259.9,263.8 260.6,261.5 261.4,262.5 262.1,261.4 262.8,259.0 263.6,259.5 264.3,262.0 265.0,264.0 265.8,261.6 266.5,258.9 267.3,262.2 268.0,262.2 268.7,261.9 269.5,261.5 270.2,260.3 270.9,264.5 271.7,264.6 272.4,258.7 273.2,254.7 273.9,255.7 274.6,260.8 275.4,262.0 276.1,263.4 276.8,259.3 277.6,261.9 278.3,263.4 279.0,265.7 279.8,262.5 280.5,260.2 281.3,262.3 282.0,263.6 282.7,262.4 283.5,262.0 284.2,259.0 284.9,263.3 285.7,262.5 286.4,262.8 287.1,263.2 287.9,262.9 288.6,268.3 289.4,263.3 290.1,263.3 290.8,264.3 291.6,265.5 292.3,263.1 293.1,263.1 293.8,262.9 294.5,260.9 295.3,268.0 296.0,266.2 296.8,263.6 297.5,263.3 298.2,266.8 299.0,266.5 299.7,263.4 300.4,264.6 301.2,263.9 301.9,263.0 302.6,266.0 303.4,266.6 304.1,265.9 304.9,266.2 305.6,264.5 306.3,266.9 307.1,266.5 307.8,267.8 308.6,267.3 309.3,266.6 310.0,264.8 310.8,264.8 311.5,265.7 312.2,267.6 313.0,268.6 313.7,268.4 314.5,269.6 315.2,266.7 315.9,266.4 316.7,264.1 317.4,267.2 318.1,268.5 318.9,267.1 319.6,264.7 320.3,267.2 321.1,272.0 321.8,269.2 322.6,267.2 323.3,266.8 324.0,267.8 324.8,268.5 325.5,269.5 326.3,267.1 327.0,268.4 327.7,267.2 328.5,271.3 329.2,266.2 329.9,267.9 330.7,268.3 331.4,268.8 332.1,268.6 332.9,269.2 333.6,272.0 334.4,266.2 335.1,269.5 335.8,265.3 336.6,266.1 337.3,263.6 338.0,267.2 338.8,267.9 339.5,266.1 340.3,267.3 341.0,269.8 341.7,267.3 342.5,265.1 343.2,272.1 343.9,251.6 344.7,262.1 345.4,260.5 346.2,275.1 346.9,264.9 347.6,269.8 348.4,265.1 349.1,266.7 349.9,268.6 350.6,267.2 351.3,265.8 352.1,266.0 352.8,267.9 353.5,267.1 354.3,267.6 355.0,267.2 355.7,267.7 356.5,266.3 357.2,274.1 358.0,268.6 358.7,266.3 359.4,267.1 360.2,267.6 360.9,266.1 361.7,267.6 362.4,268.9 363.1,266.8 363.9,267.7 364.6,268.2 365.3,270.2 366.1,267.5 366.8,270.8 367.5,267.9 368.3,267.0 369.0,265.9 369.7,268.4 370.5,277.4 371.2,269.7 372.0,265.5 372.7,267.6 373.4,265.7 374.2,265.4 374.9,267.5 375.6,266.6 376.4,270.2 377.1,268.7 377.8,269.0 378.6,267.6 379.3,269.5 380.1,273.2 380.8,279.5 381.5,270.0 382.3,269.6 383.0,269.3 383.7,269.6 384.5,272.7 385.2,270.3 386.0,268.3 386.7,272.7 387.4,270.7 388.2,273.3 388.9,268.6 389.6,271.4 390.4,270.0 391.1,270.2 391.9,270.5 392.6,272.7 393.3,268.8 394.1,265.9 394.8,270.9 395.6,273.7 396.3,269.4 397.0,272.0 397.8,272.6 398.5,269.7 399.2,271.8 400.0,273.2 400.7,271.2 401.4,270.1 402.2,273.8 402.9,270.9 403.6,273.0 404.4,274.1 405.1,270.7 405.9,272.4 406.6,271.0 407.3,273.8 408.1,274.0 408.8,270.9 409.5,267.2 410.3,268.8 411.0,269.2 411.8,270.4 412.5,270.7 413.2,270.3 414.0,269.7 414.7,268.3 415.5,268.7 416.2,269.6 416.9,271.5 417.7,269.3 418.4,266.8 419.1,270.3 419.9,269.8 420.6,269.3 421.3,268.6 422.1,269.2 422.8,272.8 423.6,265.8 424.3,272.7 425.0,267.7 425.8,273.7 426.5,271.9 427.3,270.9 428.0,269.3 428.7,270.0 429.5,275.4 430.2,271.9 431.0,270.4 431.7,271.7 432.4,270.3 433.2,270.1 433.9,266.5 434.6,272.1 435.4,268.7 436.1,268.8 436.8,269.5 437.6,271.6 438.3,269.8 439.1,272.0 439.8,272.8 440.5,271.9 441.3,267.8 442.0,270.8 442.7,269.0 443.5,271.6 444.2,266.6 444.9,268.9 445.7,269.4 446.4,271.2 447.1,272.4 447.9,272.6 448.6,266.4 449.4,268.4 450.1,270.6 450.8,268.3 451.6,269.7 452.3,270.5 453.0,271.3 453.8,271.2 454.5,272.2 455.3,271.2 456.0,269.9 456.7,270.5 457.5,269.8 458.2,272.7 458.9,273.1 459.7,275.3 460.4,271.2 461.2,272.5 461.9,272.8 462.6,276.0 463.4,274.0 464.1,273.0 464.8,276.6 465.6,273.5 466.3,272.7 467.0,275.0 467.8,274.3 468.5,273.8 469.3,272.5 470.0,276.1 470.7,275.6 471.5,270.5 472.2,278.0 472.9,276.1 473.7,275.1 474.4,274.1 475.1,275.2 475.9,276.6 476.6,273.6 477.4,275.0 478.1,273.3 478.8,273.1 479.6,272.6 480.3,269.2 481.0,267.8 481.8,272.3 482.5,270.9 483.2,273.4 484.0,271.0 484.7,270.3 485.5,271.5 486.2,271.4 486.9,271.9 487.7,279.3 488.4,274.7 489.1,272.6 489.9,274.4 490.6,273.8 491.3,278.7 492.1,258.4 492.8,271.8 493.5,272.6 494.3,276.6 495.0,272.8 495.8,274.0 496.5,274.3 497.2,273.5 498.0,276.4 498.7,274.5 499.4,272.5 500.2,272.2 500.9,271.4 501.6,271.3 502.4,271.4 503.1,271.4 503.9,271.8 504.6,271.3 505.3,272.1 506.1,272.6 506.8,274.3 507.5,274.1 508.3,273.8 509.0,273.3 509.7,269.4 510.5,270.8 511.2,272.6 512.0,272.9 512.7,275.9 513.4,273.4 514.2,270.3 514.9,272.4 515.6,272.6 516.4,270.9 517.1,272.9 517.9,275.7 518.6,274.1 519.3,272.7 520.1,276.0 520.8,276.4 521.5,272.8 522.3,267.7 523.0,276.9 523.7,275.3 524.5,274.4 525.2,276.0 526.0,278.2 526.7,275.6 527.4,274.6 528.2,277.0 528.9,273.0 529.6,277.3 530.4,281.3 531.1,274.9 531.9,274.8 532.6,277.9 533.3,274.4 534.1,276.6 534.8,275.9 535.5,276.2 536.3,276.5 537.0,274.5 537.8,272.7 538.5,277.3 539.2,275.1 540.0,277.9 540.7,279.8 541.4,275.7 542.2,276.6 542.9,276.6 543.6,275.5 544.4,277.6 545.1,278.1 545.8,274.1 546.6,275.6 547.3,276.7 548.1,270.1 548.8,274.0 549.5,275.2 550.3,272.7 551.0,275.4 551.7,275.6 552.5,275.6 553.2,274.8 554.0,276.2 554.7,271.5 555.4,272.5 556.2,265.9 556.9,274.9 557.6,273.8 558.4,275.8 559.1,276.9 559.9,279.1 560.6,273.6 561.3,276.7 562.1,273.2 562.8,272.3 563.5,271.3 564.3,272.7 565.0,275.1 565.7,275.9 566.5,280.3 567.2,276.8 568.0,274.6 568.7,275.5 569.4,260.9 570.2,276.9 570.9,276.4 571.6,274.0 572.4,274.9 573.1,275.8 573.9,275.8 574.6,276.3 575.3,275.4 576.1,278.3 576.8,271.3 577.5,275.9 578.3,276.4 579.0,279.1 579.8,283.6 580.5,279.9 581.2,277.5 582.0,277.8 582.7,275.4 583.4,276.0 584.2,276.5 584.9,277.2 585.6,276.3 586.4,275.6 587.1,274.3 587.9,279.9 588.6,277.1 589.3,273.7 590.1,270.0 590.8,274.0 591.5,276.9 592.3,278.1 593.0,279.0 593.7,276.1 594.5,273.8 595.2,281.4 596.0,270.3 596.7,278.2 597.4,275.5 598.2,279.5 598.9,276.5 599.7,276.2 600.4,276.6 601.1,275.1 601.9,273.2 602.6,275.3 603.3,277.2 604.1,286.5 604.8,278.8 605.6,274.6 606.3,276.1 607.0,274.3 607.8,272.3 608.5,275.9 609.2,277.5 610.0,275.1 610.7,278.5 611.5,278.1 612.2,276.3 612.9,277.7 613.7,278.4 614.4,278.1 615.1,273.8 615.9,275.3 616.6,276.8 617.4,279.0 618.1,275.3 618.8,287.6 619.6,274.6 620.3,277.9 621.0,274.8 621.8,271.4 622.5,281.9 623.3,274.8 624.0,276.4 624.7,273.2 625.5,276.1 626.2,277.5 627.0,275.6 627.7,274.0 628.5,274.0 629.2,273.0 629.9,275.5 630.7,276.9 631.4,276.2 632.1,278.3 632.9,281.9 633.6,279.1 634.3,278.7 635.1,276.7 635.8,278.3 636.5,278.5 637.3,277.2 638.0,277.3 638.7,275.2 639.5,276.3 640.2,276.4 641.0,277.7 641.7,278.0 642.4,276.2 643.2,279.2 643.9,278.6 644.6,281.1 645.4,280.1 646.1,279.2 646.9,274.3 647.6,280.3 648.3,281.9 649.1,292.1 649.8,280.0 650.5,278.3 651.3,277.4 652.0,278.2 652.8,281.5 653.5,279.4 654.2,279.0 655.0,277.7 655.7,282.5 656.4,278.6 657.2,281.7 657.9,278.3 658.6,278.7 659.4,277.4 660.1,278.6 660.9,278.8 661.6,278.2 662.3,281.6 663.1,276.4 663.8,278.2 664.5,277.5 665.3,282.3 666.0,279.1 666.7,280.0 667.5,282.8 668.2,279.9 668.9,280.2 669.7,277.4 670.4,281.5 671.2,280.2 671.9,280.6 672.6,278.8 673.4,277.9 674.1,276.0 674.8,282.3" fill="none" stroke="#64748b" stroke-width="1.5" stroke-dasharray="5,3"/>
<polyline points="65.0,119.6 66.0,53.3 67.0,88.5 67.9,144.9 68.9,160.5 69.9,151.1 70.9,153.6 71.9,158.1 72.8,164.3 73.8,167.8 74.8,171.6 75.8,174.3 76.8,176.0 77.8,177.3 78.7,179.3 79.7,181.2 80.7,183.2 81.7,184.6 82.7,186.6 83.7,188.9 84.7,191.0 85.7,193.4 86.6,195.5 87.6,198.0 88.6,200.3 89.6,201.9 90.6,203.2 91.6,204.7 92.6,206.8 93.6,208.0 94.6,207.7 95.6,208.9 96.6,210.3 97.5,211.6 98.5,211.6 99.5,212.6 100.5,213.6 101.5,214.1 102.5,213.2 103.4,215.2 104.4,215.3 105.4,215.8 106.4,217.3 107.4,216.2 108.4,217.7 109.4,218.5 110.4,218.4 111.4,218.8 112.4,220.0 113.3,220.6 114.3,220.4 115.3,220.6 116.3,222.3 117.3,223.7 118.3,223.2 119.3,224.5 120.3,225.8 121.3,226.6 122.3,226.1 123.2,226.5 124.2,228.7 125.2,229.4 126.2,229.5 127.2,229.8 128.2,229.9 129.2,230.8 130.2,232.3 131.1,233.6 132.1,232.8 133.1,234.3 134.1,233.3 135.1,234.4 136.1,235.7 137.1,236.2 138.1,236.9 139.1,236.5 140.1,237.8 141.1,237.7 142.1,237.6 143.0,239.1 144.0,238.8 145.0,239.5 146.0,239.1 147.0,239.6 148.0,239.1 149.0,240.2 150.0,241.0 151.0,240.3 152.0,240.6 152.9,240.7 153.9,240.6 154.9,241.6 155.9,242.3 156.9,243.3 157.9,243.5 158.9,242.3 159.9,242.2 160.9,243.1 161.9,242.4 162.9,242.6 163.8,241.6 164.8,241.7 165.8,243.6 166.8,244.4 167.8,241.8 168.8,243.0 169.8,243.6 170.8,245.2 171.8,244.4 172.8,244.9 173.8,244.1 174.8,246.0 175.8,246.3 176.7,245.5 177.8,246.7 178.8,245.5 179.7,245.8 180.7,245.5 181.7,245.3 182.7,245.8 183.7,246.7 184.7,247.6 185.7,246.7 186.7,248.3 187.7,246.8 188.6,246.6 189.6,245.8 190.6,246.8 191.6,247.6 192.6,248.2 193.6,247.6 194.6,247.9 195.6,247.6 196.6,247.2 197.6,248.4 198.5,248.9 199.5,249.0 200.5,247.7 201.5,249.2 202.5,250.0 203.5,249.5 204.5,250.7 205.4,250.8 206.4,250.5 207.4,250.4 208.4,249.7 209.4,250.3 210.4,249.9 211.4,250.0 212.4,251.3 213.4,249.7 214.4,251.3 215.4,251.8 216.3,252.6 217.3,251.5 218.3,251.7 219.3,252.8 220.3,252.5 221.3,252.7 222.3,253.9 223.3,252.7 224.3,251.7 225.3,253.8 226.3,253.9 227.2,253.9 228.2,253.8 229.2,255.0 230.2,254.3 231.2,254.1 232.2,253.3 233.2,254.6 234.2,253.9 235.2,254.3 236.1,254.7 237.1,254.4 238.1,256.8 239.1,255.1 240.1,254.4 241.1,254.4 242.1,257.8 243.1,258.6 244.1,255.0 245.0,255.8 246.0,258.5 247.0,256.9 248.0,257.0 249.0,256.8 250.0,256.5 251.0,255.8 252.0,255.7 253.0,258.3 253.9,258.7 254.9,258.8 255.9,257.4 256.9,259.1 257.9,257.9 258.9,258.8 259.9,259.8 260.8,259.8 261.8,258.8 262.8,260.3 263.8,259.1 264.8,259.1 265.8,259.4 266.8,258.3 267.8,259.3 268.8,259.9 269.8,259.9 270.8,260.2 271.8,261.0 272.8,259.8 273.8,259.1 274.8,261.0 275.7,260.2 276.7,261.0 277.7,261.8 278.7,261.6 279.7,261.7 280.7,260.3 281.7,261.1 282.6,260.7 283.6,261.1 284.6,261.7 285.6,262.5 286.6,263.2 287.6,262.7 288.6,262.6 289.5,261.6 290.5,260.8 291.5,262.3 292.5,263.2 293.5,264.9 294.5,263.1 295.5,262.6 296.5,263.6 297.4,262.2 298.4,261.6 299.4,264.4 300.4,263.4 301.4,264.7 302.4,262.7 303.4,265.5 304.4,265.5 305.4,264.0 306.3,262.7 307.3,264.0 308.3,264.8 309.3,263.1 310.3,265.5 311.3,263.5 312.3,264.3 313.3,265.1 314.3,264.3 315.2,265.4 316.2,265.1 317.2,263.3 318.2,263.7 319.2,262.4 320.2,264.7 321.2,264.6 322.2,264.7 323.2,265.8 324.1,264.3 325.1,266.0 326.1,266.1 327.1,265.9 328.1,265.9 329.1,265.3 330.0,265.6 331.0,265.2 332.0,264.9 333.0,266.3 334.0,266.8 335.0,266.0 336.0,267.0 337.0,266.0 337.9,265.6 338.9,265.5 339.9,266.5 340.9,268.3 341.9,266.1 342.9,266.4 343.9,267.7 344.9,266.3 345.9,265.7 346.8,267.4 347.8,267.4 348.8,268.5 349.8,266.2 350.8,266.3 351.8,266.2 352.8,268.6 353.8,268.1 354.7,268.3 355.7,268.3 356.7,266.7 357.7,266.7 358.7,267.3 359.7,267.4 360.7,269.9 361.6,267.6 362.6,266.5 363.6,268.5 364.6,268.4 365.6,268.4 366.6,268.8 367.6,267.3 368.6,269.0 369.6,269.1 370.6,268.6 371.6,269.2 372.6,269.5 373.5,268.4 374.5,266.5 375.5,269.9 376.5,269.3 377.5,269.0 378.5,269.3 379.4,269.2 380.4,269.7 381.4,268.9 382.4,267.4 383.4,266.7 384.4,268.8 385.4,270.9 386.3,269.6 387.3,268.4 388.3,269.7 389.3,269.8 390.3,268.2 391.3,269.8 392.3,268.8 393.2,268.8 394.2,268.1 395.2,269.8 396.2,269.7 397.2,267.8 398.2,269.2 399.2,268.6 400.2,269.5 401.2,269.6 402.2,269.8 403.2,270.5 404.1,269.0 405.1,270.4 406.1,269.3 407.1,269.0 408.1,270.7 409.1,270.4 410.1,272.6 411.1,268.8 412.0,270.5 413.0,269.5 414.0,270.7 415.0,268.5 416.0,270.6 417.0,270.4 418.0,270.7 418.9,270.6 419.9,274.3 420.9,269.2 421.9,271.8 422.9,270.6 423.9,270.8 424.9,270.8 425.8,270.6 426.8,272.3 427.8,269.3 428.8,272.3 429.8,270.1 430.8,270.0 431.8,271.9 432.8,270.2 433.8,271.8 434.7,271.5 435.7,270.4 436.7,272.3 437.7,270.8 438.7,272.3 439.7,271.0 440.7,268.8 441.7,270.4 442.7,271.1 443.6,271.2 444.6,272.1 445.6,272.8 446.6,271.0 447.6,271.0 448.6,272.7 449.6,269.7 450.5,271.8 451.5,269.9 452.5,272.2 453.5,271.7 454.5,271.4 455.5,271.9 456.5,271.7 457.5,273.2 458.5,272.0 459.4,272.4 460.4,271.1 461.4,272.7 462.4,271.0 463.4,271.6 464.4,270.5 465.4,272.4 466.4,270.1 467.3,271.5 468.3,270.0 469.3,270.5 470.3,272.9 471.3,271.0 472.3,273.4 473.3,272.4 474.3,272.2 475.3,271.7 476.2,271.8 477.2,271.6 478.2,272.7 479.2,272.9 480.2,270.5 481.2,273.1 482.1,273.3 483.1,271.2 484.1,274.3 485.1,273.1 486.1,269.7 487.1,272.9 488.1,272.7 489.0,274.3 490.0,273.3 491.0,273.4 492.0,272.7 493.0,272.9 494.0,273.7 495.0,274.8 495.9,271.3 496.9,274.0 497.9,273.2 498.9,272.5 499.9,272.6 500.9,273.4 501.9,273.4 502.9,272.7 503.8,274.2 504.8,272.0 505.8,273.8 506.8,275.3 507.8,272.7 508.8,274.2 509.8,272.1 510.8,271.4 511.8,273.0 512.7,273.5 513.7,273.7 514.7,273.1 515.7,273.3 516.7,274.9 517.7,274.8 518.7,273.8 519.7,270.5 520.6,273.9 521.6,272.3 522.6,272.2 523.6,274.1 524.6,274.6 525.6,273.5 526.6,273.8 527.6,274.8 528.6,272.8 529.6,274.8 530.5,275.8 531.5,273.8 532.5,274.6 533.5,273.2 534.5,273.6 535.5,275.1 536.5,273.9 537.5,273.7 538.5,273.7 539.5,274.4 540.5,275.1 541.4,272.2 542.4,274.3 543.4,274.7 544.4,274.2 545.4,274.7 546.4,275.6 547.4,274.4 548.4,275.6 549.3,274.1 550.3,272.0 551.3,274.1 552.3,275.7 553.3,273.8 554.3,272.8 555.3,274.4 556.3,274.3 557.3,276.2 558.2,275.0 559.2,274.8 560.2,276.4 561.2,272.7 562.2,274.9 563.2,274.5 564.2,277.4 565.2,273.8 566.2,273.9 567.1,275.9 568.1,276.3 569.1,274.2 570.1,274.6 571.1,274.3 572.1,272.8 573.1,271.8 574.1,274.6 575.1,275.2 576.1,275.0 577.1,274.2 578.1,276.4 579.0,273.4 580.0,275.9 581.0,274.7 582.0,275.7 583.0,275.5 584.0,274.9 585.0,275.1 586.0,275.2 587.0,276.6 588.0,277.7 589.0,274.5 590.0,275.5 590.9,275.4 591.9,275.1 592.9,276.3 593.9,276.3 594.9,274.0 595.9,275.3 596.9,273.9 597.9,274.8 598.9,273.9 599.9,276.8 600.9,275.0 601.9,274.3 602.8,276.2 603.8,276.2 604.8,275.8 605.8,276.7 606.8,276.7 607.8,276.3 608.8,276.2 609.8,274.0 610.8,275.5 611.7,275.3 612.7,276.5 613.7,276.7 614.7,275.4 615.7,276.6 616.7,276.9 617.7,275.8 618.7,277.7 619.6,275.4 620.6,276.8 621.6,277.9 622.6,277.2 623.6,275.8 624.6,275.0 625.6,277.8 626.6,276.9 627.6,275.8 628.6,278.3 629.5,275.9 630.5,277.4 631.5,278.4 632.5,276.9 633.5,276.1 634.5,276.4 635.5,275.6 636.4,277.7 637.4,275.9 638.4,276.7 639.4,277.7 640.4,277.9 641.4,278.0 642.4,275.1 643.3,275.8 644.3,276.9 645.3,276.2 646.3,277.7 647.3,277.4 648.3,277.8 649.3,276.4 650.3,277.6 651.3,278.7 652.3,275.3 653.3,277.0 654.3,277.2 655.2,276.4 656.2,277.5 657.2,277.4 658.2,278.8 659.2,278.3 660.2,276.8 661.2,276.9 662.1,277.1 663.1,277.3 664.1,277.6 665.1,277.6 666.1,278.1 667.1,276.6 668.1,276.4 669.1,276.3 670.1,277.1 671.1,275.8 672.0,276.7 673.0,278.6 674.0,276.9 675.0,278.5" fill="none" stroke="#16a34a" stroke-width="1.5"/>
<polyline points="65.0,297.5 66.0,188.1 67.0,42.8 67.9,219.3 68.9,319.3 69.9,258.8 70.9,242.4 71.9,241.8 72.8,258.2 73.8,266.2 74.8,271.5 75.8,266.8 76.8,271.5 77.8,269.6 78.7,267.1 79.7,283.4 80.7,261.2 81.7,260.6 82.7,258.9 83.7,259.8 84.7,259.8 85.7,262.3 86.6,262.4 87.6,271.5 88.6,270.5 89.6,273.8 90.6,274.0 91.6,275.2 92.6,279.6 93.6,286.6 94.6,275.2 95.6,278.2 96.6,280.0 97.5,282.5 98.5,286.8 99.5,287.3 100.5,286.9 101.5,281.5 102.5,282.0 103.4,290.9 104.4,277.9 105.4,280.0 106.4,281.2 107.4,279.4 108.4,278.1 109.4,279.1 110.4,278.5 111.4,272.6 112.4,276.2 113.3,274.5 114.3,274.6 115.3,276.4 116.3,275.9 117.3,284.1 118.3,277.7 119.3,279.8 120.3,281.6 121.3,280.5 122.3,279.9 123.2,276.0 124.2,284.5 125.2,286.5 126.2,291.1 127.2,296.0 128.2,286.4 129.2,288.5 130.2,289.9 131.1,295.2 132.1,298.5 133.1,298.2 134.1,291.3 135.1,292.3 136.1,299.0 137.1,298.1 138.1,297.7 139.1,293.6 140.1,297.0 141.1,292.8 142.1,294.0 143.0,295.4 144.0,294.5 145.0,297.3 146.0,299.2 147.0,295.2 148.0,291.8 149.0,296.0 150.0,292.0 151.0,299.5 152.0,295.8 152.9,295.3 153.9,291.7 154.9,302.4 155.9,293.1 156.9,299.1 157.9,298.5 158.9,293.7 159.9,293.7 160.9,295.5 161.9,291.6 162.9,294.6 163.8,290.8 164.8,288.1 165.8,293.5 166.8,292.4 167.8,288.4 168.8,290.4 169.8,295.3 170.8,293.0 171.8,292.1 172.8,295.1 173.8,292.0 174.8,297.8 175.8,296.5 176.7,297.0 177.8,294.9 178.8,293.2 179.7,296.3 180.7,295.0 181.7,293.0 182.7,291.3 183.7,295.5 184.7,300.9 185.7,303.2 186.7,298.5 187.7,292.7 188.6,296.5 189.6,296.9 190.6,295.4 191.6,297.0 192.6,299.7 193.6,295.7 194.6,294.5 195.6,293.1 196.6,295.2 197.6,304.8 198.5,303.3 199.5,294.8 200.5,295.1 201.5,294.4 202.5,297.4 203.5,294.0 204.5,296.3 205.4,299.4 206.4,295.5 207.4,296.4 208.4,294.6 209.4,295.9 210.4,291.3 211.4,293.5 212.4,298.3 213.4,288.4 214.4,294.4 215.4,301.2 216.3,296.4 217.3,293.4 218.3,288.4 219.3,291.4 220.3,292.5 221.3,294.5 222.3,297.0 223.3,294.2 224.3,291.9 225.3,292.2 226.3,291.7 227.2,291.3 228.2,291.3 229.2,292.9 230.2,289.0 231.2,290.8 232.2,285.3 233.2,288.6 234.2,288.3 235.2,287.0 236.1,286.3 237.1,287.0 238.1,288.6 239.1,288.7 240.1,316.2 241.1,288.7 242.1,299.4 243.1,293.6 244.1,286.7 245.0,294.6 246.0,295.2 247.0,292.7 248.0,290.7 249.0,288.7 250.0,289.8 251.0,289.5 252.0,289.6 253.0,290.9 253.9,295.8 254.9,293.6 255.9,286.7 256.9,291.2 257.9,290.4 258.9,290.3 259.9,291.0 260.8,295.0 261.8,293.1 262.8,301.4 263.8,296.4 264.8,290.5 265.8,294.5 266.8,295.3 267.8,293.2 268.8,295.0 269.8,296.7 270.8,292.2 271.8,293.2 272.8,304.9 273.8,306.1 274.8,298.9 275.7,293.9 276.7,300.9 277.7,298.1 278.7,293.0 279.7,296.6 280.7,298.2 281.7,295.1 282.6,295.2 283.6,298.5 284.6,299.4 285.6,298.7 286.6,299.4 287.6,298.3 288.6,288.9 289.5,295.6 290.5,292.9 291.5,292.9 292.5,299.0 293.5,302.4 294.5,302.8 295.5,289.5 296.5,296.8 297.4,296.6 298.4,289.1 299.4,298.5 300.4,296.7 301.4,301.0 302.4,294.6 303.4,296.7 304.4,297.9 305.4,296.9 306.3,290.8 307.3,293.2 308.3,293.8 309.3,292.4 310.3,300.2 311.3,295.2 312.3,292.5 313.3,292.5 314.3,289.5 315.2,296.4 316.2,298.2 317.2,292.9 318.2,290.1 319.2,292.0 320.2,295.1 321.2,285.8 322.2,292.1 323.2,296.7 324.1,292.0 325.1,293.4 326.1,296.2 327.1,294.5 328.1,292.7 329.1,295.3 330.0,294.3 331.0,292.5 332.0,291.8 333.0,292.6 334.0,294.7 335.0,293.3 336.0,301.8 337.0,301.1 337.9,296.8 338.9,295.0 339.9,298.3 340.9,296.6 341.9,297.5 342.9,294.1 343.9,327.2 344.9,307.6 345.9,293.1 346.8,302.0 347.8,296.6 348.8,303.3 349.8,294.6 350.8,297.8 351.8,299.2 352.8,300.3 353.8,300.4 354.7,300.6 355.7,300.0 356.7,295.2 357.7,292.0 358.7,300.6 359.7,299.0 360.7,304.9 361.6,298.8 362.6,295.5 363.6,300.9 364.6,299.0 365.6,297.5 366.6,296.9 367.6,297.9 368.6,303.4 369.6,301.3 370.6,284.9 371.6,301.5 372.6,303.0 373.5,303.9 374.5,298.9 375.5,304.7 376.5,297.7 377.5,299.1 378.5,301.6 379.4,297.1 380.4,286.9 381.4,294.5 382.4,295.0 383.4,293.8 384.4,292.6 385.4,300.7 386.3,297.0 387.3,294.1 388.3,293.8 389.3,298.4 390.3,295.2 391.3,298.0 392.3,293.4 393.2,298.1 394.2,300.9 395.2,294.1 396.2,298.7 397.2,291.0 398.2,295.8 399.2,293.2 400.2,293.2 401.2,297.2 402.2,291.9 403.2,296.9 404.1,290.4 405.1,298.2 406.1,294.2 407.1,291.8 408.1,293.1 409.1,300.5 410.1,306.6 411.1,298.0 412.0,298.8 413.0,297.2 414.0,300.8 415.0,298.8 416.0,301.1 417.0,297.0 418.0,303.2 418.9,301.1 419.9,306.8 420.9,299.2 421.9,303.8 422.9,295.9 423.9,302.8 424.9,302.2 425.8,293.6 426.8,300.3 427.8,298.0 428.8,302.1 429.8,292.1 430.8,297.5 431.8,299.5 432.8,298.9 433.8,307.0 434.7,298.6 435.7,301.9 436.7,304.1 437.7,298.1 438.7,301.2 439.7,295.7 440.7,294.8 441.7,300.4 442.7,302.4 443.6,300.4 444.6,306.5 445.6,305.1 446.6,298.0 447.6,296.1 448.6,309.4 449.6,300.1 450.5,303.5 451.5,299.3 452.5,301.3 453.5,299.6 454.5,297.4 455.5,300.9 456.5,301.5 457.5,304.7 458.5,297.4 459.4,295.0 460.4,298.6 461.4,299.0 462.4,291.7 463.4,294.6 464.4,291.9 465.4,295.5 466.4,293.9 467.3,293.2 468.3,291.9 469.3,294.6 470.3,293.5 471.3,297.7 472.3,291.4 473.3,293.1 474.3,295.0 475.3,292.4 476.2,293.0 477.2,293.4 478.2,297.8 479.2,298.8 480.2,300.0 481.2,307.3 482.1,301.9 483.1,295.7 484.1,304.8 485.1,302.7 486.1,295.8 487.1,298.0 488.1,291.7 489.0,301.3 490.0,297.1 491.0,293.5 492.0,321.1 493.0,300.4 494.0,296.8 495.0,301.8 495.9,293.9 496.9,299.1 497.9,293.6 498.9,296.2 499.9,299.3 500.9,302.3 501.9,302.5 502.9,301.1 503.8,303.2 504.8,299.6 505.8,301.3 506.8,300.6 507.8,296.6 508.8,300.2 509.8,303.5 510.8,298.7 511.8,299.0 512.7,294.9 513.7,301.6 514.7,301.0 515.7,300.5 516.7,304.6 517.7,298.4 518.7,298.7 519.7,292.3 520.6,294.6 521.6,299.2 522.6,299.1 523.6,296.2 524.6,298.7 525.6,292.5 526.6,294.9 527.6,298.3 528.6,295.2 529.6,295.4 530.5,292.1 531.5,297.0 532.5,293.8 533.5,295.7 534.5,294.4 535.5,297.0 536.5,295.4 537.5,299.4 538.5,292.7 539.5,296.0 540.5,291.8 541.4,292.6 542.4,294.8 543.4,296.8 544.4,293.1 545.4,295.7 546.4,299.5 547.4,295.4 548.4,305.7 549.3,297.4 550.3,297.2 551.3,296.4 552.3,298.9 553.3,296.9 554.3,296.5 555.3,302.6 556.3,311.9 557.3,302.1 558.2,298.0 559.2,294.5 560.2,299.0 561.2,292.7 562.2,302.2 563.2,303.6 564.2,307.2 565.2,296.3 566.2,291.3 567.1,296.5 568.1,301.5 569.1,311.8 570.1,297.7 571.1,296.3 572.1,295.7 573.1,291.8 574.1,296.4 575.1,297.9 576.1,293.3 577.1,301.3 578.1,299.1 579.0,288.8 580.0,288.2 581.0,292.9 582.0,295.5 583.0,298.7 584.0,296.3 585.0,295.4 586.0,297.6 587.0,302.4 588.0,295.9 589.0,297.3 590.0,307.5 590.9,300.3 591.9,294.6 592.9,294.4 593.9,300.1 594.9,291.9 595.9,305.8 596.9,292.7 597.9,293.5 598.9,294.0 599.9,299.8 600.9,297.8 601.9,300.7 602.8,299.4 603.8,287.2 604.8,293.9 605.8,301.5 606.8,302.0 607.8,305.6 608.8,298.3 609.8,295.7 610.8,293.8 611.7,295.3 612.7,297.4 613.7,295.9 614.7,297.2 615.7,301.9 616.7,298.8 617.7,296.0 618.7,287.6 619.6,299.8 620.6,299.3 621.6,308.8 622.6,292.5 623.6,299.2 624.6,300.9 625.6,301.5 626.6,299.3 627.6,301.4 628.6,306.5 629.5,301.9 630.5,300.2 631.5,302.1 632.5,293.5 633.5,292.8 634.5,295.7 635.5,295.4 636.4,297.5 637.4,296.6 638.4,299.9 639.4,301.5 640.4,300.9 641.4,299.0 642.4,296.7 643.3,293.3 644.3,293.5 645.3,292.2 646.3,298.8 647.3,297.6 648.3,292.1 649.3,280.2 650.3,296.6 651.3,300.9 652.3,292.0 653.3,293.8 654.3,296.0 655.2,293.5 656.2,295.3 657.2,292.0 658.2,299.4 659.2,299.8 660.2,295.8 661.2,296.1 662.1,292.7 663.1,300.1 664.1,298.3 665.1,292.9 666.1,297.0 667.1,290.8 668.1,292.1 669.1,292.9 670.1,294.5 671.1,291.0 672.0,292.8 673.0,299.3 674.0,300.0" fill="none" stroke="#2563eb" stroke-width="2.5"/>
<rect x="65" y="20" width="610" height="330" fill="none" stroke="#888" stroke-width="1.5"/>
<line x1="62" y1="308.5" x2="65" y2="308.5" stroke="#64748b" stroke-width="1" opacity="0.6"/>
<line x1="62" y1="260.0" x2="65" y2="260.0" stroke="#64748b" stroke-width="1" opacity="0.6"/>
<line x1="62" y1="199.0" x2="65" y2="199.0" stroke="#64748b" stroke-width="1" opacity="0.6"/>
<line x1="60" y1="116.3" x2="65" y2="116.3" stroke="#64748b" stroke-width="1.5"/>
<text x="57" y="116.3" text-anchor="end" dominant-baseline="middle" font-size="11" font-family="monospace,sans-serif" fill="#64748b">10</text>
<line x1="62" y1="33.5" x2="65" y2="33.5" stroke="#64748b" stroke-width="1" opacity="0.6"/>
<line x1="675" y1="298.8" x2="680" y2="298.8" stroke="#2563eb" stroke-width="1.5"/>
<text x="683" y="298.8" text-anchor="start" dominant-baseline="middle" font-size="11" font-family="monospace,sans-serif" fill="#2563eb">0.0</text>
<line x1="675" y1="220.2" x2="680" y2="220.2" stroke="#2563eb" stroke-width="1.5"/>
<text x="683" y="220.2" text-anchor="start" dominant-baseline="middle" font-size="11" font-family="monospace,sans-serif" fill="#2563eb">1.0</text>
<line x1="675" y1="141.6" x2="680" y2="141.6" stroke="#2563eb" stroke-width="1.5"/>
<text x="683" y="141.6" text-anchor="start" dominant-baseline="middle" font-size="11" font-family="monospace,sans-serif" fill="#2563eb">2.0</text>
<line x1="675" y1="63.0" x2="680" y2="63.0" stroke="#2563eb" stroke-width="1.5"/>
<text x="683" y="63.0" text-anchor="start" dominant-baseline="middle" font-size="11" font-family="monospace,sans-serif" fill="#2563eb">3.0</text>
<line x1="65.0" y1="350" x2="65.0" y2="355" stroke="#888" stroke-width="1.5"/>
<text x="65.0" y="368" text-anchor="middle" font-size="11" font-family="monospace,sans-serif">0</text>
<line x1="187.1" y1="350" x2="187.1" y2="355" stroke="#888" stroke-width="1.5"/>
<text x="187.1" y="368" text-anchor="middle" font-size="11" font-family="monospace,sans-serif">2</text>
<line x1="309.2" y1="350" x2="309.2" y2="355" stroke="#888" stroke-width="1.5"/>
<text x="309.2" y="368" text-anchor="middle" font-size="11" font-family="monospace,sans-serif">4</text>
<line x1="431.3" y1="350" x2="431.3" y2="355" stroke="#888" stroke-width="1.5"/>
<text x="431.3" y="368" text-anchor="middle" font-size="11" font-family="monospace,sans-serif">6</text>
<line x1="553.4" y1="350" x2="553.4" y2="355" stroke="#888" stroke-width="1.5"/>
<text x="553.4" y="368" text-anchor="middle" font-size="11" font-family="monospace,sans-serif">8</text>
<line x1="675.6" y1="350" x2="675.6" y2="355" stroke="#888" stroke-width="1.5"/>
<text x="675.6" y="368" text-anchor="middle" font-size="11" font-family="monospace,sans-serif">10</text>
<text x="370" y="392" text-anchor="middle" font-size="13" font-family="sans-serif">Runtime (minutes)</text>
<text transform="rotate(-90,28,185)" x="28" y="185" text-anchor="middle" font-size="13" font-family="sans-serif" fill="#64748b">Train loss (log scale)</text>
<text transform="rotate(90,746,185)" x="746" y="185" text-anchor="middle" font-size="13" font-family="sans-serif" fill="#2563eb">Train loss diff (exp − base)</text>
<rect x="72" y="26" width="140" height="62" fill="white" fill-opacity="0.85" stroke="#ddd" stroke-width="1" rx="3"/>
<line x1="77" y1="37" x2="99" y2="37" stroke="#64748b" stroke-width="1.5" stroke-dasharray="5,3"/>
<text x="104" y="41" font-size="11" font-family="sans-serif" fill="#64748b">Baseline train loss</text>
<line x1="77" y1="55" x2="99" y2="55" stroke="#16a34a" stroke-width="1.5"/>
<text x="104" y="59" font-size="11" font-family="sans-serif" fill="#16a34a">Experiment train loss</text>
<line x1="77" y1="73" x2="99" y2="73" stroke="#2563eb" stroke-width="2.5"/>
<text x="104" y="77" font-size="11" font-family="sans-serif" fill="#2563eb">Train loss diff</text>
</svg>