<svg xmlns="http://www.w3.org/2000/svg" viewBox="0 0 760 400" width="760" height="400" style="background:white">
<rect x="65" y="20" width="610" height="330" fill="#f9f9f9"/>
<line x1="65" y1="308.5" x2="675" y2="308.5" stroke="#ececec" stroke-width="1"/>
<line x1="65" y1="260.0" x2="675" y2="260.0" stroke="#ececec" stroke-width="1"/>
<line x1="65" y1="199.0" x2="675" y2="199.0" stroke="#ececec" stroke-width="1"/>
<line x1="65" y1="116.3" x2="675" y2="116.3" stroke="#ddd" stroke-width="1"/>
<line x1="65" y1="33.5" x2="675" y2="33.5" stroke="#ececec" stroke-width="1"/>
<line x1="65.0" y1="20" x2="65.0" y2="350" stroke="#ececec" stroke-width="1"/>
<line x1="187.1" y1="20" x2="187.1" y2="350" stroke="#ececec" stroke-width="1"/>
<line x1="309.2" y1="20" x2="309.2" y2="350" stroke="#ececec" stroke-width="1"/>
<line x1="431.3" y1="20" x2="431.3" y2="350" stroke="#ececec" stroke-width="1"/>
<line x1="553.3" y1="20" x2="553.3" y2="350" stroke="#ececec" stroke-width="1"/>
<line x1="675.4" y1="20" x2="675.4" y2="350" stroke="#ececec" stroke-width="1"/>
<line x1="65" y1="292.0" x2="675" y2="292.0" stroke="#2563eb" stroke-width="0.75" stroke-dasharray="3,3" opacity="0.4"/>
<polyline points="65.0,119.8 65.9,52.3 66.8,85.9 67.7,141.9 68.5,160.7 69.4,155.7 70.3,156.5 71.2,162.7 72.1,166.9 73.0,169.9 73.9,172.4 74.8,173.8 75.7,175.9 76.6,177.5 77.5,179.6 78.4,181.0 79.3,183.0 80.2,183.4 81.1,184.7 82.0,186.8 82.9,188.5 83.9,189.8 84.8,191.8 85.7,194.1 86.6,196.0 87.5,198.4 88.4,200.2 89.3,202.2 90.2,203.8 91.1,204.9 92.0,205.8 92.9,206.4 93.8,208.2 94.7,209.1 95.6,210.4 96.6,211.1 97.5,211.1 98.4,212.1 99.3,212.8 100.2,213.6 101.1,214.1 102.0,214.9 102.9,215.6 103.8,215.8 104.7,216.1 105.7,217.8 106.6,217.8 107.5,218.1 108.4,217.3 109.3,219.7 110.2,219.0 111.1,220.6 112.0,221.1 112.9,221.4 113.8,222.7 114.7,223.0 115.6,223.5 116.6,223.5 117.5,225.0 118.4,225.3 119.3,225.5 120.2,227.1 121.1,226.6 122.0,227.6 122.9,229.0 123.8,230.1 124.7,231.3 125.6,231.1 126.5,231.2 127.4,232.1 128.4,232.8 129.3,232.9 130.2,234.2 131.1,234.4 132.0,233.9 132.9,235.0 133.8,234.5 134.7,235.9 135.6,235.6 136.5,237.9 137.5,237.1 138.4,237.2 139.3,237.0 140.2,237.6 141.1,239.4 142.0,238.3 142.9,238.8 143.8,239.9 144.7,239.5 145.6,238.3 146.5,241.9 147.5,240.8 148.4,239.8 149.3,241.2 150.2,241.4 151.1,240.8 152.0,241.5 152.9,241.1 153.8,242.0 154.7,242.8 155.7,241.8 156.6,242.4 157.5,243.6 158.4,242.1 159.3,244.4 160.2,243.1 161.1,241.7 162.0,243.7 162.9,243.0 163.9,243.0 164.8,244.0 165.7,244.7 166.6,245.1 167.5,244.9 168.4,243.6 169.3,245.6 170.2,244.9 171.2,245.7 172.1,245.8 173.0,245.1 173.9,245.5 174.8,243.8 175.7,246.4 176.6,247.1 177.5,245.8 178.5,246.7 179.4,245.7 180.3,246.6 181.2,248.8 182.1,246.9 183.0,247.1 183.9,246.4 184.8,247.0 185.8,247.1 186.7,246.9 187.6,248.4 188.5,248.5 189.4,247.2 190.3,248.2 191.2,247.3 192.1,248.0 193.1,248.8 194.0,248.7 194.9,249.3 195.8,249.8 196.7,249.9 197.6,248.7 198.5,248.9 199.4,249.4 200.4,249.8 201.3,250.6 202.2,250.9 203.1,250.6 204.0,250.6 204.9,250.7 205.8,251.2 206.7,250.9 207.6,251.7 208.5,251.1 209.5,251.6 210.4,250.5 211.3,251.8 212.2,252.9 213.1,252.1 214.0,251.4 214.9,252.8 215.8,254.1 216.7,252.1 217.6,254.1 218.5,252.5 219.4,253.2 220.3,252.9 221.3,253.3 222.2,252.9 223.1,253.1 224.0,253.1 224.9,254.8 225.8,253.9 226.7,254.3 227.6,254.1 228.5,255.1 229.5,254.1 230.4,255.0 231.3,254.9 232.2,255.5 233.1,255.8 234.0,255.4 234.9,255.2 235.8,255.8 236.7,256.6 237.7,254.9 238.6,257.0 239.5,257.0 240.4,257.3 241.3,256.6 242.2,256.1 243.1,257.7 244.0,257.0 244.9,256.8 245.9,257.0 246.8,257.4 247.7,260.1 248.6,257.3 249.5,259.1 250.4,258.5 251.3,260.0 252.2,258.0 253.2,259.1 254.1,258.2 255.0,258.5 255.9,260.0 256.8,259.8 257.7,259.5 258.6,258.8 259.5,260.4 260.4,261.4 261.3,259.1 262.2,259.4 263.1,259.9 264.0,260.1 264.9,260.3 265.8,260.0 266.7,260.6 267.6,259.9 268.5,261.4 269.4,260.4 270.3,261.5 271.2,261.4 272.2,261.2 273.1,261.8 274.0,261.4 274.9,261.4 275.8,261.1 276.7,262.3 277.6,262.9 278.5,261.9 279.4,262.9 280.3,264.3 281.2,262.7 282.1,263.3 283.0,261.5 283.9,263.0 284.8,263.4 285.7,262.7 286.6,264.2 287.5,264.5 288.4,262.7 289.4,263.4 290.3,262.3 291.2,263.0 292.1,263.5 293.0,261.0 293.9,264.5 294.8,263.5 295.7,263.4 296.6,264.1 297.5,264.0 298.4,263.6 299.3,265.3 300.2,266.6 301.1,265.4 302.0,263.5 302.9,264.7 303.8,266.3 304.7,264.6 305.6,264.9 306.5,265.2 307.4,263.7 308.3,265.0 309.2,264.3 310.2,264.3 311.1,262.9 312.0,265.6 312.9,265.4 313.8,265.0 314.7,265.2 315.6,265.2 316.5,264.8 317.4,265.8 318.3,266.4 319.2,264.3 320.2,267.2 321.1,263.6 322.0,267.2 322.9,264.4 323.8,265.9 324.7,266.3 325.6,267.2 326.5,264.2 327.4,265.3 328.3,267.0 329.2,267.6 330.2,267.6 331.1,265.1 332.0,268.2 332.9,266.4 333.8,266.4 334.7,266.9 335.6,266.8 336.5,267.2 337.4,267.6 338.3,268.1 339.2,267.0 340.1,267.1 341.0,267.3 341.9,268.4 342.8,267.3 343.7,268.7 344.7,267.0 345.6,267.8 346.5,267.1 347.4,269.2 348.3,268.7 349.2,267.8 350.1,269.7 351.0,268.7 351.9,268.7 352.8,268.8 353.7,267.1 354.6,268.8 355.5,268.7 356.5,268.7 357.4,267.2 358.3,267.2 359.2,267.5 360.1,268.8 361.0,269.4 361.9,269.2 362.8,269.6 363.7,268.0 364.6,267.7 365.5,269.2 366.4,269.0 367.3,268.5 368.3,266.7 369.2,268.0 370.1,269.3 371.0,269.6 371.9,269.3 372.8,269.6 373.7,269.0 374.6,268.1 375.5,269.0 376.4,268.2 377.3,269.1 378.2,270.6 379.2,267.9 380.1,268.9 381.0,270.2 381.9,270.0 382.8,269.0 383.7,268.8 384.6,270.4 385.5,268.3 386.4,270.8 387.3,270.7 388.2,269.5 389.1,271.0 390.0,271.0 390.9,271.1 391.9,269.2 392.8,272.3 393.7,270.0 394.6,271.1 395.5,269.3 396.4,267.4 397.3,270.8 398.2,270.3 399.1,272.6 400.0,270.0 400.9,270.1 401.9,269.6 402.8,270.8 403.7,271.8 404.6,272.5 405.5,269.3 406.4,270.3 407.3,271.5 408.2,270.6 409.1,273.1 410.0,271.7 410.9,269.1 411.8,269.7 412.7,270.7 413.6,272.0 414.6,272.5 415.5,271.3 416.4,270.7 417.3,271.4 418.2,270.0 419.1,270.3 420.0,272.3 420.9,270.7 421.8,270.6 422.7,271.3 423.7,269.8 424.6,271.0 425.5,272.8 426.4,270.2 427.3,272.2 428.2,271.8 429.1,271.0 430.0,272.8 430.9,270.8 431.8,272.9 432.7,271.8 433.6,272.7 434.5,271.4 435.4,271.9 436.3,271.1 437.3,270.9 438.2,270.0 439.1,271.7 440.0,271.3 440.9,270.5 441.8,271.7 442.7,272.6 443.6,273.3 444.5,272.2 445.4,272.8 446.3,273.4 447.3,271.5 448.2,271.9 449.1,271.4 450.0,272.0 450.9,271.9 451.8,270.8 452.7,272.8 453.6,271.2 454.5,270.2 455.4,273.4 456.3,270.9 457.2,271.9 458.1,272.8 459.0,271.7 460.0,273.1 460.9,274.0 461.8,272.7 462.7,273.3 463.6,271.2 464.5,272.4 465.4,272.9 466.3,273.2 467.2,272.7 468.1,273.3 469.0,272.3 469.9,272.9 470.9,273.8 471.8,273.6 472.7,272.7 473.6,270.7 474.5,272.9 475.4,274.7 476.3,271.2 477.2,274.6 478.1,274.7 479.0,273.1 479.9,275.3 480.9,271.3 481.8,273.6 482.7,273.4 483.6,272.5 484.5,273.6 485.4,271.4 486.3,272.7 487.2,274.0 488.1,273.9 489.0,272.7 489.9,274.6 490.8,274.3 491.7,273.1 492.6,273.5 493.5,274.6 494.5,273.5 495.4,272.8 496.3,273.6 497.2,274.5 498.1,272.4 499.0,273.3 499.9,273.3 500.8,270.9 501.7,273.3 502.6,272.7 503.5,273.1 504.4,272.8 505.3,274.8 506.3,274.7 507.2,274.2 508.1,276.2 509.0,271.7 509.9,273.5 510.8,273.2 511.7,274.0 512.6,274.5 513.5,274.5 514.4,274.0 515.3,274.4 516.2,274.2 517.2,272.8 518.1,274.5 519.0,271.4 519.9,273.0 520.8,272.7 521.7,274.1 522.6,274.7 523.5,272.6 524.4,272.0 525.3,274.4 526.2,273.8 527.1,273.1 528.0,273.3 529.0,275.3 529.9,274.8 530.8,274.1 531.7,274.3 532.6,274.1 533.5,273.7 534.4,273.1 535.3,274.1 536.2,276.4 537.1,275.3 538.0,275.6 538.9,276.9 539.8,273.7 540.7,276.7 541.6,276.2 542.6,275.1 543.5,275.9 544.4,275.4 545.3,274.7 546.2,274.2 547.1,274.7 548.0,274.2 548.9,274.9 549.8,275.9 550.7,276.2 551.6,273.7 552.5,275.0 553.4,273.3 554.3,275.8 555.2,273.9 556.2,276.8 557.1,273.7 558.0,274.2 558.9,273.3 559.8,275.1 560.7,274.9 561.6,275.0 562.5,274.3 563.4,274.6 564.3,275.3 565.2,275.9 566.1,274.7 567.1,276.4 568.0,273.7 568.9,275.2 569.8,275.2 570.7,273.0 571.6,276.4 572.5,278.0 573.4,275.9 574.3,276.8 575.2,276.2 576.1,277.2 577.0,276.2 577.9,274.6 578.8,275.6 579.8,276.3 580.7,275.2 581.6,276.5 582.5,276.3 583.4,275.9 584.3,276.3 585.3,276.4 586.2,274.4 587.1,277.2 588.0,276.8 588.9,274.2 589.8,278.1 590.7,275.1 591.6,277.3 592.5,274.7 593.4,275.6 594.3,275.0 595.3,274.3 596.2,275.9 597.1,275.5 598.0,275.5 598.9,277.4 599.8,277.0 600.7,275.2 601.6,275.3 602.5,276.0 603.4,275.4 604.3,276.6 605.2,278.5 606.1,276.9 607.1,276.7 608.0,273.9 608.9,275.4 609.8,279.5 610.7,277.9 611.6,277.7 612.5,276.2 613.4,277.4 614.3,276.1 615.2,277.7 616.1,277.1 617.0,276.3 617.9,275.2 618.8,279.7 619.7,278.3 620.6,275.4 621.5,277.0 622.5,276.9 623.4,275.9 624.3,277.9 625.2,275.3 626.1,275.7 627.0,276.8 627.9,276.6 628.8,276.8 629.7,279.1 630.6,277.9 631.5,275.0 632.4,278.4 633.3,277.6 634.2,275.4 635.1,278.9 636.0,276.4 637.0,279.3 637.9,276.9 638.8,275.9 639.7,276.9 640.6,279.1 641.5,276.2 642.4,278.5 643.3,276.6 644.2,276.2 645.1,278.0 646.0,275.3 646.9,277.4 647.8,275.3 648.7,276.5 649.6,279.1 650.5,278.8 651.4,276.1 652.3,278.3 653.2,277.7 654.1,278.0 655.1,278.0 656.0,277.8 656.9,276.0 657.8,278.1 658.7,277.4 659.6,275.9 660.5,278.5 661.4,277.5 662.3,275.7 663.2,278.4 664.1,276.5 665.0,277.0 665.9,278.3 666.8,276.2 667.7,277.4 668.6,279.2 669.6,277.8 670.5,279.6 671.4,276.1 672.3,278.8 673.2,277.6 674.1,279.0 675.0,276.3" fill="none" stroke="#64748b" stroke-width="1.5" stroke-dasharray="5,3"/>
<polyline points="65.0,119.6 66.0,53.3 67.0,88.5 67.9,144.9 68.9,160.5 69.9,151.1 70.9,153.6 71.8,158.1 72.8,164.3 73.8,167.8 74.8,171.6 75.8,174.3 76.8,176.0 77.8,177.3 78.7,179.3 79.7,181.2 80.7,183.2 81.7,184.6 82.7,186.6 83.7,188.9 84.7,191.0 85.7,193.4 86.6,195.5 87.6,198.0 88.6,200.3 89.6,201.9 90.6,203.2 91.6,204.7 92.6,206.8 93.6,208.0 94.6,207.7 95.6,208.9 96.6,210.3 97.5,211.6 98.5,211.6 99.5,212.6 100.5,213.6 101.5,214.1 102.5,213.2 103.4,215.2 104.4,215.3 105.4,215.8 106.4,217.3 107.4,216.2 108.4,217.7 109.4,218.5 110.4,218.4 111.4,218.8 112.3,220.0 113.3,220.6 114.3,220.4 115.3,220.6 116.3,222.3 117.3,223.7 118.3,223.2 119.3,224.5 120.3,225.8 121.3,226.6 122.2,226.1 123.2,226.5 124.2,228.7 125.2,229.4 126.2,229.5 127.2,229.8 128.2,229.9 129.2,230.8 130.1,232.3 131.1,233.6 132.1,232.8 133.1,234.3 134.1,233.3 135.1,234.4 136.1,235.7 137.1,236.2 138.1,236.9 139.1,236.5 140.1,237.8 141.0,237.7 142.0,237.6 143.0,239.1 144.0,238.8 145.0,239.5 146.0,239.1 147.0,239.6 148.0,239.1 149.0,240.2 150.0,241.0 151.0,240.3 151.9,240.6 152.9,240.7 153.9,240.6 154.9,241.6 155.9,242.3 156.9,243.3 157.9,243.5 158.9,242.3 159.9,242.2 160.9,243.1 161.8,242.4 162.8,242.6 163.8,241.6 164.8,241.7 165.8,243.6 166.8,244.4 167.8,241.8 168.8,243.0 169.8,243.6 170.8,245.2 171.8,244.4 172.8,244.9 173.7,244.1 174.7,246.0 175.7,246.3 176.7,245.5 177.7,246.7 178.7,245.5 179.7,245.8 180.7,245.5 181.7,245.3 182.7,245.8 183.7,246.7 184.7,247.6 185.6,246.7 186.6,248.3 187.6,246.8 188.6,246.6 189.6,245.8 190.6,246.8 191.6,247.6 192.6,248.2 193.6,247.6 194.6,247.9 195.5,247.6 196.5,247.2 197.5,248.4 198.5,248.9 199.5,249.0 200.5,247.7 201.5,249.2 202.5,250.0 203.4,249.5 204.4,250.7 205.4,250.8 206.4,250.5 207.4,250.4 208.4,249.7 209.4,250.3 210.4,249.9 211.4,250.0 212.4,251.3 213.3,249.7 214.3,251.3 215.3,251.8 216.3,252.6 217.3,251.5 218.3,251.7 219.3,252.8 220.3,252.5 221.3,252.7 222.3,253.9 223.3,252.7 224.2,251.7 225.2,253.8 226.2,253.9 227.2,253.9 228.2,253.8 229.2,255.0 230.2,254.3 231.2,254.1 232.2,253.3 233.1,254.6 234.1,253.9 235.1,254.3 236.1,254.7 237.1,254.4 238.1,256.8 239.1,255.1 240.1,254.4 241.1,254.4 242.0,257.8 243.0,258.6 244.0,255.0 245.0,255.8 246.0,258.5 247.0,256.9 248.0,257.0 249.0,256.8 249.9,256.5 250.9,255.8 251.9,255.7 252.9,258.3 253.9,258.7 254.9,258.8 255.9,257.4 256.9,259.1 257.8,257.9 258.8,258.8 259.8,259.8 260.8,259.8 261.8,258.8 262.8,260.3 263.8,259.1 264.8,259.1 265.8,259.4 266.7,258.3 267.7,259.3 268.7,259.9 269.7,259.9 270.7,260.2 271.7,261.0 272.7,259.8 273.7,259.1 274.7,261.0 275.7,260.2 276.7,261.0 277.7,261.8 278.7,261.6 279.6,261.7 280.6,260.3 281.6,261.1 282.6,260.7 283.6,261.1 284.6,261.7 285.6,262.5 286.5,263.2 287.5,262.7 288.5,262.6 289.5,261.6 290.5,260.8 291.5,262.3 292.5,263.2 293.5,264.9 294.4,263.1 295.4,262.6 296.4,263.6 297.4,262.2 298.4,261.6 299.4,264.4 300.4,263.4 301.4,264.7 302.3,262.7 303.3,265.5 304.3,265.5 305.3,264.0 306.3,262.7 307.3,264.0 308.3,264.8 309.3,263.1 310.2,265.5 311.2,263.5 312.2,264.3 313.2,265.1 314.2,264.3 315.2,265.4 316.2,265.1 317.2,263.3 318.1,263.7 319.1,262.4 320.1,264.7 321.1,264.6 322.1,264.7 323.1,265.8 324.1,264.3 325.1,266.0 326.1,266.1 327.0,265.9 328.0,265.9 329.0,265.3 330.0,265.6 331.0,265.2 332.0,264.9 332.9,266.3 333.9,266.8 334.9,266.0 335.9,267.0 336.9,266.0 337.9,265.6 338.9,265.5 339.9,266.5 340.9,268.3 341.8,266.1 342.8,266.4 343.8,267.7 344.8,266.3 345.8,265.7 346.8,267.4 347.8,267.4 348.8,268.5 349.7,266.2 350.7,266.3 351.7,266.2 352.7,268.6 353.7,268.1 354.7,268.3 355.7,268.3 356.7,266.7 357.7,266.7 358.6,267.3 359.6,267.4 360.6,269.9 361.6,267.6 362.6,266.5 363.6,268.5 364.6,268.4 365.5,268.4 366.5,268.8 367.5,267.3 368.5,269.0 369.5,269.1 370.5,268.6 371.5,269.2 372.5,269.5 373.5,268.4 374.5,266.5 375.4,269.9 376.4,269.3 377.4,269.0 378.4,269.3 379.4,269.2 380.4,269.7 381.4,268.9 382.3,267.4 383.3,266.7 384.3,268.8 385.3,270.9 386.3,269.6 387.3,268.4 388.3,269.7 389.2,269.8 390.2,268.2 391.2,269.8 392.2,268.8 393.2,268.8 394.2,268.1 395.2,269.8 396.1,269.7 397.1,267.8 398.1,269.2 399.1,268.6 400.1,269.5 401.1,269.6 402.1,269.8 403.1,270.5 404.1,269.0 405.1,270.4 406.0,269.3 407.0,269.0 408.0,270.7 409.0,270.4 410.0,272.6 411.0,268.8 412.0,270.5 413.0,269.5 413.9,270.7 414.9,268.5 415.9,270.6 416.9,270.4 417.9,270.7 418.9,270.6 419.8,274.3 420.8,269.2 421.8,271.8 422.8,270.6 423.8,270.8 424.8,270.8 425.8,270.6 426.8,272.3 427.7,269.3 428.7,272.3 429.7,270.1 430.7,270.0 431.7,271.9 432.7,270.2 433.7,271.8 434.7,271.5 435.7,270.4 436.6,272.3 437.6,270.8 438.6,272.3 439.6,271.0 440.6,268.8 441.6,270.4 442.6,271.1 443.6,271.2 444.5,272.1 445.5,272.8 446.5,271.0 447.5,271.0 448.5,272.7 449.5,269.7 450.5,271.8 451.5,269.9 452.4,272.2 453.4,271.7 454.4,271.4 455.4,271.9 456.4,271.7 457.4,273.2 458.4,272.0 459.4,272.4 460.3,271.1 461.3,272.7 462.3,271.0 463.3,271.6 464.3,270.5 465.3,272.4 466.3,270.1 467.3,271.5 468.3,270.0 469.2,270.5 470.2,272.9 471.2,271.0 472.2,273.4 473.2,272.4 474.2,272.2 475.2,271.7 476.1,271.8 477.1,271.6 478.1,272.7 479.1,272.9 480.1,270.5 481.1,273.1 482.1,273.3 483.0,271.2 484.0,274.3 485.0,273.1 486.0,269.7 487.0,272.9 488.0,272.7 489.0,274.3 489.9,273.3 490.9,273.4 491.9,272.7 492.9,272.9 493.9,273.7 494.9,274.8 495.9,271.3 496.8,274.0 497.8,273.2 498.8,272.5 499.8,272.6 500.8,273.4 501.8,273.4 502.8,272.7 503.7,274.2 504.7,272.0 505.7,273.8 506.7,275.3 507.7,272.7 508.7,274.2 509.7,272.1 510.7,271.4 511.7,273.0 512.6,273.5 513.6,273.7 514.6,273.1 515.6,273.3 516.6,274.9 517.6,274.8 518.6,273.8 519.6,270.5 520.6,273.9 521.5,272.3 522.5,272.2 523.5,274.1 524.5,274.6 525.5,273.5 526.5,273.8 527.5,274.8 528.5,272.8 529.5,274.8 530.4,275.8 531.4,273.8 532.4,274.6 533.4,273.2 534.4,273.6 535.4,275.1 536.4,273.9 537.4,273.7 538.4,273.7 539.4,274.4 540.4,275.1 541.3,272.2 542.3,274.3 543.3,274.7 544.3,274.2 545.3,274.7 546.3,275.6 547.3,274.4 548.3,275.6 549.2,274.1 550.2,272.0 551.2,274.1 552.2,275.7 553.2,273.8 554.2,272.8 555.2,274.4 556.2,274.3 557.2,276.2 558.1,275.0 559.1,274.8 560.1,276.4 561.1,272.7 562.1,274.9 563.1,274.5 564.1,277.4 565.1,273.8 566.1,273.9 567.0,275.9 568.0,276.3 569.0,274.2 570.0,274.6 571.0,274.3 572.0,272.8 573.0,271.8 574.0,274.6 575.0,275.2 576.0,275.0 577.0,274.2 577.9,276.4 578.9,273.4 579.9,275.9 580.9,274.7 581.9,275.7 582.9,275.5 583.9,274.9 584.9,275.1 585.9,275.2 586.9,276.6 587.9,277.7 588.9,274.5 589.8,275.5 590.8,275.4 591.8,275.1 592.8,276.3 593.8,276.3 594.8,274.0 595.8,275.3 596.8,273.9 597.8,274.8 598.8,273.9 599.8,276.8 600.7,275.0 601.7,274.3 602.7,276.2 603.7,276.2 604.7,275.8 605.7,276.7 606.7,276.7 607.7,276.3 608.7,276.2 609.7,274.0 610.6,275.5 611.6,275.3 612.6,276.5 613.6,276.7 614.6,275.4 615.6,276.6 616.6,276.9 617.6,275.8 618.5,277.7 619.5,275.4 620.5,276.8 621.5,277.9 622.5,277.2 623.5,275.8 624.5,275.0 625.5,277.8 626.5,276.9 627.4,275.8 628.4,278.3 629.4,275.9 630.4,277.4 631.4,278.4 632.4,276.9 633.4,276.1 634.4,276.4 635.3,275.6 636.3,277.7 637.3,275.9 638.3,276.7 639.3,277.7 640.3,277.9 641.2,278.0 642.2,275.1 643.2,275.8 644.2,276.9 645.2,276.2 646.2,277.7 647.2,277.4 648.2,277.8 649.2,276.4 650.2,277.6 651.2,278.7 652.2,275.3 653.1,277.0 654.1,277.2 655.1,276.4 656.1,277.5 657.1,277.4 658.1,278.8 659.1,278.3 660.1,276.8 661.0,276.9 662.0,277.1 663.0,277.3 664.0,277.6 665.0,277.6 666.0,278.1 667.0,276.6 667.9,276.4 668.9,276.3 670.0,277.1 670.9,275.8 671.9,276.7 672.9,278.6 673.9,276.9 674.9,278.5" fill="none" stroke="#16a34a" stroke-width="1.5"/>
<polyline points="65.0,288.9 66.0,189.8 67.0,42.8 67.9,237.8 68.9,327.2 69.9,192.6 70.9,164.7 71.8,152.7 72.8,203.9 73.8,216.3 74.8,254.2 75.8,262.5 76.8,260.8 77.8,248.7 78.7,252.9 79.7,262.1 80.7,277.3 81.7,270.3 82.7,270.5 83.7,282.2 84.7,283.1 85.7,282.3 86.6,282.1 87.6,283.7 88.6,287.7 89.6,281.7 90.6,277.2 91.6,283.7 92.6,299.0 93.6,296.8 94.6,277.6 95.6,275.0 96.6,281.6 97.5,297.4 98.5,285.0 99.5,287.6 100.5,290.6 101.5,288.2 102.5,266.9 103.4,285.7 104.4,283.5 105.4,273.3 106.4,285.9 107.4,270.4 108.4,296.8 109.4,279.0 110.4,281.4 111.4,270.1 112.3,278.2 113.3,276.9 114.3,264.9 115.3,261.7 116.3,278.3 117.3,280.0 118.3,268.8 119.3,280.9 120.3,278.5 121.3,289.8 122.2,271.7 123.2,261.2 124.2,271.3 125.2,272.9 126.2,274.4 127.2,270.6 128.2,263.6 129.2,271.3 130.1,273.4 131.1,284.7 132.1,279.5 133.1,285.5 134.1,275.7 135.1,278.1 136.1,281.6 137.1,279.9 138.1,289.6 139.1,286.9 140.1,294.6 141.0,276.0 142.0,284.9 143.0,293.6 144.0,282.9 145.0,295.8 146.0,285.7 147.0,275.1 148.0,281.2 149.0,286.5 150.0,288.5 151.0,286.3 151.9,283.8 152.9,287.7 153.9,277.8 154.9,283.2 155.9,295.2 156.9,296.7 157.9,298.2 158.9,282.1 159.9,279.1 160.9,301.4 161.8,283.5 162.8,286.8 163.8,278.8 164.8,269.7 165.8,281.9 166.8,285.9 167.8,266.6 168.8,279.3 169.8,276.8 170.8,290.6 171.8,279.2 172.8,288.0 173.7,279.2 174.7,310.8 175.7,291.5 176.7,278.9 177.7,298.6 178.7,284.0 179.7,290.1 180.7,272.7 181.7,269.8 182.7,281.0 183.7,292.1 184.7,298.3 185.6,288.0 186.6,303.9 187.6,277.4 188.6,276.8 189.6,276.8 190.6,281.8 191.6,292.6 192.6,290.5 193.6,282.0 194.6,281.6 195.5,273.8 196.5,268.1 197.5,288.0 198.5,292.1 199.5,288.0 200.5,272.2 201.5,279.5 202.5,284.8 203.4,282.9 204.4,292.8 205.4,289.8 206.4,287.1 207.4,282.1 208.4,279.4 209.4,281.5 210.4,286.4 211.4,275.6 212.4,279.4 213.3,273.1 214.3,286.4 215.3,277.5 216.3,289.0 217.3,275.8 218.3,281.5 219.3,289.5 220.3,288.2 221.3,286.8 222.3,300.0 223.3,289.1 224.2,275.6 225.2,286.1 226.2,290.9 227.2,289.9 228.2,284.3 229.2,296.9 230.2,287.6 231.2,285.4 232.2,273.1 233.1,281.9 234.1,279.3 235.1,283.6 236.1,280.6 237.1,279.0 238.1,299.7 239.1,275.7 240.1,268.0 241.1,271.8 242.0,305.4 243.0,301.1 244.0,275.4 245.0,283.6 246.0,303.8 247.0,282.3 248.0,273.7 249.0,281.9 249.9,273.3 250.9,263.3 251.9,267.2 252.9,287.4 253.9,294.9 254.9,294.4 255.9,271.4 256.9,286.1 257.8,279.6 258.8,288.5 259.8,284.0 260.8,287.0 261.8,288.5 262.8,296.4 263.8,284.2 264.8,282.2 265.8,286.2 266.7,273.4 267.7,286.2 268.7,281.3 269.7,285.2 270.7,282.1 271.7,289.5 272.7,277.5 273.7,272.7 274.7,288.9 275.7,284.6 276.7,281.8 277.7,284.1 278.7,288.0 279.6,279.8 280.6,265.2 281.6,276.9 282.6,279.1 283.6,281.4 284.6,279.6 285.6,288.7 286.5,285.0 287.5,277.8 288.5,290.3 289.5,279.3 290.5,278.7 291.5,285.2 292.5,298.4 293.5,307.2 294.4,285.8 295.4,285.4 296.4,288.5 297.4,276.9 298.4,275.9 299.4,284.3 300.4,268.8 301.4,290.7 302.3,282.5 303.3,292.0 304.3,292.7 305.3,286.0 306.3,272.3 307.3,291.9 308.3,290.8 309.3,282.7 310.2,302.7 311.2,293.2 312.2,282.6 313.2,291.2 314.2,285.8 315.2,293.3 316.2,293.5 317.2,274.8 318.1,272.1 319.1,275.2 320.1,273.3 321.1,297.7 322.1,275.8 323.1,299.5 324.1,278.5 325.1,286.9 326.1,295.2 327.0,300.4 328.0,287.8 329.0,275.5 330.0,276.1 331.0,290.8 332.0,266.9 332.9,291.4 333.9,294.7 334.9,284.6 335.9,292.5 336.9,281.2 337.9,275.1 338.9,277.2 339.9,287.4 340.9,299.9 341.8,275.2 342.8,285.3 343.8,285.6 344.8,285.4 345.8,277.4 346.8,289.1 347.8,279.9 348.8,293.7 349.7,270.3 350.7,271.2 351.7,272.8 352.7,291.1 353.7,299.3 354.7,287.7 355.7,289.2 356.7,279.5 357.7,288.3 358.6,291.6 359.6,286.2 360.6,297.8 361.6,279.3 362.6,268.7 363.6,293.8 364.6,296.9 365.5,286.3 366.5,290.7 367.5,285.5 368.5,307.5 369.5,296.9 370.5,285.7 371.5,290.1 372.5,291.9 373.5,285.9 374.5,278.6 375.4,299.4 376.4,300.1 377.4,289.9 378.4,286.0 379.4,300.2 380.4,294.4 381.4,283.2 382.3,276.8 383.3,275.4 384.3,283.9 385.3,308.3 386.3,285.5 387.3,274.9 388.3,292.6 389.2,283.2 390.2,270.6 391.2,286.6 392.2,279.9 393.2,273.9 394.2,273.4 395.2,291.0 396.1,305.4 397.1,274.5 398.1,283.8 399.1,262.3 400.1,287.7 401.1,288.9 402.1,291.3 403.1,286.7 404.1,269.3 405.1,289.9 406.0,287.6 407.0,275.9 408.0,291.2 409.0,274.0 410.0,298.5 411.0,288.8 412.0,296.7 413.0,280.8 413.9,281.5 414.9,265.4 415.9,289.0 416.9,286.7 417.9,293.8 418.9,294.6 419.8,309.4 420.8,279.6 421.8,300.2 422.8,287.2 423.8,297.6 424.8,287.5 425.8,281.9 426.8,301.2 427.7,271.5 428.7,299.2 429.7,276.4 430.7,282.5 431.7,286.4 432.7,279.6 433.7,285.5 434.7,291.8 435.7,282.4 436.6,301.1 437.6,293.9 438.6,302.4 439.6,288.2 440.6,277.3 441.6,284.3 442.6,281.9 443.6,277.1 444.5,291.8 445.5,291.9 446.5,276.9 447.5,287.4 448.5,299.0 449.5,277.3 450.5,290.9 451.5,282.0 452.4,291.4 453.4,293.3 454.4,300.4 455.4,281.6 456.4,297.5 457.4,300.2 458.4,288.5 459.4,293.8 460.3,274.2 461.3,287.2 462.3,276.9 463.3,290.2 464.3,280.6 465.3,289.3 466.3,269.2 467.3,283.1 468.3,269.0 469.2,277.6 470.2,289.8 471.2,272.1 472.2,293.6 473.2,298.0 474.2,292.1 475.2,273.5 476.1,292.1 477.1,273.5 478.1,276.9 479.1,289.1 480.1,261.2 481.1,301.2 482.1,290.1 483.0,278.5 484.0,300.8 485.0,297.5 486.0,272.8 487.0,286.1 488.0,283.2 489.0,302.5 489.9,282.7 490.9,286.0 491.9,288.4 492.9,285.1 493.9,287.8 494.9,303.7 495.9,277.8 496.8,290.9 497.8,293.3 498.8,287.2 499.8,286.8 500.8,309.7 501.8,292.8 502.8,291.5 503.7,300.5 504.7,281.4 505.7,284.9 506.7,297.6 507.7,272.4 508.7,300.6 509.7,284.9 510.7,279.0 511.7,284.5 512.6,284.3 513.6,286.7 514.6,284.6 515.6,284.7 516.6,300.9 517.6,300.3 518.6,300.3 519.6,277.7 520.6,299.8 521.5,280.5 522.5,274.3 523.5,303.2 524.5,308.9 525.5,286.1 526.5,293.6 527.5,303.4 528.5,281.7 529.5,290.5 530.4,302.8 531.4,288.8 532.4,295.9 533.4,287.7 534.4,296.0 535.4,297.3 536.4,276.3 537.4,279.8 538.4,274.5 539.4,285.4 540.4,289.6 541.3,262.1 542.3,284.0 543.3,284.1 544.3,283.7 545.3,292.4 546.3,301.3 547.3,290.5 548.3,300.3 549.2,283.1 550.2,262.5 551.2,286.3 552.2,300.0 553.2,293.0 554.2,273.1 555.2,294.9 556.2,274.6 557.2,310.0 558.1,298.9 559.1,298.8 560.1,302.0 561.1,275.9 562.1,294.4 563.1,292.0 564.1,307.8 565.1,277.7 566.1,285.3 567.0,288.6 568.0,309.8 569.0,285.0 570.0,291.8 571.0,293.0 572.0,260.7 573.0,255.6 574.0,278.2 575.0,283.3 576.0,278.0 577.0,277.4 577.9,304.9 578.9,275.5 579.9,290.7 580.9,285.8 581.9,286.5 582.9,288.2 583.9,283.4 584.9,282.7 585.9,292.9 586.9,292.5 587.9,298.0 588.9,292.8 589.8,274.4 590.8,291.9 591.8,280.6 592.8,301.3 593.8,298.8 594.8,287.6 595.8,292.5 596.8,280.0 597.8,287.0 598.8,268.9 599.8,290.4 600.7,290.8 601.7,283.9 602.7,294.6 603.7,295.2 604.7,280.9 605.7,284.8 606.7,291.1 607.7,302.7 608.7,300.1 609.7,257.2 610.6,274.4 611.6,275.7 612.6,292.5 613.6,288.9 614.6,283.8 615.6,286.4 616.6,293.6 617.6,293.2 618.5,287.8 619.5,269.6 620.5,299.3 621.5,298.4 622.5,294.5 623.5,289.0 624.5,275.6 625.5,308.7 626.5,297.0 627.4,285.4 628.4,303.3 629.4,274.4 630.4,286.6 631.4,313.0 632.4,282.2 633.4,281.6 634.4,296.0 635.3,272.2 636.3,294.8 637.3,274.1 638.3,294.1 639.3,301.1 640.3,288.9 641.2,299.1 642.2,270.9 643.2,285.5 644.2,296.3 645.2,281.9 646.2,305.8 647.2,296.6 648.2,306.3 649.2,281.8 650.2,282.7 651.2,304.6 652.2,273.8 653.1,286.9 654.1,286.5 655.1,280.9 656.1,291.9 657.1,297.4 658.1,298.6 659.1,302.7 660.1,288.8 661.0,284.9 662.0,297.9 663.0,289.1 664.0,297.4 665.0,296.6 666.0,291.3 667.0,293.6 667.9,282.4 668.9,274.6 670.0,281.2 670.9,277.4 671.9,284.6 672.9,296.1 673.9,279.4 674.9,304.3" fill="none" stroke="#2563eb" stroke-width="2.5"/>
<rect x="65" y="20" width="610" height="330" fill="none" stroke="#888" stroke-width="1.5"/>
<line x1="62" y1="308.5" x2="65" y2="308.5" stroke="#64748b" stroke-width="1" opacity="0.6"/>
<line x1="62" y1="260.0" x2="65" y2="260.0" stroke="#64748b" stroke-width="1" opacity="0.6"/>
<line x1="62" y1="199.0" x2="65" y2="199.0" stroke="#64748b" stroke-width="1" opacity="0.6"/>
<line x1="60" y1="116.3" x2="65" y2="116.3" stroke="#64748b" stroke-width="1.5"/>
<text x="57" y="116.3" text-anchor="end" dominant-baseline="middle" font-size="11" font-family="monospace,sans-serif" fill="#64748b">10</text>
<line x1="62" y1="33.5" x2="65" y2="33.5" stroke="#64748b" stroke-width="1" opacity="0.6"/>
<line x1="675" y1="292.0" x2="680" y2="292.0" stroke="#2563eb" stroke-width="1.5"/>
<text x="683" y="292.0" text-anchor="start" dominant-baseline="middle" font-size="11" font-family="monospace,sans-serif" fill="#2563eb">0.00</text>
<line x1="675" y1="211.2" x2="680" y2="211.2" stroke="#2563eb" stroke-width="1.5"/>
<text x="683" y="211.2" text-anchor="start" dominant-baseline="middle" font-size="11" font-family="monospace,sans-serif" fill="#2563eb">0.25</text>
<line x1="675" y1="130.3" x2="680" y2="130.3" stroke="#2563eb" stroke-width="1.5"/>
<text x="683" y="130.3" text-anchor="start" dominant-baseline="middle" font-size="11" font-family="monospace,sans-serif" fill="#2563eb">0.50</text>
<line x1="675" y1="49.5" x2="680" y2="49.5" stroke="#2563eb" stroke-width="1.5"/>
<text x="683" y="49.5" text-anchor="start" dominant-baseline="middle" font-size="11" font-family="monospace,sans-serif" fill="#2563eb">0.75</text>
<line x1="65.0" y1="350" x2="65.0" y2="355" stroke="#888" stroke-width="1.5"/>
<text x="65.0" y="368" text-anchor="middle" font-size="11" font-family="monospace,sans-serif">0</text>
<line x1="187.1" y1="350" x2="187.1" y2="355" stroke="#888" stroke-width="1.5"/>
<text x="187.1" y="368" text-anchor="middle" font-size="11" font-family="monospace,sans-serif">2</text>
<line x1="309.2" y1="350" x2="309.2" y2="355" stroke="#888" stroke-width="1.5"/>
<text x="309.2" y="368" text-anchor="middle" font-size="11" font-family="monospace,sans-serif">4</text>
<line x1="431.3" y1="350" x2="431.3" y2="355" stroke="#888" stroke-width="1.5"/>
<text x="431.3" y="368" text-anchor="middle" font-size="11" font-family="monospace,sans-serif">6</text>
<line x1="553.3" y1="350" x2="553.3" y2="355" stroke="#888" stroke-width="1.5"/>
<text x="553.3" y="368" text-anchor="middle" font-size="11" font-family="monospace,sans-serif">8</text>
<line x1="675.4" y1="350" x2="675.4" y2="355" stroke="#888" stroke-width="1.5"/>
<text x="675.4" y="368" text-anchor="middle" font-size="11" font-family="monospace,sans-serif">10</text>
<text x="370" y="392" text-anchor="middle" font-size="13" font-family="sans-serif">Runtime (minutes)</text>
<text transform="rotate(-90,28,185)" x="28" y="185" text-anchor="middle" font-size="13" font-family="sans-serif" fill="#64748b">Train loss (log scale)</text>
<text transform="rotate(90,746,185)" x="746" y="185" text-anchor="middle" font-size="13" font-family="sans-serif" fill="#2563eb">Train loss diff (exp − base)</text>
<rect x="72" y="26" width="140" height="62" fill="white" fill-opacity="0.85" stroke="#ddd" stroke-width="1" rx="3"/>
<line x1="77" y1="37" x2="99" y2="37" stroke="#64748b" stroke-width="1.5" stroke-dasharray="5,3"/>
<text x="104" y="41" font-size="11" font-family="sans-serif" fill="#64748b">Baseline train loss</text>
<line x1="77" y1="55" x2="99" y2="55" stroke="#16a34a" stroke-width="1.5"/>
<text x="104" y="59" font-size="11" font-family="sans-serif" fill="#16a34a">Experiment train loss</text>
<line x1="77" y1="73" x2="99" y2="73" stroke="#2563eb" stroke-width="2.5"/>
<text x="104" y="77" font-size="11" font-family="sans-serif" fill="#2563eb">Train loss diff</text>
</svg>