<svg xmlns="http://www.w3.org/2000/svg" viewBox="0 0 720 400" width="720" height="400" style="background:white">
<rect x="65" y="20" width="635" height="330" fill="#f9f9f9"/>
<line x1="65" y1="308.5" x2="700" y2="308.5" stroke="#e8e8e8" stroke-width="1"/>
<line x1="65" y1="260.0" x2="700" y2="260.0" stroke="#e8e8e8" stroke-width="1"/>
<line x1="65" y1="199.0" x2="700" y2="199.0" stroke="#e8e8e8" stroke-width="1"/>
<line x1="65" y1="116.3" x2="700" y2="116.3" stroke="#ccc" stroke-width="1"/>
<line x1="65" y1="33.5" x2="700" y2="33.5" stroke="#e8e8e8" stroke-width="1"/>
<line x1="65.0" y1="20" x2="65.0" y2="350" stroke="#e8e8e8" stroke-width="1"/>
<line x1="192.1" y1="20" x2="192.1" y2="350" stroke="#e8e8e8" stroke-width="1"/>
<line x1="319.2" y1="20" x2="319.2" y2="350" stroke="#e8e8e8" stroke-width="1"/>
<line x1="446.2" y1="20" x2="446.2" y2="350" stroke="#e8e8e8" stroke-width="1"/>
<line x1="573.3" y1="20" x2="573.3" y2="350" stroke="#e8e8e8" stroke-width="1"/>
<line x1="700.4" y1="20" x2="700.4" y2="350" stroke="#e8e8e8" stroke-width="1"/>
<polyline points="65.0,119.3 65.2,52.9 65.3,87.3 65.5,144.1 65.6,161.3 65.8,152.0 65.9,153.9 66.1,160.1 66.2,165.6 66.4,168.5 66.5,170.4 66.8,173.3 67.1,175.1 67.3,178.0 67.6,179.2 67.9,182.3 68.2,183.3 68.4,185.5 68.7,186.7 69.0,189.0 69.2,191.1 69.5,192.9 69.7,194.7 70.0,198.1 70.3,198.9 70.5,201.1 70.8,202.6 71.0,204.4 71.3,205.7 71.6,207.1 71.8,208.5 72.1,209.8 72.3,211.0 72.6,211.0 72.8,213.0 73.1,213.1 73.3,214.0 73.6,215.0 73.8,214.1 74.1,216.1 74.3,216.3 74.6,217.8 74.8,217.2 75.1,218.4 75.3,218.5 75.6,218.6 75.8,219.4 76.1,220.8 76.3,220.6 76.5,221.7 76.8,222.5 77.0,224.4 77.3,225.1 77.5,226.8 77.7,225.4 78.0,226.1 78.2,228.2 78.4,229.3 78.7,229.5 78.9,231.2 79.2,231.8 79.4,231.9 79.6,232.0 79.9,233.2 80.1,233.9 80.3,235.0 80.6,235.4 80.8,235.0 81.0,234.0 81.2,237.9 81.5,237.2 81.7,237.8 81.9,239.3 82.1,240.2 82.3,239.9 82.6,240.9 82.8,241.2 83.0,241.2 83.2,240.9 83.5,239.4 83.7,241.2 83.9,242.3 84.1,242.9 84.3,243.0 84.6,244.2 84.8,244.9 85.0,245.1 85.2,246.3 85.4,245.8 85.6,244.3 85.9,245.2 86.1,246.3 86.3,246.3 86.5,248.1 86.7,246.6 86.9,246.0 87.1,245.1 87.3,249.6 87.6,248.2 87.8,249.3 88.0,249.1 88.2,246.6 88.4,248.5 88.6,250.6 88.8,249.5 89.0,251.0 89.2,251.8 89.4,250.5 89.6,250.1 89.8,252.0 90.0,252.1 90.2,251.8 90.4,251.2 90.6,251.9 90.9,252.8 91.1,252.7 91.3,253.7 91.6,253.5 91.8,254.3 92.0,252.6 92.2,254.3 92.4,255.4 92.6,253.3 92.8,254.7 93.2,255.8 93.4,255.6 93.6,255.4 93.8,256.3 94.0,256.7 94.2,256.6 94.4,256.6 94.6,258.5 94.8,257.1 95.0,257.6 95.2,257.8 95.4,258.6 95.6,257.6 95.8,257.1 96.0,258.5 96.2,256.0 96.4,262.1 96.6,258.6 96.8,257.6 97.0,258.5 97.2,259.9 97.4,261.2 97.5,260.1 97.7,258.9 97.9,262.1 98.1,259.9 98.3,261.5 98.5,260.4 98.7,261.6 98.9,262.8 99.1,260.1 99.3,262.7 99.5,262.8 99.7,262.0 99.8,262.4 100.0,262.1 100.2,261.5 100.4,262.5 100.6,262.2 100.8,264.7 101.0,263.1 101.2,262.6 101.4,264.2 101.5,263.4 101.7,263.2 101.9,264.9 102.1,264.3 102.3,263.2 102.5,263.0 102.9,264.0 103.1,262.9 103.2,266.6 103.4,265.9 103.6,264.9 103.8,264.4 104.0,263.2 104.2,265.8 104.4,264.8 104.6,266.7 104.7,264.4 104.9,263.3 105.1,265.3 105.3,265.5 105.5,266.5 105.6,263.9 105.8,265.8 106.0,267.4 106.2,267.7 106.4,267.3 106.6,266.5 106.7,266.4 106.9,266.3 107.1,268.6 107.3,269.2 107.5,267.1 107.7,264.9 107.8,265.8 108.0,267.0 108.2,268.2 108.4,266.5 108.5,266.7 108.7,266.0 108.9,268.5 109.1,267.1 109.3,268.3 109.4,271.5 109.6,269.6 109.8,267.8 110.0,267.5 110.1,271.2 110.3,266.8 110.5,268.4 110.8,269.3 111.0,269.3 111.2,267.2 111.4,269.4 111.5,271.0 111.7,270.9 111.9,268.2 112.1,267.7 112.3,269.2 112.4,269.1 112.6,268.6 112.8,269.2 113.0,268.6 113.1,269.3 113.3,270.3 113.5,270.9 113.7,268.5 113.8,269.3 114.0,269.7 114.2,271.3 114.3,273.3 114.5,269.4 114.7,271.4 114.9,271.4 115.1,271.6 115.3,273.3 115.5,268.9 115.7,270.9 115.8,271.9 116.0,271.4 116.2,271.2 116.3,271.5 116.5,271.0 116.7,271.5 116.9,271.2 117.0,271.4 117.2,272.7 117.4,272.2 117.5,274.8 117.7,271.1 117.9,273.5 118.1,272.6 118.2,274.7 118.4,273.6 118.6,274.3 118.7,272.3 118.9,272.9 119.1,272.7 119.2,271.9 119.4,272.2 119.6,272.4 119.7,271.0 119.9,272.4 120.1,273.1 120.2,273.8 120.4,275.4 120.6,275.1 120.7,274.2 120.9,273.1 121.1,271.4 121.2,274.2 121.5,271.9 121.7,274.6 121.9,272.5 122.1,273.2 122.2,270.4 122.4,275.4 122.6,273.3 122.7,274.5 122.9,274.0 123.1,276.2 123.2,270.6 123.4,274.2 123.6,273.3 123.7,276.7 123.9,275.1 124.1,274.9 124.2,274.6 124.4,276.6 124.6,274.9 124.7,273.4 124.9,275.0 125.1,274.2 125.2,275.0 125.4,270.4 125.6,276.1 125.7,278.3 125.9,274.8 126.1,275.7 126.3,275.4 126.4,275.6 126.6,274.4 126.7,274.9 126.9,276.3 127.1,275.1 127.2,275.0 127.4,274.4 127.6,277.8 127.7,274.5 127.9,274.8 128.1,275.8 128.3,274.1 128.4,276.7 128.6,279.0 128.8,276.9 128.9,276.0 129.1,276.8 129.2,276.5 129.4,272.6 129.6,277.4 129.7,272.2 129.9,278.2 130.1,275.7 130.3,272.6 130.4,276.3 130.6,277.5 130.8,274.4 130.9,275.9 131.1,276.1 131.3,275.8 131.4,276.5 131.6,276.8 131.7,274.5 131.9,277.3 132.1,276.4 132.2,276.1 132.4,277.5 132.5,278.0 132.7,276.7 132.9,277.9 133.0,278.2 133.2,276.8 133.3,277.6 133.5,275.8 133.7,275.3 133.8,279.4 134.0,279.0 134.1,278.4 134.3,277.3 134.5,278.0 134.6,278.3 134.8,277.8 134.9,278.7 135.1,279.0 135.2,277.7 135.4,275.4 135.6,279.5 135.7,277.0 135.9,278.5 136.1,277.7 136.2,278.3 136.4,279.3 136.5,277.8 136.7,275.7 136.8,279.5 137.0,279.4 137.2,278.8 137.3,276.4 137.5,277.4 137.6,278.1 137.8,278.7 138.0,278.0 138.1,278.3 138.3,277.8 138.4,278.0 138.7,276.5 138.9,278.7 139.1,278.4 139.2,278.8 139.4,278.7 139.6,276.6 139.7,281.9 139.9,279.6 140.0,280.0 140.2,276.9 140.3,281.5 140.5,279.5 140.7,277.7 140.8,279.4 141.0,279.3 141.1,278.8 141.3,276.0 141.4,278.9 141.6,280.2 141.8,280.5 141.9,279.6 142.1,280.8 142.2,277.2 142.4,281.5 142.5,279.1 142.7,277.9 142.9,280.0 143.0,279.8 143.2,278.7 143.3,278.8 143.5,280.0 143.6,279.6 143.8,278.5 143.9,278.6 144.1,279.6 144.3,280.4 144.4,279.2 144.6,280.0 144.7,279.6 144.9,281.2 145.0,280.1 145.2,277.5 145.3,281.9 145.5,280.1 145.7,280.7 145.8,281.2 146.0,281.7 146.1,282.5 146.3,277.6 146.4,277.7 146.6,281.4 146.7,281.2 146.9,280.9 147.1,280.2 147.2,280.1 147.4,280.9 147.5,281.6 147.7,282.7 147.8,282.7 148.0,281.9 148.2,281.3 148.3,281.4 148.5,280.6 148.6,278.7 148.8,279.5 148.9,281.0 149.1,281.6 149.2,278.9 149.4,279.6 149.5,279.5 149.7,281.9 149.8,281.3 150.0,280.1 150.1,282.0 150.3,279.3 150.4,282.5 150.6,280.4 150.8,282.7 150.9,281.3 151.1,279.9 151.2,281.2 151.4,283.3 151.5,284.1 151.7,283.1 151.8,283.5 152.0,282.1 152.1,283.3 152.3,279.5 152.4,280.1 152.6,282.8 152.7,282.6 152.9,281.9 153.0,284.5 153.2,283.0 153.3,282.5 153.5,282.9 153.6,281.7 153.8,280.3 153.9,283.3 154.1,282.4 154.2,281.0 154.4,282.0 154.5,282.9 154.7,279.1 154.8,282.1 155.0,283.4 155.2,280.4 155.3,283.2 155.5,283.4 155.6,279.8 155.8,281.9 155.9,280.0 156.1,279.4 156.2,280.1 156.4,284.6 156.5,280.7 156.7,282.4 156.8,284.2 157.0,282.9 157.1,284.4 157.3,281.6 157.4,283.6 157.6,282.9 157.7,283.2 157.9,285.6 158.0,282.5 158.2,283.0 158.3,283.3 158.5,283.2 158.6,282.9 158.8,280.6 158.9,283.3 159.1,282.4 159.2,282.4 159.4,281.4 159.5,281.3 159.7,283.6 159.8,283.5 160.0,281.8 160.1,283.0 160.3,283.4 160.4,280.8 160.6,283.8 160.7,282.3 160.9,283.4 161.0,283.2 161.2,282.8 161.3,285.9 161.5,286.8 161.6,283.5 161.8,284.1 161.9,287.0 162.1,284.4 162.2,282.2 162.4,284.5 162.5,281.5 162.7,281.6 162.8,283.9 163.0,284.8 163.1,282.7 163.3,286.1 163.4,282.8 163.6,281.7 163.7,285.3 163.9,283.7 164.0,284.6 164.2,282.2 164.3,287.1 164.5,283.1 164.6,282.2 164.8,283.4 164.9,282.0 165.1,283.8 165.2,286.6 165.3,286.7 165.5,284.8 165.6,285.2 165.8,283.6 166.0,285.2 166.1,285.1 166.3,283.0 166.4,286.6 166.6,282.8 166.7,282.4 166.9,285.6 167.0,285.1 167.2,285.1 167.3,282.3 167.5,284.3 167.6,280.9 167.8,284.9 167.9,281.8 168.1,284.6 168.2,284.5 168.4,284.9 168.5,286.1 168.7,283.0 168.8,285.7 169.0,284.1 169.1,284.0 169.3,289.2 169.4,287.0 169.6,285.8 169.7,285.8 169.9,285.2 170.0,285.6 170.3,283.6 170.4,285.1 170.6,287.8 170.7,286.5 170.9,284.9 171.0,285.7 171.2,282.5 171.3,284.6 171.4,284.0 171.6,284.2 171.7,284.5 171.9,286.8 172.0,284.7 172.2,283.3 172.3,283.3 172.5,286.9 172.6,286.2 172.8,285.8 172.9,283.2 173.1,284.3 173.2,286.5 173.4,282.0 173.5,283.3 173.7,283.8 173.8,284.8 174.0,284.5 174.1,283.9 174.3,282.5 174.4,288.1 174.6,284.6 174.7,286.6 174.9,287.2 175.0,285.2 175.2,284.1 175.3,288.5 175.5,285.7 175.6,285.2 175.8,286.3 175.9,284.9 176.1,289.3 176.2,286.2 176.4,283.4 176.5,285.7 176.7,282.5 176.8,287.8 177.0,284.6 177.1,288.7 177.2,285.0 177.4,286.3 177.5,284.8 177.7,285.8 177.8,284.7 178.0,285.9 178.1,288.3 178.3,285.9 178.4,284.1 178.6,282.6 178.7,284.5 178.9,283.5 179.0,286.6 179.2,287.1 179.3,289.0 179.5,286.9 179.6,286.2 179.8,286.8 179.9,282.6 180.1,286.9 180.2,287.9 180.4,287.6 180.5,285.2 180.7,286.6 180.8,288.5 181.0,288.1 181.1,286.4 181.3,286.9 181.4,288.8 181.6,288.1 181.7,288.6 181.9,287.9 182.0,287.3 182.2,288.6 182.3,288.5 182.5,286.7 182.6,287.7 182.8,284.1 182.9,286.3 183.1,288.9 183.2,287.0 183.4,285.7 183.5,288.1 183.7,287.1 183.8,284.6 184.0,288.5 184.1,287.2 184.3,287.9 184.4,288.0 184.6,286.3 184.7,288.1 184.9,285.5 185.0,287.3 185.2,288.5 185.3,287.0 185.5,288.5 185.6,288.5 185.8,286.9 185.9,287.0 186.1,287.7 186.2,286.3 186.4,289.8 186.5,286.5 186.7,288.5 186.8,284.4 187.0,288.7 187.1,288.6 187.3,286.0 187.4,285.4 187.6,285.8 187.7,285.9 187.9,286.2 188.0,286.4 188.2,286.7 188.3,289.4 188.5,286.5 188.7,288.9 188.8,287.4 189.0,287.7 189.1,287.3 189.3,286.8 189.4,288.4 189.6,285.4 189.7,288.1 189.9,285.3 190.0,284.9 190.2,289.5 190.3,288.1 190.5,286.1 190.6,286.3 190.8,289.4 190.9,288.3 191.1,291.0 191.2,286.4 191.4,285.8 191.5,285.8 191.7,286.2 191.8,284.6 192.0,288.9 192.1,286.2 192.3,289.2 192.4,287.7 192.5,289.5 192.7,288.4 192.8,283.7 193.0,290.4 193.1,287.3 193.3,288.8 193.4,286.9 193.6,288.5 193.7,286.7 193.9,285.7 194.0,290.8 194.2,288.7 194.3,285.9 194.5,286.0 194.6,289.3 194.8,287.2 194.9,286.8 195.1,286.0 195.2,286.4 195.4,289.1 195.5,287.5 195.7,290.0 195.8,288.0 195.9,289.6 196.1,289.2 196.2,287.6 196.4,289.3 196.5,287.5 196.7,287.9 196.8,288.9 197.0,287.9 197.1,288.7 197.3,286.6 197.4,285.5 197.6,285.8 197.7,288.8 197.9,288.8 198.0,288.2 198.2,288.8 198.3,289.0 198.5,288.3 198.6,289.0 198.8,288.9 198.9,289.0 199.1,285.7 199.2,286.7 199.4,290.4 199.5,287.1 199.7,287.7 199.8,292.6 200.0,289.0 200.1,287.0 200.3,288.7 200.4,288.9 200.6,290.7 200.7,292.1 200.9,290.9 201.0,289.8 201.1,288.9 201.3,291.5 201.4,289.1 201.6,285.8 201.7,289.2 201.9,287.9 202.0,288.6 202.2,286.8 202.3,290.0 202.5,287.3 202.6,290.5 202.8,289.5 202.9,291.4 203.1,288.6 203.2,287.8 203.4,288.7 203.5,288.9 203.7,290.7 203.8,289.6 204.0,292.5 204.1,289.3 204.3,289.0 204.4,290.8 204.6,290.4 204.7,286.8 204.9,287.4 205.0,289.1 205.2,287.1 205.3,288.7 205.5,290.5 205.6,287.4 205.7,286.2 205.9,290.9 206.0,291.1 206.2,287.0 206.3,288.8 206.5,289.9 206.6,286.9 206.8,290.8 206.9,293.0 207.1,288.6 207.2,287.9 207.4,291.3 207.5,286.9 207.7,287.6 207.8,289.8 208.0,288.7 208.1,290.8 208.3,290.7 208.4,289.2 208.6,289.8 208.7,288.8 208.9,289.9 209.0,290.7 209.2,288.6 209.3,286.0 209.5,291.3 209.6,290.5 209.7,287.6 209.9,289.5 210.0,288.5 210.2,289.4 210.3,289.9 210.5,292.5 210.6,289.7 210.8,287.4 210.9,289.2 211.1,289.7 211.2,290.5 211.4,289.5 211.5,290.5 211.7,288.6 211.8,290.0 212.0,288.5 212.1,291.8 212.3,290.0 212.4,288.0 212.6,291.1 212.7,289.2 212.9,288.7 213.0,288.8 213.2,289.1 213.3,289.3 213.5,291.5 213.6,290.7 213.8,289.3 213.9,288.4 214.1,291.7 214.2,289.9 214.3,290.2 214.5,289.7 214.6,291.1 214.8,290.8 214.9,290.6 215.1,288.5 215.2,289.1 215.4,290.5 215.5,288.7 215.7,292.2 215.8,291.9 216.0,289.9 216.1,287.2 216.3,289.5 216.4,292.0 216.6,292.4 216.7,287.7 216.9,289.2 217.0,289.0 217.2,289.5 217.3,293.1 217.5,289.0 217.6,293.0 217.8,288.4 217.9,289.4 218.1,287.8 218.2,291.8 218.4,289.8 218.5,291.8 218.7,288.3 218.8,289.6 218.9,290.9 219.1,289.9 219.2,292.1 219.4,291.0 219.5,289.3 219.7,289.8 219.8,289.4 220.0,288.9 220.1,291.6 220.3,291.8 220.4,289.1 220.6,288.1 220.7,289.9 220.9,292.5 221.0,288.9 221.2,290.5 221.3,291.0 221.5,291.4 221.6,292.8 221.8,291.2 221.9,290.9 222.1,289.6 222.2,292.2 222.4,289.1 222.5,291.8 222.7,290.6 222.8,292.9 223.0,291.0 223.1,289.6 223.3,291.5 223.4,288.9 223.6,288.9 223.7,291.7 223.9,289.3 224.0,290.1 224.2,291.2 224.3,288.8 224.5,287.9 224.6,289.4 224.8,291.5 224.9,291.1 225.1,291.0 225.2,288.2 225.3,289.1 225.5,291.9 225.6,288.6 225.8,293.4 225.9,290.0 226.1,292.6 226.2,291.1 226.4,288.9 226.5,288.2 226.7,287.5 226.8,293.3 227.0,290.2 227.1,290.3 227.3,288.7 227.4,293.1 227.6,291.3 227.7,290.8 227.9,290.0 228.0,291.2 228.2,292.0 228.3,289.3 228.5,290.3 228.6,288.9 228.8,291.7 228.9,291.1 229.1,291.5 229.2,292.7 229.4,288.8 229.5,292.0 229.7,289.7 229.8,291.5 230.0,289.4 230.1,291.4 230.3,291.0 230.4,288.4 230.6,291.3 230.7,293.0 230.8,293.3 231.0,290.4 231.1,290.0 231.3,289.0 231.4,292.4 231.6,292.5 231.7,290.3 231.9,290.8 232.0,294.6 232.2,289.0 232.3,291.2 232.5,288.7 232.6,290.9 232.8,291.0 232.9,292.5 233.1,289.8 233.2,289.7 233.4,292.2 233.5,289.2 233.7,292.2 233.8,290.4 234.0,293.5 234.1,290.9 234.3,290.7 234.4,293.8 234.5,293.6 234.7,289.2 234.8,289.9 235.0,290.7 235.1,287.2 235.3,290.7 235.4,289.2 235.6,291.9 235.7,291.8 235.9,290.5 236.0,294.1 236.2,291.7 236.3,289.7 236.5,288.6 236.6,290.7 236.8,290.5 236.9,294.7 237.1,290.5 237.2,291.4 237.4,292.7 237.5,291.0 237.7,290.4 237.8,292.2 237.9,290.4 238.1,293.5 238.2,291.7 238.4,291.0 238.5,291.1 238.7,290.0 238.9,289.4 239.0,290.8 239.2,292.0 239.3,289.8 239.5,290.4 239.6,290.5 239.7,290.4 239.9,291.6 240.0,289.8 240.2,293.3 240.3,289.7 240.5,292.4 240.6,290.7 240.8,290.7 240.9,293.6 241.1,291.9 241.2,290.2 241.4,293.5 241.5,290.3 241.7,292.5 241.8,289.0 242.0,291.6 242.1,288.4 242.3,289.2 242.4,290.1 242.6,290.8 242.7,292.4 242.9,289.1 243.0,293.1 243.2,292.0 243.3,294.1 243.5,292.4 243.6,289.8 243.8,291.2 243.9,289.9 244.1,291.3 244.2,292.4 244.4,294.1 244.5,292.1 244.7,292.1 244.8,287.8 245.0,287.1 245.1,292.5 245.3,293.6 245.4,290.7 245.5,293.8 245.7,291.8 245.8,291.9 246.0,293.1 246.1,290.5 246.3,291.9 246.4,291.1 246.6,289.5 246.7,292.8 246.9,291.0 247.0,291.3 247.2,291.6 247.3,289.2 247.5,290.6 247.6,293.4 247.8,294.6 247.9,287.3 248.1,291.9 248.2,291.1 248.4,293.1 248.5,290.1 248.7,292.7 248.8,290.0 249.0,289.9 249.1,296.0 249.3,292.6 249.4,291.0 249.6,289.7 249.7,291.2 249.9,292.0 250.0,292.6 250.2,293.5 250.3,290.7 250.5,288.9 250.6,293.7 250.8,291.5 250.9,290.6 251.1,293.4 251.2,291.8 251.4,290.6 251.5,290.1 251.7,292.4 251.8,291.0 252.0,293.6 252.1,295.2 252.3,289.3 252.4,293.2 252.6,290.8 252.7,294.9 252.9,293.5 253.0,291.3 253.2,290.9 253.3,292.9 253.5,292.4 253.6,295.3 253.8,293.6 254.0,288.4 254.1,294.8 254.2,291.4 254.4,291.4 254.5,292.7 254.7,293.3 254.8,292.6 255.0,292.5 255.1,293.4 255.3,292.1 255.4,292.5 255.6,292.3 255.7,290.0 255.9,290.8 256.0,291.8 256.2,288.6 256.3,290.4 256.5,290.0 256.6,292.0 256.8,293.9 256.9,290.0 257.1,290.8 257.2,290.4 257.4,292.5 257.5,292.0 257.7,290.9 257.8,292.7 258.0,295.8 258.1,292.2 258.3,290.4 258.4,292.7 258.6,290.7 258.7,290.8 258.9,292.4 259.0,294.5 259.2,291.3 259.3,293.9 259.5,291.6 259.6,292.4 259.8,294.8 259.9,291.4 260.1,294.0 260.2,292.5 260.4,291.3 260.5,292.9 260.7,293.7 260.8,293.1 261.0,291.3 261.1,291.4 261.3,293.2 261.4,292.4 261.6,293.2 261.7,292.1 261.9,291.4 262.0,293.5 262.1,291.5 262.3,292.9 262.4,289.6 262.6,294.6 262.7,292.7 262.9,290.9 263.0,292.5 263.2,290.7 263.3,292.4 263.5,289.8 263.6,291.8 263.8,295.2 263.9,291.9 264.1,290.9 264.2,294.6 264.4,291.5 264.5,291.9 264.7,292.2 264.9,293.5 265.0,292.9 265.1,292.7 265.3,294.1 265.4,291.6 265.6,289.4 265.7,291.8 265.9,290.9 266.0,295.6 266.2,292.7 266.3,291.5 266.5,293.6 266.6,291.4 266.8,291.6 266.9,292.9 267.1,294.9 267.2,291.9 267.4,289.6 267.5,293.4 267.7,291.7 267.8,290.7 268.0,292.8 268.1,292.7 268.3,294.3 268.4,292.1 268.6,292.3 268.7,288.8 268.9,292.9 269.0,290.4 269.2,291.9 269.3,290.8 269.5,293.0 269.6,295.0 269.8,295.7 269.9,293.6 270.1,296.6 270.2,293.8 270.4,294.1 270.5,293.3 270.7,293.9 270.8,291.6 271.0,291.2 271.1,292.2 271.3,294.7 271.4,291.4 271.6,292.3 271.7,289.8 271.9,293.5 272.0,293.2 272.2,291.3 272.3,294.0 272.5,291.5 272.6,294.7 272.8,293.8 272.9,289.6 273.1,293.7 273.2,292.3 273.4,294.2 273.5,292.2 273.7,293.7 273.8,296.4 274.0,293.0 274.1,293.1 274.3,292.4 274.4,294.0 274.6,292.4 274.7,293.8 274.9,292.3 275.0,294.7 275.2,293.2 275.3,289.4 275.5,291.9 275.6,296.5 275.8,292.5 275.9,293.7 276.1,291.1 276.2,292.6 276.4,292.1 276.5,294.9 276.7,289.6 276.8,291.9 277.0,292.6 277.1,294.9 277.2,293.7 277.4,292.4 277.5,289.4 277.7,291.1 277.8,291.0 278.0,290.3 278.1,293.6 278.3,293.8 278.4,292.9 278.6,294.5 278.7,295.4 278.9,291.9 279.0,291.9 279.2,294.7 279.3,295.4 279.5,295.3 279.6,293.9 279.8,293.3 279.9,295.0 280.1,293.8 280.2,295.1 280.4,292.3 280.5,295.3 280.7,292.7 280.8,291.1 281.0,292.7 281.1,293.2 281.3,294.0 281.4,293.1 281.6,295.4 281.7,293.5 281.9,290.3 282.0,292.8 282.2,293.3 282.3,293.3 282.5,294.6 282.6,292.5 282.7,292.6 282.9,293.5 283.0,291.4 283.2,291.4 283.3,294.3 283.5,295.1 283.6,292.7 283.8,293.8 283.9,294.0 284.1,294.9 284.2,295.1 284.4,292.7 284.5,293.8 284.7,290.9 284.8,294.8 285.0,294.7 285.1,292.4 285.3,291.6 285.4,293.6 285.6,290.0 285.7,292.7 285.9,295.4 286.0,293.2 286.1,293.7 286.3,292.0 286.4,293.2 286.6,293.6 286.7,294.4 286.9,292.4 287.0,297.4 287.2,294.2 287.3,291.9 287.5,293.9 287.6,291.4 287.8,293.7 287.9,293.1 288.1,294.3 288.2,293.8 288.4,291.6 288.5,292.3 288.7,290.0 288.8,292.0 289.0,291.5 289.1,294.5 289.3,292.2 289.4,295.1 289.6,293.5 289.7,292.3 289.9,291.2 290.0,294.7 290.2,293.5 290.3,291.0 290.4,294.6 290.6,293.6 290.7,294.3 290.9,294.3 291.0,295.1 291.2,293.8 291.3,293.7 291.5,296.6 291.6,292.6 291.8,293.1 291.9,291.7 292.1,294.9 292.2,289.8 292.4,293.6 292.5,294.3 292.7,295.4 292.8,292.5 293.0,296.1 293.1,296.2 293.3,294.7 293.4,291.5 293.6,295.8 293.7,295.8 293.9,293.0 294.0,289.9 294.1,293.8 294.3,294.6 294.4,291.2 294.6,294.6 294.7,297.4 294.9,294.9 295.0,293.5 295.2,294.1 295.3,292.8 295.5,294.1 295.6,294.2 295.8,293.9 295.9,293.3 296.1,292.4 296.2,293.7 296.4,295.7 296.5,294.8 296.7,296.8 296.8,292.9 297.0,296.0 297.1,296.6 297.2,292.1 297.4,294.6 297.6,293.9 297.7,291.5 297.8,293.3 298.0,293.9 298.1,296.1 298.3,292.5 298.4,294.2 298.6,292.0 298.7,293.5 298.9,294.2 299.0,293.4 299.2,293.2 299.3,291.3 299.5,291.0 299.6,293.5 299.8,293.1 299.9,297.0 300.1,294.6 300.2,293.2 300.4,292.5 300.5,293.2 300.7,292.9 300.8,293.9 301.0,297.0 301.1,293.7 301.3,292.3 301.4,293.9 301.6,295.4 301.7,292.8 301.8,293.4 302.0,292.7 302.1,293.4 302.3,293.9 302.4,293.5 302.6,292.3 302.7,294.7 302.9,294.8 303.0,298.3 303.2,294.4 303.3,292.9 303.5,294.1 303.6,294.8 303.8,294.1 303.9,295.4 304.1,295.6 304.2,293.1 304.4,296.0 304.5,291.4 304.7,294.2 304.8,295.3 305.0,293.4 305.1,295.6 305.2,296.6 305.4,296.1 305.5,293.1 305.7,295.9 305.8,296.9 306.0,295.2 306.1,294.7 306.3,295.8 306.4,293.5 306.6,294.9 306.7,294.3 306.9,295.4 307.0,293.6 307.2,296.5 307.3,293.7 307.5,292.1 307.6,293.7 307.8,292.0 307.9,298.9 308.1,296.9 308.2,296.3 308.4,295.4 308.5,293.0 308.7,295.0 308.8,294.1 309.0,295.2 309.1,294.9 309.3,290.7 309.4,292.3 309.6,294.0 309.7,295.3 309.9,292.3 310.0,292.6 310.2,293.8 310.3,295.5 310.5,293.6 310.6,292.4 310.8,292.8 310.9,296.5 311.0,294.0 311.2,294.7 311.3,293.2 311.5,296.4 311.6,294.8 311.8,295.6 311.9,293.4 312.1,290.5 312.2,297.3 312.4,298.1 312.5,295.8 312.7,294.5 312.8,294.8 313.0,295.5 313.1,293.7 313.3,296.3 313.4,295.9 313.6,290.9 313.7,295.6 313.9,295.8 314.0,294.0 314.2,293.3 314.3,295.3 314.5,294.0 314.6,296.2 314.8,296.6 314.9,292.5 315.1,293.2 315.2,292.2 315.4,294.0 315.5,293.7 315.7,292.8 315.8,294.6 316.0,295.6 316.1,293.0 316.3,294.4 316.4,292.8 316.6,293.3 316.7,294.3 316.9,296.6 317.0,296.6 317.2,295.1 317.3,294.0 317.5,294.7 317.6,294.2 317.8,297.2 317.9,296.9 318.1,295.5 318.2,293.5 318.4,294.9 318.5,292.6 318.7,295.8 318.8,294.7 319.0,298.7 319.1,292.8 319.3,293.9 319.4,295.6 319.6,294.1 319.7,293.2 319.9,292.0 320.0,292.0 320.2,294.5 320.3,293.7 320.5,291.1 320.6,292.2 320.8,294.9 320.9,294.4 321.1,291.8 321.2,294.9 321.3,293.1 321.5,295.7 321.6,294.9 321.8,293.8 321.9,295.1 322.1,295.1 322.2,293.0 322.4,294.8 322.5,295.6 322.7,294.9 322.8,295.0 323.0,294.0 323.1,295.6 323.3,295.8 323.4,295.4 323.6,293.3 323.7,295.0 323.9,292.4 324.0,296.3 324.2,295.1 324.3,293.5 324.5,292.6 324.6,294.2 324.8,294.1 324.9,294.3 325.1,295.3 325.2,295.5 325.4,295.8 325.5,293.9 325.7,296.1 325.8,295.9 326.0,292.8 326.1,292.6 326.2,297.2 326.4,291.5 326.5,294.8 326.7,296.2 326.8,293.1 327.0,295.4 327.1,293.1 327.3,296.2 327.4,294.8 327.6,295.1 327.7,295.4 327.9,292.4 328.0,296.4 328.2,294.4 328.3,295.0 328.5,295.1 328.6,296.2 328.8,294.9 328.9,293.6 329.1,294.9 329.2,295.8 329.4,296.9 329.5,293.8 329.7,294.8 329.8,296.6 330.0,294.2 330.1,293.5 330.3,295.4 330.4,294.4 330.5,296.9 330.7,293.2 330.8,296.4 331.0,294.8 331.1,296.4 331.3,292.0 331.4,297.2 331.6,295.7 331.7,296.2 331.9,293.9 332.0,295.0 332.2,295.4 332.3,294.9 332.5,296.5 332.6,293.8 332.8,294.8 332.9,295.8 333.1,296.2 333.2,293.1 333.4,292.3 333.5,296.0 333.7,295.0 333.8,296.6 334.0,294.0 334.1,294.4 334.3,296.5 334.4,296.3 334.5,292.3 334.7,295.6 334.8,295.3 335.0,297.9 335.1,297.7 335.3,293.6 335.4,292.0 335.6,295.3 335.7,292.6 335.9,296.6 336.0,292.8 336.2,294.1 336.3,293.2 336.5,296.2 336.6,292.7 336.8,292.0 336.9,292.5 337.1,294.8 337.2,294.6 337.4,294.5 337.5,296.3 337.7,294.2 337.8,295.6 338.0,295.9 338.1,297.6 338.3,295.3 338.4,292.3 338.6,295.9 338.7,292.6 338.9,294.4 339.0,297.5 339.2,293.9 339.3,297.8 339.5,293.6 339.6,292.9 339.8,292.1 339.9,292.9 340.1,295.5 340.2,293.7 340.3,295.7 340.5,295.2 340.6,292.7 340.8,295.9 340.9,295.2 341.1,294.1 341.2,295.4 341.4,295.8 341.5,291.7 341.7,295.2 341.8,297.8 342.0,295.8 342.1,294.8 342.3,293.5 342.4,296.5 342.6,296.4 342.7,296.5 342.9,296.3 343.0,294.9 343.2,293.6 343.3,294.0 343.5,293.4 343.6,294.7 343.8,294.7 343.9,296.1 344.1,293.8 344.2,293.9 344.4,296.8 344.5,292.4 344.7,295.4 344.8,293.7 344.9,293.7 345.1,294.7 345.2,292.3 345.4,293.4 345.5,295.8 345.7,296.5 345.8,296.8 346.0,297.2 346.1,297.2 346.3,297.7 346.4,296.4 346.6,292.3 346.7,295.9 346.9,294.8 347.0,294.6 347.2,296.6 347.3,293.8 347.5,296.8 347.6,292.2 347.8,295.4 347.9,296.0 348.1,293.2 348.2,295.7 348.4,293.7 348.5,296.7 348.7,297.5 348.8,294.6 349.0,294.6 349.1,297.3 349.3,294.5 349.4,295.2 349.5,294.2 349.7,294.3 349.8,295.9 350.0,296.5 350.1,296.0 350.3,297.7 350.4,296.2 350.6,297.1 350.7,294.8 350.9,296.8 351.0,296.2 351.2,294.9 351.3,296.8 351.5,297.3 351.6,294.1 351.8,294.0 351.9,297.5 352.1,292.1 352.2,296.1 352.4,293.8 352.5,296.8 352.7,295.1 352.8,296.8 353.0,294.9 353.1,296.2 353.3,297.9 353.4,296.7 353.6,297.3 353.7,291.8 353.9,295.5 354.0,295.4 354.2,297.7 354.3,297.3 354.5,293.9 354.6,300.5 354.8,295.4 354.9,297.0 355.1,294.0 355.2,297.2 355.3,298.6 355.5,295.4 355.6,296.1 355.8,294.0 355.9,294.7 356.1,293.0 356.2,294.6 356.4,295.0 356.5,295.3 356.7,295.2 356.8,294.3 357.0,295.3 357.1,293.1 357.3,294.5 357.4,297.0 357.6,295.2 357.7,297.1 357.9,295.3 358.0,295.2 358.2,295.1 358.3,296.1 358.5,295.5 358.6,294.9 358.8,292.7 358.9,295.3 359.0,295.3 359.2,296.8 359.3,292.9 359.5,297.9 359.6,293.5 359.8,294.6 359.9,297.5 360.1,295.7 360.2,298.0 360.4,297.1 360.5,295.0 360.7,294.6 360.8,295.3 361.0,296.7 361.1,296.7 361.3,296.9 361.4,294.3 361.6,296.4 361.7,293.6 361.9,295.2 362.0,298.9 362.2,298.5 362.3,295.9 362.5,295.0 362.6,292.8 362.8,293.8 362.9,293.1 363.1,297.4 363.2,294.3 363.4,296.9 363.5,297.7 363.7,295.4 363.8,293.3 363.9,293.7 364.1,296.1 364.2,292.4 364.4,297.7 364.5,294.2 364.7,296.8 364.8,295.0 365.0,298.2 365.1,298.4 365.3,291.5 365.4,296.6 365.6,294.1 365.7,290.7 365.9,300.6 366.0,296.1 366.2,290.6 366.3,294.0 366.5,294.8 366.6,297.3 366.8,298.5 366.9,297.0 367.1,297.8 367.2,296.6 367.4,295.7 367.5,297.3 367.7,296.9 367.8,292.8 368.0,294.8 368.1,295.9 368.3,295.4 368.4,298.3 368.6,292.9 368.7,294.2 368.9,294.1 369.0,296.2 369.2,296.0 369.3,293.9 369.5,294.5 369.6,296.3 369.8,295.9 369.9,296.6 370.1,295.4 370.2,295.0 370.4,293.6 370.5,297.0 370.7,295.5 370.8,295.0 370.9,297.6 371.1,296.9 371.2,295.3 371.4,296.1 371.5,294.1 371.7,298.8 371.8,296.1 372.0,294.3 372.1,295.6 372.3,292.8 372.4,297.1 372.6,296.7 372.7,297.4 372.9,296.7 373.0,294.4 373.2,297.1 373.3,293.6 373.5,297.0 373.6,294.0 373.8,298.2 373.9,296.4 374.1,296.5 374.2,296.0 374.4,294.9 374.5,295.9 374.7,295.7 374.8,294.1 375.0,295.0 375.1,294.7 375.3,295.6 375.4,294.8 375.6,297.0 375.7,296.4 375.9,295.8 376.0,297.3 376.2,296.5 376.3,297.0 376.5,293.1 376.6,296.1 376.8,296.4 376.9,297.5 377.1,297.6 377.2,295.6 377.4,295.4 377.5,296.0 377.7,296.7 377.8,296.0 378.0,295.4 378.1,296.6 378.3,298.1 378.4,297.3 378.6,292.7 378.7,295.5 378.9,293.8 379.0,297.3 379.2,297.0 379.3,295.8 379.5,299.1 379.6,300.2 379.8,295.7 379.9,296.7 380.1,296.2 380.2,294.7 380.4,296.6 380.5,295.0 380.7,297.5 380.8,293.4 381.0,296.4 381.1,299.6 381.3,293.4 381.4,297.5 381.5,294.4 381.7,295.8 381.8,295.7 382.0,293.7 382.1,298.2 382.3,294.6 382.5,296.9 382.6,292.1 382.8,294.4 382.9,297.0 383.0,297.0 383.2,295.7 383.3,298.3 383.5,296.9 383.7,296.0 383.8,293.4 383.9,295.7 384.1,298.8 384.2,296.1 384.4,294.1 384.5,297.0 384.7,293.7 384.8,293.4 385.0,296.8 385.1,295.6 385.3,293.8 385.4,294.8 385.6,298.2 385.7,294.2 385.9,295.5 386.0,297.1 386.2,294.1 386.3,295.4 386.5,296.4 386.6,294.2 386.8,294.5 386.9,293.3 387.1,300.6 387.2,294.0 387.4,297.5 387.5,298.2 387.7,297.5 387.8,294.0 388.0,294.4 388.1,297.0 388.3,297.0 388.4,297.3 388.6,297.1 388.7,298.1 388.9,296.0 389.0,294.6 389.2,293.9 389.3,296.0 389.5,299.7 389.6,296.5 389.8,293.2 389.9,295.9 390.1,296.1 390.2,297.3 390.4,301.6 390.5,299.3 390.7,295.4 390.8,294.7 391.0,297.7 391.1,297.6 391.3,296.9 391.4,297.6 391.6,297.7 391.7,295.2 391.8,295.0 392.0,293.3 392.1,296.2 392.3,298.0 392.4,297.0 392.6,294.8 392.7,298.0 392.9,297.9 393.0,296.0 393.2,294.6 393.3,294.6 393.5,296.2 393.6,297.8 393.8,294.9 393.9,296.3 394.1,292.9 394.2,294.1 394.4,296.6 394.5,294.3 394.7,292.7 394.8,297.9 395.0,293.2 395.1,297.4 395.3,296.6 395.4,297.7 395.6,298.1 395.7,298.4 395.9,296.8 396.0,295.2 396.2,296.5 396.3,294.8 396.5,295.6 396.6,298.9 396.8,300.1 396.9,297.4 397.1,294.4 397.2,296.0 397.5,296.1 397.6,296.0 397.8,295.2 397.9,293.8 398.1,297.8 398.2,296.6 398.3,296.8 398.5,297.4 398.6,295.5 398.8,298.9 398.9,297.2 399.1,299.1 399.2,298.2 399.4,295.6 399.5,297.8 399.7,296.9 399.8,298.0 400.0,294.5 400.1,298.6 400.3,293.8 400.4,297.5 400.6,299.9 400.7,294.4 400.9,295.2 401.0,295.3 401.2,295.5 401.3,295.6 401.5,296.6 401.6,297.6 401.8,296.0 401.9,296.3 402.1,297.7 402.2,295.9 402.4,297.2 402.5,296.9 402.7,294.8 402.8,293.6 403.0,296.6 403.1,299.5 403.3,291.9 403.4,299.2 403.6,297.7 403.7,297.0 403.9,296.5 404.0,296.8 404.2,297.1 404.3,299.2 404.4,297.7 404.6,294.0 404.7,297.1 404.9,296.4 405.0,297.7 405.2,294.9 405.3,295.5 405.5,296.0 405.6,295.2 405.8,296.3 405.9,294.8 406.1,297.6 406.2,298.9 406.4,298.0 406.5,297.5 406.7,296.9 406.8,296.4 407.0,297.3 407.1,296.0 407.3,295.3 407.4,293.8 407.6,297.0 407.7,298.7 407.9,297.0 408.0,296.5 408.2,296.6 408.3,296.1 408.5,296.8 408.6,295.3 408.8,295.1 408.9,295.2 409.1,298.6 409.2,300.3 409.4,298.3 409.5,296.3 409.7,295.7 409.8,297.3 410.0,293.3 410.1,295.7 410.3,293.1 410.4,296.6 410.6,296.2 410.7,298.8 410.9,298.0 411.0,296.1 411.2,297.6 411.3,299.7 411.4,297.3 411.6,293.8 411.7,297.3 411.9,297.0 412.0,297.1 412.2,295.9 412.3,296.4 412.5,297.3 412.6,296.7 412.8,296.7 412.9,294.6 413.1,298.0 413.2,300.7 413.4,296.7 413.5,296.9 413.7,294.3 413.8,298.2 414.0,296.4 414.1,294.4 414.3,294.3 414.4,294.6 414.6,297.7 414.7,295.6 414.9,297.8 415.0,296.8 415.2,297.5 415.3,296.2 415.5,292.0 415.6,293.6 415.7,294.4 415.9,296.8 416.0,296.3 416.2,295.1 416.4,296.8 416.5,298.2 416.6,295.9 416.8,297.7 416.9,296.7 417.1,297.9 417.2,295.7 417.4,297.3 417.5,293.6 417.7,294.5 417.8,294.6 418.0,293.9 418.1,293.6 418.3,296.6 418.4,296.3 418.6,295.8 418.7,297.6 418.9,297.9 419.0,298.2 419.2,295.0 419.3,294.2 419.5,296.0 419.6,298.1 419.8,296.9 419.9,294.9 420.1,293.5 420.2,297.0 420.4,297.5 420.5,297.3 420.7,298.1 420.8,296.7 421.0,297.6 421.1,297.2 421.3,296.7 421.4,297.9 421.6,298.4 421.7,296.1 421.9,295.0 422.0,297.2 422.2,293.6 422.3,296.2 422.5,296.5 422.6,294.8 422.8,296.9 422.9,297.6 423.1,294.7 423.2,298.2 423.4,297.3 423.5,298.2 423.7,296.0 423.8,296.5 424.0,296.8 424.1,294.6 424.3,296.7 424.4,299.2 424.5,296.8 424.7,297.5 424.8,297.2 425.0,293.9 425.1,293.1 425.3,293.3 425.4,297.7 425.6,296.7 425.7,295.8 425.9,298.1 426.0,297.7 426.2,298.1 426.3,296.8 426.5,296.8 426.6,297.2 426.8,298.2 426.9,297.8 427.1,295.0 427.2,297.9 427.4,299.7 427.5,294.8 427.7,298.4 427.8,298.4 428.0,295.8 428.1,295.7 428.3,300.9 428.4,296.2 428.6,293.9 428.7,297.8 428.9,296.2 429.0,297.2 429.2,294.2 429.3,299.8 429.4,294.8 429.6,295.8 429.7,301.0 429.9,297.5 430.0,296.1 430.2,296.0 430.3,296.2 430.5,298.1 430.6,297.3 430.8,296.0 430.9,297.0 431.1,298.0 431.2,295.9 431.4,299.2 431.5,294.8 431.7,296.3 431.8,296.2 432.0,299.2 432.1,298.0 432.3,295.8 432.4,298.9 432.6,296.5 432.7,295.0 432.9,299.0 433.0,296.7 433.2,293.7 433.3,297.4 433.5,297.0 433.6,296.3 433.8,296.5 433.9,299.4 434.1,294.6 434.2,293.7 434.4,294.0 434.5,293.7 434.7,299.0 434.8,294.2 435.0,298.0 435.1,297.4 435.2,297.4 435.4,294.1 435.5,297.0 435.7,295.2 435.8,295.5 436.0,298.3 436.1,299.7 436.3,297.9 436.4,297.8 436.6,292.5 436.7,297.0 436.9,296.9 437.0,294.9 437.2,296.0 437.3,299.7 437.5,296.7 437.6,297.4 437.8,297.5 437.9,298.2 438.1,297.1 438.2,294.5 438.4,297.0 438.5,295.4 438.7,296.1 438.8,298.2 439.0,296.1 439.1,297.3 439.3,294.2 439.4,295.9 439.6,292.9 439.7,293.2 439.9,298.9 440.0,296.0 440.2,298.3 440.3,297.8 440.5,298.5 440.6,296.6 440.8,295.7 440.9,293.3 441.1,296.5 441.2,297.8 441.4,298.1 441.5,293.2 441.7,298.2 441.8,296.9 442.0,299.3 442.1,293.5 442.3,296.8 442.4,297.6 442.6,294.5 442.7,298.8 442.9,297.5 443.0,298.5 443.2,297.4 443.3,295.9 443.5,292.8 443.6,296.7 443.8,297.9 443.9,297.2 444.0,296.0 444.2,294.7 444.3,297.6 444.5,295.6 444.6,298.1 444.8,298.8 444.9,295.7 445.1,294.0 445.2,296.9 445.4,296.6 445.5,298.7 445.7,300.0 445.8,297.6 446.0,296.2 446.1,296.9 446.3,299.1 446.4,297.2 446.6,296.1 446.7,296.9 446.9,295.9 447.0,296.7 447.2,298.0 447.3,296.3 447.5,294.1 447.6,294.3 447.8,296.8 447.9,295.1 448.1,298.3 448.2,295.9 448.4,297.2 448.5,296.2 448.7,297.3 448.8,300.2 448.9,296.7 449.1,294.6 449.2,301.6 449.4,295.7 449.5,298.3 449.7,298.5 449.8,299.1 450.0,295.6 450.1,296.5 450.3,295.5 450.4,298.0 450.6,297.8 450.7,296.5 450.9,294.8 451.0,296.7 451.2,298.3 451.3,299.0 451.5,295.7 451.6,298.2 451.8,295.7 451.9,297.2 452.1,295.7 452.2,296.1 452.4,296.2 452.5,296.4 452.7,295.3 452.8,295.0 453.0,294.0 453.1,297.2 453.2,298.5 453.4,298.4 453.5,297.4 453.7,298.6 453.8,299.0 454.0,296.3 454.1,299.6 454.3,299.3 454.4,298.7 454.6,295.1 454.7,296.8 454.9,299.2 455.0,292.8 455.2,298.3 455.4,298.1 455.5,296.8 455.6,296.4 455.8,298.2 455.9,295.9 456.1,294.6 456.2,295.1 456.4,299.3 456.5,297.6 456.7,299.6 456.8,298.1 457.0,298.4 457.1,295.0 457.3,300.1 457.4,296.7 457.6,299.5 457.7,298.9 457.9,295.8 458.0,296.8 458.2,297.6 458.3,295.8 458.5,295.3 458.6,300.8 458.8,298.8 458.9,298.7 459.1,296.7 459.2,297.7 459.4,295.6 459.5,298.1 459.7,295.8 459.8,300.7 460.0,295.8 460.1,298.0 460.3,296.9 460.4,295.0 460.6,296.4 460.7,295.6 460.9,295.7 461.0,296.7 461.2,299.2 461.3,296.0 461.5,298.9 461.6,292.6 461.8,297.9 461.9,297.4 462.1,296.7 462.2,297.9 462.4,297.0 462.5,297.7 462.7,297.7 462.8,293.3 463.0,296.1 463.1,297.4 463.3,299.6 463.4,296.3 463.6,296.1 463.7,301.0 463.9,297.1 464.0,298.2 464.2,293.8 464.3,298.3 464.5,296.6 464.6,297.8 464.8,296.5 464.9,296.6 465.1,300.0 465.2,297.0 465.4,296.2 465.5,297.4 465.7,296.0 465.8,297.5 466.0,300.3 466.1,299.1 466.3,295.8 466.4,299.5 466.6,298.8 466.7,299.2 466.9,297.9 467.0,298.3 467.2,291.8 467.3,297.1 467.5,293.9 467.6,297.4 467.8,296.7 467.9,296.7 468.1,299.1 468.2,298.2 468.4,297.7 468.6,297.4 468.7,295.9 468.9,296.4 469.0,297.3 469.2,297.9 469.3,300.3 469.5,297.5 469.6,294.8 469.8,296.2 469.9,298.9 470.1,298.1 470.2,295.8 470.4,299.5 470.5,296.0 470.7,298.5 470.8,296.7 471.0,295.5 471.1,295.0 471.3,297.8 471.4,295.3 471.6,297.6 471.7,296.5 471.8,299.6 472.0,297.8 472.2,301.0 472.3,294.0 472.5,298.2 472.6,296.8 472.7,300.0 472.9,299.9 473.0,296.0 473.2,295.2 473.3,296.5 473.5,295.2 473.6,300.7 473.8,297.9 473.9,295.2 474.1,299.7 474.2,300.2 474.4,298.4 474.5,296.8 474.7,297.4 474.8,297.4 475.0,297.4 475.1,296.9 475.3,296.4 475.4,299.7 475.6,298.2 475.7,299.0 475.9,299.3 476.0,297.0 476.2,298.2 476.3,300.1 476.5,296.8 476.6,296.5 476.8,297.5 476.9,298.9 477.1,297.1 477.2,297.4 477.4,297.8 477.5,299.9 477.6,298.1 477.8,295.4 477.9,297.4 478.1,296.2 478.2,295.5 478.4,297.7 478.5,297.0 478.7,296.9 478.8,296.4 479.0,299.5 479.1,296.6 479.3,298.7 479.4,298.3 479.6,298.1 479.7,297.4 479.9,296.4 480.0,296.0 480.2,297.2 480.3,297.1 480.5,299.4 480.6,298.7 480.8,300.6 480.9,298.4 481.1,297.9 481.2,300.3 481.4,297.7 481.5,298.1 481.7,302.3 481.8,295.3 482.0,294.7 482.1,294.6 482.3,299.7 482.4,297.3 482.5,297.3 482.7,298.2 482.8,296.6 483.0,299.5 483.1,297.3 483.3,297.5 483.4,296.9 483.6,297.5 483.7,295.5 483.9,300.9 484.0,297.5 484.2,298.8 484.3,297.4 484.5,298.0 484.6,296.7 484.8,296.3 484.9,298.1 485.1,298.9 485.2,299.5 485.4,296.0 485.5,301.7 485.7,297.3 485.8,294.8 486.0,298.5 486.1,294.6 486.2,301.1 486.4,299.0 486.5,298.4 486.7,296.6 486.8,296.6 487.0,296.1 487.1,298.4 487.3,296.6 487.4,297.9 487.6,297.5 487.7,296.4 487.9,297.5 488.0,299.6 488.2,298.7 488.3,295.7 488.5,299.4 488.6,297.9 488.8,300.6 488.9,298.6 489.1,297.2 489.2,299.4 489.4,296.1 489.5,296.2 489.7,297.5 489.8,295.5 490.0,295.7 490.1,301.5 490.3,296.5 490.4,298.5 490.6,299.1 490.7,298.9 490.9,298.7 491.0,295.5 491.2,299.4 491.3,297.0 491.5,301.5 491.6,297.8 491.7,298.6 491.9,295.1 492.0,299.4 492.2,297.1 492.3,296.8 492.5,297.6 492.6,299.5 492.8,297.3 492.9,295.3 493.1,299.9 493.2,297.7 493.4,297.9 493.5,296.3 493.7,297.7 493.8,299.0 494.0,299.2 494.1,296.9 494.3,294.8 494.4,294.9 494.6,297.3 494.7,299.9 494.9,297.3 495.0,297.4 495.2,296.1 495.3,296.7 495.5,297.6 495.6,295.8 495.8,296.7 495.9,298.4 496.1,299.5 496.2,300.0 496.4,299.8 496.5,298.2 496.7,295.5 496.8,297.1 497.0,297.4 497.1,297.1 497.3,298.8 497.4,297.2 497.6,296.1 497.7,296.3 497.8,297.2 498.0,299.7 498.1,297.8 498.3,299.5 498.4,298.5 498.6,298.5 498.7,298.5 498.9,296.6 499.0,296.9 499.2,301.1 499.3,296.8 499.5,297.9 499.6,300.5 499.8,296.1 499.9,295.6 500.1,297.3 500.2,298.0 500.4,295.8 500.5,293.9 500.7,298.3 500.8,297.0 501.0,298.4 501.1,297.7 501.3,300.0 501.4,297.2 501.6,295.7 501.7,297.4 501.9,295.5 502.0,296.9 502.2,298.9 502.3,301.6 502.5,301.7 502.6,300.4 502.8,297.1 502.9,297.5 503.1,297.8 503.2,300.4 503.4,300.6 503.5,297.8 503.7,294.4 503.8,298.0 504.0,300.8 504.1,298.0 504.3,296.6 504.4,299.5 504.5,293.3 504.7,300.3 504.8,300.1 505.0,296.9 505.1,298.8 505.3,299.8 505.4,296.8 505.6,300.8 505.7,299.0 505.9,298.1 506.0,298.1 506.2,301.5 506.3,299.2 506.5,295.8 506.6,296.3 506.8,297.5 506.9,294.9 507.1,297.0 507.2,295.4 507.4,296.0 507.5,300.2 507.7,297.8 507.8,296.2 508.0,299.7 508.1,300.0 508.3,297.7 508.4,298.0 508.6,295.1 508.7,295.8 508.9,298.4 509.0,296.4 509.2,297.6 509.3,298.2 509.4,298.4 509.6,297.4 509.7,296.6 509.9,300.9 510.0,297.5 510.2,298.5 510.3,298.5 510.5,297.0 510.6,298.2 510.8,297.3 510.9,298.9 511.1,297.2 511.2,294.5 511.4,299.0 511.5,298.4 511.7,298.8 511.8,295.8 512.0,299.1 512.1,298.5 512.3,297.6 512.4,300.0 512.6,296.7 512.7,298.8 512.9,295.8 513.0,300.0 513.2,300.5 513.3,299.7 513.5,294.8 513.6,299.0 513.8,297.0 513.9,297.5 514.1,296.2 514.2,299.5 514.3,299.5 514.5,297.6 514.6,297.6 514.8,299.1 514.9,298.8 515.1,298.1 515.2,297.8 515.4,299.2 515.5,300.8 515.7,297.1 515.8,299.2 516.0,296.1 516.1,299.6 516.3,294.1 516.4,300.5 516.6,296.9 516.7,294.9 516.9,298.1 517.0,298.6 517.2,301.1 517.3,299.9 517.5,296.5 517.6,299.9 517.8,298.0 517.9,299.2 518.1,298.4 518.2,298.0 518.4,296.7 518.5,302.8 518.7,299.2 518.8,294.2 519.0,300.4 519.1,295.4 519.3,299.3 519.4,298.2 519.6,296.6 519.7,300.4 519.9,298.9 520.0,298.4 520.2,296.0 520.3,296.1 520.5,297.8 520.6,296.5 520.7,297.8 520.9,298.1 521.0,299.2 521.2,298.8 521.3,293.7 521.5,296.5 521.6,299.6 521.8,297.8 521.9,297.4 522.1,298.5 522.2,297.1 522.4,297.9 522.5,297.8 522.7,298.4 522.8,297.1 523.0,296.7 523.1,299.2 523.3,296.6 523.4,299.2 523.6,299.1 523.7,298.4 523.9,299.2 524.0,296.9 524.2,299.1 524.3,294.7 524.5,299.3 524.6,299.7 524.8,296.3 524.9,297.0 525.1,301.3 525.2,296.3 525.4,298.3 525.5,300.6 525.6,297.9 525.8,298.4 525.9,297.5 526.1,299.2 526.2,296.7 526.4,295.7 526.5,298.7 526.7,300.0 526.8,296.5 527.0,297.9 527.1,299.1 527.3,298.3 527.4,298.5 527.6,297.3 527.7,299.5 527.9,299.5 528.0,298.6 528.2,297.0 528.3,294.1 528.5,295.6 528.6,296.4 528.8,301.9 528.9,296.1 529.1,298.3 529.2,295.9 529.4,298.4 529.5,300.2 529.7,299.4 529.8,297.0 530.0,296.7 530.1,297.8 530.3,298.7 530.4,295.2 530.6,296.7 530.7,299.1 530.9,299.8 531.0,294.4 531.2,295.9 531.3,298.2 531.5,298.0 531.6,297.7 531.8,298.1 531.9,298.9 532.1,297.5 532.2,297.6 532.4,295.2 532.5,297.9 532.7,297.6 532.8,297.7 533.0,296.6 533.1,296.3 533.2,298.1 533.4,296.8 533.5,297.9 533.7,299.8 533.8,298.8 534.0,298.6 534.1,294.9 534.3,295.3 534.4,298.2 534.6,297.0 534.7,296.6 534.9,299.2 535.0,298.2 535.2,298.6 535.3,299.2 535.5,299.0 535.6,296.7 535.8,298.6 535.9,296.6 536.1,298.6 536.2,297.5 536.4,297.7 536.5,296.5 536.7,296.1 536.8,296.5 537.0,297.2 537.1,297.9 537.3,299.7 537.4,296.1 537.6,299.5 537.7,298.7 537.9,296.6 538.0,300.7 538.2,296.9 538.3,300.1 538.5,298.0 538.6,300.0 538.8,298.7 538.9,296.9 539.1,297.8 539.2,300.0 539.4,298.4 539.5,300.8 539.7,295.6 539.8,299.0 539.9,301.0 540.1,296.9 540.2,296.3 540.4,298.0 540.5,300.6 540.7,297.0 540.8,298.7 541.0,298.8 541.1,299.6 541.3,297.9 541.4,298.9 541.6,298.0 541.7,298.9 541.9,296.0 542.0,300.0 542.2,298.4 542.3,295.8 542.5,295.3 542.6,295.8 542.8,299.2 542.9,299.5 543.1,300.5 543.2,297.9 543.4,298.1 543.5,298.5 543.7,297.5 543.8,298.2 544.0,296.4 544.1,295.3 544.3,299.8 544.4,297.9 544.6,299.0 544.7,297.4 544.8,297.5 545.0,299.8 545.1,297.0 545.3,299.5 545.4,299.0 545.6,297.4 545.7,298.0 545.9,296.2 546.0,296.4 546.2,298.5 546.3,296.6 546.5,300.2 546.6,299.0 546.8,295.5 546.9,296.1 547.1,296.9 547.2,300.3 547.4,299.6 547.5,299.1 547.7,300.2 547.8,299.1 548.0,298.5 548.1,296.6 548.2,298.6 548.4,297.4 548.6,296.8 548.7,298.6 548.8,299.5 549.0,300.8 549.1,296.5 549.3,300.2 549.4,297.2 549.6,297.2 549.7,297.1 549.9,297.5 550.0,299.8 550.2,300.1 550.3,296.8 550.5,296.0 550.6,298.2 550.8,298.2 550.9,298.3 551.1,298.9 551.2,299.3 551.4,301.0 551.5,297.6 551.7,297.9 551.8,297.1 552.0,297.0 552.1,297.9 552.3,297.0 552.4,299.6 552.5,299.0 552.7,298.0 552.8,300.0 553.0,298.5 553.1,300.5 553.3,298.6 553.4,299.0 553.6,299.7 553.7,298.3 553.9,299.4 554.0,298.1 554.2,299.0 554.3,297.8 554.5,294.7 554.6,295.1 554.8,297.4 554.9,299.9 555.1,301.1 555.2,298.9 555.4,297.3 555.5,300.2 555.7,298.0 555.8,296.4 555.9,295.8 556.1,296.3 556.2,302.4 556.4,295.7 556.5,297.0 556.7,299.4 556.8,297.0 557.0,299.2 557.1,297.3 557.3,298.8 557.4,296.8 557.6,301.3 557.7,295.9 557.9,300.0 558.0,299.1 558.2,295.8 558.3,299.0 558.5,300.9 558.6,297.2 558.8,297.7 558.9,299.5 559.1,299.1 559.2,299.3 559.3,297.9 559.5,299.3 559.6,296.4 559.8,297.8 559.9,298.9 560.1,295.6 560.2,300.0 560.4,300.4 560.5,296.2 560.7,300.8 560.8,299.4 561.0,298.5 561.1,298.6 561.3,298.4 561.4,296.6 561.6,298.0 561.7,293.9 561.9,295.3 562.0,298.3 562.2,298.8 562.3,300.4 562.5,300.5 562.6,295.6 562.8,299.2 562.9,296.0 563.1,300.3 563.2,299.5 563.4,298.6 563.5,299.1 563.7,299.3 563.8,295.4 564.0,299.1 564.1,299.1 564.3,296.2 564.4,296.7 564.6,298.0 564.7,298.6 564.9,299.6 565.0,296.4 565.1,299.6 565.3,298.0 565.4,301.7 565.6,297.1 565.7,298.1 565.9,296.2 566.0,299.7 566.2,298.0 566.3,297.6 566.5,300.2 566.6,297.9 566.8,301.4 566.9,297.7 567.1,298.4 567.2,301.1 567.4,299.5 567.5,300.9 567.7,299.9 567.8,300.4 568.0,300.9 568.1,300.9 568.3,298.8 568.4,301.0 568.6,296.5 568.7,294.2 568.9,297.2 569.0,296.7 569.2,298.2 569.3,298.1 569.5,296.5 569.6,297.1 569.8,296.2 569.9,298.7 570.1,300.0 570.2,296.6 570.4,300.8 570.5,298.4 570.7,297.5 570.8,295.6 571.0,301.1 571.1,297.0 571.3,297.1 571.4,299.2 571.6,298.8 571.7,297.8 571.9,299.5 572.0,296.4 572.2,298.5 572.3,296.2 572.5,297.9 572.6,300.8 572.8,299.0 572.9,297.8 573.0,295.8 573.2,298.1 573.3,299.9 573.5,298.5 573.6,299.8 573.8,297.8 573.9,301.5 574.1,298.6 574.2,302.2 574.4,296.8 574.5,298.6 574.7,303.0 574.8,299.3 575.0,297.7 575.1,298.1 575.3,298.3 575.4,299.1 575.6,298.6 575.7,301.2 575.9,297.7 576.0,298.3 576.2,301.0 576.3,300.9 576.5,296.8 576.6,299.3 576.8,297.7 576.9,300.9 577.0,297.2 577.2,298.1 577.3,299.4 577.5,302.5 577.6,300.3 577.8,298.6 577.9,299.3 578.1,301.1 578.2,298.6 578.4,300.6 578.5,299.4 578.7,298.3 578.8,298.6 579.0,298.3 579.1,298.3 579.3,297.4 579.4,298.8 579.6,298.1 579.7,300.0 579.9,298.4 580.0,294.5 580.2,292.4 580.3,301.4 580.5,300.3 580.6,297.0 580.8,298.2 580.9,299.0 581.1,298.5 581.2,296.2 581.3,297.4 581.5,298.3 581.6,299.0 581.8,300.6 581.9,300.6 582.1,297.0 582.2,299.3 582.4,297.9 582.5,299.1 582.7,296.1 582.8,301.0 583.0,299.1 583.1,298.8 583.3,296.2 583.4,295.9 583.6,296.0 583.7,297.9 583.9,298.3 584.0,296.5 584.2,299.7 584.3,301.1 584.5,299.8 584.6,299.9 584.8,299.1 584.9,299.0 585.1,297.3 585.2,298.4 585.4,299.6 585.5,301.7 585.6,299.1 585.8,297.4 585.9,299.8 586.1,300.7 586.2,298.9 586.4,297.0 586.5,297.8 586.7,295.5 586.8,296.3 587.0,294.5 587.1,297.8 587.3,298.2 587.4,295.6 587.6,298.2 587.7,297.3 587.9,297.2 588.0,298.9 588.2,299.7 588.3,298.5 588.5,298.7 588.6,297.8 588.8,298.9 588.9,295.7 589.1,300.0 589.2,297.9 589.4,299.6 589.5,296.4 589.7,300.8 589.8,298.0 590.0,296.9 590.1,298.5 590.3,298.4 590.4,299.2 590.6,297.7 590.7,298.8 590.9,297.5 591.0,300.8 591.1,298.8 591.3,302.8 591.4,298.3 591.6,299.3 591.7,298.7 591.9,298.6 592.0,297.4 592.2,296.3 592.3,299.4 592.5,300.3 592.6,299.4 592.8,296.3 592.9,299.0 593.1,297.8 593.2,297.4 593.4,295.9 593.5,298.4 593.7,299.1 593.8,302.1 594.0,297.6 594.1,301.1 594.3,300.8 594.4,299.3 594.6,301.7 594.7,297.7 594.9,301.9 595.0,298.0 595.2,297.6 595.3,296.5 595.4,297.5 595.6,297.4 595.7,301.4 595.9,299.0 596.0,296.1 596.2,298.2 596.3,300.4 596.5,298.4 596.6,298.1 596.8,302.0 596.9,300.2 597.1,300.5 597.2,300.0 597.4,301.2 597.5,299.1 597.7,299.7 597.8,297.2 598.0,298.6 598.1,300.0 598.3,296.2 598.4,301.9 598.6,296.6 598.7,299.8 598.9,299.3 599.0,298.6 599.2,297.0 599.3,296.6 599.5,300.4 599.6,299.1 599.7,299.2 599.9,298.9 600.0,297.9 600.2,297.7 600.3,301.7 600.5,301.1 600.6,299.8 600.8,301.0 600.9,298.0 601.1,298.8 601.2,300.9 601.4,295.5 601.5,299.3 601.7,300.0 601.8,298.5 602.0,302.4 602.1,299.0 602.3,302.0 602.4,298.4 602.6,297.9 602.7,299.5 602.8,301.4 603.0,299.5 603.1,297.1 603.3,300.2 603.4,299.9 603.6,298.2 603.7,300.0 603.9,296.2 604.0,298.3 604.2,299.8 604.3,300.0 604.5,300.2 604.6,298.9 604.8,298.9 604.9,300.2 605.1,301.9 605.2,299.2 605.4,297.7 605.5,300.6 605.7,298.7 605.8,298.1 606.0,299.4 606.1,298.2 606.2,296.9 606.4,298.2 606.5,299.3 606.7,294.5 606.8,301.1 607.0,299.1 607.1,296.9 607.3,300.9 607.4,300.6 607.6,299.4 607.7,297.3 607.9,299.6 608.0,298.7 608.2,298.3 608.3,299.7 608.5,296.8 608.6,299.9 608.8,297.4 608.9,298.1 609.1,300.3 609.2,299.9 609.4,300.1 609.5,300.7 609.7,303.1 609.8,300.6 610.0,299.2 610.1,297.7 610.3,297.5 610.4,299.6 610.6,299.3 610.7,298.2 610.9,298.7 611.0,296.6 611.2,297.9 611.3,299.7 611.5,295.9 611.6,298.9 611.8,296.8 611.9,297.8 612.1,295.9 612.2,297.7 612.4,297.5 612.5,296.1 612.7,302.6 612.8,300.5 613.0,299.0 613.1,299.6 613.3,296.2 613.4,301.2 613.5,297.5 613.7,299.3 613.8,299.0 614.0,298.0 614.1,299.9 614.3,300.3 614.4,296.7 614.6,298.1 614.7,296.7 614.9,299.9 615.0,298.1 615.2,298.1 615.3,297.6 615.5,297.3 615.6,299.2 615.8,299.5 615.9,298.4 616.1,297.9 616.2,297.7 616.4,297.3 616.5,302.9 616.7,297.2 616.8,298.5 617.0,298.0 617.1,298.4 617.3,299.9 617.4,299.3 617.6,299.4 617.7,299.3 617.8,299.1 618.0,299.2 618.1,299.0 618.3,300.3 618.4,299.0 618.6,299.6 618.7,300.4 618.9,300.1 619.0,297.9 619.2,300.0 619.3,297.7 619.5,301.7 619.6,297.2 619.8,298.2 619.9,296.6 620.1,299.9 620.2,298.3 620.4,301.4 620.5,300.5 620.7,298.4 620.8,296.8 621.0,298.6 621.1,299.4 621.3,299.8 621.4,299.2 621.5,297.4 621.7,297.8 621.8,298.0 622.0,298.1 622.1,299.7 622.3,299.6 622.4,299.3 622.6,297.2 622.7,300.6 622.9,297.6 623.0,299.4 623.2,298.8 623.3,294.2 623.5,299.7 623.6,300.2 623.8,295.9 623.9,296.4 624.1,300.2 624.2,303.2 624.4,303.2 624.5,299.1 624.7,299.3 624.8,298.4 625.0,300.0 625.1,296.9 625.2,299.3 625.4,300.3 625.5,301.8 625.7,301.0 625.8,299.3 626.0,296.1 626.1,294.1 626.3,297.9 626.4,299.0 626.6,298.2 626.7,301.5 626.9,298.5 627.0,298.6 627.2,299.6 627.3,298.0 627.5,301.3 627.6,300.6 627.8,297.0 627.9,297.3 628.1,295.9 628.2,297.1 628.4,297.8 628.5,293.9 628.7,299.2 628.8,299.8 629.0,296.7 629.1,298.7 629.3,298.1 629.4,300.0 629.6,299.6 629.7,295.6 629.9,301.4 630.0,300.7 630.2,298.5 630.3,299.4 630.5,300.6 630.6,300.4 630.8,301.0 630.9,298.3 631.1,294.6 631.2,296.8 631.4,298.3 631.5,300.0 631.7,300.7 631.8,299.7 632.0,299.0 632.1,299.8 632.3,298.1 632.4,299.8 632.6,297.9 632.7,295.5 632.9,303.7 633.0,297.4 633.2,298.3 633.3,298.7 633.5,296.1 633.6,301.1 633.8,299.3 633.9,303.5 634.1,300.5 634.2,300.6 634.4,298.5 634.5,298.8 634.7,301.3 634.8,299.2 635.0,303.8 635.1,300.4 635.3,296.7 635.4,298.4 635.6,297.3 635.7,299.2 635.9,297.1 636.0,298.6 636.2,294.5 636.3,300.0 636.5,295.7 636.6,298.6 636.8,300.2 636.9,299.2 637.1,301.1 637.2,298.2 637.4,299.8 637.5,301.9 637.7,304.1 637.8,298.8 637.9,301.5 638.1,295.4 638.2,299.2 638.4,297.3 638.5,296.9 638.7,301.8 638.8,299.9 639.0,299.8 639.1,298.0 639.3,296.8 639.4,298.4 639.6,297.8 639.7,300.0 639.9,298.8 640.0,299.6 640.2,301.5 640.3,299.8 640.5,298.5 640.6,299.7 640.8,298.4 640.9,298.6 641.1,297.7 641.2,297.5 641.4,298.1 641.5,300.3 641.7,299.0 641.8,300.5 642.0,300.8 642.1,300.4 642.3,299.1 642.4,297.2 642.6,298.5 642.7,297.1 642.9,295.6 643.0,300.0 643.2,299.7 643.3,301.8 643.5,297.0 643.6,299.1 643.8,297.8 643.9,300.8 644.1,298.8 644.2,298.0 644.4,299.0 644.5,300.1 644.7,299.9 644.8,297.9 644.9,295.6 645.1,298.2 645.2,297.9 645.4,297.4 645.5,298.9 645.7,299.4 645.8,299.0 646.0,300.5 646.1,302.4 646.3,297.0 646.4,299.0 646.6,299.8 646.7,300.0 646.9,298.6 647.0,299.9 647.2,300.4 647.3,296.8 647.5,297.4 647.6,298.7 647.8,299.3 647.9,297.4 648.1,294.7 648.2,302.1 648.4,298.4 648.5,301.6 648.7,300.3 648.8,299.8 649.0,297.4 649.1,299.7 649.3,299.7 649.4,300.8 649.6,301.0 649.7,298.8 649.9,300.3 650.0,299.6 650.2,296.7 650.3,300.8 650.5,301.4 650.6,300.6 650.8,297.1 650.9,296.8 651.1,301.7 651.2,300.4 651.4,301.5 651.5,296.6 651.7,302.9 651.8,296.7 652.0,300.1 652.1,295.7 652.3,294.4 652.4,295.8 652.6,294.6 652.7,298.5 652.9,302.2 653.0,299.4 653.2,295.3 653.3,297.5 653.5,299.6 653.6,298.5 653.8,300.3 653.9,299.5 654.1,299.8 654.2,300.1 654.4,298.9 654.5,302.4 654.7,297.6 654.8,300.2 655.0,300.4 655.1,297.5 655.3,300.7 655.4,296.8 655.6,298.0 655.7,300.4 655.9,298.5 656.0,297.0 656.2,301.1 656.3,299.7 656.5,301.6 656.6,299.4 656.8,300.3 656.9,296.6 657.0,297.2 657.2,299.9 657.4,300.3 657.5,299.5 657.7,297.6 657.8,298.4 658.0,298.7 658.1,297.3 658.2,300.3 658.4,299.8 658.6,299.8 658.7,301.9 658.9,296.3 659.0,297.1 659.2,300.5 659.3,301.7 659.4,300.5 659.6,301.4 659.8,300.5 659.9,297.8 660.1,294.8 660.2,298.5 660.3,301.4 660.5,299.7 660.6,302.3 660.8,299.7 660.9,300.7 661.1,300.8 661.2,299.2 661.4,300.3 661.5,300.4 661.7,297.8 661.8,300.3 662.0,299.6 662.1,297.1 662.3,296.9 662.4,300.4 662.6,301.6 662.7,297.3 662.9,298.7 663.0,297.6 663.2,296.9 663.3,297.6 663.5,298.5 663.6,301.2 663.8,301.7 663.9,296.7 664.1,299.4 664.2,300.4 664.4,300.1 664.5,298.2 664.7,299.6 664.8,302.4 665.0,302.1 665.1,300.7 665.3,300.0 665.4,298.0 665.6,301.4 665.7,296.9 665.9,296.0 666.0,297.6 666.2,298.2 666.3,297.5 666.5,299.1 666.6,300.3 666.7,298.8 666.9,300.1 667.0,301.2 667.2,298.1 667.3,300.6 667.5,300.4 667.6,297.9 667.8,300.5 667.9,297.3 668.1,300.6 668.2,297.3 668.4,297.7 668.5,298.8 668.7,297.7 668.8,300.2 669.0,298.7 669.1,297.0 669.3,299.7 669.4,302.1 669.6,300.6 669.7,296.2 669.9,299.5 670.0,299.5 670.2,301.9 670.4,299.8 670.5,295.2 670.7,301.7 670.8,299.3 671.0,301.5 671.1,300.1 671.3,298.5 671.4,298.5 671.6,296.9 671.7,301.2 671.9,300.2 672.0,299.4 672.2,300.8 672.3,300.8 672.5,299.9 672.6,297.9 672.8,300.6 672.9,297.8 673.0,300.5 673.2,300.1 673.3,300.6 673.5,299.5 673.6,300.8 673.8,303.3 673.9,301.3 674.1,299.0 674.2,299.5 674.4,300.6 674.5,301.4 674.7,300.8 674.8,302.3 675.0,298.3 675.1,295.9 675.3,299.8 675.4,296.9 675.6,300.7 675.7,297.8 675.9,297.8 676.0,302.9 676.2,298.3 676.3,296.9 676.5,298.9 676.6,297.6 676.8,301.3 676.9,299.7 677.0,300.3 677.2,297.6 677.3,301.8 677.5,298.9 677.6,298.3 677.8,299.7 677.9,295.3 678.1,300.7 678.3,297.9 678.4,299.4 678.6,302.3 678.7,297.5 678.9,299.5 679.0,302.3 679.2,298.8 679.3,296.3 679.5,301.1 679.6,300.3 679.8,297.7 679.9,301.1 680.1,295.5 680.2,297.7 680.4,297.7 680.5,299.9 680.7,297.6 680.8,300.2 681.0,298.7 681.1,299.0 681.2,298.5 681.4,299.4 681.5,300.3 681.7,298.2 681.8,295.5 682.0,298.7 682.1,300.8 682.3,297.5 682.4,298.7 682.6,297.3 682.7,297.7 682.9,302.8 683.0,300.4 683.2,299.4 683.3,297.6 683.5,298.1 683.6,300.2 683.8,300.4 683.9,300.4 684.1,299.2 684.2,299.7 684.4,300.1 684.5,297.6 684.7,297.1 684.8,297.8 685.0,300.2 685.1,300.0 685.3,298.6 685.4,300.7 685.6,301.3 685.7,299.5 685.8,297.1 686.0,299.7 686.1,301.5 686.3,298.2 686.4,303.3 686.6,302.5 686.7,301.2 686.9,296.6 687.0,298.8 687.2,300.8 687.3,300.4 687.5,299.4 687.6,298.2 687.8,295.4 687.9,299.8 688.1,300.4 688.2,300.5 688.4,297.5 688.5,297.1 688.7,300.7 688.8,299.7 689.0,298.1 689.1,300.0 689.3,298.7 689.4,300.9 689.6,304.9 689.7,298.9 689.9,298.5 690.0,299.5 690.1,299.6 690.3,300.1 690.5,298.2 690.6,297.8 690.7,302.8 690.9,299.1 691.1,300.2 691.2,301.8 691.4,298.8 691.5,299.5 691.6,303.3 691.8,297.6 691.9,297.5 692.1,299.8 692.2,301.6 692.4,301.8 692.5,299.0 692.7,300.4 692.8,301.3 693.0,301.9 693.1,302.7 693.3,300.0 693.4,300.8 693.6,298.0 693.7,299.5 693.9,302.2 694.0,298.7 694.2,297.9 694.3,298.0 694.5,299.2 694.6,301.2 694.8,299.1 694.9,298.3 695.1,299.7 695.2,301.1 695.4,302.6 695.5,300.5 695.7,299.8 695.8,297.0 696.0,297.8 696.1,298.1 696.3,298.0 696.4,298.0 696.6,298.7 696.7,297.6 696.9,297.9 697.0,301.0 697.2,300.5 697.3,297.7 697.5,298.7 697.6,299.4 697.8,301.2 697.9,300.2 698.1,301.8 698.2,299.6 698.4,299.6 698.5,297.8 698.7,300.2 698.8,299.0 699.0,302.8 699.1,300.2 699.3,298.3 699.4,299.1 699.5,300.3 699.7,299.5 699.9,298.8 700.0,300.2" fill="none" stroke="#9ca3af" stroke-width="1.5" stroke-dasharray="5,3"/>
<polyline points="65.0,119.4 65.2,52.9 65.3,90.6 65.5,146.9 65.7,160.9 65.9,152.9 66.0,153.5 66.2,157.6 66.4,166.1 66.6,168.0 66.7,171.2 67.0,173.1 67.3,176.6 67.6,178.6 67.8,180.0 68.1,182.9 68.4,184.8 68.7,187.1 68.9,188.6 69.2,190.9 69.5,192.3 69.7,195.3 70.0,197.7 70.3,200.0 70.5,202.7 70.8,203.4 71.0,204.7 71.3,206.5 71.6,207.9 71.8,208.4 72.1,210.0 72.3,211.5 72.6,212.3 72.8,213.4 73.1,214.0 73.3,214.5 73.6,215.7 73.8,215.6 74.1,216.2 74.4,217.6 74.6,217.8 74.9,218.6 75.1,219.7 75.4,221.1 75.6,221.1 75.9,221.4 76.1,223.6 76.4,223.4 76.6,225.0 76.8,223.8 77.1,225.4 77.3,225.7 77.6,227.6 77.8,227.4 78.1,229.0 78.3,230.6 78.5,230.5 78.8,231.0 79.0,232.5 79.3,232.1 79.5,233.5 79.7,234.1 80.0,236.0 80.2,237.1 80.5,235.6 80.7,237.7 80.9,236.4 81.2,238.4 81.4,239.8 81.7,240.3 81.9,239.5 82.1,240.8 82.4,239.1 82.6,239.6 82.8,241.8 83.0,243.0 83.3,242.7 83.5,243.5 83.8,243.6 84.0,242.5 84.2,243.9 84.5,244.9 84.7,243.4 84.9,244.6 85.2,243.6 85.4,243.1 85.6,244.4 85.8,245.9 86.1,244.4 86.3,247.3 86.5,246.7 86.8,248.1 87.0,246.4 87.2,249.3 87.4,248.7 87.7,248.9 87.9,249.2 88.1,249.7 88.3,250.5 88.6,248.5 88.8,249.2 89.0,251.5 89.2,248.6 89.4,250.4 89.7,250.6 89.9,249.0 90.1,251.2 90.3,253.0 90.5,250.7 90.7,252.0 91.0,251.0 91.2,251.5 91.4,254.2 91.6,251.5 91.8,252.4 92.0,256.4 92.2,252.2 92.5,255.3 92.7,255.9 92.9,255.4 93.1,255.9 93.3,253.8 93.5,256.4 93.9,255.9 94.1,256.2 94.3,258.0 94.5,257.3 94.7,257.4 94.9,259.3 95.1,258.0 95.3,258.7 95.5,258.5 95.7,258.3 96.0,257.5 96.2,260.9 96.4,261.2 96.6,257.6 96.8,257.8 97.0,259.4 97.2,259.7 97.4,260.2 97.6,261.1 97.8,258.7 98.0,261.1 98.2,260.7 98.4,260.7 98.6,260.8 98.8,262.7 99.0,260.4 99.2,258.8 99.4,263.1 99.6,261.1 99.8,262.1 100.0,261.1 100.2,263.7 100.4,261.5 100.6,261.2 100.8,263.5 101.1,262.2 101.3,263.9 101.5,263.0 101.7,262.8 101.9,265.1 102.1,264.8 102.3,263.6 102.5,262.9 102.7,264.6 102.9,264.0 103.1,266.0 103.3,263.9 103.4,263.7 103.7,265.2 103.9,265.9 104.1,265.0 104.3,267.8 104.4,264.8 104.6,265.7 104.8,265.5 105.0,265.7 105.2,265.9 105.4,267.0 105.6,264.9 105.8,265.5 106.0,263.8 106.2,267.6 106.4,267.5 106.6,265.8 106.9,267.3 107.1,265.2 107.3,268.5 107.5,266.5 107.7,267.4 107.9,267.0 108.1,266.5 108.3,266.5 108.5,266.3 108.7,267.5 108.9,269.8 109.0,267.9 109.2,268.3 109.4,268.4 109.6,268.0 109.8,269.1 110.0,269.6 110.2,267.7 110.4,269.4 110.6,268.4 110.8,268.2 110.9,271.8 111.1,268.9 111.3,266.7 111.5,270.1 111.7,267.9 111.9,268.8 112.1,268.2 112.3,270.0 112.5,269.3 112.6,268.9 112.8,267.4 113.0,271.0 113.2,269.5 113.4,270.3 113.6,269.9 113.8,270.8 114.0,271.8 114.2,270.0 114.3,273.2 114.5,270.6 114.7,270.2 114.9,270.4 115.1,270.8 115.3,269.5 115.5,270.9 115.6,271.1 115.8,271.6 116.0,272.7 116.2,269.2 116.4,273.5 116.6,272.8 116.8,270.5 116.9,273.1 117.1,270.7 117.3,272.8 117.5,272.9 117.7,270.3 117.9,271.9 118.1,270.6 118.2,273.0 118.4,271.0 118.6,271.5 118.8,272.4 119.0,274.0 119.2,273.6 119.3,273.0 119.5,269.9 119.7,271.1 119.9,271.8 120.1,269.9 120.3,275.7 120.4,275.3 120.6,273.6 120.8,273.0 121.0,271.1 121.2,273.8 121.4,272.4 121.6,273.2 121.7,273.9 121.9,274.1 122.1,274.3 122.3,272.9 122.5,273.2 122.6,273.3 122.8,271.6 123.0,273.2 123.2,274.6 123.3,273.7 123.5,272.1 123.7,274.3 123.9,274.4 124.1,271.9 124.2,275.5 124.4,276.8 124.6,275.5 124.8,274.3 125.0,275.8 125.1,274.5 125.3,274.1 125.5,275.0 125.7,274.5 125.9,275.5 126.0,275.3 126.2,273.8 126.4,276.1 126.6,274.6 126.8,276.3 126.9,276.3 127.1,274.4 127.3,276.7 127.5,278.0 127.6,277.1 127.9,274.4 128.0,274.7 128.2,276.5 128.4,277.8 128.6,276.2 128.7,275.2 128.9,276.5 129.1,275.6 129.3,277.4 129.5,276.1 129.6,274.9 129.8,277.4 130.0,275.3 130.2,277.3 130.3,276.0 130.5,276.9 130.7,276.5 130.9,277.0 131.0,277.8 131.2,277.4 131.4,275.9 131.6,276.9 131.7,277.5 131.9,277.7 132.1,278.4 132.3,275.6 132.4,276.8 132.6,276.9 132.8,279.4 133.0,277.8 133.1,276.4 133.3,278.1 133.5,275.5 133.7,278.5 133.8,276.1 134.0,278.2 134.2,280.9 134.4,278.3 134.5,279.6 134.7,277.4 134.9,278.3 135.0,280.0 135.2,279.5 135.4,278.0 135.6,277.7 135.7,277.5 135.9,276.8 136.1,278.7 136.3,277.9 136.4,278.1 136.6,280.4 136.8,276.8 137.0,279.3 137.1,278.3 137.3,278.6 137.5,276.1 137.7,281.1 137.8,276.5 138.0,278.7 138.2,279.0 138.3,278.7 138.5,279.3 138.7,278.3 138.9,278.2 139.0,276.3 139.2,278.1 139.4,279.9 139.6,279.9 139.7,278.5 139.9,276.7 140.1,279.9 140.3,280.6 140.4,279.6 140.6,279.8 140.8,280.8 140.9,278.4 141.1,280.1 141.3,279.3 141.5,279.0 141.6,281.8 141.8,278.7 142.0,279.6 142.1,279.3 142.3,278.1 142.5,279.7 142.7,280.0 142.8,279.7 143.0,283.4 143.2,278.7 143.3,280.9 143.5,280.5 143.7,280.9 143.9,280.3 144.0,280.9 144.2,280.3 144.4,282.6 144.5,279.5 144.7,281.0 144.9,281.2 145.1,279.7 145.2,279.7 145.4,281.5 145.6,281.8 145.7,283.0 145.9,281.9 146.1,281.7 146.3,278.2 146.4,280.4 146.6,282.1 146.8,280.3 146.9,282.0 147.1,282.1 147.3,281.0 147.5,279.5 147.6,280.4 147.8,281.7 148.0,282.3 148.1,280.3 148.3,281.2 148.5,282.4 148.7,282.8 148.8,283.0 149.0,279.1 149.2,283.4 149.3,280.3 149.5,282.8 149.7,278.8 149.8,281.9 150.0,281.1 150.2,281.9 150.4,280.6 150.5,281.2 150.7,280.7 150.9,280.7 151.0,280.2 151.2,280.7 151.4,281.3 151.6,281.2 151.7,280.6 151.9,281.3 152.1,281.4 152.2,283.7 152.4,278.7 152.6,283.9 152.8,279.9 152.9,281.7 153.1,280.3 153.3,283.9 153.4,283.4 153.6,282.2 153.8,283.0 154.0,281.8 154.1,283.6 154.3,281.1 154.5,282.0 154.6,282.1 154.8,282.1 155.0,283.1 155.2,283.0 155.3,282.9 155.5,282.2 155.7,284.0 155.8,281.8 156.0,282.3 156.2,280.9 156.4,281.1 156.5,283.0 156.7,283.1 156.9,284.6 157.0,284.8 157.2,284.2 157.4,281.7 157.5,281.7 157.7,282.0 157.9,283.3 158.1,281.7 158.2,281.4 158.4,283.6 158.6,285.8 158.7,283.0 158.9,282.1 159.1,284.8 159.3,284.0 159.4,283.1 159.6,284.3 159.8,284.0 159.9,283.1 160.1,284.3 160.3,286.1 160.4,284.6 160.6,285.3 160.8,286.1 161.0,283.3 161.1,283.5 161.3,286.0 161.5,282.8 161.6,282.9 161.8,282.3 162.0,282.3 162.2,282.9 162.3,282.4 162.5,282.6 162.7,282.8 162.8,284.9 163.0,281.1 163.2,283.2 163.3,281.7 163.5,282.8 163.7,281.7 163.9,283.7 164.0,284.7 164.2,283.9 164.4,282.6 164.6,282.8 164.7,284.2 164.9,285.2 165.1,282.8 165.2,282.2 165.4,283.9 165.6,284.2 165.8,283.6 165.9,283.3 166.1,283.3 166.3,285.0 166.4,283.7 166.6,284.8 166.8,285.7 167.0,283.5 167.1,284.1 167.3,283.4 167.5,285.8 167.6,282.7 167.8,286.8 168.0,283.4 168.1,283.5 168.3,283.9 168.5,284.8 168.7,284.9 168.8,284.7 169.0,282.9 169.2,284.0 169.4,282.2 169.5,280.5 169.7,285.2 169.9,286.0 170.0,287.5 170.2,285.6 170.4,284.9 170.5,284.9 170.7,283.1 170.9,282.9 171.1,286.3 171.2,285.7 171.4,287.5 171.6,283.1 171.7,284.2 171.9,285.9 172.1,284.6 172.2,284.5 172.4,284.0 172.6,286.4 172.8,285.8 172.9,286.2 173.1,281.5 173.3,286.3 173.5,287.1 173.6,289.1 173.8,283.2 174.0,283.4 174.2,285.3 174.3,284.4 174.5,286.0 174.7,284.4 174.9,286.6 175.0,288.6 175.2,287.0 175.4,285.3 175.5,286.7 175.7,284.5 175.9,284.7 176.1,284.9 176.2,284.7 176.4,285.9 176.6,287.8 176.7,286.3 176.9,285.1 177.1,287.4 177.3,286.3 177.4,286.9 177.6,287.7 177.8,283.3 177.9,285.4 178.1,287.4 178.3,288.9 178.5,287.1 178.6,286.6 178.8,284.4 179.0,284.3 179.1,287.1 179.3,287.2 179.5,286.1 179.6,287.9 179.8,285.7 180.0,287.5 180.2,284.1 180.3,285.0 180.5,285.7 180.7,286.6 180.8,285.4 181.0,286.0 181.2,287.2 181.4,285.3 181.5,285.9 181.7,282.4 181.9,287.3 182.0,286.6 182.2,287.8 182.4,286.4 182.6,284.8 182.7,282.1 182.9,288.2 183.1,287.3 183.2,284.3 183.4,287.0 183.6,286.0 183.8,285.1 183.9,287.0 184.1,288.0 184.3,287.7 184.4,286.6 184.6,284.7 184.8,287.9 184.9,286.5 185.1,291.4 185.3,288.3 185.5,287.0 185.6,287.9 185.8,285.3 186.0,286.3 186.2,285.2 186.3,287.5 186.5,286.5 186.7,288.1 186.8,286.7 187.0,287.3 187.2,287.6 187.4,286.9 187.5,289.7 187.7,288.1 187.9,288.2 188.0,286.0 188.2,289.1 188.4,284.1 188.6,284.9 188.7,287.1 188.9,283.7 189.1,286.7 189.2,286.3 189.4,287.5 189.6,286.1 189.8,290.0 189.9,287.6 190.1,286.4 190.3,288.7 190.4,288.2 190.6,289.7 190.8,286.6 190.9,288.8 191.1,290.7 191.3,288.9 191.5,286.6 191.6,288.5 191.8,288.5 192.0,288.4 192.1,286.8 192.3,283.1 192.5,286.5 192.7,286.3 192.8,287.8 193.0,286.4 193.2,288.6 193.3,290.4 193.5,288.6 193.7,287.4 193.9,289.4 194.0,289.4 194.2,289.0 194.4,289.9 194.5,286.5 194.7,287.0 194.9,288.8 195.0,287.8 195.2,287.5 195.4,285.9 195.6,290.8 195.7,287.5 195.9,286.5 196.1,288.2 196.2,289.4 196.4,287.9 196.6,286.9 196.8,288.3 196.9,290.1 197.1,288.2 197.3,288.4 197.4,289.8 197.6,289.2 197.8,287.3 198.0,288.3 198.1,291.8 198.3,288.0 198.5,288.5 198.6,288.0 198.8,287.7 199.0,290.7 199.2,286.0 199.3,287.7 199.5,290.4 199.7,288.2 199.8,288.7 200.0,287.9 200.2,290.0 200.4,290.0 200.5,287.3 200.7,287.2 200.9,288.4 201.1,289.6 201.2,288.0 201.4,288.5 201.6,288.9 201.7,286.6 201.9,287.3 202.1,285.3 202.3,289.9 202.4,289.9 202.6,290.0 202.8,287.6 203.0,286.4 203.1,288.8 203.3,291.9 203.5,291.5 203.6,289.4 203.8,288.8 204.0,286.3 204.2,290.4 204.3,288.9 204.6,288.6 204.7,286.7 204.9,289.9 205.1,290.9 205.3,288.6 205.4,286.8 205.6,288.4 205.8,289.6 205.9,290.8 206.1,288.6 206.3,290.5 206.5,290.0 206.6,288.1 206.8,291.3 207.0,289.7 207.1,289.5 207.3,288.0 207.5,290.0 207.7,288.5 207.8,290.9 208.0,291.4 208.2,290.8 208.3,290.9 208.5,286.6 208.7,287.5 208.8,287.5 209.0,288.5 209.2,291.5 209.4,290.4 209.5,288.7 209.7,292.1 209.9,291.2 210.0,289.8 210.2,289.6 210.4,288.3 210.6,288.3 210.7,289.3 210.9,290.4 211.1,290.6 211.2,290.2 211.4,290.4 211.6,289.6 211.8,289.5 211.9,290.3 212.1,289.6 212.3,290.4 212.5,291.0 212.6,289.9 212.8,290.2 213.0,287.7 213.1,287.9 213.3,289.9 213.5,289.9 213.7,292.2 213.8,291.5 214.0,290.0 214.2,290.5 214.3,291.3 214.5,292.5 214.7,288.2 214.9,290.5 215.0,291.5 215.2,289.1 215.4,291.3 215.5,289.9 215.7,293.3 215.9,288.4 216.1,290.9 216.2,291.7 216.4,291.7 216.6,291.5 216.7,286.6 216.9,289.2 217.1,290.2 217.2,288.0 217.4,290.6 217.6,290.1 217.8,289.5 217.9,291.5 218.1,290.1 218.3,289.6 218.5,291.9 218.6,290.0 218.8,290.6 219.0,288.8 219.1,291.1 219.3,289.7 219.5,291.7 219.6,289.1 219.8,292.7 220.0,292.3 220.2,292.7 220.3,291.2 220.5,288.1 220.7,290.4 220.8,290.4 221.0,292.1 221.2,289.1 221.4,291.3 221.5,289.4 221.7,290.7 221.9,292.0 222.0,290.1 222.2,290.4 222.4,291.3 222.6,290.8 222.7,291.6 222.9,287.3 223.1,290.5 223.2,289.6 223.4,289.0 223.6,290.6 223.7,291.2 223.9,292.1 224.1,289.1 224.3,295.0 224.4,292.6 224.6,292.1 224.8,289.2 224.9,291.4 225.1,292.1 225.3,288.2 225.4,289.2 225.6,288.3 225.8,290.3 226.0,289.2 226.1,291.8 226.3,291.6 226.5,292.0 226.6,291.4 226.8,288.1 227.0,290.5 227.1,289.0 227.3,287.9 227.5,292.7 227.7,292.8 227.8,290.3 228.0,290.6 228.2,291.7 228.3,290.1 228.5,293.5 228.7,289.9 228.9,293.5 229.0,292.0 229.2,289.4 229.4,290.3 229.5,289.3 229.7,293.7 229.9,293.7 230.1,293.0 230.2,289.7 230.4,292.1 230.6,292.1 230.7,292.7 230.9,291.5 231.1,291.8 231.2,293.9 231.4,291.9 231.6,289.5 231.8,292.3 231.9,292.4 232.1,292.5 232.3,289.9 232.4,290.1 232.6,291.4 232.8,291.4 233.0,291.7 233.1,292.1 233.3,294.7 233.5,291.2 233.6,292.1 233.8,289.0 234.0,287.7 234.1,293.0 234.3,290.9 234.5,292.0 234.7,291.7 234.8,290.5 235.0,291.6 235.2,292.7 235.3,292.8 235.5,291.3 235.7,288.6 235.8,294.1 236.0,290.1 236.2,291.5 236.4,289.1 236.5,288.7 236.7,290.7 236.9,289.8 237.0,292.3 237.2,290.7 237.4,290.2 237.6,291.7 237.7,292.6 237.9,293.4 238.1,291.7 238.2,294.0 238.4,292.7 238.6,291.5 238.8,295.1 238.9,293.7 239.1,291.8 239.3,289.4 239.4,293.0 239.6,293.0 239.8,293.2 240.0,293.0 240.1,293.5 240.3,290.0 240.5,292.4 240.6,294.3 240.8,294.4 241.0,291.7 241.2,288.4 241.3,290.6 241.5,292.8 241.7,292.2 241.8,291.6 242.0,286.9 242.2,293.4 242.4,289.1 242.5,290.0 242.7,292.5 242.9,294.8 243.0,290.4 243.2,289.4 243.4,289.3 243.5,292.2 243.7,291.3 243.9,290.6 244.1,293.9 244.2,291.1 244.4,293.1 244.6,289.2 244.7,293.1 244.9,293.1 245.1,291.7 245.2,292.6 245.4,292.3 245.6,290.5 245.8,291.2 245.9,290.4 246.1,293.2 246.3,291.1 246.4,291.5 246.6,292.2 246.8,292.5 246.9,291.3 247.1,291.8 247.3,291.0 247.5,292.5 247.6,292.6 247.8,291.8 248.0,294.1 248.1,291.6 248.3,292.0 248.5,292.5 248.6,293.9 248.8,292.9 249.0,291.9 249.2,291.5 249.3,289.5 249.5,293.0 249.7,294.3 249.8,288.5 250.0,291.8 250.2,293.1 250.4,293.1 250.5,293.0 250.7,291.2 250.9,289.6 251.0,294.1 251.2,291.2 251.4,293.2 251.6,293.6 251.7,291.8 251.9,291.2 252.1,291.7 252.2,292.1 252.4,291.3 252.6,293.9 252.7,290.4 252.9,294.0 253.1,293.7 253.3,294.3 253.4,290.0 253.6,295.0 253.8,292.4 253.9,293.2 254.1,291.0 254.3,292.2 254.5,292.9 254.6,294.2 254.8,291.6 255.0,295.8 255.1,292.6 255.3,291.6 255.5,290.1 255.7,291.8 255.8,294.7 256.0,292.5 256.2,291.4 256.3,294.4 256.5,295.1 256.7,292.4 256.8,292.3 257.0,293.7 257.2,294.8 257.4,295.3 257.5,293.3 257.7,294.5 257.9,292.0 258.0,293.3 258.2,293.7 258.4,291.8 258.6,293.4 258.7,294.9 258.9,296.1 259.1,295.0 259.2,295.8 259.4,290.9 259.6,293.3 259.8,291.6 259.9,290.8 260.1,291.7 260.3,290.0 260.5,293.0 260.6,294.4 260.8,292.6 261.0,291.9 261.1,294.3 261.3,292.1 261.5,293.4 261.7,289.1 261.8,292.4 262.0,290.7 262.2,294.4 262.3,292.3 262.5,296.0 262.7,294.7 262.9,295.9 263.0,291.9 263.2,293.7 263.4,294.1 263.6,294.7 263.7,290.7 263.9,292.0 264.1,293.7 264.3,294.6 264.4,291.4 264.6,294.0 264.8,293.2 264.9,293.9 265.1,294.4 265.3,294.2 265.5,295.1 265.6,294.3 265.8,292.9 266.0,292.9 266.2,292.9 266.3,292.3 266.5,292.7 266.7,292.0 266.8,294.6 267.0,294.4 267.2,295.1 267.4,290.4 267.5,292.6 267.7,294.3 267.9,292.5 268.0,290.9 268.2,294.0 268.4,295.4 268.6,292.2 268.7,294.1 268.9,290.1 269.1,291.7 269.3,294.1 269.4,292.3 269.6,292.8 269.8,292.4 269.9,291.4 270.1,292.0 270.3,292.5 270.5,293.6 270.6,295.8 270.8,294.5 271.0,294.0 271.1,293.7 271.3,289.9 271.5,294.3 271.7,291.9 271.8,295.4 272.0,295.9 272.2,293.2 272.3,293.5 272.5,293.9 272.7,291.9 272.9,292.9 273.0,296.7 273.2,292.5 273.4,291.9 273.6,294.5 273.7,293.5 273.9,295.5 274.1,291.9 274.2,293.2 274.4,295.6 274.6,292.8 274.8,289.7 274.9,292.7 275.1,295.0 275.3,293.0 275.4,292.7 275.6,289.2 275.8,293.7 276.0,295.0 276.1,291.1 276.3,292.6 276.5,292.6 276.6,292.5 276.8,295.3 277.0,290.7 277.2,292.5 277.3,293.8 277.5,293.6 277.7,293.1 277.8,297.3 278.0,297.7 278.2,295.1 278.4,296.6 278.5,294.2 278.7,294.7 278.9,292.1 279.0,291.5 279.2,295.3 279.4,294.4 279.5,294.7 279.7,291.7 279.9,294.3 280.1,294.1 280.2,292.8 280.4,294.3 280.6,293.8 280.7,297.9 280.9,294.1 281.1,294.8 281.3,293.2 281.4,292.7 281.6,293.7 281.8,292.6 281.9,292.7 282.1,296.0 282.3,294.8 282.5,293.3 282.6,293.6 282.8,294.3 283.0,293.4 283.1,292.1 283.3,297.1 283.5,293.9 283.7,292.6 283.8,292.7 284.0,291.6 284.2,293.4 284.3,294.1 284.5,294.7 284.7,294.7 284.8,295.1 285.0,293.3 285.2,293.1 285.4,294.7 285.5,295.1 285.7,294.5 285.9,295.1 286.0,295.9 286.2,290.8 286.4,291.0 286.6,293.6 286.7,293.9 286.9,296.6 287.1,295.8 287.2,291.9 287.4,293.3 287.6,295.9 287.8,296.0 287.9,293.0 288.1,293.3 288.3,292.4 288.4,294.3 288.6,293.3 288.8,293.7 288.9,294.3 289.1,296.8 289.3,289.9 289.5,293.6 289.6,294.7 289.8,294.3 290.0,297.6 290.2,293.3 290.3,292.7 290.5,294.4 290.7,294.0 290.8,293.4 291.0,294.0 291.2,293.5 291.4,295.0 291.5,294.1 291.7,292.2 291.9,298.4 292.0,292.6 292.2,294.2 292.4,292.8 292.6,295.0 292.7,297.5 292.9,295.3 293.1,293.3 293.2,294.2 293.4,295.1 293.6,291.7 293.7,293.6 293.9,293.7 294.1,293.8 294.3,294.2 294.4,295.2 294.6,292.6 294.8,293.8 294.9,295.2 295.1,293.5 295.3,293.8 295.5,294.7 295.6,292.5 295.8,297.5 296.0,294.7 296.1,291.1 296.3,296.1 296.5,294.9 296.6,295.9 296.8,295.2 297.0,292.5 297.2,294.2 297.3,292.8 297.5,293.3 297.7,291.7 297.9,294.3 298.0,293.5 298.2,293.4 298.4,294.2 298.5,293.7 298.7,297.5 298.9,292.4 299.0,291.6 299.2,293.9 299.4,292.1 299.6,293.9 299.7,294.5 299.9,296.5 300.1,294.3 300.3,294.4 300.4,295.3 300.6,296.4 300.8,294.5 300.9,291.3 301.1,297.2 301.3,295.4 301.5,293.2 301.6,296.2 301.8,296.2 302.0,293.9 302.2,295.4 302.3,293.1 302.5,294.8 302.7,293.7 302.8,294.9 303.0,293.4 303.2,296.8 303.4,294.1 303.5,295.3 303.7,295.8 303.9,296.1 304.0,294.6 304.2,293.5 304.4,293.9 304.5,296.1 304.7,295.4 304.9,294.5 305.1,295.6 305.2,295.8 305.4,296.6 305.6,294.3 305.8,294.6 305.9,294.1 306.1,296.9 306.3,293.1 306.4,292.9 306.6,292.2 306.8,291.5 306.9,297.3 307.1,298.4 307.3,295.7 307.5,297.3 307.6,295.1 307.8,292.6 308.0,294.3 308.1,298.1 308.3,296.6 308.5,292.3 308.7,293.7 308.8,294.7 309.0,293.0 309.2,294.9 309.3,294.2 309.5,294.7 309.7,294.3 309.8,295.1 310.0,294.7 310.2,295.2 310.4,296.1 310.5,297.4 310.7,291.0 310.9,294.5 311.0,297.3 311.2,293.6 311.4,292.4 311.6,293.2 311.7,291.6 311.9,295.3 312.1,294.1 312.2,291.7 312.4,293.9 312.6,293.0 312.7,295.6 312.9,293.9 313.1,294.3 313.2,294.6 313.4,295.1 313.6,295.0 313.8,297.3 313.9,293.1 314.1,296.5 314.3,293.4 314.4,294.0 314.6,295.6 314.8,293.8 315.0,297.9 315.1,294.9 315.3,294.7 315.5,292.6 315.6,294.7 315.8,293.8 316.0,296.2 316.1,294.5 316.3,294.8 316.5,295.1 316.7,292.5 316.8,296.5 317.0,295.3 317.2,294.4 317.3,294.9 317.5,293.3 317.7,293.8 317.8,296.8 318.0,297.5 318.2,295.9 318.4,296.4 318.5,294.0 318.7,297.5 318.9,296.1 319.1,295.5 319.2,293.7 319.4,295.7 319.6,296.5 319.7,295.3 319.9,295.0 320.1,296.1 320.2,293.1 320.4,294.0 320.6,294.5 320.8,295.0 320.9,293.7 321.1,296.6 321.3,292.0 321.4,294.7 321.6,293.7 321.8,296.2 322.0,296.0 322.1,296.4 322.3,292.9 322.5,295.6 322.6,297.3 322.8,296.3 323.0,295.4 323.1,299.1 323.3,292.2 323.5,293.7 323.7,294.2 323.8,297.3 324.0,296.3 324.2,297.4 324.3,296.8 324.5,295.2 324.7,295.3 324.8,295.2 325.0,295.1 325.2,295.4 325.4,295.1 325.5,296.4 325.7,296.1 325.9,292.1 326.0,294.2 326.2,295.7 326.4,296.6 326.5,298.3 326.7,295.2 326.9,292.0 327.1,292.2 327.2,292.8 327.4,296.1 327.6,296.3 327.7,294.8 327.9,295.4 328.1,294.7 328.3,297.0 328.4,295.7 328.6,298.0 328.8,295.6 328.9,296.4 329.1,297.3 329.3,295.8 329.5,293.3 329.6,295.4 329.8,298.9 330.0,295.1 330.1,294.9 330.3,297.0 330.5,293.9 330.7,295.2 330.8,297.3 331.0,294.9 331.2,294.6 331.3,295.7 331.5,294.6 331.7,296.9 331.8,295.7 332.0,296.6 332.2,295.2 332.4,296.0 332.5,297.7 332.7,296.5 332.9,295.0 333.0,300.0 333.2,294.8 333.4,296.2 333.5,295.5 333.7,292.4 333.9,295.2 334.1,293.5 334.2,295.3 334.4,295.3 334.6,292.6 334.7,296.4 334.9,295.3 335.1,298.7 335.3,294.7 335.4,293.8 335.6,296.0 335.8,297.9 335.9,295.4 336.1,294.5 336.3,296.8 336.4,294.8 336.6,295.7 336.8,293.0 336.9,295.9 337.1,296.9 337.3,293.9 337.5,297.4 337.6,295.8 337.8,298.3 338.0,297.6 338.1,296.8 338.3,295.2 338.5,296.3 338.7,294.9 338.8,292.6 339.0,294.7 339.2,298.8 339.3,296.0 339.5,296.0 339.7,295.8 339.8,295.2 340.0,298.0 340.2,294.6 340.4,294.2 340.5,296.2 340.7,295.4 340.9,290.8 341.0,294.2 341.2,293.8 341.4,297.4 341.5,295.0 341.7,294.9 341.9,297.5 342.0,296.4 342.2,292.8 342.4,297.4 342.6,299.8 342.7,295.0 342.9,296.1 343.1,294.8 343.2,294.6 343.4,292.2 343.6,296.1 343.8,298.5 343.9,294.3 344.1,296.1 344.3,297.6 344.4,295.4 344.6,295.4 344.8,297.6 344.9,295.0 345.1,296.4 345.3,296.4 345.5,295.2 345.6,296.1 345.8,294.1 346.0,297.6 346.1,296.6 346.3,299.0 346.5,296.3 346.7,297.8 346.8,299.4 347.0,297.5 347.2,296.1 347.3,297.2 347.5,296.3 347.7,294.3 347.8,295.7 348.0,297.6 348.2,297.2 348.4,297.2 348.5,294.9 348.7,296.9 348.9,296.3 349.0,294.1 349.2,295.2 349.4,295.9 349.5,295.8 349.7,297.8 349.9,295.4 350.1,297.6 350.2,296.7 350.4,298.8 350.6,295.3 350.7,295.0 350.9,297.3 351.1,297.6 351.3,297.7 351.4,296.5 351.6,295.1 351.8,296.2 351.9,292.6 352.1,295.2 352.3,295.3 352.4,295.9 352.6,296.4 352.8,299.0 353.0,298.1 353.1,295.4 353.3,293.8 353.5,293.0 353.6,298.1 353.8,297.6 354.0,295.6 354.2,297.8 354.3,297.8 354.5,294.9 354.7,295.4 354.8,295.9 355.0,294.8 355.2,298.8 355.3,295.4 355.5,294.9 355.7,296.4 355.9,297.2 356.0,296.9 356.2,297.2 356.4,296.1 356.5,295.6 356.7,298.2 356.9,297.5 357.0,296.4 357.2,297.6 357.4,297.6 357.6,293.4 357.7,295.4 357.9,295.2 358.1,293.0 358.3,296.6 358.4,299.7 358.6,297.0 358.8,294.5 358.9,299.2 359.1,296.1 359.3,293.3 359.4,296.1 359.6,300.6 359.8,296.6 360.0,296.8 360.1,297.3 360.3,295.2 360.5,296.9 360.6,296.0 360.8,296.6 361.0,298.2 361.2,299.5 361.3,297.5 361.5,296.6 361.7,300.4 361.8,294.8 362.0,298.1 362.2,297.3 362.3,295.2 362.5,295.3 362.7,296.1 362.9,297.1 363.1,298.3 363.2,294.6 363.4,297.8 363.6,297.3 363.8,297.2 363.9,293.3 364.1,298.7 364.3,297.8 364.4,298.4 364.6,296.8 364.8,296.1 365.0,296.2 365.1,296.4 365.3,292.4 365.5,296.8 365.6,298.0 365.8,299.6 366.0,298.8 366.2,299.0 366.3,298.6 366.5,298.0 366.7,296.6 366.8,299.4 367.0,294.7 367.2,294.2 367.4,298.2 367.5,295.7 367.7,294.3 367.9,296.3 368.0,295.6 368.2,296.7 368.4,295.9 368.5,294.6 368.7,294.9 368.9,296.2 369.1,297.0 369.2,297.5 369.4,298.3 369.6,297.5 369.7,297.5 369.9,296.4 370.1,297.0 370.3,296.7 370.4,298.1 370.6,296.2 370.8,298.2 370.9,297.0 371.1,295.0 371.3,293.9 371.4,299.8 371.6,298.6 371.8,300.3 372.0,295.9 372.1,296.8 372.3,296.7 372.5,296.5 372.6,293.8 372.8,298.3 373.0,299.3 373.2,297.5 373.3,298.6 373.5,296.3 373.7,296.5 373.8,297.0 374.0,297.1 374.2,297.7 374.4,299.6 374.5,298.0 374.7,295.0 374.9,299.0 375.0,296.8 375.2,298.6 375.4,298.0 375.5,295.1 375.7,296.8 375.9,295.4 376.1,299.1 376.2,298.0 376.4,295.5 376.6,298.1 376.7,298.1 376.9,298.6 377.1,294.1 377.3,296.8 377.4,297.4 377.6,299.1 377.8,296.5 377.9,296.1 378.1,298.4 378.3,298.9 378.5,297.0 378.6,294.7 378.8,298.7 379.0,297.9 379.1,296.8 379.3,296.6 379.5,294.6 379.6,297.3 379.8,298.4 380.0,295.4 380.2,294.3 380.3,294.3 380.5,300.2 380.7,297.0 380.8,296.0 381.0,296.3 381.2,296.2 381.4,296.5 381.5,298.6 381.7,295.2 381.9,298.8 382.0,294.1 382.2,296.5 382.4,296.6 382.5,296.3 382.7,297.6 382.9,297.7 383.1,295.4 383.2,296.8 383.4,295.9 383.6,296.6 383.7,298.0 383.9,297.0 384.1,296.9 384.2,297.7 384.4,297.7 384.6,298.5 384.8,294.8 384.9,297.1 385.1,296.3 385.3,297.2 385.4,296.7 385.6,298.4 385.8,297.7 386.0,298.4 386.1,297.7 386.3,296.4 386.5,296.2 386.6,297.8 386.8,297.1 387.0,297.7 387.1,295.4 387.3,299.5 387.5,296.7 387.7,300.0 387.8,297.5 388.0,296.1 388.2,298.2 388.3,297.3 388.5,297.2 388.7,298.7 388.9,298.5 389.0,298.7 389.2,296.3 389.4,293.8 389.5,295.3 389.7,297.7 389.9,296.0 390.0,295.8 390.2,296.7 390.4,296.2 390.6,299.2 390.7,297.1 390.9,295.5 391.1,296.9 391.2,295.9 391.4,296.8 391.6,295.8 391.8,296.7 391.9,298.1 392.1,296.3 392.3,294.7 392.4,300.0 392.6,299.2 392.8,295.5 393.0,297.3 393.1,295.8 393.3,297.9 393.5,298.2 393.6,297.1 393.8,299.9 394.0,294.9 394.1,296.5 394.3,296.8 394.5,298.1 394.7,299.1 394.8,297.3 395.0,297.8 395.2,298.9 395.3,296.9 395.5,294.7 395.7,297.2 395.9,295.9 396.0,296.7 396.2,299.0 396.4,299.8 396.5,299.2 396.7,296.5 396.9,295.3 397.1,296.5 397.2,295.1 397.4,295.6 397.6,297.6 397.7,296.6 397.9,294.7 398.1,295.0 398.3,296.6 398.4,297.5 398.6,299.6 398.8,298.6 398.9,300.4 399.1,301.0 399.3,299.3 399.4,301.8 399.6,299.0 399.8,297.7 400.0,295.7 400.1,300.3 400.3,296.8 400.5,299.9 400.6,298.6 400.8,297.5 401.0,296.8 401.1,295.5 401.3,298.1 401.5,298.5 401.7,296.7 401.8,297.5 402.0,297.5 402.2,296.8 402.3,296.7 402.5,299.7 402.7,297.5 402.8,295.8 403.0,298.3 403.2,295.0 403.3,297.8 403.5,299.3 403.7,299.8 403.9,296.9 404.0,296.8 404.2,298.8 404.4,296.7 404.5,299.3 404.7,297.0 404.9,297.5 405.1,299.9 405.2,298.4 405.4,299.8 405.6,296.2 405.7,295.8 405.9,298.0 406.1,297.0 406.2,297.6 406.4,300.5 406.6,298.5 406.8,296.0 406.9,298.3 407.1,299.3 407.3,296.1 407.4,298.3 407.6,298.0 407.8,296.6 408.0,296.1 408.1,296.0 408.3,295.7 408.5,296.8 408.6,294.7 408.8,298.9 409.0,297.0 409.1,296.9 409.3,297.4 409.5,296.7 409.7,298.7 409.8,300.2 410.0,298.2 410.2,298.7 410.3,297.4 410.5,299.5 410.7,297.8 410.8,296.6 411.0,298.3 411.2,296.7 411.4,298.5 411.5,298.4 411.7,296.1 411.9,299.4 412.0,298.7 412.2,297.2 412.4,296.7 412.5,297.7 412.7,296.9 412.9,298.3 413.1,296.0 413.2,297.5 413.4,296.9 413.6,297.2 413.7,296.1 413.9,299.3 414.1,298.5 414.2,297.1 414.4,296.4 414.6,298.7 414.8,297.7 414.9,299.4 415.1,296.1 415.3,298.1 415.4,293.3 415.6,294.6 415.8,298.7 415.9,297.0 416.1,294.4 416.3,298.3 416.5,296.0 416.6,298.0 416.8,299.1 417.0,298.8 417.1,296.4 417.3,295.8 417.5,300.5 417.6,297.0 417.8,296.5 418.0,296.4 418.2,296.4 418.3,299.0 418.5,296.7 418.7,299.0 418.8,298.5 419.0,295.7 419.2,297.2 419.3,298.5 419.5,297.9 419.7,299.3 419.9,296.6 420.0,300.6 420.2,299.2 420.4,295.9 420.5,299.6 420.7,293.9 420.9,295.7 421.0,298.5 421.2,297.3 421.4,299.1 421.6,298.3 421.7,298.6 421.9,299.7 422.1,299.0 422.2,295.7 422.4,298.4 422.6,294.8 422.8,297.6 422.9,295.2 423.1,299.1 423.3,296.8 423.5,297.2 423.6,296.7 423.8,297.0 424.0,298.4 424.1,300.0 424.3,296.7 424.5,292.9 424.7,298.4 424.8,296.3 425.0,298.1 425.2,297.8 425.3,296.5 425.5,297.0 425.7,302.0 425.9,297.2 426.0,299.6 426.2,299.0 426.4,297.9 426.5,297.4 426.7,296.7 426.9,299.0 427.1,300.1 427.2,300.9 427.4,299.1 427.6,294.9 427.8,299.1 427.9,298.7 428.1,297.0 428.3,295.9 428.4,296.0 428.6,298.4 428.8,298.8 429.0,299.1 429.1,298.6 429.3,296.5 429.5,299.8 429.7,295.8 429.8,298.4 430.0,297.0 430.2,299.3 430.3,294.5 430.5,299.5 430.7,298.6 430.9,295.7 431.0,297.7 431.2,298.7 431.4,298.3 431.5,300.1 431.7,298.1 431.9,298.9 432.1,296.1 432.2,299.6 432.4,296.2 432.6,296.2 432.7,299.3 432.9,297.1 433.1,300.1 433.3,295.4 433.4,297.1 433.6,298.6 433.8,298.5 433.9,300.2 434.1,300.0 434.3,299.0 434.5,297.6 434.6,300.4 434.8,296.1 435.0,297.1 435.1,295.9 435.3,297.1 435.5,297.9 435.7,297.7 435.8,295.6 436.0,295.8 436.2,299.0 436.3,297.5 436.5,298.7 436.7,296.9 436.9,298.8 437.0,300.7 437.2,299.3 437.4,298.0 437.5,298.6 437.7,300.2 437.9,297.5 438.0,299.5 438.2,301.8 438.4,299.0 438.6,300.2 438.7,299.8 438.9,296.0 439.1,299.8 439.2,296.0 439.4,295.6 439.6,299.4 439.8,301.5 439.9,299.1 440.1,297.7 440.3,297.2 440.4,295.5 440.6,298.4 440.8,299.7 441.0,292.4 441.1,300.5 441.3,295.6 441.5,297.5 441.6,297.7 441.8,300.4 442.0,300.2 442.1,299.4 442.3,299.2 442.5,299.2 442.7,297.7 442.8,299.6 443.0,298.4 443.2,296.9 443.3,298.3 443.5,294.3 443.7,300.0 443.9,298.5 444.0,298.5 444.2,301.2 444.4,299.7 444.5,299.1 444.7,299.8 444.9,296.9 445.1,299.5 445.2,300.6 445.4,299.8 445.6,300.2 445.8,296.7 445.9,296.3 446.1,297.5 446.3,294.1 446.4,298.0 446.6,300.0 446.8,297.0 446.9,297.6 447.1,294.8 447.3,300.0 447.5,299.1 447.6,300.2 447.8,298.5 448.0,300.3 448.2,296.5 448.3,299.2 448.5,297.4 448.7,299.0 448.8,296.5 449.0,295.8 449.2,297.2 449.4,296.0 449.5,297.9 449.7,297.6 449.9,300.9 450.0,298.6 450.2,298.1 450.4,301.6 450.6,298.3 450.7,297.8 450.9,296.8 451.1,297.7 451.2,298.2 451.4,297.4 451.6,299.4 451.8,298.4 451.9,300.2 452.1,295.2 452.3,300.3 452.4,296.5 452.6,300.1 452.8,296.7 453.0,301.2 453.1,298.4 453.3,299.5 453.5,298.6 453.6,298.8 453.8,297.1 454.0,298.5 454.2,296.2 454.3,298.3 454.5,298.7 454.7,299.6 454.8,298.3 455.0,296.0 455.2,297.3 455.4,299.3 455.5,296.1 455.7,297.4 455.9,298.6 456.0,300.3 456.2,301.3 456.4,297.4 456.6,301.1 456.7,298.6 456.9,297.6 457.1,297.8 457.2,293.6 457.4,299.2 457.6,294.5 457.8,296.1 457.9,298.6 458.1,298.0 458.3,296.9 458.4,298.5 458.6,297.3 458.8,299.5 459.0,300.9 459.1,298.3 459.3,300.2 459.5,297.9 459.6,296.7 459.8,299.4 460.0,296.1 460.2,299.1 460.3,298.3 460.5,297.4 460.7,293.3 460.8,298.6 461.0,301.1 461.2,298.3 461.4,298.9 461.5,298.3 461.7,298.4 461.9,299.6 462.0,297.6 462.2,298.0 462.4,301.1 462.6,294.3 462.7,299.3 462.9,297.6 463.1,297.9 463.2,296.4 463.4,298.8 463.6,296.1 463.8,298.9 463.9,298.2 464.1,299.0 464.3,298.2 464.5,297.0 464.6,297.0 464.8,298.2 465.0,299.5 465.1,299.1 465.3,300.5 465.5,295.6 465.7,299.3 465.8,299.6 466.0,299.3 466.2,299.8 466.3,298.8 466.5,297.6 466.7,299.8 466.9,297.1 467.0,297.7 467.2,295.9 467.4,301.2 467.5,299.7 467.7,300.6 467.9,300.8 468.1,299.2 468.2,296.7 468.4,298.7 468.6,296.0 468.8,298.6 468.9,297.1 469.1,296.7 469.3,299.0 469.4,298.0 469.6,296.4 469.8,298.6 470.0,298.8 470.1,299.7 470.3,298.3 470.5,300.7 470.7,296.6 470.8,297.1 471.0,302.0 471.2,295.6 471.3,298.5 471.5,300.3 471.7,300.1 471.9,299.6 472.0,298.2 472.2,300.4 472.4,299.4 472.6,299.6 472.7,297.4 472.9,296.6 473.1,300.9 473.2,298.5 473.4,299.8 473.6,295.6 473.8,296.7 473.9,295.0 474.1,297.5 474.3,298.4 474.4,298.0 474.6,300.1 474.8,300.6 475.0,299.3 475.1,299.7 475.3,300.6 475.5,299.6 475.6,299.7 475.8,299.6 476.0,299.6 476.2,298.0 476.3,296.9 476.5,297.8 476.7,299.8 476.8,297.4 477.0,296.2 477.2,301.2 477.4,302.8 477.5,297.7 477.7,298.7 477.9,299.8 478.1,302.7 478.2,296.3 478.4,299.2 478.6,298.9 478.7,298.0 478.9,297.0 479.1,300.5 479.3,300.3 479.4,296.5 479.6,298.2 479.8,298.1 479.9,300.3 480.1,300.7 480.3,300.1 480.5,298.4 480.6,298.0 480.8,300.0 481.0,298.5 481.1,299.0 481.3,297.6 481.5,299.0 481.7,296.5 481.8,297.7 482.0,300.1 482.2,301.4 482.4,300.1 482.5,299.0 482.7,301.3 482.9,299.3 483.0,299.4 483.2,299.7 483.4,300.0 483.6,300.1 483.7,300.0 483.9,296.8 484.1,298.4 484.2,298.4 484.4,298.8 484.6,299.6 484.8,300.4 484.9,299.8 485.1,297.8 485.3,302.2 485.4,299.4 485.6,296.1 485.8,301.4 485.9,297.6 486.1,297.6 486.3,300.3 486.5,298.3 486.6,296.7 486.8,300.2 487.0,300.0 487.1,303.4 487.3,296.8 487.5,297.2 487.7,299.7 487.8,298.7 488.0,298.6 488.2,296.2 488.3,299.8 488.5,298.9 488.7,297.9 488.9,297.6 489.0,298.4 489.2,299.6 489.4,299.4 489.5,301.4 489.7,300.3 489.9,299.2 490.1,296.2 490.2,300.4 490.4,301.5 490.6,296.6 490.8,298.4 490.9,295.4 491.1,298.7 491.3,301.0 491.4,296.3 491.6,299.7 491.8,296.7 492.0,298.6 492.1,299.4 492.3,297.2 492.5,299.6 492.6,300.2 492.8,296.2 493.0,300.3 493.2,298.6 493.3,300.5 493.5,302.9 493.7,299.1 493.8,296.8 494.0,298.6 494.2,296.4 494.4,302.4 494.5,300.3 494.7,296.9 494.9,298.6 495.1,297.4 495.2,301.7 495.4,295.0 495.6,296.4 495.7,297.0 495.9,299.3 496.1,302.0 496.3,300.7 496.4,302.6 496.6,296.3 496.8,298.4 496.9,300.1 497.1,298.5 497.3,299.5 497.5,299.0 497.6,298.4 497.8,296.2 498.0,301.1 498.1,302.2 498.3,296.9 498.5,298.9 498.7,299.3 498.8,299.0 499.0,299.1 499.2,300.3 499.3,299.7 499.5,299.3 499.7,296.6 499.9,300.0 500.0,299.5 500.2,298.1 500.4,301.9 500.5,295.5 500.7,297.3 500.9,301.4 501.0,297.6 501.2,302.1 501.4,298.2 501.6,295.9 501.7,298.9 501.9,299.2 502.1,298.9 502.3,296.5 502.4,297.2 502.6,297.9 502.8,299.1 502.9,298.6 503.1,298.1 503.3,300.2 503.5,300.3 503.6,296.9 503.8,300.5 504.0,299.6 504.2,299.1 504.3,297.6 504.5,297.2 504.7,301.2 504.8,299.9 505.0,295.5 505.2,300.8 505.4,300.5 505.5,296.9 505.7,299.8 505.9,298.4 506.0,297.0 506.2,301.5 506.4,298.4 506.5,299.1 506.7,299.2 506.9,297.3 507.1,298.5 507.2,299.9 507.4,299.7 507.6,299.2 507.8,297.7 507.9,300.8 508.1,298.6 508.3,299.7 508.4,299.7 508.6,300.2 508.8,298.4 509.0,301.9 509.1,298.2 509.3,296.9 509.5,299.2 509.6,299.4 509.8,300.3 510.0,295.5 510.2,299.1 510.3,297.9 510.5,298.7 510.7,296.7 510.8,297.5 511.0,301.7 511.2,299.9 511.3,299.5 511.5,302.5 511.7,300.1 511.9,298.8 512.0,298.7 512.2,298.3 512.4,298.8 512.6,300.5 512.7,296.2 512.9,300.4 513.1,299.9 513.2,298.4 513.4,301.5 513.6,299.4 513.8,298.9 513.9,300.2 514.1,301.2 514.3,299.1 514.4,299.3 514.6,296.2 514.8,299.9 515.0,295.4 515.1,299.6 515.3,298.2 515.5,299.6 515.6,297.3 515.8,298.7 516.0,300.9 516.2,300.0 516.3,296.2 516.5,302.7 516.7,298.3 516.9,300.5 517.0,296.5 517.2,300.6 517.4,302.7 517.5,302.5 517.7,302.1 517.9,297.9 518.0,298.2 518.2,300.1 518.4,300.2 518.6,298.9 518.7,297.9 518.9,299.6 519.1,298.5 519.2,297.9 519.4,299.8 519.6,301.0 519.8,301.1 519.9,298.6 520.1,300.3 520.3,300.6 520.4,300.3 520.6,299.7 520.8,298.5 521.0,300.8 521.1,299.4 521.3,299.5 521.5,296.7 521.6,296.7 521.8,299.9 522.0,297.7 522.2,299.0 522.3,303.2 522.5,300.7 522.7,296.8 522.8,297.1 523.0,299.1 523.2,298.6 523.3,301.1 523.5,298.6 523.7,299.2 523.9,298.5 524.0,299.5 524.2,298.9 524.4,297.5 524.6,301.1 524.7,302.5 524.9,298.6 525.1,298.3 525.2,299.8 525.4,300.5 525.6,300.1 525.8,299.3 525.9,299.1 526.1,299.1 526.3,300.8 526.4,301.0 526.6,299.5 526.8,296.9 527.0,297.6 527.1,301.4 527.3,298.3 527.5,299.9 527.6,302.6 527.8,299.2 528.0,299.7 528.2,299.8 528.3,301.4 528.5,295.6 528.7,298.1 528.9,298.2 529.0,300.4 529.2,299.6 529.4,300.6 529.5,298.2 529.7,300.1 529.9,299.5 530.1,299.0 530.2,300.7 530.4,297.1 530.6,300.7 530.7,299.4 530.9,298.6 531.1,300.7 531.3,300.0 531.4,300.0 531.6,298.4 531.8,298.1 531.9,297.0 532.1,295.9 532.3,298.3 532.5,297.1 532.6,300.0 532.8,298.6 533.0,302.1 533.1,303.6 533.3,302.3 533.5,298.6 533.7,299.7 533.8,298.8 534.0,299.1 534.2,299.0 534.3,299.7 534.5,299.3 534.7,300.9 534.9,297.4 535.0,301.0 535.2,299.5 535.4,302.3 535.5,296.7 535.7,297.6 535.9,301.2 536.0,300.5 536.2,299.3 536.4,297.0 536.6,301.9 536.7,298.7 536.9,296.3 537.1,301.7 537.2,301.3 537.4,298.0 537.6,298.9 537.8,302.0 537.9,300.8 538.1,299.1 538.3,300.2 538.4,299.2 538.6,300.1 538.8,298.9 539.0,298.7 539.1,302.2 539.3,300.4 539.5,300.6 539.6,298.4 539.8,298.5 540.0,301.7 540.2,298.0 540.3,296.1 540.5,299.4 540.7,297.1 540.8,299.4 541.0,297.3 541.2,300.6 541.4,302.4 541.5,297.4 541.7,300.6 541.9,298.6 542.0,300.5 542.2,298.3 542.4,302.4 542.5,302.1 542.7,297.7 542.9,301.9 543.1,299.6 543.2,298.9 543.4,299.5 543.6,298.1 543.7,300.5 543.9,302.0 544.1,301.0 544.3,302.0 544.4,298.1 544.6,300.3 544.8,300.4 544.9,301.6 545.1,298.0 545.3,301.0 545.5,300.4 545.6,301.0 545.8,297.6 546.0,301.5 546.1,300.7 546.3,302.4 546.5,300.5 546.6,296.8 546.8,300.3 547.0,299.4 547.2,296.5 547.3,298.8 547.5,298.0 547.7,298.5 547.8,296.9 548.0,299.0 548.2,300.2 548.4,300.2 548.5,299.1 548.7,302.2 548.9,297.6 549.1,297.9 549.2,297.8 549.4,301.3 549.6,301.2 549.7,299.5 549.9,300.9 550.1,299.0 550.3,298.8 550.4,300.2 550.6,301.7 550.8,299.4 550.9,300.9 551.1,297.3 551.3,300.9 551.5,297.0 551.6,298.7 551.8,300.2 552.0,299.7 552.1,302.1 552.3,297.0 552.5,301.9 552.7,298.9 552.8,299.2 553.0,299.7 553.2,299.6 553.3,300.6 553.5,302.7 553.7,297.5 553.8,302.9 554.0,301.2 554.2,296.1 554.4,298.3 554.5,301.7 554.7,300.1 554.9,298.8 555.1,299.0 555.2,297.4 555.4,299.7 555.6,297.9 555.8,299.6 555.9,299.5 556.1,299.3 556.3,300.2 556.4,298.8 556.6,299.7 556.8,297.0 556.9,302.6 557.1,301.4 557.3,298.2 557.5,299.5 557.6,297.5 557.8,298.0 558.0,298.2 558.1,297.9 558.3,303.1 558.5,299.7 558.6,302.9 558.8,298.6 559.0,299.9 559.2,298.6 559.3,302.1 559.5,302.3 559.7,299.8 559.8,300.4 560.0,301.4 560.2,297.7 560.4,299.6 560.5,302.2 560.7,299.5 560.9,298.9 561.0,301.1 561.2,301.2 561.4,299.8 561.5,300.4 561.7,300.3 561.9,300.6 562.1,302.0 562.2,296.5 562.4,300.3 562.6,298.8 562.7,300.2 562.9,300.0 563.1,301.2 563.2,300.0 563.4,298.7 563.6,302.2 563.8,302.4 563.9,297.2 564.1,298.8 564.3,299.0 564.4,299.6 564.6,299.9 564.8,299.2 565.0,298.7 565.1,299.3 565.3,302.7 565.5,302.3 565.6,298.8 565.8,296.3 566.0,300.0 566.2,297.3 566.3,298.0 566.5,299.1 566.7,298.5 566.8,299.7 567.0,297.2 567.2,299.6 567.3,301.8 567.5,297.6 567.7,300.7 567.9,298.5 568.0,298.3 568.2,299.1 568.4,302.4 568.5,301.3 568.7,300.8 568.9,300.6 569.1,297.3 569.2,298.0 569.4,297.8 569.6,301.9 569.7,299.3 569.9,298.9 570.1,300.4 570.3,301.3 570.4,300.6 570.6,299.8 570.8,301.9 570.9,300.5 571.1,298.9 571.3,297.8 571.5,301.5 571.6,296.2 571.8,299.6 572.0,299.2 572.1,297.6 572.3,301.1 572.5,299.9 572.7,299.4 572.8,297.7 573.0,303.3 573.2,300.8 573.3,299.2 573.5,299.1 573.7,299.4 573.9,293.2 574.0,299.3 574.2,298.1 574.4,296.9 574.5,299.6 574.7,300.4 574.9,298.4 575.0,298.1 575.2,300.6 575.4,299.9 575.6,297.9 575.7,298.7 575.9,304.3 576.1,300.6 576.2,300.1 576.4,296.3 576.6,297.0 576.8,298.3 576.9,304.3 577.1,304.0 577.3,298.8 577.4,298.2 577.6,299.7 577.8,298.6 578.0,302.4 578.1,299.4 578.3,299.3 578.5,297.3 578.6,299.0 578.8,297.6 579.0,300.3 579.2,299.9 579.3,300.3 579.5,300.8 579.7,301.5 579.8,301.8 580.0,300.4 580.2,301.2 580.4,298.7 580.5,296.1 580.7,302.2 580.9,300.9 581.0,299.3 581.2,300.9 581.4,300.9 581.5,300.2 581.7,303.1 581.9,300.8 582.1,301.8 582.2,301.4 582.4,300.6 582.6,301.0 582.7,300.1 582.9,301.2 583.1,296.7 583.3,299.0 583.4,299.0 583.6,300.3 583.8,299.1 583.9,301.3 584.1,297.2 584.3,300.6 584.5,298.4 584.6,299.8 584.8,299.8 585.0,300.4 585.1,299.5 585.3,302.2 585.5,297.4 585.6,300.1 585.8,301.1 586.0,300.9 586.2,304.0 586.3,298.4 586.5,297.4 586.7,299.6 586.8,301.4 587.0,300.9 587.2,302.8 587.4,300.1 587.5,300.2 587.7,303.4 587.9,298.6 588.1,297.4 588.2,298.1 588.4,298.3 588.6,298.0 588.7,298.3 588.9,298.1 589.1,302.0 589.3,301.7 589.4,299.7 589.6,302.6 589.8,297.4 589.9,301.2 590.1,298.8 590.3,299.2 590.4,301.3 590.6,299.4 590.8,298.3 591.0,300.8 591.1,298.7 591.3,297.2 591.5,301.7 591.6,297.6 591.8,300.3 592.0,299.7 592.2,299.4 592.3,300.1 592.5,299.7 592.7,299.1 592.8,299.9 593.0,299.1 593.2,301.5 593.4,299.1 593.5,301.0 593.7,299.6 593.9,303.0 594.1,298.8 594.2,298.9 594.4,302.7 594.6,299.2 594.7,297.9 594.9,302.5 595.1,298.2 595.3,298.4 595.4,301.2 595.6,300.5 595.8,298.8 595.9,299.6 596.1,300.4 596.3,301.1 596.5,299.9 596.6,297.7 596.8,297.8 597.0,301.4 597.1,296.0 597.3,300.9 597.5,299.9 597.6,302.5 597.8,300.8 598.0,302.9 598.2,299.4 598.3,299.6 598.5,303.0 598.7,300.3 598.8,299.9 599.0,299.2 599.2,299.4 599.4,300.1 599.5,301.0 599.7,298.4 599.9,298.3 600.0,296.7 600.2,302.7 600.4,298.5 600.6,297.2 600.7,300.0 600.9,301.3 601.1,301.0 601.2,299.5 601.4,304.3 601.6,300.6 601.8,301.4 601.9,299.1 602.1,298.1 602.3,300.4 602.4,299.1 602.6,301.9 602.8,298.4 602.9,299.0 603.1,299.6 603.3,302.2 603.5,302.1 603.6,302.5 603.8,299.8 604.0,301.9 604.1,300.7 604.3,298.2 604.5,300.5 604.7,302.9 604.8,300.4 605.0,299.9 605.2,301.7 605.3,300.4 605.5,301.4 605.7,297.3 605.9,298.0 606.0,299.7 606.2,299.3 606.4,298.6 606.5,301.3 606.7,300.5 606.9,300.1 607.0,299.0 607.2,302.4 607.4,301.4 607.6,299.4 607.7,297.1 607.9,300.4 608.1,299.8 608.2,299.2 608.4,301.3 608.6,297.4 608.8,300.6 608.9,298.2 609.1,298.1 609.3,301.3 609.4,300.9 609.6,299.5 609.8,302.3 610.0,299.5 610.1,300.1 610.3,300.4 610.5,302.8 610.6,300.8 610.8,298.9 611.0,299.0 611.1,300.2 611.3,298.8 611.5,303.6 611.7,300.0 611.8,300.4 612.0,300.1 612.2,298.4 612.3,302.0 612.5,301.6 612.7,298.6 612.9,304.2 613.0,301.5 613.2,299.5 613.4,297.6 613.5,301.7 613.7,300.2 613.9,300.9 614.1,297.3 614.2,302.0 614.4,300.4 614.6,304.0 614.7,302.0 614.9,299.4 615.1,300.2 615.3,300.1 615.4,300.0 615.6,298.0 615.8,298.8 615.9,297.8 616.1,300.9 616.3,297.6 616.5,298.5 616.6,297.5 616.8,300.0 617.0,299.6 617.1,302.2 617.3,302.0 617.5,299.4 617.7,303.7 617.8,298.4 618.0,300.7 618.2,298.6 618.3,300.1 618.5,299.5 618.7,296.5 618.9,300.4 619.0,295.5 619.2,301.9 619.4,301.0 619.6,298.3 619.7,301.7 619.9,304.1 620.1,301.2 620.3,303.3 620.4,300.1 620.6,302.7 620.8,300.7 620.9,302.4 621.1,300.5 621.3,299.6 621.5,298.5 621.6,300.0 621.8,297.8 622.0,301.3 622.2,303.2 622.3,300.8 622.5,300.6 622.7,302.9 622.8,301.9 623.0,297.4 623.2,299.9 623.3,299.1 623.5,302.0 623.7,299.0 623.9,303.2 624.0,301.1 624.2,298.8 624.4,303.4 624.6,298.5 624.7,296.7 624.9,300.8 625.1,302.9 625.2,301.4 625.4,301.8 625.6,300.6 625.8,299.9 625.9,299.6 626.1,300.8 626.3,302.8 626.4,299.8 626.6,300.6 626.8,303.3 626.9,298.9 627.1,300.6 627.3,302.0 627.5,297.6 627.6,298.4 627.8,302.8 628.0,300.4 628.1,299.4 628.3,305.7 628.5,297.0 628.7,300.7 628.8,300.0 629.0,300.1 629.2,299.4 629.4,300.9 629.5,300.3 629.7,300.2 629.9,302.3 630.0,299.1 630.2,298.0 630.4,301.2 630.6,301.8 630.7,303.8 630.9,300.2 631.1,303.4 631.2,303.4 631.4,302.7 631.6,301.1 631.8,300.3 631.9,298.9 632.1,300.4 632.3,300.6 632.4,302.1 632.6,301.8 632.8,298.8 633.0,300.2 633.1,297.3 633.3,300.3 633.5,299.9 633.6,300.2 633.8,297.6 634.0,297.3 634.2,298.7 634.3,298.3 634.5,299.3 634.7,303.6 634.9,301.3 635.0,300.7 635.2,297.9 635.4,302.1 635.5,298.7 635.7,302.4 635.9,301.6 636.1,301.1 636.2,300.3 636.4,300.1 636.6,302.6 636.7,304.2 636.9,300.9 637.1,303.7 637.3,300.2 637.4,303.7 637.6,301.9 637.8,298.8 637.9,298.5 638.1,300.9 638.3,300.4 638.5,298.5 638.6,301.6 638.8,303.1 639.0,300.1 639.1,301.4 639.3,299.4 639.5,301.6 639.7,301.1 639.8,299.1 640.0,300.7 640.2,303.2 640.3,301.7 640.5,301.8 640.7,301.1 640.9,301.6 641.0,299.6 641.2,303.2 641.4,300.9 641.6,302.0 641.7,301.2 641.9,298.6 642.1,300.5 642.2,301.5 642.4,298.6 642.6,298.6 642.8,302.7 642.9,301.1 643.1,302.5 643.3,298.6 643.5,300.1 643.6,302.2 643.8,301.4 644.0,301.9 644.1,300.8 644.3,302.6 644.5,300.0 644.7,301.9 644.8,302.4 645.0,304.1 645.2,298.7 645.3,301.3 645.5,301.6 645.7,299.5 645.9,297.6 646.0,302.1 646.2,299.8 646.4,301.0 646.5,298.7 646.7,303.6 646.9,301.6 647.1,300.4 647.2,298.3 647.4,301.4 647.6,300.2 647.7,302.9 647.9,301.9 648.1,301.8 648.3,300.2 648.4,299.7 648.6,300.6 648.8,302.4 649.0,296.3 649.1,299.7 649.3,298.7 649.5,303.0 649.6,301.0 649.8,298.7 650.0,299.5 650.2,301.5 650.3,298.0 650.5,300.1 650.7,300.0 650.8,298.3 651.0,299.5 651.2,301.3 651.4,301.8 651.5,298.9 651.7,302.4 651.9,302.8 652.0,301.7 652.2,303.7 652.4,302.1 652.6,300.4 652.7,295.7 652.9,296.7 653.1,300.7 653.3,300.3 653.4,297.8 653.6,300.1 653.8,301.3 653.9,300.5 654.1,301.8 654.3,300.4 654.4,297.4 654.6,301.0 654.8,297.6 655.0,303.5 655.1,301.2 655.3,298.5 655.5,305.3 655.7,301.0 655.8,298.8 656.0,299.0 656.2,300.0 656.3,302.7 656.5,299.7 656.7,302.1 656.9,302.0 657.0,301.9 657.2,297.7 657.4,300.9 657.5,301.1 657.7,299.6 657.9,299.9 658.1,300.5 658.2,302.0 658.4,299.3 658.6,298.0 658.8,300.5 658.9,300.2 659.1,302.2 659.3,299.3 659.4,300.0 659.6,298.6 659.8,300.7 660.0,302.8 660.1,301.7 660.3,301.7 660.5,305.6 660.6,300.0 660.8,297.9 661.0,299.8 661.2,299.5 661.3,304.0 661.5,301.5 661.7,299.3 661.8,299.6 662.0,299.2 662.2,300.6 662.4,298.4 662.5,301.4 662.7,299.4 662.9,302.1 663.1,301.2 663.2,300.6 663.4,300.6 663.6,299.2 663.7,302.9 663.9,301.2 664.1,300.6 664.3,299.3 664.4,298.9 664.6,302.3 664.8,301.1 664.9,300.5 665.1,302.3 665.3,301.1 665.5,300.7 665.6,299.7 665.8,298.7 666.0,300.9 666.1,299.4 666.3,301.4 666.5,298.8 666.7,300.5 666.8,303.4 667.0,299.3 667.2,302.1 667.3,300.5 667.5,298.7 667.7,298.6 667.9,299.7 668.0,303.6 668.2,299.2 668.4,299.0 668.6,303.0 668.7,303.4 668.9,305.8 669.1,300.5 669.2,298.8 669.4,302.0 669.6,301.1 669.8,301.5 669.9,298.7 670.1,301.3 670.3,300.1 670.4,302.7 670.6,297.9 670.8,301.0 671.0,301.1 671.1,299.0 671.3,298.4 671.5,301.7 671.6,301.5 671.8,301.3 672.0,297.7 672.2,299.1 672.3,300.2 672.5,296.8 672.7,300.4 672.8,302.7 673.0,301.1 673.2,300.0 673.4,297.5 673.5,301.8 673.7,300.0 673.9,300.2 674.0,301.2 674.2,300.7 674.4,299.7 674.6,303.6 674.7,301.8 674.9,301.9 675.1,301.0 675.3,299.0 675.4,304.5 675.6,300.7 675.8,300.6 675.9,299.6 676.1,300.6 676.3,298.7 676.5,297.6 676.6,303.7 676.8,300.4 677.0,300.7 677.1,303.0 677.3,301.2 677.5,303.8 677.7,301.6 677.8,302.4 678.0,301.6 678.2,299.8 678.3,298.8 678.5,299.3 678.7,300.4 678.9,303.1 679.0,302.5 679.2,302.6 679.4,298.6 679.6,299.3 679.7,302.1 679.9,297.7 680.1,301.4 680.2,301.4 680.4,298.3 680.6,301.8 680.8,297.5 680.9,299.5 681.1,299.7 681.3,305.4 681.4,302.6 681.6,299.0 681.8,302.2 682.0,302.3 682.1,303.2 682.3,301.2 682.5,300.3 682.7,299.9 682.8,298.3 683.0,300.3 683.2,300.9 683.3,301.4 683.5,299.6 683.7,300.0 683.9,303.0 684.0,303.4 684.2,300.4 684.4,302.9 684.5,300.8 684.7,301.4 684.9,301.1 685.1,301.8 685.2,300.1 685.4,303.1 685.6,301.1 685.7,302.8 685.9,302.4 686.1,300.6 686.3,300.5 686.4,301.2 686.6,302.3 686.8,302.0 686.9,303.2 687.1,301.2 687.3,300.1 687.5,302.5 687.6,302.4 687.8,299.2 688.0,298.2 688.1,299.5 688.3,300.1 688.5,300.9 688.7,299.8 688.8,299.6 689.0,300.7 689.2,300.7 689.3,300.0 689.5,303.1 689.7,300.7 689.9,299.4 690.0,297.0 690.2,296.1 690.4,300.5 690.5,303.0 690.7,303.3 690.9,296.6 691.1,302.7 691.2,299.0 691.4,304.3 691.6,302.6 691.7,304.7 691.9,301.2 692.1,300.7 692.3,301.1 692.4,303.5 692.6,301.2 692.8,299.4 692.9,299.6 693.1,298.3 693.3,301.3 693.5,300.4 693.6,303.4 693.8,301.9 694.0,300.6 694.1,303.7 694.3,302.9 694.5,300.5 694.7,300.4 694.8,299.5 695.0,303.6 695.2,301.6 695.3,298.6 695.5,299.0 695.7,300.9 695.9,298.3 696.0,299.6 696.2,297.0 696.4,303.8 696.5,301.7 696.7,302.1 696.9,302.1 697.1,301.6 697.2,298.5 697.4,301.5 697.6,300.6 697.7,300.2 697.9,304.7 698.1,299.8 698.3,301.6 698.4,301.5 698.6,299.7 698.8,296.7 698.9,300.3 699.1,301.1 699.3,301.9 699.5,296.2 699.6,300.0 699.8,298.3 700.0,297.1" fill="none" stroke="#2563eb" stroke-width="2"/>
<rect x="65" y="20" width="635" height="330" fill="none" stroke="#555" stroke-width="1.5"/>
<line x1="62" y1="308.5" x2="65" y2="308.5" stroke="#888" stroke-width="1"/>
<line x1="62" y1="260.0" x2="65" y2="260.0" stroke="#888" stroke-width="1"/>
<line x1="62" y1="199.0" x2="65" y2="199.0" stroke="#888" stroke-width="1"/>
<line x1="60" y1="116.3" x2="65" y2="116.3" stroke="#555" stroke-width="1.5"/>
<text x="57" y="116.3" text-anchor="end" dominant-baseline="middle" font-size="11" font-family="monospace,sans-serif">10</text>
<line x1="62" y1="33.5" x2="65" y2="33.5" stroke="#888" stroke-width="1"/>
<line x1="65.0" y1="350" x2="65.0" y2="355" stroke="#555" stroke-width="1.5"/>
<text x="65.0" y="368" text-anchor="middle" font-size="11" font-family="monospace,sans-serif">0</text>
<line x1="192.1" y1="350" x2="192.1" y2="355" stroke="#555" stroke-width="1.5"/>
<text x="192.1" y="368" text-anchor="middle" font-size="11" font-family="monospace,sans-serif">2</text>
<line x1="319.2" y1="350" x2="319.2" y2="355" stroke="#555" stroke-width="1.5"/>
<text x="319.2" y="368" text-anchor="middle" font-size="11" font-family="monospace,sans-serif">4</text>
<line x1="446.2" y1="350" x2="446.2" y2="355" stroke="#555" stroke-width="1.5"/>
<text x="446.2" y="368" text-anchor="middle" font-size="11" font-family="monospace,sans-serif">6</text>
<line x1="573.3" y1="350" x2="573.3" y2="355" stroke="#555" stroke-width="1.5"/>
<text x="573.3" y="368" text-anchor="middle" font-size="11" font-family="monospace,sans-serif">8</text>
<line x1="700.4" y1="350" x2="700.4" y2="355" stroke="#555" stroke-width="1.5"/>
<text x="700.4" y="368" text-anchor="middle" font-size="11" font-family="monospace,sans-serif">10</text>
<text x="382" y="392" text-anchor="middle" font-size="13" font-family="sans-serif">Runtime (minutes)</text>
<text transform="rotate(-90,16,185)" x="16" y="185" text-anchor="middle" font-size="13" font-family="sans-serif">Loss (log scale)</text>
<rect x="580" y="26" width="120" height="46" fill="white" fill-opacity="0.85" stroke="#ddd" stroke-width="1" rx="3"/>
<line x1="585" y1="37" x2="607" y2="37" stroke="#9ca3af" stroke-width="1.5" stroke-dasharray="5,3"/>
<text x="612" y="41" font-size="11" font-family="sans-serif">Baseline</text>
<line x1="585" y1="56" x2="607" y2="56" stroke="#2563eb" stroke-width="2"/>
<text x="612" y="60" font-size="11" font-family="sans-serif">Experiment</text>
</svg>