<svg xmlns="http://www.w3.org/2000/svg" viewBox="0 0 760 400" width="760" height="400" style="background:white">
<rect x="65" y="20" width="610" height="330" fill="#f9f9f9"/>
<line x1="65" y1="308.5" x2="675" y2="308.5" stroke="#ececec" stroke-width="1"/>
<line x1="65" y1="260.0" x2="675" y2="260.0" stroke="#ececec" stroke-width="1"/>
<line x1="65" y1="199.0" x2="675" y2="199.0" stroke="#ececec" stroke-width="1"/>
<line x1="65" y1="116.3" x2="675" y2="116.3" stroke="#ddd" stroke-width="1"/>
<line x1="65" y1="33.5" x2="675" y2="33.5" stroke="#ececec" stroke-width="1"/>
<line x1="65.0" y1="20" x2="65.0" y2="350" stroke="#ececec" stroke-width="1"/>
<line x1="187.1" y1="20" x2="187.1" y2="350" stroke="#ececec" stroke-width="1"/>
<line x1="309.2" y1="20" x2="309.2" y2="350" stroke="#ececec" stroke-width="1"/>
<line x1="431.3" y1="20" x2="431.3" y2="350" stroke="#ececec" stroke-width="1"/>
<line x1="553.3" y1="20" x2="553.3" y2="350" stroke="#ececec" stroke-width="1"/>
<line x1="675.4" y1="20" x2="675.4" y2="350" stroke="#ececec" stroke-width="1"/>
<line x1="65" y1="250.9" x2="675" y2="250.9" stroke="#2563eb" stroke-width="0.75" stroke-dasharray="3,3" opacity="0.4"/>
<polyline points="65.0,119.8 65.9,52.3 66.8,85.9 67.7,141.9 68.5,160.7 69.4,155.7 70.3,156.5 71.2,162.7 72.1,166.9 73.0,169.9 73.9,172.4 74.8,173.8 75.7,175.9 76.6,177.5 77.5,179.6 78.4,181.0 79.3,183.0 80.2,183.4 81.1,184.7 82.0,186.8 82.9,188.5 83.9,189.8 84.8,191.8 85.7,194.1 86.6,196.0 87.5,198.4 88.4,200.2 89.3,202.2 90.2,203.8 91.1,204.9 92.0,205.8 92.9,206.4 93.8,208.2 94.7,209.1 95.6,210.4 96.6,211.1 97.5,211.1 98.4,212.1 99.3,212.8 100.2,213.6 101.1,214.1 102.0,214.9 102.9,215.6 103.8,215.8 104.7,216.1 105.7,217.8 106.6,217.8 107.5,218.1 108.4,217.3 109.3,219.7 110.2,219.0 111.1,220.6 112.0,221.1 112.9,221.4 113.8,222.7 114.7,223.0 115.6,223.5 116.6,223.5 117.5,225.0 118.4,225.3 119.3,225.5 120.2,227.1 121.1,226.6 122.0,227.6 122.9,229.0 123.8,230.1 124.7,231.3 125.6,231.1 126.5,231.2 127.4,232.1 128.4,232.8 129.3,232.9 130.2,234.2 131.1,234.4 132.0,233.9 132.9,235.0 133.8,234.5 134.7,235.9 135.6,235.6 136.5,237.9 137.5,237.1 138.4,237.2 139.3,237.0 140.2,237.6 141.1,239.4 142.0,238.3 142.9,238.8 143.8,239.9 144.7,239.5 145.6,238.3 146.5,241.9 147.5,240.8 148.4,239.8 149.3,241.2 150.2,241.4 151.1,240.8 152.0,241.5 152.9,241.1 153.8,242.0 154.7,242.8 155.7,241.8 156.6,242.4 157.5,243.6 158.4,242.1 159.3,244.4 160.2,243.1 161.1,241.7 162.0,243.7 162.9,243.0 163.9,243.0 164.8,244.0 165.7,244.7 166.6,245.1 167.5,244.9 168.4,243.6 169.3,245.6 170.2,244.9 171.2,245.7 172.1,245.8 173.0,245.1 173.9,245.5 174.8,243.8 175.7,246.4 176.6,247.1 177.5,245.8 178.5,246.7 179.4,245.7 180.3,246.6 181.2,248.8 182.1,246.9 183.0,247.1 183.9,246.4 184.8,247.0 185.8,247.1 186.7,246.9 187.6,248.4 188.5,248.5 189.4,247.2 190.3,248.2 191.2,247.3 192.1,248.0 193.1,248.8 194.0,248.7 194.9,249.3 195.8,249.8 196.7,249.9 197.6,248.7 198.5,248.9 199.4,249.4 200.4,249.8 201.3,250.6 202.2,250.9 203.1,250.6 204.0,250.6 204.9,250.7 205.8,251.2 206.7,250.9 207.6,251.7 208.5,251.1 209.5,251.6 210.4,250.5 211.3,251.8 212.2,252.9 213.1,252.1 214.0,251.4 214.9,252.8 215.8,254.1 216.7,252.1 217.6,254.1 218.5,252.5 219.4,253.2 220.3,252.9 221.3,253.3 222.2,252.9 223.1,253.1 224.0,253.1 224.9,254.8 225.8,253.9 226.7,254.3 227.6,254.1 228.5,255.1 229.5,254.1 230.4,255.0 231.3,254.9 232.2,255.5 233.1,255.8 234.0,255.4 234.9,255.2 235.8,255.8 236.7,256.6 237.7,254.9 238.6,257.0 239.5,257.0 240.4,257.3 241.3,256.6 242.2,256.1 243.1,257.7 244.0,257.0 244.9,256.8 245.9,257.0 246.8,257.4 247.7,260.1 248.6,257.3 249.5,259.1 250.4,258.5 251.3,260.0 252.2,258.0 253.2,259.1 254.1,258.2 255.0,258.5 255.9,260.0 256.8,259.8 257.7,259.5 258.6,258.8 259.5,260.4 260.4,261.4 261.3,259.1 262.2,259.4 263.1,259.9 264.0,260.1 264.9,260.3 265.8,260.0 266.7,260.6 267.6,259.9 268.5,261.4 269.4,260.4 270.3,261.5 271.2,261.4 272.2,261.2 273.1,261.8 274.0,261.4 274.9,261.4 275.8,261.1 276.7,262.3 277.6,262.9 278.5,261.9 279.4,262.9 280.3,264.3 281.2,262.7 282.1,263.3 283.0,261.5 283.9,263.0 284.8,263.4 285.7,262.7 286.6,264.2 287.5,264.5 288.4,262.7 289.4,263.4 290.3,262.3 291.2,263.0 292.1,263.5 293.0,261.0 293.9,264.5 294.8,263.5 295.7,263.4 296.6,264.1 297.5,264.0 298.4,263.6 299.3,265.3 300.2,266.6 301.1,265.4 302.0,263.5 302.9,264.7 303.8,266.3 304.7,264.6 305.6,264.9 306.5,265.2 307.4,263.7 308.3,265.0 309.2,264.3 310.2,264.3 311.1,262.9 312.0,265.6 312.9,265.4 313.8,265.0 314.7,265.2 315.6,265.2 316.5,264.8 317.4,265.8 318.3,266.4 319.2,264.3 320.2,267.2 321.1,263.6 322.0,267.2 322.9,264.4 323.8,265.9 324.7,266.3 325.6,267.2 326.5,264.2 327.4,265.3 328.3,267.0 329.2,267.6 330.2,267.6 331.1,265.1 332.0,268.2 332.9,266.4 333.8,266.4 334.7,266.9 335.6,266.8 336.5,267.2 337.4,267.6 338.3,268.1 339.2,267.0 340.1,267.1 341.0,267.3 341.9,268.4 342.8,267.3 343.7,268.7 344.7,267.0 345.6,267.8 346.5,267.1 347.4,269.2 348.3,268.7 349.2,267.8 350.1,269.7 351.0,268.7 351.9,268.7 352.8,268.8 353.7,267.1 354.6,268.8 355.5,268.7 356.5,268.7 357.4,267.2 358.3,267.2 359.2,267.5 360.1,268.8 361.0,269.4 361.9,269.2 362.8,269.6 363.7,268.0 364.6,267.7 365.5,269.2 366.4,269.0 367.3,268.5 368.3,266.7 369.2,268.0 370.1,269.3 371.0,269.6 371.9,269.3 372.8,269.6 373.7,269.0 374.6,268.1 375.5,269.0 376.4,268.2 377.3,269.1 378.2,270.6 379.2,267.9 380.1,268.9 381.0,270.2 381.9,270.0 382.8,269.0 383.7,268.8 384.6,270.4 385.5,268.3 386.4,270.8 387.3,270.7 388.2,269.5 389.1,271.0 390.0,271.0 390.9,271.1 391.9,269.2 392.8,272.3 393.7,270.0 394.6,271.1 395.5,269.3 396.4,267.4 397.3,270.8 398.2,270.3 399.1,272.6 400.0,270.0 400.9,270.1 401.9,269.6 402.8,270.8 403.7,271.8 404.6,272.5 405.5,269.3 406.4,270.3 407.3,271.5 408.2,270.6 409.1,273.1 410.0,271.7 410.9,269.1 411.8,269.7 412.7,270.7 413.6,272.0 414.6,272.5 415.5,271.3 416.4,270.7 417.3,271.4 418.2,270.0 419.1,270.3 420.0,272.3 420.9,270.7 421.8,270.6 422.7,271.3 423.7,269.8 424.6,271.0 425.5,272.8 426.4,270.2 427.3,272.2 428.2,271.8 429.1,271.0 430.0,272.8 430.9,270.8 431.8,272.9 432.7,271.8 433.6,272.7 434.5,271.4 435.4,271.9 436.3,271.1 437.3,270.9 438.2,270.0 439.1,271.7 440.0,271.3 440.9,270.5 441.8,271.7 442.7,272.6 443.6,273.3 444.5,272.2 445.4,272.8 446.3,273.4 447.3,271.5 448.2,271.9 449.1,271.4 450.0,272.0 450.9,271.9 451.8,270.8 452.7,272.8 453.6,271.2 454.5,270.2 455.4,273.4 456.3,270.9 457.2,271.9 458.1,272.8 459.0,271.7 460.0,273.1 460.9,274.0 461.8,272.7 462.7,273.3 463.6,271.2 464.5,272.4 465.4,272.9 466.3,273.2 467.2,272.7 468.1,273.3 469.0,272.3 469.9,272.9 470.9,273.8 471.8,273.6 472.7,272.7 473.6,270.7 474.5,272.9 475.4,274.7 476.3,271.2 477.2,274.6 478.1,274.7 479.0,273.1 479.9,275.3 480.9,271.3 481.8,273.6 482.7,273.4 483.6,272.5 484.5,273.6 485.4,271.4 486.3,272.7 487.2,274.0 488.1,273.9 489.0,272.7 489.9,274.6 490.8,274.3 491.7,273.1 492.6,273.5 493.5,274.6 494.5,273.5 495.4,272.8 496.3,273.6 497.2,274.5 498.1,272.4 499.0,273.3 499.9,273.3 500.8,270.9 501.7,273.3 502.6,272.7 503.5,273.1 504.4,272.8 505.3,274.8 506.3,274.7 507.2,274.2 508.1,276.2 509.0,271.7 509.9,273.5 510.8,273.2 511.7,274.0 512.6,274.5 513.5,274.5 514.4,274.0 515.3,274.4 516.2,274.2 517.2,272.8 518.1,274.5 519.0,271.4 519.9,273.0 520.8,272.7 521.7,274.1 522.6,274.7 523.5,272.6 524.4,272.0 525.3,274.4 526.2,273.8 527.1,273.1 528.0,273.3 529.0,275.3 529.9,274.8 530.8,274.1 531.7,274.3 532.6,274.1 533.5,273.7 534.4,273.1 535.3,274.1 536.2,276.4 537.1,275.3 538.0,275.6 538.9,276.9 539.8,273.7 540.7,276.7 541.6,276.2 542.6,275.1 543.5,275.9 544.4,275.4 545.3,274.7 546.2,274.2 547.1,274.7 548.0,274.2 548.9,274.9 549.8,275.9 550.7,276.2 551.6,273.7 552.5,275.0 553.4,273.3 554.3,275.8 555.2,273.9 556.2,276.8 557.1,273.7 558.0,274.2 558.9,273.3 559.8,275.1 560.7,274.9 561.6,275.0 562.5,274.3 563.4,274.6 564.3,275.3 565.2,275.9 566.1,274.7 567.1,276.4 568.0,273.7 568.9,275.2 569.8,275.2 570.7,273.0 571.6,276.4 572.5,278.0 573.4,275.9 574.3,276.8 575.2,276.2 576.1,277.2 577.0,276.2 577.9,274.6 578.8,275.6 579.8,276.3 580.7,275.2 581.6,276.5 582.5,276.3 583.4,275.9 584.3,276.3 585.3,276.4 586.2,274.4 587.1,277.2 588.0,276.8 588.9,274.2 589.8,278.1 590.7,275.1 591.6,277.3 592.5,274.7 593.4,275.6 594.3,275.0 595.3,274.3 596.2,275.9 597.1,275.5 598.0,275.5 598.9,277.4 599.8,277.0 600.7,275.2 601.6,275.3 602.5,276.0 603.4,275.4 604.3,276.6 605.2,278.5 606.1,276.9 607.1,276.7 608.0,273.9 608.9,275.4 609.8,279.5 610.7,277.9 611.6,277.7 612.5,276.2 613.4,277.4 614.3,276.1 615.2,277.7 616.1,277.1 617.0,276.3 617.9,275.2 618.8,279.7 619.7,278.3 620.6,275.4 621.5,277.0 622.5,276.9 623.4,275.9 624.3,277.9 625.2,275.3 626.1,275.7 627.0,276.8 627.9,276.6 628.8,276.8 629.7,279.1 630.6,277.9 631.5,275.0 632.4,278.4 633.3,277.6 634.2,275.4 635.1,278.9 636.0,276.4 637.0,279.3 637.9,276.9 638.8,275.9 639.7,276.9 640.6,279.1 641.5,276.2 642.4,278.5 643.3,276.6 644.2,276.2 645.1,278.0 646.0,275.3 646.9,277.4 647.8,275.3 648.7,276.5 649.6,279.1 650.5,278.8 651.4,276.1 652.3,278.3 653.2,277.7 654.1,278.0 655.1,278.0 656.0,277.8 656.9,276.0 657.8,278.1 658.7,277.4 659.6,275.9 660.5,278.5 661.4,277.5 662.3,275.7 663.2,278.4 664.1,276.5 665.0,277.0 665.9,278.3 666.8,276.2 667.7,277.4 668.6,279.2 669.6,277.8 670.5,279.6 671.4,276.1 672.3,278.8 673.2,277.6 674.1,279.0 675.0,276.3" fill="none" stroke="#64748b" stroke-width="1.5" stroke-dasharray="5,3"/>
<polyline points="65.0,119.1 65.9,52.8 66.8,86.3 67.7,142.6 68.6,160.3 69.5,152.9 70.3,155.2 71.2,161.4 72.1,166.1 73.0,168.7 73.9,171.7 74.8,173.7 75.7,175.4 76.6,177.6 77.5,179.3 78.4,180.5 79.3,182.5 80.2,183.8 81.2,184.4 82.0,185.6 83.0,187.3 83.9,188.6 84.8,191.0 85.7,193.4 86.6,195.0 87.5,196.6 88.4,199.1 89.3,200.2 90.2,201.5 91.1,203.5 92.0,203.9 92.9,205.9 93.8,206.6 94.7,207.4 95.6,208.6 96.6,209.1 97.5,210.7 98.4,211.6 99.3,212.0 100.2,213.0 101.1,213.3 102.0,214.1 102.9,214.6 103.8,215.1 104.7,216.0 105.6,218.0 106.5,217.7 107.4,216.5 108.4,218.6 109.3,219.4 110.2,220.1 111.1,221.8 112.0,221.6 112.9,222.2 113.8,221.9 114.7,223.8 115.7,224.2 116.6,225.4 117.5,225.1 118.4,225.7 119.3,225.8 120.2,227.6 121.1,228.2 122.0,228.7 122.9,228.3 123.8,229.4 124.7,230.4 125.6,229.9 126.5,231.4 127.4,232.6 128.3,231.5 129.2,232.4 130.1,233.8 131.1,233.6 132.0,234.0 132.9,233.8 133.8,235.5 134.7,234.3 135.6,235.3 136.5,235.5 137.4,235.4 138.3,236.8 139.2,236.7 140.1,237.3 141.0,237.1 141.9,237.3 142.8,239.0 143.7,238.7 144.6,238.0 145.5,238.9 146.4,239.0 147.3,238.5 148.2,240.5 149.2,239.6 150.1,239.3 151.0,239.8 151.9,240.1 152.8,240.9 153.7,240.3 154.6,241.6 155.5,240.0 156.4,241.7 157.3,241.4 158.2,241.7 159.1,241.6 160.0,241.5 160.9,242.2 161.8,243.3 162.7,242.6 163.6,243.0 164.5,242.6 165.4,242.5 166.3,242.6 167.2,243.5 168.1,244.1 169.0,243.4 170.0,245.4 170.9,244.6 171.8,244.1 172.7,244.8 173.6,244.0 174.5,245.2 175.4,244.2 176.3,246.5 177.2,244.1 178.1,244.7 179.0,244.9 179.9,247.2 180.8,245.0 181.7,245.2 182.6,245.2 183.5,246.3 184.4,245.8 185.4,246.2 186.3,247.2 187.2,246.3 188.1,245.6 189.0,246.1 189.9,247.2 190.8,246.8 191.7,247.6 192.6,247.5 193.5,247.0 194.4,247.1 195.3,247.1 196.2,248.1 197.1,248.1 198.0,248.8 198.9,248.2 199.8,248.2 200.8,247.7 201.6,248.1 202.6,248.1 203.5,249.5 204.4,248.1 205.3,249.0 206.2,248.7 207.1,250.2 208.0,249.1 208.9,250.3 209.8,249.4 210.7,250.3 211.6,249.7 212.5,250.8 213.4,250.8 214.3,248.8 215.2,251.2 216.1,251.1 217.0,251.2 217.9,250.7 218.8,251.3 219.7,251.4 220.6,250.9 221.5,250.6 222.5,250.3 223.4,251.4 224.3,251.1 225.2,251.9 226.1,250.7 227.0,252.0 227.9,252.3 228.8,252.1 229.7,252.9 230.6,251.6 231.5,253.0 232.4,254.4 233.3,252.4 234.2,252.2 235.1,251.7 236.0,254.2 236.9,253.1 237.8,253.9 238.7,255.0 239.6,253.7 240.5,253.9 241.4,254.0 242.3,254.2 243.2,253.7 244.1,255.1 245.0,254.8 245.9,254.6 246.8,254.8 247.7,255.6 248.6,255.0 249.5,254.0 250.5,255.0 251.4,253.7 252.3,254.1 253.2,254.3 254.1,254.8 255.0,255.4 255.9,257.0 256.8,255.7 257.7,255.9 258.6,255.2 259.5,258.5 260.4,255.9 261.3,257.5 262.2,257.4 263.1,255.0 264.1,256.9 265.0,257.5 265.9,256.1 266.8,256.4 267.7,258.3 268.6,255.7 269.5,256.9 270.4,257.6 271.3,257.5 272.2,258.3 273.1,259.4 274.0,258.0 274.9,257.0 275.8,259.3 276.7,260.0 277.6,257.9 278.5,257.9 279.4,258.0 280.3,259.9 281.3,258.3 282.2,258.6 283.1,259.2 284.0,260.2 284.9,260.1 285.8,258.1 286.7,259.1 287.6,258.8 288.5,260.8 289.4,260.5 290.3,259.7 291.3,259.9 292.2,261.8 293.1,261.7 294.0,260.9 294.9,259.3 295.8,260.4 296.7,259.9 297.6,259.9 298.5,259.8 299.4,260.8 300.3,260.2 301.2,261.8 302.1,259.3 303.0,260.5 303.9,260.9 304.8,261.1 305.7,261.8 306.7,261.0 307.6,261.4 308.5,260.1 309.4,261.3 310.3,261.6 311.2,262.5 312.1,261.2 313.0,261.2 313.9,262.8 314.8,260.2 315.7,261.4 316.6,262.3 317.5,262.6 318.4,264.0 319.3,262.2 320.2,260.6 321.1,262.8 322.0,263.6 322.9,261.3 323.8,265.0 324.7,262.2 325.6,262.7 326.5,262.8 327.4,261.9 328.3,263.5 329.2,262.8 330.2,264.1 331.1,263.3 332.0,263.2 332.9,264.0 333.8,264.4 334.7,263.0 335.6,264.6 336.5,263.9 337.4,263.7 338.3,262.9 339.2,263.2 340.1,263.0 341.0,265.5 341.9,263.2 342.8,263.9 343.7,263.1 344.6,262.6 345.6,264.9 346.5,265.4 347.4,264.6 348.3,265.5 349.2,263.5 350.1,264.8 351.0,264.6 351.9,264.7 352.8,265.5 353.7,264.1 354.6,265.9 355.5,265.7 356.4,266.0 357.3,265.0 358.2,266.1 359.1,265.7 360.0,263.8 361.0,267.6 361.9,264.6 362.7,265.5 363.6,262.7 364.6,267.1 365.5,266.6 366.4,264.6 367.3,265.3 368.2,266.3 369.1,267.2 370.0,266.0 370.9,266.6 371.8,267.3 372.7,266.0 373.6,267.4 374.5,265.9 375.4,266.3 376.3,265.1 377.2,266.5 378.1,267.8 379.0,266.7 379.9,265.9 380.8,267.5 381.7,267.5 382.6,266.2 383.6,266.8 384.5,267.1 385.4,268.3 386.3,266.6 387.2,266.3 388.1,265.0 389.0,267.3 389.9,267.3 390.8,266.7 391.7,266.3 392.6,267.2 393.5,267.8 394.4,265.7 395.3,265.5 396.2,267.3 397.1,266.5 398.0,266.7 398.9,266.9 399.8,266.6 400.7,266.7 401.6,267.5 402.5,266.9 403.4,268.7 404.4,267.8 405.3,268.2 406.2,267.8 407.1,268.5 408.0,268.8 408.9,267.7 409.8,268.4 410.7,269.0 411.6,268.7 412.5,267.5 413.4,268.7 414.3,269.5 415.2,268.7 416.2,269.0 417.1,267.9 418.0,268.5 418.9,269.0 419.8,269.2 420.7,268.1 421.6,267.7 422.5,269.4 423.4,268.4 424.3,267.3 425.2,268.9 426.1,269.8 427.0,267.4 427.9,269.0 428.9,268.6 429.8,268.9 430.7,268.3 431.6,268.6 432.5,269.0 433.4,270.2 434.3,270.7 435.2,269.4 436.1,268.3 437.0,269.3 437.9,269.5 438.8,270.0 439.7,270.0 440.6,270.3 441.5,268.0 442.4,270.5 443.3,270.0 444.2,269.5 445.1,270.1 446.0,269.5 447.0,269.1 447.9,271.9 448.8,270.6 449.7,269.5 450.6,270.3 451.5,270.3 452.4,269.2 453.3,270.6 454.2,268.7 455.1,269.2 456.0,270.1 456.9,269.6 457.8,268.0 458.7,270.6 459.6,271.4 460.5,269.7 461.4,272.4 462.3,270.4 463.2,269.6 464.1,270.1 465.0,268.0 465.9,270.6 466.8,273.7 467.7,270.3 468.6,269.9 469.5,272.1 470.4,269.5 471.3,270.4 472.2,271.5 473.1,270.5 474.1,271.2 475.0,269.6 475.9,270.6 476.8,272.2 477.7,271.4 478.6,270.1 479.5,270.3 480.4,270.8 481.3,272.1 482.2,271.0 483.1,272.7 484.0,271.4 484.9,271.4 485.8,271.4 486.7,271.4 487.6,271.5 488.5,270.8 489.4,270.0 490.3,271.2 491.3,272.1 492.2,272.6 493.1,271.8 494.0,269.7 494.9,270.9 495.8,271.5 496.7,272.5 497.6,272.4 498.5,272.7 499.4,269.2 500.3,273.6 501.2,274.4 502.1,270.0 503.0,272.8 503.9,272.0 504.9,271.7 505.8,273.2 506.7,270.6 507.6,270.1 508.5,273.9 509.4,272.4 510.3,271.7 511.2,273.1 512.1,271.2 513.0,271.6 513.9,271.5 514.8,270.7 515.7,273.4 516.6,272.4 517.5,271.5 518.5,272.4 519.4,273.0 520.3,273.7 521.2,272.3 522.1,272.7 523.0,271.0 523.9,274.2 524.8,271.4 525.7,271.4 526.6,273.8 527.5,269.7 528.4,273.1 529.3,272.5 530.2,272.2 531.2,272.8 532.1,270.6 533.0,272.1 533.9,272.1 534.8,272.5 535.7,272.7 536.6,272.3 537.5,272.2 538.4,273.0 539.3,273.9 540.2,272.2 541.1,273.9 542.0,271.4 542.9,273.0 543.9,271.6 544.8,273.8 545.7,273.9 546.6,273.3 547.5,271.9 548.4,273.3 549.3,273.8 550.2,272.8 551.1,273.3 552.0,272.7 552.9,274.0 553.8,274.0 554.7,274.0 555.6,275.0 556.5,272.5 557.4,272.8 558.3,273.6 559.2,272.7 560.1,275.8 561.1,273.1 562.0,273.2 562.9,273.2 563.8,275.2 564.7,274.5 565.6,272.5 566.5,274.4 567.4,273.0 568.3,274.1 569.2,275.7 570.1,273.5 571.0,274.9 571.9,273.3 572.8,275.0 573.7,271.9 574.6,273.8 575.5,273.4 576.4,272.9 577.3,273.8 578.2,273.5 579.1,274.1 580.0,273.7 581.0,274.4 581.9,274.9 582.8,273.0 583.8,274.7 584.7,273.9 585.6,274.1 586.5,272.4 587.4,273.6 588.3,275.6 589.3,274.6 590.2,273.4 591.1,273.0 592.0,275.9 592.9,274.0 593.8,276.4 594.7,273.8 595.6,274.9 596.5,275.6 597.4,275.9 598.3,274.5 599.2,274.2 600.1,275.1 601.1,274.7 602.0,275.6 602.9,275.4 603.8,276.1 604.7,275.5 605.6,276.1 606.5,275.9 607.4,274.0 608.3,273.8 609.2,275.2 610.1,274.3 611.0,274.0 611.9,274.4 612.8,274.9 613.7,275.2 614.7,274.2 615.6,274.7 616.5,275.2 617.4,273.0 618.3,273.4 619.2,275.5 620.1,274.7 621.0,273.7 621.9,276.5 622.8,275.4 623.7,274.0 624.6,276.5 625.5,275.2 626.4,274.7 627.3,274.9 628.3,276.1 629.2,275.8 630.1,275.5 631.0,277.0 631.9,275.3 632.8,274.6 633.7,274.2 634.6,275.8 635.5,276.3 636.4,275.0 637.4,274.7 638.3,276.2 639.2,274.7 640.1,274.4 641.0,274.1 641.9,276.8 642.8,273.7 643.7,273.8 644.6,277.2 645.5,276.5 646.4,275.4 647.3,277.9 648.2,276.1 649.2,275.3 650.1,276.7 651.0,275.3 651.9,278.4 652.8,275.1 653.7,275.0 654.6,275.7 655.5,275.0 656.4,276.2 657.3,276.3 658.2,277.3 659.2,277.7 660.1,276.5 661.0,276.8 661.9,274.3 662.8,275.4 663.7,274.9 664.6,276.0 665.5,278.7 666.4,276.6 667.3,274.9 668.2,277.4 669.1,275.1 670.0,276.1 671.0,276.0 671.9,275.8 672.8,277.4 673.7,276.3 674.6,276.1" fill="none" stroke="#16a34a" stroke-width="1.5"/>
<polyline points="65.0,186.7 65.9,269.7 66.8,196.9 67.7,277.8 68.6,228.5 69.5,42.8 70.3,151.5 71.2,155.5 72.1,193.4 73.0,170.6 73.9,201.5 74.8,239.3 75.7,213.0 76.6,253.1 77.5,228.6 78.4,219.6 79.3,223.5 80.2,270.8 81.2,230.1 82.0,186.4 83.0,186.1 83.9,180.5 84.8,207.0 85.7,211.3 86.6,193.8 87.5,157.5 88.4,194.9 89.3,153.9 90.2,137.1 91.1,184.0 92.0,159.1 92.9,222.9 93.8,177.7 94.7,174.1 95.6,166.4 96.6,154.5 97.5,232.9 98.4,227.8 99.3,214.1 100.2,224.8 101.1,215.0 102.0,218.1 102.9,207.5 103.8,218.2 104.7,248.5 105.6,260.3 106.5,246.8 107.4,183.5 108.4,307.3 109.3,239.2 110.2,296.8 111.1,303.3 112.0,271.8 112.9,285.8 113.8,216.1 114.7,286.3 115.7,280.1 116.6,327.2 117.5,253.3 118.4,266.6 119.3,263.1 120.2,271.0 121.1,312.7 122.0,294.9 122.9,225.2 123.8,221.7 124.7,217.6 125.6,203.5 126.5,256.6 127.4,272.2 128.3,199.0 129.2,232.6 130.1,237.4 131.1,220.1 132.0,252.6 132.9,207.3 133.8,285.6 134.7,192.0 135.6,238.7 136.5,168.9 137.4,185.6 138.3,238.2 139.2,236.9 140.1,241.6 141.0,175.2 141.9,212.1 142.8,261.0 143.7,210.2 144.6,196.6 145.5,266.5 146.4,162.4 147.3,163.0 148.2,270.3 149.2,199.2 150.1,174.4 151.0,211.4 151.9,203.6 152.8,243.4 153.7,194.8 154.6,216.1 155.5,180.5 156.4,230.3 157.3,182.7 158.2,224.1 159.1,169.9 160.0,183.3 160.9,258.1 161.8,255.5 162.7,228.5 163.6,251.4 164.5,211.9 165.4,181.7 166.3,167.1 167.2,200.7 168.1,254.9 169.0,198.3 170.0,259.5 170.9,223.4 171.8,191.7 172.7,229.2 173.6,202.1 174.5,278.9 175.4,209.6 176.3,239.0 177.2,174.0 178.1,194.9 179.0,208.2 179.9,284.0 180.8,153.3 181.7,166.7 182.6,188.5 183.5,234.6 184.4,218.7 185.4,222.4 186.3,258.8 187.2,201.9 188.1,152.5 189.0,193.1 189.9,233.0 190.8,220.1 191.7,249.5 192.6,221.8 193.5,193.6 194.4,186.3 195.3,170.7 196.2,192.6 197.1,208.2 198.0,252.2 198.9,221.0 199.8,204.5 200.8,170.5 201.6,164.3 202.6,162.1 203.5,217.3 204.4,167.4 205.3,186.6 206.2,173.0 207.1,215.3 208.0,171.5 208.9,219.6 209.8,192.7 210.7,227.7 211.6,169.9 212.5,194.1 213.4,215.5 214.3,148.8 215.2,181.5 216.1,176.6 217.0,200.3 217.9,156.3 218.8,205.8 219.7,194.5 220.6,180.7 221.5,167.0 222.5,164.6 223.4,195.6 224.3,169.7 225.2,166.5 226.1,144.6 227.0,180.1 227.9,183.2 228.8,164.4 229.7,204.0 230.6,140.3 231.5,186.9 232.4,212.6 233.3,144.1 234.2,147.7 235.1,134.3 236.0,194.4 236.9,149.8 237.8,205.0 238.7,187.1 239.6,143.3 240.5,146.4 241.4,169.5 242.3,185.6 243.2,129.1 244.1,190.6 245.0,188.6 245.9,173.8 246.8,163.8 247.7,115.9 248.6,176.5 249.5,90.7 250.5,142.1 251.4,57.2 252.3,125.4 253.2,99.3 254.1,143.7 255.0,152.9 255.9,160.9 256.8,121.9 257.7,141.0 258.6,135.5 259.5,192.8 260.4,81.0 261.3,202.2 262.2,189.0 263.1,99.9 264.1,153.1 265.0,165.6 265.9,127.7 266.8,121.0 267.7,202.2 268.6,75.2 269.5,140.4 270.4,134.3 271.3,130.7 272.2,161.0 273.1,178.3 274.0,146.3 274.9,116.9 275.8,193.5 276.7,179.3 277.6,101.3 278.5,127.7 279.4,101.8 280.3,121.6 281.3,116.9 282.2,115.0 283.1,177.4 284.0,163.9 284.9,152.0 285.8,106.5 286.7,97.4 287.6,84.1 288.5,190.5 289.4,169.7 290.3,170.3 291.3,157.4 292.2,209.6 293.1,260.1 294.0,148.6 294.9,124.9 295.8,158.5 296.7,124.0 297.6,128.7 298.5,132.1 299.4,114.1 300.3,63.3 301.2,150.1 302.1,122.4 303.0,119.7 303.9,95.3 304.8,143.7 305.7,156.0 306.7,129.4 307.6,176.7 308.5,106.5 309.4,161.6 310.3,175.4 311.2,230.8 312.1,121.7 313.0,130.0 313.9,185.2 314.8,100.3 315.7,140.2 316.6,174.5 317.5,156.4 318.4,186.3 319.3,182.7 320.2,65.1 321.1,221.3 322.0,150.0 322.9,156.3 323.8,224.5 324.7,128.6 325.6,122.5 326.5,210.9 327.4,149.0 328.3,149.5 329.2,112.3 330.2,149.0 331.1,199.6 332.0,107.1 332.9,181.0 333.8,191.1 334.7,135.2 335.6,187.3 336.5,155.0 337.4,138.6 338.3,99.1 339.2,139.4 340.1,130.6 341.0,199.1 341.9,100.3 342.8,152.0 343.7,89.2 344.6,121.7 345.6,164.9 346.5,202.8 347.4,118.2 348.3,159.7 349.2,125.5 350.1,109.8 351.0,133.3 351.9,137.9 352.8,157.0 353.7,164.1 354.6,167.0 355.5,164.8 356.4,171.6 357.3,186.1 358.2,218.7 359.1,200.4 360.0,107.3 361.0,200.2 361.9,116.6 362.7,134.6 363.6,94.3 364.6,232.5 365.5,181.1 366.4,123.9 367.3,156.6 368.2,236.0 369.1,230.6 370.0,161.0 370.9,167.2 371.8,192.5 372.7,148.8 373.6,201.2 374.5,185.6 375.4,178.2 376.3,157.9 377.2,180.6 378.1,178.5 379.0,204.6 379.9,169.0 380.8,179.1 381.7,180.6 382.6,166.0 383.6,193.8 384.5,165.2 385.4,239.5 386.3,145.1 387.2,124.3 388.1,114.9 389.0,155.4 389.9,146.1 390.8,127.7 391.7,157.0 392.6,125.8 393.5,175.0 394.4,103.6 395.3,131.8 396.2,234.5 397.1,150.6 398.0,146.7 398.9,104.7 399.8,137.6 400.7,155.3 401.6,187.4 402.5,148.8 403.4,170.3 404.4,125.3 405.3,199.4 406.2,185.5 407.1,173.5 408.0,193.8 408.9,114.4 409.8,148.1 410.7,229.8 411.6,225.5 412.5,166.2 413.4,168.6 414.3,170.9 415.2,170.0 416.2,196.7 417.1,156.7 418.0,198.5 418.9,216.4 419.8,179.5 420.7,167.4 421.6,167.9 422.5,202.4 423.4,200.1 424.3,154.1 425.2,157.6 426.1,221.1 427.0,130.4 427.9,170.8 428.9,175.8 429.8,156.8 430.7,164.1 431.6,147.1 432.5,163.0 433.4,188.3 434.3,220.5 435.2,185.5 436.1,165.9 437.0,203.2 437.9,229.5 438.8,217.7 439.7,212.1 440.6,239.1 441.5,156.9 442.4,201.2 443.3,166.6 444.2,167.9 445.1,182.8 446.0,149.3 447.0,165.4 447.9,253.8 448.8,222.3 449.7,188.6 450.6,205.9 451.5,225.5 452.4,170.4 453.3,217.6 454.2,200.2 455.1,166.6 456.0,203.1 456.9,197.7 457.8,127.6 458.7,210.0 459.6,218.6 460.5,142.4 461.4,227.8 462.3,178.9 463.2,182.6 464.1,202.0 465.0,120.3 465.9,183.9 466.8,270.9 467.7,175.5 468.6,173.6 469.5,235.7 470.4,143.5 471.3,161.7 472.2,204.7 473.1,218.4 474.1,234.8 475.0,132.8 475.9,187.3 476.8,232.5 477.7,162.5 478.6,143.5 479.5,143.5 480.4,180.7 481.3,242.6 482.2,181.2 483.1,243.5 484.0,205.6 484.9,218.8 485.8,233.9 486.7,198.8 487.6,183.4 488.5,181.2 489.4,152.2 490.3,161.6 491.3,206.1 492.2,232.8 493.1,190.1 494.0,128.7 494.9,187.8 495.8,205.7 496.7,209.4 497.6,220.4 498.5,246.1 499.4,137.1 500.3,289.2 501.2,314.6 502.1,167.9 503.0,248.6 503.9,223.2 504.9,196.6 505.8,206.8 506.7,143.8 507.6,113.1 508.5,245.1 509.4,247.6 510.3,207.2 511.2,239.6 512.1,166.7 513.0,171.5 513.9,175.9 514.8,155.4 515.7,224.4 516.6,216.6 517.5,194.6 518.5,230.1 519.4,275.9 520.3,271.4 521.2,220.7 522.1,206.5 523.0,174.6 523.9,303.0 524.8,206.4 525.7,174.8 526.6,259.4 527.5,153.5 528.4,221.8 529.3,180.4 530.2,187.6 531.2,213.0 532.1,154.0 533.0,201.4 533.9,213.6 534.8,222.2 535.7,186.5 536.6,152.8 537.5,162.6 538.4,166.9 539.3,208.0 540.2,176.7 541.1,181.8 542.0,134.7 542.9,185.2 543.9,142.4 544.8,216.4 545.7,235.0 546.6,219.4 547.5,182.0 548.4,217.2 549.3,210.6 550.2,162.5 551.1,199.6 552.0,208.6 552.9,244.4 553.8,242.6 554.7,221.6 555.6,250.8 556.5,168.0 557.4,222.4 558.3,243.2 559.2,214.6 560.1,271.8 561.1,201.2 562.0,209.9 562.9,218.1 563.8,259.1 564.7,223.4 565.6,171.0 566.5,226.8 567.4,184.2 568.3,248.1 569.2,264.1 570.1,225.4 571.0,272.6 571.9,152.8 572.8,188.0 573.7,135.3 574.6,174.6 575.5,167.7 576.4,143.1 577.3,200.6 578.2,212.1 579.1,203.9 580.0,191.4 581.0,218.3 581.9,210.4 582.8,167.7 583.8,215.3 584.7,186.1 585.6,207.6 586.5,168.2 587.4,158.4 588.3,245.1 589.3,221.2 590.2,155.2 591.1,171.1 592.0,240.1 592.9,220.9 593.8,279.7 594.7,226.5 595.6,251.6 596.5,247.6 597.4,261.3 598.3,206.4 599.2,168.7 600.1,218.7 601.1,238.0 602.0,250.5 602.9,240.9 603.8,255.6 604.7,201.9 605.6,204.3 606.5,224.7 607.4,207.3 608.3,231.8 609.2,206.8 610.1,129.0 611.0,147.5 611.9,176.9 612.8,202.8 613.7,205.5 614.7,184.6 615.6,177.6 616.5,208.8 617.4,173.2 618.3,156.1 619.2,154.9 620.1,185.5 621.0,188.1 621.9,237.8 622.8,221.8 623.7,178.7 624.6,239.4 625.5,242.2 626.4,211.4 627.3,201.9 628.3,235.3 629.2,200.0 630.1,169.5 631.0,258.8 631.9,220.2 632.8,159.5 633.7,185.6 634.6,221.6 635.5,212.1 636.4,179.5 637.4,156.0 638.3,244.4 639.2,206.4 640.1,159.4 641.0,152.6 641.9,239.3 642.8,145.4 643.7,181.3 644.6,256.0 645.5,245.3 646.4,227.9 647.3,289.6 648.2,257.4 649.2,185.4 650.1,193.5 651.0,194.9 651.9,282.3 652.8,174.3 653.7,174.3 654.6,189.4 655.5,174.3 656.4,232.4 657.3,229.1 658.2,238.9 659.2,279.1 660.1,231.4 661.0,220.3 661.9,190.6 662.8,205.5 663.7,182.4 664.6,229.7 665.5,279.0 666.4,237.1 667.3,198.6 668.2,225.2 669.1,162.7 670.0,181.1 671.0,204.9 671.9,203.1 672.8,232.2 673.7,196.3 674.6,212.0" fill="none" stroke="#2563eb" stroke-width="2.5"/>
<rect x="65" y="20" width="610" height="330" fill="none" stroke="#888" stroke-width="1.5"/>
<line x1="62" y1="308.5" x2="65" y2="308.5" stroke="#64748b" stroke-width="1" opacity="0.6"/>
<line x1="62" y1="260.0" x2="65" y2="260.0" stroke="#64748b" stroke-width="1" opacity="0.6"/>
<line x1="62" y1="199.0" x2="65" y2="199.0" stroke="#64748b" stroke-width="1" opacity="0.6"/>
<line x1="60" y1="116.3" x2="65" y2="116.3" stroke="#64748b" stroke-width="1.5"/>
<text x="57" y="116.3" text-anchor="end" dominant-baseline="middle" font-size="11" font-family="monospace,sans-serif" fill="#64748b">10</text>
<line x1="62" y1="33.5" x2="65" y2="33.5" stroke="#64748b" stroke-width="1" opacity="0.6"/>
<line x1="675" y1="250.9" x2="680" y2="250.9" stroke="#2563eb" stroke-width="1.5"/>
<text x="683" y="250.9" text-anchor="start" dominant-baseline="middle" font-size="11" font-family="monospace,sans-serif" fill="#2563eb">0.00</text>
<line x1="675" y1="129.7" x2="680" y2="129.7" stroke="#2563eb" stroke-width="1.5"/>
<text x="683" y="129.7" text-anchor="start" dominant-baseline="middle" font-size="11" font-family="monospace,sans-serif" fill="#2563eb">0.10</text>
<line x1="65.0" y1="350" x2="65.0" y2="355" stroke="#888" stroke-width="1.5"/>
<text x="65.0" y="368" text-anchor="middle" font-size="11" font-family="monospace,sans-serif">0</text>
<line x1="187.1" y1="350" x2="187.1" y2="355" stroke="#888" stroke-width="1.5"/>
<text x="187.1" y="368" text-anchor="middle" font-size="11" font-family="monospace,sans-serif">2</text>
<line x1="309.2" y1="350" x2="309.2" y2="355" stroke="#888" stroke-width="1.5"/>
<text x="309.2" y="368" text-anchor="middle" font-size="11" font-family="monospace,sans-serif">4</text>
<line x1="431.3" y1="350" x2="431.3" y2="355" stroke="#888" stroke-width="1.5"/>
<text x="431.3" y="368" text-anchor="middle" font-size="11" font-family="monospace,sans-serif">6</text>
<line x1="553.3" y1="350" x2="553.3" y2="355" stroke="#888" stroke-width="1.5"/>
<text x="553.3" y="368" text-anchor="middle" font-size="11" font-family="monospace,sans-serif">8</text>
<line x1="675.4" y1="350" x2="675.4" y2="355" stroke="#888" stroke-width="1.5"/>
<text x="675.4" y="368" text-anchor="middle" font-size="11" font-family="monospace,sans-serif">10</text>
<text x="370" y="392" text-anchor="middle" font-size="13" font-family="sans-serif">Runtime (minutes)</text>
<text transform="rotate(-90,28,185)" x="28" y="185" text-anchor="middle" font-size="13" font-family="sans-serif" fill="#64748b">Train loss (log scale)</text>
<text transform="rotate(90,746,185)" x="746" y="185" text-anchor="middle" font-size="13" font-family="sans-serif" fill="#2563eb">Train loss diff (exp − base)</text>
<rect x="72" y="26" width="140" height="62" fill="white" fill-opacity="0.85" stroke="#ddd" stroke-width="1" rx="3"/>
<line x1="77" y1="37" x2="99" y2="37" stroke="#64748b" stroke-width="1.5" stroke-dasharray="5,3"/>
<text x="104" y="41" font-size="11" font-family="sans-serif" fill="#64748b">Baseline train loss</text>
<line x1="77" y1="55" x2="99" y2="55" stroke="#16a34a" stroke-width="1.5"/>
<text x="104" y="59" font-size="11" font-family="sans-serif" fill="#16a34a">Experiment train loss</text>
<line x1="77" y1="73" x2="99" y2="73" stroke="#2563eb" stroke-width="2.5"/>
<text x="104" y="77" font-size="11" font-family="sans-serif" fill="#2563eb">Train loss diff</text>
</svg>