<svg xmlns="http://www.w3.org/2000/svg" viewBox="0 0 760 400" width="760" height="400" style="background:white">
<rect x="65" y="20" width="610" height="330" fill="#f9f9f9"/>
<line x1="65" y1="308.5" x2="675" y2="308.5" stroke="#ececec" stroke-width="1"/>
<line x1="65" y1="260.0" x2="675" y2="260.0" stroke="#ececec" stroke-width="1"/>
<line x1="65" y1="199.0" x2="675" y2="199.0" stroke="#ececec" stroke-width="1"/>
<line x1="65" y1="116.3" x2="675" y2="116.3" stroke="#ddd" stroke-width="1"/>
<line x1="65" y1="33.5" x2="675" y2="33.5" stroke="#ececec" stroke-width="1"/>
<line x1="65.0" y1="20" x2="65.0" y2="350" stroke="#ececec" stroke-width="1"/>
<line x1="187.1" y1="20" x2="187.1" y2="350" stroke="#ececec" stroke-width="1"/>
<line x1="309.3" y1="20" x2="309.3" y2="350" stroke="#ececec" stroke-width="1"/>
<line x1="431.4" y1="20" x2="431.4" y2="350" stroke="#ececec" stroke-width="1"/>
<line x1="553.6" y1="20" x2="553.6" y2="350" stroke="#ececec" stroke-width="1"/>
<line x1="675.7" y1="20" x2="675.7" y2="350" stroke="#ececec" stroke-width="1"/>
<line x1="65" y1="296.5" x2="675" y2="296.5" stroke="#2563eb" stroke-width="0.75" stroke-dasharray="3,3" opacity="0.4"/>
<polyline points="65.0,119.8 65.7,52.7 66.4,85.4 67.2,143.1 67.9,161.7 68.6,155.9 69.3,156.3 70.1,160.5 70.8,165.4 71.5,169.2 72.2,173.0 72.9,174.1 73.7,175.4 74.4,177.2 75.1,179.4 75.9,182.9 76.6,182.6 77.3,184.4 78.1,185.3 78.8,187.9 79.5,183.4 80.3,190.6 81.0,195.3 81.7,195.4 82.5,197.5 83.2,199.1 83.9,201.0 84.7,202.6 85.4,203.9 86.1,205.5 86.9,207.3 87.6,206.5 88.3,208.8 89.1,210.2 89.8,209.9 90.5,211.2 91.3,211.7 92.0,213.6 92.7,213.0 93.5,211.6 94.2,215.0 94.9,216.3 95.7,215.9 96.4,216.4 97.2,218.2 97.9,216.4 98.6,215.7 99.3,216.3 100.1,217.6 100.8,217.9 101.5,220.5 102.3,218.4 103.0,221.0 103.7,216.1 104.5,223.2 105.2,221.9 105.9,224.2 106.7,223.4 107.4,223.2 108.1,225.6 108.9,224.9 109.6,226.2 110.3,225.8 111.1,228.0 111.8,229.5 112.6,228.1 113.3,229.9 114.0,229.6 114.7,229.6 115.5,228.9 116.2,231.5 116.9,228.9 117.7,229.7 118.4,231.5 119.1,231.5 119.9,233.3 120.6,232.0 121.4,234.0 122.1,232.7 122.8,236.1 123.6,235.2 124.3,234.4 125.0,234.6 125.8,233.6 126.5,232.0 127.2,230.8 128.0,235.6 128.7,233.4 129.5,235.9 130.2,236.0 130.9,235.3 131.7,234.7 132.4,232.1 133.1,234.5 133.9,236.5 134.6,236.2 135.3,237.5 136.1,235.4 136.8,239.0 137.5,233.1 138.3,238.7 139.0,238.8 139.8,238.1 140.5,239.0 141.2,240.5 142.0,239.5 142.7,239.8 143.4,241.3 144.2,240.6 144.9,241.0 145.6,236.4 146.4,241.3 147.1,241.1 147.9,242.2 148.6,241.8 149.3,241.0 150.1,244.4 150.8,239.8 151.5,240.6 152.3,242.8 153.0,242.2 153.8,244.3 154.5,242.3 155.2,238.8 156.0,245.0 156.7,243.3 157.4,243.1 158.2,243.9 158.9,244.6 159.7,244.0 160.4,245.5 161.1,244.2 161.9,245.5 162.6,246.0 163.3,241.8 164.1,246.5 164.8,246.6 165.6,245.1 166.3,247.4 167.0,247.2 167.8,246.3 168.5,247.1 169.2,246.4 170.0,244.9 170.7,248.1 171.5,246.2 172.2,248.8 172.9,246.1 173.7,247.4 174.4,245.7 175.1,247.1 175.9,247.5 176.6,245.5 177.3,249.1 178.1,248.2 178.8,248.1 179.6,247.3 180.3,246.2 181.0,247.8 181.8,248.0 182.5,250.2 183.2,247.2 184.0,248.8 184.7,246.6 185.5,243.3 186.2,247.7 186.9,248.8 187.7,249.7 188.4,248.0 189.2,247.2 189.9,246.4 190.6,248.4 191.4,248.0 192.1,249.3 192.8,247.3 193.6,249.0 194.3,249.4 195.0,250.6 195.8,250.2 196.5,248.7 197.3,250.5 198.0,240.0 198.7,248.8 199.5,250.7 200.2,251.8 201.0,246.5 201.7,252.7 202.4,250.3 203.2,252.9 203.9,250.6 204.6,252.3 205.4,250.1 206.1,252.6 206.8,251.4 207.6,251.6 208.3,251.9 209.1,250.9 209.8,252.5 210.5,253.6 211.3,252.8 212.0,251.7 212.8,251.3 213.5,255.2 214.2,254.8 215.0,248.8 215.7,252.1 216.5,254.0 217.2,253.9 217.9,254.9 218.7,258.1 219.4,256.3 220.1,255.7 220.9,255.1 221.6,254.5 222.4,254.8 223.1,255.2 223.8,254.4 224.6,255.3 225.3,257.0 226.0,257.0 226.8,258.2 227.5,257.4 228.3,257.5 229.0,257.2 229.7,259.1 230.5,259.2 231.2,258.0 232.0,260.6 232.7,258.7 233.4,260.1 234.2,259.0 234.9,260.3 235.6,259.9 236.4,261.2 237.1,260.1 237.8,262.0 238.6,262.1 239.3,259.5 240.1,244.4 240.8,260.8 241.5,257.8 242.3,257.5 243.0,260.7 243.7,264.4 244.5,257.7 245.2,257.9 246.0,260.4 246.7,260.1 247.4,259.8 248.2,261.3 248.9,262.3 249.6,260.4 250.4,261.6 251.1,260.3 251.9,259.6 252.6,263.2 253.3,261.6 254.1,260.1 254.8,260.7 255.5,264.0 256.3,263.3 257.0,262.9 257.7,261.4 258.5,264.1 259.2,262.7 259.9,263.8 260.7,261.5 261.4,262.5 262.2,261.4 262.9,259.0 263.6,259.5 264.4,262.0 265.1,264.0 265.8,261.6 266.6,258.9 267.3,262.2 268.1,262.2 268.8,261.9 269.5,261.5 270.3,260.3 271.0,264.5 271.7,264.6 272.5,258.7 273.2,254.7 273.9,255.7 274.7,260.8 275.4,262.0 276.2,263.4 276.9,259.3 277.6,261.9 278.4,263.4 279.1,265.7 279.8,262.5 280.6,260.2 281.3,262.3 282.1,263.6 282.8,262.4 283.5,262.0 284.3,259.0 285.0,263.3 285.7,262.5 286.5,262.8 287.2,263.2 287.9,262.9 288.7,268.3 289.4,263.3 290.2,263.3 290.9,264.3 291.7,265.5 292.4,263.1 293.1,263.1 293.9,262.9 294.6,260.9 295.3,268.0 296.1,266.2 296.8,263.6 297.6,263.3 298.3,266.8 299.0,266.5 299.8,263.4 300.5,264.6 301.3,263.9 302.0,263.0 302.7,266.0 303.5,266.6 304.2,265.9 304.9,266.2 305.7,264.5 306.4,266.9 307.1,266.5 307.9,267.8 308.6,267.3 309.3,266.6 310.1,264.8 310.8,264.8 311.6,265.7 312.3,267.6 313.0,268.6 313.8,268.4 314.5,269.6 315.3,266.7 316.0,266.4 316.7,264.1 317.5,267.2 318.2,268.5 318.9,267.1 319.7,264.7 320.4,267.2 321.2,272.0 321.9,269.2 322.6,267.2 323.4,266.8 324.1,267.8 324.9,268.5 325.6,269.5 326.3,267.1 327.1,268.4 327.8,267.2 328.5,271.3 329.3,266.2 330.0,267.9 330.7,268.3 331.5,268.8 332.2,268.6 332.9,269.2 333.7,272.0 334.4,266.2 335.2,269.5 335.9,265.3 336.6,266.1 337.4,263.6 338.1,267.2 338.9,267.9 339.6,266.1 340.3,267.3 341.1,269.8 341.8,267.3 342.6,265.1 343.3,272.1 344.0,251.6 344.8,262.1 345.5,260.5 346.2,275.1 347.0,264.9 347.7,269.8 348.5,265.1 349.2,266.7 349.9,268.6 350.7,267.2 351.4,265.8 352.1,266.0 352.9,267.9 353.6,267.1 354.3,267.6 355.1,267.2 355.8,267.7 356.6,266.3 357.3,274.1 358.0,268.6 358.8,266.3 359.5,267.1 360.3,267.6 361.0,266.1 361.7,267.6 362.5,268.9 363.2,266.8 363.9,267.7 364.7,268.2 365.4,270.2 366.1,267.5 366.9,270.8 367.6,267.9 368.4,267.0 369.1,265.9 369.8,268.4 370.6,277.4 371.3,269.7 372.0,265.5 372.8,267.6 373.5,265.7 374.3,265.4 375.0,267.5 375.7,266.6 376.4,270.2 377.2,268.7 377.9,269.0 378.7,267.6 379.4,269.5 380.1,273.2 380.9,279.5 381.6,270.0 382.4,269.6 383.1,269.3 383.8,269.6 384.6,272.7 385.3,270.3 386.1,268.3 386.8,272.7 387.5,270.7 388.3,273.3 389.0,268.6 389.7,271.4 390.5,270.0 391.2,270.2 391.9,270.5 392.7,272.7 393.4,268.8 394.2,265.9 394.9,270.9 395.6,273.7 396.4,269.4 397.1,272.0 397.9,272.6 398.6,269.7 399.3,271.8 400.0,273.2 400.8,271.2 401.5,270.1 402.3,273.8 403.0,270.9 403.7,273.0 404.5,274.1 405.2,270.7 405.9,272.4 406.7,271.0 407.4,273.8 408.2,274.0 408.9,270.9 409.6,267.2 410.4,268.8 411.1,269.2 411.9,270.4 412.6,270.7 413.3,270.3 414.1,269.7 414.8,268.3 415.6,268.7 416.3,269.6 417.0,271.5 417.8,269.3 418.5,266.8 419.2,270.3 420.0,269.8 420.7,269.3 421.4,268.6 422.2,269.2 422.9,272.8 423.7,265.8 424.4,272.7 425.1,267.7 425.9,273.7 426.6,271.9 427.4,270.9 428.1,269.3 428.8,270.0 429.6,275.4 430.3,271.9 431.1,270.4 431.8,271.7 432.5,270.3 433.3,270.1 434.0,266.5 434.7,272.1 435.5,268.7 436.2,268.8 436.9,269.5 437.7,271.6 438.4,269.8 439.2,272.0 439.9,272.8 440.6,271.9 441.4,267.8 442.1,270.8 442.8,269.0 443.6,271.6 444.3,266.6 445.0,268.9 445.8,269.4 446.5,271.2 447.2,272.4 448.0,272.6 448.7,266.4 449.5,268.4 450.2,270.6 450.9,268.3 451.7,269.7 452.4,270.5 453.1,271.3 453.9,271.2 454.6,272.2 455.4,271.2 456.1,269.9 456.8,270.5 457.6,269.8 458.3,272.7 459.0,273.1 459.8,275.3 460.5,271.2 461.3,272.5 462.0,272.8 462.7,276.0 463.5,274.0 464.2,273.0 464.9,276.6 465.7,273.5 466.4,272.7 467.2,275.0 467.9,274.3 468.6,273.8 469.4,272.5 470.1,276.1 470.8,275.6 471.6,270.5 472.3,278.0 473.0,276.1 473.8,275.1 474.5,274.1 475.3,275.2 476.0,276.6 476.7,273.6 477.5,275.0 478.2,273.3 479.0,273.1 479.7,272.6 480.4,269.2 481.2,267.8 481.9,272.3 482.6,270.9 483.4,273.4 484.1,271.0 484.8,270.3 485.6,271.5 486.3,271.4 487.0,271.9 487.8,279.3 488.5,274.7 489.3,272.6 490.0,274.4 490.7,273.8 491.5,278.7 492.2,258.4 492.9,271.8 493.7,272.6 494.4,276.6 495.1,272.8 495.9,274.0 496.6,274.3 497.4,273.5 498.1,276.4 498.8,274.5 499.6,272.5 500.3,272.2 501.0,271.4 501.8,271.3 502.5,271.4 503.2,271.4 504.0,271.8 504.7,271.3 505.5,272.1 506.2,272.6 506.9,274.3 507.7,274.1 508.4,273.8 509.1,273.3 509.9,269.4 510.6,270.8 511.3,272.6 512.1,272.9 512.8,275.9 513.5,273.4 514.3,270.3 515.0,272.4 515.8,272.6 516.5,270.9 517.2,272.9 518.0,275.7 518.7,274.1 519.4,272.7 520.2,276.0 520.9,276.4 521.7,272.8 522.4,267.7 523.1,276.9 523.9,275.3 524.6,274.4 525.3,276.0 526.1,278.2 526.8,275.6 527.6,274.6 528.3,277.0 529.0,273.0 529.8,277.3 530.5,281.3 531.2,274.9 532.0,274.8 532.7,277.9 533.5,274.4 534.2,276.6 534.9,275.9 535.7,276.2 536.4,276.5 537.1,274.5 537.9,272.7 538.6,277.3 539.4,275.1 540.1,277.9 540.8,279.8 541.6,275.7 542.3,276.6 543.0,276.6 543.8,275.5 544.5,277.6 545.2,278.1 546.0,274.1 546.7,275.6 547.5,276.7 548.2,270.1 548.9,274.0 549.7,275.2 550.4,272.7 551.1,275.4 551.9,275.6 552.6,275.6 553.4,274.8 554.1,276.2 554.8,271.5 555.6,272.5 556.3,265.9 557.0,274.9 557.8,273.8 558.5,275.8 559.2,276.9 560.0,279.1 560.7,273.6 561.5,276.7 562.2,273.2 562.9,272.3 563.7,271.3 564.4,272.7 565.2,275.1 565.9,275.9 566.6,280.3 567.4,276.8 568.1,274.6 568.8,275.5 569.6,260.9 570.3,276.9 571.0,276.4 571.8,274.0 572.5,274.9 573.3,275.8 574.0,275.8 574.7,276.3 575.5,275.4 576.2,278.3 576.9,271.3 577.7,275.9 578.4,276.4 579.2,279.1 579.9,283.6 580.6,279.9 581.4,277.5 582.1,277.8 582.8,275.4 583.6,276.0 584.3,276.5 585.0,277.2 585.8,276.3 586.5,275.6 587.3,274.3 588.0,279.9 588.7,277.1 589.5,273.7 590.2,270.0 590.9,274.0 591.7,276.9 592.4,278.1 593.1,279.0 593.9,276.1 594.6,273.8 595.4,281.4 596.1,270.3 596.8,278.2 597.6,275.5 598.3,279.5 599.1,276.5 599.8,276.2 600.5,276.6 601.3,275.1 602.0,273.2 602.7,275.3 603.5,277.2 604.2,286.5 605.0,278.8 605.7,274.6 606.4,276.1 607.2,274.3 607.9,272.3 608.6,275.9 609.4,277.5 610.1,275.1 610.9,278.5 611.6,278.1 612.3,276.3 613.1,277.7 613.8,278.4 614.6,278.1 615.3,273.8 616.0,275.3 616.8,276.8 617.5,279.0 618.3,275.3 619.0,287.6 619.7,274.6 620.5,277.9 621.2,274.8 621.9,271.4 622.7,281.9 623.4,274.8 624.2,276.4 624.9,273.2 625.6,276.1 626.4,277.5 627.1,275.6 627.9,274.0 628.6,274.0 629.3,273.0 630.1,275.5 630.8,276.9 631.6,276.2 632.3,278.3 633.0,281.9 633.8,279.1 634.5,278.7 635.2,276.7 636.0,278.3 636.7,278.5 637.4,277.2 638.2,277.3 638.9,275.2 639.6,276.3 640.4,276.4 641.1,277.7 641.8,278.0 642.6,276.2 643.3,279.2 644.1,278.6 644.8,281.1 645.5,280.1 646.3,279.2 647.0,274.3 647.7,280.3 648.5,281.9 649.2,292.1 650.0,280.0 650.7,278.3 651.4,277.4 652.2,278.2 652.9,281.5 653.6,279.4 654.4,279.0 655.1,277.7 655.9,282.5 656.6,278.6 657.3,281.7 658.1,278.3 658.8,278.7 659.5,277.4 660.3,278.6 661.0,278.8 661.8,278.2 662.5,281.6 663.2,276.4 664.0,278.2 664.7,277.5 665.4,282.3 666.2,279.1 666.9,280.0 667.6,282.8 668.4,279.9 669.1,280.2 669.8,277.4 670.6,281.5 671.3,280.2 672.1,280.6 672.8,278.8 673.5,277.9 674.3,276.0 675.0,282.3" fill="none" stroke="#64748b" stroke-width="1.5" stroke-dasharray="5,3"/>
<polyline points="65.0,119.1 65.9,52.8 66.8,86.3 67.7,142.6 68.6,160.3 69.5,152.9 70.4,155.2 71.2,161.4 72.1,166.1 73.0,168.7 73.9,171.7 74.8,173.7 75.7,175.4 76.6,177.6 77.5,179.3 78.4,180.5 79.3,182.5 80.3,183.8 81.2,184.4 82.1,185.6 83.0,187.3 83.9,188.6 84.8,191.0 85.7,193.4 86.6,195.0 87.5,196.6 88.4,199.1 89.3,200.2 90.2,201.5 91.1,203.5 92.0,203.9 92.9,205.9 93.9,206.6 94.8,207.4 95.7,208.6 96.6,209.1 97.5,210.7 98.4,211.6 99.3,212.0 100.2,213.0 101.1,213.3 102.0,214.1 102.9,214.6 103.8,215.1 104.7,216.0 105.6,218.0 106.5,217.7 107.5,216.5 108.4,218.6 109.3,219.4 110.2,220.1 111.1,221.8 112.0,221.6 113.0,222.2 113.9,221.9 114.8,223.8 115.7,224.2 116.6,225.4 117.5,225.1 118.4,225.7 119.3,225.8 120.2,227.6 121.1,228.2 122.0,228.7 122.9,228.3 123.8,229.4 124.7,230.4 125.6,229.9 126.6,231.4 127.5,232.6 128.4,231.5 129.3,232.4 130.2,233.8 131.1,233.6 132.0,234.0 132.9,233.8 133.8,235.5 134.7,234.3 135.6,235.3 136.5,235.5 137.4,235.4 138.3,236.8 139.2,236.7 140.1,237.3 141.0,237.1 141.9,237.3 142.9,239.0 143.8,238.7 144.7,238.0 145.6,238.9 146.5,239.0 147.4,238.5 148.3,240.5 149.2,239.6 150.1,239.3 151.0,239.8 151.9,240.1 152.8,240.9 153.7,240.3 154.6,241.6 155.5,240.0 156.4,241.7 157.3,241.4 158.2,241.7 159.1,241.6 160.0,241.5 160.9,242.2 161.9,243.3 162.8,242.6 163.6,243.0 164.6,242.6 165.5,242.5 166.4,242.6 167.3,243.5 168.2,244.1 169.1,243.4 170.0,245.4 170.9,244.6 171.8,244.1 172.7,244.8 173.6,244.0 174.5,245.2 175.4,244.2 176.3,246.5 177.2,244.1 178.1,244.7 179.0,244.9 180.0,247.2 180.9,245.0 181.8,245.2 182.7,245.2 183.6,246.3 184.5,245.8 185.4,246.2 186.3,247.2 187.2,246.3 188.1,245.6 189.0,246.1 189.9,247.2 190.9,246.8 191.8,247.6 192.7,247.5 193.6,247.0 194.5,247.1 195.4,247.1 196.3,248.1 197.2,248.1 198.1,248.8 199.0,248.2 199.9,248.2 200.8,247.7 201.7,248.1 202.6,248.1 203.5,249.5 204.4,248.1 205.3,249.0 206.2,248.7 207.2,250.2 208.1,249.1 209.0,250.3 209.9,249.4 210.8,250.3 211.7,249.7 212.6,250.8 213.5,250.8 214.4,248.8 215.3,251.2 216.2,251.1 217.1,251.2 218.0,250.7 218.9,251.3 219.8,251.4 220.7,250.9 221.6,250.6 222.5,250.3 223.4,251.4 224.3,251.1 225.2,251.9 226.1,250.7 227.1,252.0 228.0,252.3 228.9,252.1 229.8,252.9 230.7,251.6 231.6,253.0 232.5,254.4 233.4,252.4 234.3,252.2 235.2,251.7 236.1,254.2 237.0,253.1 237.9,253.9 238.8,255.0 239.7,253.7 240.6,253.9 241.5,254.0 242.4,254.2 243.3,253.7 244.2,255.1 245.1,254.8 246.0,254.6 246.9,254.8 247.8,255.6 248.7,255.0 249.6,254.0 250.5,255.0 251.5,253.7 252.4,254.1 253.3,254.3 254.2,254.8 255.1,255.4 256.0,257.0 256.9,255.7 257.8,255.9 258.7,255.2 259.6,258.5 260.5,255.9 261.4,257.5 262.3,257.4 263.2,255.0 264.2,256.9 265.1,257.5 266.0,256.1 266.9,256.4 267.8,258.3 268.7,255.7 269.6,256.9 270.5,257.6 271.4,257.5 272.3,258.3 273.2,259.4 274.1,258.0 275.0,257.0 275.9,259.3 276.8,260.0 277.7,257.9 278.6,257.9 279.5,258.0 280.4,259.9 281.4,258.3 282.3,258.6 283.2,259.2 284.1,260.2 285.0,260.1 285.9,258.1 286.8,259.1 287.7,258.8 288.6,260.8 289.5,260.5 290.5,259.7 291.4,259.9 292.3,261.8 293.2,261.7 294.1,260.9 295.0,259.3 295.9,260.4 296.8,259.9 297.7,259.9 298.6,259.8 299.5,260.8 300.4,260.2 301.3,261.8 302.2,259.3 303.1,260.5 304.0,260.9 305.0,261.1 305.9,261.8 306.8,261.0 307.7,261.4 308.6,260.1 309.5,261.3 310.4,261.6 311.3,262.5 312.2,261.2 313.1,261.2 314.0,262.8 314.9,260.2 315.8,261.4 316.7,262.3 317.6,262.6 318.5,264.0 319.4,262.2 320.3,260.6 321.2,262.8 322.1,263.6 323.0,261.3 324.0,265.0 324.9,262.2 325.8,262.7 326.7,262.8 327.6,261.9 328.5,263.5 329.4,262.8 330.3,264.1 331.2,263.3 332.1,263.2 333.0,264.0 333.9,264.4 334.8,263.0 335.7,264.6 336.6,263.9 337.5,263.7 338.4,262.9 339.3,263.2 340.3,263.0 341.2,265.5 342.1,263.2 343.0,263.9 343.9,263.1 344.8,262.6 345.7,264.9 346.6,265.4 347.5,264.6 348.4,265.5 349.3,263.5 350.2,264.8 351.1,264.6 352.0,264.7 352.9,265.5 353.9,264.1 354.8,265.9 355.7,265.7 356.6,266.0 357.5,265.0 358.4,266.1 359.3,265.7 360.2,263.8 361.1,267.6 362.0,264.6 362.9,265.5 363.8,262.7 364.7,267.1 365.6,266.6 366.5,264.6 367.4,265.3 368.3,266.3 369.2,267.2 370.1,266.0 371.0,266.6 371.9,267.3 372.8,266.0 373.7,267.4 374.6,265.9 375.5,266.3 376.4,265.1 377.4,266.5 378.3,267.8 379.2,266.7 380.1,265.9 381.0,267.5 381.9,267.5 382.8,266.2 383.7,266.8 384.6,267.1 385.5,268.3 386.4,266.6 387.3,266.3 388.2,265.0 389.1,267.3 390.0,267.3 390.9,266.7 391.8,266.3 392.7,267.2 393.6,267.8 394.6,265.7 395.5,265.5 396.4,267.3 397.3,266.5 398.2,266.7 399.1,266.9 400.0,266.6 400.9,266.7 401.8,267.5 402.7,266.9 403.6,268.7 404.5,267.8 405.4,268.2 406.3,267.8 407.3,268.5 408.2,268.8 409.1,267.7 410.0,268.4 410.9,269.0 411.8,268.7 412.7,267.5 413.6,268.7 414.5,269.5 415.4,268.7 416.3,269.0 417.2,267.9 418.1,268.5 419.0,269.0 420.0,269.2 420.9,268.1 421.8,267.7 422.7,269.4 423.6,268.4 424.5,267.3 425.4,268.9 426.3,269.8 427.2,267.4 428.1,269.0 429.0,268.6 429.9,268.9 430.8,268.3 431.7,268.6 432.6,269.0 433.6,270.2 434.5,270.7 435.4,269.4 436.3,268.3 437.2,269.3 438.1,269.5 439.0,270.0 439.9,270.0 440.8,270.3 441.7,268.0 442.6,270.5 443.5,270.0 444.4,269.5 445.3,270.1 446.2,269.5 447.1,269.1 448.0,271.9 448.9,270.6 449.9,269.5 450.8,270.3 451.7,270.3 452.6,269.2 453.5,270.6 454.4,268.7 455.3,269.2 456.2,270.1 457.1,269.6 458.0,268.0 458.9,270.6 459.8,271.4 460.7,269.7 461.6,272.4 462.5,270.4 463.4,269.6 464.3,270.1 465.2,268.0 466.1,270.6 467.0,273.7 467.9,270.3 468.8,269.9 469.7,272.1 470.6,269.5 471.5,270.4 472.4,271.5 473.3,270.5 474.2,271.2 475.2,269.6 476.1,270.6 477.0,272.2 477.9,271.4 478.8,270.1 479.7,270.3 480.6,270.8 481.5,272.1 482.4,271.0 483.3,272.7 484.2,271.4 485.1,271.4 486.0,271.4 486.9,271.4 487.8,271.5 488.7,270.8 489.6,270.0 490.5,271.2 491.5,272.1 492.4,272.6 493.3,271.8 494.2,269.7 495.1,270.9 496.0,271.5 496.9,272.5 497.8,272.4 498.7,272.7 499.6,269.2 500.5,273.6 501.4,274.4 502.3,270.0 503.2,272.8 504.2,272.0 505.1,271.7 506.0,273.2 506.9,270.6 507.8,270.1 508.7,273.9 509.6,272.4 510.5,271.7 511.4,273.1 512.3,271.2 513.2,271.6 514.1,271.5 515.0,270.7 515.9,273.4 516.8,272.4 517.8,271.5 518.7,272.4 519.6,273.0 520.5,273.7 521.4,272.3 522.3,272.7 523.2,271.0 524.1,274.2 525.0,271.4 525.9,271.4 526.8,273.8 527.7,269.7 528.7,273.1 529.6,272.5 530.5,272.2 531.4,272.8 532.3,270.6 533.2,272.1 534.1,272.1 535.0,272.5 535.9,272.7 536.8,272.3 537.7,272.2 538.6,273.0 539.5,273.9 540.4,272.2 541.4,273.9 542.3,271.4 543.2,273.0 544.1,271.6 545.0,273.8 545.9,273.9 546.8,273.3 547.7,271.9 548.6,273.3 549.5,273.8 550.4,272.8 551.3,273.3 552.2,272.7 553.1,274.0 554.0,274.0 554.9,274.0 555.8,275.0 556.7,272.5 557.7,272.8 558.6,273.6 559.5,272.7 560.4,275.8 561.3,273.1 562.2,273.2 563.1,273.2 564.0,275.2 564.9,274.5 565.8,272.5 566.7,274.4 567.6,273.0 568.5,274.1 569.4,275.7 570.3,273.5 571.2,274.9 572.1,273.3 573.0,275.0 573.9,271.9 574.8,273.8 575.8,273.4 576.7,272.9 577.6,273.8 578.5,273.5 579.4,274.1 580.3,273.7 581.2,274.4 582.1,274.9 583.0,273.0 584.0,274.7 584.9,273.9 585.9,274.1 586.8,272.4 587.7,273.6 588.6,275.6 589.5,274.6 590.4,273.4 591.3,273.0 592.2,275.9 593.1,274.0 594.0,276.4 595.0,273.8 595.9,274.9 596.8,275.6 597.7,275.9 598.6,274.5 599.5,274.2 600.4,275.1 601.3,274.7 602.2,275.6 603.1,275.4 604.0,276.1 604.9,275.5 605.8,276.1 606.8,275.9 607.7,274.0 608.6,273.8 609.5,275.2 610.4,274.3 611.3,274.0 612.2,274.4 613.1,274.9 614.0,275.2 614.9,274.2 615.8,274.7 616.7,275.2 617.6,273.0 618.5,273.4 619.4,275.5 620.3,274.7 621.3,273.7 622.2,276.5 623.1,275.4 624.0,274.0 624.9,276.5 625.8,275.2 626.7,274.7 627.6,274.9 628.5,276.1 629.4,275.8 630.4,275.5 631.3,277.0 632.2,275.3 633.1,274.6 634.0,274.2 634.9,275.8 635.8,276.3 636.7,275.0 637.6,274.7 638.5,276.2 639.4,274.7 640.3,274.4 641.2,274.1 642.2,276.8 643.1,273.7 644.0,273.8 644.9,277.2 645.8,276.5 646.7,275.4 647.6,277.9 648.5,276.1 649.4,275.3 650.3,276.7 651.2,275.3 652.2,278.4 653.1,275.1 654.0,275.0 654.9,275.7 655.8,275.0 656.7,276.2 657.6,276.3 658.5,277.3 659.4,277.7 660.3,276.5 661.3,276.8 662.2,274.3 663.1,275.4 664.0,274.9 664.9,276.0 665.8,278.7 666.7,276.6 667.6,274.9 668.5,277.4 669.4,275.1 670.3,276.1 671.2,276.0 672.2,275.8 673.1,277.4 674.0,276.3 674.9,276.1" fill="none" stroke="#16a34a" stroke-width="1.5"/>
<polyline points="65.0,289.7 65.9,184.6 66.8,42.8 67.7,201.2 68.6,323.2 69.5,268.3 70.4,248.9 71.2,256.5 72.1,257.3 73.0,263.9 73.9,271.7 74.8,269.5 75.7,258.5 76.6,268.6 77.5,267.3 78.4,264.2 79.3,285.5 80.3,261.7 81.2,241.1 82.1,243.1 83.0,241.0 83.9,237.1 84.8,240.4 85.7,244.4 86.6,242.7 87.5,250.7 88.4,252.0 89.3,252.6 90.2,256.2 91.1,261.5 92.0,254.8 92.9,267.4 93.9,267.7 94.8,260.3 95.7,266.0 96.6,264.4 97.5,268.6 98.4,278.5 99.3,278.8 100.2,277.4 101.1,273.6 102.0,276.1 102.9,272.5 103.8,289.7 104.7,269.9 105.6,276.1 106.5,273.6 107.5,269.6 108.4,270.5 109.3,272.5 110.2,274.6 111.1,272.9 112.0,268.3 113.0,270.7 113.9,267.3 114.8,275.3 115.7,276.1 116.6,279.0 117.5,280.2 118.4,275.2 119.3,274.5 120.2,277.9 121.1,277.9 122.0,281.6 122.9,269.1 123.8,276.9 124.7,282.1 125.6,282.9 126.6,294.5 127.5,298.0 128.4,286.0 129.3,286.2 130.2,288.9 131.1,290.9 132.0,298.2 132.9,296.7 133.8,293.4 134.7,289.1 135.6,291.8 136.5,289.4 137.4,301.3 138.3,290.0 139.2,289.9 140.1,292.0 141.0,286.4 141.9,288.9 142.9,292.7 143.8,288.6 144.7,287.0 145.6,303.2 146.5,289.1 147.4,286.5 148.3,291.6 149.2,291.1 150.1,280.3 151.0,295.7 151.9,291.1 152.8,291.9 153.7,283.9 154.6,296.0 155.5,292.9 156.4,289.4 157.3,290.7 158.2,288.9 159.1,287.3 160.0,286.0 160.9,289.1 161.9,289.4 162.8,288.1 163.6,294.2 164.6,284.1 165.5,287.6 166.4,281.2 167.3,285.6 168.2,288.2 169.1,286.5 170.0,297.8 170.9,287.1 171.8,285.8 172.7,289.8 173.6,285.7 174.5,294.2 175.4,286.9 176.3,297.1 177.2,282.6 178.1,285.6 179.0,287.0 180.0,298.1 180.9,288.7 181.8,287.7 182.7,283.3 183.6,291.2 184.5,292.0 185.4,304.9 186.3,294.5 187.2,287.7 188.1,286.9 189.0,292.6 189.9,298.6 190.9,291.9 191.8,293.3 192.7,295.8 193.6,290.3 194.5,288.4 195.4,286.4 196.3,293.0 197.2,289.7 198.1,321.5 199.0,292.6 199.9,286.8 200.8,297.2 201.7,282.8 202.6,287.5 203.5,289.8 204.4,285.3 205.3,292.7 206.2,285.3 207.2,292.4 208.1,288.3 209.0,294.2 209.9,287.0 210.8,287.3 211.7,288.9 212.6,294.6 213.5,283.5 214.4,282.4 215.3,299.5 216.2,290.1 217.1,288.5 218.0,283.0 218.9,278.2 219.8,282.9 220.7,283.4 221.6,284.7 222.5,282.9 223.4,286.1 224.3,284.8 225.2,281.9 226.1,277.4 227.1,279.3 228.0,281.2 228.9,281.3 229.8,278.3 230.7,275.1 231.6,278.5 232.5,282.1 233.4,274.6 234.3,276.1 235.2,271.7 236.1,277.8 237.0,275.8 237.9,273.3 238.8,278.3 239.7,302.3 240.6,290.1 241.5,285.0 242.4,285.2 243.3,272.4 244.2,281.9 245.1,287.6 246.0,280.0 246.9,281.4 247.8,282.3 248.7,276.4 249.6,277.7 250.5,278.4 251.5,278.4 252.4,273.8 253.3,275.2 254.2,280.9 255.1,278.0 256.0,278.3 256.9,275.8 257.8,280.2 258.7,272.7 259.6,283.1 260.5,279.1 261.4,282.6 262.3,286.9 263.2,284.5 264.2,284.2 265.1,278.8 266.0,282.1 266.9,285.7 267.8,285.6 268.7,278.8 269.6,283.6 270.5,285.4 271.4,276.6 272.3,291.6 273.2,309.9 274.1,299.7 275.0,284.2 275.9,286.1 276.8,297.5 277.7,284.7 278.6,278.8 279.5,280.5 280.4,294.4 281.4,285.1 282.3,283.6 283.2,288.1 284.1,297.6 285.0,287.5 285.9,284.0 286.8,285.8 287.7,284.9 288.6,277.3 289.5,289.0 290.5,285.4 291.4,282.4 292.3,291.9 293.2,292.7 294.1,292.6 295.0,282.3 295.9,279.4 296.8,285.9 297.7,285.4 298.6,277.7 299.5,286.4 300.4,284.6 301.3,291.0 302.2,283.7 303.1,280.5 304.0,282.4 305.0,282.7 305.9,287.3 306.8,280.8 307.7,280.1 308.6,276.7 309.5,282.8 310.4,287.6 311.3,288.7 312.2,279.9 313.1,276.7 314.0,280.5 314.9,275.0 315.8,282.7 316.7,291.4 317.6,283.3 318.5,286.2 319.4,287.7 320.3,279.2 321.2,273.0 322.1,283.3 323.0,281.1 324.0,289.5 324.9,279.5 325.8,279.9 326.7,283.5 327.6,281.3 328.5,276.6 329.4,286.5 330.3,286.0 331.2,282.4 332.1,282.0 333.0,282.0 333.9,280.8 334.8,283.4 335.7,291.7 336.6,290.7 337.5,294.9 338.4,284.0 339.3,286.8 340.3,285.3 341.2,285.9 342.1,287.4 343.0,283.0 343.9,318.3 344.8,297.9 345.7,299.0 346.6,284.1 347.5,286.3 348.4,296.9 349.3,287.1 350.2,287.9 351.1,291.9 352.0,293.1 352.9,290.3 353.9,288.1 354.8,292.5 355.7,291.5 356.6,295.5 357.5,276.1 358.4,292.6 359.3,293.5 360.2,286.4 361.1,299.8 362.0,287.1 362.9,290.5 363.8,283.7 364.7,293.3 365.6,289.1 366.5,284.4 367.4,287.4 368.3,294.5 369.2,298.7 370.1,280.9 371.0,281.2 371.9,299.6 372.8,292.3 373.7,301.1 374.6,294.9 375.5,295.2 376.4,283.1 377.4,290.6 378.3,295.0 379.2,290.6 380.1,278.5 381.0,269.6 381.9,290.4 382.8,287.9 383.7,289.4 384.6,282.4 385.5,292.5 386.4,286.6 387.3,283.3 388.2,275.3 389.1,292.1 390.0,287.2 390.9,287.5 391.8,285.5 392.7,283.0 393.6,296.1 394.6,289.0 395.5,277.1 396.4,290.6 397.3,282.0 398.2,284.5 399.1,285.4 400.0,279.7 400.9,285.2 401.8,286.2 402.7,283.1 403.6,286.3 404.5,280.8 405.4,288.5 406.3,286.4 407.3,284.5 408.2,283.1 409.1,290.1 410.0,297.8 410.9,296.4 411.8,292.4 412.7,288.0 413.6,292.9 414.5,297.9 415.4,296.7 416.3,294.4 417.2,288.6 418.1,297.6 419.0,295.4 420.0,294.7 420.9,293.8 421.8,293.5 422.7,290.8 423.6,301.8 424.5,284.2 425.4,294.2 426.3,289.2 427.2,286.9 428.1,295.6 429.0,289.0 429.9,284.2 430.8,289.8 431.7,288.6 432.6,293.2 433.6,300.4 434.5,298.5 435.4,296.9 436.3,295.0 437.2,294.3 438.1,293.6 439.0,292.7 439.9,289.4 440.8,294.9 441.7,293.2 442.6,299.1 443.5,293.0 444.4,303.3 445.3,299.1 446.2,294.0 447.1,288.3 448.0,295.8 448.9,305.7 449.9,296.4 450.8,300.2 451.7,298.1 452.6,292.5 453.5,294.7 454.4,288.3 455.3,291.0 456.2,296.8 457.1,294.8 458.0,287.6 458.9,290.4 459.8,286.8 460.7,292.0 461.6,295.9 462.5,285.0 463.4,284.8 464.3,287.6 465.2,277.3 466.1,290.4 467.0,294.2 467.9,286.4 468.8,287.5 469.7,290.9 470.6,280.7 471.5,295.5 472.4,281.1 473.3,283.4 474.2,288.3 475.2,282.6 476.1,282.1 477.0,291.9 477.9,289.7 478.8,288.5 479.7,290.5 480.6,301.4 481.5,302.5 482.4,295.6 483.3,295.3 484.2,297.5 485.1,298.3 486.0,296.4 486.9,295.5 487.8,278.2 488.7,288.2 489.6,287.5 490.5,289.6 491.5,280.3 492.4,326.9 493.3,295.5 494.2,282.3 495.1,290.8 496.0,290.1 496.9,292.6 497.8,289.4 498.7,291.1 499.6,288.0 500.5,300.7 501.4,304.1 502.3,292.9 503.2,300.0 504.2,297.2 505.1,296.6 506.0,298.3 506.9,287.5 507.8,286.4 508.7,297.4 509.6,300.7 510.5,299.3 511.4,297.7 512.3,289.7 513.2,289.1 514.1,297.8 515.0,292.1 515.9,299.4 516.8,298.0 517.8,288.0 518.7,292.0 519.6,295.8 520.5,290.3 521.4,291.8 522.3,307.6 523.2,281.9 524.1,294.5 525.0,286.7 525.9,280.6 526.8,291.9 527.7,282.3 528.7,291.7 529.6,287.4 530.5,274.7 531.4,291.2 532.3,282.9 533.2,287.7 534.1,286.0 535.0,287.8 535.9,287.5 536.8,288.7 537.7,294.1 538.6,286.1 539.5,291.6 540.4,280.2 541.4,289.1 542.3,283.7 543.2,288.1 544.1,284.6 545.0,286.4 545.9,294.8 546.8,290.3 547.7,289.9 548.6,299.0 549.5,293.8 550.4,296.6 551.3,291.2 552.2,289.2 553.1,293.9 554.0,291.3 554.9,302.3 555.8,309.2 556.7,299.5 557.7,293.6 558.6,290.7 559.5,284.4 560.4,295.5 561.3,289.4 562.2,296.4 563.1,299.2 564.0,304.5 564.9,297.1 565.8,288.4 566.7,283.2 567.6,288.8 568.5,294.0 569.4,327.2 570.3,288.1 571.2,294.1 572.1,293.6 573.0,295.1 573.9,286.8 574.8,290.6 575.8,288.8 576.7,293.7 577.6,293.2 578.5,288.8 579.4,281.0 580.3,277.3 581.2,287.5 582.1,289.5 583.0,290.3 584.0,292.6 584.9,288.7 585.9,291.3 586.8,289.7 587.7,286.9 588.6,291.6 589.5,299.3 590.4,302.1 591.3,290.2 592.2,291.8 593.1,284.1 594.0,298.4 595.0,288.5 595.9,299.0 596.8,292.1 597.7,296.1 598.6,286.9 599.5,291.2 600.4,293.0 601.3,295.8 602.2,300.8 603.1,294.2 604.0,277.5 604.9,287.9 605.8,299.5 606.8,297.8 607.7,299.2 608.6,292.1 609.5,291.5 610.4,291.6 611.3,285.8 612.2,291.0 613.1,289.6 614.0,288.8 614.9,292.0 615.8,296.0 616.7,292.7 617.6,283.3 618.5,280.5 619.4,286.8 620.3,290.1 621.3,294.3 622.2,301.3 623.1,289.9 624.0,291.4 624.9,304.6 625.8,293.4 626.7,291.6 627.6,297.4 628.5,301.6 629.4,302.7 630.4,295.3 631.3,297.7 632.2,290.1 633.1,279.4 634.0,284.8 634.9,292.3 635.8,292.3 636.7,288.1 637.6,290.3 638.5,296.5 639.4,293.1 640.3,291.6 641.2,287.7 642.2,295.4 643.1,285.5 644.0,284.7 644.9,287.6 645.8,288.6 646.7,294.1 647.6,293.3 648.5,281.1 649.4,265.6 650.3,290.7 651.2,290.7 652.2,297.0 653.1,282.1 654.0,286.1 654.9,290.5 655.8,279.6 656.7,289.8 657.6,286.5 658.5,293.4 659.4,296.7 660.3,291.5 661.3,292.2 662.2,282.5 663.1,291.3 664.0,288.4 664.9,290.0 665.8,291.8 666.7,289.0 667.6,277.6 668.5,290.2 669.4,287.1 670.3,286.8 671.2,286.1 672.2,285.4 673.1,294.0 674.0,295.4 674.9,284.3" fill="none" stroke="#2563eb" stroke-width="2.5"/>
<rect x="65" y="20" width="610" height="330" fill="none" stroke="#888" stroke-width="1.5"/>
<line x1="62" y1="308.5" x2="65" y2="308.5" stroke="#64748b" stroke-width="1" opacity="0.6"/>
<line x1="62" y1="260.0" x2="65" y2="260.0" stroke="#64748b" stroke-width="1" opacity="0.6"/>
<line x1="62" y1="199.0" x2="65" y2="199.0" stroke="#64748b" stroke-width="1" opacity="0.6"/>
<line x1="60" y1="116.3" x2="65" y2="116.3" stroke="#64748b" stroke-width="1.5"/>
<text x="57" y="116.3" text-anchor="end" dominant-baseline="middle" font-size="11" font-family="monospace,sans-serif" fill="#64748b">10</text>
<line x1="62" y1="33.5" x2="65" y2="33.5" stroke="#64748b" stroke-width="1" opacity="0.6"/>
<line x1="675" y1="296.5" x2="680" y2="296.5" stroke="#2563eb" stroke-width="1.5"/>
<text x="683" y="296.5" text-anchor="start" dominant-baseline="middle" font-size="11" font-family="monospace,sans-serif" fill="#2563eb">0.0</text>
<line x1="675" y1="184.8" x2="680" y2="184.8" stroke="#2563eb" stroke-width="1.5"/>
<text x="683" y="184.8" text-anchor="start" dominant-baseline="middle" font-size="11" font-family="monospace,sans-serif" fill="#2563eb">1.0</text>
<line x1="675" y1="73.0" x2="680" y2="73.0" stroke="#2563eb" stroke-width="1.5"/>
<text x="683" y="73.0" text-anchor="start" dominant-baseline="middle" font-size="11" font-family="monospace,sans-serif" fill="#2563eb">2.0</text>
<line x1="65.0" y1="350" x2="65.0" y2="355" stroke="#888" stroke-width="1.5"/>
<text x="65.0" y="368" text-anchor="middle" font-size="11" font-family="monospace,sans-serif">0</text>
<line x1="187.1" y1="350" x2="187.1" y2="355" stroke="#888" stroke-width="1.5"/>
<text x="187.1" y="368" text-anchor="middle" font-size="11" font-family="monospace,sans-serif">2</text>
<line x1="309.3" y1="350" x2="309.3" y2="355" stroke="#888" stroke-width="1.5"/>
<text x="309.3" y="368" text-anchor="middle" font-size="11" font-family="monospace,sans-serif">4</text>
<line x1="431.4" y1="350" x2="431.4" y2="355" stroke="#888" stroke-width="1.5"/>
<text x="431.4" y="368" text-anchor="middle" font-size="11" font-family="monospace,sans-serif">6</text>
<line x1="553.6" y1="350" x2="553.6" y2="355" stroke="#888" stroke-width="1.5"/>
<text x="553.6" y="368" text-anchor="middle" font-size="11" font-family="monospace,sans-serif">8</text>
<line x1="675.7" y1="350" x2="675.7" y2="355" stroke="#888" stroke-width="1.5"/>
<text x="675.7" y="368" text-anchor="middle" font-size="11" font-family="monospace,sans-serif">10</text>
<text x="370" y="392" text-anchor="middle" font-size="13" font-family="sans-serif">Runtime (minutes)</text>
<text transform="rotate(-90,28,185)" x="28" y="185" text-anchor="middle" font-size="13" font-family="sans-serif" fill="#64748b">Train loss (log scale)</text>
<text transform="rotate(90,746,185)" x="746" y="185" text-anchor="middle" font-size="13" font-family="sans-serif" fill="#2563eb">Train loss diff (exp − base)</text>
<rect x="72" y="26" width="140" height="62" fill="white" fill-opacity="0.85" stroke="#ddd" stroke-width="1" rx="3"/>
<line x1="77" y1="37" x2="99" y2="37" stroke="#64748b" stroke-width="1.5" stroke-dasharray="5,3"/>
<text x="104" y="41" font-size="11" font-family="sans-serif" fill="#64748b">Baseline train loss</text>
<line x1="77" y1="55" x2="99" y2="55" stroke="#16a34a" stroke-width="1.5"/>
<text x="104" y="59" font-size="11" font-family="sans-serif" fill="#16a34a">Experiment train loss</text>
<line x1="77" y1="73" x2="99" y2="73" stroke="#2563eb" stroke-width="2.5"/>
<text x="104" y="77" font-size="11" font-family="sans-serif" fill="#2563eb">Train loss diff</text>
</svg>