<svg xmlns="http://www.w3.org/2000/svg" viewBox="0 0 760 400" width="760" height="400" style="background:white">
<rect x="65" y="20" width="610" height="330" fill="#f9f9f9"/>
<line x1="65" y1="308.5" x2="675" y2="308.5" stroke="#ececec" stroke-width="1"/>
<line x1="65" y1="260.0" x2="675" y2="260.0" stroke="#ececec" stroke-width="1"/>
<line x1="65" y1="199.0" x2="675" y2="199.0" stroke="#ececec" stroke-width="1"/>
<line x1="65" y1="116.3" x2="675" y2="116.3" stroke="#ddd" stroke-width="1"/>
<line x1="65" y1="33.5" x2="675" y2="33.5" stroke="#ececec" stroke-width="1"/>
<line x1="65.0" y1="20" x2="65.0" y2="350" stroke="#ececec" stroke-width="1"/>
<line x1="187.1" y1="20" x2="187.1" y2="350" stroke="#ececec" stroke-width="1"/>
<line x1="309.1" y1="20" x2="309.1" y2="350" stroke="#ececec" stroke-width="1"/>
<line x1="431.2" y1="20" x2="431.2" y2="350" stroke="#ececec" stroke-width="1"/>
<line x1="553.3" y1="20" x2="553.3" y2="350" stroke="#ececec" stroke-width="1"/>
<line x1="675.3" y1="20" x2="675.3" y2="350" stroke="#ececec" stroke-width="1"/>
<line x1="65" y1="288.4" x2="675" y2="288.4" stroke="#2563eb" stroke-width="0.75" stroke-dasharray="3,3" opacity="0.4"/>
<polyline points="65.0,119.8 65.7,52.7 66.4,85.4 67.2,143.1 67.9,161.7 68.6,155.9 69.3,156.3 70.1,160.5 70.8,165.4 71.5,169.2 72.2,173.0 72.9,174.1 73.7,175.4 74.4,177.2 75.1,179.4 75.9,182.9 76.6,182.6 77.3,184.4 78.1,185.3 78.8,187.9 79.5,183.4 80.3,190.6 81.0,195.3 81.7,195.4 82.4,197.5 83.2,199.1 83.9,201.0 84.6,202.6 85.4,203.9 86.1,205.5 86.8,207.3 87.6,206.5 88.3,208.8 89.1,210.2 89.8,209.9 90.5,211.2 91.3,211.7 92.0,213.6 92.7,213.0 93.5,211.6 94.2,215.0 94.9,216.3 95.7,215.9 96.4,216.4 97.1,218.2 97.9,216.4 98.6,215.7 99.3,216.3 100.1,217.6 100.8,217.9 101.5,220.5 102.3,218.4 103.0,221.0 103.7,216.1 104.5,223.2 105.2,221.9 105.9,224.2 106.7,223.4 107.4,223.2 108.1,225.6 108.8,224.9 109.6,226.2 110.3,225.8 111.1,228.0 111.8,229.5 112.5,228.1 113.2,229.9 114.0,229.6 114.7,229.6 115.4,228.9 116.2,231.5 116.9,228.9 117.6,229.7 118.4,231.5 119.1,231.5 119.8,233.3 120.6,232.0 121.3,234.0 122.1,232.7 122.8,236.1 123.5,235.2 124.3,234.4 125.0,234.6 125.7,233.6 126.5,232.0 127.2,230.8 127.9,235.6 128.7,233.4 129.4,235.9 130.1,236.0 130.9,235.3 131.6,234.7 132.3,232.1 133.1,234.5 133.8,236.5 134.5,236.2 135.3,237.5 136.0,235.4 136.8,239.0 137.5,233.1 138.2,238.7 139.0,238.8 139.7,238.1 140.4,239.0 141.2,240.5 141.9,239.5 142.6,239.8 143.4,241.3 144.1,240.6 144.9,241.0 145.6,236.4 146.3,241.3 147.1,241.1 147.8,242.2 148.5,241.8 149.3,241.0 150.0,244.4 150.8,239.8 151.5,240.6 152.2,242.8 153.0,242.2 153.7,244.3 154.4,242.3 155.2,238.8 155.9,245.0 156.6,243.3 157.4,243.1 158.1,243.9 158.9,244.6 159.6,244.0 160.3,245.5 161.1,244.2 161.8,245.5 162.6,246.0 163.3,241.8 164.0,246.5 164.8,246.6 165.5,245.1 166.2,247.4 167.0,247.2 167.7,246.3 168.5,247.1 169.2,246.4 169.9,244.9 170.7,248.1 171.4,246.2 172.1,248.8 172.9,246.1 173.6,247.4 174.3,245.7 175.1,247.1 175.8,247.5 176.5,245.5 177.3,249.1 178.0,248.2 178.8,248.1 179.5,247.3 180.2,246.2 181.0,247.8 181.7,248.0 182.4,250.2 183.2,247.2 183.9,248.8 184.7,246.6 185.4,243.3 186.1,247.7 186.9,248.8 187.6,249.7 188.3,248.0 189.1,247.2 189.8,246.4 190.5,248.4 191.3,248.0 192.0,249.3 192.7,247.3 193.5,249.0 194.2,249.4 195.0,250.6 195.7,250.2 196.4,248.7 197.2,250.5 197.9,240.0 198.7,248.8 199.4,250.7 200.1,251.8 200.9,246.5 201.6,252.7 202.3,250.3 203.1,252.9 203.8,250.6 204.5,252.3 205.3,250.1 206.0,252.6 206.8,251.4 207.5,251.6 208.2,251.9 209.0,250.9 209.7,252.5 210.5,253.6 211.2,252.8 211.9,251.7 212.7,251.3 213.4,255.2 214.1,254.8 214.9,248.8 215.6,252.1 216.4,254.0 217.1,253.9 217.8,254.9 218.6,258.1 219.3,256.3 220.0,255.7 220.8,255.1 221.5,254.5 222.3,254.8 223.0,255.2 223.7,254.4 224.5,255.3 225.2,257.0 225.9,257.0 226.7,258.2 227.4,257.4 228.2,257.5 228.9,257.2 229.6,259.1 230.4,259.2 231.1,258.0 231.8,260.6 232.6,258.7 233.3,260.1 234.1,259.0 234.8,260.3 235.5,259.9 236.3,261.2 237.0,260.1 237.7,262.0 238.5,262.1 239.2,259.5 239.9,244.4 240.7,260.8 241.4,257.8 242.1,257.5 242.9,260.7 243.6,264.4 244.4,257.7 245.1,257.9 245.8,260.4 246.6,260.1 247.3,259.8 248.1,261.3 248.8,262.3 249.5,260.4 250.3,261.6 251.0,260.3 251.7,259.6 252.5,263.2 253.2,261.6 253.9,260.1 254.7,260.7 255.4,264.0 256.1,263.3 256.9,262.9 257.6,261.4 258.3,264.1 259.1,262.7 259.8,263.8 260.5,261.5 261.3,262.5 262.0,261.4 262.8,259.0 263.5,259.5 264.2,262.0 265.0,264.0 265.7,261.6 266.4,258.9 267.2,262.2 267.9,262.2 268.7,261.9 269.4,261.5 270.1,260.3 270.9,264.5 271.6,264.6 272.3,258.7 273.1,254.7 273.8,255.7 274.5,260.8 275.3,262.0 276.0,263.4 276.8,259.3 277.5,261.9 278.2,263.4 279.0,265.7 279.7,262.5 280.4,260.2 281.2,262.3 281.9,263.6 282.7,262.4 283.4,262.0 284.1,259.0 284.9,263.3 285.6,262.5 286.3,262.8 287.1,263.2 287.8,262.9 288.5,268.3 289.3,263.3 290.0,263.3 290.8,264.3 291.5,265.5 292.2,263.1 293.0,263.1 293.7,262.9 294.5,260.9 295.2,268.0 295.9,266.2 296.7,263.6 297.4,263.3 298.2,266.8 298.9,266.5 299.6,263.4 300.4,264.6 301.1,263.9 301.8,263.0 302.6,266.0 303.3,266.6 304.0,265.9 304.8,266.2 305.5,264.5 306.3,266.9 307.0,266.5 307.7,267.8 308.5,267.3 309.2,266.6 309.9,264.8 310.7,264.8 311.4,265.7 312.1,267.6 312.9,268.6 313.6,268.4 314.4,269.6 315.1,266.7 315.8,266.4 316.6,264.1 317.3,267.2 318.0,268.5 318.8,267.1 319.5,264.7 320.3,267.2 321.0,272.0 321.7,269.2 322.5,267.2 323.2,266.8 323.9,267.8 324.7,268.5 325.4,269.5 326.2,267.1 326.9,268.4 327.6,267.2 328.4,271.3 329.1,266.2 329.8,267.9 330.6,268.3 331.3,268.8 332.0,268.6 332.8,269.2 333.5,272.0 334.3,266.2 335.0,269.5 335.7,265.3 336.5,266.1 337.2,263.6 337.9,267.2 338.7,267.9 339.4,266.1 340.2,267.3 340.9,269.8 341.6,267.3 342.4,265.1 343.1,272.1 343.8,251.6 344.6,262.1 345.3,260.5 346.1,275.1 346.8,264.9 347.5,269.8 348.3,265.1 349.0,266.7 349.7,268.6 350.5,267.2 351.2,265.8 352.0,266.0 352.7,267.9 353.4,267.1 354.2,267.6 354.9,267.2 355.6,267.7 356.4,266.3 357.1,274.1 357.9,268.6 358.6,266.3 359.3,267.1 360.1,267.6 360.8,266.1 361.5,267.6 362.3,268.9 363.0,266.8 363.7,267.7 364.5,268.2 365.2,270.2 366.0,267.5 366.7,270.8 367.4,267.9 368.2,267.0 368.9,265.9 369.6,268.4 370.4,277.4 371.1,269.7 371.8,265.5 372.6,267.6 373.3,265.7 374.1,265.4 374.8,267.5 375.5,266.6 376.2,270.2 377.0,268.7 377.7,269.0 378.5,267.6 379.2,269.5 379.9,273.2 380.7,279.5 381.4,270.0 382.2,269.6 382.9,269.3 383.6,269.6 384.4,272.7 385.1,270.3 385.8,268.3 386.6,272.7 387.3,270.7 388.1,273.3 388.8,268.6 389.5,271.4 390.3,270.0 391.0,270.2 391.7,270.5 392.5,272.7 393.2,268.8 394.0,265.9 394.7,270.9 395.4,273.7 396.2,269.4 396.9,272.0 397.6,272.6 398.4,269.7 399.1,271.8 399.8,273.2 400.6,271.2 401.3,270.1 402.1,273.8 402.8,270.9 403.5,273.0 404.3,274.1 405.0,270.7 405.7,272.4 406.5,271.0 407.2,273.8 407.9,274.0 408.7,270.9 409.4,267.2 410.2,268.8 410.9,269.2 411.6,270.4 412.4,270.7 413.1,270.3 413.9,269.7 414.6,268.3 415.3,268.7 416.1,269.6 416.8,271.5 417.5,269.3 418.3,266.8 419.0,270.3 419.8,269.8 420.5,269.3 421.2,268.6 421.9,269.2 422.7,272.8 423.4,265.8 424.2,272.7 424.9,267.7 425.6,273.7 426.4,271.9 427.1,270.9 427.9,269.3 428.6,270.0 429.3,275.4 430.1,271.9 430.8,270.4 431.6,271.7 432.3,270.3 433.0,270.1 433.8,266.5 434.5,272.1 435.2,268.7 436.0,268.8 436.7,269.5 437.4,271.6 438.2,269.8 438.9,272.0 439.6,272.8 440.4,271.9 441.1,267.8 441.8,270.8 442.6,269.0 443.3,271.6 444.1,266.6 444.8,268.9 445.5,269.4 446.3,271.2 447.0,272.4 447.7,272.6 448.5,266.4 449.2,268.4 450.0,270.6 450.7,268.3 451.4,269.7 452.1,270.5 452.9,271.3 453.6,271.2 454.4,272.2 455.1,271.2 455.8,269.9 456.6,270.5 457.3,269.8 458.0,272.7 458.8,273.1 459.5,275.3 460.3,271.2 461.0,272.5 461.7,272.8 462.5,276.0 463.2,274.0 463.9,273.0 464.7,276.6 465.4,273.5 466.2,272.7 466.9,275.0 467.6,274.3 468.4,273.8 469.1,272.5 469.8,276.1 470.6,275.6 471.3,270.5 472.0,278.0 472.8,276.1 473.5,275.1 474.3,274.1 475.0,275.2 475.7,276.6 476.5,273.6 477.2,275.0 477.9,273.3 478.7,273.1 479.4,272.6 480.2,269.2 480.9,267.8 481.6,272.3 482.4,270.9 483.1,273.4 483.8,271.0 484.6,270.3 485.3,271.5 486.0,271.4 486.8,271.9 487.5,279.3 488.2,274.7 489.0,272.6 489.7,274.4 490.4,273.8 491.2,278.7 491.9,258.4 492.7,271.8 493.4,272.6 494.1,276.6 494.9,272.8 495.6,274.0 496.3,274.3 497.1,273.5 497.8,276.4 498.5,274.5 499.3,272.5 500.0,272.2 500.7,271.4 501.5,271.3 502.2,271.4 503.0,271.4 503.7,271.8 504.4,271.3 505.2,272.1 505.9,272.6 506.6,274.3 507.4,274.1 508.1,273.8 508.8,273.3 509.6,269.4 510.3,270.8 511.0,272.6 511.8,272.9 512.5,275.9 513.3,273.4 514.0,270.3 514.7,272.4 515.5,272.6 516.2,270.9 517.0,272.9 517.7,275.7 518.4,274.1 519.1,272.7 519.9,276.0 520.6,276.4 521.4,272.8 522.1,267.7 522.8,276.9 523.6,275.3 524.3,274.4 525.1,276.0 525.8,278.2 526.5,275.6 527.3,274.6 528.0,277.0 528.7,273.0 529.5,277.3 530.2,281.3 530.9,274.9 531.7,274.8 532.4,277.9 533.2,274.4 533.9,276.6 534.6,275.9 535.4,276.2 536.1,276.5 536.8,274.5 537.6,272.7 538.3,277.3 539.1,275.1 539.8,277.9 540.5,279.8 541.3,275.7 542.0,276.6 542.7,276.6 543.5,275.5 544.2,277.6 544.9,278.1 545.7,274.1 546.4,275.6 547.2,276.7 547.9,270.1 548.6,274.0 549.4,275.2 550.1,272.7 550.8,275.4 551.6,275.6 552.3,275.6 553.0,274.8 553.8,276.2 554.5,271.5 555.2,272.5 556.0,265.9 556.7,274.9 557.4,273.8 558.2,275.8 558.9,276.9 559.7,279.1 560.4,273.6 561.1,276.7 561.9,273.2 562.6,272.3 563.3,271.3 564.1,272.7 564.8,275.1 565.6,275.9 566.3,280.3 567.0,276.8 567.8,274.6 568.5,275.5 569.2,260.9 570.0,276.9 570.7,276.4 571.5,274.0 572.2,274.9 572.9,275.8 573.7,275.8 574.4,276.3 575.1,275.4 575.9,278.3 576.6,271.3 577.4,275.9 578.1,276.4 578.8,279.1 579.6,283.6 580.3,279.9 581.0,277.5 581.8,277.8 582.5,275.4 583.2,276.0 584.0,276.5 584.7,277.2 585.5,276.3 586.2,275.6 586.9,274.3 587.7,279.9 588.4,277.1 589.1,273.7 589.9,270.0 590.6,274.0 591.3,276.9 592.1,278.1 592.8,279.0 593.5,276.1 594.3,273.8 595.0,281.4 595.8,270.3 596.5,278.2 597.2,275.5 598.0,279.5 598.7,276.5 599.5,276.2 600.2,276.6 600.9,275.1 601.7,273.2 602.4,275.3 603.1,277.2 603.9,286.5 604.6,278.8 605.4,274.6 606.1,276.1 606.8,274.3 607.6,272.3 608.3,275.9 609.0,277.5 609.8,275.1 610.5,278.5 611.2,278.1 612.0,276.3 612.7,277.7 613.5,278.4 614.2,278.1 614.9,273.8 615.7,275.3 616.4,276.8 617.2,279.0 617.9,275.3 618.6,287.6 619.4,274.6 620.1,277.9 620.8,274.8 621.6,271.4 622.3,281.9 623.1,274.8 623.8,276.4 624.5,273.2 625.3,276.1 626.0,277.5 626.8,275.6 627.5,274.0 628.2,274.0 629.0,273.0 629.7,275.5 630.5,276.9 631.2,276.2 631.9,278.3 632.7,281.9 633.4,279.1 634.1,278.7 634.9,276.7 635.6,278.3 636.3,278.5 637.1,277.2 637.8,277.3 638.5,275.2 639.3,276.3 640.0,276.4 640.7,277.7 641.5,278.0 642.2,276.2 643.0,279.2 643.7,278.6 644.4,281.1 645.2,280.1 645.9,279.2 646.6,274.3 647.4,280.3 648.1,281.9 648.8,292.1 649.6,280.0 650.3,278.3 651.1,277.4 651.8,278.2 652.5,281.5 653.3,279.4 654.0,279.0 654.7,277.7 655.5,282.5 656.2,278.6 656.9,281.7 657.7,278.3 658.4,278.7 659.2,277.4 659.9,278.6 660.6,278.8 661.4,278.2 662.1,281.6 662.8,276.4 663.6,278.2 664.3,277.5 665.0,282.3 665.8,279.1 666.5,280.0 667.2,282.8 668.0,279.9 668.7,280.2 669.4,277.4 670.2,281.5 670.9,280.2 671.7,280.6 672.4,278.8 673.1,277.9 673.9,276.0 674.6,282.3" fill="none" stroke="#64748b" stroke-width="1.5" stroke-dasharray="5,3"/>
<polyline points="65.0,119.4 65.9,52.7 66.8,86.2 67.6,142.7 68.5,161.5 69.4,156.3 70.3,155.7 71.2,161.1 72.1,166.6 72.9,167.7 73.8,171.3 74.7,174.1 75.6,175.5 76.5,177.5 77.4,179.8 78.3,181.4 79.2,182.7 80.1,184.5 81.0,186.2 81.9,187.0 82.8,190.0 83.7,191.9 84.6,194.1 85.5,196.4 86.4,197.9 87.3,199.9 88.2,201.2 89.1,202.3 90.0,204.3 90.9,206.3 91.8,206.4 92.7,208.0 93.6,208.9 94.5,209.5 95.4,211.1 96.3,211.3 97.2,212.5 98.1,212.5 99.0,214.4 99.9,213.9 100.8,215.3 101.7,216.4 102.6,215.7 103.5,216.4 104.4,217.7 105.3,218.6 106.2,219.0 107.1,219.4 108.0,220.8 108.9,221.3 109.8,221.6 110.7,222.6 111.6,222.8 112.6,223.6 113.5,224.5 114.4,225.5 115.3,226.1 116.2,226.8 117.1,228.1 118.0,227.8 118.9,228.9 119.8,229.6 120.7,230.9 121.6,230.1 122.5,232.3 123.4,231.6 124.3,231.5 125.2,231.6 126.1,233.9 127.0,233.4 127.9,234.1 128.8,235.2 129.7,234.9 130.6,235.7 131.5,235.1 132.4,236.0 133.3,235.6 134.2,236.7 135.1,237.2 136.0,237.9 136.9,238.9 137.8,238.3 138.7,237.7 139.6,237.5 140.5,237.2 141.4,238.5 142.3,240.6 143.2,239.2 144.1,240.0 145.1,240.8 146.0,240.6 146.9,239.6 147.8,241.5 148.7,240.7 149.6,241.3 150.5,241.1 151.4,242.0 152.3,241.0 153.2,241.7 154.1,241.9 155.0,243.3 155.9,242.7 156.8,243.0 157.7,241.9 158.6,241.4 159.5,243.1 160.4,242.6 161.3,242.9 162.2,245.2 163.1,244.0 164.0,244.5 165.0,244.9 165.9,243.9 166.8,244.7 167.7,244.5 168.6,245.2 169.5,246.0 170.4,246.6 171.3,245.5 172.2,244.9 173.1,245.6 174.0,245.1 174.9,246.1 175.8,247.2 176.7,247.3 177.6,246.1 178.5,247.1 179.4,246.9 180.3,245.1 181.2,247.1 182.1,247.4 183.0,247.4 183.9,247.6 184.8,247.9 185.7,247.2 186.6,248.3 187.6,247.6 188.5,249.6 189.4,249.0 190.3,249.1 191.2,248.3 192.1,248.3 193.0,249.4 193.9,249.3 194.8,249.5 195.7,250.8 196.6,250.1 197.5,250.4 198.4,249.8 199.3,250.9 200.2,250.2 201.1,251.3 202.0,252.0 202.9,250.4 203.9,252.9 204.8,251.8 205.7,253.4 206.6,251.1 207.5,253.1 208.4,251.5 209.3,251.4 210.2,252.7 211.1,254.8 212.0,253.4 212.9,253.4 213.8,253.9 214.7,253.9 215.6,253.4 216.5,253.7 217.4,255.7 218.3,254.0 219.2,255.2 220.1,252.9 221.0,253.1 221.9,255.2 222.8,255.2 223.7,256.3 224.7,255.4 225.6,254.5 226.5,254.6 227.4,255.0 228.3,256.5 229.2,256.3 230.1,255.8 231.0,255.9 231.9,257.0 232.8,257.2 233.7,257.1 234.6,256.5 235.5,255.8 236.4,256.3 237.3,258.8 238.2,258.0 239.1,258.1 240.0,256.3 240.9,257.9 241.8,259.1 242.7,258.0 243.6,257.6 244.5,257.8 245.4,257.2 246.3,257.6 247.3,256.5 248.2,258.1 249.1,258.6 250.0,259.1 250.9,259.2 251.8,260.2 252.7,261.3 253.6,258.7 254.5,259.0 255.4,259.4 256.3,260.9 257.2,260.5 258.1,259.7 259.0,259.7 259.9,261.0 260.8,260.6 261.7,259.7 262.6,260.2 263.5,259.7 264.4,261.4 265.3,261.0 266.2,261.5 267.1,261.7 268.0,260.4 268.9,261.4 269.8,260.9 270.8,261.8 271.7,262.0 272.6,260.4 273.5,264.1 274.4,259.1 275.3,260.1 276.2,259.3 277.1,262.0 278.0,262.1 278.9,261.9 279.8,260.7 280.7,262.1 281.6,262.4 282.5,260.8 283.4,263.4 284.3,262.8 285.2,262.0 286.1,261.7 287.0,263.6 287.9,263.4 288.8,262.3 289.7,262.2 290.6,261.7 291.6,263.3 292.5,262.3 293.4,261.4 294.3,264.0 295.2,262.3 296.1,263.4 297.0,262.5 297.9,263.3 298.8,264.1 299.7,264.1 300.6,263.3 301.5,263.9 302.4,262.6 303.3,262.8 304.2,263.9 305.1,265.6 306.0,264.6 306.9,264.9 307.8,264.2 308.7,264.1 309.6,264.2 310.5,264.0 311.4,263.9 312.3,264.1 313.2,263.5 314.1,265.0 315.0,264.0 315.9,264.6 316.9,268.6 317.8,264.2 318.7,262.1 319.6,264.9 320.5,265.2 321.4,265.7 322.3,265.2 323.2,265.3 324.1,265.8 325.0,265.3 325.9,266.1 326.8,266.4 327.7,265.0 328.6,264.8 329.5,265.4 330.4,265.4 331.3,267.3 332.2,266.0 333.1,265.4 334.0,266.8 334.9,265.3 335.8,267.7 336.8,266.5 337.7,264.6 338.6,266.4 339.5,267.3 340.4,265.8 341.3,266.6 342.2,267.0 343.1,266.7 344.0,267.1 344.9,265.5 345.8,265.3 346.7,267.2 347.6,267.5 348.5,266.5 349.4,267.1 350.3,266.7 351.2,267.1 352.1,269.0 353.0,266.0 353.9,266.6 354.8,267.7 355.7,266.5 356.6,267.9 357.5,267.4 358.4,267.2 359.3,267.9 360.2,267.0 361.1,267.8 362.0,267.5 363.0,266.7 363.9,269.5 364.8,265.9 365.7,268.7 366.6,268.8 367.5,267.3 368.4,266.8 369.3,266.6 370.2,268.3 371.1,268.0 372.0,268.3 372.9,267.7 373.8,270.0 374.7,268.8 375.6,267.6 376.5,267.0 377.4,269.0 378.3,270.1 379.2,267.1 380.1,269.1 381.0,268.7 381.9,269.0 382.8,270.7 383.7,268.1 384.6,269.4 385.5,268.3 386.4,269.7 387.3,269.8 388.2,269.0 389.1,267.0 390.0,268.7 390.9,269.3 391.8,268.2 392.7,268.8 393.6,267.5 394.5,269.0 395.4,268.8 396.3,270.2 397.2,271.1 398.1,269.2 399.0,270.1 399.9,268.9 400.8,270.3 401.7,270.1 402.6,270.1 403.5,268.2 404.4,268.2 405.3,269.9 406.2,271.0 407.1,268.6 408.0,268.4 408.9,271.0 409.8,268.0 410.7,271.3 411.6,269.0 412.5,269.0 413.4,271.3 414.3,269.7 415.2,270.2 416.1,270.1 417.0,269.8 417.9,268.9 418.8,269.9 419.7,271.5 420.6,272.2 421.5,271.5 422.4,269.4 423.3,269.7 424.2,270.4 425.1,271.4 426.0,271.0 426.9,271.3 427.8,272.3 428.7,270.4 429.6,270.0 430.5,270.6 431.5,269.5 432.4,270.5 433.3,270.6 434.2,269.8 435.1,271.5 436.0,270.2 436.9,270.2 437.8,271.9 438.7,271.5 439.6,270.0 440.5,271.3 441.4,270.6 442.3,271.1 443.2,268.9 444.1,271.7 445.0,272.1 445.9,272.2 446.8,272.5 447.7,273.3 448.6,272.2 449.5,270.9 450.5,272.3 451.4,271.4 452.3,270.4 453.2,271.1 454.1,271.9 455.0,269.3 455.9,269.8 456.8,273.7 457.7,271.3 458.6,270.7 459.5,271.8 460.4,272.1 461.3,269.7 462.2,272.2 463.1,270.4 464.0,272.3 464.9,274.0 465.8,272.1 466.7,271.8 467.6,270.1 468.5,273.7 469.4,272.4 470.3,270.6 471.3,271.0 472.2,274.3 473.1,272.3 474.0,273.2 474.9,272.1 475.8,273.7 476.7,270.8 477.6,272.5 478.5,274.7 479.4,272.0 480.3,272.6 481.2,271.6 482.1,272.5 483.0,273.4 483.9,273.0 484.8,271.7 485.7,273.9 486.6,272.9 487.5,272.3 488.4,272.9 489.3,273.5 490.2,273.4 491.1,272.1 492.0,273.2 493.0,271.6 493.9,273.0 494.8,273.0 495.7,272.4 496.6,272.8 497.5,273.8 498.4,272.9 499.3,272.1 500.2,272.7 501.1,272.2 502.0,272.2 502.9,272.6 503.8,273.7 504.7,274.0 505.6,273.9 506.5,274.0 507.4,273.2 508.3,272.5 509.2,274.7 510.1,274.4 511.0,271.6 511.9,273.4 512.8,272.8 513.7,273.5 514.6,273.9 515.5,273.0 516.4,272.9 517.3,271.9 518.2,274.5 519.1,273.1 520.0,273.0 520.9,274.7 521.8,274.1 522.7,276.0 523.6,273.1 524.5,275.2 525.4,274.3 526.3,273.1 527.2,273.1 528.1,273.8 529.0,271.4 529.9,272.0 530.8,275.6 531.7,273.8 532.6,273.9 533.5,273.6 534.4,273.8 535.3,275.3 536.2,272.5 537.1,275.4 538.0,275.3 538.9,274.0 539.8,274.2 540.7,272.4 541.6,274.7 542.5,275.7 543.4,273.1 544.3,275.1 545.2,275.9 546.1,275.0 547.0,273.5 547.9,273.7 548.8,273.1 549.7,272.3 550.6,274.7 551.5,273.9 552.4,272.4 553.3,274.1 554.2,275.1 555.1,275.5 556.0,274.4 556.9,275.9 557.8,272.0 558.7,274.7 559.6,274.0 560.5,273.1 561.4,275.6 562.3,274.9 563.2,275.1 564.1,274.2 565.0,275.5 565.9,275.8 566.8,276.3 567.7,275.5 568.6,275.7 569.5,274.4 570.4,273.7 571.3,275.3 572.2,274.0 573.1,275.4 574.0,278.3 574.9,275.0 575.8,275.6 576.7,274.7 577.6,275.7 578.5,274.6 579.4,275.8 580.3,275.3 581.2,276.3 582.2,275.3 583.1,276.2 584.0,277.3 584.9,274.8 585.8,273.8 586.7,275.6 587.6,273.7 588.5,275.3 589.4,276.0 590.3,275.6 591.2,274.0 592.1,276.0 593.0,275.3 593.9,275.2 594.8,276.8 595.7,276.5 596.6,275.3 597.5,274.8 598.4,275.8 599.3,275.5 600.2,275.8 601.1,274.6 602.0,277.6 602.9,277.4 603.8,276.1 604.7,274.4 605.6,274.9 606.5,276.1 607.4,274.3 608.3,275.9 609.2,275.9 610.1,278.1 611.0,276.4 611.9,275.7 612.8,276.5 613.7,277.8 614.6,275.6 615.5,277.1 616.4,275.8 617.3,276.8 618.2,275.6 619.1,276.3 620.0,274.9 620.9,276.8 621.8,275.1 622.7,275.5 623.6,277.7 624.5,277.8 625.4,278.6 626.3,278.1 627.2,276.4 628.2,276.7 629.1,276.5 630.0,277.6 630.8,277.1 631.7,277.4 632.6,276.7 633.5,277.2 634.4,276.1 635.3,274.3 636.2,276.3 637.1,276.7 638.0,278.5 638.9,278.1 639.8,276.3 640.8,276.5 641.6,275.4 642.5,277.8 643.4,276.6 644.3,278.2 645.2,275.6 646.2,278.3 647.1,276.9 648.0,279.0 648.9,278.0 649.7,276.8 650.6,278.8 651.6,277.5 652.5,274.7 653.4,277.6 654.3,277.4 655.2,277.6 656.1,278.0 657.0,276.3 657.9,276.8 658.8,276.5 659.7,276.9 660.6,275.9 661.5,279.8 662.4,277.3 663.3,278.4 664.2,276.2 665.1,277.9 666.0,278.0 666.9,277.1 667.8,277.1 668.7,275.9 669.6,276.7 670.5,278.5 671.4,276.5 672.3,277.8 673.2,278.8 674.1,278.3 675.0,277.4" fill="none" stroke="#16a34a" stroke-width="1.5"/>
<polyline points="65.0,284.5 65.9,180.1 66.8,42.8 67.6,195.3 68.5,322.6 69.4,284.6 70.3,244.6 71.2,246.5 72.1,253.0 72.9,249.0 73.8,261.4 74.7,264.2 75.6,252.2 76.5,259.2 77.4,261.7 78.3,261.4 79.2,275.0 80.1,262.1 81.0,241.0 81.9,242.0 82.8,246.5 83.7,245.6 84.6,247.5 85.5,250.6 86.4,248.9 87.3,256.4 88.2,254.7 89.1,252.6 90.0,261.2 90.9,265.2 91.8,258.4 92.7,266.2 93.6,273.0 94.5,262.0 95.4,267.0 96.3,266.6 97.2,265.3 98.1,273.0 99.0,281.3 99.9,273.5 100.8,276.7 101.7,273.8 102.6,271.8 103.5,284.4 104.4,267.4 105.3,273.1 106.2,269.0 107.1,273.0 108.0,270.4 108.9,273.6 109.8,270.8 110.7,270.9 111.6,263.6 112.6,270.6 113.5,268.1 114.4,272.8 115.3,277.2 116.2,270.7 117.1,284.6 118.0,277.9 118.9,278.6 119.8,275.4 120.7,283.6 121.6,275.8 122.5,280.1 123.4,274.6 124.3,278.0 125.2,278.4 126.1,292.4 127.0,296.5 127.9,284.6 128.8,293.4 129.7,284.6 130.6,289.0 131.5,289.6 132.4,302.1 133.3,290.3 134.2,289.6 135.1,288.6 136.0,297.1 136.9,292.3 137.8,298.5 138.7,284.6 139.6,286.1 140.5,281.5 141.4,282.7 142.3,291.5 143.2,282.0 144.1,286.4 145.1,291.9 146.0,294.8 146.9,282.9 147.8,286.0 148.7,284.9 149.6,285.3 150.5,286.6 151.4,293.5 152.3,282.5 153.2,284.8 154.1,283.8 155.0,300.6 155.9,280.9 156.8,287.7 157.7,282.9 158.6,278.6 159.5,285.2 160.4,279.4 161.3,282.7 162.2,286.6 163.1,293.4 164.0,281.9 165.0,284.3 165.9,280.7 166.8,280.1 167.7,282.2 168.6,282.4 169.5,289.1 170.4,287.5 171.3,285.0 172.2,276.4 173.1,285.3 174.0,283.7 174.9,286.2 175.8,287.6 176.7,291.7 177.6,280.1 178.5,285.0 179.4,286.8 180.3,284.1 181.2,285.9 182.1,282.4 183.0,287.2 183.9,284.7 184.8,295.4 185.7,294.3 186.6,287.8 187.6,282.1 188.5,294.2 189.4,295.4 190.3,293.2 191.2,289.4 192.1,285.8 193.0,293.4 193.9,288.6 194.8,285.8 195.7,290.4 196.6,291.5 197.5,303.8 198.4,301.2 199.3,289.5 200.2,285.6 201.1,296.7 202.0,290.8 202.9,281.9 203.9,295.5 204.8,289.0 205.7,294.7 206.6,286.4 207.5,293.1 208.4,288.0 209.3,288.1 210.2,287.0 211.1,294.2 212.0,293.5 212.9,291.2 213.8,285.3 214.7,299.9 215.6,292.4 216.5,287.8 217.4,292.5 218.3,279.5 219.2,284.4 220.1,280.2 221.0,282.9 221.9,290.0 222.8,288.5 223.7,294.2 224.7,287.4 225.6,280.7 226.5,278.7 227.4,281.0 228.3,285.4 229.2,283.4 230.1,278.5 231.0,281.6 231.9,277.8 232.8,282.8 233.7,281.1 234.6,278.1 235.5,276.4 236.4,274.4 237.3,282.4 238.2,276.8 239.1,283.4 240.0,320.0 240.9,282.8 241.8,292.6 242.7,282.3 243.6,269.2 244.5,288.7 245.4,282.9 246.3,280.8 247.3,278.5 248.2,278.4 249.1,279.8 250.0,282.3 250.9,284.5 251.8,289.6 252.7,284.3 253.6,282.1 254.5,283.8 255.4,275.6 256.3,281.7 257.2,283.1 258.1,278.6 259.0,279.4 259.9,280.9 260.8,284.9 261.7,282.0 262.6,290.5 263.5,288.9 264.4,285.2 265.3,283.1 266.2,293.5 267.1,287.6 268.0,283.3 268.9,287.3 269.8,288.8 270.8,282.4 271.7,282.0 272.6,297.1 273.5,314.5 274.4,287.0 275.3,283.0 276.2,279.0 277.1,293.0 278.0,286.0 278.9,278.4 279.8,283.9 280.7,291.8 281.6,286.5 282.5,283.2 283.4,292.7 284.3,296.4 285.2,285.9 286.1,285.6 287.0,289.8 287.9,287.1 288.8,277.3 289.7,285.2 290.6,281.5 291.6,282.6 292.5,286.0 293.4,283.7 294.3,295.7 295.2,273.6 296.1,281.7 297.0,285.5 297.9,282.6 298.8,281.5 299.7,290.1 300.6,285.4 301.5,289.8 302.4,280.8 303.3,277.8 304.2,282.8 305.1,288.8 306.0,284.2 306.9,283.7 307.8,278.5 308.7,280.3 309.6,284.6 310.5,286.0 311.4,283.1 312.3,277.9 313.2,274.6 314.1,276.9 315.0,280.3 315.9,284.2 316.9,297.5 317.8,277.8 318.7,273.9 319.6,288.5 320.5,279.2 321.4,275.3 322.3,281.5 323.2,284.3 324.1,282.7 325.0,278.5 325.9,283.5 326.8,283.3 327.7,281.3 328.6,275.4 329.5,283.5 330.4,280.8 331.3,284.3 332.2,280.9 333.1,274.3 334.0,285.4 334.9,277.6 335.8,294.7 336.8,292.2 337.7,285.0 338.6,284.6 339.5,291.5 340.4,282.3 341.3,283.3 342.2,292.3 343.1,274.1 344.0,327.2 344.9,300.1 345.8,275.9 346.7,291.7 347.6,283.4 348.5,290.7 349.4,286.6 350.3,286.3 351.2,291.8 352.1,295.3 353.0,284.3 353.9,286.2 354.8,289.8 355.7,285.7 356.6,285.4 357.5,278.7 358.4,289.6 359.3,290.6 360.2,287.9 361.1,291.0 362.0,285.7 363.0,287.5 363.9,293.1 364.8,280.0 365.7,288.8 366.6,284.6 367.5,286.8 368.4,288.6 369.3,286.9 370.2,271.2 371.1,282.6 372.0,295.2 372.9,290.7 373.8,300.6 374.7,292.8 375.6,290.4 376.5,281.0 377.4,288.7 378.3,294.1 379.2,282.0 380.1,274.6 381.0,270.8 381.9,286.5 382.8,292.2 383.7,283.7 384.6,281.6 385.5,285.8 386.4,283.5 387.3,285.6 388.2,279.1 389.1,281.0 390.0,283.3 390.9,286.0 391.8,281.8 392.7,280.9 393.6,288.9 394.5,287.1 395.4,275.9 396.3,289.4 397.2,285.6 398.1,284.1 399.0,284.5 399.9,277.4 400.8,286.9 401.7,283.3 402.6,284.5 403.5,275.6 404.4,274.4 405.3,284.1 406.2,287.1 407.1,275.6 408.0,274.1 408.9,291.7 409.8,288.3 410.7,294.2 411.6,284.8 412.5,284.0 413.4,291.6 414.3,290.6 415.2,292.7 416.1,289.5 417.0,285.4 417.9,290.5 418.8,290.2 419.7,292.8 420.6,296.4 421.5,295.5 422.4,283.0 423.3,296.3 424.2,283.2 425.1,293.6 426.0,283.7 426.9,288.7 427.8,296.1 428.7,286.9 429.6,278.0 430.5,287.5 431.5,282.9 432.4,289.1 433.3,293.2 434.2,288.7 435.1,294.0 436.0,292.1 436.9,288.8 437.8,291.7 438.7,288.7 439.6,281.2 440.5,288.6 441.4,292.6 442.3,292.4 443.2,282.2 444.1,301.6 445.0,296.5 445.9,293.1 446.8,289.4 447.7,290.4 448.6,302.8 449.5,292.6 450.5,297.2 451.4,293.3 452.3,287.6 453.2,287.8 454.1,288.6 455.0,283.0 455.9,288.2 456.8,297.3 457.7,288.4 458.6,282.4 459.5,279.4 460.4,290.0 461.3,280.7 462.2,281.3 463.1,278.2 464.0,285.4 464.9,284.4 465.8,285.9 466.7,281.5 467.6,277.5 468.5,289.0 469.4,283.8 470.3,274.8 471.3,288.5 472.2,279.7 473.1,279.6 474.0,285.0 474.9,280.8 475.8,281.5 476.7,280.0 477.6,284.1 478.5,292.3 479.4,286.6 480.3,298.1 481.2,293.7 482.1,291.4 483.0,289.2 483.9,293.9 484.8,291.1 485.7,294.8 486.6,291.2 487.5,271.0 488.4,285.0 489.3,288.5 490.2,286.9 491.1,272.2 492.0,323.2 493.0,287.1 493.9,282.9 494.8,287.7 495.7,284.0 496.6,285.1 497.5,285.0 498.4,283.3 499.3,287.3 500.2,290.4 501.1,290.6 502.0,290.5 502.9,291.7 503.8,293.5 504.7,294.7 505.6,292.2 506.5,288.6 507.4,286.0 508.3,285.4 509.2,297.2 510.1,298.8 511.0,286.1 511.9,288.6 512.8,282.7 513.7,293.5 514.6,293.4 515.5,289.6 516.4,292.6 517.3,282.4 518.2,288.1 519.1,289.3 520.0,280.6 520.9,287.3 521.8,299.5 522.7,290.9 523.6,282.8 524.5,289.4 525.4,281.6 526.3,280.0 527.2,284.1 528.1,281.4 529.0,280.2 529.9,269.3 530.8,286.8 531.7,285.8 532.6,280.3 533.5,283.8 534.4,282.3 535.3,286.1 536.2,278.7 537.1,292.1 538.0,288.6 538.9,284.1 539.8,279.1 540.7,271.8 541.6,284.9 542.5,286.2 543.4,281.9 544.3,282.1 545.2,286.6 546.1,288.5 547.0,280.8 547.9,297.6 548.8,285.5 549.7,283.9 550.6,289.0 551.5,284.1 552.4,280.3 553.3,285.5 554.2,292.2 555.1,296.8 556.0,311.1 556.9,291.6 557.8,281.3 558.7,283.8 559.6,276.2 560.5,286.2 561.4,288.4 562.3,294.1 563.2,297.5 564.1,292.4 565.0,289.0 565.9,283.4 566.8,284.1 567.7,290.0 568.6,292.9 569.5,312.0 570.4,280.8 571.3,290.2 572.2,286.3 573.1,287.3 574.0,294.2 574.9,286.4 575.8,282.6 576.7,296.4 577.6,287.6 578.5,280.2 579.4,271.7 580.3,276.8 581.2,285.1 582.2,285.7 583.1,289.2 584.0,290.4 584.9,283.0 585.8,282.8 586.7,290.8 587.6,273.8 588.5,285.0 589.4,297.9 590.3,296.9 591.2,282.4 592.1,283.0 593.0,281.0 593.9,289.0 594.8,283.1 595.7,301.9 596.6,282.0 597.5,283.0 598.4,283.4 599.3,286.4 600.2,286.6 601.1,288.2 602.0,297.0 602.9,290.6 603.8,265.1 604.7,278.7 605.6,287.8 606.5,290.9 607.4,292.6 608.3,288.3 609.2,285.6 610.1,292.1 611.0,283.7 611.9,286.5 612.8,285.3 613.7,287.1 614.6,288.5 615.5,293.8 616.4,285.7 617.3,285.2 618.2,275.2 619.1,282.7 620.0,281.7 620.9,294.6 621.8,289.0 622.7,282.3 623.6,292.6 624.5,300.0 625.4,293.9 626.3,292.0 627.2,293.2 628.2,295.3 629.1,296.7 630.0,292.7 630.8,290.0 631.7,287.5 632.6,275.6 633.5,283.7 634.4,284.1 635.3,279.5 636.2,282.8 637.1,287.3 638.0,293.2 638.9,294.2 639.8,288.3 640.8,285.5 641.6,283.0 642.5,289.0 643.4,283.1 644.3,282.0 645.2,277.5 646.2,290.7 647.1,286.2 648.0,282.0 648.9,255.4 649.7,281.5 650.6,290.6 651.6,287.2 652.5,272.0 653.4,284.1 654.3,285.5 655.2,281.3 656.1,285.1 657.0,275.1 657.9,284.3 658.8,284.5 659.7,285.3 660.6,281.3 661.5,291.4 662.4,282.3 663.3,290.7 664.2,284.8 665.1,277.9 666.0,285.2 666.9,277.6 667.8,279.4 668.7,277.7 669.6,284.6 670.5,282.2 671.4,278.6 672.3,285.4 673.2,291.2 674.1,289.3" fill="none" stroke="#2563eb" stroke-width="2.5"/>
<rect x="65" y="20" width="610" height="330" fill="none" stroke="#888" stroke-width="1.5"/>
<line x1="62" y1="308.5" x2="65" y2="308.5" stroke="#64748b" stroke-width="1" opacity="0.6"/>
<line x1="62" y1="260.0" x2="65" y2="260.0" stroke="#64748b" stroke-width="1" opacity="0.6"/>
<line x1="62" y1="199.0" x2="65" y2="199.0" stroke="#64748b" stroke-width="1" opacity="0.6"/>
<line x1="60" y1="116.3" x2="65" y2="116.3" stroke="#64748b" stroke-width="1.5"/>
<text x="57" y="116.3" text-anchor="end" dominant-baseline="middle" font-size="11" font-family="monospace,sans-serif" fill="#64748b">10</text>
<line x1="62" y1="33.5" x2="65" y2="33.5" stroke="#64748b" stroke-width="1" opacity="0.6"/>
<line x1="675" y1="288.4" x2="680" y2="288.4" stroke="#2563eb" stroke-width="1.5"/>
<text x="683" y="288.4" text-anchor="start" dominant-baseline="middle" font-size="11" font-family="monospace,sans-serif" fill="#2563eb">0.0</text>
<line x1="675" y1="172.3" x2="680" y2="172.3" stroke="#2563eb" stroke-width="1.5"/>
<text x="683" y="172.3" text-anchor="start" dominant-baseline="middle" font-size="11" font-family="monospace,sans-serif" fill="#2563eb">1.0</text>
<line x1="675" y1="56.3" x2="680" y2="56.3" stroke="#2563eb" stroke-width="1.5"/>
<text x="683" y="56.3" text-anchor="start" dominant-baseline="middle" font-size="11" font-family="monospace,sans-serif" fill="#2563eb">2.0</text>
<line x1="65.0" y1="350" x2="65.0" y2="355" stroke="#888" stroke-width="1.5"/>
<text x="65.0" y="368" text-anchor="middle" font-size="11" font-family="monospace,sans-serif">0</text>
<line x1="187.1" y1="350" x2="187.1" y2="355" stroke="#888" stroke-width="1.5"/>
<text x="187.1" y="368" text-anchor="middle" font-size="11" font-family="monospace,sans-serif">2</text>
<line x1="309.1" y1="350" x2="309.1" y2="355" stroke="#888" stroke-width="1.5"/>
<text x="309.1" y="368" text-anchor="middle" font-size="11" font-family="monospace,sans-serif">4</text>
<line x1="431.2" y1="350" x2="431.2" y2="355" stroke="#888" stroke-width="1.5"/>
<text x="431.2" y="368" text-anchor="middle" font-size="11" font-family="monospace,sans-serif">6</text>
<line x1="553.3" y1="350" x2="553.3" y2="355" stroke="#888" stroke-width="1.5"/>
<text x="553.3" y="368" text-anchor="middle" font-size="11" font-family="monospace,sans-serif">8</text>
<line x1="675.3" y1="350" x2="675.3" y2="355" stroke="#888" stroke-width="1.5"/>
<text x="675.3" y="368" text-anchor="middle" font-size="11" font-family="monospace,sans-serif">10</text>
<text x="370" y="392" text-anchor="middle" font-size="13" font-family="sans-serif">Runtime (minutes)</text>
<text transform="rotate(-90,28,185)" x="28" y="185" text-anchor="middle" font-size="13" font-family="sans-serif" fill="#64748b">Train loss (log scale)</text>
<text transform="rotate(90,746,185)" x="746" y="185" text-anchor="middle" font-size="13" font-family="sans-serif" fill="#2563eb">Train loss diff (exp − base)</text>
<rect x="72" y="26" width="140" height="62" fill="white" fill-opacity="0.85" stroke="#ddd" stroke-width="1" rx="3"/>
<line x1="77" y1="37" x2="99" y2="37" stroke="#64748b" stroke-width="1.5" stroke-dasharray="5,3"/>
<text x="104" y="41" font-size="11" font-family="sans-serif" fill="#64748b">Baseline train loss</text>
<line x1="77" y1="55" x2="99" y2="55" stroke="#16a34a" stroke-width="1.5"/>
<text x="104" y="59" font-size="11" font-family="sans-serif" fill="#16a34a">Experiment train loss</text>
<line x1="77" y1="73" x2="99" y2="73" stroke="#2563eb" stroke-width="2.5"/>
<text x="104" y="77" font-size="11" font-family="sans-serif" fill="#2563eb">Train loss diff</text>
</svg>