<svg xmlns="http://www.w3.org/2000/svg" viewBox="0 0 760 400" width="760" height="400" style="background:white">
<rect x="65" y="20" width="610" height="330" fill="#f9f9f9"/>
<line x1="65" y1="308.5" x2="675" y2="308.5" stroke="#ececec" stroke-width="1"/>
<line x1="65" y1="260.0" x2="675" y2="260.0" stroke="#ececec" stroke-width="1"/>
<line x1="65" y1="199.0" x2="675" y2="199.0" stroke="#ececec" stroke-width="1"/>
<line x1="65" y1="116.3" x2="675" y2="116.3" stroke="#ddd" stroke-width="1"/>
<line x1="65" y1="33.5" x2="675" y2="33.5" stroke="#ececec" stroke-width="1"/>
<line x1="65.0" y1="20" x2="65.0" y2="350" stroke="#ececec" stroke-width="1"/>
<line x1="187.1" y1="20" x2="187.1" y2="350" stroke="#ececec" stroke-width="1"/>
<line x1="309.1" y1="20" x2="309.1" y2="350" stroke="#ececec" stroke-width="1"/>
<line x1="431.2" y1="20" x2="431.2" y2="350" stroke="#ececec" stroke-width="1"/>
<line x1="553.3" y1="20" x2="553.3" y2="350" stroke="#ececec" stroke-width="1"/>
<line x1="675.3" y1="20" x2="675.3" y2="350" stroke="#ececec" stroke-width="1"/>
<line x1="65" y1="170.3" x2="675" y2="170.3" stroke="#2563eb" stroke-width="0.75" stroke-dasharray="3,3" opacity="0.4"/>
<polyline points="65.0,119.8 65.9,52.3 66.8,85.9 67.7,141.9 68.5,160.7 69.4,155.7 70.3,156.5 71.2,162.7 72.1,166.9 73.0,169.9 73.9,172.4 74.8,173.8 75.7,175.9 76.6,177.5 77.5,179.6 78.4,181.0 79.3,183.0 80.2,183.4 81.1,184.7 82.0,186.8 82.9,188.5 83.8,189.8 84.8,191.8 85.7,194.1 86.6,196.0 87.5,198.4 88.4,200.2 89.3,202.2 90.2,203.8 91.1,204.9 92.0,205.8 92.9,206.4 93.8,208.2 94.7,209.1 95.6,210.4 96.6,211.1 97.5,211.1 98.4,212.1 99.3,212.8 100.2,213.6 101.1,214.1 102.0,214.9 102.9,215.6 103.8,215.8 104.7,216.1 105.6,217.8 106.6,217.8 107.5,218.1 108.4,217.3 109.3,219.7 110.2,219.0 111.1,220.6 112.0,221.1 112.9,221.4 113.8,222.7 114.7,223.0 115.6,223.5 116.5,223.5 117.5,225.0 118.4,225.3 119.3,225.5 120.2,227.1 121.1,226.6 122.0,227.6 122.9,229.0 123.8,230.1 124.7,231.3 125.6,231.1 126.5,231.2 127.4,232.1 128.3,232.8 129.3,232.9 130.2,234.2 131.1,234.4 132.0,233.9 132.9,235.0 133.8,234.5 134.7,235.9 135.6,235.6 136.5,237.9 137.4,237.1 138.4,237.2 139.3,237.0 140.2,237.6 141.1,239.4 142.0,238.3 142.9,238.8 143.8,239.9 144.7,239.5 145.6,238.3 146.5,241.9 147.4,240.8 148.4,239.8 149.3,241.2 150.2,241.4 151.1,240.8 152.0,241.5 152.9,241.1 153.8,242.0 154.7,242.8 155.6,241.8 156.5,242.4 157.5,243.6 158.4,242.1 159.3,244.4 160.2,243.1 161.1,241.7 162.0,243.7 162.9,243.0 163.8,243.0 164.7,244.0 165.7,244.7 166.6,245.1 167.5,244.9 168.4,243.6 169.3,245.6 170.2,244.9 171.2,245.7 172.1,245.8 173.0,245.1 173.9,245.5 174.8,243.8 175.7,246.4 176.6,247.1 177.5,245.8 178.4,246.7 179.3,245.7 180.3,246.6 181.2,248.8 182.1,246.9 183.0,247.1 183.9,246.4 184.8,247.0 185.7,247.1 186.6,246.9 187.5,248.4 188.5,248.5 189.4,247.2 190.3,248.2 191.2,247.3 192.1,248.0 193.0,248.8 193.9,248.7 194.9,249.3 195.8,249.8 196.7,249.9 197.6,248.7 198.5,248.9 199.4,249.4 200.3,249.8 201.2,250.6 202.1,250.9 203.1,250.6 204.0,250.6 204.9,250.7 205.8,251.2 206.7,250.9 207.6,251.7 208.5,251.1 209.4,251.6 210.3,250.5 211.2,251.8 212.2,252.9 213.1,252.1 214.0,251.4 214.9,252.8 215.8,254.1 216.7,252.1 217.6,254.1 218.5,252.5 219.4,253.2 220.3,252.9 221.2,253.3 222.2,252.9 223.1,253.1 224.0,253.1 224.9,254.8 225.8,253.9 226.7,254.3 227.6,254.1 228.5,255.1 229.4,254.1 230.3,255.0 231.3,254.9 232.2,255.5 233.1,255.8 234.0,255.4 234.9,255.2 235.8,255.8 236.7,256.6 237.6,254.9 238.5,257.0 239.4,257.0 240.4,257.3 241.3,256.6 242.2,256.1 243.1,257.7 244.0,257.0 244.9,256.8 245.8,257.0 246.7,257.4 247.7,260.1 248.6,257.3 249.5,259.1 250.4,258.5 251.3,260.0 252.2,258.0 253.1,259.1 254.0,258.2 254.9,258.5 255.9,260.0 256.8,259.8 257.7,259.5 258.6,258.8 259.5,260.4 260.4,261.4 261.3,259.1 262.2,259.4 263.1,259.9 264.0,260.1 264.9,260.3 265.8,260.0 266.7,260.6 267.6,259.9 268.5,261.4 269.4,260.4 270.3,261.5 271.2,261.4 272.1,261.2 273.0,261.8 273.9,261.4 274.8,261.4 275.7,261.1 276.6,262.3 277.5,262.9 278.5,261.9 279.4,262.9 280.3,264.3 281.2,262.7 282.1,263.3 283.0,261.5 283.9,263.0 284.8,263.4 285.7,262.7 286.6,264.2 287.5,264.5 288.4,262.7 289.3,263.4 290.2,262.3 291.1,263.0 292.0,263.5 292.9,261.0 293.8,264.5 294.7,263.5 295.6,263.4 296.6,264.1 297.5,264.0 298.4,263.6 299.3,265.3 300.2,266.6 301.1,265.4 302.0,263.5 302.9,264.7 303.8,266.3 304.7,264.6 305.6,264.9 306.5,265.2 307.4,263.7 308.3,265.0 309.2,264.3 310.1,264.3 311.0,262.9 311.9,265.6 312.8,265.4 313.7,265.0 314.6,265.2 315.6,265.2 316.5,264.8 317.4,265.8 318.3,266.4 319.2,264.3 320.1,267.2 321.0,263.6 321.9,267.2 322.8,264.4 323.7,265.9 324.6,266.3 325.6,267.2 326.5,264.2 327.4,265.3 328.3,267.0 329.2,267.6 330.1,267.6 331.0,265.1 331.9,268.2 332.8,266.4 333.7,266.4 334.6,266.9 335.5,266.8 336.5,267.2 337.4,267.6 338.3,268.1 339.2,267.0 340.1,267.1 341.0,267.3 341.9,268.4 342.8,267.3 343.7,268.7 344.6,267.0 345.5,267.8 346.4,267.1 347.3,269.2 348.2,268.7 349.1,267.8 350.1,269.7 351.0,268.7 351.9,268.7 352.8,268.8 353.7,267.1 354.6,268.8 355.5,268.7 356.4,268.7 357.3,267.2 358.2,267.2 359.1,267.5 360.0,268.8 360.9,269.4 361.9,269.2 362.8,269.6 363.7,268.0 364.6,267.7 365.5,269.2 366.4,269.0 367.3,268.5 368.2,266.7 369.1,268.0 370.0,269.3 370.9,269.6 371.8,269.3 372.7,269.6 373.7,269.0 374.6,268.1 375.5,269.0 376.4,268.2 377.3,269.1 378.2,270.6 379.1,267.9 380.0,268.9 380.9,270.2 381.8,270.0 382.7,269.0 383.6,268.8 384.5,270.4 385.4,268.3 386.3,270.8 387.3,270.7 388.2,269.5 389.1,271.0 390.0,271.0 390.9,271.1 391.8,269.2 392.7,272.3 393.6,270.0 394.5,271.1 395.4,269.3 396.3,267.4 397.2,270.8 398.2,270.3 399.1,272.6 400.0,270.0 400.9,270.1 401.8,269.6 402.7,270.8 403.6,271.8 404.5,272.5 405.4,269.3 406.3,270.3 407.2,271.5 408.1,270.6 409.1,273.1 410.0,271.7 410.9,269.1 411.8,269.7 412.7,270.7 413.6,272.0 414.5,272.5 415.4,271.3 416.3,270.7 417.2,271.4 418.1,270.0 419.0,270.3 420.0,272.3 420.9,270.7 421.8,270.6 422.7,271.3 423.6,269.8 424.5,271.0 425.4,272.8 426.3,270.2 427.2,272.2 428.1,271.8 429.0,271.0 430.0,272.8 430.9,270.8 431.7,272.9 432.7,271.8 433.6,272.7 434.5,271.4 435.4,271.9 436.3,271.1 437.2,270.9 438.1,270.0 439.0,271.7 439.9,271.3 440.8,270.5 441.7,271.7 442.6,272.6 443.6,273.3 444.5,272.2 445.4,272.8 446.3,273.4 447.2,271.5 448.1,271.9 449.0,271.4 449.9,272.0 450.8,271.9 451.7,270.8 452.6,272.8 453.5,271.2 454.4,270.2 455.3,273.4 456.3,270.9 457.2,271.9 458.1,272.8 459.0,271.7 459.9,273.1 460.8,274.0 461.7,272.7 462.6,273.3 463.5,271.2 464.4,272.4 465.3,272.9 466.3,273.2 467.2,272.7 468.1,273.3 469.0,272.3 469.9,272.9 470.8,273.8 471.7,273.6 472.6,272.7 473.5,270.7 474.4,272.9 475.3,274.7 476.2,271.2 477.2,274.6 478.1,274.7 479.0,273.1 479.9,275.3 480.8,271.3 481.7,273.6 482.6,273.4 483.5,272.5 484.4,273.6 485.3,271.4 486.2,272.7 487.1,274.0 488.0,273.9 488.9,272.7 489.8,274.6 490.8,274.3 491.7,273.1 492.6,273.5 493.5,274.6 494.4,273.5 495.3,272.8 496.2,273.6 497.1,274.5 498.0,272.4 498.9,273.3 499.8,273.3 500.7,270.9 501.6,273.3 502.5,272.7 503.5,273.1 504.4,272.8 505.3,274.8 506.2,274.7 507.1,274.2 508.0,276.2 508.9,271.7 509.8,273.5 510.7,273.2 511.6,274.0 512.5,274.5 513.4,274.5 514.4,274.0 515.3,274.4 516.2,274.2 517.1,272.8 518.0,274.5 518.9,271.4 519.8,273.0 520.7,272.7 521.6,274.1 522.5,274.7 523.4,272.6 524.3,272.0 525.2,274.4 526.2,273.8 527.1,273.1 528.0,273.3 528.9,275.3 529.8,274.8 530.7,274.1 531.6,274.3 532.5,274.1 533.4,273.7 534.3,273.1 535.2,274.1 536.1,276.4 537.0,275.3 537.9,275.6 538.8,276.9 539.7,273.7 540.7,276.7 541.6,276.2 542.5,275.1 543.4,275.9 544.3,275.4 545.2,274.7 546.1,274.2 547.0,274.7 547.9,274.2 548.8,274.9 549.7,275.9 550.6,276.2 551.5,273.7 552.4,275.0 553.4,273.3 554.3,275.8 555.2,273.9 556.1,276.8 557.0,273.7 557.9,274.2 558.8,273.3 559.7,275.1 560.6,274.9 561.5,275.0 562.4,274.3 563.3,274.6 564.2,275.3 565.2,275.9 566.1,274.7 567.0,276.4 567.9,273.7 568.8,275.2 569.7,275.2 570.6,273.0 571.5,276.4 572.4,278.0 573.3,275.9 574.2,276.8 575.1,276.2 576.1,277.2 577.0,276.2 577.9,274.6 578.8,275.6 579.7,276.3 580.6,275.2 581.5,276.5 582.4,276.3 583.3,275.9 584.2,276.3 585.2,276.4 586.1,274.4 587.0,277.2 587.9,276.8 588.8,274.2 589.7,278.1 590.6,275.1 591.5,277.3 592.4,274.7 593.4,275.6 594.3,275.0 595.2,274.3 596.1,275.9 597.0,275.5 597.9,275.5 598.8,277.4 599.7,277.0 600.6,275.2 601.5,275.3 602.4,276.0 603.3,275.4 604.2,276.6 605.1,278.5 606.1,276.9 607.0,276.7 607.9,273.9 608.8,275.4 609.7,279.5 610.6,277.9 611.5,277.7 612.4,276.2 613.3,277.4 614.2,276.1 615.1,277.7 616.0,277.1 616.9,276.3 617.8,275.2 618.7,279.7 619.6,278.3 620.5,275.4 621.5,277.0 622.4,276.9 623.3,275.9 624.2,277.9 625.1,275.3 626.0,275.7 626.9,276.8 627.8,276.6 628.7,276.8 629.6,279.1 630.5,277.9 631.4,275.0 632.3,278.4 633.2,277.6 634.1,275.4 635.0,278.9 635.9,276.4 636.9,279.3 637.8,276.9 638.7,275.9 639.6,276.9 640.5,279.1 641.4,276.2 642.3,278.5 643.2,276.6 644.1,276.2 645.0,278.0 645.9,275.3 646.8,277.4 647.7,275.3 648.6,276.5 649.5,279.1 650.4,278.8 651.3,276.1 652.2,278.3 653.1,277.7 654.0,278.0 655.0,278.0 655.9,277.8 656.8,276.0 657.7,278.1 658.6,277.4 659.5,275.9 660.4,278.5 661.3,277.5 662.2,275.7 663.1,278.4 664.0,276.5 664.9,277.0 665.8,278.3 666.7,276.2 667.6,277.4 668.5,279.2 669.5,277.8 670.4,279.6 671.3,276.1 672.2,278.8 673.1,277.6 674.0,279.0 674.9,276.3" fill="none" stroke="#64748b" stroke-width="1.5" stroke-dasharray="5,3"/>
<polyline points="65.0,119.4 65.9,52.7 66.8,86.2 67.6,142.7 68.5,161.5 69.4,156.3 70.3,155.7 71.2,161.1 72.1,166.6 72.9,167.7 73.8,171.3 74.7,174.1 75.6,175.5 76.5,177.5 77.4,179.8 78.3,181.4 79.2,182.7 80.1,184.5 81.0,186.2 81.9,187.0 82.8,190.0 83.7,191.9 84.6,194.1 85.5,196.4 86.4,197.9 87.3,199.9 88.2,201.2 89.1,202.3 90.0,204.3 90.9,206.3 91.8,206.4 92.7,208.0 93.6,208.9 94.5,209.5 95.4,211.1 96.3,211.3 97.2,212.5 98.1,212.5 99.0,214.4 99.9,213.9 100.8,215.3 101.7,216.4 102.6,215.7 103.5,216.4 104.4,217.7 105.3,218.6 106.2,219.0 107.1,219.4 108.0,220.8 108.9,221.3 109.8,221.6 110.7,222.6 111.6,222.8 112.6,223.6 113.5,224.5 114.4,225.5 115.3,226.1 116.2,226.8 117.1,228.1 118.0,227.8 118.9,228.9 119.8,229.6 120.7,230.9 121.6,230.1 122.5,232.3 123.4,231.6 124.3,231.5 125.2,231.6 126.1,233.9 127.0,233.4 127.9,234.1 128.8,235.2 129.7,234.9 130.6,235.7 131.5,235.1 132.4,236.0 133.3,235.6 134.2,236.7 135.1,237.2 136.0,237.9 136.9,238.9 137.8,238.3 138.7,237.7 139.6,237.5 140.5,237.2 141.4,238.5 142.3,240.6 143.2,239.2 144.1,240.0 145.1,240.8 146.0,240.6 146.9,239.6 147.8,241.5 148.7,240.7 149.6,241.3 150.5,241.1 151.4,242.0 152.3,241.0 153.2,241.7 154.1,241.9 155.0,243.3 155.9,242.7 156.8,243.0 157.7,241.9 158.6,241.4 159.5,243.1 160.4,242.6 161.3,242.9 162.2,245.2 163.1,244.0 164.0,244.5 165.0,244.9 165.9,243.9 166.8,244.7 167.7,244.5 168.6,245.2 169.5,246.0 170.4,246.6 171.3,245.5 172.2,244.9 173.1,245.6 174.0,245.1 174.9,246.1 175.8,247.2 176.7,247.3 177.6,246.1 178.5,247.1 179.4,246.9 180.3,245.1 181.2,247.1 182.1,247.4 183.0,247.4 183.9,247.6 184.8,247.9 185.7,247.2 186.6,248.3 187.6,247.6 188.5,249.6 189.4,249.0 190.3,249.1 191.2,248.3 192.1,248.3 193.0,249.4 193.9,249.3 194.8,249.5 195.7,250.8 196.6,250.1 197.5,250.4 198.4,249.8 199.3,250.9 200.2,250.2 201.1,251.3 202.0,252.0 202.9,250.4 203.9,252.9 204.8,251.8 205.7,253.4 206.6,251.1 207.5,253.1 208.4,251.5 209.3,251.4 210.2,252.7 211.1,254.8 212.0,253.4 212.9,253.4 213.8,253.9 214.7,253.9 215.6,253.4 216.5,253.7 217.4,255.7 218.3,254.0 219.2,255.2 220.1,252.9 221.0,253.1 221.9,255.2 222.8,255.2 223.7,256.3 224.7,255.4 225.6,254.5 226.5,254.6 227.4,255.0 228.3,256.5 229.2,256.3 230.1,255.8 231.0,255.9 231.9,257.0 232.8,257.2 233.7,257.1 234.6,256.5 235.5,255.8 236.4,256.3 237.3,258.8 238.2,258.0 239.1,258.1 240.0,256.3 240.9,257.9 241.8,259.1 242.7,258.0 243.6,257.6 244.5,257.8 245.4,257.2 246.3,257.6 247.3,256.5 248.2,258.1 249.1,258.6 250.0,259.1 250.9,259.2 251.8,260.2 252.7,261.3 253.6,258.7 254.5,259.0 255.4,259.4 256.3,260.9 257.2,260.5 258.1,259.7 259.0,259.7 259.9,261.0 260.8,260.6 261.7,259.7 262.6,260.2 263.5,259.7 264.4,261.4 265.3,261.0 266.2,261.5 267.1,261.7 268.0,260.4 268.9,261.4 269.8,260.9 270.8,261.8 271.7,262.0 272.6,260.4 273.5,264.1 274.4,259.1 275.3,260.1 276.2,259.3 277.1,262.0 278.0,262.1 278.9,261.9 279.8,260.7 280.7,262.1 281.6,262.4 282.5,260.8 283.4,263.4 284.3,262.8 285.2,262.0 286.1,261.7 287.0,263.6 287.9,263.4 288.8,262.3 289.7,262.2 290.6,261.7 291.6,263.3 292.5,262.3 293.4,261.4 294.3,264.0 295.2,262.3 296.1,263.4 297.0,262.5 297.9,263.3 298.8,264.1 299.7,264.1 300.6,263.3 301.5,263.9 302.4,262.6 303.3,262.8 304.2,263.9 305.1,265.6 306.0,264.6 306.9,264.9 307.8,264.2 308.7,264.1 309.6,264.2 310.5,264.0 311.4,263.9 312.3,264.1 313.2,263.5 314.1,265.0 315.0,264.0 315.9,264.6 316.9,268.6 317.8,264.2 318.7,262.1 319.6,264.9 320.5,265.2 321.4,265.7 322.3,265.2 323.2,265.3 324.1,265.8 325.0,265.3 325.9,266.1 326.8,266.4 327.7,265.0 328.6,264.8 329.5,265.4 330.4,265.4 331.3,267.3 332.2,266.0 333.1,265.4 334.0,266.8 334.9,265.3 335.8,267.7 336.8,266.5 337.7,264.6 338.6,266.4 339.5,267.3 340.4,265.8 341.3,266.6 342.2,267.0 343.1,266.7 344.0,267.1 344.9,265.5 345.8,265.3 346.7,267.2 347.6,267.5 348.5,266.5 349.4,267.1 350.3,266.7 351.2,267.1 352.1,269.0 353.0,266.0 353.9,266.6 354.8,267.7 355.7,266.5 356.6,267.9 357.5,267.4 358.4,267.2 359.3,267.9 360.2,267.0 361.1,267.8 362.0,267.5 363.0,266.7 363.9,269.5 364.8,265.9 365.7,268.7 366.6,268.8 367.5,267.3 368.4,266.8 369.3,266.6 370.2,268.3 371.1,268.0 372.0,268.3 372.9,267.7 373.8,270.0 374.7,268.8 375.6,267.6 376.5,267.0 377.4,269.0 378.3,270.1 379.2,267.1 380.1,269.1 381.0,268.7 381.9,269.0 382.8,270.7 383.7,268.1 384.6,269.4 385.5,268.3 386.4,269.7 387.3,269.8 388.2,269.0 389.1,267.0 390.0,268.7 390.9,269.3 391.8,268.2 392.7,268.8 393.6,267.5 394.5,269.0 395.4,268.8 396.3,270.2 397.2,271.1 398.1,269.2 399.0,270.1 399.9,268.9 400.8,270.3 401.7,270.1 402.6,270.1 403.5,268.2 404.4,268.2 405.3,269.9 406.2,271.0 407.1,268.6 408.0,268.4 408.9,271.0 409.8,268.0 410.7,271.3 411.6,269.0 412.5,269.0 413.4,271.3 414.3,269.7 415.2,270.2 416.1,270.1 417.0,269.8 417.9,268.9 418.8,269.9 419.7,271.5 420.6,272.2 421.5,271.5 422.4,269.4 423.3,269.7 424.2,270.4 425.1,271.4 426.0,271.0 426.9,271.3 427.8,272.3 428.7,270.4 429.6,270.0 430.5,270.6 431.5,269.5 432.4,270.5 433.3,270.6 434.2,269.8 435.1,271.5 436.0,270.2 436.9,270.2 437.8,271.9 438.7,271.5 439.6,270.0 440.5,271.3 441.4,270.6 442.3,271.1 443.2,268.9 444.1,271.7 445.0,272.1 445.9,272.2 446.8,272.5 447.7,273.3 448.6,272.2 449.5,270.9 450.5,272.3 451.4,271.4 452.3,270.4 453.2,271.1 454.1,271.9 455.0,269.3 455.9,269.8 456.8,273.7 457.7,271.3 458.6,270.7 459.5,271.8 460.4,272.1 461.3,269.7 462.2,272.2 463.1,270.4 464.0,272.3 464.9,274.0 465.8,272.1 466.7,271.8 467.6,270.1 468.5,273.7 469.4,272.4 470.3,270.6 471.3,271.0 472.2,274.3 473.1,272.3 474.0,273.2 474.9,272.1 475.8,273.7 476.7,270.8 477.6,272.5 478.5,274.7 479.4,272.0 480.3,272.6 481.2,271.6 482.1,272.5 483.0,273.4 483.9,273.0 484.8,271.7 485.7,273.9 486.6,272.9 487.5,272.3 488.4,272.9 489.3,273.5 490.2,273.4 491.1,272.1 492.0,273.2 493.0,271.6 493.9,273.0 494.8,273.0 495.7,272.4 496.6,272.8 497.5,273.8 498.4,272.9 499.3,272.1 500.2,272.7 501.1,272.2 502.0,272.2 502.9,272.6 503.8,273.7 504.7,274.0 505.6,273.9 506.5,274.0 507.4,273.2 508.3,272.5 509.2,274.7 510.1,274.4 511.0,271.6 511.9,273.4 512.8,272.8 513.7,273.5 514.6,273.9 515.5,273.0 516.4,272.9 517.3,271.9 518.2,274.5 519.1,273.1 520.0,273.0 520.9,274.7 521.8,274.1 522.7,276.0 523.6,273.1 524.5,275.2 525.4,274.3 526.3,273.1 527.2,273.1 528.1,273.8 529.0,271.4 529.9,272.0 530.8,275.6 531.7,273.8 532.6,273.9 533.5,273.6 534.4,273.8 535.3,275.3 536.2,272.5 537.1,275.4 538.0,275.3 538.9,274.0 539.8,274.2 540.7,272.4 541.6,274.7 542.5,275.7 543.4,273.1 544.3,275.1 545.2,275.9 546.1,275.0 547.0,273.5 547.9,273.7 548.8,273.1 549.7,272.3 550.6,274.7 551.5,273.9 552.4,272.4 553.3,274.1 554.2,275.1 555.1,275.5 556.0,274.4 556.9,275.9 557.8,272.0 558.7,274.7 559.6,274.0 560.5,273.1 561.4,275.6 562.3,274.9 563.2,275.1 564.1,274.2 565.0,275.5 565.9,275.8 566.8,276.3 567.7,275.5 568.6,275.7 569.5,274.4 570.4,273.7 571.3,275.3 572.2,274.0 573.1,275.4 574.0,278.3 574.9,275.0 575.8,275.6 576.7,274.7 577.6,275.7 578.5,274.6 579.4,275.8 580.3,275.3 581.2,276.3 582.2,275.3 583.1,276.2 584.0,277.3 584.9,274.8 585.8,273.8 586.7,275.6 587.6,273.7 588.5,275.3 589.4,276.0 590.3,275.6 591.2,274.0 592.1,276.0 593.0,275.3 593.9,275.2 594.8,276.8 595.7,276.5 596.6,275.3 597.5,274.8 598.4,275.8 599.3,275.5 600.2,275.8 601.1,274.6 602.0,277.6 602.9,277.4 603.8,276.1 604.7,274.4 605.6,274.9 606.5,276.1 607.4,274.3 608.3,275.9 609.2,275.9 610.1,278.1 611.0,276.4 611.9,275.7 612.8,276.5 613.7,277.8 614.6,275.6 615.5,277.1 616.4,275.8 617.3,276.8 618.2,275.6 619.1,276.3 620.0,274.9 620.9,276.8 621.8,275.1 622.7,275.5 623.6,277.7 624.5,277.8 625.4,278.6 626.3,278.1 627.2,276.4 628.2,276.7 629.1,276.5 630.0,277.6 630.8,277.1 631.7,277.4 632.6,276.7 633.5,277.2 634.4,276.1 635.3,274.3 636.2,276.3 637.1,276.7 638.0,278.5 638.9,278.1 639.8,276.3 640.8,276.5 641.6,275.4 642.5,277.8 643.4,276.6 644.3,278.2 645.2,275.6 646.2,278.3 647.1,276.9 648.0,279.0 648.9,278.0 649.7,276.8 650.6,278.8 651.6,277.5 652.5,274.7 653.4,277.6 654.3,277.4 655.2,277.6 656.1,278.0 657.0,276.3 657.9,276.8 658.8,276.5 659.7,276.9 660.6,275.9 661.5,279.8 662.4,277.3 663.3,278.4 664.2,276.2 665.1,277.9 666.0,278.0 666.9,277.1 667.8,277.1 668.7,275.9 669.6,276.7 670.5,278.5 671.4,276.5 672.3,277.8 673.2,278.8 674.1,278.3 675.0,277.4" fill="none" stroke="#16a34a" stroke-width="1.5"/>
<polyline points="65.0,140.3 65.9,188.8 66.8,253.1 67.6,305.1 68.5,252.1 69.4,200.1 70.3,120.3 71.2,79.6 72.1,163.6 72.9,42.8 73.8,108.7 74.7,191.6 75.6,154.4 76.5,177.0 77.4,191.2 78.3,196.3 79.2,166.2 80.1,232.9 81.0,262.9 81.9,195.4 82.8,265.3 83.7,287.2 84.6,306.6 85.5,302.4 86.4,278.8 87.3,270.1 88.2,238.0 89.1,198.2 90.0,210.1 90.9,243.9 91.8,205.8 92.7,249.5 93.6,220.0 94.5,201.9 95.4,212.8 96.3,183.1 97.2,233.9 98.1,201.6 99.0,247.8 99.9,192.2 100.8,228.9 101.7,243.3 102.6,183.6 103.5,199.1 104.4,243.9 105.3,226.5 106.2,221.0 107.1,231.4 108.0,304.1 108.9,275.5 109.8,264.0 110.7,276.3 111.6,248.6 112.6,265.3 113.5,264.1 114.4,275.8 115.3,284.0 116.2,300.9 117.1,313.9 118.0,270.5 118.9,304.9 119.8,293.8 120.7,327.2 121.6,285.1 122.5,321.9 123.4,246.1 124.3,198.3 125.2,185.3 126.1,271.0 127.0,234.0 127.9,229.9 128.8,255.0 129.7,221.5 130.6,223.6 131.5,204.3 132.4,228.9 133.3,199.2 134.2,227.4 135.1,220.9 136.0,218.2 136.9,218.6 137.8,210.4 138.7,191.3 139.6,180.8 140.5,133.2 141.4,156.4 142.3,245.5 143.2,169.3 144.1,181.1 145.1,231.6 146.0,203.8 146.9,102.7 147.8,205.4 148.7,183.3 149.6,172.8 150.5,164.3 151.4,203.4 152.3,158.7 153.2,180.5 154.1,158.1 155.0,196.4 155.9,192.6 156.8,180.1 157.7,126.0 158.6,127.1 159.5,136.2 160.4,165.7 161.3,197.0 162.2,228.2 163.1,204.5 164.0,211.8 165.0,194.7 165.9,140.0 166.8,159.7 167.7,164.7 168.6,210.7 169.5,188.3 170.4,222.9 171.3,161.5 172.2,140.8 173.1,183.1 174.0,164.0 174.9,237.2 175.8,194.7 176.7,183.3 177.6,177.2 178.5,184.3 179.4,208.3 180.3,114.5 181.2,119.5 182.1,186.2 183.0,179.0 183.9,206.6 184.8,200.0 185.7,174.1 186.6,214.7 187.6,144.4 188.5,207.6 189.4,229.2 190.3,202.2 191.2,204.4 192.1,177.9 193.0,193.0 193.9,189.7 194.8,178.3 195.7,203.6 196.6,176.9 197.5,222.2 198.4,201.1 199.3,219.6 200.2,186.4 201.1,197.7 202.0,208.7 202.9,163.4 203.9,245.1 204.8,206.1 205.7,240.4 206.6,174.8 207.5,216.6 208.4,182.5 209.3,167.9 210.2,234.5 211.1,270.8 212.0,192.4 212.9,206.1 213.8,244.7 214.7,213.2 215.6,153.8 216.5,210.2 217.4,230.1 218.3,209.7 219.2,235.4 220.1,169.1 221.0,168.7 221.9,237.5 222.8,237.0 223.7,267.8 224.7,202.8 225.6,181.4 226.5,183.3 227.4,196.1 228.3,221.4 229.2,227.1 230.1,204.1 231.0,201.0 231.9,220.2 232.8,216.1 233.7,217.1 234.6,208.5 235.5,178.0 236.4,169.0 237.3,269.4 238.2,223.4 239.1,202.5 240.0,143.0 240.9,200.1 241.8,252.9 242.7,197.5 243.6,181.7 244.5,198.9 245.4,177.3 246.3,181.8 247.3,95.9 248.2,156.8 249.1,180.2 250.0,180.3 250.9,168.2 251.8,206.9 252.7,251.0 253.6,171.8 254.5,188.1 255.4,175.7 256.3,198.9 257.2,193.6 258.1,184.9 259.0,175.8 259.9,174.0 260.8,176.6 261.7,183.4 262.6,186.8 263.5,161.5 264.4,204.3 265.3,195.1 266.2,204.7 267.1,211.8 268.0,163.7 268.9,182.4 269.8,170.0 270.8,179.8 271.7,190.0 272.6,139.6 273.5,243.4 274.4,102.1 275.3,137.0 276.2,99.5 277.1,153.6 278.0,160.2 278.9,156.7 279.8,86.6 280.7,128.8 281.6,153.0 282.5,124.2 283.4,204.7 284.3,159.1 285.2,139.7 286.1,121.3 287.0,149.3 287.9,161.8 288.8,150.3 289.7,151.0 290.6,143.6 291.6,173.2 292.5,169.4 293.4,133.0 294.3,170.5 295.2,136.2 296.1,159.1 297.0,123.4 297.9,155.1 298.8,163.0 299.7,118.2 300.6,92.2 301.5,151.5 302.4,129.0 303.3,95.9 304.2,124.2 305.1,192.4 306.0,157.7 306.9,180.5 307.8,165.9 308.7,155.4 309.6,168.1 310.5,179.4 311.4,163.6 312.3,131.1 313.2,122.5 314.1,169.2 315.0,136.0 315.9,157.3 316.9,265.0 317.8,118.1 318.7,71.5 319.6,155.6 320.5,155.8 321.4,189.9 322.3,144.1 323.2,180.3 324.1,165.2 325.0,133.1 325.9,172.0 326.8,220.0 327.7,145.3 328.6,105.3 329.5,109.9 330.4,133.0 331.3,204.2 332.2,127.3 333.1,142.4 334.0,175.6 334.9,125.2 335.8,191.8 336.8,147.0 337.7,82.2 338.6,134.3 339.5,179.2 340.4,132.5 341.3,140.6 342.2,143.5 343.1,140.2 344.0,142.9 344.9,121.6 345.8,105.5 346.7,156.8 347.6,127.6 348.5,116.4 349.4,133.5 350.3,96.2 351.2,125.5 352.1,177.6 353.0,107.5 353.9,144.9 354.8,140.2 355.7,110.3 356.6,159.3 357.5,174.2 358.4,167.7 359.3,173.3 360.2,118.3 361.1,127.2 362.0,120.4 363.0,99.2 363.9,212.2 364.8,110.9 365.7,157.5 366.6,166.7 367.5,144.2 368.4,168.7 369.3,126.3 370.2,144.0 371.1,126.9 372.0,141.6 372.9,121.2 373.8,198.7 374.7,186.3 375.6,135.5 376.5,133.5 377.4,162.0 378.3,163.3 379.2,147.6 380.1,173.9 381.0,129.6 381.9,146.8 382.8,218.3 383.7,148.4 384.6,147.5 385.5,165.4 386.4,142.5 387.3,145.7 388.2,155.2 389.1,60.6 390.0,105.9 390.9,121.8 391.8,141.4 392.7,77.9 393.6,99.0 394.5,115.3 395.4,155.3 396.3,244.4 397.2,185.9 398.1,139.9 399.0,106.7 399.9,133.3 400.8,176.5 401.7,182.6 402.6,154.3 403.5,76.0 404.4,56.2 405.3,175.5 406.2,192.2 407.1,95.9 408.0,105.1 408.9,122.5 409.8,63.4 410.7,215.9 411.6,154.5 412.5,129.7 413.4,158.2 414.3,98.4 415.2,133.2 416.1,149.8 417.0,132.3 417.9,130.0 418.8,163.7 419.7,165.4 420.6,198.3 421.5,192.2 422.4,123.3 423.3,153.1 424.2,162.9 425.1,148.6 426.0,169.0 426.9,162.2 427.8,179.2 428.7,146.6 429.6,112.7 430.5,146.3 431.5,96.1 432.4,126.3 433.3,122.1 434.2,114.4 435.1,163.2 436.0,138.6 436.9,148.7 437.8,213.5 438.7,179.0 439.6,131.4 440.5,182.6 441.4,152.5 442.3,139.3 443.2,59.4 444.1,146.4 445.0,158.3 445.9,143.2 446.8,179.1 447.7,211.7 448.6,186.5 449.5,148.7 450.5,181.5 451.4,174.6 452.3,127.1 453.2,149.5 454.1,206.7 455.0,95.4 455.9,113.6 456.8,228.0 457.7,140.6 458.6,132.8 459.5,150.3 460.4,128.3 461.3,74.7 462.2,147.2 463.1,123.9 464.0,182.7 464.9,206.3 465.8,144.1 466.7,141.4 467.6,93.7 468.5,195.9 469.4,164.0 470.3,96.2 471.3,98.6 472.2,199.6 473.1,187.2 474.0,207.3 474.9,124.6 475.8,190.0 476.7,116.8 477.6,112.9 478.5,188.3 479.4,112.2 480.3,147.6 481.2,150.1 482.1,142.7 483.0,180.8 483.9,171.8 484.8,146.2 485.7,219.6 486.6,158.1 487.5,126.1 488.4,156.1 489.3,169.7 490.2,141.8 491.1,125.5 492.0,169.3 493.0,108.8 493.9,139.0 494.8,165.0 495.7,149.0 496.6,138.8 497.5,175.9 498.4,174.2 499.3,137.7 500.2,180.2 501.1,178.4 502.0,147.0 502.9,165.1 503.8,187.8 504.7,182.6 505.6,145.5 506.5,156.0 507.4,124.8 508.3,112.9 509.2,234.6 510.1,196.6 511.0,121.5 511.9,150.6 512.8,124.3 513.7,148.1 514.6,164.2 515.5,134.6 516.4,144.0 517.3,135.4 518.2,187.7 519.1,207.5 520.0,170.6 520.9,214.8 521.8,166.0 522.7,214.2 523.6,188.2 524.5,243.6 525.4,170.5 526.3,156.6 527.2,169.1 528.1,177.1 529.0,67.6 529.9,99.9 530.8,209.6 531.7,158.4 532.6,166.9 533.5,167.4 534.4,186.3 535.3,196.4 536.2,70.9 537.1,172.1 538.0,161.8 538.9,97.9 539.8,181.4 540.7,58.7 541.6,133.5 542.5,185.8 543.4,98.3 544.3,164.6 545.2,203.1 546.1,191.7 547.0,140.6 547.9,157.1 548.8,123.5 549.7,77.4 550.6,130.6 551.5,170.1 552.4,104.7 553.3,190.2 554.2,155.3 555.1,209.1 556.0,117.6 556.9,220.3 557.8,113.1 558.7,203.9 559.6,148.9 560.5,121.9 561.4,185.2 562.3,184.2 563.2,183.6 564.1,144.7 565.0,161.8 565.9,191.7 566.8,176.6 567.7,200.8 568.6,192.0 569.5,149.9 570.4,172.7 571.3,165.5 572.2,78.6 573.1,141.4 574.0,214.6 574.9,132.5 575.8,137.5 576.7,124.6 577.6,186.4 578.5,151.9 579.4,162.5 580.3,163.9 581.2,173.9 582.2,144.5 583.1,175.9 584.0,198.2 584.9,131.0 585.8,135.1 586.7,153.7 587.6,85.4 588.5,173.9 589.4,153.0 590.3,153.9 591.2,106.9 592.1,177.3 593.0,172.7 593.9,170.1 594.8,229.2 595.7,204.0 596.6,161.0 597.5,152.1 598.4,151.4 599.3,125.7 600.2,166.4 601.1,152.6 602.0,218.6 602.9,216.1 603.8,171.9 604.7,88.6 605.6,97.6 606.5,150.5 607.4,142.5 608.3,203.8 609.2,132.9 610.1,154.7 611.0,133.7 611.9,135.4 612.8,163.7 613.7,196.0 614.6,139.7 615.5,162.5 616.4,145.6 617.3,195.6 618.2,128.4 619.1,99.1 620.0,115.4 620.9,189.1 621.8,122.2 622.7,144.5 623.6,195.8 624.5,192.6 625.4,250.0 626.3,219.8 627.2,162.3 628.2,170.9 629.1,139.2 630.0,144.6 630.8,178.0 631.7,199.4 632.6,133.4 633.5,178.0 634.4,158.0 635.3,72.4 636.2,143.1 637.1,123.6 638.0,217.8 638.9,219.1 639.8,140.2 640.8,126.6 641.6,133.6 642.5,166.4 643.4,174.6 644.3,208.7 645.2,128.8 646.2,234.4 647.1,170.8 648.0,255.6 648.9,191.7 649.7,115.3 650.6,188.9 651.6,190.7 652.5,80.5 653.4,166.9 654.3,154.0 655.2,162.7 656.1,186.6 657.0,164.5 657.9,139.9 658.8,156.1 659.7,184.6 660.6,109.2 661.5,236.5 662.4,201.1 663.3,177.3 664.2,158.9 665.1,186.1 666.0,173.5 666.9,188.4 667.8,154.8 668.7,93.0 669.6,133.9 670.5,153.6 671.4,170.5 672.3,149.7 673.2,195.8 674.1,161.7" fill="none" stroke="#2563eb" stroke-width="2.5"/>
<rect x="65" y="20" width="610" height="330" fill="none" stroke="#888" stroke-width="1.5"/>
<line x1="62" y1="308.5" x2="65" y2="308.5" stroke="#64748b" stroke-width="1" opacity="0.6"/>
<line x1="62" y1="260.0" x2="65" y2="260.0" stroke="#64748b" stroke-width="1" opacity="0.6"/>
<line x1="62" y1="199.0" x2="65" y2="199.0" stroke="#64748b" stroke-width="1" opacity="0.6"/>
<line x1="60" y1="116.3" x2="65" y2="116.3" stroke="#64748b" stroke-width="1.5"/>
<text x="57" y="116.3" text-anchor="end" dominant-baseline="middle" font-size="11" font-family="monospace,sans-serif" fill="#64748b">10</text>
<line x1="62" y1="33.5" x2="65" y2="33.5" stroke="#64748b" stroke-width="1" opacity="0.6"/>
<line x1="675" y1="287.6" x2="680" y2="287.6" stroke="#2563eb" stroke-width="1.5"/>
<text x="683" y="287.6" text-anchor="start" dominant-baseline="middle" font-size="11" font-family="monospace,sans-serif" fill="#2563eb">-0.10</text>
<line x1="675" y1="170.3" x2="680" y2="170.3" stroke="#2563eb" stroke-width="1.5"/>
<text x="683" y="170.3" text-anchor="start" dominant-baseline="middle" font-size="11" font-family="monospace,sans-serif" fill="#2563eb">0.00</text>
<line x1="675" y1="52.9" x2="680" y2="52.9" stroke="#2563eb" stroke-width="1.5"/>
<text x="683" y="52.9" text-anchor="start" dominant-baseline="middle" font-size="11" font-family="monospace,sans-serif" fill="#2563eb">0.10</text>
<line x1="65.0" y1="350" x2="65.0" y2="355" stroke="#888" stroke-width="1.5"/>
<text x="65.0" y="368" text-anchor="middle" font-size="11" font-family="monospace,sans-serif">0</text>
<line x1="187.1" y1="350" x2="187.1" y2="355" stroke="#888" stroke-width="1.5"/>
<text x="187.1" y="368" text-anchor="middle" font-size="11" font-family="monospace,sans-serif">2</text>
<line x1="309.1" y1="350" x2="309.1" y2="355" stroke="#888" stroke-width="1.5"/>
<text x="309.1" y="368" text-anchor="middle" font-size="11" font-family="monospace,sans-serif">4</text>
<line x1="431.2" y1="350" x2="431.2" y2="355" stroke="#888" stroke-width="1.5"/>
<text x="431.2" y="368" text-anchor="middle" font-size="11" font-family="monospace,sans-serif">6</text>
<line x1="553.3" y1="350" x2="553.3" y2="355" stroke="#888" stroke-width="1.5"/>
<text x="553.3" y="368" text-anchor="middle" font-size="11" font-family="monospace,sans-serif">8</text>
<line x1="675.3" y1="350" x2="675.3" y2="355" stroke="#888" stroke-width="1.5"/>
<text x="675.3" y="368" text-anchor="middle" font-size="11" font-family="monospace,sans-serif">10</text>
<text x="370" y="392" text-anchor="middle" font-size="13" font-family="sans-serif">Runtime (minutes)</text>
<text transform="rotate(-90,28,185)" x="28" y="185" text-anchor="middle" font-size="13" font-family="sans-serif" fill="#64748b">Train loss (log scale)</text>
<text transform="rotate(90,746,185)" x="746" y="185" text-anchor="middle" font-size="13" font-family="sans-serif" fill="#2563eb">Train loss diff (exp − base)</text>
<rect x="72" y="26" width="140" height="62" fill="white" fill-opacity="0.85" stroke="#ddd" stroke-width="1" rx="3"/>
<line x1="77" y1="37" x2="99" y2="37" stroke="#64748b" stroke-width="1.5" stroke-dasharray="5,3"/>
<text x="104" y="41" font-size="11" font-family="sans-serif" fill="#64748b">Baseline train loss</text>
<line x1="77" y1="55" x2="99" y2="55" stroke="#16a34a" stroke-width="1.5"/>
<text x="104" y="59" font-size="11" font-family="sans-serif" fill="#16a34a">Experiment train loss</text>
<line x1="77" y1="73" x2="99" y2="73" stroke="#2563eb" stroke-width="2.5"/>
<text x="104" y="77" font-size="11" font-family="sans-serif" fill="#2563eb">Train loss diff</text>
</svg>