<svg xmlns="http://www.w3.org/2000/svg" viewBox="0 0 760 400" width="760" height="400" style="background:white">
<rect x="65" y="20" width="610" height="330" fill="#f9f9f9"/>
<line x1="65" y1="308.5" x2="675" y2="308.5" stroke="#ececec" stroke-width="1"/>
<line x1="65" y1="260.0" x2="675" y2="260.0" stroke="#ececec" stroke-width="1"/>
<line x1="65" y1="199.0" x2="675" y2="199.0" stroke="#ececec" stroke-width="1"/>
<line x1="65" y1="116.3" x2="675" y2="116.3" stroke="#ddd" stroke-width="1"/>
<line x1="65" y1="33.5" x2="675" y2="33.5" stroke="#ececec" stroke-width="1"/>
<line x1="65.0" y1="20" x2="65.0" y2="350" stroke="#ececec" stroke-width="1"/>
<line x1="187.1" y1="20" x2="187.1" y2="350" stroke="#ececec" stroke-width="1"/>
<line x1="309.3" y1="20" x2="309.3" y2="350" stroke="#ececec" stroke-width="1"/>
<line x1="431.4" y1="20" x2="431.4" y2="350" stroke="#ececec" stroke-width="1"/>
<line x1="553.6" y1="20" x2="553.6" y2="350" stroke="#ececec" stroke-width="1"/>
<line x1="675.7" y1="20" x2="675.7" y2="350" stroke="#ececec" stroke-width="1"/>
<line x1="65" y1="295.3" x2="675" y2="295.3" stroke="#2563eb" stroke-width="0.75" stroke-dasharray="3,3" opacity="0.4"/>
<polyline points="65.0,119.8 65.7,52.7 66.4,85.4 67.2,143.1 67.9,161.7 68.6,155.9 69.3,156.3 70.1,160.5 70.8,165.4 71.5,169.2 72.2,173.0 72.9,174.1 73.7,175.4 74.4,177.2 75.1,179.4 75.9,182.9 76.6,182.6 77.3,184.4 78.1,185.3 78.8,187.9 79.5,183.4 80.3,190.6 81.0,195.3 81.7,195.4 82.5,197.5 83.2,199.1 83.9,201.0 84.7,202.6 85.4,203.9 86.1,205.5 86.9,207.3 87.6,206.5 88.3,208.8 89.1,210.2 89.8,209.9 90.5,211.2 91.3,211.7 92.0,213.6 92.7,213.0 93.5,211.6 94.2,215.0 94.9,216.3 95.7,215.9 96.4,216.4 97.2,218.2 97.9,216.4 98.6,215.7 99.3,216.3 100.1,217.6 100.8,217.9 101.5,220.5 102.3,218.4 103.0,221.0 103.7,216.1 104.5,223.2 105.2,221.9 105.9,224.2 106.7,223.4 107.4,223.2 108.1,225.6 108.9,224.9 109.6,226.2 110.3,225.8 111.1,228.0 111.8,229.5 112.6,228.1 113.3,229.9 114.0,229.6 114.7,229.6 115.5,228.9 116.2,231.5 116.9,228.9 117.7,229.7 118.4,231.5 119.1,231.5 119.9,233.3 120.6,232.0 121.4,234.0 122.1,232.7 122.8,236.1 123.6,235.2 124.3,234.4 125.0,234.6 125.8,233.6 126.5,232.0 127.2,230.8 128.0,235.6 128.7,233.4 129.5,235.9 130.2,236.0 130.9,235.3 131.7,234.7 132.4,232.1 133.1,234.5 133.9,236.5 134.6,236.2 135.3,237.5 136.1,235.4 136.8,239.0 137.5,233.1 138.3,238.7 139.0,238.8 139.8,238.1 140.5,239.0 141.2,240.5 142.0,239.5 142.7,239.8 143.4,241.3 144.2,240.6 144.9,241.0 145.6,236.4 146.4,241.3 147.1,241.1 147.9,242.2 148.6,241.8 149.3,241.0 150.1,244.4 150.8,239.8 151.5,240.6 152.3,242.8 153.0,242.2 153.8,244.3 154.5,242.3 155.2,238.8 156.0,245.0 156.7,243.3 157.4,243.1 158.2,243.9 158.9,244.6 159.7,244.0 160.4,245.5 161.1,244.2 161.9,245.5 162.6,246.0 163.3,241.8 164.1,246.5 164.8,246.6 165.6,245.1 166.3,247.4 167.0,247.2 167.8,246.3 168.5,247.1 169.2,246.4 170.0,244.9 170.7,248.1 171.5,246.2 172.2,248.8 172.9,246.1 173.7,247.4 174.4,245.7 175.1,247.1 175.9,247.5 176.6,245.5 177.3,249.1 178.1,248.2 178.8,248.1 179.6,247.3 180.3,246.2 181.0,247.8 181.8,248.0 182.5,250.2 183.2,247.2 184.0,248.8 184.7,246.6 185.5,243.3 186.2,247.7 186.9,248.8 187.7,249.7 188.4,248.0 189.2,247.2 189.9,246.4 190.6,248.4 191.4,248.0 192.1,249.3 192.8,247.3 193.6,249.0 194.3,249.4 195.0,250.6 195.8,250.2 196.5,248.7 197.3,250.5 198.0,240.0 198.7,248.8 199.5,250.7 200.2,251.8 201.0,246.5 201.7,252.7 202.4,250.3 203.2,252.9 203.9,250.6 204.6,252.3 205.4,250.1 206.1,252.6 206.8,251.4 207.6,251.6 208.3,251.9 209.1,250.9 209.8,252.5 210.5,253.6 211.3,252.8 212.0,251.7 212.8,251.3 213.5,255.2 214.2,254.8 215.0,248.8 215.7,252.1 216.5,254.0 217.2,253.9 217.9,254.9 218.7,258.1 219.4,256.3 220.1,255.7 220.9,255.1 221.6,254.5 222.4,254.8 223.1,255.2 223.8,254.4 224.6,255.3 225.3,257.0 226.0,257.0 226.8,258.2 227.5,257.4 228.3,257.5 229.0,257.2 229.7,259.1 230.5,259.2 231.2,258.0 232.0,260.6 232.7,258.7 233.4,260.1 234.2,259.0 234.9,260.3 235.6,259.9 236.4,261.2 237.1,260.1 237.8,262.0 238.6,262.1 239.3,259.5 240.1,244.4 240.8,260.8 241.5,257.8 242.3,257.5 243.0,260.7 243.7,264.4 244.5,257.7 245.2,257.9 246.0,260.4 246.7,260.1 247.4,259.8 248.2,261.3 248.9,262.3 249.6,260.4 250.4,261.6 251.1,260.3 251.9,259.6 252.6,263.2 253.3,261.6 254.1,260.1 254.8,260.7 255.5,264.0 256.3,263.3 257.0,262.9 257.7,261.4 258.5,264.1 259.2,262.7 259.9,263.8 260.7,261.5 261.4,262.5 262.2,261.4 262.9,259.0 263.6,259.5 264.4,262.0 265.1,264.0 265.8,261.6 266.6,258.9 267.3,262.2 268.1,262.2 268.8,261.9 269.5,261.5 270.3,260.3 271.0,264.5 271.7,264.6 272.5,258.7 273.2,254.7 273.9,255.7 274.7,260.8 275.4,262.0 276.2,263.4 276.9,259.3 277.6,261.9 278.4,263.4 279.1,265.7 279.8,262.5 280.6,260.2 281.3,262.3 282.1,263.6 282.8,262.4 283.5,262.0 284.3,259.0 285.0,263.3 285.7,262.5 286.5,262.8 287.2,263.2 287.9,262.9 288.7,268.3 289.4,263.3 290.2,263.3 290.9,264.3 291.7,265.5 292.4,263.1 293.1,263.1 293.9,262.9 294.6,260.9 295.3,268.0 296.1,266.2 296.8,263.6 297.6,263.3 298.3,266.8 299.0,266.5 299.8,263.4 300.5,264.6 301.3,263.9 302.0,263.0 302.7,266.0 303.5,266.6 304.2,265.9 304.9,266.2 305.7,264.5 306.4,266.9 307.1,266.5 307.9,267.8 308.6,267.3 309.3,266.6 310.1,264.8 310.8,264.8 311.6,265.7 312.3,267.6 313.0,268.6 313.8,268.4 314.5,269.6 315.3,266.7 316.0,266.4 316.7,264.1 317.5,267.2 318.2,268.5 318.9,267.1 319.7,264.7 320.4,267.2 321.2,272.0 321.9,269.2 322.6,267.2 323.4,266.8 324.1,267.8 324.9,268.5 325.6,269.5 326.3,267.1 327.1,268.4 327.8,267.2 328.5,271.3 329.3,266.2 330.0,267.9 330.7,268.3 331.5,268.8 332.2,268.6 332.9,269.2 333.7,272.0 334.4,266.2 335.2,269.5 335.9,265.3 336.6,266.1 337.4,263.6 338.1,267.2 338.9,267.9 339.6,266.1 340.3,267.3 341.1,269.8 341.8,267.3 342.6,265.1 343.3,272.1 344.0,251.6 344.8,262.1 345.5,260.5 346.2,275.1 347.0,264.9 347.7,269.8 348.5,265.1 349.2,266.7 349.9,268.6 350.7,267.2 351.4,265.8 352.1,266.0 352.9,267.9 353.6,267.1 354.3,267.6 355.1,267.2 355.8,267.7 356.6,266.3 357.3,274.1 358.0,268.6 358.8,266.3 359.5,267.1 360.3,267.6 361.0,266.1 361.7,267.6 362.5,268.9 363.2,266.8 363.9,267.7 364.7,268.2 365.4,270.2 366.1,267.5 366.9,270.8 367.6,267.9 368.4,267.0 369.1,265.9 369.8,268.4 370.6,277.4 371.3,269.7 372.0,265.5 372.8,267.6 373.5,265.7 374.3,265.4 375.0,267.5 375.7,266.6 376.4,270.2 377.2,268.7 377.9,269.0 378.7,267.6 379.4,269.5 380.1,273.2 380.9,279.5 381.6,270.0 382.4,269.6 383.1,269.3 383.8,269.6 384.6,272.7 385.3,270.3 386.1,268.3 386.8,272.7 387.5,270.7 388.3,273.3 389.0,268.6 389.7,271.4 390.5,270.0 391.2,270.2 391.9,270.5 392.7,272.7 393.4,268.8 394.2,265.9 394.9,270.9 395.6,273.7 396.4,269.4 397.1,272.0 397.9,272.6 398.6,269.7 399.3,271.8 400.0,273.2 400.8,271.2 401.5,270.1 402.3,273.8 403.0,270.9 403.7,273.0 404.5,274.1 405.2,270.7 405.9,272.4 406.7,271.0 407.4,273.8 408.2,274.0 408.9,270.9 409.6,267.2 410.4,268.8 411.1,269.2 411.9,270.4 412.6,270.7 413.3,270.3 414.1,269.7 414.8,268.3 415.6,268.7 416.3,269.6 417.0,271.5 417.8,269.3 418.5,266.8 419.2,270.3 420.0,269.8 420.7,269.3 421.4,268.6 422.2,269.2 422.9,272.8 423.7,265.8 424.4,272.7 425.1,267.7 425.9,273.7 426.6,271.9 427.4,270.9 428.1,269.3 428.8,270.0 429.6,275.4 430.3,271.9 431.1,270.4 431.8,271.7 432.5,270.3 433.3,270.1 434.0,266.5 434.7,272.1 435.5,268.7 436.2,268.8 436.9,269.5 437.7,271.6 438.4,269.8 439.2,272.0 439.9,272.8 440.6,271.9 441.4,267.8 442.1,270.8 442.8,269.0 443.6,271.6 444.3,266.6 445.0,268.9 445.8,269.4 446.5,271.2 447.2,272.4 448.0,272.6 448.7,266.4 449.5,268.4 450.2,270.6 450.9,268.3 451.7,269.7 452.4,270.5 453.1,271.3 453.9,271.2 454.6,272.2 455.4,271.2 456.1,269.9 456.8,270.5 457.6,269.8 458.3,272.7 459.0,273.1 459.8,275.3 460.5,271.2 461.3,272.5 462.0,272.8 462.7,276.0 463.5,274.0 464.2,273.0 464.9,276.6 465.7,273.5 466.4,272.7 467.2,275.0 467.9,274.3 468.6,273.8 469.4,272.5 470.1,276.1 470.8,275.6 471.6,270.5 472.3,278.0 473.0,276.1 473.8,275.1 474.5,274.1 475.3,275.2 476.0,276.6 476.7,273.6 477.5,275.0 478.2,273.3 479.0,273.1 479.7,272.6 480.4,269.2 481.2,267.8 481.9,272.3 482.6,270.9 483.4,273.4 484.1,271.0 484.8,270.3 485.6,271.5 486.3,271.4 487.0,271.9 487.8,279.3 488.5,274.7 489.3,272.6 490.0,274.4 490.7,273.8 491.5,278.7 492.2,258.4 492.9,271.8 493.7,272.6 494.4,276.6 495.1,272.8 495.9,274.0 496.6,274.3 497.4,273.5 498.1,276.4 498.8,274.5 499.6,272.5 500.3,272.2 501.0,271.4 501.8,271.3 502.5,271.4 503.2,271.4 504.0,271.8 504.7,271.3 505.5,272.1 506.2,272.6 506.9,274.3 507.7,274.1 508.4,273.8 509.1,273.3 509.9,269.4 510.6,270.8 511.3,272.6 512.1,272.9 512.8,275.9 513.5,273.4 514.3,270.3 515.0,272.4 515.8,272.6 516.5,270.9 517.2,272.9 518.0,275.7 518.7,274.1 519.4,272.7 520.2,276.0 520.9,276.4 521.7,272.8 522.4,267.7 523.1,276.9 523.9,275.3 524.6,274.4 525.3,276.0 526.1,278.2 526.8,275.6 527.6,274.6 528.3,277.0 529.0,273.0 529.8,277.3 530.5,281.3 531.2,274.9 532.0,274.8 532.7,277.9 533.5,274.4 534.2,276.6 534.9,275.9 535.7,276.2 536.4,276.5 537.1,274.5 537.9,272.7 538.6,277.3 539.4,275.1 540.1,277.9 540.8,279.8 541.6,275.7 542.3,276.6 543.0,276.6 543.8,275.5 544.5,277.6 545.2,278.1 546.0,274.1 546.7,275.6 547.5,276.7 548.2,270.1 548.9,274.0 549.7,275.2 550.4,272.7 551.1,275.4 551.9,275.6 552.6,275.6 553.4,274.8 554.1,276.2 554.8,271.5 555.6,272.5 556.3,265.9 557.0,274.9 557.8,273.8 558.5,275.8 559.2,276.9 560.0,279.1 560.7,273.6 561.5,276.7 562.2,273.2 562.9,272.3 563.7,271.3 564.4,272.7 565.2,275.1 565.9,275.9 566.6,280.3 567.4,276.8 568.1,274.6 568.8,275.5 569.6,260.9 570.3,276.9 571.0,276.4 571.8,274.0 572.5,274.9 573.3,275.8 574.0,275.8 574.7,276.3 575.5,275.4 576.2,278.3 576.9,271.3 577.7,275.9 578.4,276.4 579.2,279.1 579.9,283.6 580.6,279.9 581.4,277.5 582.1,277.8 582.8,275.4 583.6,276.0 584.3,276.5 585.0,277.2 585.8,276.3 586.5,275.6 587.3,274.3 588.0,279.9 588.7,277.1 589.5,273.7 590.2,270.0 590.9,274.0 591.7,276.9 592.4,278.1 593.1,279.0 593.9,276.1 594.6,273.8 595.4,281.4 596.1,270.3 596.8,278.2 597.6,275.5 598.3,279.5 599.1,276.5 599.8,276.2 600.5,276.6 601.3,275.1 602.0,273.2 602.7,275.3 603.5,277.2 604.2,286.5 605.0,278.8 605.7,274.6 606.4,276.1 607.2,274.3 607.9,272.3 608.6,275.9 609.4,277.5 610.1,275.1 610.9,278.5 611.6,278.1 612.3,276.3 613.1,277.7 613.8,278.4 614.6,278.1 615.3,273.8 616.0,275.3 616.8,276.8 617.5,279.0 618.3,275.3 619.0,287.6 619.7,274.6 620.5,277.9 621.2,274.8 621.9,271.4 622.7,281.9 623.4,274.8 624.2,276.4 624.9,273.2 625.6,276.1 626.4,277.5 627.1,275.6 627.9,274.0 628.6,274.0 629.3,273.0 630.1,275.5 630.8,276.9 631.6,276.2 632.3,278.3 633.0,281.9 633.8,279.1 634.5,278.7 635.2,276.7 636.0,278.3 636.7,278.5 637.4,277.2 638.2,277.3 638.9,275.2 639.6,276.3 640.4,276.4 641.1,277.7 641.8,278.0 642.6,276.2 643.3,279.2 644.1,278.6 644.8,281.1 645.5,280.1 646.3,279.2 647.0,274.3 647.7,280.3 648.5,281.9 649.2,292.1 650.0,280.0 650.7,278.3 651.4,277.4 652.2,278.2 652.9,281.5 653.6,279.4 654.4,279.0 655.1,277.7 655.9,282.5 656.6,278.6 657.3,281.7 658.1,278.3 658.8,278.7 659.5,277.4 660.3,278.6 661.0,278.8 661.8,278.2 662.5,281.6 663.2,276.4 664.0,278.2 664.7,277.5 665.4,282.3 666.2,279.1 666.9,280.0 667.6,282.8 668.4,279.9 669.1,280.2 669.8,277.4 670.6,281.5 671.3,280.2 672.1,280.6 672.8,278.8 673.5,277.9 674.3,276.0 675.0,282.3" fill="none" stroke="#64748b" stroke-width="1.5" stroke-dasharray="5,3"/>
<polyline points="65.0,119.9 65.9,53.3 66.9,89.4 67.8,145.5 68.8,161.8 69.7,155.7 70.7,156.5 71.6,158.7 72.6,163.6 73.5,167.0 74.5,170.7 75.5,172.5 76.4,174.3 77.4,176.3 78.3,179.0 79.3,183.0 80.2,183.4 81.2,186.1 82.1,187.9 83.1,191.8 84.0,187.4 85.0,195.0 85.9,199.5 86.9,200.1 87.8,202.5 88.8,203.2 89.7,205.1 90.7,206.4 91.7,207.4 92.6,208.7 93.6,210.2 94.5,209.8 95.5,211.5 96.4,212.5 97.4,212.3 98.3,213.1 99.3,213.6 100.2,215.0 101.2,214.4 102.1,213.7 103.1,217.1 104.0,217.8 104.9,217.8 105.9,217.6 106.9,219.6 107.8,217.9 108.8,216.7 109.7,217.6 110.7,219.1 111.6,218.8 112.6,222.6 113.5,220.0 114.5,222.6 115.4,217.8 116.4,225.0 117.3,223.3 118.3,225.9 119.2,225.1 120.2,224.9 121.1,227.0 122.1,226.1 123.0,227.1 124.0,226.9 124.9,229.1 125.9,230.4 126.8,229.3 127.8,231.0 128.7,230.5 129.7,230.4 130.6,229.6 131.6,232.8 132.5,229.6 133.5,230.8 134.4,232.6 135.4,232.1 136.3,234.2 137.3,233.0 138.2,234.9 139.2,233.3 140.1,236.5 141.1,235.9 142.0,235.0 143.0,235.3 143.9,234.0 144.9,232.6 145.8,231.4 146.8,236.4 147.7,234.4 148.7,236.8 149.6,236.4 150.6,235.8 151.5,235.8 152.5,232.4 153.4,234.8 154.4,237.2 155.3,236.8 156.3,238.2 157.2,236.1 158.2,239.7 159.1,232.8 160.1,239.2 161.0,239.4 162.0,238.7 162.9,239.7 163.9,241.2 164.8,240.3 165.8,240.6 166.7,242.2 167.7,241.4 168.6,241.4 169.6,237.1 170.5,242.1 171.5,241.7 172.4,242.6 173.3,242.2 174.3,241.4 175.2,245.1 176.2,240.5 177.1,241.1 178.1,243.6 179.0,243.1 180.0,245.0 180.9,242.6 181.9,239.0 182.8,245.4 183.8,243.8 184.7,243.6 185.7,244.6 186.6,245.2 187.6,244.3 188.5,246.2 189.5,244.8 190.4,246.4 191.3,246.4 192.3,242.1 193.2,247.2 194.2,247.0 195.1,245.4 196.1,248.2 197.0,247.9 198.0,247.1 198.9,247.8 199.9,247.1 200.8,245.6 201.8,249.1 202.7,247.1 203.7,249.7 204.6,247.1 205.6,247.7 206.5,246.5 207.5,247.8 208.4,248.3 209.4,246.2 210.3,250.1 211.2,249.1 212.2,249.3 213.1,248.0 214.1,246.8 215.0,248.7 216.0,249.2 216.9,251.1 217.9,248.5 218.8,250.0 219.8,248.0 220.7,244.2 221.7,249.0 222.6,249.6 223.6,250.6 224.5,249.0 225.5,248.2 226.4,247.4 227.3,249.7 228.3,249.1 229.2,250.2 230.2,248.4 231.1,250.1 232.1,250.1 233.0,251.4 234.0,251.3 234.9,250.0 235.9,251.6 236.8,240.2 237.8,250.2 238.7,251.6 239.7,252.7 240.6,247.1 241.5,254.0 242.5,251.4 243.4,254.0 244.4,251.7 245.3,253.3 246.3,250.9 247.2,253.2 248.2,252.4 249.1,252.9 250.1,253.0 251.0,251.9 252.0,253.5 252.9,254.6 253.9,253.3 254.8,252.4 255.8,252.0 256.7,256.2 257.7,255.8 258.6,249.3 259.6,253.2 260.5,254.8 261.5,254.7 262.4,255.7 263.4,259.1 264.3,257.1 265.3,256.5 266.2,256.1 267.2,255.3 268.1,255.5 269.1,256.1 270.0,255.2 271.0,256.5 272.0,258.1 272.9,258.0 273.9,258.7 274.8,258.2 275.8,258.3 276.7,258.3 277.7,260.2 278.6,260.3 279.6,258.9 280.5,261.3 281.5,259.3 282.4,260.8 283.4,259.8 284.3,260.9 285.3,260.8 286.2,262.2 287.2,260.7 288.1,262.6 289.1,263.0 290.0,260.6 291.0,244.6 291.9,261.4 292.9,258.1 293.9,258.0 294.8,261.2 295.8,265.2 296.7,258.1 297.7,258.9 298.6,261.1 299.6,260.7 300.5,260.4 301.4,262.0 302.4,262.7 303.4,261.0 304.3,261.9 305.3,260.9 306.2,260.0 307.2,263.8 308.1,261.9 309.1,260.2 310.0,261.3 311.0,264.8 311.9,263.2 312.9,262.9 313.8,261.6 314.8,264.8 315.7,263.1 316.7,264.5 317.6,261.9 318.6,262.5 319.5,261.4 320.5,259.4 321.4,259.9 322.4,262.4 323.3,264.1 324.3,261.5 325.2,259.3 326.2,261.9 327.1,261.5 328.1,262.2 329.0,262.0 330.0,261.4 330.9,265.1 331.9,265.0 332.8,258.8 333.8,255.0 334.7,256.1 335.7,261.2 336.6,262.1 337.6,263.5 338.5,259.7 339.5,262.3 340.4,263.2 341.4,265.7 342.3,262.5 343.3,260.6 344.2,262.5 345.2,263.7 346.1,262.7 347.1,262.6 348.0,259.2 349.0,263.7 350.0,262.7 350.9,263.0 351.8,263.4 352.8,263.3 353.7,268.9 354.7,263.5 355.6,263.5 356.6,264.5 357.5,265.5 358.5,263.2 359.4,263.1 360.4,263.3 361.3,261.6 362.3,268.3 363.3,266.4 364.2,263.9 365.2,263.6 366.1,267.2 367.1,267.7 368.0,264.1 368.9,264.7 369.9,264.5 370.8,263.5 371.8,266.4 372.7,267.1 373.7,266.2 374.6,266.9 375.6,265.1 376.5,267.5 377.5,266.8 378.5,268.1 379.4,267.5 380.4,266.8 381.3,265.3 382.3,265.5 383.2,266.1 384.2,267.6 385.1,269.1 386.1,268.8 387.0,270.0 388.0,266.8 388.9,266.9 389.9,264.8 390.8,267.7 391.8,268.7 392.7,267.2 393.7,265.1 394.6,267.4 395.6,272.4 396.5,269.7 397.5,267.8 398.5,267.1 399.4,267.9 400.4,268.7 401.3,270.2 402.3,267.2 403.2,268.2 404.1,267.1 405.1,271.9 406.0,266.4 407.0,268.4 407.9,268.8 408.9,269.5 409.9,269.4 410.8,269.7 411.8,272.3 412.7,266.7 413.7,270.0 414.6,266.2 415.6,266.6 416.5,263.2 417.5,267.6 418.4,268.4 419.4,266.8 420.3,267.5 421.3,270.2 422.2,267.7 423.2,265.6 424.2,272.3 425.1,252.6 426.1,262.5 427.0,260.8 428.0,275.7 428.9,265.4 429.9,270.4 430.8,265.6 431.8,267.1 432.7,268.7 433.7,267.9 434.7,266.2 435.6,266.7 436.6,268.5 437.5,267.6 438.5,268.0 439.4,267.8 440.4,268.3 441.3,267.0 442.3,274.3 443.2,269.1 444.2,267.1 445.2,267.8 446.1,268.3 447.1,266.7 448.0,268.0 449.0,269.3 449.9,267.4 450.9,267.8 451.8,268.9 452.8,270.3 453.7,268.2 454.7,271.2 455.6,268.2 456.6,267.5 457.5,266.4 458.5,269.0 459.4,277.9 460.4,270.3 461.3,266.2 462.3,268.3 463.2,266.1 464.2,266.2 465.1,268.2 466.1,267.3 467.1,270.9 468.0,269.1 469.0,269.2 469.9,268.1 470.9,270.0 471.8,273.3 472.8,279.5 473.7,270.8 474.7,270.4 475.7,270.1 476.7,270.3 477.7,273.1 478.6,270.9 479.6,268.9 480.5,273.3 481.5,271.2 482.4,274.0 483.4,269.1 484.3,271.8 485.3,270.6 486.2,270.9 487.2,271.3 488.1,273.3 489.1,269.4 490.0,266.6 491.0,271.4 491.9,274.1 492.8,269.9 493.8,272.7 494.8,273.1 495.7,270.7 496.7,272.5 497.7,273.9 498.6,271.7 499.6,270.7 500.5,274.5 501.5,271.6 502.4,273.7 503.4,274.9 504.3,271.1 505.3,272.8 506.2,271.5 507.2,274.6 508.1,274.6 509.1,271.4 510.0,267.7 511.0,269.5 511.9,269.8 512.9,271.3 513.9,271.4 514.8,270.9 515.8,270.6 516.8,269.1 517.7,269.4 518.7,270.5 519.6,272.2 520.6,270.2 521.5,267.7 522.5,270.8 523.4,270.5 524.4,270.2 525.3,269.4 526.3,269.9 527.2,273.7 528.2,266.4 529.2,273.3 530.1,268.1 531.1,274.2 532.1,273.2 533.0,271.9 534.0,270.1 534.9,270.8 535.9,276.0 536.8,272.7 537.8,271.2 538.7,272.6 539.7,270.8 540.6,270.7 541.6,267.5 542.5,273.2 543.5,269.6 544.4,269.5 545.4,270.4 546.4,272.4 547.3,270.5 548.3,273.2 549.2,273.6 550.2,272.7 551.1,268.5 552.1,271.6 553.0,269.7 554.0,272.6 554.9,267.3 555.9,269.5 556.8,270.2 557.8,271.9 558.7,273.4 559.7,273.5 560.6,267.2 561.6,268.8 562.6,271.2 563.5,268.9 564.5,270.5 565.4,271.2 566.4,272.0 567.3,271.9 568.3,272.9 569.2,272.1 570.2,270.7 571.1,271.5 572.0,270.6 573.0,273.7 573.9,274.2 574.9,276.1 575.8,272.0 576.8,273.2 577.8,273.5 578.7,277.0 579.7,275.0 580.6,274.0 581.6,277.5 582.5,274.4 583.4,273.4 584.4,275.7 585.3,275.4 586.3,274.4 587.2,273.2 588.2,277.0 589.1,276.5 590.1,271.3 591.0,278.7 592.0,276.4 593.0,276.0 593.9,275.0 594.8,276.3 595.8,277.4 596.7,274.6 597.7,276.1 598.7,273.8 599.6,273.9 600.6,273.8 601.5,270.2 602.5,268.7 603.4,273.0 604.4,271.4 605.3,274.2 606.3,271.9 607.2,271.2 608.2,272.3 609.1,272.4 610.1,273.0 611.0,279.9 612.0,275.6 612.9,273.8 613.9,275.6 614.8,274.5 615.8,279.5 616.7,259.1 617.7,272.7 618.6,273.3 619.6,277.3 620.5,273.8 621.5,275.2 622.5,275.2 623.4,274.4 624.4,277.2 625.3,275.3 626.3,273.5 627.2,273.2 628.2,272.4 629.1,272.5 630.1,272.5 631.0,272.2 632.0,272.8 632.9,272.3 633.9,273.1 634.8,273.4 635.8,275.0 636.8,275.1 637.7,274.5 638.7,274.2 639.6,270.4 640.6,271.9 641.5,273.6 642.5,273.8 643.4,276.7 644.4,274.2 645.3,271.3 646.3,273.5 647.2,273.6 648.2,271.6 649.1,273.9 650.1,276.6 651.0,275.3 652.0,273.3 652.9,276.9 653.9,277.5 654.8,274.1 655.8,268.8 656.7,278.4 657.7,276.5 658.6,275.4 659.6,276.8 660.5,279.1 661.5,276.6 662.4,275.8 663.4,278.0 664.3,274.1 665.3,278.4 666.2,282.1 667.2,276.0 668.1,276.0 669.1,278.8 670.1,275.2 671.0,277.8 671.9,276.9 672.9,277.2 673.8,277.2 674.8,275.4" fill="none" stroke="#16a34a" stroke-width="1.5"/>
<polyline points="65.0,295.4 65.9,185.4 66.9,42.8 67.8,207.5 68.8,327.2 69.7,278.6 70.7,249.4 71.6,235.7 72.6,244.6 73.5,254.7 74.5,262.5 75.5,255.2 76.4,256.0 77.4,257.3 78.3,262.6 79.3,286.2 80.2,265.5 81.2,255.9 82.1,259.3 83.1,266.6 84.0,238.6 85.0,262.9 85.9,274.0 86.9,268.2 87.8,277.9 88.8,271.5 89.7,277.6 90.7,277.5 91.7,276.3 92.6,279.4 93.6,288.7 94.5,274.9 95.5,279.6 96.4,281.7 97.4,276.8 98.3,285.2 99.3,286.3 100.2,286.2 101.2,279.4 102.1,277.4 103.1,283.1 104.0,292.9 104.9,280.1 105.9,274.1 106.9,283.0 107.8,273.3 108.8,268.1 109.7,267.4 110.7,270.6 111.6,262.4 112.6,277.6 113.5,264.2 114.5,273.2 115.4,259.2 116.4,276.7 117.3,276.4 118.3,279.1 119.2,274.9 120.2,270.9 121.1,276.2 122.1,275.0 123.0,268.8 124.0,271.6 124.9,278.8 125.9,286.6 126.8,288.6 127.8,285.7 128.7,286.3 129.7,278.8 130.6,277.3 131.6,289.5 132.5,286.5 133.5,281.3 134.4,284.5 135.4,279.8 136.3,288.5 137.3,289.0 138.2,285.1 139.2,279.7 140.1,289.4 141.1,282.9 142.0,282.2 143.0,280.6 143.9,275.7 144.9,271.2 145.8,277.4 146.8,281.8 147.7,273.6 148.7,281.3 149.6,278.9 150.6,279.3 151.5,281.6 152.5,266.2 153.4,271.1 154.4,280.3 155.3,287.2 156.3,278.4 157.2,275.3 158.2,283.6 159.1,262.4 160.1,279.7 161.0,281.5 162.0,276.2 162.9,282.9 163.9,284.4 164.8,278.2 165.8,281.3 166.7,281.5 167.7,281.5 168.6,279.9 169.6,271.4 170.5,281.8 171.5,283.0 172.4,280.6 173.3,282.8 174.3,282.8 175.2,289.8 176.2,278.6 177.1,276.6 178.1,282.9 179.0,282.4 180.0,290.8 180.9,282.0 181.9,270.2 182.8,286.1 183.8,283.2 184.7,287.2 185.7,295.3 186.6,286.9 187.6,281.5 188.5,290.9 189.5,289.6 190.4,291.6 191.3,291.1 192.3,277.4 193.2,292.4 194.2,289.1 195.1,281.7 196.1,291.5 197.0,289.9 198.0,313.2 198.9,291.4 199.9,284.4 200.8,290.4 201.8,286.8 202.7,284.2 203.7,291.2 204.6,281.9 205.6,287.5 206.5,280.9 207.5,285.5 208.4,286.3 209.4,281.6 210.3,287.4 211.2,285.8 212.2,289.1 213.1,281.6 214.1,274.7 215.0,294.4 216.0,286.0 216.9,288.2 217.9,279.1 218.8,276.1 219.8,275.1 220.7,266.8 221.7,281.0 222.6,281.8 223.6,284.8 224.5,279.4 225.5,273.0 226.4,269.6 227.3,275.5 228.3,274.1 229.2,276.1 230.2,268.5 231.1,275.4 232.1,270.1 233.0,275.8 234.0,275.4 234.9,269.8 235.9,274.0 236.8,243.0 237.8,267.0 238.7,270.9 239.7,296.0 240.6,271.6 241.5,285.8 242.5,277.7 243.4,273.9 244.4,278.4 245.3,282.9 246.3,272.1 247.2,279.1 248.2,273.4 249.1,273.9 250.1,275.4 251.0,274.4 252.0,279.0 252.9,276.5 253.9,277.8 254.8,274.9 255.8,266.9 256.7,279.1 257.7,281.5 258.6,260.1 259.6,271.1 260.5,277.9 261.5,276.8 262.4,283.8 263.4,294.6 264.3,283.9 265.3,278.9 266.2,285.6 267.2,280.2 268.1,279.2 269.1,281.7 270.0,282.0 271.0,276.7 272.0,284.1 272.9,299.3 273.9,303.0 274.8,288.7 275.8,285.1 276.7,290.4 277.7,290.9 278.6,286.3 279.6,284.0 280.5,297.4 281.5,287.6 282.4,290.2 283.4,289.8 284.3,299.2 285.3,290.2 286.2,294.1 287.2,289.6 288.1,291.3 289.1,289.6 290.0,288.9 291.0,245.9 291.9,287.9 292.9,283.4 293.9,283.6 294.8,291.6 295.8,291.1 296.7,281.3 297.7,284.0 298.6,282.4 299.6,286.7 300.5,285.5 301.4,291.5 302.4,290.4 303.4,282.5 304.3,286.0 305.3,284.9 306.2,280.7 307.2,288.9 308.1,282.1 309.1,279.9 310.0,286.8 311.0,294.7 311.9,287.3 312.9,282.9 313.8,279.7 314.8,286.6 315.7,287.6 316.7,295.7 317.6,282.3 318.6,283.4 319.5,286.6 320.5,276.3 321.4,270.3 322.4,282.8 323.3,289.0 324.3,280.7 325.2,273.1 326.2,282.5 327.1,279.9 328.1,280.6 329.0,281.9 330.0,280.5 330.9,287.9 331.9,287.0 332.8,271.8 333.8,257.7 334.7,268.5 335.7,282.9 336.6,286.1 337.6,293.0 338.5,277.1 339.5,285.7 340.4,285.4 341.4,288.4 342.3,287.8 343.3,269.9 344.2,314.9 345.2,301.1 346.1,273.8 347.1,288.8 348.0,275.6 349.0,289.4 350.0,282.2 350.9,286.7 351.8,289.4 352.8,285.3 353.7,299.0 354.7,286.5 355.6,286.1 356.6,291.0 357.5,280.0 358.5,286.0 359.4,286.5 360.4,286.0 361.3,283.4 362.3,294.7 363.3,294.1 364.2,286.4 365.2,282.0 366.1,294.3 367.1,289.9 368.0,287.6 368.9,292.1 369.9,284.7 370.8,271.1 371.8,294.1 372.7,294.2 373.7,296.6 374.6,296.1 375.6,291.5 376.5,289.8 377.5,290.8 378.5,295.6 379.4,290.6 380.4,277.3 381.3,277.0 382.3,286.0 383.2,288.1 384.2,287.8 385.1,291.2 386.1,296.2 387.0,290.8 388.0,283.4 388.9,290.1 389.9,281.1 390.8,289.9 391.8,291.5 392.7,283.7 393.7,289.5 394.6,291.2 395.6,293.0 396.5,294.6 397.5,285.5 398.5,288.5 399.4,286.4 400.4,287.3 401.3,294.7 402.3,281.1 403.2,288.3 404.1,281.0 405.1,296.6 406.0,282.5 407.0,287.0 407.9,284.2 408.9,292.5 409.9,298.9 410.8,296.7 411.8,299.8 412.7,286.6 413.7,295.1 414.6,289.8 415.6,290.6 416.5,279.5 417.5,289.7 418.4,298.1 419.4,287.7 420.3,290.6 421.3,298.4 422.2,291.3 423.2,285.1 424.2,299.1 425.1,259.3 426.1,271.6 427.0,271.5 428.0,308.4 428.9,283.4 429.9,287.6 430.8,283.7 431.8,285.0 432.7,291.9 433.7,294.8 434.7,283.7 435.6,290.8 436.6,293.9 437.5,287.5 438.5,290.9 439.4,285.3 440.4,286.8 441.3,293.3 442.3,303.8 443.2,292.3 444.2,294.9 445.2,292.5 446.1,291.1 447.1,283.4 448.0,285.4 449.0,300.3 449.9,290.2 450.9,293.9 451.8,293.0 452.8,293.8 453.7,288.6 454.7,293.3 455.6,289.8 456.6,289.1 457.5,287.5 458.5,287.0 459.4,302.8 460.4,291.7 461.3,281.4 462.3,282.8 463.2,276.7 464.2,280.2 465.1,279.0 466.1,282.9 467.1,286.9 468.0,284.5 469.0,286.6 469.9,279.6 470.9,284.1 471.8,295.4 472.8,300.9 473.7,286.0 474.7,286.7 475.7,282.7 476.7,287.7 477.7,292.2 478.6,290.3 479.6,287.0 480.5,304.4 481.5,298.8 482.4,301.1 483.4,286.1 484.3,297.3 485.3,294.3 486.2,294.1 487.2,291.5 488.1,287.0 489.1,287.1 490.0,278.2 491.0,287.0 491.9,311.8 492.8,294.7 493.8,294.2 494.8,291.7 495.7,288.8 496.7,291.5 497.7,293.6 498.6,288.2 499.6,291.3 500.5,300.7 501.5,295.8 502.4,300.2 503.4,302.5 504.3,294.2 505.3,297.2 506.2,292.8 507.2,296.0 508.1,296.7 509.1,291.2 510.0,290.9 511.0,290.5 511.9,288.6 512.9,286.1 513.9,294.1 514.8,293.1 515.8,291.1 516.8,290.0 517.7,284.1 518.7,287.4 519.6,292.6 520.6,282.6 521.5,282.7 522.5,300.6 523.4,283.0 524.4,285.7 525.3,281.4 526.3,279.2 527.2,292.5 528.2,273.1 529.2,294.2 530.1,271.9 531.1,291.5 532.1,291.2 533.0,285.7 534.0,283.0 534.9,284.3 535.9,294.7 536.8,289.7 537.8,291.4 538.7,286.0 539.7,283.5 540.6,277.4 541.6,277.5 542.5,288.2 543.5,281.7 544.4,278.6 545.4,280.6 546.4,290.0 547.3,282.5 548.3,301.0 549.2,293.4 550.2,293.5 551.1,280.8 552.1,286.9 553.0,283.4 554.0,288.3 554.9,285.7 555.9,294.7 556.8,291.4 557.8,291.2 558.7,289.6 559.7,285.8 560.6,279.5 561.6,279.7 562.6,292.0 563.5,289.4 564.5,290.3 565.4,286.4 566.4,281.4 567.3,284.4 568.3,291.4 569.2,304.0 570.2,289.8 571.1,285.4 572.0,287.3 573.0,291.4 573.9,291.8 574.9,295.3 575.8,285.1 576.8,296.9 577.8,290.0 578.7,294.2 579.7,280.7 580.6,282.9 581.6,295.1 582.5,291.0 583.4,290.1 584.4,293.5 585.3,292.3 586.3,292.3 587.2,293.0 588.2,290.8 589.1,297.8 590.1,296.6 591.0,304.3 592.0,293.1 593.0,289.6 593.9,293.1 594.8,295.9 595.8,300.5 596.7,290.0 597.7,295.3 598.7,286.3 599.6,290.3 600.6,289.6 601.5,286.1 602.5,283.0 603.4,286.9 604.4,267.4 605.3,289.9 606.3,287.3 607.2,289.0 608.2,292.3 609.1,285.7 610.1,290.5 611.0,298.3 612.0,292.1 612.9,287.6 613.9,289.6 614.8,291.3 615.8,304.9 616.7,256.1 617.7,284.2 618.6,278.2 619.6,296.0 620.5,287.5 621.5,298.9 622.5,287.5 623.4,294.3 624.4,299.1 625.3,296.0 626.3,287.3 627.2,290.7 628.2,291.9 629.1,293.7 630.1,289.0 631.0,285.7 632.0,285.7 632.9,276.3 633.9,282.9 634.8,286.2 635.8,289.3 636.8,288.6 637.7,289.7 638.7,291.9 639.6,282.7 640.6,285.2 641.5,286.4 642.5,289.9 643.4,290.4 644.4,284.1 645.3,276.5 646.3,283.8 647.2,289.9 648.2,275.4 649.1,261.7 650.1,288.9 651.0,289.8 652.0,285.6 652.9,286.1 653.9,291.7 654.8,287.0 655.8,267.6 656.7,293.6 657.7,288.0 658.6,288.7 659.6,294.0 660.5,296.2 661.5,291.5 662.4,284.0 663.4,297.6 664.3,287.5 665.3,289.4 666.2,301.1 667.2,285.0 668.1,285.4 669.1,292.5 670.1,288.2 671.0,289.2 671.9,287.8 672.9,292.3 673.8,295.6 674.8,285.0" fill="none" stroke="#2563eb" stroke-width="2.5"/>
<rect x="65" y="20" width="610" height="330" fill="none" stroke="#888" stroke-width="1.5"/>
<line x1="62" y1="308.5" x2="65" y2="308.5" stroke="#64748b" stroke-width="1" opacity="0.6"/>
<line x1="62" y1="260.0" x2="65" y2="260.0" stroke="#64748b" stroke-width="1" opacity="0.6"/>
<line x1="62" y1="199.0" x2="65" y2="199.0" stroke="#64748b" stroke-width="1" opacity="0.6"/>
<line x1="60" y1="116.3" x2="65" y2="116.3" stroke="#64748b" stroke-width="1.5"/>
<text x="57" y="116.3" text-anchor="end" dominant-baseline="middle" font-size="11" font-family="monospace,sans-serif" fill="#64748b">10</text>
<line x1="62" y1="33.5" x2="65" y2="33.5" stroke="#64748b" stroke-width="1" opacity="0.6"/>
<line x1="675" y1="295.3" x2="680" y2="295.3" stroke="#2563eb" stroke-width="1.5"/>
<text x="683" y="295.3" text-anchor="start" dominant-baseline="middle" font-size="11" font-family="monospace,sans-serif" fill="#2563eb">0.0</text>
<line x1="675" y1="200.9" x2="680" y2="200.9" stroke="#2563eb" stroke-width="1.5"/>
<text x="683" y="200.9" text-anchor="start" dominant-baseline="middle" font-size="11" font-family="monospace,sans-serif" fill="#2563eb">1.0</text>
<line x1="675" y1="106.6" x2="680" y2="106.6" stroke="#2563eb" stroke-width="1.5"/>
<text x="683" y="106.6" text-anchor="start" dominant-baseline="middle" font-size="11" font-family="monospace,sans-serif" fill="#2563eb">2.0</text>
<line x1="65.0" y1="350" x2="65.0" y2="355" stroke="#888" stroke-width="1.5"/>
<text x="65.0" y="368" text-anchor="middle" font-size="11" font-family="monospace,sans-serif">0</text>
<line x1="187.1" y1="350" x2="187.1" y2="355" stroke="#888" stroke-width="1.5"/>
<text x="187.1" y="368" text-anchor="middle" font-size="11" font-family="monospace,sans-serif">2</text>
<line x1="309.3" y1="350" x2="309.3" y2="355" stroke="#888" stroke-width="1.5"/>
<text x="309.3" y="368" text-anchor="middle" font-size="11" font-family="monospace,sans-serif">4</text>
<line x1="431.4" y1="350" x2="431.4" y2="355" stroke="#888" stroke-width="1.5"/>
<text x="431.4" y="368" text-anchor="middle" font-size="11" font-family="monospace,sans-serif">6</text>
<line x1="553.6" y1="350" x2="553.6" y2="355" stroke="#888" stroke-width="1.5"/>
<text x="553.6" y="368" text-anchor="middle" font-size="11" font-family="monospace,sans-serif">8</text>
<line x1="675.7" y1="350" x2="675.7" y2="355" stroke="#888" stroke-width="1.5"/>
<text x="675.7" y="368" text-anchor="middle" font-size="11" font-family="monospace,sans-serif">10</text>
<text x="370" y="392" text-anchor="middle" font-size="13" font-family="sans-serif">Runtime (minutes)</text>
<text transform="rotate(-90,28,185)" x="28" y="185" text-anchor="middle" font-size="13" font-family="sans-serif" fill="#64748b">Train loss (log scale)</text>
<text transform="rotate(90,746,185)" x="746" y="185" text-anchor="middle" font-size="13" font-family="sans-serif" fill="#2563eb">Train loss diff (exp − base)</text>
<rect x="72" y="26" width="140" height="62" fill="white" fill-opacity="0.85" stroke="#ddd" stroke-width="1" rx="3"/>
<line x1="77" y1="37" x2="99" y2="37" stroke="#64748b" stroke-width="1.5" stroke-dasharray="5,3"/>
<text x="104" y="41" font-size="11" font-family="sans-serif" fill="#64748b">Baseline train loss</text>
<line x1="77" y1="55" x2="99" y2="55" stroke="#16a34a" stroke-width="1.5"/>
<text x="104" y="59" font-size="11" font-family="sans-serif" fill="#16a34a">Experiment train loss</text>
<line x1="77" y1="73" x2="99" y2="73" stroke="#2563eb" stroke-width="2.5"/>
<text x="104" y="77" font-size="11" font-family="sans-serif" fill="#2563eb">Train loss diff</text>
</svg>