<svg xmlns="http://www.w3.org/2000/svg" viewBox="0 0 760 400" width="760" height="400" style="background:white">
<rect x="65" y="20" width="610" height="330" fill="#f9f9f9"/>
<line x1="65" y1="308.5" x2="675" y2="308.5" stroke="#ececec" stroke-width="1"/>
<line x1="65" y1="260.0" x2="675" y2="260.0" stroke="#ececec" stroke-width="1"/>
<line x1="65" y1="199.0" x2="675" y2="199.0" stroke="#ececec" stroke-width="1"/>
<line x1="65" y1="116.3" x2="675" y2="116.3" stroke="#ddd" stroke-width="1"/>
<line x1="65" y1="33.5" x2="675" y2="33.5" stroke="#ececec" stroke-width="1"/>
<line x1="65.0" y1="20" x2="65.0" y2="350" stroke="#ececec" stroke-width="1"/>
<line x1="187.0" y1="20" x2="187.0" y2="350" stroke="#ececec" stroke-width="1"/>
<line x1="309.0" y1="20" x2="309.0" y2="350" stroke="#ececec" stroke-width="1"/>
<line x1="431.0" y1="20" x2="431.0" y2="350" stroke="#ececec" stroke-width="1"/>
<line x1="553.0" y1="20" x2="553.0" y2="350" stroke="#ececec" stroke-width="1"/>
<line x1="675.0" y1="20" x2="675.0" y2="350" stroke="#ececec" stroke-width="1"/>
<line x1="65" y1="324.0" x2="675" y2="324.0" stroke="#2563eb" stroke-width="0.75" stroke-dasharray="3,3" opacity="0.4"/>
<polyline points="65.0,119.8 65.7,52.7 66.4,85.4 67.2,143.1 67.9,161.7 68.6,155.9 69.3,156.3 70.0,160.5 70.8,165.4 71.5,169.2 72.2,173.0 72.9,174.1 73.7,175.4 74.4,177.2 75.1,179.4 75.9,182.9 76.6,182.6 77.3,184.4 78.1,185.3 78.8,187.9 79.5,183.4 80.2,190.6 81.0,195.3 81.7,195.4 82.4,197.5 83.2,199.1 83.9,201.0 84.6,202.6 85.4,203.9 86.1,205.5 86.8,207.3 87.6,206.5 88.3,208.8 89.0,210.2 89.8,209.9 90.5,211.2 91.2,211.7 92.0,213.6 92.7,213.0 93.4,211.6 94.2,215.0 94.9,216.3 95.6,215.9 96.4,216.4 97.1,218.2 97.8,216.4 98.6,215.7 99.3,216.3 100.0,217.6 100.8,217.9 101.5,220.5 102.2,218.4 103.0,221.0 103.7,216.1 104.4,223.2 105.2,221.9 105.9,224.2 106.6,223.4 107.4,223.2 108.1,225.6 108.8,224.9 109.6,226.2 110.3,225.8 111.0,228.0 111.8,229.5 112.5,228.1 113.2,229.9 113.9,229.6 114.7,229.6 115.4,228.9 116.1,231.5 116.9,228.9 117.6,229.7 118.3,231.5 119.1,231.5 119.8,233.3 120.6,232.0 121.3,234.0 122.0,232.7 122.8,236.1 123.5,235.2 124.2,234.4 125.0,234.6 125.7,233.6 126.4,232.0 127.2,230.8 127.9,235.6 128.6,233.4 129.4,235.9 130.1,236.0 130.8,235.3 131.6,234.7 132.3,232.1 133.0,234.5 133.8,236.5 134.5,236.2 135.2,237.5 136.0,235.4 136.7,239.0 137.5,233.1 138.2,238.7 138.9,238.8 139.7,238.1 140.4,239.0 141.1,240.5 141.9,239.5 142.6,239.8 143.3,241.3 144.1,240.6 144.8,241.0 145.6,236.4 146.3,241.3 147.0,241.1 147.8,242.2 148.5,241.8 149.2,241.0 150.0,244.4 150.7,239.8 151.4,240.6 152.2,242.8 152.9,242.2 153.7,244.3 154.4,242.3 155.1,238.8 155.9,245.0 156.6,243.3 157.3,243.1 158.1,243.9 158.8,244.6 159.6,244.0 160.3,245.5 161.0,244.2 161.8,245.5 162.5,246.0 163.2,241.8 164.0,246.5 164.7,246.6 165.4,245.1 166.2,247.4 166.9,247.2 167.7,246.3 168.4,247.1 169.1,246.4 169.9,244.9 170.6,248.1 171.3,246.2 172.1,248.8 172.8,246.1 173.5,247.4 174.3,245.7 175.0,247.1 175.7,247.5 176.5,245.5 177.2,249.1 178.0,248.2 178.7,248.1 179.4,247.3 180.2,246.2 180.9,247.8 181.6,248.0 182.4,250.2 183.1,247.2 183.9,248.8 184.6,246.6 185.3,243.3 186.1,247.7 186.8,248.8 187.5,249.7 188.3,248.0 189.0,247.2 189.8,246.4 190.5,248.4 191.2,248.0 192.0,249.3 192.7,247.3 193.4,249.0 194.2,249.4 194.9,250.6 195.6,250.2 196.4,248.7 197.1,250.5 197.9,240.0 198.6,248.8 199.3,250.7 200.1,251.8 200.8,246.5 201.5,252.7 202.3,250.3 203.0,252.9 203.7,250.6 204.5,252.3 205.2,250.1 206.0,252.6 206.7,251.4 207.4,251.6 208.2,251.9 208.9,250.9 209.6,252.5 210.4,253.6 211.1,252.8 211.9,251.7 212.6,251.3 213.3,255.2 214.1,254.8 214.8,248.8 215.6,252.1 216.3,254.0 217.0,253.9 217.8,254.9 218.5,258.1 219.2,256.3 220.0,255.7 220.7,255.1 221.4,254.5 222.2,254.8 222.9,255.2 223.7,254.4 224.4,255.3 225.1,257.0 225.9,257.0 226.6,258.2 227.3,257.4 228.1,257.5 228.8,257.2 229.5,259.1 230.3,259.2 231.0,258.0 231.8,260.6 232.5,258.7 233.2,260.1 234.0,259.0 234.7,260.3 235.4,259.9 236.2,261.2 236.9,260.1 237.7,262.0 238.4,262.1 239.1,259.5 239.9,244.4 240.6,260.8 241.3,257.8 242.1,257.5 242.8,260.7 243.5,264.4 244.3,257.7 245.0,257.9 245.8,260.4 246.5,260.1 247.2,259.8 248.0,261.3 248.7,262.3 249.4,260.4 250.2,261.6 250.9,260.3 251.6,259.6 252.4,263.2 253.1,261.6 253.9,260.1 254.6,260.7 255.3,264.0 256.0,263.3 256.8,262.9 257.5,261.4 258.3,264.1 259.0,262.7 259.7,263.8 260.5,261.5 261.2,262.5 261.9,261.4 262.7,259.0 263.4,259.5 264.1,262.0 264.9,264.0 265.6,261.6 266.3,258.9 267.1,262.2 267.8,262.2 268.6,261.9 269.3,261.5 270.0,260.3 270.8,264.5 271.5,264.6 272.2,258.7 273.0,254.7 273.7,255.7 274.4,260.8 275.2,262.0 275.9,263.4 276.7,259.3 277.4,261.9 278.1,263.4 278.9,265.7 279.6,262.5 280.3,260.2 281.1,262.3 281.8,263.6 282.5,262.4 283.3,262.0 284.0,259.0 284.7,263.3 285.5,262.5 286.2,262.8 287.0,263.2 287.7,262.9 288.4,268.3 289.2,263.3 289.9,263.3 290.7,264.3 291.4,265.5 292.1,263.1 292.9,263.1 293.6,262.9 294.3,260.9 295.1,268.0 295.8,266.2 296.6,263.6 297.3,263.3 298.0,266.8 298.8,266.5 299.5,263.4 300.2,264.6 301.0,263.9 301.7,263.0 302.4,266.0 303.2,266.6 303.9,265.9 304.7,266.2 305.4,264.5 306.1,266.9 306.9,266.5 307.6,267.8 308.3,267.3 309.1,266.6 309.8,264.8 310.5,264.8 311.3,265.7 312.0,267.6 312.8,268.6 313.5,268.4 314.2,269.6 315.0,266.7 315.7,266.4 316.4,264.1 317.2,267.2 317.9,268.5 318.6,267.1 319.4,264.7 320.1,267.2 320.9,272.0 321.6,269.2 322.3,267.2 323.1,266.8 323.8,267.8 324.6,268.5 325.3,269.5 326.0,267.1 326.8,268.4 327.5,267.2 328.2,271.3 329.0,266.2 329.7,267.9 330.4,268.3 331.2,268.8 331.9,268.6 332.6,269.2 333.4,272.0 334.1,266.2 334.9,269.5 335.6,265.3 336.3,266.1 337.1,263.6 337.8,267.2 338.5,267.9 339.3,266.1 340.0,267.3 340.8,269.8 341.5,267.3 342.2,265.1 343.0,272.1 343.7,251.6 344.4,262.1 345.2,260.5 345.9,275.1 346.7,264.9 347.4,269.8 348.1,265.1 348.9,266.7 349.6,268.6 350.3,267.2 351.1,265.8 351.8,266.0 352.6,267.9 353.3,267.1 354.0,267.6 354.8,267.2 355.5,267.7 356.2,266.3 357.0,274.1 357.7,268.6 358.5,266.3 359.2,267.1 359.9,267.6 360.7,266.1 361.4,267.6 362.1,268.9 362.9,266.8 363.6,267.7 364.3,268.2 365.1,270.2 365.8,267.5 366.5,270.8 367.3,267.9 368.0,267.0 368.7,265.9 369.5,268.4 370.2,277.4 371.0,269.7 371.7,265.5 372.4,267.6 373.2,265.7 373.9,265.4 374.6,267.5 375.4,266.6 376.1,270.2 376.8,268.7 377.6,269.0 378.3,267.6 379.0,269.5 379.8,273.2 380.5,279.5 381.3,270.0 382.0,269.6 382.7,269.3 383.5,269.6 384.2,272.7 384.9,270.3 385.7,268.3 386.4,272.7 387.2,270.7 387.9,273.3 388.6,268.6 389.4,271.4 390.1,270.0 390.8,270.2 391.6,270.5 392.3,272.7 393.1,268.8 393.8,265.9 394.5,270.9 395.3,273.7 396.0,269.4 396.7,272.0 397.5,272.6 398.2,269.7 398.9,271.8 399.7,273.2 400.4,271.2 401.1,270.1 401.9,273.8 402.6,270.9 403.4,273.0 404.1,274.1 404.8,270.7 405.6,272.4 406.3,271.0 407.0,273.8 407.8,274.0 408.5,270.9 409.2,267.2 410.0,268.8 410.7,269.2 411.5,270.4 412.2,270.7 412.9,270.3 413.7,269.7 414.4,268.3 415.2,268.7 415.9,269.6 416.6,271.5 417.4,269.3 418.1,266.8 418.8,270.3 419.6,269.8 420.3,269.3 421.0,268.6 421.8,269.2 422.5,272.8 423.2,265.8 424.0,272.7 424.7,267.7 425.5,273.7 426.2,271.9 426.9,270.9 427.7,269.3 428.4,270.0 429.2,275.4 429.9,271.9 430.6,270.4 431.4,271.7 432.1,270.3 432.8,270.1 433.6,266.5 434.3,272.1 435.1,268.7 435.8,268.8 436.5,269.5 437.2,271.6 438.0,269.8 438.7,272.0 439.5,272.8 440.2,271.9 440.9,267.8 441.7,270.8 442.4,269.0 443.1,271.6 443.9,266.6 444.6,268.9 445.3,269.4 446.1,271.2 446.8,272.4 447.6,272.6 448.3,266.4 449.0,268.4 449.8,270.6 450.5,268.3 451.2,269.7 452.0,270.5 452.7,271.3 453.4,271.2 454.2,272.2 454.9,271.2 455.7,269.9 456.4,270.5 457.1,269.8 457.9,272.7 458.6,273.1 459.3,275.3 460.1,271.2 460.8,272.5 461.5,272.8 462.3,276.0 463.0,274.0 463.7,273.0 464.5,276.6 465.2,273.5 466.0,272.7 466.7,275.0 467.4,274.3 468.2,273.8 468.9,272.5 469.6,276.1 470.4,275.6 471.1,270.5 471.8,278.0 472.6,276.1 473.3,275.1 474.1,274.1 474.8,275.2 475.5,276.6 476.3,273.6 477.0,275.0 477.7,273.3 478.5,273.1 479.2,272.6 480.0,269.2 480.7,267.8 481.4,272.3 482.2,270.9 482.9,273.4 483.6,271.0 484.4,270.3 485.1,271.5 485.8,271.4 486.6,271.9 487.3,279.3 488.0,274.7 488.8,272.6 489.5,274.4 490.2,273.8 491.0,278.7 491.7,258.4 492.4,271.8 493.2,272.6 493.9,276.6 494.7,272.8 495.4,274.0 496.1,274.3 496.9,273.5 497.6,276.4 498.3,274.5 499.1,272.5 499.8,272.2 500.5,271.4 501.3,271.3 502.0,271.4 502.7,271.4 503.5,271.8 504.2,271.3 505.0,272.1 505.7,272.6 506.4,274.3 507.2,274.1 507.9,273.8 508.6,273.3 509.3,269.4 510.1,270.8 510.8,272.6 511.6,272.9 512.3,275.9 513.0,273.4 513.8,270.3 514.5,272.4 515.3,272.6 516.0,270.9 516.7,272.9 517.5,275.7 518.2,274.1 518.9,272.7 519.7,276.0 520.4,276.4 521.1,272.8 521.9,267.7 522.6,276.9 523.4,275.3 524.1,274.4 524.8,276.0 525.6,278.2 526.3,275.6 527.0,274.6 527.8,277.0 528.5,273.0 529.2,277.3 530.0,281.3 530.7,274.9 531.5,274.8 532.2,277.9 532.9,274.4 533.7,276.6 534.4,275.9 535.1,276.2 535.9,276.5 536.6,274.5 537.3,272.7 538.1,277.3 538.8,275.1 539.5,277.9 540.3,279.8 541.0,275.7 541.7,276.6 542.5,276.6 543.2,275.5 544.0,277.6 544.7,278.1 545.4,274.1 546.2,275.6 546.9,276.7 547.6,270.1 548.4,274.0 549.1,275.2 549.9,272.7 550.6,275.4 551.3,275.6 552.1,275.6 552.8,274.8 553.5,276.2 554.3,271.5 555.0,272.5 555.7,265.9 556.5,274.9 557.2,273.8 557.9,275.8 558.7,276.9 559.4,279.1 560.2,273.6 560.9,276.7 561.6,273.2 562.4,272.3 563.1,271.3 563.8,272.7 564.6,275.1 565.3,275.9 566.1,280.3 566.8,276.8 567.5,274.6 568.3,275.5 569.0,260.9 569.7,276.9 570.5,276.4 571.2,274.0 571.9,274.9 572.7,275.8 573.4,275.8 574.2,276.3 574.9,275.4 575.6,278.3 576.4,271.3 577.1,275.9 577.8,276.4 578.6,279.1 579.3,283.6 580.0,279.9 580.8,277.5 581.5,277.8 582.2,275.4 583.0,276.0 583.7,276.5 584.5,277.2 585.2,276.3 585.9,275.6 586.7,274.3 587.4,279.9 588.1,277.1 588.9,273.7 589.6,270.0 590.3,274.0 591.1,276.9 591.8,278.1 592.5,279.0 593.3,276.1 594.0,273.8 594.8,281.4 595.5,270.3 596.2,278.2 597.0,275.5 597.7,279.5 598.5,276.5 599.2,276.2 599.9,276.6 600.7,275.1 601.4,273.2 602.1,275.3 602.9,277.2 603.6,286.5 604.4,278.8 605.1,274.6 605.8,276.1 606.6,274.3 607.3,272.3 608.0,275.9 608.8,277.5 609.5,275.1 610.2,278.5 611.0,278.1 611.7,276.3 612.5,277.7 613.2,278.4 613.9,278.1 614.7,273.8 615.4,275.3 616.1,276.8 616.9,279.0 617.6,275.3 618.4,287.6 619.1,274.6 619.8,277.9 620.6,274.8 621.3,271.4 622.0,281.9 622.8,274.8 623.5,276.4 624.3,273.2 625.0,276.1 625.7,277.5 626.5,275.6 627.2,274.0 628.0,274.0 628.7,273.0 629.4,275.5 630.2,276.9 630.9,276.2 631.6,278.3 632.4,281.9 633.1,279.1 633.8,278.7 634.6,276.7 635.3,278.3 636.0,278.5 636.8,277.2 637.5,277.3 638.3,275.2 639.0,276.3 639.7,276.4 640.5,277.7 641.2,278.0 641.9,276.2 642.7,279.2 643.4,278.6 644.1,281.1 644.9,280.1 645.6,279.2 646.3,274.3 647.1,280.3 647.8,281.9 648.6,292.1 649.3,280.0 650.0,278.3 650.8,277.4 651.5,278.2 652.2,281.5 653.0,279.4 653.7,279.0 654.4,277.7 655.2,282.5 655.9,278.6 656.7,281.7 657.4,278.3 658.1,278.7 658.9,277.4 659.6,278.6 660.3,278.8 661.1,278.2 661.8,281.6 662.5,276.4 663.3,278.2 664.0,277.5 664.7,282.3 665.5,279.1 666.2,280.0 666.9,282.8 667.7,279.9 668.4,280.2 669.1,277.4 669.9,281.5 670.6,280.2 671.4,280.6 672.1,278.8 672.8,277.9 673.6,276.0 674.3,282.3" fill="none" stroke="#64748b" stroke-width="1.5" stroke-dasharray="5,3"/>
<polyline points="65.0,119.6 66.3,56.3 67.7,95.0 69.0,149.3 70.3,161.5 71.7,152.3 73.0,154.2 74.3,158.2 75.7,163.4 77.0,166.6 78.3,170.6 79.7,172.2 81.0,174.7 82.3,176.8 83.6,179.0 85.0,182.4 86.3,183.1 87.6,185.5 89.0,187.2 90.3,190.5 91.6,186.6 93.0,193.4 94.3,197.8 95.6,198.6 97.0,200.9 98.3,201.7 99.6,203.6 100.9,204.7 102.3,206.0 103.6,207.4 104.9,209.0 106.3,208.4 107.6,210.3 108.9,211.4 110.3,211.0 111.6,212.0 112.9,212.5 114.2,213.9 115.6,213.1 116.9,212.6 118.2,215.6 119.6,216.6 120.9,216.6 122.2,216.6 123.6,218.3 124.9,216.5 126.2,215.8 127.6,216.5 128.9,217.8 130.2,217.8 131.6,221.1 132.9,218.8 134.2,221.5 135.5,216.1 136.9,223.5 138.2,222.0 139.5,224.5 140.9,223.8 142.2,223.9 143.5,225.7 144.9,224.9 146.2,226.6 147.5,225.9 148.9,228.4 150.2,230.4 151.5,228.6 152.9,230.2 154.2,229.7 155.5,229.7 156.8,229.2 158.2,232.2 159.5,229.3 160.8,230.2 162.2,232.0 163.5,232.1 164.8,233.9 166.2,232.5 167.5,234.4 168.8,233.1 170.2,236.5 171.5,235.5 172.8,234.5 174.2,235.3 175.5,234.1 176.8,232.3 178.2,231.0 179.5,236.3 180.8,233.8 182.1,236.0 183.5,235.9 184.8,235.7 186.2,235.4 187.5,232.8 188.8,235.2 190.1,237.0 191.5,236.3 192.8,237.9 194.1,235.8 195.5,239.0 196.8,233.4 198.1,238.8 199.5,238.7 200.8,238.4 202.1,239.5 203.5,241.2 204.8,240.4 206.1,240.4 207.5,241.6 208.8,241.0 210.1,241.5 211.5,237.1 212.8,242.0 214.1,241.9 215.5,242.7 216.8,242.5 218.1,241.3 219.4,245.0 220.8,240.0 222.1,240.9 223.4,243.5 224.8,242.6 226.1,244.7 227.4,242.5 228.8,238.8 230.1,245.5 231.4,243.8 232.8,243.7 234.1,244.5 235.4,245.6 236.8,244.7 238.1,246.0 239.4,244.6 240.7,246.2 242.1,246.4 243.4,242.5 244.8,247.0 246.1,247.2 247.4,245.3 248.8,247.6 250.1,247.7 251.4,246.9 252.7,247.8 254.1,247.0 255.4,245.3 256.7,248.6 258.1,246.7 259.4,249.1 260.7,246.8 262.0,247.8 263.4,246.1 264.7,247.6 266.0,247.9 267.4,245.6 268.7,249.4 270.0,248.7 271.4,248.6 272.7,247.6 274.0,246.3 275.4,248.0 276.7,248.2 278.0,250.1 279.4,247.3 280.7,248.8 282.0,246.0 283.4,243.8 284.7,247.8 286.0,248.9 287.3,249.5 288.7,248.1 290.0,247.1 291.3,246.2 292.7,248.7 294.0,248.3 295.3,249.3 296.7,247.1 298.0,248.6 299.3,248.6 300.7,250.4 302.0,250.2 303.3,248.7 304.7,250.1 306.0,239.3 307.3,248.3 308.7,250.0 310.0,251.1 311.3,245.7 312.6,252.0 314.0,249.7 315.3,252.2 316.6,249.8 317.9,251.5 319.3,248.7 320.6,251.4 322.0,250.4 323.3,250.7 324.6,251.0 325.9,249.8 327.3,251.3 328.6,252.7 329.9,251.8 331.3,251.0 332.6,250.6 333.9,254.5 335.3,253.3 336.6,247.6 337.9,251.3 339.3,252.9 340.6,252.3 341.9,253.5 343.3,256.9 344.6,255.5 345.9,254.4 347.2,253.8 348.6,253.0 349.9,253.1 351.3,254.4 352.6,253.1 353.9,254.4 355.3,255.7 356.6,255.7 357.9,256.6 359.2,256.4 360.6,256.0 361.9,256.2 363.2,258.0 364.6,257.6 365.9,257.1 367.2,259.6 368.6,257.7 369.9,259.3 371.2,257.9 372.6,259.2 373.9,259.6 375.2,260.6 376.6,258.8 377.9,261.1 379.2,261.4 380.5,258.4 381.9,243.5 383.2,260.0 384.5,256.9 385.9,256.8 387.2,260.2 388.5,264.3 389.9,257.2 391.2,257.4 392.5,260.2 393.9,259.8 395.2,259.6 396.5,261.1 397.9,261.9 399.2,260.4 400.5,261.4 401.9,259.9 403.2,259.3 404.5,263.4 405.9,261.7 407.2,260.0 408.5,260.3 409.9,263.7 411.2,262.7 412.5,262.5 413.9,261.3 415.2,264.2 416.5,262.5 417.9,264.1 419.2,261.8 420.5,262.7 421.9,261.2 423.2,259.0 424.5,259.6 425.9,262.2 427.2,264.2 428.5,261.2 429.9,258.8 431.2,262.0 432.5,261.7 433.9,262.0 435.2,262.2 436.5,261.1 437.9,265.0 439.2,264.9 440.5,258.8 441.9,254.9 443.2,256.2 444.5,261.0 445.9,262.4 447.2,263.9 448.5,259.8 449.9,262.4 451.2,263.7 452.5,266.2 453.8,263.0 455.2,260.7 456.5,262.6 457.9,263.9 459.2,262.9 460.5,262.6 461.8,259.5 463.2,263.8 464.5,263.0 465.9,263.4 467.2,263.9 468.5,263.7 469.9,268.6 471.2,263.8 472.5,263.8 473.8,264.8 475.2,266.3 476.5,263.6 477.8,263.3 479.2,263.6 480.5,261.6 481.8,268.5 483.2,266.9 484.5,264.3 485.8,264.2 487.2,267.6 488.5,267.7 489.8,264.7 491.2,265.6 492.5,265.0 493.8,263.8 495.2,266.7 496.5,267.4 497.8,266.6 499.1,267.1 500.5,265.5 501.8,268.1 503.1,267.3 504.5,268.6 505.8,268.0 507.1,267.0 508.5,265.7 509.8,265.8 511.1,266.6 512.5,268.4 513.8,269.5 515.1,269.1 516.5,270.3 517.8,267.4 519.2,267.0 520.5,264.9 521.8,268.0 523.2,269.1 524.5,267.8 525.8,265.6 527.1,268.0 528.5,272.9 529.8,270.3 531.1,268.0 532.5,267.6 533.8,268.6 535.1,269.6 536.5,270.6 537.8,267.8 539.1,269.1 540.5,267.9 541.8,272.5 543.1,267.2 544.5,269.0 545.8,269.3 547.1,270.1 548.5,269.6 549.8,270.1 551.1,273.0 552.5,267.4 553.8,270.5 555.1,266.4 556.4,267.2 557.8,264.4 559.1,268.1 560.4,269.0 561.8,267.3 563.1,268.4 564.4,270.8 565.8,267.9 567.1,266.0 568.4,273.4 569.8,253.0 571.1,262.9 572.4,261.4 573.7,276.4 575.1,265.9 576.4,271.1 577.7,266.3 579.1,267.6 580.4,269.6 581.7,268.6 583.1,267.2 584.4,267.2 585.7,268.9 587.1,268.1 588.4,268.6 589.7,268.2 591.1,269.0 592.4,267.5 593.7,275.3 595.1,269.7 596.4,267.4 597.7,268.2 599.1,268.7 600.4,267.1 601.7,268.9 603.0,270.2 604.4,268.0 605.7,268.8 607.0,269.3 608.4,271.6 609.7,268.7 611.0,272.1 612.4,269.1 613.7,268.2 615.0,266.9 616.4,269.5 617.7,279.0 619.0,271.1 620.3,266.8 621.7,269.0 623.0,266.4 624.3,266.6 625.7,268.6 627.0,267.9 628.3,271.6 629.7,269.9 631.0,270.1 632.3,268.8 633.7,270.6 635.0,274.3 636.3,280.4 637.7,271.1 639.0,270.9 640.3,270.5 641.7,270.9 643.0,273.9 644.3,271.5 645.7,269.5 647.0,273.9 648.3,272.0 649.7,274.6 651.0,269.7 652.3,272.5 653.7,271.5 655.0,271.3 656.3,271.8 657.7,274.3 659.0,270.1 660.3,267.4 661.7,272.1 663.0,275.0 664.3,270.7 665.7,273.4 667.0,273.8 668.3,271.4 669.7,273.1 671.0,274.6 672.3,272.4 673.7,271.3 675.0,275.1" fill="none" stroke="#16a34a" stroke-width="1.5"/>
<polyline points="65.0,322.7 66.3,148.3 67.7,42.8 69.0,299.0 70.3,321.0 71.7,263.8 73.0,257.8 74.3,263.5 75.7,267.0 77.0,272.8 78.3,278.2 79.7,287.3 81.0,266.9 82.3,268.4 83.6,267.2 85.0,269.8 86.3,265.4 87.6,270.6 89.0,267.4 90.3,274.6 91.6,259.9 93.0,278.4 94.3,283.5 95.6,284.1 97.0,285.7 98.3,291.7 99.6,294.4 100.9,293.4 102.3,296.4 103.6,303.5 104.9,295.6 106.3,291.1 107.6,295.0 108.9,295.2 110.3,292.9 111.6,288.8 112.9,289.9 114.2,292.1 115.6,290.4 116.9,290.4 118.2,292.6 119.6,292.0 120.9,291.6 122.2,290.2 123.6,291.1 124.9,288.3 126.2,290.7 127.6,290.8 128.9,291.7 130.2,288.7 131.6,297.6 132.9,294.2 134.2,295.6 135.5,283.6 136.9,296.9 138.2,292.4 139.5,298.1 140.9,293.8 142.2,294.5 143.5,295.5 144.9,294.8 146.2,298.1 147.5,294.6 148.9,300.3 150.2,301.4 151.5,301.6 152.9,302.3 154.2,300.3 155.5,301.9 156.8,298.7 158.2,303.0 159.5,297.6 160.8,298.5 162.2,299.8 163.5,303.7 164.8,302.3 166.2,298.1 167.5,302.9 168.8,300.2 170.2,307.3 171.5,304.5 172.8,303.8 174.2,305.3 175.5,301.0 176.8,298.1 178.2,293.9 179.5,305.2 180.8,300.0 182.1,301.0 183.5,303.3 184.8,306.8 186.2,302.7 187.5,295.0 188.8,303.0 190.1,306.1 191.5,303.3 192.8,307.5 194.1,300.6 195.5,305.1 196.8,295.8 198.1,316.2 199.5,303.4 200.8,310.0 202.1,305.1 203.5,307.1 204.8,305.9 206.1,304.2 207.5,307.6 208.8,307.4 210.1,304.7 211.5,298.6 212.8,307.0 214.1,303.7 215.5,309.3 216.8,305.4 218.1,299.6 219.4,306.2 220.8,299.3 222.1,301.4 223.4,305.9 224.8,302.1 226.1,303.8 227.4,300.1 228.8,293.8 230.1,302.4 231.4,299.3 232.8,299.4 234.1,300.7 235.4,301.5 236.8,299.5 238.1,299.1 239.4,310.0 240.7,302.3 242.1,306.4 243.4,290.6 244.8,306.9 246.1,303.7 247.4,300.7 248.8,301.6 250.1,302.7 251.4,303.8 252.7,301.5 254.1,303.2 255.4,295.1 256.7,302.0 258.1,298.3 259.4,302.4 260.7,300.6 262.0,303.6 263.4,303.0 264.7,299.6 266.0,305.2 267.4,298.2 268.7,305.0 270.0,305.9 271.4,299.6 272.7,310.6 274.0,305.6 275.4,301.9 276.7,306.5 278.0,304.1 279.4,299.3 280.7,304.8 282.0,297.4 283.4,295.9 284.7,300.8 286.0,302.9 287.3,303.4 288.7,296.0 290.0,298.9 291.3,294.5 292.7,301.9 294.0,303.1 295.3,296.9 296.7,298.7 298.0,296.8 299.3,300.3 300.7,303.1 302.0,302.8 303.3,297.2 304.7,299.8 306.0,281.3 307.3,295.4 308.7,298.6 310.0,303.5 311.3,293.2 312.6,299.8 314.0,295.1 315.3,302.6 316.6,301.2 317.9,299.0 319.3,299.2 320.6,296.2 322.0,297.4 323.3,299.5 324.6,297.9 325.9,297.8 327.3,299.9 328.6,300.5 329.9,300.0 331.3,297.7 332.6,296.5 333.9,304.7 335.3,303.5 336.6,297.3 337.9,300.2 339.3,304.2 340.6,299.1 341.9,305.5 343.3,314.4 344.6,314.7 345.9,294.6 347.2,302.1 348.6,304.5 349.9,302.1 351.3,307.0 352.6,302.3 353.9,304.8 355.3,306.8 356.6,303.5 357.9,307.5 359.2,308.4 360.6,309.0 361.9,306.2 363.2,310.7 364.6,307.8 365.9,308.3 367.2,312.0 368.6,311.7 369.9,304.1 371.2,309.4 372.6,312.4 373.9,315.7 375.2,315.2 376.6,309.0 377.9,313.6 379.2,311.4 380.5,295.7 381.9,284.1 383.2,310.5 384.5,303.1 385.9,305.7 387.2,308.9 388.5,317.3 389.9,305.1 391.2,305.5 392.5,308.1 393.9,314.4 395.2,304.8 396.5,309.7 397.9,311.2 399.2,307.3 400.5,310.5 401.9,304.8 403.2,305.4 404.5,312.0 405.9,309.9 407.2,304.7 408.5,309.1 409.9,317.2 411.2,313.9 412.5,312.7 413.9,312.5 415.2,317.6 416.5,311.9 417.9,319.0 419.2,312.3 420.5,315.0 421.9,312.3 423.2,313.4 424.5,310.4 425.9,309.3 427.2,315.5 428.5,310.5 429.9,305.3 431.2,310.9 432.5,312.2 433.9,314.6 435.2,314.8 436.5,312.0 437.9,316.9 439.2,313.6 440.5,308.0 441.9,301.8 443.2,302.5 444.5,313.1 445.9,312.5 447.2,312.1 448.5,313.6 449.9,312.9 451.2,315.8 452.5,317.2 453.8,311.8 455.2,309.9 456.5,313.1 457.9,311.9 459.2,307.6 460.5,311.0 461.8,303.5 463.2,310.3 464.5,305.7 465.9,311.1 467.2,309.5 468.5,310.9 469.9,314.2 471.2,313.6 472.5,307.0 473.8,310.9 475.2,311.0 476.5,309.7 477.8,310.4 479.2,311.6 480.5,314.7 481.8,320.0 483.2,316.5 484.5,315.5 485.8,314.1 487.2,310.3 488.5,316.3 489.8,311.2 491.2,313.5 492.5,314.5 493.8,307.4 495.2,314.6 496.5,315.2 497.8,311.6 499.1,316.7 500.5,315.7 501.8,319.5 503.1,318.2 504.5,319.9 505.8,317.5 507.1,314.4 508.5,313.5 509.8,317.8 511.1,315.6 512.5,314.8 513.8,322.8 515.1,319.3 516.5,321.4 517.8,313.9 519.2,314.9 520.5,309.0 521.8,323.7 523.2,315.2 524.5,314.0 525.8,308.3 527.1,314.6 528.5,323.8 529.8,310.9 531.1,314.9 532.5,312.1 533.8,313.6 535.1,315.2 536.5,318.4 537.8,313.7 539.1,314.4 540.5,309.5 541.8,318.7 543.1,312.6 544.5,312.3 545.8,316.6 547.1,317.9 548.5,318.0 549.8,320.2 551.1,320.7 552.5,313.6 553.8,318.4 555.1,317.0 556.4,314.4 557.8,309.2 559.1,310.8 560.4,316.4 561.8,316.2 563.1,320.0 564.4,319.0 565.8,310.1 567.1,310.7 568.4,325.8 569.8,290.1 571.1,308.2 572.4,304.6 573.7,324.5 575.1,310.2 576.4,323.3 577.7,310.4 579.1,305.1 580.4,312.1 581.7,312.8 583.1,312.1 584.4,310.8 585.7,314.9 587.1,311.7 588.4,314.4 589.7,320.7 591.1,313.5 592.4,309.1 593.7,324.8 595.1,314.4 596.4,310.4 597.7,309.2 599.1,314.1 600.4,312.6 601.7,317.1 603.0,312.1 604.4,309.9 605.7,314.6 607.0,319.1 608.4,317.4 609.7,314.3 611.0,316.4 612.4,312.9 613.7,310.7 615.0,313.8 616.4,313.5 617.7,327.2 619.0,317.7 620.3,312.0 621.7,313.8 623.0,312.0 624.3,314.5 625.7,312.4 627.0,315.3 628.3,321.5 629.7,316.0 631.0,315.6 632.3,307.2 633.7,313.3 635.0,319.7 636.3,327.1 637.7,316.5 639.0,316.9 640.3,314.9 641.7,316.3 643.0,317.6 644.3,312.0 645.7,311.9 647.0,316.5 648.3,302.8 649.7,318.1 651.0,313.5 652.3,312.9 653.7,314.3 655.0,311.1 656.3,313.0 657.7,318.6 659.0,314.1 660.3,308.9 661.7,312.6 663.0,320.7 664.3,312.4 665.7,316.4 667.0,312.9 668.3,312.6 669.7,314.8 671.0,316.6 672.3,316.0 673.7,316.7" fill="none" stroke="#2563eb" stroke-width="2.5"/>
<rect x="65" y="20" width="610" height="330" fill="none" stroke="#888" stroke-width="1.5"/>
<line x1="62" y1="308.5" x2="65" y2="308.5" stroke="#64748b" stroke-width="1" opacity="0.6"/>
<line x1="62" y1="260.0" x2="65" y2="260.0" stroke="#64748b" stroke-width="1" opacity="0.6"/>
<line x1="62" y1="199.0" x2="65" y2="199.0" stroke="#64748b" stroke-width="1" opacity="0.6"/>
<line x1="60" y1="116.3" x2="65" y2="116.3" stroke="#64748b" stroke-width="1.5"/>
<text x="57" y="116.3" text-anchor="end" dominant-baseline="middle" font-size="11" font-family="monospace,sans-serif" fill="#64748b">10</text>
<line x1="62" y1="33.5" x2="65" y2="33.5" stroke="#64748b" stroke-width="1" opacity="0.6"/>
<line x1="675" y1="324.0" x2="680" y2="324.0" stroke="#2563eb" stroke-width="1.5"/>
<text x="683" y="324.0" text-anchor="start" dominant-baseline="middle" font-size="11" font-family="monospace,sans-serif" fill="#2563eb">0.0</text>
<line x1="675" y1="206.3" x2="680" y2="206.3" stroke="#2563eb" stroke-width="1.5"/>
<text x="683" y="206.3" text-anchor="start" dominant-baseline="middle" font-size="11" font-family="monospace,sans-serif" fill="#2563eb">2.0</text>
<line x1="675" y1="88.6" x2="680" y2="88.6" stroke="#2563eb" stroke-width="1.5"/>
<text x="683" y="88.6" text-anchor="start" dominant-baseline="middle" font-size="11" font-family="monospace,sans-serif" fill="#2563eb">4.0</text>
<line x1="65.0" y1="350" x2="65.0" y2="355" stroke="#888" stroke-width="1.5"/>
<text x="65.0" y="368" text-anchor="middle" font-size="11" font-family="monospace,sans-serif">0</text>
<line x1="187.0" y1="350" x2="187.0" y2="355" stroke="#888" stroke-width="1.5"/>
<text x="187.0" y="368" text-anchor="middle" font-size="11" font-family="monospace,sans-serif">2</text>
<line x1="309.0" y1="350" x2="309.0" y2="355" stroke="#888" stroke-width="1.5"/>
<text x="309.0" y="368" text-anchor="middle" font-size="11" font-family="monospace,sans-serif">4</text>
<line x1="431.0" y1="350" x2="431.0" y2="355" stroke="#888" stroke-width="1.5"/>
<text x="431.0" y="368" text-anchor="middle" font-size="11" font-family="monospace,sans-serif">6</text>
<line x1="553.0" y1="350" x2="553.0" y2="355" stroke="#888" stroke-width="1.5"/>
<text x="553.0" y="368" text-anchor="middle" font-size="11" font-family="monospace,sans-serif">8</text>
<line x1="675.0" y1="350" x2="675.0" y2="355" stroke="#888" stroke-width="1.5"/>
<text x="675.0" y="368" text-anchor="middle" font-size="11" font-family="monospace,sans-serif">10</text>
<text x="370" y="392" text-anchor="middle" font-size="13" font-family="sans-serif">Runtime (minutes)</text>
<text transform="rotate(-90,28,185)" x="28" y="185" text-anchor="middle" font-size="13" font-family="sans-serif" fill="#64748b">Train loss (log scale)</text>
<text transform="rotate(90,746,185)" x="746" y="185" text-anchor="middle" font-size="13" font-family="sans-serif" fill="#2563eb">Train loss diff (exp − base)</text>
<rect x="72" y="26" width="140" height="62" fill="white" fill-opacity="0.85" stroke="#ddd" stroke-width="1" rx="3"/>
<line x1="77" y1="37" x2="99" y2="37" stroke="#64748b" stroke-width="1.5" stroke-dasharray="5,3"/>
<text x="104" y="41" font-size="11" font-family="sans-serif" fill="#64748b">Baseline train loss</text>
<line x1="77" y1="55" x2="99" y2="55" stroke="#16a34a" stroke-width="1.5"/>
<text x="104" y="59" font-size="11" font-family="sans-serif" fill="#16a34a">Experiment train loss</text>
<line x1="77" y1="73" x2="99" y2="73" stroke="#2563eb" stroke-width="2.5"/>
<text x="104" y="77" font-size="11" font-family="sans-serif" fill="#2563eb">Train loss diff</text>
</svg>