<svg xmlns="http://www.w3.org/2000/svg" viewBox="0 0 760 400" width="760" height="400" style="background:white">
<rect x="65" y="20" width="610" height="330" fill="#f9f9f9"/>
<line x1="65" y1="308.5" x2="675" y2="308.5" stroke="#ececec" stroke-width="1"/>
<line x1="65" y1="260.0" x2="675" y2="260.0" stroke="#ececec" stroke-width="1"/>
<line x1="65" y1="199.0" x2="675" y2="199.0" stroke="#ececec" stroke-width="1"/>
<line x1="65" y1="116.3" x2="675" y2="116.3" stroke="#ddd" stroke-width="1"/>
<line x1="65" y1="33.5" x2="675" y2="33.5" stroke="#ececec" stroke-width="1"/>
<line x1="65.0" y1="20" x2="65.0" y2="350" stroke="#ececec" stroke-width="1"/>
<line x1="187.1" y1="20" x2="187.1" y2="350" stroke="#ececec" stroke-width="1"/>
<line x1="309.1" y1="20" x2="309.1" y2="350" stroke="#ececec" stroke-width="1"/>
<line x1="431.2" y1="20" x2="431.2" y2="350" stroke="#ececec" stroke-width="1"/>
<line x1="553.3" y1="20" x2="553.3" y2="350" stroke="#ececec" stroke-width="1"/>
<line x1="675.4" y1="20" x2="675.4" y2="350" stroke="#ececec" stroke-width="1"/>
<line x1="65" y1="53.3" x2="675" y2="53.3" stroke="#2563eb" stroke-width="0.75" stroke-dasharray="3,3" opacity="0.4"/>
<polyline points="65.0,119.8 65.9,52.3 66.8,85.9 67.7,141.9 68.5,160.7 69.4,155.7 70.3,156.5 71.2,162.7 72.1,166.9 73.0,169.9 73.9,172.4 74.8,173.8 75.7,175.9 76.6,177.5 77.5,179.6 78.4,181.0 79.3,183.0 80.2,183.4 81.1,184.7 82.0,186.8 82.9,188.5 83.8,189.8 84.8,191.8 85.7,194.1 86.6,196.0 87.5,198.4 88.4,200.2 89.3,202.2 90.2,203.8 91.1,204.9 92.0,205.8 92.9,206.4 93.8,208.2 94.7,209.1 95.6,210.4 96.6,211.1 97.5,211.1 98.4,212.1 99.3,212.8 100.2,213.6 101.1,214.1 102.0,214.9 102.9,215.6 103.8,215.8 104.7,216.1 105.6,217.8 106.6,217.8 107.5,218.1 108.4,217.3 109.3,219.7 110.2,219.0 111.1,220.6 112.0,221.1 112.9,221.4 113.8,222.7 114.7,223.0 115.6,223.5 116.5,223.5 117.5,225.0 118.4,225.3 119.3,225.5 120.2,227.1 121.1,226.6 122.0,227.6 122.9,229.0 123.8,230.1 124.7,231.3 125.6,231.1 126.5,231.2 127.4,232.1 128.4,232.8 129.3,232.9 130.2,234.2 131.1,234.4 132.0,233.9 132.9,235.0 133.8,234.5 134.7,235.9 135.6,235.6 136.5,237.9 137.4,237.1 138.4,237.2 139.3,237.0 140.2,237.6 141.1,239.4 142.0,238.3 142.9,238.8 143.8,239.9 144.7,239.5 145.6,238.3 146.5,241.9 147.4,240.8 148.4,239.8 149.3,241.2 150.2,241.4 151.1,240.8 152.0,241.5 152.9,241.1 153.8,242.0 154.7,242.8 155.6,241.8 156.6,242.4 157.5,243.6 158.4,242.1 159.3,244.4 160.2,243.1 161.1,241.7 162.0,243.7 162.9,243.0 163.8,243.0 164.8,244.0 165.7,244.7 166.6,245.1 167.5,244.9 168.4,243.6 169.3,245.6 170.2,244.9 171.2,245.7 172.1,245.8 173.0,245.1 173.9,245.5 174.8,243.8 175.7,246.4 176.6,247.1 177.5,245.8 178.4,246.7 179.4,245.7 180.3,246.6 181.2,248.8 182.1,246.9 183.0,247.1 183.9,246.4 184.8,247.0 185.7,247.1 186.6,246.9 187.6,248.4 188.5,248.5 189.4,247.2 190.3,248.2 191.2,247.3 192.1,248.0 193.0,248.8 194.0,248.7 194.9,249.3 195.8,249.8 196.7,249.9 197.6,248.7 198.5,248.9 199.4,249.4 200.3,249.8 201.2,250.6 202.2,250.9 203.1,250.6 204.0,250.6 204.9,250.7 205.8,251.2 206.7,250.9 207.6,251.7 208.5,251.1 209.4,251.6 210.3,250.5 211.3,251.8 212.2,252.9 213.1,252.1 214.0,251.4 214.9,252.8 215.8,254.1 216.7,252.1 217.6,254.1 218.5,252.5 219.4,253.2 220.3,252.9 221.2,253.3 222.2,252.9 223.1,253.1 224.0,253.1 224.9,254.8 225.8,253.9 226.7,254.3 227.6,254.1 228.5,255.1 229.4,254.1 230.4,255.0 231.3,254.9 232.2,255.5 233.1,255.8 234.0,255.4 234.9,255.2 235.8,255.8 236.7,256.6 237.6,254.9 238.5,257.0 239.5,257.0 240.4,257.3 241.3,256.6 242.2,256.1 243.1,257.7 244.0,257.0 244.9,256.8 245.8,257.0 246.8,257.4 247.7,260.1 248.6,257.3 249.5,259.1 250.4,258.5 251.3,260.0 252.2,258.0 253.1,259.1 254.0,258.2 255.0,258.5 255.9,260.0 256.8,259.8 257.7,259.5 258.6,258.8 259.5,260.4 260.4,261.4 261.3,259.1 262.2,259.4 263.1,259.9 264.0,260.1 264.9,260.3 265.8,260.0 266.7,260.6 267.6,259.9 268.5,261.4 269.4,260.4 270.3,261.5 271.2,261.4 272.1,261.2 273.0,261.8 273.9,261.4 274.8,261.4 275.7,261.1 276.7,262.3 277.6,262.9 278.5,261.9 279.4,262.9 280.3,264.3 281.2,262.7 282.1,263.3 283.0,261.5 283.9,263.0 284.8,263.4 285.7,262.7 286.6,264.2 287.5,264.5 288.4,262.7 289.3,263.4 290.2,262.3 291.1,263.0 292.0,263.5 292.9,261.0 293.8,264.5 294.8,263.5 295.7,263.4 296.6,264.1 297.5,264.0 298.4,263.6 299.3,265.3 300.2,266.6 301.1,265.4 302.0,263.5 302.9,264.7 303.8,266.3 304.7,264.6 305.6,264.9 306.5,265.2 307.4,263.7 308.3,265.0 309.2,264.3 310.1,264.3 311.0,262.9 311.9,265.6 312.8,265.4 313.8,265.0 314.7,265.2 315.6,265.2 316.5,264.8 317.4,265.8 318.3,266.4 319.2,264.3 320.1,267.2 321.0,263.6 321.9,267.2 322.9,264.4 323.8,265.9 324.7,266.3 325.6,267.2 326.5,264.2 327.4,265.3 328.3,267.0 329.2,267.6 330.1,267.6 331.0,265.1 331.9,268.2 332.8,266.4 333.7,266.4 334.7,266.9 335.6,266.8 336.5,267.2 337.4,267.6 338.3,268.1 339.2,267.0 340.1,267.1 341.0,267.3 341.9,268.4 342.8,267.3 343.7,268.7 344.6,267.0 345.5,267.8 346.4,267.1 347.3,269.2 348.3,268.7 349.2,267.8 350.1,269.7 351.0,268.7 351.9,268.7 352.8,268.8 353.7,267.1 354.6,268.8 355.5,268.7 356.4,268.7 357.3,267.2 358.2,267.2 359.2,267.5 360.1,268.8 361.0,269.4 361.9,269.2 362.8,269.6 363.7,268.0 364.6,267.7 365.5,269.2 366.4,269.0 367.3,268.5 368.2,266.7 369.1,268.0 370.0,269.3 370.9,269.6 371.8,269.3 372.8,269.6 373.7,269.0 374.6,268.1 375.5,269.0 376.4,268.2 377.3,269.1 378.2,270.6 379.1,267.9 380.0,268.9 380.9,270.2 381.8,270.0 382.7,269.0 383.6,268.8 384.6,270.4 385.5,268.3 386.4,270.8 387.3,270.7 388.2,269.5 389.1,271.0 390.0,271.0 390.9,271.1 391.8,269.2 392.7,272.3 393.6,270.0 394.5,271.1 395.5,269.3 396.4,267.4 397.3,270.8 398.2,270.3 399.1,272.6 400.0,270.0 400.9,270.1 401.8,269.6 402.7,270.8 403.6,271.8 404.5,272.5 405.4,269.3 406.3,270.3 407.3,271.5 408.2,270.6 409.1,273.1 410.0,271.7 410.9,269.1 411.8,269.7 412.7,270.7 413.6,272.0 414.5,272.5 415.4,271.3 416.3,270.7 417.3,271.4 418.2,270.0 419.1,270.3 420.0,272.3 420.9,270.7 421.8,270.6 422.7,271.3 423.6,269.8 424.5,271.0 425.4,272.8 426.3,270.2 427.3,272.2 428.2,271.8 429.1,271.0 430.0,272.8 430.9,270.8 431.8,272.9 432.7,271.8 433.6,272.7 434.5,271.4 435.4,271.9 436.3,271.1 437.2,270.9 438.1,270.0 439.0,271.7 440.0,271.3 440.9,270.5 441.8,271.7 442.7,272.6 443.6,273.3 444.5,272.2 445.4,272.8 446.3,273.4 447.2,271.5 448.1,271.9 449.0,271.4 449.9,272.0 450.9,271.9 451.8,270.8 452.7,272.8 453.6,271.2 454.5,270.2 455.4,273.4 456.3,270.9 457.2,271.9 458.1,272.8 459.0,271.7 459.9,273.1 460.8,274.0 461.7,272.7 462.6,273.3 463.6,271.2 464.5,272.4 465.4,272.9 466.3,273.2 467.2,272.7 468.1,273.3 469.0,272.3 469.9,272.9 470.8,273.8 471.7,273.6 472.6,272.7 473.5,270.7 474.4,272.9 475.4,274.7 476.3,271.2 477.2,274.6 478.1,274.7 479.0,273.1 479.9,275.3 480.8,271.3 481.7,273.6 482.6,273.4 483.5,272.5 484.4,273.6 485.3,271.4 486.3,272.7 487.2,274.0 488.1,273.9 489.0,272.7 489.9,274.6 490.8,274.3 491.7,273.1 492.6,273.5 493.5,274.6 494.4,273.5 495.3,272.8 496.2,273.6 497.1,274.5 498.0,272.4 499.0,273.3 499.9,273.3 500.8,270.9 501.7,273.3 502.6,272.7 503.5,273.1 504.4,272.8 505.3,274.8 506.2,274.7 507.1,274.2 508.0,276.2 508.9,271.7 509.8,273.5 510.8,273.2 511.7,274.0 512.6,274.5 513.5,274.5 514.4,274.0 515.3,274.4 516.2,274.2 517.1,272.8 518.0,274.5 518.9,271.4 519.8,273.0 520.7,272.7 521.6,274.1 522.5,274.7 523.5,272.6 524.4,272.0 525.3,274.4 526.2,273.8 527.1,273.1 528.0,273.3 528.9,275.3 529.8,274.8 530.7,274.1 531.6,274.3 532.5,274.1 533.4,273.7 534.3,273.1 535.2,274.1 536.1,276.4 537.1,275.3 538.0,275.6 538.9,276.9 539.8,273.7 540.7,276.7 541.6,276.2 542.5,275.1 543.4,275.9 544.3,275.4 545.2,274.7 546.1,274.2 547.0,274.7 548.0,274.2 548.9,274.9 549.8,275.9 550.7,276.2 551.6,273.7 552.5,275.0 553.4,273.3 554.3,275.8 555.2,273.9 556.1,276.8 557.0,273.7 557.9,274.2 558.8,273.3 559.7,275.1 560.6,274.9 561.6,275.0 562.5,274.3 563.4,274.6 564.3,275.3 565.2,275.9 566.1,274.7 567.0,276.4 567.9,273.7 568.8,275.2 569.7,275.2 570.7,273.0 571.6,276.4 572.5,278.0 573.4,275.9 574.3,276.8 575.2,276.2 576.1,277.2 577.0,276.2 577.9,274.6 578.8,275.6 579.7,276.3 580.6,275.2 581.5,276.5 582.4,276.3 583.3,275.9 584.2,276.3 585.2,276.4 586.1,274.4 587.0,277.2 587.9,276.8 588.9,274.2 589.8,278.1 590.7,275.1 591.6,277.3 592.5,274.7 593.4,275.6 594.3,275.0 595.2,274.3 596.1,275.9 597.0,275.5 597.9,275.5 598.8,277.4 599.7,277.0 600.6,275.2 601.5,275.3 602.4,276.0 603.4,275.4 604.3,276.6 605.2,278.5 606.1,276.9 607.0,276.7 607.9,273.9 608.8,275.4 609.7,279.5 610.6,277.9 611.5,277.7 612.4,276.2 613.3,277.4 614.2,276.1 615.2,277.7 616.1,277.1 617.0,276.3 617.9,275.2 618.8,279.7 619.7,278.3 620.6,275.4 621.5,277.0 622.4,276.9 623.3,275.9 624.2,277.9 625.1,275.3 626.0,275.7 626.9,276.8 627.8,276.6 628.7,276.8 629.6,279.1 630.5,277.9 631.5,275.0 632.4,278.4 633.3,277.6 634.2,275.4 635.1,278.9 636.0,276.4 636.9,279.3 637.8,276.9 638.7,275.9 639.6,276.9 640.5,279.1 641.4,276.2 642.3,278.5 643.2,276.6 644.1,276.2 645.0,278.0 645.9,275.3 646.8,277.4 647.8,275.3 648.7,276.5 649.6,279.1 650.5,278.8 651.4,276.1 652.3,278.3 653.2,277.7 654.1,278.0 655.0,278.0 655.9,277.8 656.8,276.0 657.7,278.1 658.6,277.4 659.5,275.9 660.4,278.5 661.3,277.5 662.3,275.7 663.2,278.4 664.1,276.5 665.0,277.0 665.9,278.3 666.8,276.2 667.7,277.4 668.6,279.2 669.5,277.8 670.4,279.6 671.3,276.1 672.2,278.8 673.1,277.6 674.0,279.0 674.9,276.3" fill="none" stroke="#64748b" stroke-width="1.5" stroke-dasharray="5,3"/>
<polyline points="65.0,119.6 65.9,119.6 66.8,148.2 67.7,164.3 68.6,166.5 69.4,168.8 70.3,171.2 71.2,173.4 72.1,175.1 73.0,175.2 73.9,179.0 74.8,182.4 75.7,182.3 76.6,183.1 77.5,184.2 78.4,186.0 79.3,187.0 80.2,187.6 81.1,186.0 82.0,189.7 82.9,190.5 83.8,191.8 84.7,193.2 85.6,193.5 86.5,194.7 87.4,196.2 88.3,197.5 89.2,198.9 90.1,199.9 91.0,201.1 91.9,202.8 92.8,203.1 93.7,203.9 94.6,204.1 95.5,206.0 96.4,206.2 97.3,207.6 98.2,207.8 99.1,208.9 100.0,209.6 100.9,209.6 101.8,210.8 102.7,210.8 103.6,211.1 104.5,212.3 105.4,213.0 106.3,212.7 107.2,214.5 108.1,214.7 109.0,214.5 109.9,215.8 110.8,216.1 111.7,216.0 112.6,216.6 113.5,216.7 114.4,217.3 115.3,216.9 116.2,219.2 117.1,219.2 118.0,219.4 118.9,220.1 119.9,221.1 120.8,220.9 121.7,221.3 122.6,222.3 123.5,223.1 124.4,222.4 125.3,224.3 126.2,225.1 127.1,224.8 128.0,225.6 128.9,225.1 129.8,225.9 130.7,227.2 131.6,228.0 132.5,227.9 133.4,228.6 134.3,228.8 135.2,230.1 136.1,230.9 137.0,230.8 137.9,230.7 138.8,230.6 139.7,231.8 140.6,233.0 141.5,232.9 142.4,232.9 143.3,233.8 144.2,233.8 145.1,234.3 146.0,234.0 146.9,235.2 147.8,236.1 148.8,236.5 149.7,237.4 150.6,236.6 151.5,236.4 152.4,236.7 153.3,237.3 154.2,237.1 155.1,237.8 156.0,237.9 156.9,239.8 157.8,238.3 158.7,239.3 159.6,238.9 160.5,239.3 161.4,239.3 162.3,241.2 163.2,240.1 164.1,241.1 165.0,240.5 165.9,242.1 166.8,242.3 167.8,242.7 168.7,241.5 169.6,243.0 170.5,242.1 171.4,242.2 172.3,244.1 173.2,243.5 174.1,243.6 175.0,244.1 175.9,243.7 176.8,244.0 177.7,244.6 178.6,245.8 179.5,244.2 180.4,245.1 181.3,245.1 182.2,245.5 183.2,247.3 184.1,245.9 185.0,247.2 185.9,247.2 186.8,247.2 187.7,246.7 188.6,247.8 189.5,247.3 190.4,248.6 191.3,248.8 192.2,248.4 193.1,248.7 194.0,248.8 194.9,249.1 195.8,247.7 196.7,250.2 197.6,249.0 198.5,248.9 199.4,250.3 200.3,250.9 201.2,251.0 202.1,251.3 203.0,251.0 203.9,252.5 204.8,251.5 205.7,252.8 206.6,251.5 207.5,251.4 208.4,253.2 209.4,252.0 210.3,252.3 211.2,253.7 212.1,252.6 213.0,253.6 213.9,253.1 214.8,252.9 215.7,254.1 216.6,254.4 217.5,254.4 218.4,254.2 219.3,254.7 220.2,253.3 221.1,254.4 222.0,255.1 222.9,255.4 223.8,256.7 224.7,256.8 225.6,254.7 226.5,256.6 227.4,256.3 228.3,257.7 229.2,256.4 230.1,257.4 231.0,256.1 231.9,257.0 232.8,256.9 233.7,256.9 234.7,258.3 235.6,257.8 236.5,256.3 237.4,257.7 238.3,257.8 239.2,259.2 240.1,258.5 241.0,258.5 241.9,260.2 242.8,258.3 243.7,258.8 244.6,257.6 245.5,258.4 246.4,259.3 247.3,259.5 248.2,258.8 249.1,258.6 250.0,258.6 250.9,260.2 251.8,258.5 252.7,259.4 253.6,259.6 254.5,259.8 255.4,259.8 256.3,260.7 257.2,260.3 258.1,259.3 259.0,260.3 259.9,260.4 260.8,259.7 261.7,261.8 262.6,261.7 263.5,261.4 264.4,261.6 265.3,261.4 266.2,261.5 267.2,262.0 268.1,261.1 268.9,262.6 269.9,262.4 270.8,260.7 271.7,261.5 272.6,260.9 273.5,261.9 274.4,261.8 275.3,262.9 276.2,262.6 277.1,261.7 278.0,261.8 278.9,263.0 279.8,261.6 280.7,262.8 281.6,263.8 282.5,262.2 283.4,263.9 284.3,264.7 285.2,261.7 286.1,263.6 287.0,261.5 287.9,262.3 288.8,262.6 289.7,263.5 290.6,263.9 291.5,263.5 292.4,262.3 293.3,262.9 294.2,262.1 295.1,264.7 296.0,263.1 296.9,262.8 297.8,264.2 298.7,264.3 299.6,263.0 300.5,264.3 301.4,266.1 302.3,263.9 303.2,264.9 304.1,264.4 305.0,264.3 305.9,264.5 306.8,264.6 307.7,264.7 308.6,264.9 309.5,264.8 310.4,263.9 311.3,265.5 312.2,265.0 313.1,265.3 314.0,264.7 314.9,263.9 315.8,265.4 316.7,264.2 317.6,265.1 318.5,265.3 319.4,265.9 320.3,266.0 321.2,266.4 322.1,264.5 323.0,267.4 323.9,267.8 324.8,265.3 325.7,265.8 326.6,265.6 327.5,264.8 328.4,266.7 329.3,265.6 330.2,265.1 331.1,265.3 332.0,267.6 332.9,266.0 333.8,265.5 334.7,265.9 335.6,267.4 336.5,266.6 337.4,267.7 338.3,265.0 339.2,266.8 340.1,267.9 341.0,265.8 341.9,267.5 342.8,266.1 343.7,268.4 344.6,265.9 345.5,265.1 346.4,268.3 347.3,267.5 348.2,266.3 349.1,267.2 350.0,266.2 350.9,267.7 351.8,266.8 352.7,266.1 353.6,266.3 354.5,268.3 355.4,267.6 356.3,267.9 357.2,268.9 358.1,267.5 359.0,267.7 359.9,267.6 360.8,267.6 361.8,268.6 362.7,269.4 363.6,268.0 364.5,267.3 365.4,269.2 366.3,266.2 367.2,268.7 368.1,269.5 369.0,269.4 369.9,267.8 370.8,269.9 371.7,268.1 372.6,269.6 373.5,269.3 374.4,269.9 375.3,269.9 376.2,268.6 377.1,270.4 378.0,267.7 378.9,268.4 379.8,267.3 380.7,269.2 381.6,269.8 382.5,268.9 383.4,270.2 384.3,268.1 385.2,269.4 386.2,268.5 387.0,268.4 387.9,269.7 388.8,269.7 389.7,269.1 390.7,269.0 391.6,269.8 392.5,269.4 393.4,270.5 394.3,269.5 395.2,270.0 396.1,269.0 397.0,270.8 397.9,269.2 398.8,269.4 399.7,268.2 400.6,270.3 401.5,269.7 402.4,271.0 403.3,272.2 404.2,268.1 405.1,269.6 406.0,270.9 406.9,271.2 407.8,270.4 408.7,269.6 409.6,270.6 410.5,269.3 411.4,269.0 412.3,270.3 413.2,270.1 414.1,271.1 415.0,271.6 415.9,271.8 416.8,270.1 417.7,271.0 418.6,270.4 419.5,269.9 420.3,270.9 421.2,268.7 422.1,270.7 423.0,272.0 423.9,271.2 424.8,271.4 425.7,269.0 426.6,271.3 427.5,272.9 428.4,272.1 429.3,271.8 430.2,271.7 431.1,271.1 432.0,270.1 432.9,271.0 433.8,272.6 434.7,271.4 435.6,272.0 436.5,271.2 437.4,271.9 438.3,270.5 439.2,271.0 440.1,273.0 441.0,271.4 441.9,272.8 442.8,273.2 443.7,271.7 444.6,271.5 445.5,273.4 446.4,272.5 447.3,271.1 448.2,272.1 449.1,273.2 450.0,273.1 450.9,271.5 451.8,269.7 452.7,273.8 453.6,272.2 454.5,272.3 455.4,271.1 456.3,272.5 457.2,272.4 458.1,272.0 459.0,272.7 459.9,272.4 460.8,272.1 461.7,271.3 462.6,270.3 463.5,274.6 464.4,272.2 465.3,272.5 466.2,274.1 467.1,272.6 468.0,272.9 468.9,274.6 469.8,273.6 470.7,273.5 471.6,272.2 472.5,272.5 473.4,275.1 474.3,274.1 475.2,272.6 476.1,273.7 477.0,271.2 477.9,272.1 478.8,273.7 479.7,272.2 480.6,273.0 481.5,272.7 482.4,274.8 483.3,273.8 484.2,275.1 485.1,272.3 486.0,273.8 486.9,271.5 487.8,272.2 488.7,270.8 489.6,274.2 490.5,274.0 491.4,273.8 492.3,274.9 493.2,271.8 494.1,273.9 495.0,274.1 495.9,274.6 496.8,272.3 497.7,273.5 498.6,273.0 499.5,273.6 500.4,273.6 501.3,274.0 502.2,273.9 503.1,273.4 504.0,275.6 504.9,272.7 505.8,272.6 506.7,274.5 507.6,273.8 508.5,273.1 509.4,273.8 510.3,272.4 511.2,274.0 512.1,274.6 513.0,273.2 513.9,274.3 514.8,274.0 515.7,273.1 516.6,274.7 517.5,273.9 518.4,273.7 519.3,273.5 520.2,275.4 521.1,275.3 522.0,275.9 522.9,273.5 523.8,274.1 524.7,276.2 525.6,274.8 526.5,274.7 527.4,275.1 528.3,274.5 529.2,274.3 530.1,274.4 531.0,275.3 531.9,273.8 532.8,273.7 533.7,274.7 534.6,274.5 535.5,273.7 536.4,275.3 537.3,275.2 538.2,275.0 539.1,274.6 540.0,275.1 540.9,274.5 541.8,276.5 542.7,275.1 543.6,275.7 544.5,275.6 545.4,275.8 546.3,274.5 547.2,274.1 548.1,273.3 549.0,277.8 549.9,274.6 550.8,276.8 551.7,275.0 552.5,274.9 553.4,273.8 554.3,276.0 555.2,275.9 556.1,274.2 557.0,275.0 557.9,275.2 558.8,273.6 559.7,274.9 560.6,277.1 561.5,276.5 562.4,273.1 563.3,275.0 564.2,273.9 565.1,273.6 566.0,275.3 566.9,275.5 567.8,275.7 568.7,276.3 569.6,276.8 570.5,275.7 571.4,275.9 572.3,276.1 573.2,276.8 574.1,275.5 575.0,273.7 575.9,277.5 576.8,275.6 577.7,277.5 578.6,275.2 579.5,275.9 580.4,275.5 581.4,275.7 582.3,276.5 583.2,277.0 584.1,278.1 585.0,275.4 585.9,276.5 586.8,275.0 587.7,276.2 588.6,276.8 589.4,275.2 590.3,277.1 591.2,276.5 592.1,275.5 593.0,274.7 593.9,277.5 594.8,274.7 595.7,277.1 596.6,275.6 597.5,277.4 598.4,273.6 599.3,276.6 600.2,272.7 601.1,276.5 602.0,279.0 602.9,276.2 603.8,276.1 604.7,277.0 605.6,276.6 606.5,275.3 607.4,278.8 608.3,274.7 609.2,275.8 610.1,277.2 611.0,277.7 611.9,276.4 612.8,277.4 613.7,276.1 614.6,278.1 615.5,275.2 616.4,275.5 617.3,278.2 618.2,278.1 619.1,276.5 620.0,279.2 620.9,276.9 621.8,278.9 622.6,277.4 623.5,277.2 624.4,275.9 625.3,276.7 626.2,278.3 627.2,275.9 628.0,275.6 629.0,277.3 629.9,275.6 630.8,276.4 631.7,275.4 632.6,277.9 633.5,275.4 634.4,276.8 635.3,277.3 636.2,278.9 637.1,278.1 638.0,278.8 638.9,278.8 639.8,277.6 640.7,278.7 641.6,277.9 642.5,276.8 643.4,276.1 644.3,275.8 645.2,279.7 646.1,277.4 647.0,276.8 647.9,276.3 648.8,277.6 649.7,280.5 650.6,277.8 651.5,278.1 652.4,279.7 653.3,277.9 654.2,277.4 655.1,274.5 656.0,279.1 656.9,278.1 657.8,277.4 658.7,277.1 659.6,277.2 660.5,279.1 661.4,276.0 662.3,276.6 663.2,279.6 664.1,276.9 665.0,278.7 665.9,278.4 666.9,277.5 667.8,277.5 668.7,276.4 669.6,278.8 670.5,278.1 671.4,277.2 672.3,279.0 673.2,278.7 674.1,279.1 675.0,278.9" fill="none" stroke="#16a34a" stroke-width="1.5"/>
<polyline points="65.0,52.9 65.9,327.2 66.8,246.2 67.7,104.0 68.6,65.5 69.4,81.1 70.3,84.2 71.2,75.1 72.1,69.8 73.0,63.8 73.9,65.9 74.8,69.4 75.7,65.2 76.6,63.7 77.5,61.8 78.4,62.3 79.3,60.6 80.2,60.6 81.1,55.7 82.0,58.6 82.9,57.0 83.8,56.7 84.7,55.8 85.6,52.6 86.5,51.6 87.4,50.3 88.3,49.5 89.2,48.7 90.1,47.6 91.0,47.8 91.9,48.9 92.8,48.5 93.7,47.4 94.6,46.2 95.5,47.2 96.4,46.4 97.3,48.3 98.2,47.4 99.1,48.0 100.0,48.0 100.9,47.1 101.8,47.9 102.7,46.9 103.6,46.9 104.5,48.2 105.4,47.3 106.3,46.4 107.2,48.6 108.1,49.5 109.0,47.3 109.9,48.7 110.8,48.0 111.7,46.7 112.6,47.0 113.5,46.0 114.4,45.9 115.3,45.0 116.2,47.8 117.1,46.4 118.0,45.8 118.9,46.5 119.9,46.3 120.8,45.8 121.7,45.7 122.6,45.6 123.5,45.1 124.4,42.8 125.3,44.8 126.2,45.8 127.1,44.8 128.0,44.8 128.9,43.9 129.8,44.0 130.7,44.8 131.6,46.0 132.5,45.4 133.4,46.0 134.3,45.6 135.2,46.7 136.1,46.5 137.0,45.5 137.9,45.7 138.8,45.7 139.7,47.0 140.6,46.9 141.5,46.5 142.4,46.8 143.3,46.9 144.2,46.6 145.1,48.0 146.0,46.5 146.9,46.3 147.8,48.5 148.8,48.9 149.7,49.0 150.6,48.2 151.5,48.0 152.4,48.2 153.3,48.6 154.2,47.5 155.1,48.2 156.0,48.6 156.9,49.9 157.8,48.1 158.7,49.3 159.6,47.7 160.5,49.6 161.4,50.0 162.3,50.8 163.2,50.0 164.1,50.8 165.0,49.2 165.9,50.4 166.8,50.4 167.8,51.3 168.7,50.5 169.6,50.8 170.5,50.1 171.4,49.5 172.3,51.6 173.2,51.4 174.1,51.6 175.0,53.0 175.9,50.3 176.8,50.3 177.7,51.8 178.6,52.6 179.5,51.6 180.4,51.2 181.3,49.8 182.2,51.7 183.2,53.6 184.1,52.6 185.0,53.4 185.9,53.4 186.8,53.4 187.7,51.5 188.6,52.8 189.5,53.3 190.4,53.8 191.3,54.8 192.2,53.6 193.1,53.3 194.0,53.4 194.9,53.1 195.8,51.1 196.7,53.6 197.6,53.6 198.5,53.3 199.4,54.2 200.3,54.5 201.2,53.8 202.1,53.7 203.0,53.7 203.9,55.2 204.8,54.0 205.7,54.9 206.6,53.8 207.5,53.0 208.4,55.4 209.4,53.8 210.3,55.0 211.2,55.3 212.1,53.1 213.0,54.7 213.9,54.9 214.8,53.5 215.7,53.4 216.6,55.3 217.5,53.8 218.4,54.8 219.3,54.9 220.2,53.7 221.1,54.4 222.0,55.4 222.9,55.6 223.8,56.8 224.7,55.5 225.6,53.9 226.5,55.7 227.4,55.4 228.3,56.0 229.2,55.2 230.1,55.8 231.0,54.4 231.9,54.9 232.8,54.4 233.7,54.6 234.7,56.2 235.6,55.3 236.5,53.2 237.4,55.5 238.3,54.6 239.2,55.4 240.1,54.5 241.0,54.9 241.9,57.0 242.8,54.4 243.7,54.8 244.6,54.0 245.5,54.7 246.4,55.2 247.3,53.7 248.2,53.6 249.1,53.6 250.0,53.1 250.9,54.1 251.8,52.9 252.7,54.0 253.6,54.2 254.5,54.6 255.4,53.8 256.3,54.0 257.2,53.9 258.1,53.4 259.0,53.9 259.9,52.8 260.8,52.8 261.7,55.7 262.6,55.2 263.5,54.6 264.4,54.6 265.3,54.4 266.2,54.4 267.2,54.9 268.1,53.7 268.9,54.8 269.9,54.7 270.8,52.6 271.7,53.5 272.6,52.7 273.5,53.5 274.4,53.6 275.3,54.8 276.2,54.2 277.1,52.5 278.0,52.7 278.9,53.9 279.8,51.5 280.7,52.6 281.6,54.1 282.5,53.0 283.4,54.8 284.3,54.6 285.2,52.0 286.1,53.6 287.0,50.7 287.9,51.9 288.8,52.9 289.7,53.8 290.6,54.5 291.5,53.6 292.4,53.1 293.3,53.7 294.2,51.4 295.1,54.4 296.0,52.7 296.9,52.1 297.8,53.6 298.7,53.4 299.6,50.8 300.5,51.6 301.4,54.5 302.3,53.3 303.2,53.0 304.1,52.1 305.0,52.9 305.9,52.8 306.8,53.2 307.7,53.8 308.6,53.4 309.5,53.8 310.4,53.3 311.3,54.9 312.2,52.9 313.1,53.3 314.0,53.0 314.9,52.1 315.8,53.6 316.7,52.5 317.6,52.6 318.5,52.7 319.4,54.2 320.3,52.9 321.2,55.2 322.1,51.4 323.0,55.7 323.9,54.9 324.8,52.3 325.7,52.3 326.6,54.5 327.5,52.7 328.4,53.0 329.3,51.6 330.2,51.2 331.1,53.4 332.0,52.9 332.9,53.0 333.8,52.5 334.7,52.3 335.6,53.8 336.5,52.7 337.4,53.4 338.3,50.5 339.2,53.1 340.1,53.9 341.0,51.9 341.9,52.6 342.8,52.2 343.7,53.1 344.6,52.2 345.5,50.9 346.4,54.3 347.3,52.0 348.2,51.1 349.1,52.6 350.0,50.3 350.9,52.3 351.8,51.7 352.7,50.9 353.6,52.4 354.5,53.0 355.4,52.3 356.3,52.5 357.2,54.5 358.1,53.5 359.0,53.5 359.9,52.4 360.8,51.8 361.8,52.7 362.7,53.1 363.6,53.1 364.5,52.9 365.4,53.4 366.3,50.8 367.2,53.3 368.1,55.5 369.0,54.6 369.9,52.2 370.8,53.6 371.7,52.1 372.6,53.4 373.5,53.4 374.4,54.8 375.3,54.2 376.2,53.5 377.1,54.5 378.0,51.1 378.9,53.2 379.8,52.1 380.7,52.6 381.6,53.1 382.5,53.0 383.4,54.5 384.3,51.6 385.2,53.8 386.2,51.8 387.0,51.3 387.9,53.2 388.8,52.5 389.7,51.6 390.7,51.5 391.6,53.3 392.5,51.6 393.4,53.1 394.3,52.2 395.2,53.5 396.1,54.1 397.0,54.3 397.9,52.2 398.8,51.2 399.7,50.9 400.6,53.5 401.5,53.2 402.4,53.8 403.3,53.9 404.2,49.8 405.1,52.5 406.0,54.2 406.9,53.4 407.8,52.7 408.7,51.2 409.6,51.8 410.5,52.4 411.4,52.9 412.3,53.3 413.2,52.2 414.1,52.3 415.0,53.0 415.9,53.9 416.8,52.5 417.7,53.5 418.6,53.5 419.5,52.3 420.3,52.6 421.2,51.6 422.1,53.1 423.0,54.3 423.9,54.1 424.8,53.1 425.7,50.8 426.6,53.6 427.5,53.9 428.4,53.7 429.3,53.5 430.2,52.8 431.1,53.1 432.0,51.1 432.9,52.4 433.8,53.5 434.7,53.1 435.6,53.6 436.5,53.4 437.4,54.3 438.3,53.3 439.2,52.7 440.1,54.9 441.0,53.8 441.9,54.1 442.8,53.7 443.7,52.1 444.6,52.6 445.5,53.8 446.4,52.7 447.3,52.9 448.2,53.5 449.1,54.8 450.0,54.3 450.9,53.0 451.8,52.3 452.7,54.2 453.6,54.2 454.5,55.0 455.4,51.5 456.3,54.6 457.2,53.7 458.1,52.6 459.0,54.2 459.9,52.7 460.8,51.6 461.7,52.0 462.6,50.7 463.5,56.1 464.4,53.3 465.3,52.9 466.2,54.0 467.1,53.2 468.0,53.0 468.9,55.2 469.8,53.9 470.7,53.1 471.6,52.1 472.5,53.0 473.4,56.7 474.3,54.6 475.2,51.7 476.1,55.0 477.0,50.9 477.9,51.1 478.8,53.5 479.7,51.0 480.6,54.1 481.5,52.9 482.4,54.4 483.3,54.2 484.2,54.8 485.1,53.6 486.0,54.5 486.9,51.4 487.8,51.8 488.7,51.4 489.6,53.4 490.5,53.0 491.4,53.6 492.3,54.5 493.2,51.2 494.1,53.3 495.0,54.2 495.9,54.3 496.8,51.6 497.7,53.6 498.6,53.3 499.5,53.6 500.4,54.8 501.3,54.6 502.2,54.1 503.1,53.7 504.0,55.5 504.9,52.2 505.8,51.4 506.7,53.3 507.6,52.0 508.5,52.8 509.4,54.3 510.3,52.5 511.2,53.6 512.1,53.6 513.0,52.2 513.9,53.3 514.8,53.1 515.7,52.3 516.6,54.2 517.5,53.5 518.4,53.8 519.3,54.4 520.2,55.3 521.1,54.9 522.0,54.6 522.9,53.0 523.8,54.8 524.7,56.1 525.6,53.8 526.5,54.3 527.4,54.9 528.3,53.7 529.2,52.5 530.1,53.1 531.0,54.3 531.9,53.0 532.8,53.1 533.7,54.3 534.6,54.2 535.5,52.4 536.4,52.6 537.3,53.2 538.2,52.6 539.1,51.9 540.0,53.9 540.9,51.6 541.8,53.7 542.7,53.2 543.6,53.2 544.5,53.5 545.4,54.3 546.3,53.5 547.2,52.9 548.1,52.5 549.0,55.5 549.9,52.2 550.8,53.9 551.7,54.3 552.5,53.4 553.4,53.6 554.3,53.5 555.2,54.8 556.1,51.3 557.0,54.4 557.9,54.1 558.8,53.5 559.7,53.2 560.6,55.1 561.5,54.5 562.4,52.3 563.3,53.6 564.2,52.1 565.1,51.4 566.0,53.6 566.9,52.7 567.8,54.7 568.7,54.4 569.6,54.6 570.5,55.2 571.4,53.4 572.3,51.9 573.2,53.7 574.1,52.4 575.0,51.1 575.9,53.7 576.8,52.6 577.7,55.4 578.6,53.1 579.5,53.1 580.4,53.3 581.4,52.7 582.3,53.4 583.2,54.1 584.1,54.8 585.0,52.5 585.9,54.5 586.8,52.2 587.7,52.7 588.6,54.8 589.4,52.0 590.3,54.0 591.2,53.3 592.1,53.1 593.0,52.8 593.9,55.1 594.8,53.4 595.7,54.8 596.6,53.2 597.5,54.8 598.4,50.9 599.3,52.7 600.2,50.4 601.1,54.3 602.0,56.0 602.9,53.7 603.8,53.4 604.7,52.9 605.6,52.4 606.5,52.0 607.4,56.0 608.3,53.5 609.2,52.3 610.1,52.0 611.0,53.2 611.9,52.7 612.8,53.9 613.7,52.6 614.6,54.4 615.5,51.4 616.4,52.2 617.3,55.1 618.2,54.4 619.1,51.1 620.0,54.7 620.9,54.1 621.8,54.8 622.6,53.9 623.5,53.9 624.4,52.1 625.3,54.3 626.2,55.2 627.2,52.6 628.0,52.5 629.0,53.2 629.9,50.6 630.8,52.6 631.7,52.9 632.6,53.0 633.5,51.8 634.4,53.8 635.3,52.4 636.2,54.8 637.1,52.7 638.0,55.0 638.9,55.5 639.8,53.6 640.7,53.4 641.6,54.4 642.5,52.2 643.4,52.9 644.3,52.7 645.2,55.0 646.1,54.8 647.0,53.1 647.9,53.9 648.8,53.8 649.7,54.4 650.6,52.9 651.5,54.6 652.4,54.5 653.3,53.4 654.2,52.8 655.1,50.5 656.0,54.5 656.9,54.8 657.8,52.7 658.7,53.2 659.6,54.1 660.5,53.8 661.4,52.2 662.3,53.9 663.2,54.4 664.1,53.6 665.0,54.6 665.9,53.6 666.9,54.3 667.8,53.2 668.7,51.1 669.6,53.9 670.5,52.3 671.4,54.0 672.3,53.5 673.2,54.1 674.1,53.5" fill="none" stroke="#2563eb" stroke-width="2.5"/>
<rect x="65" y="20" width="610" height="330" fill="none" stroke="#888" stroke-width="1.5"/>
<line x1="62" y1="308.5" x2="65" y2="308.5" stroke="#64748b" stroke-width="1" opacity="0.6"/>
<line x1="62" y1="260.0" x2="65" y2="260.0" stroke="#64748b" stroke-width="1" opacity="0.6"/>
<line x1="62" y1="199.0" x2="65" y2="199.0" stroke="#64748b" stroke-width="1" opacity="0.6"/>
<line x1="60" y1="116.3" x2="65" y2="116.3" stroke="#64748b" stroke-width="1.5"/>
<text x="57" y="116.3" text-anchor="end" dominant-baseline="middle" font-size="11" font-family="monospace,sans-serif" fill="#64748b">10</text>
<line x1="62" y1="33.5" x2="65" y2="33.5" stroke="#64748b" stroke-width="1" opacity="0.6"/>
<line x1="675" y1="277.1" x2="680" y2="277.1" stroke="#2563eb" stroke-width="1.5"/>
<text x="683" y="277.1" text-anchor="start" dominant-baseline="middle" font-size="11" font-family="monospace,sans-serif" fill="#2563eb">-6.0</text>
<line x1="675" y1="202.5" x2="680" y2="202.5" stroke="#2563eb" stroke-width="1.5"/>
<text x="683" y="202.5" text-anchor="start" dominant-baseline="middle" font-size="11" font-family="monospace,sans-serif" fill="#2563eb">-4.0</text>
<line x1="675" y1="127.9" x2="680" y2="127.9" stroke="#2563eb" stroke-width="1.5"/>
<text x="683" y="127.9" text-anchor="start" dominant-baseline="middle" font-size="11" font-family="monospace,sans-serif" fill="#2563eb">-2.0</text>
<line x1="675" y1="53.3" x2="680" y2="53.3" stroke="#2563eb" stroke-width="1.5"/>
<text x="683" y="53.3" text-anchor="start" dominant-baseline="middle" font-size="11" font-family="monospace,sans-serif" fill="#2563eb">0.0</text>
<line x1="65.0" y1="350" x2="65.0" y2="355" stroke="#888" stroke-width="1.5"/>
<text x="65.0" y="368" text-anchor="middle" font-size="11" font-family="monospace,sans-serif">0</text>
<line x1="187.1" y1="350" x2="187.1" y2="355" stroke="#888" stroke-width="1.5"/>
<text x="187.1" y="368" text-anchor="middle" font-size="11" font-family="monospace,sans-serif">2</text>
<line x1="309.1" y1="350" x2="309.1" y2="355" stroke="#888" stroke-width="1.5"/>
<text x="309.1" y="368" text-anchor="middle" font-size="11" font-family="monospace,sans-serif">4</text>
<line x1="431.2" y1="350" x2="431.2" y2="355" stroke="#888" stroke-width="1.5"/>
<text x="431.2" y="368" text-anchor="middle" font-size="11" font-family="monospace,sans-serif">6</text>
<line x1="553.3" y1="350" x2="553.3" y2="355" stroke="#888" stroke-width="1.5"/>
<text x="553.3" y="368" text-anchor="middle" font-size="11" font-family="monospace,sans-serif">8</text>
<line x1="675.4" y1="350" x2="675.4" y2="355" stroke="#888" stroke-width="1.5"/>
<text x="675.4" y="368" text-anchor="middle" font-size="11" font-family="monospace,sans-serif">10</text>
<text x="370" y="392" text-anchor="middle" font-size="13" font-family="sans-serif">Runtime (minutes)</text>
<text transform="rotate(-90,28,185)" x="28" y="185" text-anchor="middle" font-size="13" font-family="sans-serif" fill="#64748b">Train loss (log scale)</text>
<text transform="rotate(90,746,185)" x="746" y="185" text-anchor="middle" font-size="13" font-family="sans-serif" fill="#2563eb">Train loss diff (exp − base)</text>
<rect x="72" y="26" width="140" height="62" fill="white" fill-opacity="0.85" stroke="#ddd" stroke-width="1" rx="3"/>
<line x1="77" y1="37" x2="99" y2="37" stroke="#64748b" stroke-width="1.5" stroke-dasharray="5,3"/>
<text x="104" y="41" font-size="11" font-family="sans-serif" fill="#64748b">Baseline train loss</text>
<line x1="77" y1="55" x2="99" y2="55" stroke="#16a34a" stroke-width="1.5"/>
<text x="104" y="59" font-size="11" font-family="sans-serif" fill="#16a34a">Experiment train loss</text>
<line x1="77" y1="73" x2="99" y2="73" stroke="#2563eb" stroke-width="2.5"/>
<text x="104" y="77" font-size="11" font-family="sans-serif" fill="#2563eb">Train loss diff</text>
</svg>