<svg xmlns="http://www.w3.org/2000/svg" viewBox="0 0 760 400" width="760" height="400" style="background:white">
<rect x="65" y="20" width="610" height="330" fill="#f9f9f9"/>
<line x1="65" y1="308.5" x2="675" y2="308.5" stroke="#ececec" stroke-width="1"/>
<line x1="65" y1="260.0" x2="675" y2="260.0" stroke="#ececec" stroke-width="1"/>
<line x1="65" y1="199.0" x2="675" y2="199.0" stroke="#ececec" stroke-width="1"/>
<line x1="65" y1="116.3" x2="675" y2="116.3" stroke="#ddd" stroke-width="1"/>
<line x1="65" y1="33.5" x2="675" y2="33.5" stroke="#ececec" stroke-width="1"/>
<line x1="65.0" y1="20" x2="65.0" y2="350" stroke="#ececec" stroke-width="1"/>
<line x1="187.1" y1="20" x2="187.1" y2="350" stroke="#ececec" stroke-width="1"/>
<line x1="309.1" y1="20" x2="309.1" y2="350" stroke="#ececec" stroke-width="1"/>
<line x1="431.2" y1="20" x2="431.2" y2="350" stroke="#ececec" stroke-width="1"/>
<line x1="553.3" y1="20" x2="553.3" y2="350" stroke="#ececec" stroke-width="1"/>
<line x1="675.4" y1="20" x2="675.4" y2="350" stroke="#ececec" stroke-width="1"/>
<line x1="65" y1="62.8" x2="675" y2="62.8" stroke="#2563eb" stroke-width="0.75" stroke-dasharray="3,3" opacity="0.4"/>
<polyline points="65.0,119.8 65.7,52.7 66.4,85.4 67.2,143.1 67.9,161.7 68.6,155.9 69.3,156.3 70.1,160.5 70.8,165.4 71.5,169.2 72.2,173.0 72.9,174.1 73.7,175.4 74.4,177.2 75.1,179.4 75.9,182.9 76.6,182.6 77.3,184.4 78.1,185.3 78.8,187.9 79.5,183.4 80.3,190.6 81.0,195.3 81.7,195.4 82.5,197.5 83.2,199.1 83.9,201.0 84.6,202.6 85.4,203.9 86.1,205.5 86.8,207.3 87.6,206.5 88.3,208.8 89.1,210.2 89.8,209.9 90.5,211.2 91.3,211.7 92.0,213.6 92.7,213.0 93.5,211.6 94.2,215.0 94.9,216.3 95.7,215.9 96.4,216.4 97.1,218.2 97.9,216.4 98.6,215.7 99.3,216.3 100.1,217.6 100.8,217.9 101.5,220.5 102.3,218.4 103.0,221.0 103.7,216.1 104.5,223.2 105.2,221.9 105.9,224.2 106.7,223.4 107.4,223.2 108.1,225.6 108.8,224.9 109.6,226.2 110.3,225.8 111.1,228.0 111.8,229.5 112.5,228.1 113.2,229.9 114.0,229.6 114.7,229.6 115.4,228.9 116.2,231.5 116.9,228.9 117.6,229.7 118.4,231.5 119.1,231.5 119.9,233.3 120.6,232.0 121.3,234.0 122.1,232.7 122.8,236.1 123.5,235.2 124.3,234.4 125.0,234.6 125.7,233.6 126.5,232.0 127.2,230.8 128.0,235.6 128.7,233.4 129.4,235.9 130.1,236.0 130.9,235.3 131.6,234.7 132.3,232.1 133.1,234.5 133.8,236.5 134.5,236.2 135.3,237.5 136.0,235.4 136.8,239.0 137.5,233.1 138.2,238.7 139.0,238.8 139.7,238.1 140.4,239.0 141.2,240.5 141.9,239.5 142.7,239.8 143.4,241.3 144.1,240.6 144.9,241.0 145.6,236.4 146.3,241.3 147.1,241.1 147.8,242.2 148.6,241.8 149.3,241.0 150.0,244.4 150.8,239.8 151.5,240.6 152.2,242.8 153.0,242.2 153.7,244.3 154.5,242.3 155.2,238.8 155.9,245.0 156.7,243.3 157.4,243.1 158.1,243.9 158.9,244.6 159.6,244.0 160.3,245.5 161.1,244.2 161.8,245.5 162.6,246.0 163.3,241.8 164.0,246.5 164.8,246.6 165.5,245.1 166.2,247.4 167.0,247.2 167.7,246.3 168.5,247.1 169.2,246.4 169.9,244.9 170.7,248.1 171.4,246.2 172.1,248.8 172.9,246.1 173.6,247.4 174.3,245.7 175.1,247.1 175.8,247.5 176.5,245.5 177.3,249.1 178.0,248.2 178.8,248.1 179.5,247.3 180.2,246.2 181.0,247.8 181.7,248.0 182.4,250.2 183.2,247.2 183.9,248.8 184.7,246.6 185.4,243.3 186.1,247.7 186.9,248.8 187.6,249.7 188.3,248.0 189.1,247.2 189.8,246.4 190.5,248.4 191.3,248.0 192.0,249.3 192.8,247.3 193.5,249.0 194.2,249.4 195.0,250.6 195.7,250.2 196.5,248.7 197.2,250.5 197.9,240.0 198.7,248.8 199.4,250.7 200.1,251.8 200.9,246.5 201.6,252.7 202.3,250.3 203.1,252.9 203.8,250.6 204.6,252.3 205.3,250.1 206.0,252.6 206.8,251.4 207.5,251.6 208.2,251.9 209.0,250.9 209.7,252.5 210.5,253.6 211.2,252.8 211.9,251.7 212.7,251.3 213.4,255.2 214.2,254.8 214.9,248.8 215.6,252.1 216.4,254.0 217.1,253.9 217.8,254.9 218.6,258.1 219.3,256.3 220.1,255.7 220.8,255.1 221.5,254.5 222.3,254.8 223.0,255.2 223.8,254.4 224.5,255.3 225.2,257.0 226.0,257.0 226.7,258.2 227.4,257.4 228.2,257.5 228.9,257.2 229.6,259.1 230.4,259.2 231.1,258.0 231.9,260.6 232.6,258.7 233.3,260.1 234.1,259.0 234.8,260.3 235.5,259.9 236.3,261.2 237.0,260.1 237.7,262.0 238.5,262.1 239.2,259.5 240.0,244.4 240.7,260.8 241.4,257.8 242.2,257.5 242.9,260.7 243.6,264.4 244.4,257.7 245.1,257.9 245.9,260.4 246.6,260.1 247.3,259.8 248.1,261.3 248.8,262.3 249.5,260.4 250.3,261.6 251.0,260.3 251.8,259.6 252.5,263.2 253.2,261.6 254.0,260.1 254.7,260.7 255.4,264.0 256.2,263.3 256.9,262.9 257.6,261.4 258.4,264.1 259.1,262.7 259.8,263.8 260.6,261.5 261.3,262.5 262.0,261.4 262.8,259.0 263.5,259.5 264.2,262.0 265.0,264.0 265.7,261.6 266.5,258.9 267.2,262.2 267.9,262.2 268.7,261.9 269.4,261.5 270.1,260.3 270.9,264.5 271.6,264.6 272.3,258.7 273.1,254.7 273.8,255.7 274.6,260.8 275.3,262.0 276.0,263.4 276.8,259.3 277.5,261.9 278.2,263.4 279.0,265.7 279.7,262.5 280.5,260.2 281.2,262.3 281.9,263.6 282.7,262.4 283.4,262.0 284.1,259.0 284.9,263.3 285.6,262.5 286.3,262.8 287.1,263.2 287.8,262.9 288.6,268.3 289.3,263.3 290.0,263.3 290.8,264.3 291.5,265.5 292.3,263.1 293.0,263.1 293.7,262.9 294.5,260.9 295.2,268.0 296.0,266.2 296.7,263.6 297.4,263.3 298.2,266.8 298.9,266.5 299.6,263.4 300.4,264.6 301.1,263.9 301.8,263.0 302.6,266.0 303.3,266.6 304.1,265.9 304.8,266.2 305.5,264.5 306.3,266.9 307.0,266.5 307.7,267.8 308.5,267.3 309.2,266.6 309.9,264.8 310.7,264.8 311.4,265.7 312.2,267.6 312.9,268.6 313.6,268.4 314.4,269.6 315.1,266.7 315.9,266.4 316.6,264.1 317.3,267.2 318.1,268.5 318.8,267.1 319.5,264.7 320.3,267.2 321.0,272.0 321.8,269.2 322.5,267.2 323.2,266.8 324.0,267.8 324.7,268.5 325.4,269.5 326.2,267.1 326.9,268.4 327.6,267.2 328.4,271.3 329.1,266.2 329.8,267.9 330.6,268.3 331.3,268.8 332.1,268.6 332.8,269.2 333.5,272.0 334.3,266.2 335.0,269.5 335.8,265.3 336.5,266.1 337.2,263.6 338.0,267.2 338.7,267.9 339.4,266.1 340.2,267.3 340.9,269.8 341.7,267.3 342.4,265.1 343.1,272.1 343.9,251.6 344.6,262.1 345.3,260.5 346.1,275.1 346.8,264.9 347.6,269.8 348.3,265.1 349.0,266.7 349.8,268.6 350.5,267.2 351.2,265.8 352.0,266.0 352.7,267.9 353.4,267.1 354.2,267.6 354.9,267.2 355.7,267.7 356.4,266.3 357.1,274.1 357.9,268.6 358.6,266.3 359.3,267.1 360.1,267.6 360.8,266.1 361.6,267.6 362.3,268.9 363.0,266.8 363.8,267.7 364.5,268.2 365.2,270.2 366.0,267.5 366.7,270.8 367.4,267.9 368.2,267.0 368.9,265.9 369.6,268.4 370.4,277.4 371.1,269.7 371.9,265.5 372.6,267.6 373.3,265.7 374.1,265.4 374.8,267.5 375.5,266.6 376.3,270.2 377.0,268.7 377.7,269.0 378.5,267.6 379.2,269.5 380.0,273.2 380.7,279.5 381.4,270.0 382.2,269.6 382.9,269.3 383.7,269.6 384.4,272.7 385.1,270.3 385.9,268.3 386.6,272.7 387.3,270.7 388.1,273.3 388.8,268.6 389.5,271.4 390.3,270.0 391.0,270.2 391.8,270.5 392.5,272.7 393.2,268.8 394.0,265.9 394.7,270.9 395.5,273.7 396.2,269.4 396.9,272.0 397.7,272.6 398.4,269.7 399.1,271.8 399.9,273.2 400.6,271.2 401.3,270.1 402.1,273.8 402.8,270.9 403.5,273.0 404.3,274.1 405.0,270.7 405.7,272.4 406.5,271.0 407.2,273.8 408.0,274.0 408.7,270.9 409.4,267.2 410.2,268.8 410.9,269.2 411.7,270.4 412.4,270.7 413.1,270.3 413.9,269.7 414.6,268.3 415.3,268.7 416.1,269.6 416.8,271.5 417.6,269.3 418.3,266.8 419.0,270.3 419.8,269.8 420.5,269.3 421.2,268.6 422.0,269.2 422.7,272.8 423.4,265.8 424.2,272.7 424.9,267.7 425.7,273.7 426.4,271.9 427.1,270.9 427.9,269.3 428.6,270.0 429.4,275.4 430.1,271.9 430.8,270.4 431.6,271.7 432.3,270.3 433.1,270.1 433.8,266.5 434.5,272.1 435.3,268.7 436.0,268.8 436.7,269.5 437.5,271.6 438.2,269.8 438.9,272.0 439.7,272.8 440.4,271.9 441.1,267.8 441.9,270.8 442.6,269.0 443.3,271.6 444.1,266.6 444.8,268.9 445.6,269.4 446.3,271.2 447.0,272.4 447.8,272.6 448.5,266.4 449.2,268.4 450.0,270.6 450.7,268.3 451.4,269.7 452.2,270.5 452.9,271.3 453.7,271.2 454.4,272.2 455.1,271.2 455.9,269.9 456.6,270.5 457.3,269.8 458.1,272.7 458.8,273.1 459.6,275.3 460.3,271.2 461.0,272.5 461.8,272.8 462.5,276.0 463.2,274.0 464.0,273.0 464.7,276.6 465.4,273.5 466.2,272.7 466.9,275.0 467.7,274.3 468.4,273.8 469.1,272.5 469.9,276.1 470.6,275.6 471.3,270.5 472.1,278.0 472.8,276.1 473.5,275.1 474.3,274.1 475.0,275.2 475.8,276.6 476.5,273.6 477.2,275.0 478.0,273.3 478.7,273.1 479.4,272.6 480.2,269.2 480.9,267.8 481.7,272.3 482.4,270.9 483.1,273.4 483.9,271.0 484.6,270.3 485.3,271.5 486.1,271.4 486.8,271.9 487.5,279.3 488.3,274.7 489.0,272.6 489.7,274.4 490.5,273.8 491.2,278.7 492.0,258.4 492.7,271.8 493.4,272.6 494.2,276.6 494.9,272.8 495.6,274.0 496.4,274.3 497.1,273.5 497.8,276.4 498.6,274.5 499.3,272.5 500.0,272.2 500.8,271.4 501.5,271.3 502.2,271.4 503.0,271.4 503.7,271.8 504.5,271.3 505.2,272.1 505.9,272.6 506.7,274.3 507.4,274.1 508.1,273.8 508.9,273.3 509.6,269.4 510.3,270.8 511.1,272.6 511.8,272.9 512.6,275.9 513.3,273.4 514.0,270.3 514.8,272.4 515.5,272.6 516.2,270.9 517.0,272.9 517.7,275.7 518.4,274.1 519.2,272.7 519.9,276.0 520.7,276.4 521.4,272.8 522.1,267.7 522.9,276.9 523.6,275.3 524.3,274.4 525.1,276.0 525.8,278.2 526.5,275.6 527.3,274.6 528.0,277.0 528.8,273.0 529.5,277.3 530.2,281.3 531.0,274.9 531.7,274.8 532.4,277.9 533.2,274.4 533.9,276.6 534.7,275.9 535.4,276.2 536.1,276.5 536.9,274.5 537.6,272.7 538.3,277.3 539.1,275.1 539.8,277.9 540.5,279.8 541.3,275.7 542.0,276.6 542.7,276.6 543.5,275.5 544.2,277.6 545.0,278.1 545.7,274.1 546.4,275.6 547.2,276.7 547.9,270.1 548.7,274.0 549.4,275.2 550.1,272.7 550.9,275.4 551.6,275.6 552.3,275.6 553.1,274.8 553.8,276.2 554.6,271.5 555.3,272.5 556.0,265.9 556.8,274.9 557.5,273.8 558.2,275.8 559.0,276.9 559.7,279.1 560.4,273.6 561.2,276.7 561.9,273.2 562.7,272.3 563.4,271.3 564.1,272.7 564.9,275.1 565.6,275.9 566.3,280.3 567.1,276.8 567.8,274.6 568.5,275.5 569.3,260.9 570.0,276.9 570.8,276.4 571.5,274.0 572.2,274.9 573.0,275.8 573.7,275.8 574.4,276.3 575.2,275.4 575.9,278.3 576.7,271.3 577.4,275.9 578.1,276.4 578.9,279.1 579.6,283.6 580.3,279.9 581.1,277.5 581.8,277.8 582.5,275.4 583.3,276.0 584.0,276.5 584.7,277.2 585.5,276.3 586.2,275.6 586.9,274.3 587.7,279.9 588.4,277.1 589.2,273.7 589.9,270.0 590.6,274.0 591.4,276.9 592.1,278.1 592.8,279.0 593.6,276.1 594.3,273.8 595.1,281.4 595.8,270.3 596.5,278.2 597.3,275.5 598.0,279.5 598.8,276.5 599.5,276.2 600.2,276.6 601.0,275.1 601.7,273.2 602.4,275.3 603.2,277.2 603.9,286.5 604.7,278.8 605.4,274.6 606.1,276.1 606.9,274.3 607.6,272.3 608.3,275.9 609.1,277.5 609.8,275.1 610.5,278.5 611.3,278.1 612.0,276.3 612.8,277.7 613.5,278.4 614.2,278.1 615.0,273.8 615.7,275.3 616.5,276.8 617.2,279.0 617.9,275.3 618.7,287.6 619.4,274.6 620.1,277.9 620.9,274.8 621.6,271.4 622.4,281.9 623.1,274.8 623.8,276.4 624.6,273.2 625.3,276.1 626.1,277.5 626.8,275.6 627.5,274.0 628.3,274.0 629.0,273.0 629.8,275.5 630.5,276.9 631.2,276.2 632.0,278.3 632.7,281.9 633.4,279.1 634.2,278.7 634.9,276.7 635.6,278.3 636.4,278.5 637.1,277.2 637.8,277.3 638.6,275.2 639.3,276.3 640.0,276.4 640.8,277.7 641.5,278.0 642.3,276.2 643.0,279.2 643.7,278.6 644.5,281.1 645.2,280.1 645.9,279.2 646.7,274.3 647.4,280.3 648.1,281.9 648.9,292.1 649.6,280.0 650.4,278.3 651.1,277.4 651.8,278.2 652.6,281.5 653.3,279.4 654.0,279.0 654.8,277.7 655.5,282.5 656.3,278.6 657.0,281.7 657.7,278.3 658.5,278.7 659.2,277.4 659.9,278.6 660.7,278.8 661.4,278.2 662.1,281.6 662.9,276.4 663.6,278.2 664.4,277.5 665.1,282.3 665.8,279.1 666.5,280.0 667.3,282.8 668.0,279.9 668.7,280.2 669.5,277.4 670.2,281.5 671.0,280.2 671.7,280.6 672.4,278.8 673.2,277.9 673.9,276.0 674.6,282.3" fill="none" stroke="#64748b" stroke-width="1.5" stroke-dasharray="5,3"/>
<polyline points="65.0,119.6 65.9,119.6 66.8,148.2 67.7,164.3 68.6,166.5 69.4,168.8 70.3,171.2 71.2,173.4 72.1,175.1 73.0,175.2 73.9,179.0 74.8,182.4 75.7,182.3 76.6,183.1 77.5,184.2 78.4,186.0 79.3,187.0 80.2,187.6 81.1,186.0 82.0,189.7 82.9,190.5 83.8,191.8 84.7,193.2 85.6,193.5 86.5,194.7 87.4,196.2 88.3,197.5 89.2,198.9 90.1,199.9 91.0,201.1 91.9,202.8 92.8,203.1 93.7,203.9 94.6,204.1 95.5,206.0 96.4,206.2 97.3,207.6 98.2,207.8 99.1,208.9 100.0,209.6 100.9,209.6 101.8,210.8 102.7,210.8 103.6,211.1 104.5,212.3 105.4,213.0 106.3,212.7 107.2,214.5 108.1,214.7 109.0,214.5 109.9,215.8 110.8,216.1 111.7,216.0 112.6,216.6 113.5,216.7 114.4,217.3 115.3,216.9 116.2,219.2 117.1,219.2 118.0,219.4 118.9,220.1 119.9,221.1 120.8,220.9 121.7,221.3 122.6,222.3 123.5,223.1 124.4,222.4 125.3,224.3 126.2,225.1 127.1,224.8 128.0,225.6 128.9,225.1 129.8,225.9 130.7,227.2 131.6,228.0 132.5,227.9 133.4,228.6 134.3,228.8 135.2,230.1 136.1,230.9 137.0,230.8 137.9,230.7 138.8,230.6 139.7,231.8 140.6,233.0 141.5,232.9 142.4,232.9 143.3,233.8 144.2,233.8 145.1,234.3 146.0,234.0 146.9,235.2 147.8,236.1 148.8,236.5 149.7,237.4 150.6,236.6 151.5,236.4 152.4,236.7 153.3,237.3 154.2,237.1 155.1,237.8 156.0,237.9 156.9,239.8 157.8,238.3 158.7,239.3 159.6,238.9 160.5,239.3 161.4,239.3 162.3,241.2 163.2,240.1 164.1,241.1 165.0,240.5 165.9,242.1 166.8,242.3 167.8,242.7 168.7,241.5 169.6,243.0 170.5,242.1 171.4,242.2 172.3,244.1 173.2,243.5 174.1,243.6 175.0,244.1 175.9,243.7 176.8,244.0 177.7,244.6 178.6,245.8 179.5,244.2 180.4,245.1 181.3,245.1 182.2,245.5 183.2,247.3 184.1,245.9 185.0,247.2 185.9,247.2 186.8,247.2 187.7,246.7 188.6,247.8 189.5,247.3 190.4,248.6 191.3,248.8 192.2,248.4 193.1,248.7 194.0,248.8 194.9,249.1 195.8,247.7 196.7,250.2 197.6,249.0 198.5,248.9 199.4,250.3 200.3,250.9 201.2,251.0 202.1,251.3 203.0,251.0 203.9,252.5 204.8,251.5 205.7,252.8 206.6,251.5 207.5,251.4 208.4,253.2 209.4,252.0 210.3,252.3 211.2,253.7 212.1,252.6 213.0,253.6 213.9,253.1 214.8,252.9 215.7,254.1 216.6,254.4 217.5,254.4 218.4,254.2 219.3,254.7 220.2,253.3 221.1,254.4 222.0,255.1 222.9,255.4 223.8,256.7 224.7,256.8 225.6,254.7 226.5,256.6 227.4,256.3 228.3,257.7 229.2,256.4 230.1,257.4 231.0,256.1 231.9,257.0 232.8,256.9 233.7,256.9 234.7,258.3 235.6,257.8 236.5,256.3 237.4,257.7 238.3,257.8 239.2,259.2 240.1,258.5 241.0,258.5 241.9,260.2 242.8,258.3 243.7,258.8 244.6,257.6 245.5,258.4 246.4,259.3 247.3,259.5 248.2,258.8 249.1,258.6 250.0,258.6 250.9,260.2 251.8,258.5 252.7,259.4 253.6,259.6 254.5,259.8 255.4,259.8 256.3,260.7 257.2,260.3 258.1,259.3 259.0,260.3 259.9,260.4 260.8,259.7 261.7,261.8 262.6,261.7 263.5,261.4 264.4,261.6 265.3,261.4 266.2,261.5 267.2,262.0 268.1,261.1 268.9,262.6 269.9,262.4 270.8,260.7 271.7,261.5 272.6,260.9 273.5,261.9 274.4,261.8 275.3,262.9 276.2,262.6 277.1,261.7 278.0,261.8 278.9,263.0 279.8,261.6 280.7,262.8 281.6,263.8 282.5,262.2 283.4,263.9 284.3,264.7 285.2,261.7 286.1,263.6 287.0,261.5 287.9,262.3 288.8,262.6 289.7,263.5 290.6,263.9 291.5,263.5 292.4,262.3 293.3,262.9 294.2,262.1 295.1,264.7 296.0,263.1 296.9,262.8 297.8,264.2 298.7,264.3 299.6,263.0 300.5,264.3 301.4,266.1 302.3,263.9 303.2,264.9 304.1,264.4 305.0,264.3 305.9,264.5 306.8,264.6 307.7,264.7 308.6,264.9 309.5,264.8 310.4,263.9 311.3,265.5 312.2,265.0 313.1,265.3 314.0,264.7 314.9,263.9 315.8,265.4 316.7,264.2 317.6,265.1 318.5,265.3 319.4,265.9 320.3,266.0 321.2,266.4 322.1,264.5 323.0,267.4 323.9,267.8 324.8,265.3 325.7,265.8 326.6,265.6 327.5,264.8 328.4,266.7 329.3,265.6 330.2,265.1 331.1,265.3 332.0,267.6 332.9,266.0 333.8,265.5 334.7,265.9 335.6,267.4 336.5,266.6 337.4,267.7 338.3,265.0 339.2,266.8 340.1,267.9 341.0,265.8 341.9,267.5 342.8,266.1 343.7,268.4 344.6,265.9 345.5,265.1 346.4,268.3 347.3,267.5 348.2,266.3 349.1,267.2 350.0,266.2 350.9,267.7 351.8,266.8 352.7,266.1 353.6,266.3 354.5,268.3 355.4,267.6 356.3,267.9 357.2,268.9 358.1,267.5 359.0,267.7 359.9,267.6 360.8,267.6 361.8,268.6 362.7,269.4 363.6,268.0 364.5,267.3 365.4,269.2 366.3,266.2 367.2,268.7 368.1,269.5 369.0,269.4 369.9,267.8 370.8,269.9 371.7,268.1 372.6,269.6 373.5,269.3 374.4,269.9 375.3,269.9 376.2,268.6 377.1,270.4 378.0,267.7 378.9,268.4 379.8,267.3 380.7,269.2 381.6,269.8 382.5,268.9 383.4,270.2 384.3,268.1 385.2,269.4 386.2,268.5 387.0,268.4 387.9,269.7 388.8,269.7 389.7,269.1 390.7,269.0 391.6,269.8 392.5,269.4 393.4,270.5 394.3,269.5 395.2,270.0 396.1,269.0 397.0,270.8 397.9,269.2 398.8,269.4 399.7,268.2 400.6,270.3 401.5,269.7 402.4,271.0 403.3,272.2 404.2,268.1 405.1,269.6 406.0,270.9 406.9,271.2 407.8,270.4 408.7,269.6 409.6,270.6 410.5,269.3 411.4,269.0 412.3,270.3 413.2,270.1 414.1,271.1 415.0,271.6 415.9,271.8 416.8,270.1 417.7,271.0 418.6,270.4 419.5,269.9 420.3,270.9 421.2,268.7 422.1,270.7 423.0,272.0 423.9,271.2 424.8,271.4 425.7,269.0 426.6,271.3 427.5,272.9 428.4,272.1 429.3,271.8 430.2,271.7 431.1,271.1 432.0,270.1 432.9,271.0 433.8,272.6 434.7,271.4 435.6,272.0 436.5,271.2 437.4,271.9 438.3,270.5 439.2,271.0 440.1,273.0 441.0,271.4 441.9,272.8 442.8,273.2 443.7,271.7 444.6,271.5 445.5,273.4 446.4,272.5 447.3,271.1 448.2,272.1 449.1,273.2 450.0,273.1 450.9,271.5 451.8,269.7 452.7,273.8 453.6,272.2 454.5,272.3 455.4,271.1 456.3,272.5 457.2,272.4 458.1,272.0 459.0,272.7 459.9,272.4 460.8,272.1 461.7,271.3 462.6,270.3 463.5,274.6 464.4,272.2 465.3,272.5 466.2,274.1 467.1,272.6 468.0,272.9 468.9,274.6 469.8,273.6 470.7,273.5 471.6,272.2 472.5,272.5 473.4,275.1 474.3,274.1 475.2,272.6 476.1,273.7 477.0,271.2 477.9,272.1 478.8,273.7 479.7,272.2 480.6,273.0 481.5,272.7 482.4,274.8 483.3,273.8 484.2,275.1 485.1,272.3 486.0,273.8 486.9,271.5 487.8,272.2 488.7,270.8 489.6,274.2 490.5,274.0 491.4,273.8 492.3,274.9 493.2,271.8 494.1,273.9 495.0,274.1 495.9,274.6 496.8,272.3 497.7,273.5 498.6,273.0 499.5,273.6 500.4,273.6 501.3,274.0 502.2,273.9 503.1,273.4 504.0,275.6 504.9,272.7 505.8,272.6 506.7,274.5 507.6,273.8 508.5,273.1 509.4,273.8 510.3,272.4 511.2,274.0 512.1,274.6 513.0,273.2 513.9,274.3 514.8,274.0 515.7,273.1 516.6,274.7 517.5,273.9 518.4,273.7 519.3,273.5 520.2,275.4 521.1,275.3 522.0,275.9 522.9,273.5 523.8,274.1 524.7,276.2 525.6,274.8 526.5,274.7 527.4,275.1 528.3,274.5 529.2,274.3 530.1,274.4 531.0,275.3 531.9,273.8 532.8,273.7 533.7,274.7 534.6,274.5 535.5,273.7 536.4,275.3 537.3,275.2 538.2,275.0 539.1,274.6 540.0,275.1 540.9,274.5 541.8,276.5 542.7,275.1 543.6,275.7 544.5,275.6 545.4,275.8 546.3,274.5 547.2,274.1 548.1,273.3 549.0,277.8 549.9,274.6 550.8,276.8 551.7,275.0 552.5,274.9 553.4,273.8 554.3,276.0 555.2,275.9 556.1,274.2 557.0,275.0 557.9,275.2 558.8,273.6 559.7,274.9 560.6,277.1 561.5,276.5 562.4,273.1 563.3,275.0 564.2,273.9 565.1,273.6 566.0,275.3 566.9,275.5 567.8,275.7 568.7,276.3 569.6,276.8 570.5,275.7 571.4,275.9 572.3,276.1 573.2,276.8 574.1,275.5 575.0,273.7 575.9,277.5 576.8,275.6 577.7,277.5 578.6,275.2 579.5,275.9 580.4,275.5 581.4,275.7 582.3,276.5 583.2,277.0 584.1,278.1 585.0,275.4 585.9,276.5 586.8,275.0 587.7,276.2 588.6,276.8 589.4,275.2 590.3,277.1 591.2,276.5 592.1,275.5 593.0,274.7 593.9,277.5 594.8,274.7 595.7,277.1 596.6,275.6 597.5,277.4 598.4,273.6 599.3,276.6 600.2,272.7 601.1,276.5 602.0,279.0 602.9,276.2 603.8,276.1 604.7,277.0 605.6,276.6 606.5,275.3 607.4,278.8 608.3,274.7 609.2,275.8 610.1,277.2 611.0,277.7 611.9,276.4 612.8,277.4 613.7,276.1 614.6,278.1 615.5,275.2 616.4,275.5 617.3,278.2 618.2,278.1 619.1,276.5 620.0,279.2 620.9,276.9 621.8,278.9 622.6,277.4 623.5,277.2 624.4,275.9 625.3,276.7 626.2,278.3 627.2,275.9 628.0,275.6 629.0,277.3 629.9,275.6 630.8,276.4 631.7,275.4 632.6,277.9 633.5,275.4 634.4,276.8 635.3,277.3 636.2,278.9 637.1,278.1 638.0,278.8 638.9,278.8 639.8,277.6 640.7,278.7 641.6,277.9 642.5,276.8 643.4,276.1 644.3,275.8 645.2,279.7 646.1,277.4 647.0,276.8 647.9,276.3 648.8,277.6 649.7,280.5 650.6,277.8 651.5,278.1 652.4,279.7 653.3,277.9 654.2,277.4 655.1,274.5 656.0,279.1 656.9,278.1 657.8,277.4 658.7,277.1 659.6,277.2 660.5,279.1 661.4,276.0 662.3,276.6 663.2,279.6 664.1,276.9 665.0,278.7 665.9,278.4 666.9,277.5 667.8,277.5 668.7,276.4 669.6,278.8 670.5,278.1 671.4,277.2 672.3,279.0 673.2,278.7 674.1,279.1 675.0,278.9" fill="none" stroke="#16a34a" stroke-width="1.5"/>
<polyline points="65.0,62.0 65.9,327.2 66.8,186.0 67.7,83.1 68.6,87.2 69.4,90.8 70.3,83.0 71.2,75.5 72.1,68.7 73.0,65.1 73.9,69.4 74.8,71.2 75.7,63.5 76.6,63.8 77.5,62.1 78.4,62.1 79.3,66.8 80.2,58.6 81.1,45.3 82.0,51.1 82.9,48.5 83.8,47.0 84.7,46.1 85.6,43.8 86.5,42.8 87.4,44.8 88.3,43.9 89.2,44.0 90.1,45.3 91.0,45.7 91.9,45.7 92.8,46.8 93.7,48.7 94.6,44.2 95.5,47.0 96.4,46.8 97.3,46.8 98.2,49.7 99.1,51.6 100.0,50.6 100.9,49.5 101.8,49.1 102.7,49.0 103.6,53.8 104.5,46.6 105.4,48.5 106.3,46.4 107.2,49.9 108.1,46.9 109.0,47.1 109.9,48.0 110.8,46.7 111.7,43.6 112.6,45.8 113.5,44.1 114.4,45.2 115.3,45.5 116.2,45.7 117.1,48.7 118.0,46.9 118.9,46.9 119.9,45.9 120.8,46.7 121.7,46.0 122.6,45.5 123.5,46.3 124.4,46.4 125.3,49.2 126.2,52.5 127.1,54.2 128.0,49.4 128.9,50.6 129.8,49.3 130.7,51.7 131.6,53.9 132.5,56.5 133.4,53.9 134.3,52.9 135.2,53.4 136.1,56.5 137.0,54.7 137.9,55.5 138.8,52.1 139.7,54.7 140.6,54.5 141.5,53.7 142.4,54.0 143.3,53.3 144.2,54.1 145.1,56.5 146.0,56.0 146.9,55.3 147.8,55.2 148.8,56.4 149.7,56.3 150.6,57.3 151.5,57.5 152.4,55.4 153.3,55.6 154.2,55.5 155.1,61.0 156.0,54.3 156.9,58.5 157.8,56.3 158.7,56.5 159.6,56.6 160.5,55.6 161.4,56.1 162.3,57.2 163.2,60.2 164.1,56.3 165.0,56.1 165.9,57.6 166.8,56.9 167.8,58.4 168.7,56.3 169.6,59.7 170.5,56.7 171.4,57.9 172.3,57.9 173.2,59.0 174.1,59.5 175.0,59.4 175.9,58.6 176.8,59.6 177.7,58.1 178.6,60.1 179.5,59.2 180.4,60.9 181.3,59.5 182.2,58.0 183.2,62.8 184.1,59.9 185.0,65.0 185.9,64.1 186.8,61.1 187.7,59.5 188.6,62.9 189.5,63.4 190.4,63.6 191.3,63.7 192.2,62.2 193.1,63.6 194.0,62.2 194.9,61.2 195.8,60.1 196.7,63.8 197.6,68.3 198.5,64.8 199.4,62.3 200.3,63.3 201.2,64.6 202.1,63.1 203.0,60.9 203.9,64.7 204.8,62.8 205.7,64.2 206.6,62.6 207.5,62.5 208.4,64.6 209.4,63.2 210.3,61.7 211.2,63.9 212.1,63.8 213.0,63.6 213.9,60.8 214.8,66.4 215.7,64.8 216.6,63.3 217.5,62.8 218.4,59.5 219.3,61.1 220.2,60.3 221.1,62.2 222.0,63.3 222.9,63.0 223.8,65.2 224.7,63.8 225.6,60.3 226.5,61.4 227.4,61.6 228.3,63.0 229.2,60.9 230.1,60.9 231.0,60.6 231.9,59.1 232.8,60.3 233.7,60.0 234.7,60.9 235.6,60.5 236.5,57.9 237.4,59.3 238.3,58.3 239.2,62.3 240.1,75.5 241.0,61.6 241.9,65.5 242.8,60.7 243.7,57.4 244.6,62.6 245.5,62.0 246.4,61.8 247.3,62.4 248.2,60.0 249.1,59.7 250.0,60.1 250.9,62.4 251.8,61.3 252.7,59.3 253.6,61.5 254.5,62.0 255.4,58.5 256.3,60.2 257.2,60.8 258.1,58.7 259.0,60.2 259.9,59.5 260.8,60.6 261.7,62.8 262.6,65.1 263.5,64.8 264.4,61.9 265.3,61.3 266.2,64.7 267.2,62.7 268.1,61.7 268.9,63.7 269.9,64.5 270.8,59.5 271.7,59.9 272.6,66.3 273.5,69.9 274.4,65.3 275.3,63.8 276.2,62.8 277.1,64.2 278.0,61.7 278.9,60.4 279.8,62.0 280.7,64.9 281.6,63.6 282.5,62.3 283.4,64.7 284.3,67.8 285.2,61.5 286.1,63.8 287.0,61.2 287.9,61.7 288.8,58.5 289.7,63.0 290.6,62.6 291.5,60.8 292.4,62.0 293.3,62.7 294.2,63.2 295.1,60.6 296.0,59.9 296.9,62.1 297.8,62.0 298.7,60.5 299.6,62.2 300.5,62.6 301.4,65.4 302.3,61.8 303.2,61.2 304.1,61.3 305.0,61.4 305.9,61.5 306.8,60.8 307.7,59.7 308.6,60.5 309.5,61.8 310.4,61.8 311.3,62.7 312.2,60.1 313.1,59.6 314.0,58.5 314.9,59.2 315.8,61.8 316.7,62.3 317.6,60.2 318.5,60.5 319.4,63.7 320.3,61.3 321.2,58.2 322.1,59.1 323.0,63.3 323.9,62.9 324.8,59.5 325.7,59.9 326.6,60.6 327.5,60.2 328.4,58.4 329.3,61.8 330.2,59.9 331.1,59.5 332.0,61.8 332.9,59.3 333.8,58.3 334.7,60.7 335.6,63.8 336.5,63.3 337.4,66.2 338.3,60.2 339.2,62.8 340.1,63.5 341.0,59.0 341.9,63.6 342.8,60.4 343.7,74.6 344.6,67.2 345.5,65.3 346.4,60.1 347.3,62.4 348.2,63.2 349.1,63.2 350.0,60.8 350.9,64.0 351.8,63.7 352.7,61.1 353.6,61.9 354.5,63.6 355.4,62.9 356.3,64.1 357.2,58.2 358.1,62.3 359.0,63.8 359.9,62.9 360.8,64.2 361.8,63.4 362.7,64.3 363.6,63.4 364.5,61.9 365.4,62.3 366.3,60.2 367.2,62.5 368.1,65.1 369.0,65.9 369.9,59.3 370.8,59.9 371.7,64.5 372.6,64.8 373.5,66.4 374.4,66.2 375.3,65.8 376.2,61.4 377.1,64.4 378.0,62.1 378.9,62.4 379.8,57.7 380.7,53.8 381.6,62.7 382.5,62.3 383.4,63.5 384.3,58.5 385.2,62.2 386.2,61.3 387.0,59.8 387.9,59.8 388.8,63.8 389.7,60.9 390.7,61.7 391.6,62.2 392.5,59.7 393.4,65.0 394.3,64.3 395.2,60.4 396.1,61.7 397.0,61.6 397.9,60.3 398.8,61.4 399.7,58.3 400.6,61.8 401.5,61.7 402.4,61.2 403.3,62.7 404.2,57.2 405.1,61.6 406.0,61.8 406.9,61.5 407.8,59.4 408.7,61.5 409.6,65.7 410.5,63.1 411.4,61.9 412.3,62.4 413.2,62.6 414.1,64.5 415.0,65.7 415.9,65.1 416.8,61.5 417.7,64.7 418.6,65.1 419.5,62.7 420.3,64.2 421.2,62.9 422.1,63.5 423.0,65.0 423.9,63.7 424.8,65.8 425.7,58.5 426.6,62.4 427.5,65.4 428.4,65.0 429.3,59.8 430.2,62.9 431.1,63.0 432.0,62.0 432.9,63.7 433.8,68.5 434.7,63.0 435.6,66.0 436.5,64.6 437.4,63.2 438.3,63.0 439.2,61.5 440.1,63.5 441.0,65.6 441.9,64.8 442.8,66.1 443.7,65.3 444.6,65.9 445.5,66.7 446.4,63.8 447.3,61.5 448.2,65.8 449.1,67.8 450.0,65.2 450.9,65.6 451.8,62.4 452.7,65.3 453.6,63.7 454.5,63.0 455.4,63.2 456.3,64.9 457.2,65.1 458.1,62.1 459.0,61.9 459.9,61.9 460.8,62.8 461.7,61.4 462.6,57.7 463.5,63.7 464.4,60.1 465.3,61.3 466.2,64.0 467.1,60.8 468.0,61.7 468.9,64.4 469.8,60.6 470.7,61.5 471.6,61.7 472.5,58.8 473.4,62.6 474.3,62.7 475.2,60.1 476.1,61.5 477.0,59.6 477.9,61.6 478.8,63.4 479.7,63.6 480.6,67.3 481.5,64.0 482.4,66.3 483.3,63.7 484.2,67.0 485.1,63.9 486.0,65.1 486.9,61.2 487.8,58.0 488.7,60.4 489.6,62.8 490.5,62.6 491.4,64.4 492.3,71.8 493.2,62.2 494.1,60.4 495.0,63.8 495.9,63.2 496.8,61.3 497.7,60.5 498.6,61.6 499.5,63.9 500.4,64.5 501.3,65.4 502.2,65.1 503.1,64.6 504.0,66.5 504.9,63.6 505.8,62.9 506.7,63.0 507.6,62.5 508.5,62.4 509.4,66.0 510.3,64.3 511.2,64.0 512.1,63.2 513.0,61.8 513.9,66.1 514.8,64.3 515.7,63.8 516.6,65.5 517.5,61.8 518.4,62.4 519.3,63.0 520.2,62.1 521.1,63.8 522.0,69.7 522.9,59.7 523.8,61.9 524.7,63.7 525.6,60.2 526.5,61.8 527.4,62.9 528.3,61.9 529.2,61.5 530.1,57.2 531.0,63.2 531.9,61.2 532.8,60.5 533.7,61.7 534.6,61.4 535.5,60.4 536.4,62.3 537.3,64.4 538.2,61.7 539.1,62.2 540.0,59.9 540.9,59.6 541.8,62.9 542.7,61.4 543.6,62.7 544.5,60.8 545.4,62.7 546.3,62.1 547.2,60.4 548.1,65.1 549.0,65.8 549.9,63.7 550.8,64.5 551.7,62.3 552.5,62.4 553.4,61.2 554.3,65.7 555.2,66.0 556.1,69.4 557.0,63.3 557.9,63.0 558.8,59.9 559.7,59.0 560.6,65.3 561.5,64.0 562.4,63.2 563.3,66.1 564.2,63.6 565.1,61.2 566.0,60.0 566.9,60.9 567.8,63.9 568.7,66.6 569.6,71.5 570.5,62.0 571.4,64.3 572.3,63.8 573.2,63.7 574.1,62.3 575.0,61.0 575.9,62.1 576.8,66.0 577.7,64.1 578.6,60.1 579.5,56.6 580.4,58.9 581.4,61.0 582.3,63.0 583.2,63.8 584.1,64.2 585.0,61.5 585.9,63.3 586.8,63.2 587.7,59.5 588.6,63.2 589.4,65.5 590.3,67.2 591.2,62.9 592.1,60.4 593.0,59.5 593.9,65.0 594.8,59.1 595.7,67.8 596.6,60.6 597.5,63.4 598.4,58.8 599.3,63.1 600.2,59.2 601.1,64.4 602.0,67.4 602.9,62.6 603.8,55.1 604.7,61.3 605.6,64.3 606.5,62.9 607.4,68.3 608.3,61.9 609.2,61.6 610.1,63.6 611.0,62.2 611.9,62.6 612.8,62.5 613.7,60.7 614.6,64.6 615.5,63.1 616.4,61.8 617.3,62.4 618.2,62.0 619.1,59.2 620.0,64.7 620.9,64.6 621.8,67.9 622.6,61.3 623.5,64.1 624.4,64.8 625.3,63.3 626.2,64.0 627.2,63.8 628.0,64.3 629.0,66.7 629.9,62.7 630.8,62.5 631.7,60.9 632.6,59.8 633.5,59.4 634.4,61.6 635.3,62.6 636.2,63.2 637.1,63.6 638.0,64.6 638.9,65.6 639.8,63.9 640.7,63.9 641.6,62.8 642.5,62.5 643.4,60.3 644.3,58.6 645.2,62.4 646.1,62.2 647.0,62.6 647.9,58.2 648.8,51.2 649.7,63.4 650.6,62.6 651.5,63.0 652.4,61.9 653.3,61.4 654.2,61.6 655.1,58.0 656.0,62.0 656.9,59.9 657.8,61.9 658.7,61.8 659.6,62.0 660.5,63.1 661.4,60.7 662.3,59.5 663.2,64.9 664.1,62.1 665.0,59.9 665.9,62.1 666.9,59.5 667.8,59.8 668.7,59.4 669.6,63.6 670.5,60.2 671.4,59.9 672.3,62.6 673.2,63.6 674.1,64.1" fill="none" stroke="#2563eb" stroke-width="2.5"/>
<rect x="65" y="20" width="610" height="330" fill="none" stroke="#888" stroke-width="1.5"/>
<line x1="62" y1="308.5" x2="65" y2="308.5" stroke="#64748b" stroke-width="1" opacity="0.6"/>
<line x1="62" y1="260.0" x2="65" y2="260.0" stroke="#64748b" stroke-width="1" opacity="0.6"/>
<line x1="62" y1="199.0" x2="65" y2="199.0" stroke="#64748b" stroke-width="1" opacity="0.6"/>
<line x1="60" y1="116.3" x2="65" y2="116.3" stroke="#64748b" stroke-width="1.5"/>
<text x="57" y="116.3" text-anchor="end" dominant-baseline="middle" font-size="11" font-family="monospace,sans-serif" fill="#64748b">10</text>
<line x1="62" y1="33.5" x2="65" y2="33.5" stroke="#64748b" stroke-width="1" opacity="0.6"/>
<line x1="675" y1="313.3" x2="680" y2="313.3" stroke="#2563eb" stroke-width="1.5"/>
<text x="683" y="313.3" text-anchor="start" dominant-baseline="middle" font-size="11" font-family="monospace,sans-serif" fill="#2563eb">-6.0</text>
<line x1="675" y1="229.8" x2="680" y2="229.8" stroke="#2563eb" stroke-width="1.5"/>
<text x="683" y="229.8" text-anchor="start" dominant-baseline="middle" font-size="11" font-family="monospace,sans-serif" fill="#2563eb">-4.0</text>
<line x1="675" y1="146.3" x2="680" y2="146.3" stroke="#2563eb" stroke-width="1.5"/>
<text x="683" y="146.3" text-anchor="start" dominant-baseline="middle" font-size="11" font-family="monospace,sans-serif" fill="#2563eb">-2.0</text>
<line x1="675" y1="62.8" x2="680" y2="62.8" stroke="#2563eb" stroke-width="1.5"/>
<text x="683" y="62.8" text-anchor="start" dominant-baseline="middle" font-size="11" font-family="monospace,sans-serif" fill="#2563eb">0.0</text>
<line x1="65.0" y1="350" x2="65.0" y2="355" stroke="#888" stroke-width="1.5"/>
<text x="65.0" y="368" text-anchor="middle" font-size="11" font-family="monospace,sans-serif">0</text>
<line x1="187.1" y1="350" x2="187.1" y2="355" stroke="#888" stroke-width="1.5"/>
<text x="187.1" y="368" text-anchor="middle" font-size="11" font-family="monospace,sans-serif">2</text>
<line x1="309.1" y1="350" x2="309.1" y2="355" stroke="#888" stroke-width="1.5"/>
<text x="309.1" y="368" text-anchor="middle" font-size="11" font-family="monospace,sans-serif">4</text>
<line x1="431.2" y1="350" x2="431.2" y2="355" stroke="#888" stroke-width="1.5"/>
<text x="431.2" y="368" text-anchor="middle" font-size="11" font-family="monospace,sans-serif">6</text>
<line x1="553.3" y1="350" x2="553.3" y2="355" stroke="#888" stroke-width="1.5"/>
<text x="553.3" y="368" text-anchor="middle" font-size="11" font-family="monospace,sans-serif">8</text>
<line x1="675.4" y1="350" x2="675.4" y2="355" stroke="#888" stroke-width="1.5"/>
<text x="675.4" y="368" text-anchor="middle" font-size="11" font-family="monospace,sans-serif">10</text>
<text x="370" y="392" text-anchor="middle" font-size="13" font-family="sans-serif">Runtime (minutes)</text>
<text transform="rotate(-90,28,185)" x="28" y="185" text-anchor="middle" font-size="13" font-family="sans-serif" fill="#64748b">Train loss (log scale)</text>
<text transform="rotate(90,746,185)" x="746" y="185" text-anchor="middle" font-size="13" font-family="sans-serif" fill="#2563eb">Train loss diff (exp − base)</text>
<rect x="72" y="26" width="140" height="62" fill="white" fill-opacity="0.85" stroke="#ddd" stroke-width="1" rx="3"/>
<line x1="77" y1="37" x2="99" y2="37" stroke="#64748b" stroke-width="1.5" stroke-dasharray="5,3"/>
<text x="104" y="41" font-size="11" font-family="sans-serif" fill="#64748b">Baseline train loss</text>
<line x1="77" y1="55" x2="99" y2="55" stroke="#16a34a" stroke-width="1.5"/>
<text x="104" y="59" font-size="11" font-family="sans-serif" fill="#16a34a">Experiment train loss</text>
<line x1="77" y1="73" x2="99" y2="73" stroke="#2563eb" stroke-width="2.5"/>
<text x="104" y="77" font-size="11" font-family="sans-serif" fill="#2563eb">Train loss diff</text>
</svg>