<svg xmlns="http://www.w3.org/2000/svg" viewBox="0 0 760 400" width="760" height="400" style="background:white">
<rect x="65" y="20" width="610" height="330" fill="#f9f9f9"/>
<line x1="65" y1="308.5" x2="675" y2="308.5" stroke="#ececec" stroke-width="1"/>
<line x1="65" y1="260.0" x2="675" y2="260.0" stroke="#ececec" stroke-width="1"/>
<line x1="65" y1="199.0" x2="675" y2="199.0" stroke="#ececec" stroke-width="1"/>
<line x1="65" y1="116.3" x2="675" y2="116.3" stroke="#ddd" stroke-width="1"/>
<line x1="65" y1="33.5" x2="675" y2="33.5" stroke="#ececec" stroke-width="1"/>
<line x1="65.0" y1="20" x2="65.0" y2="350" stroke="#ececec" stroke-width="1"/>
<line x1="187.1" y1="20" x2="187.1" y2="350" stroke="#ececec" stroke-width="1"/>
<line x1="309.2" y1="20" x2="309.2" y2="350" stroke="#ececec" stroke-width="1"/>
<line x1="431.3" y1="20" x2="431.3" y2="350" stroke="#ececec" stroke-width="1"/>
<line x1="553.4" y1="20" x2="553.4" y2="350" stroke="#ececec" stroke-width="1"/>
<line x1="675.6" y1="20" x2="675.6" y2="350" stroke="#ececec" stroke-width="1"/>
<polyline points="65.0,119.8 65.6,52.6 66.2,88.0 66.8,146.6 67.4,161.9 68.0,153.7 68.6,155.5 69.2,161.8 69.8,166.9 70.4,170.0 71.0,172.4 72.0,174.2 73.1,176.7 74.1,178.8 75.1,180.5 76.1,182.3 77.2,184.1 78.3,185.4 79.2,187.3 80.3,189.7 81.3,191.7 82.3,193.2 83.4,196.0 84.4,198.2 85.4,200.1 86.4,201.7 87.4,203.5 88.4,205.0 89.4,206.5 90.4,207.8 91.4,208.5 92.4,209.9 93.4,210.7 94.4,212.1 95.4,212.1 96.4,212.8 97.4,213.9 98.4,214.7 99.4,215.5 100.4,215.8 101.3,216.8 102.3,217.0 103.2,217.8 104.2,219.0 105.1,219.6 106.1,219.8 107.0,220.5 108.0,221.4 109.0,222.1 109.9,222.8 110.9,223.5 111.8,224.3 112.8,225.6 113.8,226.2 114.8,226.9 115.9,227.8 116.9,229.3 117.8,230.4 118.8,230.8 119.7,230.9 120.7,230.8 121.6,233.2 122.5,233.6 123.5,233.8 124.5,234.5 125.5,235.2 126.4,236.7 127.4,237.0 128.3,236.6 129.2,237.9 130.2,238.2 131.1,238.9 132.1,238.9 133.1,240.3 134.1,239.9 135.0,240.6 135.9,241.2 136.8,241.3 137.8,241.7 138.7,241.3 139.7,242.7 140.6,242.8 141.5,243.7 142.3,243.7 143.3,244.2 144.2,243.9 145.1,244.6 146.0,244.9 147.0,245.6 147.9,245.5 148.9,245.8 149.8,245.9 150.7,245.5 151.6,247.2 152.4,246.6 153.3,246.9 154.2,247.3 155.2,247.4 156.1,248.6 157.0,248.1 157.8,248.3 158.7,249.2 159.6,249.4 160.4,249.5 161.3,250.3 162.2,250.2 163.1,250.3 164.0,250.3 164.9,250.7 165.8,251.6 166.7,252.1 167.5,251.7 168.4,251.3 169.3,252.4 170.2,251.9 171.0,252.6 171.9,253.3 172.7,253.1 173.6,254.0 174.4,254.7 175.3,254.2 176.2,254.1 177.1,254.3 178.0,255.0 178.9,255.4 179.7,255.4 180.6,255.1 182.0,256.0 182.9,256.8 183.7,256.6 184.6,257.1 185.4,256.2 186.3,257.4 187.2,256.8 188.0,257.2 188.8,257.5 189.7,257.9 190.5,257.9 191.3,257.9 192.3,259.3 193.1,258.8 194.0,258.7 194.8,258.9 195.6,258.4 196.5,259.8 197.3,259.8 198.2,259.6 199.0,260.4 199.8,260.7 200.8,260.1 201.6,260.6 202.4,260.7 203.3,260.8 204.1,261.3 204.9,261.0 205.7,261.9 206.6,262.4 207.4,261.4 208.2,262.3 209.0,261.3 209.9,262.6 210.7,262.4 211.5,261.4 212.3,262.4 213.2,262.9 214.1,262.7 214.9,263.0 215.7,262.6 216.5,262.5 217.4,264.1 218.2,263.5 219.1,263.7 219.9,263.6 220.7,264.1 221.5,264.3 222.3,264.1 223.1,263.5 223.9,264.2 224.7,264.8 225.6,264.0 226.3,263.7 227.1,264.0 227.9,264.0 228.7,264.5 229.6,265.9 230.4,264.3 231.2,264.9 232.0,266.1 232.8,265.5 233.6,265.1 234.4,265.7 235.2,264.8 236.0,265.6 236.8,265.6 237.6,265.8 238.4,266.4 239.2,266.2 240.0,266.3 240.7,266.5 241.5,267.4 242.3,266.4 243.1,266.3 243.9,267.2 244.7,266.5 245.5,266.7 246.4,267.0 247.2,267.5 247.9,267.2 248.7,267.3 249.5,267.2 250.2,267.7 251.0,267.6 251.8,267.9 252.5,266.7 253.3,267.7 254.1,267.6 254.8,267.8 255.6,268.1 256.4,268.3 257.2,268.0 257.9,269.6 258.7,269.3 259.4,268.9 260.2,269.3 261.0,269.1 261.8,269.6 262.6,270.5 263.4,270.3 264.2,269.2 264.9,269.2 265.7,269.3 266.5,269.1 267.2,269.8 268.0,270.6 268.8,270.3 269.5,269.9 270.4,270.1 271.1,270.1 271.9,269.8 272.6,269.6 273.4,270.3 274.2,269.9 274.9,270.3 275.7,270.4 276.4,270.8 277.2,271.6 278.0,271.7 278.7,271.4 279.5,271.7 280.2,271.5 281.0,271.8 281.8,270.8 282.5,271.9 283.3,271.5 284.1,271.8 284.9,272.1 285.6,272.1 286.4,271.5 287.1,271.6 287.9,271.7 288.7,272.5 289.4,271.9 290.1,270.8 290.9,272.3 291.7,272.4 292.4,273.3 293.2,272.9 294.0,272.3 294.7,272.4 295.4,271.4 296.2,272.0 296.9,274.0 297.7,272.4 298.4,273.3 299.1,273.2 299.9,272.0 300.7,273.0 301.4,273.5 302.2,273.0 302.9,273.3 303.7,273.7 304.4,273.3 305.2,272.9 305.9,272.8 306.7,273.7 307.4,273.6 308.1,273.5 308.9,274.1 309.7,273.3 310.4,273.7 311.2,273.8 311.9,274.1 312.7,273.9 313.4,274.3 314.1,274.4 314.8,274.8 315.6,273.7 316.4,274.6 317.1,274.1 317.9,274.5 318.6,272.8 319.4,274.5 320.1,274.0 320.8,274.3 321.5,274.6 322.3,274.5 323.0,274.2 323.7,274.2 324.6,275.9 325.3,274.8 326.0,275.1 326.7,275.2 327.5,274.9 328.2,275.0 328.9,275.3 329.7,275.7 330.4,275.6 331.1,275.4 331.9,275.6 332.6,274.4 333.3,275.9 334.0,275.0 334.8,275.4 335.5,275.6 336.2,275.4 336.9,275.7 337.6,275.4 338.3,276.2 339.0,275.8 339.8,275.9 340.6,275.8 341.3,275.7 342.0,276.2 342.8,276.4 343.5,276.2 344.2,276.0 344.9,275.8 345.7,276.9 346.4,276.6 347.1,276.7 347.9,276.7 348.6,276.1 349.3,277.0 350.0,276.0 350.8,276.6 351.5,276.0 352.2,275.9 353.0,277.0 353.7,277.3 354.4,276.7 355.1,276.8 355.9,278.0 356.6,277.4 357.3,277.2 358.1,276.5 358.8,277.4 359.5,276.5 360.3,277.1 361.0,276.5 361.7,276.8 362.4,276.3 363.1,277.0 363.8,276.6 364.5,278.1 365.3,278.0 366.0,277.4 366.7,277.2 367.4,277.6 368.1,278.3 368.8,277.1 369.6,277.8 370.3,276.4 371.0,278.2 371.7,278.0 372.4,278.3 373.1,278.7 373.8,278.6 374.5,277.7 375.2,278.4 376.0,278.1 376.7,277.8 377.4,278.1 378.1,278.1 378.8,278.1 379.5,278.9 380.2,278.6 380.9,278.5 381.6,278.3 382.3,278.0 383.0,278.6 383.7,278.5 384.4,278.7 385.1,277.3 385.8,279.9 386.5,278.4 387.2,277.5 387.9,278.4 388.6,278.8 389.3,277.3 390.0,278.5 390.7,278.7 391.4,278.4 392.1,279.0 392.8,278.6 393.5,279.8 394.2,278.8 394.9,279.2 395.6,279.0 396.3,279.8 397.0,279.1 397.7,279.1 398.4,278.9 399.1,279.9 399.8,279.3 400.5,279.8 401.2,280.1 401.9,278.9 402.6,279.3 403.3,278.9 404.0,279.6 404.7,279.9 405.4,279.0 406.1,279.6 406.7,279.9 407.4,279.5 408.1,279.3 408.8,279.8 409.5,280.4 410.2,278.6 410.9,280.0 411.6,279.9 412.3,280.6 413.0,279.6 413.7,279.7 414.4,278.2 415.1,279.6 415.8,280.1 416.5,279.9 417.2,279.9 417.9,280.2 418.6,280.2 419.3,280.4 420.0,279.8 420.7,279.8 421.4,279.8 422.1,280.5 422.8,281.5 423.5,280.5 424.2,279.4 424.9,280.2 425.5,281.1 426.2,280.0 426.9,280.9 427.6,280.0 428.3,281.5 429.0,280.2 429.7,281.5 430.4,280.4 431.1,281.7 431.8,281.1 432.5,280.9 433.2,280.4 433.9,279.9 434.6,281.6 435.3,280.3 436.0,280.1 436.6,280.7 437.3,279.9 438.0,281.0 438.7,281.2 439.4,281.4 440.1,280.9 440.7,280.9 441.4,281.8 442.1,281.5 442.8,282.1 443.5,281.5 444.2,281.7 444.9,282.3 445.6,281.0 446.3,280.6 446.9,281.2 447.7,282.0 448.3,280.8 449.0,281.7 449.7,281.6 450.4,280.9 451.1,280.7 451.7,282.7 452.4,281.5 453.1,280.8 453.8,280.9 454.4,282.4 455.1,281.3 455.8,282.6 456.5,281.8 457.1,281.6 457.8,281.2 458.5,281.9 459.2,282.2 459.9,281.4 460.5,281.7 461.2,281.6 461.9,281.2 462.6,280.4 463.3,282.0 463.9,282.2 464.6,281.7 465.3,282.2 466.0,281.7 466.7,282.5 467.3,282.7 468.0,282.7 468.7,282.9 469.4,281.0 470.0,281.1 470.7,283.3 471.4,282.9 472.0,282.0 472.7,281.5 473.4,282.3 474.1,282.3 474.8,283.6 475.4,281.8 476.1,284.3 476.8,282.4 477.4,281.8 478.1,282.4 478.8,283.0 479.4,283.0 480.1,282.6 480.7,282.4 481.4,282.0 482.1,283.4 482.8,283.0 483.4,282.8 484.1,281.8 484.8,283.7 485.5,283.6 486.1,282.3 486.8,283.7 487.5,283.0 488.2,283.3 488.8,282.8 489.5,282.8 490.2,283.6 490.8,283.5 491.5,282.9 492.2,283.9 492.9,282.9 493.5,283.0 494.2,283.7 494.8,282.8 495.5,283.8 496.2,284.0 496.8,282.9 497.5,282.5 498.2,281.9 498.8,283.5 499.5,283.0 500.2,282.7 500.8,283.1 501.5,282.1 502.1,284.2 502.8,284.1 503.5,283.5 504.1,282.7 504.8,284.0 505.4,283.9 506.1,283.3 506.8,284.9 507.5,283.8 508.1,283.2 508.8,283.7 509.4,283.0 510.1,284.6 510.7,282.5 511.4,282.8 512.1,284.4 512.7,283.7 513.4,283.9 514.0,282.8 514.7,284.2 515.3,284.1 516.0,284.8 516.7,284.2 517.3,284.6 518.0,283.5 518.6,284.1 519.3,284.3 520.0,284.2 520.6,284.3 521.3,283.7 522.0,284.0 522.6,284.7 523.3,283.7 523.9,283.6 524.6,284.5 525.2,283.5 525.9,285.3 526.6,284.2 527.2,284.0 527.9,284.6 528.5,284.9 529.1,284.2 529.8,284.3 530.4,284.3 531.1,285.0 531.8,284.0 532.4,284.9 533.1,283.6 533.7,285.4 534.4,286.0 535.0,284.1 535.7,285.0 536.4,284.3 537.0,284.6 537.7,285.1 538.3,285.0 539.0,283.6 539.6,284.5 540.3,284.9 540.9,284.5 541.6,284.8 542.2,285.9 542.9,284.7 543.5,283.7 544.2,284.8 544.8,284.6 545.5,283.1 546.2,285.3 546.8,284.7 547.5,286.2 548.1,285.5 548.8,285.7 549.4,285.2 550.1,286.2 550.7,284.1 551.4,285.3 552.0,285.4 552.7,284.9 553.3,285.0 554.0,283.8 554.6,285.3 555.3,285.3 555.9,285.4 556.6,285.6 557.2,286.2 557.9,285.8 558.5,284.5 559.2,285.0 559.8,285.5 560.4,285.4 561.1,284.7 561.8,286.1 562.4,285.7 563.0,285.4 563.7,284.5 564.3,284.8 565.0,285.3 565.6,285.2 566.3,285.2 566.9,284.4 567.6,284.9 568.2,285.2 568.9,284.6 569.5,286.4 570.1,285.7 570.8,285.8 571.4,285.9 572.1,286.3 572.7,284.3 573.4,286.0 574.0,286.3 574.7,286.5 575.3,285.9 576.0,285.8 576.6,285.6 577.3,286.8 577.9,285.8 578.6,286.6 579.2,286.1 579.9,286.1 580.5,285.8 581.2,285.9 581.8,284.9 582.5,285.7 583.1,285.9 583.8,285.9 584.4,285.9 585.0,287.0 585.7,285.5 586.3,286.5 587.0,287.0 587.6,286.9 588.3,286.4 588.9,286.6 589.5,285.5 590.2,286.6 590.8,286.6 591.5,286.3 592.1,287.3 592.8,286.9 593.4,285.7 594.1,286.2 594.7,286.0 595.4,286.1 596.0,286.3 596.6,286.2 597.3,284.7 597.9,287.7 598.6,285.9 599.2,286.9 599.9,287.3 600.5,285.9 601.1,286.4 601.8,286.4 602.4,286.3 603.1,286.7 603.7,286.1 604.4,286.1 605.0,286.7 605.6,286.8 606.3,286.4 606.9,286.2 607.6,287.2 608.2,287.0 608.8,287.0 609.5,287.1 610.1,286.6 610.8,286.8 611.4,286.7 612.0,286.8 612.7,286.5 613.3,286.8 614.0,285.9 614.6,287.2 615.3,286.1 615.9,286.2 616.5,285.9 617.2,286.5 617.8,287.0 618.5,287.3 619.1,287.2 619.8,286.8 620.4,287.2 621.0,286.8 621.6,288.6 622.3,286.8 622.9,286.8 623.6,286.4 624.2,288.1 624.9,286.3 625.5,286.8 626.1,286.6 626.8,287.5 627.4,286.8 628.1,288.0 628.7,287.9 629.3,287.1 630.1,287.3 630.7,286.7 631.4,287.4 632.0,287.6 632.6,287.5 633.3,286.5 633.9,286.8 634.6,287.2 635.2,286.5 635.8,286.1 636.5,287.8 637.1,287.6 637.7,286.8 638.4,287.9 639.0,287.0 639.7,286.4 640.3,286.6 640.9,287.4 641.6,286.7 642.2,288.9 642.9,287.1 643.8,287.3 644.5,288.0 645.1,286.4 645.7,287.2 646.4,287.1 647.0,286.9 647.6,287.4 648.3,288.1 648.9,286.4 649.6,287.2 650.2,286.3 650.8,287.1 651.4,288.1 652.1,287.9 652.7,288.0 653.3,286.6 654.0,287.7 654.6,287.3 655.2,287.8 655.9,287.7 656.5,288.4 657.1,288.6 657.8,288.3 658.4,288.4 659.1,287.3 659.7,287.2 660.3,288.0 661.0,287.6 661.6,287.9 662.3,286.5 662.9,287.4 663.6,288.7 664.2,288.3 664.8,287.8 665.5,288.0 666.1,288.0 666.8,288.4 667.4,288.5 668.0,287.5 668.6,287.3 669.3,287.4 669.9,287.9 670.6,287.1 671.2,287.6 671.8,289.0 672.5,287.6 673.1,288.0 673.7,288.6 674.4,287.5 675.0,287.8" fill="none" stroke="#16a34a" stroke-width="1.5"/>
<rect x="65" y="20" width="610" height="330" fill="none" stroke="#888" stroke-width="1.5"/>
<line x1="62" y1="308.5" x2="65" y2="308.5" stroke="#64748b" stroke-width="1" opacity="0.6"/>
<line x1="62" y1="260.0" x2="65" y2="260.0" stroke="#64748b" stroke-width="1" opacity="0.6"/>
<line x1="62" y1="199.0" x2="65" y2="199.0" stroke="#64748b" stroke-width="1" opacity="0.6"/>
<line x1="60" y1="116.3" x2="65" y2="116.3" stroke="#64748b" stroke-width="1.5"/>
<text x="57" y="116.3" text-anchor="end" dominant-baseline="middle" font-size="11" font-family="monospace,sans-serif" fill="#64748b">10</text>
<line x1="62" y1="33.5" x2="65" y2="33.5" stroke="#64748b" stroke-width="1" opacity="0.6"/>
<line x1="65.0" y1="350" x2="65.0" y2="355" stroke="#888" stroke-width="1.5"/>
<text x="65.0" y="368" text-anchor="middle" font-size="11" font-family="monospace,sans-serif">0</text>
<line x1="187.1" y1="350" x2="187.1" y2="355" stroke="#888" stroke-width="1.5"/>
<text x="187.1" y="368" text-anchor="middle" font-size="11" font-family="monospace,sans-serif">2</text>
<line x1="309.2" y1="350" x2="309.2" y2="355" stroke="#888" stroke-width="1.5"/>
<text x="309.2" y="368" text-anchor="middle" font-size="11" font-family="monospace,sans-serif">4</text>
<line x1="431.3" y1="350" x2="431.3" y2="355" stroke="#888" stroke-width="1.5"/>
<text x="431.3" y="368" text-anchor="middle" font-size="11" font-family="monospace,sans-serif">6</text>
<line x1="553.4" y1="350" x2="553.4" y2="355" stroke="#888" stroke-width="1.5"/>
<text x="553.4" y="368" text-anchor="middle" font-size="11" font-family="monospace,sans-serif">8</text>
<line x1="675.6" y1="350" x2="675.6" y2="355" stroke="#888" stroke-width="1.5"/>
<text x="675.6" y="368" text-anchor="middle" font-size="11" font-family="monospace,sans-serif">10</text>
<text x="370" y="392" text-anchor="middle" font-size="13" font-family="sans-serif">Runtime (minutes)</text>
<text transform="rotate(-90,28,185)" x="28" y="185" text-anchor="middle" font-size="13" font-family="sans-serif" fill="#64748b">Train loss (log scale)</text>
</svg>