<svg xmlns="http://www.w3.org/2000/svg" viewBox="0 0 760 400" width="760" height="400" style="background:white">
<rect x="65" y="20" width="610" height="330" fill="#f9f9f9"/>
<line x1="65" y1="308.5" x2="675" y2="308.5" stroke="#ececec" stroke-width="1"/>
<line x1="65" y1="260.0" x2="675" y2="260.0" stroke="#ececec" stroke-width="1"/>
<line x1="65" y1="199.0" x2="675" y2="199.0" stroke="#ececec" stroke-width="1"/>
<line x1="65" y1="116.3" x2="675" y2="116.3" stroke="#ddd" stroke-width="1"/>
<line x1="65" y1="33.5" x2="675" y2="33.5" stroke="#ececec" stroke-width="1"/>
<line x1="65.0" y1="20" x2="65.0" y2="350" stroke="#ececec" stroke-width="1"/>
<line x1="187.1" y1="20" x2="187.1" y2="350" stroke="#ececec" stroke-width="1"/>
<line x1="309.2" y1="20" x2="309.2" y2="350" stroke="#ececec" stroke-width="1"/>
<line x1="431.3" y1="20" x2="431.3" y2="350" stroke="#ececec" stroke-width="1"/>
<line x1="553.3" y1="20" x2="553.3" y2="350" stroke="#ececec" stroke-width="1"/>
<line x1="675.4" y1="20" x2="675.4" y2="350" stroke="#ececec" stroke-width="1"/>
<line x1="65" y1="296.3" x2="675" y2="296.3" stroke="#2563eb" stroke-width="0.75" stroke-dasharray="3,3" opacity="0.4"/>
<polyline points="65.0,119.8 65.9,52.3 66.8,85.9 67.7,141.9 68.5,160.7 69.4,155.7 70.3,156.5 71.2,162.7 72.1,166.9 73.0,169.9 73.9,172.4 74.8,173.8 75.7,175.9 76.6,177.5 77.5,179.6 78.4,181.0 79.3,183.0 80.2,183.4 81.1,184.7 82.0,186.8 82.9,188.5 83.9,189.8 84.8,191.8 85.7,194.1 86.6,196.0 87.5,198.4 88.4,200.2 89.3,202.2 90.2,203.8 91.1,204.9 92.0,205.8 92.9,206.4 93.8,208.2 94.7,209.1 95.6,210.4 96.6,211.1 97.5,211.1 98.4,212.1 99.3,212.8 100.2,213.6 101.1,214.1 102.0,214.9 102.9,215.6 103.8,215.8 104.7,216.1 105.7,217.8 106.6,217.8 107.5,218.1 108.4,217.3 109.3,219.7 110.2,219.0 111.1,220.6 112.0,221.1 112.9,221.4 113.8,222.7 114.7,223.0 115.6,223.5 116.6,223.5 117.5,225.0 118.4,225.3 119.3,225.5 120.2,227.1 121.1,226.6 122.0,227.6 122.9,229.0 123.8,230.1 124.7,231.3 125.6,231.1 126.5,231.2 127.4,232.1 128.4,232.8 129.3,232.9 130.2,234.2 131.1,234.4 132.0,233.9 132.9,235.0 133.8,234.5 134.7,235.9 135.6,235.6 136.5,237.9 137.5,237.1 138.4,237.2 139.3,237.0 140.2,237.6 141.1,239.4 142.0,238.3 142.9,238.8 143.8,239.9 144.7,239.5 145.6,238.3 146.5,241.9 147.5,240.8 148.4,239.8 149.3,241.2 150.2,241.4 151.1,240.8 152.0,241.5 152.9,241.1 153.8,242.0 154.7,242.8 155.7,241.8 156.6,242.4 157.5,243.6 158.4,242.1 159.3,244.4 160.2,243.1 161.1,241.7 162.0,243.7 162.9,243.0 163.9,243.0 164.8,244.0 165.7,244.7 166.6,245.1 167.5,244.9 168.4,243.6 169.3,245.6 170.2,244.9 171.2,245.7 172.1,245.8 173.0,245.1 173.9,245.5 174.8,243.8 175.7,246.4 176.6,247.1 177.5,245.8 178.5,246.7 179.4,245.7 180.3,246.6 181.2,248.8 182.1,246.9 183.0,247.1 183.9,246.4 184.8,247.0 185.8,247.1 186.7,246.9 187.6,248.4 188.5,248.5 189.4,247.2 190.3,248.2 191.2,247.3 192.1,248.0 193.1,248.8 194.0,248.7 194.9,249.3 195.8,249.8 196.7,249.9 197.6,248.7 198.5,248.9 199.4,249.4 200.4,249.8 201.3,250.6 202.2,250.9 203.1,250.6 204.0,250.6 204.9,250.7 205.8,251.2 206.7,250.9 207.6,251.7 208.5,251.1 209.5,251.6 210.4,250.5 211.3,251.8 212.2,252.9 213.1,252.1 214.0,251.4 214.9,252.8 215.8,254.1 216.7,252.1 217.6,254.1 218.5,252.5 219.4,253.2 220.3,252.9 221.3,253.3 222.2,252.9 223.1,253.1 224.0,253.1 224.9,254.8 225.8,253.9 226.7,254.3 227.6,254.1 228.5,255.1 229.5,254.1 230.4,255.0 231.3,254.9 232.2,255.5 233.1,255.8 234.0,255.4 234.9,255.2 235.8,255.8 236.7,256.6 237.7,254.9 238.6,257.0 239.5,257.0 240.4,257.3 241.3,256.6 242.2,256.1 243.1,257.7 244.0,257.0 244.9,256.8 245.9,257.0 246.8,257.4 247.7,260.1 248.6,257.3 249.5,259.1 250.4,258.5 251.3,260.0 252.2,258.0 253.2,259.1 254.1,258.2 255.0,258.5 255.9,260.0 256.8,259.8 257.7,259.5 258.6,258.8 259.5,260.4 260.4,261.4 261.3,259.1 262.2,259.4 263.1,259.9 264.0,260.1 264.9,260.3 265.8,260.0 266.7,260.6 267.6,259.9 268.5,261.4 269.4,260.4 270.3,261.5 271.2,261.4 272.2,261.2 273.1,261.8 274.0,261.4 274.9,261.4 275.8,261.1 276.7,262.3 277.6,262.9 278.5,261.9 279.4,262.9 280.3,264.3 281.2,262.7 282.1,263.3 283.0,261.5 283.9,263.0 284.8,263.4 285.7,262.7 286.6,264.2 287.5,264.5 288.4,262.7 289.4,263.4 290.3,262.3 291.2,263.0 292.1,263.5 293.0,261.0 293.9,264.5 294.8,263.5 295.7,263.4 296.6,264.1 297.5,264.0 298.4,263.6 299.3,265.3 300.2,266.6 301.1,265.4 302.0,263.5 302.9,264.7 303.8,266.3 304.7,264.6 305.6,264.9 306.5,265.2 307.4,263.7 308.3,265.0 309.2,264.3 310.2,264.3 311.1,262.9 312.0,265.6 312.9,265.4 313.8,265.0 314.7,265.2 315.6,265.2 316.5,264.8 317.4,265.8 318.3,266.4 319.2,264.3 320.2,267.2 321.1,263.6 322.0,267.2 322.9,264.4 323.8,265.9 324.7,266.3 325.6,267.2 326.5,264.2 327.4,265.3 328.3,267.0 329.2,267.6 330.2,267.6 331.1,265.1 332.0,268.2 332.9,266.4 333.8,266.4 334.7,266.9 335.6,266.8 336.5,267.2 337.4,267.6 338.3,268.1 339.2,267.0 340.1,267.1 341.0,267.3 341.9,268.4 342.8,267.3 343.7,268.7 344.7,267.0 345.6,267.8 346.5,267.1 347.4,269.2 348.3,268.7 349.2,267.8 350.1,269.7 351.0,268.7 351.9,268.7 352.8,268.8 353.7,267.1 354.6,268.8 355.5,268.7 356.5,268.7 357.4,267.2 358.3,267.2 359.2,267.5 360.1,268.8 361.0,269.4 361.9,269.2 362.8,269.6 363.7,268.0 364.6,267.7 365.5,269.2 366.4,269.0 367.3,268.5 368.3,266.7 369.2,268.0 370.1,269.3 371.0,269.6 371.9,269.3 372.8,269.6 373.7,269.0 374.6,268.1 375.5,269.0 376.4,268.2 377.3,269.1 378.2,270.6 379.2,267.9 380.1,268.9 381.0,270.2 381.9,270.0 382.8,269.0 383.7,268.8 384.6,270.4 385.5,268.3 386.4,270.8 387.3,270.7 388.2,269.5 389.1,271.0 390.0,271.0 390.9,271.1 391.9,269.2 392.8,272.3 393.7,270.0 394.6,271.1 395.5,269.3 396.4,267.4 397.3,270.8 398.2,270.3 399.1,272.6 400.0,270.0 400.9,270.1 401.9,269.6 402.8,270.8 403.7,271.8 404.6,272.5 405.5,269.3 406.4,270.3 407.3,271.5 408.2,270.6 409.1,273.1 410.0,271.7 410.9,269.1 411.8,269.7 412.7,270.7 413.6,272.0 414.6,272.5 415.5,271.3 416.4,270.7 417.3,271.4 418.2,270.0 419.1,270.3 420.0,272.3 420.9,270.7 421.8,270.6 422.7,271.3 423.7,269.8 424.6,271.0 425.5,272.8 426.4,270.2 427.3,272.2 428.2,271.8 429.1,271.0 430.0,272.8 430.9,270.8 431.8,272.9 432.7,271.8 433.6,272.7 434.5,271.4 435.4,271.9 436.3,271.1 437.3,270.9 438.2,270.0 439.1,271.7 440.0,271.3 440.9,270.5 441.8,271.7 442.7,272.6 443.6,273.3 444.5,272.2 445.4,272.8 446.3,273.4 447.3,271.5 448.2,271.9 449.1,271.4 450.0,272.0 450.9,271.9 451.8,270.8 452.7,272.8 453.6,271.2 454.5,270.2 455.4,273.4 456.3,270.9 457.2,271.9 458.1,272.8 459.0,271.7 460.0,273.1 460.9,274.0 461.8,272.7 462.7,273.3 463.6,271.2 464.5,272.4 465.4,272.9 466.3,273.2 467.2,272.7 468.1,273.3 469.0,272.3 469.9,272.9 470.9,273.8 471.8,273.6 472.7,272.7 473.6,270.7 474.5,272.9 475.4,274.7 476.3,271.2 477.2,274.6 478.1,274.7 479.0,273.1 479.9,275.3 480.9,271.3 481.8,273.6 482.7,273.4 483.6,272.5 484.5,273.6 485.4,271.4 486.3,272.7 487.2,274.0 488.1,273.9 489.0,272.7 489.9,274.6 490.8,274.3 491.7,273.1 492.6,273.5 493.5,274.6 494.5,273.5 495.4,272.8 496.3,273.6 497.2,274.5 498.1,272.4 499.0,273.3 499.9,273.3 500.8,270.9 501.7,273.3 502.6,272.7 503.5,273.1 504.4,272.8 505.3,274.8 506.3,274.7 507.2,274.2 508.1,276.2 509.0,271.7 509.9,273.5 510.8,273.2 511.7,274.0 512.6,274.5 513.5,274.5 514.4,274.0 515.3,274.4 516.2,274.2 517.2,272.8 518.1,274.5 519.0,271.4 519.9,273.0 520.8,272.7 521.7,274.1 522.6,274.7 523.5,272.6 524.4,272.0 525.3,274.4 526.2,273.8 527.1,273.1 528.0,273.3 529.0,275.3 529.9,274.8 530.8,274.1 531.7,274.3 532.6,274.1 533.5,273.7 534.4,273.1 535.3,274.1 536.2,276.4 537.1,275.3 538.0,275.6 538.9,276.9 539.8,273.7 540.7,276.7 541.6,276.2 542.6,275.1 543.5,275.9 544.4,275.4 545.3,274.7 546.2,274.2 547.1,274.7 548.0,274.2 548.9,274.9 549.8,275.9 550.7,276.2 551.6,273.7 552.5,275.0 553.4,273.3 554.3,275.8 555.2,273.9 556.2,276.8 557.1,273.7 558.0,274.2 558.9,273.3 559.8,275.1 560.7,274.9 561.6,275.0 562.5,274.3 563.4,274.6 564.3,275.3 565.2,275.9 566.1,274.7 567.1,276.4 568.0,273.7 568.9,275.2 569.8,275.2 570.7,273.0 571.6,276.4 572.5,278.0 573.4,275.9 574.3,276.8 575.2,276.2 576.1,277.2 577.0,276.2 577.9,274.6 578.8,275.6 579.8,276.3 580.7,275.2 581.6,276.5 582.5,276.3 583.4,275.9 584.3,276.3 585.3,276.4 586.2,274.4 587.1,277.2 588.0,276.8 588.9,274.2 589.8,278.1 590.7,275.1 591.6,277.3 592.5,274.7 593.4,275.6 594.3,275.0 595.3,274.3 596.2,275.9 597.1,275.5 598.0,275.5 598.9,277.4 599.8,277.0 600.7,275.2 601.6,275.3 602.5,276.0 603.4,275.4 604.3,276.6 605.2,278.5 606.1,276.9 607.1,276.7 608.0,273.9 608.9,275.4 609.8,279.5 610.7,277.9 611.6,277.7 612.5,276.2 613.4,277.4 614.3,276.1 615.2,277.7 616.1,277.1 617.0,276.3 617.9,275.2 618.8,279.7 619.7,278.3 620.6,275.4 621.5,277.0 622.5,276.9 623.4,275.9 624.3,277.9 625.2,275.3 626.1,275.7 627.0,276.8 627.9,276.6 628.8,276.8 629.7,279.1 630.6,277.9 631.5,275.0 632.4,278.4 633.3,277.6 634.2,275.4 635.1,278.9 636.0,276.4 637.0,279.3 637.9,276.9 638.8,275.9 639.7,276.9 640.6,279.1 641.5,276.2 642.4,278.5 643.3,276.6 644.2,276.2 645.1,278.0 646.0,275.3 646.9,277.4 647.8,275.3 648.7,276.5 649.6,279.1 650.5,278.8 651.4,276.1 652.3,278.3 653.2,277.7 654.1,278.0 655.1,278.0 656.0,277.8 656.9,276.0 657.8,278.1 658.7,277.4 659.6,275.9 660.5,278.5 661.4,277.5 662.3,275.7 663.2,278.4 664.1,276.5 665.0,277.0 665.9,278.3 666.8,276.2 667.7,277.4 668.6,279.2 669.6,277.8 670.5,279.6 671.4,276.1 672.3,278.8 673.2,277.6 674.1,279.0 675.0,276.3" fill="none" stroke="#64748b" stroke-width="1.5" stroke-dasharray="5,3"/>
<polyline points="65.0,119.6 65.9,52.7 66.8,89.8 67.6,134.9 68.5,131.5 69.4,153.0 70.3,160.7 71.2,164.1 72.1,168.0 73.0,169.0 73.8,170.9 74.7,173.8 75.6,175.6 76.5,174.2 77.4,177.8 78.3,179.7 79.2,179.8 80.1,180.7 81.0,181.3 81.9,181.0 82.8,181.0 83.7,181.7 84.6,184.1 85.5,183.0 86.4,185.4 87.3,182.9 88.2,174.3 89.1,175.5 90.0,176.0 90.9,172.9 91.8,175.6 92.7,175.3 93.6,175.7 94.5,175.9 95.4,175.8 96.3,176.2 97.2,176.0 98.1,175.7 99.0,175.9 100.0,176.0 100.9,176.0 101.8,176.7 102.7,176.3 103.6,176.2 104.5,176.3 105.4,176.5 106.3,176.5 107.2,176.5 108.1,176.4 109.0,176.7 109.9,176.6 110.8,176.6 111.7,176.4 112.6,176.7 113.5,176.4 114.4,176.4 115.3,176.7 116.2,176.6 117.1,176.7 118.0,176.8 118.9,176.6 119.8,176.8 120.7,176.6 121.6,176.6 122.5,176.6 123.4,176.6 124.3,176.8 125.2,176.6 126.2,176.6 127.0,176.7 128.0,176.2 128.9,176.8 129.8,176.8 130.7,176.5 131.6,176.4 132.5,176.6 133.4,176.6 134.3,176.4 135.2,176.6 136.1,176.4 137.0,176.6 137.9,176.3 138.8,176.6 139.7,176.6 140.6,176.8 141.5,176.6 142.4,176.6 143.3,176.5 144.2,176.4 145.1,176.3 146.0,176.9 146.9,176.6 147.8,176.8 148.7,176.5 149.6,176.8 150.5,176.6 151.5,176.7 152.4,176.5 153.3,176.3 154.2,176.7 155.1,176.5 156.0,176.4 156.9,176.4 157.8,176.7 158.7,176.0 159.6,176.8 160.5,176.7 161.4,176.6 162.3,176.4 163.3,176.7 164.2,176.8 165.1,176.4 166.0,176.6 166.9,176.5 167.8,176.5 168.7,176.6 169.6,176.6 170.5,176.8 171.4,176.6 172.3,176.6 173.2,176.4 174.1,176.6 175.0,176.8 175.9,176.8 176.8,176.7 177.7,176.3 178.6,176.5 179.5,176.4 180.4,176.7 181.4,176.7 182.3,176.6 183.2,176.5 184.1,176.5 185.0,176.7 185.9,176.5 186.8,176.8 187.7,176.5 188.6,176.3 189.5,176.5 190.4,176.8 191.3,176.8 192.2,176.6 193.1,176.3 194.0,176.5 194.9,176.6 195.9,176.6 196.8,176.6 197.7,176.7 198.6,176.5 199.5,176.6 200.4,176.7 201.3,176.5 202.2,175.8 203.1,176.6 204.0,176.4 204.9,176.6 205.8,176.6 206.7,176.6 207.6,176.5 208.5,176.6 209.5,176.5 210.4,176.5 211.3,176.6 212.2,176.5 213.1,176.5 214.0,176.5 214.9,176.6 215.8,176.7 216.7,176.2 217.6,176.2 218.5,176.7 219.4,176.6 220.3,176.5 221.2,176.3 222.1,176.7 223.0,176.5 224.0,176.6 224.9,176.5 225.8,176.5 226.7,176.5 227.6,176.5 228.5,176.7 229.4,176.4 230.3,176.5 231.2,176.4 232.1,176.6 233.0,176.4 233.9,176.4 234.8,176.5 235.7,176.3 236.6,176.5 237.5,176.8 238.4,176.6 239.3,176.3 240.2,176.6 241.2,176.5 242.1,176.7 243.0,176.7 243.9,176.6 244.8,176.7 245.7,176.7 246.6,176.7 247.5,176.3 248.4,176.8 249.3,176.4 250.2,176.3 251.1,176.7 252.0,176.6 252.9,176.6 253.8,177.0 254.7,176.3 255.6,176.7 256.5,176.5 257.5,176.3 258.4,176.5 259.3,176.5 260.2,176.5 261.1,176.7 262.0,176.6 262.9,176.5 263.8,176.4 264.7,176.6 265.6,176.4 266.5,176.8 267.4,176.4 268.3,176.6 269.2,176.6 270.1,176.5 271.0,176.6 272.0,176.7 272.9,176.7 273.8,176.7 274.7,176.6 275.6,176.3 276.5,176.5 277.4,176.4 278.3,176.3 279.2,176.4 280.1,176.6 281.0,176.1 281.9,176.7 282.8,176.8 283.7,176.4 284.6,176.8 285.5,176.5 286.4,176.7 287.3,176.5 288.2,176.6 289.1,176.7 290.0,176.7 290.9,176.8 291.8,176.7 292.7,176.6 293.6,176.5 294.5,176.7 295.4,176.6 296.3,176.7 297.2,176.6 298.1,176.6 299.0,176.5 299.9,176.4 300.8,176.7 301.7,176.4 302.6,176.8 303.5,176.3 304.5,176.7 305.4,176.7 306.3,176.5 307.2,176.5 308.1,176.6 309.0,176.4 309.9,176.5 310.8,176.8 311.7,176.5 312.6,176.6 313.5,176.3 314.4,176.2 315.3,176.7 316.2,176.5 317.1,176.7 318.0,176.6 318.9,176.4 319.8,176.5 320.7,176.7 321.6,176.5 322.5,176.6 323.4,176.8 324.3,176.4 325.2,176.5 326.1,176.6 327.0,176.1 327.9,176.4 328.8,176.5 329.8,176.8 330.7,176.6 331.6,176.4 332.5,176.5 333.4,176.6 334.3,176.7 335.2,176.5 336.1,176.5 337.0,176.3 337.9,176.7 338.8,176.6 339.7,176.7 340.6,176.6 341.5,176.7 342.4,176.5 343.4,176.6 344.3,176.6 345.2,176.4 346.1,176.5 347.0,176.8 347.9,176.7 348.8,176.6 349.7,177.0 350.6,176.8 351.5,176.7 352.4,176.4 353.3,176.4 354.2,176.4 355.1,176.7 356.0,176.4 356.9,176.7 357.8,176.9 358.8,176.8 359.7,176.2 360.6,176.7 361.5,176.7 362.4,176.3 363.3,176.7 364.2,176.5 365.1,176.6 366.0,176.6 366.9,176.7 367.8,176.7 368.7,176.7 369.6,176.7 370.5,177.0 371.4,176.6 372.3,176.7 373.2,176.9 374.1,176.4 375.0,176.8 375.9,176.6 376.9,176.6 377.8,176.5 378.7,175.9 379.6,176.5 380.5,176.4 381.4,176.7 382.3,176.6 383.2,176.5 384.1,176.7 385.0,176.9 385.9,176.8 386.8,176.5 387.8,176.8 388.7,176.5 389.6,176.6 390.5,176.7 391.4,176.7 392.3,176.6 393.2,176.4 394.1,176.6 395.0,176.8 395.9,176.6 396.8,176.6 397.7,176.5 398.6,176.7 399.5,176.6 400.4,176.3 401.3,176.7 402.2,176.5 403.1,177.0 404.1,176.6 405.0,176.6 405.9,176.6 406.8,176.1 407.7,176.7 408.6,176.7 409.5,176.8 410.4,176.6 411.3,176.5 412.2,176.7 413.1,176.5 414.0,176.5 414.9,176.8 415.8,176.5 416.7,176.4 417.6,176.7 418.5,176.8 419.4,176.3 420.3,176.6 421.2,176.6 422.1,176.3 423.1,176.7 424.0,176.7 424.9,176.6 425.8,176.5 426.7,176.3 427.6,176.5 428.5,176.6 429.4,176.4 430.3,176.2 431.2,176.5 432.1,176.7 433.0,176.8 433.9,176.6 434.8,176.6 435.7,176.7 436.6,176.7 437.5,176.5 438.4,176.7 439.3,176.5 440.2,176.7 441.1,176.6 442.0,176.5 442.9,176.7 443.8,176.8 444.7,176.6 445.6,176.7 446.5,176.7 447.5,177.0 448.4,176.6 449.3,176.7 450.2,176.7 451.1,176.4 452.0,176.6 452.9,176.8 453.8,176.5 454.7,176.4 455.6,176.9 456.5,176.8 457.4,176.5 458.3,176.3 459.2,176.5 460.1,176.3 461.0,176.8 461.9,176.3 462.8,176.4 463.7,176.7 464.6,176.6 465.5,176.2 466.4,176.3 467.3,176.5 468.2,176.5 469.1,176.5 470.0,176.6 470.9,176.6 471.8,176.4 472.7,176.7 473.6,176.6 474.5,176.8 475.4,176.1 476.3,176.6 477.2,176.3 478.2,176.5 479.1,176.4 480.0,176.5 480.9,176.6 481.8,176.8 482.7,176.6 483.6,176.5 484.5,176.6 485.4,176.6 486.3,176.4 487.2,176.6 488.1,176.5 489.0,176.6 489.9,176.7 490.8,176.5 491.7,176.8 492.6,176.4 493.5,176.2 494.4,176.6 495.3,176.8 496.2,176.2 497.1,176.4 498.1,176.7 499.0,176.2 499.9,176.4 500.8,176.4 501.7,176.5 502.6,171.7 503.5,176.8 504.4,176.9 505.3,175.9 506.2,174.8 507.1,176.4 508.0,176.1 508.9,176.2 509.8,176.5 510.7,176.6 511.6,176.8 512.5,176.8 513.4,176.9 514.3,176.4 515.3,176.4 516.2,176.6 517.1,176.7 518.0,176.8 518.9,176.8 519.8,176.9 520.7,176.6 521.6,176.5 522.5,176.5 523.4,176.5 524.3,176.4 525.2,176.6 526.1,176.6 527.0,176.5 527.9,176.6 528.8,176.3 529.7,176.6 530.6,176.4 531.5,176.7 532.4,176.8 533.4,176.6 534.3,176.6 535.2,176.7 536.1,176.4 537.0,176.8 537.9,176.5 538.8,176.7 539.7,176.6 540.6,176.5 541.5,176.7 542.4,176.1 543.3,176.6 544.2,176.6 545.1,176.8 546.0,176.6 546.9,176.6 547.8,176.4 548.7,176.6 549.6,176.5 550.5,176.4 551.4,176.6 552.3,176.5 553.2,176.5 554.2,176.5 555.1,176.6 556.0,176.4 556.9,176.3 557.8,176.5 558.7,176.4 559.6,176.2 560.5,176.0 561.4,175.9 562.3,176.5 563.2,176.3 564.1,176.6 565.0,176.7 565.9,176.8 566.8,176.6 567.7,176.4 568.6,176.4 569.5,176.5 570.4,176.6 571.3,176.7 572.2,176.7 573.1,176.2 574.0,176.6 574.9,176.4 575.8,176.6 576.7,176.7 577.6,176.6 578.5,176.6 579.4,176.4 580.3,176.6 581.2,176.3 582.1,176.5 583.1,176.5 584.1,176.5 585.0,176.4 585.9,176.4 586.8,176.5 587.7,176.7 588.6,176.4 589.5,175.8 590.4,176.5 591.3,176.6 592.2,176.5 593.1,176.5 594.0,176.5 594.9,176.8 595.8,176.4 596.7,176.7 597.6,176.8 598.5,175.9 599.5,176.4 600.4,176.1 601.3,176.4 602.2,176.6 603.1,176.6 604.0,176.7 604.9,176.5 605.8,176.3 606.7,176.5 607.6,176.5 608.5,176.5 609.4,176.5 610.3,176.5 611.2,176.7 612.1,176.8 613.0,176.3 613.9,176.6 614.8,176.3 615.7,176.5 616.6,176.8 617.5,176.7 618.4,176.7 619.3,176.9 620.2,176.5 621.1,176.4 622.0,176.4 622.9,176.8 623.8,176.6 624.7,176.7 625.6,176.6 626.5,176.9 627.4,176.7 628.4,176.8 629.3,176.5 630.2,176.5 631.1,176.5 632.0,176.6 632.9,176.8 633.8,176.4 634.7,176.8 635.6,176.7 636.5,176.6 637.4,176.5 638.3,176.7 639.2,176.6 640.1,176.6 641.0,176.5 641.9,176.6 642.8,176.1 643.7,176.5 644.6,176.7 645.5,176.5 646.4,176.7 647.4,176.7 648.3,176.8 649.2,176.7 650.1,176.3 651.0,176.3 651.9,176.6 652.8,176.6 653.7,176.7 654.6,176.4 655.5,176.6 656.4,176.3 657.3,176.2 658.2,176.6 659.1,176.4 660.0,176.6 660.9,176.7 661.8,176.4 662.8,176.5 663.6,176.4 664.5,176.5 665.5,176.7 666.4,176.6 667.3,176.7 668.2,176.4 669.1,176.5 670.0,176.6 670.9,176.7 671.8,176.6 672.7,176.2 673.6,176.5 674.5,176.5" fill="none" stroke="#16a34a" stroke-width="1.5"/>
<polyline points="65.0,295.6 65.9,298.7 66.8,327.2 67.6,266.3 68.5,162.7 69.4,284.3 70.3,314.0 71.2,302.7 72.1,301.3 73.0,293.4 73.8,291.2 74.7,296.5 75.6,295.9 76.5,285.1 77.4,290.5 78.3,292.1 79.2,286.1 80.1,287.2 81.0,285.3 81.9,277.9 82.8,272.1 83.7,270.1 84.6,272.0 85.5,261.4 86.4,263.4 87.3,248.2 88.2,212.6 89.1,211.4 90.0,208.3 90.9,193.6 91.8,200.6 92.7,197.9 93.6,195.3 94.5,192.9 95.4,189.3 96.3,188.0 97.2,187.0 98.1,184.1 99.0,182.7 100.0,181.1 100.9,179.8 101.8,180.1 102.7,177.0 103.6,175.7 104.5,175.5 105.4,172.8 106.3,171.4 107.2,171.0 108.1,171.7 109.0,169.3 109.9,168.1 110.8,166.4 111.7,163.6 112.6,163.5 113.5,160.1 114.4,158.7 115.3,158.5 116.2,157.6 117.1,155.8 118.0,154.3 118.9,153.2 119.8,151.3 120.7,149.9 121.6,148.9 122.5,146.3 123.4,143.3 124.3,141.2 125.2,139.8 126.2,139.8 127.0,138.8 128.0,135.4 128.9,136.9 129.8,135.0 130.7,132.4 131.6,132.7 132.5,132.3 133.4,131.7 134.3,130.1 135.2,129.7 136.1,126.7 137.0,126.0 137.9,125.6 138.8,126.9 139.7,126.3 140.6,124.5 141.5,123.0 142.4,123.6 143.3,121.7 144.2,120.6 145.1,121.9 146.0,121.9 146.9,117.6 147.8,120.6 148.7,119.5 149.6,118.6 150.5,118.2 151.5,118.8 152.4,117.6 153.3,116.5 154.2,116.3 155.1,115.1 156.0,115.7 156.9,113.9 157.8,114.8 158.7,112.6 159.6,113.1 160.5,115.4 161.4,115.9 162.3,112.6 163.3,114.5 164.2,114.3 165.1,111.3 166.0,110.8 166.9,109.9 167.8,110.9 168.7,112.1 169.6,109.7 170.5,110.7 171.4,109.0 172.3,109.0 173.2,109.3 174.1,110.3 175.0,112.2 175.9,108.0 176.8,107.0 177.7,107.3 178.6,106.9 179.5,107.9 180.4,106.8 181.4,103.9 182.3,106.5 183.2,105.8 184.1,107.1 185.0,106.5 185.9,105.7 186.8,106.8 187.7,103.3 188.6,102.6 189.5,105.3 190.4,104.9 191.3,106.5 192.2,104.2 193.1,101.9 194.0,102.4 194.9,101.7 195.9,100.7 196.8,100.9 197.7,103.2 198.6,102.3 199.5,101.7 200.4,101.2 201.3,99.0 202.2,96.1 203.1,99.5 204.0,98.6 204.9,99.2 205.8,98.1 206.7,98.8 207.6,96.7 208.5,98.5 209.5,97.2 210.4,99.0 211.3,97.0 212.2,94.6 213.1,96.3 214.0,97.5 214.9,95.3 215.8,93.1 216.7,95.1 217.6,91.4 218.5,96.0 219.4,94.4 220.3,94.7 221.2,93.2 222.1,95.1 223.0,94.3 224.0,94.7 224.9,91.4 225.8,92.8 226.7,92.1 227.6,92.5 228.5,91.3 229.4,92.0 230.3,90.8 231.2,90.5 232.1,90.2 233.0,89.1 233.9,89.4 234.8,90.1 235.7,88.7 236.6,87.9 237.5,91.3 238.4,87.8 239.3,86.3 240.2,87.0 241.2,87.4 242.1,89.1 243.0,87.1 243.9,87.2 244.8,87.9 245.7,87.8 246.6,87.2 247.5,81.6 248.4,86.4 249.3,83.7 250.2,83.4 251.1,82.9 252.0,84.6 252.9,84.0 253.8,86.2 254.7,83.8 255.6,83.0 256.5,82.0 257.5,81.5 258.4,83.5 259.3,81.6 260.2,79.4 261.1,82.8 262.0,83.2 262.9,82.1 263.8,81.3 264.7,81.4 265.6,81.1 266.5,81.8 267.4,81.2 268.3,80.3 269.2,80.9 270.1,79.5 271.0,79.3 272.0,80.0 272.9,79.2 273.8,79.6 274.7,79.5 275.6,79.0 276.5,77.9 277.4,76.4 278.3,77.0 279.2,76.5 280.1,74.9 281.0,74.7 281.9,76.9 282.8,79.3 283.7,76.8 284.6,76.8 285.5,76.3 286.4,75.5 287.3,73.8 288.2,76.3 289.1,76.7 290.0,77.7 290.9,77.7 291.8,76.7 292.7,79.1 293.6,75.4 294.5,75.5 295.4,75.9 296.3,75.4 297.2,74.7 298.1,75.5 299.0,73.3 299.9,70.4 300.8,72.3 301.7,74.2 302.6,75.0 303.5,70.9 304.5,73.2 305.4,74.0 306.3,72.8 307.2,74.2 308.1,74.0 309.0,73.4 309.9,74.0 310.8,76.8 311.7,73.6 312.6,72.6 313.5,72.1 314.4,71.5 315.3,73.4 316.2,73.1 317.1,72.9 318.0,71.3 318.9,72.5 319.8,71.0 320.7,73.5 321.6,71.5 322.5,72.2 323.4,73.4 324.3,70.8 325.2,69.9 326.1,72.4 327.0,71.9 327.9,70.6 328.8,68.9 329.8,69.6 330.7,71.2 331.6,69.4 332.5,69.4 333.4,70.8 334.3,70.6 335.2,69.9 336.1,69.5 337.0,68.0 337.9,68.8 338.8,69.2 339.7,70.1 340.6,69.4 341.5,68.7 342.4,68.2 343.4,68.2 344.3,68.6 345.2,68.4 346.1,69.0 347.0,68.5 347.9,67.2 348.8,67.7 349.7,68.2 350.6,67.1 351.5,67.3 352.4,66.4 353.3,67.9 354.2,67.5 355.1,67.3 356.0,66.2 356.9,68.7 357.8,70.7 358.8,70.1 359.7,66.6 360.6,66.8 361.5,66.3 362.4,64.6 363.3,67.4 364.2,68.1 365.1,67.4 366.0,66.4 366.9,67.4 367.8,69.3 368.7,69.6 369.6,67.6 370.5,67.1 371.4,65.9 372.3,66.1 373.2,67.2 374.1,66.7 375.0,67.9 375.9,67.2 376.9,67.0 377.8,64.9 378.7,63.5 379.6,67.1 380.5,65.1 381.4,65.2 382.3,65.6 383.2,66.3 384.1,66.2 385.0,67.0 385.9,66.4 386.8,63.3 387.8,65.3 388.7,64.3 389.6,63.4 390.5,63.4 391.4,65.0 392.3,63.8 393.2,62.3 394.1,63.9 395.0,65.3 395.9,67.4 396.8,66.8 397.7,63.6 398.6,63.2 399.5,62.6 400.4,63.6 401.3,65.5 402.2,64.4 403.1,64.3 404.1,61.7 405.0,63.2 405.9,65.5 406.8,61.8 407.7,63.2 408.6,62.5 409.5,61.5 410.4,64.0 411.3,65.7 412.2,65.2 413.1,62.5 414.0,60.8 414.9,62.5 415.8,62.8 416.7,62.7 417.6,64.0 418.5,65.3 419.4,62.3 420.3,62.2 421.2,63.8 422.1,62.5 423.1,63.8 424.0,64.9 424.9,62.4 425.8,61.5 426.7,62.5 427.6,61.1 428.5,62.5 429.4,61.7 430.3,60.1 431.2,62.1 432.1,61.2 433.0,62.3 433.9,61.0 434.8,62.2 435.7,62.5 436.6,63.4 437.5,63.5 438.4,64.4 439.3,62.0 440.2,63.7 441.1,63.7 442.0,61.5 442.9,60.9 443.8,60.7 444.7,61.3 445.6,60.4 446.5,60.6 447.5,63.6 448.4,61.9 449.3,62.8 450.2,62.0 451.1,61.3 452.0,62.9 452.9,61.6 453.8,62.8 454.7,63.1 455.6,61.3 456.5,63.9 457.4,61.3 458.3,59.6 459.2,61.4 460.1,58.7 461.0,59.4 461.9,59.4 462.8,59.5 463.7,63.0 464.6,61.2 465.5,58.9 466.4,58.7 467.3,60.0 468.2,59.4 469.1,60.8 470.0,60.0 470.9,58.8 471.8,58.5 472.7,61.0 473.6,63.6 474.5,60.6 475.4,55.8 476.3,62.9 477.2,56.6 478.2,57.2 479.1,59.1 480.0,56.0 480.9,62.6 481.8,59.7 482.7,59.4 483.6,60.6 484.5,59.1 485.4,62.5 486.3,59.8 487.2,58.5 488.1,58.4 489.0,60.5 489.9,58.0 490.8,57.8 491.7,60.8 492.6,58.6 493.5,56.3 494.4,59.2 495.3,61.0 496.2,57.7 497.1,57.0 498.1,61.1 499.0,58.3 499.9,59.0 500.8,62.6 501.7,59.4 502.6,42.8 503.5,60.5 504.4,61.3 505.3,55.0 506.2,51.0 507.1,57.4 508.0,53.5 508.9,60.2 509.8,59.0 510.7,59.8 511.6,59.4 512.5,58.6 513.4,58.8 514.3,57.8 515.3,57.4 516.2,58.1 517.1,60.6 518.0,58.7 518.9,62.8 519.8,61.2 520.7,60.5 521.6,58.3 522.5,57.1 523.4,59.9 524.3,61.1 525.2,58.2 526.1,58.7 527.0,59.6 527.9,59.6 528.8,55.8 529.7,57.0 530.6,57.4 531.5,58.4 532.4,59.0 533.4,58.8 534.3,59.9 535.2,58.9 536.1,54.6 537.0,56.8 537.9,55.7 538.8,54.6 539.7,58.2 540.6,54.6 541.5,55.3 542.4,54.8 543.3,55.7 544.2,56.2 545.1,58.1 546.0,58.0 546.9,57.5 547.8,57.3 548.7,57.4 549.6,55.6 550.5,54.4 551.4,58.2 552.3,56.9 553.2,58.9 554.2,56.2 555.1,58.0 556.0,54.6 556.9,57.0 557.8,57.9 558.7,58.6 559.6,56.1 560.5,55.0 561.4,54.5 562.3,57.5 563.2,56.8 564.1,56.7 565.0,56.1 565.9,57.4 566.8,55.5 567.7,57.1 568.6,56.5 569.5,56.3 570.4,58.9 571.3,56.7 572.2,53.5 573.1,52.9 574.0,54.7 574.9,53.9 575.8,53.9 576.7,54.9 577.6,56.6 578.5,56.4 579.4,54.6 580.3,56.0 581.2,54.3 582.1,54.6 583.1,55.1 584.1,54.8 585.0,54.0 585.9,56.2 586.8,54.5 587.7,54.2 588.6,55.9 589.5,51.2 590.4,54.7 591.3,54.6 592.2,55.6 593.1,56.0 594.0,56.3 594.9,58.3 595.8,55.8 596.7,56.1 597.6,57.1 598.5,51.9 599.5,52.8 600.4,53.8 601.3,55.6 602.2,55.8 603.1,55.9 604.0,55.5 604.9,52.2 605.8,52.0 606.7,53.7 607.6,56.4 608.5,57.0 609.4,52.2 610.3,51.2 611.2,52.9 612.1,54.9 613.0,52.8 613.9,54.4 614.8,52.8 615.7,53.1 616.6,55.0 617.5,56.1 618.4,53.3 619.3,52.0 620.2,54.0 621.1,54.2 622.0,53.2 622.9,55.4 623.8,54.0 624.7,55.0 625.6,56.2 626.5,56.0 627.4,54.7 628.4,55.0 629.3,52.0 630.2,51.1 631.1,54.1 632.0,54.0 632.9,52.8 633.8,54.1 634.7,54.1 635.6,53.1 636.5,52.5 637.4,51.9 638.3,55.0 639.2,54.7 640.1,52.3 641.0,52.4 641.9,53.2 642.8,51.1 643.7,54.5 644.6,53.9 645.5,54.2 646.4,55.1 647.4,55.2 648.3,56.3 649.2,53.1 650.1,49.8 651.0,52.1 651.9,53.7 652.8,52.2 653.7,52.8 654.6,51.6 655.5,52.4 656.4,52.7 657.3,52.5 658.2,52.7 659.1,53.6 660.0,53.5 660.9,52.6 661.8,53.7 662.8,53.3 663.6,52.5 664.5,53.9 665.5,53.3 666.4,53.5 667.3,54.5 668.2,51.2 669.1,51.0 670.0,51.3 670.9,52.6 671.8,53.0 672.7,50.3 673.6,51.5 674.5,52.3" fill="none" stroke="#2563eb" stroke-width="2.5"/>
<rect x="65" y="20" width="610" height="330" fill="none" stroke="#888" stroke-width="1.5"/>
<line x1="62" y1="308.5" x2="65" y2="308.5" stroke="#64748b" stroke-width="1" opacity="0.6"/>
<line x1="62" y1="260.0" x2="65" y2="260.0" stroke="#64748b" stroke-width="1" opacity="0.6"/>
<line x1="62" y1="199.0" x2="65" y2="199.0" stroke="#64748b" stroke-width="1" opacity="0.6"/>
<line x1="60" y1="116.3" x2="65" y2="116.3" stroke="#64748b" stroke-width="1.5"/>
<text x="57" y="116.3" text-anchor="end" dominant-baseline="middle" font-size="11" font-family="monospace,sans-serif" fill="#64748b">10</text>
<line x1="62" y1="33.5" x2="65" y2="33.5" stroke="#64748b" stroke-width="1" opacity="0.6"/>
<line x1="675" y1="296.3" x2="680" y2="296.3" stroke="#2563eb" stroke-width="1.5"/>
<text x="683" y="296.3" text-anchor="start" dominant-baseline="middle" font-size="11" font-family="monospace,sans-serif" fill="#2563eb">0.0</text>
<line x1="675" y1="225.6" x2="680" y2="225.6" stroke="#2563eb" stroke-width="1.5"/>
<text x="683" y="225.6" text-anchor="start" dominant-baseline="middle" font-size="11" font-family="monospace,sans-serif" fill="#2563eb">1.0</text>
<line x1="675" y1="154.9" x2="680" y2="154.9" stroke="#2563eb" stroke-width="1.5"/>
<text x="683" y="154.9" text-anchor="start" dominant-baseline="middle" font-size="11" font-family="monospace,sans-serif" fill="#2563eb">2.0</text>
<line x1="675" y1="84.2" x2="680" y2="84.2" stroke="#2563eb" stroke-width="1.5"/>
<text x="683" y="84.2" text-anchor="start" dominant-baseline="middle" font-size="11" font-family="monospace,sans-serif" fill="#2563eb">3.0</text>
<line x1="65.0" y1="350" x2="65.0" y2="355" stroke="#888" stroke-width="1.5"/>
<text x="65.0" y="368" text-anchor="middle" font-size="11" font-family="monospace,sans-serif">0</text>
<line x1="187.1" y1="350" x2="187.1" y2="355" stroke="#888" stroke-width="1.5"/>
<text x="187.1" y="368" text-anchor="middle" font-size="11" font-family="monospace,sans-serif">2</text>
<line x1="309.2" y1="350" x2="309.2" y2="355" stroke="#888" stroke-width="1.5"/>
<text x="309.2" y="368" text-anchor="middle" font-size="11" font-family="monospace,sans-serif">4</text>
<line x1="431.3" y1="350" x2="431.3" y2="355" stroke="#888" stroke-width="1.5"/>
<text x="431.3" y="368" text-anchor="middle" font-size="11" font-family="monospace,sans-serif">6</text>
<line x1="553.3" y1="350" x2="553.3" y2="355" stroke="#888" stroke-width="1.5"/>
<text x="553.3" y="368" text-anchor="middle" font-size="11" font-family="monospace,sans-serif">8</text>
<line x1="675.4" y1="350" x2="675.4" y2="355" stroke="#888" stroke-width="1.5"/>
<text x="675.4" y="368" text-anchor="middle" font-size="11" font-family="monospace,sans-serif">10</text>
<text x="370" y="392" text-anchor="middle" font-size="13" font-family="sans-serif">Runtime (minutes)</text>
<text transform="rotate(-90,28,185)" x="28" y="185" text-anchor="middle" font-size="13" font-family="sans-serif" fill="#64748b">Train loss (log scale)</text>
<text transform="rotate(90,746,185)" x="746" y="185" text-anchor="middle" font-size="13" font-family="sans-serif" fill="#2563eb">Train loss diff (exp − base)</text>
<rect x="72" y="26" width="140" height="62" fill="white" fill-opacity="0.85" stroke="#ddd" stroke-width="1" rx="3"/>
<line x1="77" y1="37" x2="99" y2="37" stroke="#64748b" stroke-width="1.5" stroke-dasharray="5,3"/>
<text x="104" y="41" font-size="11" font-family="sans-serif" fill="#64748b">Baseline train loss</text>
<line x1="77" y1="55" x2="99" y2="55" stroke="#16a34a" stroke-width="1.5"/>
<text x="104" y="59" font-size="11" font-family="sans-serif" fill="#16a34a">Experiment train loss</text>
<line x1="77" y1="73" x2="99" y2="73" stroke="#2563eb" stroke-width="2.5"/>
<text x="104" y="77" font-size="11" font-family="sans-serif" fill="#2563eb">Train loss diff</text>
</svg>