<svg xmlns="http://www.w3.org/2000/svg" viewBox="0 0 760 400" width="760" height="400" style="background:white">
<rect x="65" y="20" width="610" height="330" fill="#f9f9f9"/>
<line x1="65" y1="308.5" x2="675" y2="308.5" stroke="#ececec" stroke-width="1"/>
<line x1="65" y1="260.0" x2="675" y2="260.0" stroke="#ececec" stroke-width="1"/>
<line x1="65" y1="199.0" x2="675" y2="199.0" stroke="#ececec" stroke-width="1"/>
<line x1="65" y1="116.3" x2="675" y2="116.3" stroke="#ddd" stroke-width="1"/>
<line x1="65" y1="33.5" x2="675" y2="33.5" stroke="#ececec" stroke-width="1"/>
<line x1="65.0" y1="20" x2="65.0" y2="350" stroke="#ececec" stroke-width="1"/>
<line x1="187.1" y1="20" x2="187.1" y2="350" stroke="#ececec" stroke-width="1"/>
<line x1="309.3" y1="20" x2="309.3" y2="350" stroke="#ececec" stroke-width="1"/>
<line x1="431.4" y1="20" x2="431.4" y2="350" stroke="#ececec" stroke-width="1"/>
<line x1="553.6" y1="20" x2="553.6" y2="350" stroke="#ececec" stroke-width="1"/>
<line x1="675.7" y1="20" x2="675.7" y2="350" stroke="#ececec" stroke-width="1"/>
<line x1="65" y1="328.6" x2="675" y2="328.6" stroke="#2563eb" stroke-width="0.75" stroke-dasharray="3,3" opacity="0.4"/>
<polyline points="65.0,119.8 65.7,52.7 66.4,85.4 67.2,143.1 67.9,161.7 68.6,155.9 69.3,156.3 70.1,160.5 70.8,165.4 71.5,169.2 72.2,173.0 72.9,174.1 73.7,175.4 74.4,177.2 75.1,179.4 75.9,182.9 76.6,182.6 77.3,184.4 78.1,185.3 78.8,187.9 79.5,183.4 80.3,190.6 81.0,195.3 81.7,195.4 82.5,197.5 83.2,199.1 83.9,201.0 84.7,202.6 85.4,203.9 86.1,205.5 86.9,207.3 87.6,206.5 88.3,208.8 89.1,210.2 89.8,209.9 90.5,211.2 91.3,211.7 92.0,213.6 92.7,213.0 93.5,211.6 94.2,215.0 94.9,216.3 95.7,215.9 96.4,216.4 97.2,218.2 97.9,216.4 98.6,215.7 99.3,216.3 100.1,217.6 100.8,217.9 101.5,220.5 102.3,218.4 103.0,221.0 103.7,216.1 104.5,223.2 105.2,221.9 105.9,224.2 106.7,223.4 107.4,223.2 108.1,225.6 108.9,224.9 109.6,226.2 110.3,225.8 111.1,228.0 111.8,229.5 112.6,228.1 113.3,229.9 114.0,229.6 114.7,229.6 115.5,228.9 116.2,231.5 116.9,228.9 117.7,229.7 118.4,231.5 119.1,231.5 119.9,233.3 120.6,232.0 121.4,234.0 122.1,232.7 122.8,236.1 123.6,235.2 124.3,234.4 125.0,234.6 125.8,233.6 126.5,232.0 127.2,230.8 128.0,235.6 128.7,233.4 129.5,235.9 130.2,236.0 130.9,235.3 131.7,234.7 132.4,232.1 133.1,234.5 133.9,236.5 134.6,236.2 135.3,237.5 136.1,235.4 136.8,239.0 137.5,233.1 138.3,238.7 139.0,238.8 139.8,238.1 140.5,239.0 141.2,240.5 142.0,239.5 142.7,239.8 143.4,241.3 144.2,240.6 144.9,241.0 145.6,236.4 146.4,241.3 147.1,241.1 147.9,242.2 148.6,241.8 149.3,241.0 150.1,244.4 150.8,239.8 151.5,240.6 152.3,242.8 153.0,242.2 153.8,244.3 154.5,242.3 155.2,238.8 156.0,245.0 156.7,243.3 157.4,243.1 158.2,243.9 158.9,244.6 159.7,244.0 160.4,245.5 161.1,244.2 161.9,245.5 162.6,246.0 163.3,241.8 164.1,246.5 164.8,246.6 165.6,245.1 166.3,247.4 167.0,247.2 167.8,246.3 168.5,247.1 169.2,246.4 170.0,244.9 170.7,248.1 171.5,246.2 172.2,248.8 172.9,246.1 173.7,247.4 174.4,245.7 175.1,247.1 175.9,247.5 176.6,245.5 177.3,249.1 178.1,248.2 178.8,248.1 179.6,247.3 180.3,246.2 181.0,247.8 181.8,248.0 182.5,250.2 183.2,247.2 184.0,248.8 184.7,246.6 185.5,243.3 186.2,247.7 186.9,248.8 187.7,249.7 188.4,248.0 189.2,247.2 189.9,246.4 190.6,248.4 191.4,248.0 192.1,249.3 192.8,247.3 193.6,249.0 194.3,249.4 195.0,250.6 195.8,250.2 196.5,248.7 197.3,250.5 198.0,240.0 198.7,248.8 199.5,250.7 200.2,251.8 201.0,246.5 201.7,252.7 202.4,250.3 203.2,252.9 203.9,250.6 204.6,252.3 205.4,250.1 206.1,252.6 206.8,251.4 207.6,251.6 208.3,251.9 209.1,250.9 209.8,252.5 210.5,253.6 211.3,252.8 212.0,251.7 212.8,251.3 213.5,255.2 214.2,254.8 215.0,248.8 215.7,252.1 216.5,254.0 217.2,253.9 217.9,254.9 218.7,258.1 219.4,256.3 220.1,255.7 220.9,255.1 221.6,254.5 222.4,254.8 223.1,255.2 223.8,254.4 224.6,255.3 225.3,257.0 226.0,257.0 226.8,258.2 227.5,257.4 228.3,257.5 229.0,257.2 229.7,259.1 230.5,259.2 231.2,258.0 232.0,260.6 232.7,258.7 233.4,260.1 234.2,259.0 234.9,260.3 235.6,259.9 236.4,261.2 237.1,260.1 237.8,262.0 238.6,262.1 239.3,259.5 240.1,244.4 240.8,260.8 241.5,257.8 242.3,257.5 243.0,260.7 243.7,264.4 244.5,257.7 245.2,257.9 246.0,260.4 246.7,260.1 247.4,259.8 248.2,261.3 248.9,262.3 249.6,260.4 250.4,261.6 251.1,260.3 251.9,259.6 252.6,263.2 253.3,261.6 254.1,260.1 254.8,260.7 255.5,264.0 256.3,263.3 257.0,262.9 257.7,261.4 258.5,264.1 259.2,262.7 259.9,263.8 260.7,261.5 261.4,262.5 262.2,261.4 262.9,259.0 263.6,259.5 264.4,262.0 265.1,264.0 265.8,261.6 266.6,258.9 267.3,262.2 268.1,262.2 268.8,261.9 269.5,261.5 270.3,260.3 271.0,264.5 271.7,264.6 272.5,258.7 273.2,254.7 273.9,255.7 274.7,260.8 275.4,262.0 276.2,263.4 276.9,259.3 277.6,261.9 278.4,263.4 279.1,265.7 279.8,262.5 280.6,260.2 281.3,262.3 282.1,263.6 282.8,262.4 283.5,262.0 284.3,259.0 285.0,263.3 285.7,262.5 286.5,262.8 287.2,263.2 287.9,262.9 288.7,268.3 289.4,263.3 290.2,263.3 290.9,264.3 291.7,265.5 292.4,263.1 293.1,263.1 293.9,262.9 294.6,260.9 295.3,268.0 296.1,266.2 296.8,263.6 297.6,263.3 298.3,266.8 299.0,266.5 299.8,263.4 300.5,264.6 301.3,263.9 302.0,263.0 302.7,266.0 303.5,266.6 304.2,265.9 304.9,266.2 305.7,264.5 306.4,266.9 307.1,266.5 307.9,267.8 308.6,267.3 309.3,266.6 310.1,264.8 310.8,264.8 311.6,265.7 312.3,267.6 313.0,268.6 313.8,268.4 314.5,269.6 315.3,266.7 316.0,266.4 316.7,264.1 317.5,267.2 318.2,268.5 318.9,267.1 319.7,264.7 320.4,267.2 321.2,272.0 321.9,269.2 322.6,267.2 323.4,266.8 324.1,267.8 324.9,268.5 325.6,269.5 326.3,267.1 327.1,268.4 327.8,267.2 328.5,271.3 329.3,266.2 330.0,267.9 330.7,268.3 331.5,268.8 332.2,268.6 332.9,269.2 333.7,272.0 334.4,266.2 335.2,269.5 335.9,265.3 336.6,266.1 337.4,263.6 338.1,267.2 338.9,267.9 339.6,266.1 340.3,267.3 341.1,269.8 341.8,267.3 342.6,265.1 343.3,272.1 344.0,251.6 344.8,262.1 345.5,260.5 346.2,275.1 347.0,264.9 347.7,269.8 348.5,265.1 349.2,266.7 349.9,268.6 350.7,267.2 351.4,265.8 352.1,266.0 352.9,267.9 353.6,267.1 354.3,267.6 355.1,267.2 355.8,267.7 356.6,266.3 357.3,274.1 358.0,268.6 358.8,266.3 359.5,267.1 360.3,267.6 361.0,266.1 361.7,267.6 362.5,268.9 363.2,266.8 363.9,267.7 364.7,268.2 365.4,270.2 366.1,267.5 366.9,270.8 367.6,267.9 368.4,267.0 369.1,265.9 369.8,268.4 370.6,277.4 371.3,269.7 372.0,265.5 372.8,267.6 373.5,265.7 374.3,265.4 375.0,267.5 375.7,266.6 376.4,270.2 377.2,268.7 377.9,269.0 378.7,267.6 379.4,269.5 380.1,273.2 380.9,279.5 381.6,270.0 382.4,269.6 383.1,269.3 383.8,269.6 384.6,272.7 385.3,270.3 386.1,268.3 386.8,272.7 387.5,270.7 388.3,273.3 389.0,268.6 389.7,271.4 390.5,270.0 391.2,270.2 391.9,270.5 392.7,272.7 393.4,268.8 394.2,265.9 394.9,270.9 395.6,273.7 396.4,269.4 397.1,272.0 397.9,272.6 398.6,269.7 399.3,271.8 400.0,273.2 400.8,271.2 401.5,270.1 402.3,273.8 403.0,270.9 403.7,273.0 404.5,274.1 405.2,270.7 405.9,272.4 406.7,271.0 407.4,273.8 408.2,274.0 408.9,270.9 409.6,267.2 410.4,268.8 411.1,269.2 411.9,270.4 412.6,270.7 413.3,270.3 414.1,269.7 414.8,268.3 415.6,268.7 416.3,269.6 417.0,271.5 417.8,269.3 418.5,266.8 419.2,270.3 420.0,269.8 420.7,269.3 421.4,268.6 422.2,269.2 422.9,272.8 423.7,265.8 424.4,272.7 425.1,267.7 425.9,273.7 426.6,271.9 427.4,270.9 428.1,269.3 428.8,270.0 429.6,275.4 430.3,271.9 431.1,270.4 431.8,271.7 432.5,270.3 433.3,270.1 434.0,266.5 434.7,272.1 435.5,268.7 436.2,268.8 436.9,269.5 437.7,271.6 438.4,269.8 439.2,272.0 439.9,272.8 440.6,271.9 441.4,267.8 442.1,270.8 442.8,269.0 443.6,271.6 444.3,266.6 445.0,268.9 445.8,269.4 446.5,271.2 447.2,272.4 448.0,272.6 448.7,266.4 449.5,268.4 450.2,270.6 450.9,268.3 451.7,269.7 452.4,270.5 453.1,271.3 453.9,271.2 454.6,272.2 455.4,271.2 456.1,269.9 456.8,270.5 457.6,269.8 458.3,272.7 459.0,273.1 459.8,275.3 460.5,271.2 461.3,272.5 462.0,272.8 462.7,276.0 463.5,274.0 464.2,273.0 464.9,276.6 465.7,273.5 466.4,272.7 467.2,275.0 467.9,274.3 468.6,273.8 469.4,272.5 470.1,276.1 470.8,275.6 471.6,270.5 472.3,278.0 473.0,276.1 473.8,275.1 474.5,274.1 475.3,275.2 476.0,276.6 476.7,273.6 477.5,275.0 478.2,273.3 479.0,273.1 479.7,272.6 480.4,269.2 481.2,267.8 481.9,272.3 482.6,270.9 483.4,273.4 484.1,271.0 484.8,270.3 485.6,271.5 486.3,271.4 487.0,271.9 487.8,279.3 488.5,274.7 489.3,272.6 490.0,274.4 490.7,273.8 491.5,278.7 492.2,258.4 492.9,271.8 493.7,272.6 494.4,276.6 495.1,272.8 495.9,274.0 496.6,274.3 497.4,273.5 498.1,276.4 498.8,274.5 499.6,272.5 500.3,272.2 501.0,271.4 501.8,271.3 502.5,271.4 503.2,271.4 504.0,271.8 504.7,271.3 505.5,272.1 506.2,272.6 506.9,274.3 507.7,274.1 508.4,273.8 509.1,273.3 509.9,269.4 510.6,270.8 511.3,272.6 512.1,272.9 512.8,275.9 513.5,273.4 514.3,270.3 515.0,272.4 515.8,272.6 516.5,270.9 517.2,272.9 518.0,275.7 518.7,274.1 519.4,272.7 520.2,276.0 520.9,276.4 521.7,272.8 522.4,267.7 523.1,276.9 523.9,275.3 524.6,274.4 525.3,276.0 526.1,278.2 526.8,275.6 527.6,274.6 528.3,277.0 529.0,273.0 529.8,277.3 530.5,281.3 531.2,274.9 532.0,274.8 532.7,277.9 533.5,274.4 534.2,276.6 534.9,275.9 535.7,276.2 536.4,276.5 537.1,274.5 537.9,272.7 538.6,277.3 539.4,275.1 540.1,277.9 540.8,279.8 541.6,275.7 542.3,276.6 543.0,276.6 543.8,275.5 544.5,277.6 545.2,278.1 546.0,274.1 546.7,275.6 547.5,276.7 548.2,270.1 548.9,274.0 549.7,275.2 550.4,272.7 551.1,275.4 551.9,275.6 552.6,275.6 553.4,274.8 554.1,276.2 554.8,271.5 555.6,272.5 556.3,265.9 557.0,274.9 557.8,273.8 558.5,275.8 559.2,276.9 560.0,279.1 560.7,273.6 561.5,276.7 562.2,273.2 562.9,272.3 563.7,271.3 564.4,272.7 565.2,275.1 565.9,275.9 566.6,280.3 567.4,276.8 568.1,274.6 568.8,275.5 569.6,260.9 570.3,276.9 571.0,276.4 571.8,274.0 572.5,274.9 573.3,275.8 574.0,275.8 574.7,276.3 575.5,275.4 576.2,278.3 576.9,271.3 577.7,275.9 578.4,276.4 579.2,279.1 579.9,283.6 580.6,279.9 581.4,277.5 582.1,277.8 582.8,275.4 583.6,276.0 584.3,276.5 585.0,277.2 585.8,276.3 586.5,275.6 587.3,274.3 588.0,279.9 588.7,277.1 589.5,273.7 590.2,270.0 590.9,274.0 591.7,276.9 592.4,278.1 593.1,279.0 593.9,276.1 594.6,273.8 595.4,281.4 596.1,270.3 596.8,278.2 597.6,275.5 598.3,279.5 599.1,276.5 599.8,276.2 600.5,276.6 601.3,275.1 602.0,273.2 602.7,275.3 603.5,277.2 604.2,286.5 605.0,278.8 605.7,274.6 606.4,276.1 607.2,274.3 607.9,272.3 608.6,275.9 609.4,277.5 610.1,275.1 610.9,278.5 611.6,278.1 612.3,276.3 613.1,277.7 613.8,278.4 614.6,278.1 615.3,273.8 616.0,275.3 616.8,276.8 617.5,279.0 618.3,275.3 619.0,287.6 619.7,274.6 620.5,277.9 621.2,274.8 621.9,271.4 622.7,281.9 623.4,274.8 624.2,276.4 624.9,273.2 625.6,276.1 626.4,277.5 627.1,275.6 627.9,274.0 628.6,274.0 629.3,273.0 630.1,275.5 630.8,276.9 631.6,276.2 632.3,278.3 633.0,281.9 633.8,279.1 634.5,278.7 635.2,276.7 636.0,278.3 636.7,278.5 637.4,277.2 638.2,277.3 638.9,275.2 639.6,276.3 640.4,276.4 641.1,277.7 641.8,278.0 642.6,276.2 643.3,279.2 644.1,278.6 644.8,281.1 645.5,280.1 646.3,279.2 647.0,274.3 647.7,280.3 648.5,281.9 649.2,292.1 650.0,280.0 650.7,278.3 651.4,277.4 652.2,278.2 652.9,281.5 653.6,279.4 654.4,279.0 655.1,277.7 655.9,282.5 656.6,278.6 657.3,281.7 658.1,278.3 658.8,278.7 659.5,277.4 660.3,278.6 661.0,278.8 661.8,278.2 662.5,281.6 663.2,276.4 664.0,278.2 664.7,277.5 665.4,282.3 666.2,279.1 666.9,280.0 667.6,282.8 668.4,279.9 669.1,280.2 669.8,277.4 670.6,281.5 671.3,280.2 672.1,280.6 672.8,278.8 673.5,277.9 674.3,276.0 675.0,282.3" fill="none" stroke="#64748b" stroke-width="1.5" stroke-dasharray="5,3"/>
<polyline points="65.0,119.6 65.9,52.7 66.8,89.8 67.6,134.9 68.5,131.5 69.4,153.0 70.3,160.7 71.2,164.1 72.1,168.0 73.0,169.0 73.8,170.9 74.7,173.8 75.6,175.6 76.5,174.2 77.4,177.8 78.3,179.7 79.2,179.8 80.1,180.7 81.0,181.3 81.9,181.0 82.8,181.0 83.7,181.7 84.6,184.1 85.5,183.0 86.4,185.4 87.3,182.9 88.2,174.3 89.1,175.5 90.0,176.0 90.9,172.9 91.8,175.6 92.7,175.3 93.6,175.7 94.5,175.9 95.4,175.8 96.4,176.2 97.3,176.0 98.2,175.7 99.1,175.9 100.0,176.0 100.9,176.0 101.8,176.7 102.7,176.3 103.6,176.2 104.5,176.3 105.4,176.5 106.3,176.5 107.2,176.5 108.1,176.4 109.0,176.7 109.9,176.6 110.8,176.6 111.7,176.4 112.6,176.7 113.5,176.4 114.4,176.4 115.3,176.7 116.2,176.6 117.1,176.7 118.0,176.8 118.9,176.6 119.8,176.8 120.7,176.6 121.7,176.6 122.6,176.6 123.5,176.6 124.4,176.8 125.3,176.6 126.2,176.6 127.1,176.7 128.0,176.2 128.9,176.8 129.8,176.8 130.7,176.5 131.6,176.4 132.5,176.6 133.4,176.6 134.3,176.4 135.2,176.6 136.1,176.4 137.0,176.6 137.9,176.3 138.8,176.6 139.7,176.6 140.7,176.8 141.6,176.6 142.5,176.6 143.4,176.5 144.3,176.4 145.2,176.3 146.1,176.9 147.0,176.6 147.9,176.8 148.8,176.5 149.7,176.8 150.6,176.6 151.5,176.7 152.4,176.5 153.3,176.3 154.2,176.7 155.1,176.5 156.0,176.4 156.9,176.4 157.8,176.7 158.7,176.0 159.7,176.8 160.6,176.7 161.5,176.6 162.4,176.4 163.3,176.7 164.2,176.8 165.1,176.4 166.0,176.6 166.9,176.5 167.8,176.5 168.7,176.6 169.6,176.6 170.5,176.8 171.4,176.6 172.3,176.6 173.3,176.4 174.2,176.6 175.1,176.8 176.0,176.8 176.9,176.7 177.8,176.3 178.7,176.5 179.6,176.4 180.5,176.7 181.4,176.7 182.3,176.6 183.2,176.5 184.1,176.5 185.0,176.7 185.9,176.5 186.8,176.8 187.8,176.5 188.7,176.3 189.6,176.5 190.5,176.8 191.4,176.8 192.3,176.6 193.2,176.3 194.1,176.5 195.0,176.6 195.9,176.6 196.8,176.6 197.7,176.7 198.6,176.5 199.5,176.6 200.5,176.7 201.4,176.5 202.3,175.8 203.2,176.6 204.1,176.4 205.0,176.6 205.9,176.6 206.8,176.6 207.7,176.5 208.6,176.6 209.5,176.5 210.4,176.5 211.3,176.6 212.2,176.5 213.1,176.5 214.1,176.5 215.0,176.6 215.9,176.7 216.8,176.2 217.7,176.2 218.6,176.7 219.5,176.6 220.4,176.5 221.3,176.3 222.2,176.7 223.1,176.5 224.0,176.6 224.9,176.5 225.8,176.5 226.7,176.5 227.7,176.5 228.6,176.7 229.5,176.4 230.4,176.5 231.3,176.4 232.2,176.6 233.1,176.4 234.0,176.4 234.9,176.5 235.8,176.3 236.7,176.5 237.6,176.8 238.5,176.6 239.4,176.3 240.3,176.6 241.2,176.5 242.1,176.7 243.1,176.7 244.0,176.6 244.9,176.7 245.8,176.7 246.7,176.7 247.6,176.3 248.5,176.8 249.4,176.4 250.3,176.3 251.2,176.7 252.1,176.6 253.0,176.6 253.9,177.0 254.8,176.3 255.7,176.7 256.6,176.5 257.5,176.3 258.5,176.5 259.4,176.5 260.3,176.5 261.2,176.7 262.1,176.6 263.0,176.5 263.9,176.4 264.8,176.6 265.7,176.4 266.6,176.8 267.5,176.4 268.4,176.6 269.3,176.6 270.2,176.5 271.1,176.6 272.0,176.7 273.0,176.7 273.9,176.7 274.8,176.6 275.7,176.3 276.6,176.5 277.5,176.4 278.4,176.3 279.3,176.4 280.2,176.6 281.1,176.1 282.0,176.7 282.9,176.8 283.8,176.4 284.7,176.8 285.6,176.5 286.5,176.7 287.4,176.5 288.3,176.6 289.2,176.7 290.1,176.7 291.0,176.8 291.9,176.7 292.8,176.6 293.7,176.5 294.6,176.7 295.5,176.6 296.4,176.7 297.3,176.6 298.2,176.6 299.1,176.5 300.0,176.4 300.9,176.7 301.8,176.4 302.8,176.8 303.7,176.3 304.6,176.7 305.5,176.7 306.4,176.5 307.3,176.5 308.2,176.6 309.1,176.4 310.0,176.5 310.9,176.8 311.8,176.5 312.7,176.6 313.6,176.3 314.5,176.2 315.4,176.7 316.3,176.5 317.2,176.7 318.1,176.6 319.0,176.4 319.9,176.5 320.8,176.7 321.7,176.5 322.6,176.6 323.5,176.8 324.4,176.4 325.3,176.5 326.2,176.6 327.2,176.1 328.1,176.4 329.0,176.5 329.9,176.8 330.8,176.6 331.7,176.4 332.6,176.5 333.5,176.6 334.4,176.7 335.3,176.5 336.2,176.5 337.1,176.3 338.1,176.7 339.0,176.6 339.9,176.7 340.8,176.6 341.7,176.7 342.6,176.5 343.5,176.6 344.4,176.6 345.3,176.4 346.2,176.5 347.1,176.8 348.0,176.7 348.9,176.6 349.8,177.0 350.7,176.8 351.6,176.7 352.6,176.4 353.5,176.4 354.4,176.4 355.3,176.7 356.2,176.4 357.1,176.7 358.0,176.9 358.9,176.8 359.8,176.2 360.7,176.7 361.6,176.7 362.5,176.3 363.4,176.7 364.3,176.5 365.2,176.6 366.1,176.6 367.0,176.7 368.0,176.7 368.9,176.7 369.8,176.7 370.7,177.0 371.6,176.6 372.5,176.7 373.4,176.9 374.3,176.4 375.2,176.8 376.1,176.6 377.0,176.6 377.9,176.5 378.8,175.9 379.7,176.5 380.6,176.4 381.6,176.7 382.5,176.6 383.4,176.5 384.3,176.7 385.2,176.9 386.1,176.8 387.0,176.5 387.9,176.8 388.8,176.5 389.7,176.6 390.6,176.7 391.5,176.7 392.4,176.6 393.3,176.4 394.2,176.6 395.1,176.8 396.1,176.6 397.0,176.6 397.9,176.5 398.8,176.7 399.7,176.6 400.6,176.3 401.5,176.7 402.4,176.5 403.3,177.0 404.2,176.6 405.1,176.6 406.0,176.6 406.9,176.1 407.8,176.7 408.7,176.7 409.7,176.8 410.6,176.6 411.5,176.5 412.4,176.7 413.3,176.5 414.2,176.5 415.1,176.8 416.0,176.5 416.9,176.4 417.8,176.7 418.7,176.8 419.6,176.3 420.5,176.6 421.4,176.6 422.3,176.3 423.2,176.7 424.1,176.7 425.0,176.6 425.9,176.5 426.8,176.3 427.7,176.5 428.6,176.6 429.6,176.4 430.5,176.2 431.4,176.5 432.3,176.7 433.2,176.8 434.1,176.6 435.0,176.6 435.9,176.7 436.8,176.7 437.7,176.5 438.6,176.7 439.5,176.5 440.4,176.7 441.3,176.6 442.2,176.5 443.1,176.7 444.0,176.8 444.9,176.6 445.8,176.7 446.7,176.7 447.6,177.0 448.5,176.6 449.4,176.7 450.3,176.7 451.2,176.4 452.1,176.6 453.1,176.8 454.0,176.5 454.9,176.4 455.8,176.9 456.7,176.8 457.6,176.5 458.5,176.3 459.4,176.5 460.3,176.3 461.2,176.8 462.1,176.3 463.0,176.4 463.9,176.7 464.8,176.6 465.7,176.2 466.6,176.3 467.5,176.5 468.4,176.5 469.3,176.5 470.2,176.6 471.1,176.6 472.0,176.4 472.9,176.7 473.8,176.6 474.7,176.8 475.6,176.1 476.5,176.6 477.4,176.3 478.3,176.5 479.3,176.4 480.2,176.5 481.1,176.6 482.0,176.8 482.9,176.6 483.8,176.5 484.7,176.6 485.6,176.6 486.5,176.4 487.4,176.6 488.3,176.5 489.2,176.6 490.1,176.7 491.0,176.5 491.9,176.8 492.8,176.4 493.7,176.2 494.6,176.6 495.5,176.8 496.4,176.2 497.3,176.4 498.3,176.7 499.2,176.2 500.1,176.4 501.0,176.4 501.9,176.5 502.8,171.7 503.7,176.8 504.6,176.9 505.5,175.9 506.4,174.8 507.3,176.4 508.2,176.1 509.1,176.2 510.0,176.5 510.9,176.6 511.8,176.8 512.8,176.8 513.7,176.9 514.6,176.4 515.5,176.4 516.4,176.6 517.3,176.7 518.2,176.8 519.1,176.8 520.0,176.9 520.9,176.6 521.8,176.5 522.7,176.5 523.6,176.5 524.5,176.4 525.4,176.6 526.3,176.6 527.2,176.5 528.1,176.6 529.0,176.3 529.9,176.6 530.8,176.4 531.8,176.7 532.7,176.8 533.6,176.6 534.5,176.6 535.4,176.7 536.3,176.4 537.2,176.8 538.1,176.5 539.0,176.7 539.9,176.6 540.8,176.5 541.7,176.7 542.6,176.1 543.5,176.6 544.4,176.6 545.3,176.8 546.2,176.6 547.1,176.6 548.0,176.4 549.0,176.6 549.9,176.5 550.8,176.4 551.7,176.6 552.6,176.5 553.5,176.5 554.4,176.5 555.3,176.6 556.2,176.4 557.1,176.3 558.0,176.5 558.9,176.4 559.8,176.2 560.7,176.0 561.6,175.9 562.5,176.5 563.4,176.3 564.3,176.6 565.2,176.7 566.1,176.8 567.0,176.6 568.0,176.4 568.8,176.4 569.8,176.5 570.7,176.6 571.6,176.7 572.5,176.7 573.4,176.2 574.3,176.6 575.2,176.4 576.1,176.6 577.0,176.7 577.9,176.6 578.8,176.6 579.7,176.4 580.6,176.6 581.5,176.3 582.4,176.5 583.4,176.5 584.3,176.5 585.2,176.4 586.1,176.4 587.0,176.5 588.0,176.7 588.9,176.4 589.8,175.8 590.7,176.5 591.6,176.6 592.5,176.5 593.4,176.5 594.3,176.5 595.2,176.8 596.1,176.4 597.0,176.7 597.9,176.8 598.8,175.9 599.7,176.4 600.6,176.1 601.5,176.4 602.4,176.6 603.3,176.6 604.2,176.7 605.1,176.5 606.0,176.3 606.9,176.5 607.8,176.5 608.8,176.5 609.7,176.5 610.6,176.5 611.5,176.7 612.4,176.8 613.3,176.3 614.2,176.6 615.1,176.3 616.0,176.5 616.9,176.8 617.8,176.7 618.7,176.7 619.6,176.9 620.5,176.5 621.4,176.4 622.3,176.4 623.2,176.8 624.1,176.6 625.0,176.7 625.9,176.6 626.8,176.9 627.7,176.7 628.6,176.8 629.5,176.5 630.4,176.5 631.3,176.5 632.2,176.6 633.2,176.8 634.1,176.4 635.0,176.8 635.9,176.7 636.8,176.6 637.7,176.5 638.6,176.7 639.5,176.6 640.4,176.6 641.3,176.5 642.2,176.6 643.1,176.1 644.0,176.5 644.9,176.7 645.8,176.5 646.7,176.7 647.6,176.7 648.5,176.8 649.4,176.7 650.3,176.3 651.2,176.3 652.1,176.6 653.1,176.6 654.0,176.7 654.9,176.4 655.8,176.6 656.7,176.3 657.6,176.2 658.5,176.6 659.4,176.4 660.3,176.6 661.2,176.7 662.1,176.4 663.0,176.5 663.9,176.4 664.8,176.5 665.7,176.7 666.7,176.6 667.6,176.7 668.5,176.4 669.4,176.5 670.3,176.6 671.2,176.7 672.1,176.6 673.0,176.2 673.9,176.5 674.8,176.5" fill="none" stroke="#16a34a" stroke-width="1.5"/>
<polyline points="65.0,327.2 65.9,255.8 66.8,191.7 67.6,224.0 68.5,198.9 69.4,310.5 70.3,321.9 71.2,313.5 72.1,310.7 73.0,307.3 73.8,308.8 74.7,311.1 75.6,305.0 76.5,295.9 77.4,302.7 78.3,304.2 79.2,307.9 80.1,297.2 81.0,278.3 81.9,275.4 82.8,267.3 83.7,263.1 84.6,265.1 85.5,255.8 86.4,258.4 87.3,247.5 88.2,208.8 89.1,208.9 90.0,210.3 90.9,194.6 91.8,200.2 92.7,199.7 93.6,203.2 94.5,194.5 95.4,193.1 96.4,193.4 97.3,188.1 98.2,192.1 99.1,193.2 100.0,189.7 100.9,188.0 101.8,185.7 102.7,184.6 103.6,191.3 104.5,175.4 105.4,178.1 106.3,174.3 107.2,175.8 108.1,169.5 109.0,171.5 109.9,168.9 110.8,166.2 111.7,159.9 112.6,163.4 113.5,158.3 114.4,159.1 115.3,161.4 116.2,155.0 117.1,161.2 118.0,157.8 118.9,154.9 119.8,151.3 120.7,152.8 121.7,149.8 122.6,146.8 123.5,145.5 124.4,148.5 125.3,148.1 126.2,152.0 127.1,156.1 128.0,143.3 128.9,149.5 129.8,144.7 130.7,144.5 131.6,146.4 132.5,152.1 133.4,145.3 134.3,142.4 135.2,140.8 136.1,143.8 137.0,141.4 137.9,142.3 138.8,137.4 139.7,138.7 140.7,136.6 141.6,134.2 142.5,134.9 143.4,131.2 144.3,132.2 145.2,135.0 146.1,137.6 147.0,131.7 147.9,130.3 148.8,130.5 149.7,129.3 150.6,131.8 151.5,133.7 152.4,128.0 153.3,126.5 154.2,128.0 155.1,135.4 156.0,122.7 156.9,126.1 157.8,126.8 158.7,122.2 159.7,126.1 160.6,123.0 161.5,123.7 162.4,120.3 163.3,130.0 164.2,120.5 165.1,120.3 166.0,119.9 166.9,117.8 167.8,119.7 168.7,118.8 169.6,121.9 170.5,118.9 171.4,120.4 172.3,116.1 173.3,118.7 174.2,120.4 175.1,119.5 176.0,119.1 176.9,119.4 177.8,114.2 178.7,115.9 179.6,117.3 180.5,120.1 181.4,117.2 182.3,113.1 183.2,117.5 184.1,115.5 185.0,122.7 185.9,120.2 186.8,115.9 187.8,113.1 188.7,115.9 189.6,118.9 190.5,117.3 191.4,117.4 192.3,114.8 193.2,115.1 194.1,113.2 195.0,111.0 195.9,112.2 196.8,113.6 197.7,126.1 198.6,117.2 199.5,110.5 200.5,112.3 201.4,112.0 202.3,107.4 203.2,106.3 204.1,109.3 205.0,109.8 205.9,108.2 206.8,109.1 207.7,108.3 208.6,109.1 209.5,108.0 210.4,104.5 211.3,106.5 212.2,108.3 213.1,105.0 214.1,101.8 215.0,114.5 215.9,107.4 216.8,102.5 217.7,101.2 218.6,96.6 219.5,99.3 220.4,100.5 221.3,101.0 222.2,102.6 223.1,100.9 224.0,102.7 224.9,99.2 225.8,97.5 226.7,95.1 227.7,96.7 228.6,97.2 229.5,94.2 230.4,93.0 231.3,94.5 232.2,91.6 233.1,92.3 234.0,92.2 234.9,90.6 235.8,90.4 236.7,89.8 237.6,89.7 238.5,87.6 239.4,96.0 240.3,111.7 241.2,93.3 242.1,96.9 243.1,90.4 244.0,87.0 244.9,96.3 245.8,92.7 246.7,91.9 247.6,90.4 248.5,89.1 249.4,89.1 250.3,87.7 251.2,91.5 252.1,90.2 253.0,87.3 253.9,92.5 254.8,89.2 255.7,84.7 256.6,85.5 257.5,87.0 258.5,83.8 259.4,85.7 260.3,85.7 261.2,87.9 262.1,88.9 263.0,93.3 263.9,90.3 264.8,85.4 265.7,87.1 266.6,94.3 267.5,86.7 268.4,88.0 269.3,88.8 270.2,90.8 271.1,82.8 272.0,88.0 273.0,99.8 273.9,100.9 274.8,90.0 275.7,85.9 276.6,88.9 277.5,88.5 278.4,83.9 279.3,81.4 280.2,88.8 281.1,86.5 282.0,85.5 282.9,88.0 283.8,89.2 284.7,89.7 285.6,86.1 286.5,86.6 287.4,85.3 288.3,81.1 289.2,83.1 290.1,85.6 291.0,83.9 291.9,83.4 292.8,85.9 293.7,85.5 294.6,89.8 295.5,77.3 296.4,82.5 297.3,85.0 298.2,79.6 299.1,79.7 300.0,83.4 300.9,84.1 301.8,85.0 302.8,80.8 303.7,78.4 304.6,80.4 305.5,82.7 306.4,78.6 307.3,78.3 308.2,77.4 309.1,77.9 310.0,81.5 310.9,83.0 311.8,79.5 312.7,76.3 313.6,74.6 314.5,71.9 315.4,79.6 316.3,80.9 317.2,80.3 318.1,76.0 319.0,78.2 319.9,80.6 320.8,73.5 321.7,72.7 322.6,78.0 323.5,79.0 324.4,75.7 325.3,74.2 326.2,77.7 327.2,74.2 328.1,74.7 329.0,75.7 329.9,78.0 330.8,75.9 331.7,74.3 332.6,74.6 333.5,70.4 334.4,80.0 335.3,75.3 336.2,80.5 337.1,81.9 338.1,79.0 339.0,77.2 339.9,79.5 340.8,75.1 341.7,77.4 342.6,81.2 343.5,80.1 344.4,98.0 345.3,89.2 346.2,64.6 347.1,81.4 348.0,77.4 348.9,79.8 349.8,77.6 350.7,79.1 351.6,80.7 352.6,77.6 353.5,77.4 354.4,76.6 355.3,78.2 356.2,77.4 357.1,70.2 358.0,75.9 358.9,80.4 359.8,76.4 360.7,79.4 361.6,78.0 362.5,73.8 363.4,78.7 364.3,76.3 365.2,73.4 366.1,77.4 367.0,73.1 368.0,77.9 368.9,80.2 369.8,76.6 370.7,63.3 371.6,76.5 372.5,79.1 373.4,81.4 374.3,80.6 375.2,78.6 376.1,75.8 377.0,74.5 377.9,74.5 378.8,73.7 379.7,70.3 380.6,59.2 381.6,72.0 382.5,73.6 383.4,73.6 384.3,70.9 385.2,72.7 386.1,76.4 387.0,68.6 387.9,70.0 388.8,72.9 389.7,70.6 390.6,73.0 391.5,72.8 392.4,69.3 393.3,73.7 394.2,79.3 395.1,70.6 396.1,70.6 397.0,70.4 397.9,67.9 398.8,72.9 399.7,68.6 400.6,68.4 401.5,73.1 402.4,66.7 403.3,71.3 404.2,66.4 405.1,70.9 406.0,69.0 406.9,67.4 407.8,66.2 408.7,70.4 409.7,78.7 410.6,75.1 411.5,73.1 412.4,72.3 413.3,71.8 414.2,73.2 415.1,76.7 416.0,73.9 416.9,70.0 417.8,75.0 418.7,77.6 419.6,71.7 420.5,73.9 421.4,75.5 422.3,72.1 423.2,73.6 424.1,73.1 425.0,75.8 425.9,66.4 426.8,68.8 427.7,72.3 428.6,73.3 429.6,62.8 430.5,68.7 431.4,70.7 432.3,72.0 433.2,73.6 434.1,78.1 435.0,71.0 435.9,75.4 436.8,74.3 437.7,69.8 438.6,72.6 439.5,68.4 440.4,69.6 441.3,76.6 442.2,71.7 443.1,73.5 444.0,76.4 444.9,75.6 445.8,74.0 446.7,70.7 447.6,69.8 448.5,76.5 449.4,76.4 450.3,72.9 451.2,74.0 452.1,72.4 453.1,71.5 454.0,70.1 454.9,68.9 455.8,73.3 456.7,73.1 457.6,72.8 458.5,66.7 459.4,65.2 460.3,67.4 461.2,69.4 462.1,66.0 463.0,63.0 463.9,67.1 464.8,62.7 465.7,65.3 466.6,66.0 467.5,64.2 468.4,65.4 469.3,67.8 470.2,62.1 471.1,66.4 472.0,62.9 472.9,62.0 473.8,64.1 474.7,65.6 475.6,60.5 476.5,65.2 477.4,63.0 478.3,66.9 479.3,66.9 480.2,71.6 481.1,76.5 482.0,69.9 482.9,69.7 483.8,69.0 484.7,72.1 485.6,70.1 486.5,69.5 487.4,63.3 488.3,62.1 489.2,68.1 490.1,65.8 491.0,62.6 491.9,81.8 492.8,72.4 493.7,66.4 494.6,63.3 495.5,67.6 496.4,63.7 497.3,65.8 498.3,62.7 499.2,65.1 500.1,68.1 501.0,69.6 501.9,70.3 502.8,50.7 503.7,70.7 504.6,71.4 505.5,66.5 506.4,60.4 507.3,64.8 508.2,64.1 509.1,65.6 510.0,72.8 510.9,70.0 511.8,68.8 512.8,64.0 513.7,69.0 514.6,70.4 515.5,67.8 516.4,70.8 517.3,68.1 518.2,64.5 519.1,67.6 520.0,64.8 520.9,61.7 521.8,69.3 522.7,70.0 523.6,62.0 524.5,64.3 525.4,61.9 526.3,60.1 527.2,63.7 528.1,61.4 529.0,66.1 529.9,58.3 530.8,57.8 531.8,64.7 532.7,60.2 533.6,64.5 534.5,61.9 535.4,62.5 536.3,60.8 537.2,65.8 538.1,65.2 539.0,62.5 539.9,60.2 540.8,55.4 541.7,62.9 542.6,59.5 543.5,62.5 544.4,60.0 545.3,60.7 546.2,64.6 547.1,61.9 548.0,69.5 549.0,66.0 549.9,64.7 550.8,65.1 551.7,63.3 552.6,62.5 553.5,63.7 554.4,64.9 555.3,69.0 556.2,78.0 557.1,63.4 558.0,64.5 558.9,60.9 559.8,56.5 560.7,64.0 561.6,59.6 562.5,67.6 563.4,68.9 564.3,68.3 565.2,64.2 566.1,60.7 567.0,58.5 568.0,63.3 568.8,62.9 569.8,82.6 570.7,61.1 571.6,65.0 572.5,65.0 573.4,60.9 574.3,62.5 575.2,61.9 576.1,59.2 577.0,70.7 577.9,62.3 578.8,59.3 579.7,51.2 580.6,55.4 581.5,58.6 582.4,60.7 583.4,62.3 584.3,61.2 585.2,59.9 586.1,61.8 587.0,64.2 588.0,56.7 588.9,60.6 589.8,65.6 590.7,67.9 591.6,61.6 592.5,58.2 593.4,58.4 594.3,64.0 595.2,57.1 596.1,71.4 597.0,59.8 597.9,61.3 598.8,57.1 599.7,61.2 600.6,59.7 601.5,64.0 602.4,65.3 603.3,61.0 604.2,45.6 605.1,58.6 606.0,62.6 606.9,63.9 607.8,68.1 608.8,61.8 609.7,60.8 610.6,60.2 611.5,58.9 612.4,62.8 613.3,57.9 614.2,58.5 615.1,62.8 616.0,63.6 616.9,61.2 617.8,59.9 618.7,52.4 619.6,61.8 620.5,59.1 621.4,65.2 622.3,60.8 623.2,61.6 624.1,61.9 625.0,67.0 625.9,61.4 626.8,62.9 627.7,65.8 628.6,66.6 629.5,66.1 630.4,61.6 631.3,61.1 632.2,58.6 633.2,53.9 634.1,56.8 635.0,60.7 635.9,58.9 636.8,58.5 637.7,60.0 638.6,62.6 639.5,62.1 640.4,61.6 641.3,58.9 642.2,60.4 643.1,56.4 644.0,57.7 644.9,54.4 645.8,55.8 646.7,62.3 647.6,57.2 648.5,52.1 649.4,42.8 650.3,55.9 651.2,58.4 652.1,58.9 653.1,53.8 654.0,57.2 654.9,57.9 655.8,52.3 656.7,56.1 657.6,53.3 658.5,58.1 659.4,58.7 660.3,57.9 661.2,58.3 662.1,55.0 663.0,58.9 663.9,58.1 664.8,58.1 665.7,54.6 666.7,56.2 667.6,51.8 668.5,54.9 669.4,56.4 670.3,56.0 671.2,55.2 672.1,54.5 673.0,56.3 673.9,60.3 674.8,53.9" fill="none" stroke="#2563eb" stroke-width="2.5"/>
<rect x="65" y="20" width="610" height="330" fill="none" stroke="#888" stroke-width="1.5"/>
<line x1="62" y1="308.5" x2="65" y2="308.5" stroke="#64748b" stroke-width="1" opacity="0.6"/>
<line x1="62" y1="260.0" x2="65" y2="260.0" stroke="#64748b" stroke-width="1" opacity="0.6"/>
<line x1="62" y1="199.0" x2="65" y2="199.0" stroke="#64748b" stroke-width="1" opacity="0.6"/>
<line x1="60" y1="116.3" x2="65" y2="116.3" stroke="#64748b" stroke-width="1.5"/>
<text x="57" y="116.3" text-anchor="end" dominant-baseline="middle" font-size="11" font-family="monospace,sans-serif" fill="#64748b">10</text>
<line x1="62" y1="33.5" x2="65" y2="33.5" stroke="#64748b" stroke-width="1" opacity="0.6"/>
<line x1="675" y1="328.6" x2="680" y2="328.6" stroke="#2563eb" stroke-width="1.5"/>
<text x="683" y="328.6" text-anchor="start" dominant-baseline="middle" font-size="11" font-family="monospace,sans-serif" fill="#2563eb">0.0</text>
<line x1="675" y1="250.5" x2="680" y2="250.5" stroke="#2563eb" stroke-width="1.5"/>
<text x="683" y="250.5" text-anchor="start" dominant-baseline="middle" font-size="11" font-family="monospace,sans-serif" fill="#2563eb">1.0</text>
<line x1="675" y1="172.4" x2="680" y2="172.4" stroke="#2563eb" stroke-width="1.5"/>
<text x="683" y="172.4" text-anchor="start" dominant-baseline="middle" font-size="11" font-family="monospace,sans-serif" fill="#2563eb">2.0</text>
<line x1="675" y1="94.3" x2="680" y2="94.3" stroke="#2563eb" stroke-width="1.5"/>
<text x="683" y="94.3" text-anchor="start" dominant-baseline="middle" font-size="11" font-family="monospace,sans-serif" fill="#2563eb">3.0</text>
<line x1="65.0" y1="350" x2="65.0" y2="355" stroke="#888" stroke-width="1.5"/>
<text x="65.0" y="368" text-anchor="middle" font-size="11" font-family="monospace,sans-serif">0</text>
<line x1="187.1" y1="350" x2="187.1" y2="355" stroke="#888" stroke-width="1.5"/>
<text x="187.1" y="368" text-anchor="middle" font-size="11" font-family="monospace,sans-serif">2</text>
<line x1="309.3" y1="350" x2="309.3" y2="355" stroke="#888" stroke-width="1.5"/>
<text x="309.3" y="368" text-anchor="middle" font-size="11" font-family="monospace,sans-serif">4</text>
<line x1="431.4" y1="350" x2="431.4" y2="355" stroke="#888" stroke-width="1.5"/>
<text x="431.4" y="368" text-anchor="middle" font-size="11" font-family="monospace,sans-serif">6</text>
<line x1="553.6" y1="350" x2="553.6" y2="355" stroke="#888" stroke-width="1.5"/>
<text x="553.6" y="368" text-anchor="middle" font-size="11" font-family="monospace,sans-serif">8</text>
<line x1="675.7" y1="350" x2="675.7" y2="355" stroke="#888" stroke-width="1.5"/>
<text x="675.7" y="368" text-anchor="middle" font-size="11" font-family="monospace,sans-serif">10</text>
<text x="370" y="392" text-anchor="middle" font-size="13" font-family="sans-serif">Runtime (minutes)</text>
<text transform="rotate(-90,28,185)" x="28" y="185" text-anchor="middle" font-size="13" font-family="sans-serif" fill="#64748b">Train loss (log scale)</text>
<text transform="rotate(90,746,185)" x="746" y="185" text-anchor="middle" font-size="13" font-family="sans-serif" fill="#2563eb">Train loss diff (exp − base)</text>
<rect x="72" y="26" width="140" height="62" fill="white" fill-opacity="0.85" stroke="#ddd" stroke-width="1" rx="3"/>
<line x1="77" y1="37" x2="99" y2="37" stroke="#64748b" stroke-width="1.5" stroke-dasharray="5,3"/>
<text x="104" y="41" font-size="11" font-family="sans-serif" fill="#64748b">Baseline train loss</text>
<line x1="77" y1="55" x2="99" y2="55" stroke="#16a34a" stroke-width="1.5"/>
<text x="104" y="59" font-size="11" font-family="sans-serif" fill="#16a34a">Experiment train loss</text>
<line x1="77" y1="73" x2="99" y2="73" stroke="#2563eb" stroke-width="2.5"/>
<text x="104" y="77" font-size="11" font-family="sans-serif" fill="#2563eb">Train loss diff</text>
</svg>