<svg xmlns="http://www.w3.org/2000/svg" viewBox="0 0 760 400" width="760" height="400" style="background:white">
<rect x="65" y="20" width="610" height="330" fill="#f9f9f9"/>
<line x1="65" y1="308.5" x2="675" y2="308.5" stroke="#ececec" stroke-width="1"/>
<line x1="65" y1="260.0" x2="675" y2="260.0" stroke="#ececec" stroke-width="1"/>
<line x1="65" y1="199.0" x2="675" y2="199.0" stroke="#ececec" stroke-width="1"/>
<line x1="65" y1="116.3" x2="675" y2="116.3" stroke="#ddd" stroke-width="1"/>
<line x1="65" y1="33.5" x2="675" y2="33.5" stroke="#ececec" stroke-width="1"/>
<line x1="65.0" y1="20" x2="65.0" y2="350" stroke="#ececec" stroke-width="1"/>
<line x1="187.2" y1="20" x2="187.2" y2="350" stroke="#ececec" stroke-width="1"/>
<line x1="309.3" y1="20" x2="309.3" y2="350" stroke="#ececec" stroke-width="1"/>
<line x1="431.5" y1="20" x2="431.5" y2="350" stroke="#ececec" stroke-width="1"/>
<line x1="553.6" y1="20" x2="553.6" y2="350" stroke="#ececec" stroke-width="1"/>
<line x1="675.8" y1="20" x2="675.8" y2="350" stroke="#ececec" stroke-width="1"/>
<polyline points="65.0,119.5 66.9,52.9 68.8,89.3 70.8,146.9 72.7,160.5 74.6,153.3 76.5,153.9 78.4,160.8 80.3,166.4 82.3,169.7 84.2,171.6 86.3,174.7 88.3,176.8 90.2,178.2 92.1,180.5 94.0,182.5 95.9,183.7 97.8,185.0 99.7,187.2 101.7,189.4 103.6,191.8 105.5,194.0 107.4,196.0 109.3,198.2 111.2,200.3 113.1,202.4 115.1,203.2 117.0,204.9 118.9,206.4 120.8,207.5 122.7,208.6 124.6,209.8 126.6,210.7 128.5,211.7 130.4,212.6 132.3,213.3 134.2,213.6 136.1,215.0 138.1,215.1 140.0,215.7 141.9,216.6 143.8,217.7 145.7,217.8 147.7,218.5 149.6,219.3 151.5,219.9 153.4,220.4 155.3,221.3 157.2,222.1 159.1,223.2 161.1,224.1 163.0,224.6 164.9,225.3 166.8,226.5 168.7,227.3 170.6,227.2 172.5,228.6 174.5,229.1 176.4,231.0 178.3,231.6 180.2,232.8 182.1,233.0 184.0,233.1 185.9,233.3 187.8,233.8 189.8,236.3 191.7,235.7 193.6,236.5 195.5,237.1 197.4,237.7 199.3,238.3 201.2,238.9 203.1,239.1 205.0,239.2 207.0,239.4 208.9,240.4 210.8,240.6 212.7,241.3 214.6,242.1 216.5,242.2 218.5,243.0 220.4,242.8 222.3,242.9 224.2,243.3 226.1,243.9 228.0,243.1 229.9,244.1 231.9,244.6 233.8,245.7 235.7,245.7 237.6,245.9 239.5,246.3 241.4,246.9 243.3,246.7 245.2,247.5 247.2,247.0 249.1,247.8 251.0,248.1 252.9,248.1 254.8,247.9 256.7,249.1 258.6,248.7 260.6,249.9 262.5,250.1 264.4,250.1 266.3,250.5 268.2,250.5 270.1,250.8 272.0,250.8 273.9,251.5 275.8,251.4 277.7,252.1 279.7,252.6 281.6,253.0 283.5,253.4 285.4,253.3 287.3,253.5 289.2,253.4 291.1,254.1 293.0,254.2 294.9,254.5 296.8,255.6 298.8,254.5 300.7,256.1 302.6,256.0 304.5,255.7 306.4,255.2 308.3,257.3 310.2,256.6 312.1,256.6 314.0,257.1 316.0,258.1 317.9,257.7 319.8,258.5 321.7,258.3 323.6,258.4 325.5,258.0 327.4,258.4 329.3,258.6 331.3,258.7 333.2,258.8 335.1,259.7 337.0,259.3 338.9,258.8 340.8,259.1 342.7,259.8 344.6,259.9 346.5,259.9 348.4,260.3 350.3,260.9 352.3,261.0 354.2,260.2 356.1,260.6 358.0,260.4 359.9,261.1 361.8,261.6 363.7,262.0 365.6,262.0 367.5,261.4 369.5,261.7 371.4,262.1 373.3,262.7 375.2,262.7 377.1,262.9 379.0,262.2 381.0,262.4 382.9,262.7 384.8,262.6 386.7,263.0 388.6,262.9 390.5,263.3 392.4,263.6 394.3,263.7 396.2,264.4 398.1,263.9 400.0,264.2 401.9,263.9 403.9,264.3 405.8,264.5 407.7,264.9 409.6,264.0 411.5,265.7 413.4,264.3 415.3,264.6 417.2,264.7 419.1,265.1 421.1,265.3 423.0,264.8 424.9,264.8 426.8,265.5 428.7,266.2 430.6,265.2 432.5,265.2 434.4,265.8 436.3,267.0 438.2,265.7 440.1,265.9 442.1,265.9 444.0,266.5 445.9,266.6 447.8,265.9 449.7,267.3 451.6,267.3 453.5,267.2 455.4,267.1 457.3,266.9 459.2,267.0 461.1,267.4 463.0,267.5 465.0,267.6 466.9,267.7 468.8,267.7 470.7,267.6 472.6,268.4 474.5,268.2 476.4,268.1 478.3,268.4 480.2,268.8 482.2,268.8 484.1,268.6 486.0,268.7 487.9,269.0 489.8,269.3 491.7,268.6 493.6,269.0 495.5,269.7 497.5,268.6 499.4,268.9 501.3,269.2 503.2,269.4 505.1,269.7 507.0,269.9 508.9,269.5 510.8,269.6 512.7,269.9 514.6,270.2 516.6,269.3 518.5,269.6 520.4,270.3 522.3,270.2 524.2,269.7 526.1,270.9 528.0,270.4 529.9,269.9 531.8,270.5 533.7,271.4 535.6,271.2 537.6,271.5 539.5,271.3 541.4,271.8 543.3,271.1 545.2,270.6 547.1,271.4 549.0,271.6 550.9,271.0 552.8,271.7 554.7,271.6 556.7,272.5 558.6,271.8 560.5,272.0 562.4,272.7 564.3,272.6 566.2,272.2 568.1,271.4 570.0,272.2 571.9,272.9 573.8,271.7 575.7,272.4 577.7,272.7 579.6,272.6 581.5,273.1 583.4,273.4 585.3,273.4 587.2,272.5 589.1,273.1 591.0,273.7 592.9,273.8 594.8,273.9 596.8,273.3 598.7,272.3 600.6,273.9 602.5,273.2 604.4,273.8 606.3,274.5 608.2,273.0 610.1,274.1 612.0,274.1 613.9,274.8 615.8,273.8 617.7,273.6 619.7,273.7 621.6,274.4 623.5,274.0 625.4,274.3 627.3,274.6 629.2,274.5 631.1,274.7 633.0,274.6 634.9,275.5 636.8,275.3 638.7,275.2 640.7,274.5 642.6,274.7 644.5,275.4 646.4,275.2 648.3,274.1 650.2,274.7 652.1,275.2 654.0,275.3 655.9,276.1 657.8,275.9 659.7,275.4 661.7,275.0 663.6,275.2 665.5,274.5 667.4,275.4 669.3,275.9 671.2,275.8 673.1,275.6 675.0,274.9" fill="none" stroke="#16a34a" stroke-width="1.5"/>
<rect x="65" y="20" width="610" height="330" fill="none" stroke="#888" stroke-width="1.5"/>
<line x1="62" y1="308.5" x2="65" y2="308.5" stroke="#64748b" stroke-width="1" opacity="0.6"/>
<line x1="62" y1="260.0" x2="65" y2="260.0" stroke="#64748b" stroke-width="1" opacity="0.6"/>
<line x1="62" y1="199.0" x2="65" y2="199.0" stroke="#64748b" stroke-width="1" opacity="0.6"/>
<line x1="60" y1="116.3" x2="65" y2="116.3" stroke="#64748b" stroke-width="1.5"/>
<text x="57" y="116.3" text-anchor="end" dominant-baseline="middle" font-size="11" font-family="monospace,sans-serif" fill="#64748b">10</text>
<line x1="62" y1="33.5" x2="65" y2="33.5" stroke="#64748b" stroke-width="1" opacity="0.6"/>
<line x1="65.0" y1="350" x2="65.0" y2="355" stroke="#888" stroke-width="1.5"/>
<text x="65.0" y="368" text-anchor="middle" font-size="11" font-family="monospace,sans-serif">0</text>
<line x1="187.2" y1="350" x2="187.2" y2="355" stroke="#888" stroke-width="1.5"/>
<text x="187.2" y="368" text-anchor="middle" font-size="11" font-family="monospace,sans-serif">2</text>
<line x1="309.3" y1="350" x2="309.3" y2="355" stroke="#888" stroke-width="1.5"/>
<text x="309.3" y="368" text-anchor="middle" font-size="11" font-family="monospace,sans-serif">4</text>
<line x1="431.5" y1="350" x2="431.5" y2="355" stroke="#888" stroke-width="1.5"/>
<text x="431.5" y="368" text-anchor="middle" font-size="11" font-family="monospace,sans-serif">6</text>
<line x1="553.6" y1="350" x2="553.6" y2="355" stroke="#888" stroke-width="1.5"/>
<text x="553.6" y="368" text-anchor="middle" font-size="11" font-family="monospace,sans-serif">8</text>
<line x1="675.8" y1="350" x2="675.8" y2="355" stroke="#888" stroke-width="1.5"/>
<text x="675.8" y="368" text-anchor="middle" font-size="11" font-family="monospace,sans-serif">10</text>
<text x="370" y="392" text-anchor="middle" font-size="13" font-family="sans-serif">Runtime (minutes)</text>
<text transform="rotate(-90,28,185)" x="28" y="185" text-anchor="middle" font-size="13" font-family="sans-serif" fill="#64748b">Train loss (log scale)</text>
</svg>