<svg xmlns="http://www.w3.org/2000/svg" viewBox="0 0 720 400" width="720" height="400" style="background:white">
<rect x="65" y="20" width="635" height="330" fill="#f9f9f9"/>
<line x1="65" y1="308.5" x2="700" y2="308.5" stroke="#e8e8e8" stroke-width="1"/>
<line x1="65" y1="260.0" x2="700" y2="260.0" stroke="#e8e8e8" stroke-width="1"/>
<line x1="65" y1="199.0" x2="700" y2="199.0" stroke="#e8e8e8" stroke-width="1"/>
<line x1="65" y1="116.3" x2="700" y2="116.3" stroke="#ccc" stroke-width="1"/>
<line x1="65" y1="33.5" x2="700" y2="33.5" stroke="#e8e8e8" stroke-width="1"/>
<line x1="65.0" y1="20" x2="65.0" y2="350" stroke="#e8e8e8" stroke-width="1"/>
<line x1="192.2" y1="20" x2="192.2" y2="350" stroke="#e8e8e8" stroke-width="1"/>
<line x1="319.3" y1="20" x2="319.3" y2="350" stroke="#e8e8e8" stroke-width="1"/>
<line x1="446.5" y1="20" x2="446.5" y2="350" stroke="#e8e8e8" stroke-width="1"/>
<line x1="573.7" y1="20" x2="573.7" y2="350" stroke="#e8e8e8" stroke-width="1"/>
<line x1="700.8" y1="20" x2="700.8" y2="350" stroke="#e8e8e8" stroke-width="1"/>
<polyline points="65.0,119.5 67.0,52.9 69.0,89.3 71.0,146.9 73.0,160.5 75.0,153.3 77.0,153.9 79.0,160.8 81.0,166.4 83.0,169.7 85.0,171.6 87.2,174.7 89.2,176.8 91.2,178.2 93.2,180.5 95.2,182.5 97.2,183.7 99.2,185.0 101.2,187.2 103.2,189.4 105.2,191.8 107.2,194.0 109.1,196.0 111.1,198.2 113.1,200.3 115.1,202.4 117.1,203.2 119.1,204.9 121.1,206.4 123.1,207.5 125.1,208.6 127.1,209.8 129.1,210.7 131.1,211.7 133.1,212.6 135.1,213.3 137.1,213.6 139.1,215.0 141.0,215.1 143.0,215.7 145.1,216.6 147.1,217.7 149.0,217.8 151.0,218.5 153.0,219.3 155.0,219.9 157.0,220.4 159.0,221.3 161.0,222.1 163.0,223.2 165.0,224.1 167.0,224.6 169.0,225.3 171.0,226.5 173.0,227.3 174.9,227.2 176.9,228.6 178.9,229.1 180.9,231.0 182.9,231.6 184.9,232.8 186.9,233.0 188.9,233.1 190.9,233.3 192.9,233.8 194.9,236.3 196.9,235.7 198.8,236.5 200.8,237.1 202.8,237.7 204.8,238.3 206.8,238.9 208.8,239.1 210.8,239.2 212.8,239.4 214.8,240.4 216.8,240.6 218.8,241.3 220.8,242.1 222.7,242.2 224.7,243.0 226.7,242.8 228.7,242.9 230.7,243.3 232.7,243.9 234.7,243.1 236.7,244.1 238.7,244.6 240.7,245.7 242.7,245.7 244.7,245.9 246.7,246.3 248.6,246.9 250.6,246.7 252.6,247.5 254.6,247.0 256.6,247.8 258.6,248.1 260.6,248.1 262.6,247.9 264.6,249.1 266.6,248.7 268.6,249.9 270.6,250.1 272.6,250.1 274.5,250.5 276.5,250.5 278.5,250.8 280.5,250.8 282.5,251.5 284.5,251.4 286.5,252.1 288.5,252.6 290.5,253.0 292.4,253.4 294.4,253.3 296.4,253.5 298.4,253.4 300.4,254.1 302.4,254.2 304.4,254.5 306.4,255.6 308.3,254.5 310.3,256.1 312.3,256.0 314.3,255.7 316.3,255.2 318.3,257.3 320.3,256.6 322.3,256.6 324.3,257.1 326.2,258.1 328.2,257.7 330.2,258.5 332.2,258.3 334.2,258.4 336.2,258.0 338.2,258.4 340.2,258.6 342.2,258.7 344.1,258.8 346.1,259.7 348.1,259.3 350.1,258.8 352.1,259.1 354.1,259.8 356.1,259.9 358.1,259.9 360.0,260.3 362.0,260.9 364.0,261.0 366.0,260.2 368.0,260.6 370.0,260.4 372.0,261.1 374.0,261.6 376.0,262.0 378.0,262.0 379.9,261.4 381.9,261.7 383.9,262.1 385.9,262.7 387.9,262.7 389.9,262.9 391.9,262.2 393.9,262.4 395.9,262.7 397.9,262.6 399.9,263.0 401.8,262.9 403.8,263.3 405.8,263.6 407.8,263.7 409.8,264.4 411.8,263.9 413.8,264.2 415.8,263.9 417.7,264.3 419.7,264.5 421.7,264.9 423.7,264.0 425.7,265.7 427.7,264.3 429.7,264.6 431.7,264.7 433.7,265.1 435.7,265.3 437.6,264.8 439.6,264.8 441.6,265.5 443.6,266.2 445.6,265.2 447.6,265.2 449.6,265.8 451.5,267.0 453.5,265.7 455.5,265.9 457.5,265.9 459.5,266.5 461.5,266.6 463.5,265.9 465.5,267.3 467.4,267.3 469.4,267.2 471.4,267.1 473.4,266.9 475.4,267.0 477.4,267.4 479.4,267.5 481.4,267.6 483.3,267.7 485.3,267.7 487.3,267.6 489.3,268.4 491.3,268.2 493.3,268.1 495.3,268.4 497.3,268.8 499.3,268.8 501.2,268.6 503.2,268.7 505.2,269.0 507.2,269.3 509.2,268.6 511.2,269.0 513.2,269.7 515.2,268.6 517.2,268.9 519.2,269.2 521.1,269.4 523.1,269.7 525.1,269.9 527.1,269.5 529.1,269.6 531.1,269.9 533.1,270.2 535.1,269.3 537.0,269.6 539.0,270.3 541.0,270.2 543.0,269.7 545.0,270.9 547.0,270.4 549.0,269.9 550.9,270.5 552.9,271.4 554.9,271.2 556.9,271.5 558.9,271.3 560.9,271.8 562.9,271.1 564.9,270.6 566.9,271.4 568.9,271.6 570.8,271.0 572.8,271.7 574.8,271.6 576.8,272.5 578.8,271.8 580.8,272.0 582.8,272.7 584.7,272.6 586.7,272.2 588.7,271.4 590.7,272.2 592.7,272.9 594.7,271.7 596.7,272.4 598.7,272.7 600.7,272.6 602.6,273.1 604.6,273.4 606.6,273.4 608.6,272.5 610.6,273.1 612.6,273.7 614.6,273.8 616.6,273.9 618.5,273.3 620.5,272.3 622.5,273.9 624.5,273.2 626.5,273.8 628.5,274.5 630.5,273.0 632.4,274.1 634.4,274.1 636.4,274.8 638.4,273.8 640.4,273.6 642.4,273.7 644.4,274.4 646.4,274.0 648.4,274.3 650.3,274.6 652.3,274.5 654.3,274.7 656.3,274.6 658.3,275.5 660.3,275.3 662.3,275.2 664.2,274.5 666.2,274.7 668.2,275.4 670.2,275.2 672.2,274.1 674.2,274.7 676.2,275.2 678.2,275.3 680.2,276.1 682.1,275.9 684.1,275.4 686.1,275.0 688.1,275.2 690.1,274.5 692.1,275.4 694.0,275.9 696.0,275.8 698.0,275.6 700.0,274.9" fill="none" stroke="#2563eb" stroke-width="2"/>
<rect x="65" y="20" width="635" height="330" fill="none" stroke="#555" stroke-width="1.5"/>
<line x1="62" y1="308.5" x2="65" y2="308.5" stroke="#888" stroke-width="1"/>
<line x1="62" y1="260.0" x2="65" y2="260.0" stroke="#888" stroke-width="1"/>
<line x1="62" y1="199.0" x2="65" y2="199.0" stroke="#888" stroke-width="1"/>
<line x1="60" y1="116.3" x2="65" y2="116.3" stroke="#555" stroke-width="1.5"/>
<text x="57" y="116.3" text-anchor="end" dominant-baseline="middle" font-size="11" font-family="monospace,sans-serif">10</text>
<line x1="62" y1="33.5" x2="65" y2="33.5" stroke="#888" stroke-width="1"/>
<line x1="65.0" y1="350" x2="65.0" y2="355" stroke="#555" stroke-width="1.5"/>
<text x="65.0" y="368" text-anchor="middle" font-size="11" font-family="monospace,sans-serif">0</text>
<line x1="192.2" y1="350" x2="192.2" y2="355" stroke="#555" stroke-width="1.5"/>
<text x="192.2" y="368" text-anchor="middle" font-size="11" font-family="monospace,sans-serif">2</text>
<line x1="319.3" y1="350" x2="319.3" y2="355" stroke="#555" stroke-width="1.5"/>
<text x="319.3" y="368" text-anchor="middle" font-size="11" font-family="monospace,sans-serif">4</text>
<line x1="446.5" y1="350" x2="446.5" y2="355" stroke="#555" stroke-width="1.5"/>
<text x="446.5" y="368" text-anchor="middle" font-size="11" font-family="monospace,sans-serif">6</text>
<line x1="573.7" y1="350" x2="573.7" y2="355" stroke="#555" stroke-width="1.5"/>
<text x="573.7" y="368" text-anchor="middle" font-size="11" font-family="monospace,sans-serif">8</text>
<line x1="700.8" y1="350" x2="700.8" y2="355" stroke="#555" stroke-width="1.5"/>
<text x="700.8" y="368" text-anchor="middle" font-size="11" font-family="monospace,sans-serif">10</text>
<text x="382" y="392" text-anchor="middle" font-size="13" font-family="sans-serif">Runtime (minutes)</text>
<text transform="rotate(-90,16,185)" x="16" y="185" text-anchor="middle" font-size="13" font-family="sans-serif">Loss (log scale)</text>
</svg>