<svg xmlns="http://www.w3.org/2000/svg" viewBox="0 0 760 400" width="760" height="400" style="background:white">
<rect x="65" y="20" width="625" height="330" fill="#f9f9f9"/>
<line x1="65" y1="308.5" x2="690" y2="308.5" stroke="#ececec" stroke-width="1"/>
<line x1="65" y1="260.0" x2="690" y2="260.0" stroke="#ececec" stroke-width="1"/>
<line x1="65" y1="199.0" x2="690" y2="199.0" stroke="#ececec" stroke-width="1"/>
<line x1="65" y1="116.3" x2="690" y2="116.3" stroke="#ddd" stroke-width="1"/>
<line x1="65" y1="33.5" x2="690" y2="33.5" stroke="#ececec" stroke-width="1"/>
<line x1="65.0" y1="20" x2="65.0" y2="350" stroke="#ececec" stroke-width="1"/>
<line x1="190.2" y1="20" x2="190.2" y2="350" stroke="#ececec" stroke-width="1"/>
<line x1="315.3" y1="20" x2="315.3" y2="350" stroke="#ececec" stroke-width="1"/>
<line x1="440.5" y1="20" x2="440.5" y2="350" stroke="#ececec" stroke-width="1"/>
<line x1="565.6" y1="20" x2="565.6" y2="350" stroke="#ececec" stroke-width="1"/>
<line x1="690.8" y1="20" x2="690.8" y2="350" stroke="#ececec" stroke-width="1"/>
<polyline points="65.0,119.5 67.0,52.9 68.9,89.3 70.9,146.9 72.9,160.5 74.8,153.3 76.8,153.9 78.8,160.8 80.7,166.4 82.7,169.7 84.6,171.6 86.9,174.7 88.8,176.8 90.8,178.2 92.8,180.5 94.7,182.5 96.7,183.7 98.6,185.0 100.6,187.2 102.6,189.4 104.5,191.8 106.5,194.0 108.4,196.0 110.4,198.2 112.4,200.3 114.3,202.4 116.3,203.2 118.3,204.9 120.2,206.4 122.2,207.5 124.1,208.6 126.1,209.8 128.1,210.7 130.0,211.7 132.0,212.6 134.0,213.3 135.9,213.6 137.9,215.0 139.8,215.1 141.8,215.7 143.8,216.6 145.8,217.7 147.7,217.8 149.7,218.5 151.6,219.3 153.6,219.9 155.6,220.4 157.5,221.3 159.5,222.1 161.5,223.2 163.4,224.1 165.4,224.6 167.3,225.3 169.3,226.5 171.3,227.3 173.2,227.2 175.2,228.6 177.1,229.1 179.1,231.0 181.1,231.6 183.0,232.8 185.0,233.0 186.9,233.1 188.9,233.3 190.9,233.8 192.8,236.3 194.8,235.7 196.7,236.5 198.7,237.1 200.7,237.7 202.6,238.3 204.6,238.9 206.5,239.1 208.5,239.2 210.5,239.4 212.4,240.4 214.4,240.6 216.3,241.3 218.3,242.1 220.3,242.2 222.2,243.0 224.2,242.8 226.1,242.9 228.1,243.3 230.1,243.9 232.0,243.1 234.0,244.1 236.0,244.6 237.9,245.7 239.9,245.7 241.8,245.9 243.8,246.3 245.8,246.9 247.7,246.7 249.7,247.5 251.6,247.0 253.6,247.8 255.6,248.1 257.5,248.1 259.5,247.9 261.4,249.1 263.4,248.7 265.4,249.9 267.3,250.1 269.3,250.1 271.2,250.5 273.2,250.5 275.2,250.8 277.1,250.8 279.1,251.5 281.0,251.4 283.0,252.1 284.9,252.6 286.9,253.0 288.9,253.4 290.8,253.3 292.8,253.5 294.7,253.4 296.7,254.1 298.6,254.2 300.6,254.5 302.6,255.6 304.5,254.5 306.5,256.1 308.4,256.0 310.4,255.7 312.3,255.2 314.3,257.3 316.2,256.6 318.2,256.6 320.2,257.1 322.1,258.1 324.1,257.7 326.0,258.5 328.0,258.3 330.0,258.4 331.9,258.0 333.9,258.4 335.8,258.6 337.8,258.7 339.8,258.8 341.7,259.7 343.7,259.3 345.6,258.8 347.6,259.1 349.5,259.8 351.5,259.9 353.5,259.9 355.4,260.3 357.4,260.9 359.3,261.0 361.3,260.2 363.2,260.6 365.2,260.4 367.1,261.1 369.1,261.6 371.1,262.0 373.0,262.0 375.0,261.4 376.9,261.7 378.9,262.1 380.9,262.7 382.8,262.7 384.8,262.9 386.8,262.2 388.7,262.4 390.7,262.7 392.6,262.6 394.6,263.0 396.5,262.9 398.5,263.3 400.5,263.6 402.4,263.7 404.4,264.4 406.3,263.9 408.3,264.2 410.2,263.9 412.2,264.3 414.1,264.5 416.1,264.9 418.1,264.0 420.0,265.7 422.0,264.3 423.9,264.6 425.9,264.7 427.9,265.1 429.8,265.3 431.8,264.8 433.7,264.8 435.7,265.5 437.6,266.2 439.6,265.2 441.5,265.2 443.5,265.8 445.5,267.0 447.4,265.7 449.4,265.9 451.3,265.9 453.3,266.5 455.2,266.6 457.2,265.9 459.2,267.3 461.1,267.3 463.1,267.2 465.0,267.1 467.0,266.9 468.9,267.0 470.9,267.4 472.8,267.5 474.8,267.6 476.8,267.7 478.7,267.7 480.7,267.6 482.6,268.4 484.6,268.2 486.6,268.1 488.5,268.4 490.5,268.8 492.4,268.8 494.4,268.6 496.3,268.7 498.3,269.0 500.3,269.3 502.2,268.6 504.2,269.0 506.1,269.7 508.1,268.6 510.0,268.9 512.0,269.2 514.0,269.4 515.9,269.7 517.9,269.9 519.8,269.5 521.8,269.6 523.7,269.9 525.7,270.2 527.7,269.3 529.6,269.6 531.6,270.3 533.5,270.2 535.5,269.7 537.4,270.9 539.4,270.4 541.3,269.9 543.3,270.5 545.3,271.4 547.2,271.2 549.2,271.5 551.1,271.3 553.1,271.8 555.0,271.1 557.0,270.6 559.0,271.4 560.9,271.6 562.9,271.0 564.8,271.7 566.8,271.6 568.7,272.5 570.7,271.8 572.6,272.0 574.6,272.7 576.6,272.6 578.5,272.2 580.5,271.4 582.4,272.2 584.4,272.9 586.3,271.7 588.3,272.4 590.3,272.7 592.2,272.6 594.2,273.1 596.1,273.4 598.1,273.4 600.0,272.5 602.0,273.1 604.0,273.7 605.9,273.8 607.9,273.9 609.8,273.3 611.8,272.3 613.7,273.9 615.7,273.2 617.6,273.8 619.6,274.5 621.6,273.0 623.5,274.1 625.5,274.1 627.4,274.8 629.4,273.8 631.3,273.6 633.3,273.7 635.2,274.4 637.2,274.0 639.2,274.3 641.1,274.6 643.1,274.5 645.0,274.7 647.0,274.6 648.9,275.5 650.9,275.3 652.9,275.2 654.8,274.5 656.8,274.7 658.7,275.4 660.7,275.2 662.6,274.1 664.6,274.7 666.6,275.2 668.5,275.3 670.5,276.1 672.4,275.9 674.4,275.4 676.3,275.0 678.3,275.2 680.2,274.5 682.2,275.4 684.1,275.9 686.1,275.8 688.0,275.6 690.0,274.9" fill="none" stroke="#94a3b8" stroke-width="1.5"/>
<rect x="65" y="20" width="625" height="330" fill="none" stroke="#888" stroke-width="1.5"/>
<line x1="62" y1="308.5" x2="65" y2="308.5" stroke="#94a3b8" stroke-width="1" opacity="0.6"/>
<line x1="62" y1="260.0" x2="65" y2="260.0" stroke="#94a3b8" stroke-width="1" opacity="0.6"/>
<line x1="62" y1="199.0" x2="65" y2="199.0" stroke="#94a3b8" stroke-width="1" opacity="0.6"/>
<line x1="60" y1="116.3" x2="65" y2="116.3" stroke="#94a3b8" stroke-width="1.5"/>
<text x="57" y="116.3" text-anchor="end" dominant-baseline="middle" font-size="11" font-family="monospace,sans-serif" fill="#94a3b8">10</text>
<line x1="62" y1="33.5" x2="65" y2="33.5" stroke="#94a3b8" stroke-width="1" opacity="0.6"/>
<line x1="65.0" y1="350" x2="65.0" y2="355" stroke="#888" stroke-width="1.5"/>
<text x="65.0" y="368" text-anchor="middle" font-size="11" font-family="monospace,sans-serif">0</text>
<line x1="190.2" y1="350" x2="190.2" y2="355" stroke="#888" stroke-width="1.5"/>
<text x="190.2" y="368" text-anchor="middle" font-size="11" font-family="monospace,sans-serif">2</text>
<line x1="315.3" y1="350" x2="315.3" y2="355" stroke="#888" stroke-width="1.5"/>
<text x="315.3" y="368" text-anchor="middle" font-size="11" font-family="monospace,sans-serif">4</text>
<line x1="440.5" y1="350" x2="440.5" y2="355" stroke="#888" stroke-width="1.5"/>
<text x="440.5" y="368" text-anchor="middle" font-size="11" font-family="monospace,sans-serif">6</text>
<line x1="565.6" y1="350" x2="565.6" y2="355" stroke="#888" stroke-width="1.5"/>
<text x="565.6" y="368" text-anchor="middle" font-size="11" font-family="monospace,sans-serif">8</text>
<line x1="690.8" y1="350" x2="690.8" y2="355" stroke="#888" stroke-width="1.5"/>
<text x="690.8" y="368" text-anchor="middle" font-size="11" font-family="monospace,sans-serif">10</text>
<text x="377" y="392" text-anchor="middle" font-size="13" font-family="sans-serif">Runtime (minutes)</text>
<text transform="rotate(-90,16,185)" x="16" y="185" text-anchor="middle" font-size="13" font-family="sans-serif" fill="#94a3b8">Train loss (log scale)</text>
</svg>