<svg xmlns="http://www.w3.org/2000/svg" viewBox="0 0 760 400" width="760" height="400" style="background:white">
<rect x="65" y="20" width="610" height="330" fill="#f9f9f9"/>
<line x1="65" y1="308.5" x2="675" y2="308.5" stroke="#ececec" stroke-width="1"/>
<line x1="65" y1="260.0" x2="675" y2="260.0" stroke="#ececec" stroke-width="1"/>
<line x1="65" y1="199.0" x2="675" y2="199.0" stroke="#ececec" stroke-width="1"/>
<line x1="65" y1="116.3" x2="675" y2="116.3" stroke="#ddd" stroke-width="1"/>
<line x1="65" y1="33.5" x2="675" y2="33.5" stroke="#ececec" stroke-width="1"/>
<line x1="65.0" y1="20" x2="65.0" y2="350" stroke="#ececec" stroke-width="1"/>
<line x1="187.1" y1="20" x2="187.1" y2="350" stroke="#ececec" stroke-width="1"/>
<line x1="309.2" y1="20" x2="309.2" y2="350" stroke="#ececec" stroke-width="1"/>
<line x1="431.3" y1="20" x2="431.3" y2="350" stroke="#ececec" stroke-width="1"/>
<line x1="553.3" y1="20" x2="553.3" y2="350" stroke="#ececec" stroke-width="1"/>
<line x1="675.4" y1="20" x2="675.4" y2="350" stroke="#ececec" stroke-width="1"/>
<line x1="65" y1="128.9" x2="675" y2="128.9" stroke="#2563eb" stroke-width="0.75" stroke-dasharray="3,3" opacity="0.4"/>
<polyline points="65.0,119.8 65.9,52.3 66.8,85.9 67.7,141.9 68.5,160.7 69.4,155.7 70.3,156.5 71.2,162.7 72.1,166.9 73.0,169.9 73.9,172.4 74.8,173.8 75.7,175.9 76.6,177.5 77.5,179.6 78.4,181.0 79.3,183.0 80.2,183.4 81.1,184.7 82.0,186.8 82.9,188.5 83.9,189.8 84.8,191.8 85.7,194.1 86.6,196.0 87.5,198.4 88.4,200.2 89.3,202.2 90.2,203.8 91.1,204.9 92.0,205.8 92.9,206.4 93.8,208.2 94.7,209.1 95.6,210.4 96.6,211.1 97.5,211.1 98.4,212.1 99.3,212.8 100.2,213.6 101.1,214.1 102.0,214.9 102.9,215.6 103.8,215.8 104.7,216.1 105.7,217.8 106.6,217.8 107.5,218.1 108.4,217.3 109.3,219.7 110.2,219.0 111.1,220.6 112.0,221.1 112.9,221.4 113.8,222.7 114.7,223.0 115.6,223.5 116.6,223.5 117.5,225.0 118.4,225.3 119.3,225.5 120.2,227.1 121.1,226.6 122.0,227.6 122.9,229.0 123.8,230.1 124.7,231.3 125.6,231.1 126.5,231.2 127.4,232.1 128.4,232.8 129.3,232.9 130.2,234.2 131.1,234.4 132.0,233.9 132.9,235.0 133.8,234.5 134.7,235.9 135.6,235.6 136.5,237.9 137.5,237.1 138.4,237.2 139.3,237.0 140.2,237.6 141.1,239.4 142.0,238.3 142.9,238.8 143.8,239.9 144.7,239.5 145.6,238.3 146.5,241.9 147.5,240.8 148.4,239.8 149.3,241.2 150.2,241.4 151.1,240.8 152.0,241.5 152.9,241.1 153.8,242.0 154.7,242.8 155.7,241.8 156.6,242.4 157.5,243.6 158.4,242.1 159.3,244.4 160.2,243.1 161.1,241.7 162.0,243.7 162.9,243.0 163.9,243.0 164.8,244.0 165.7,244.7 166.6,245.1 167.5,244.9 168.4,243.6 169.3,245.6 170.2,244.9 171.2,245.7 172.1,245.8 173.0,245.1 173.9,245.5 174.8,243.8 175.7,246.4 176.6,247.1 177.5,245.8 178.5,246.7 179.4,245.7 180.3,246.6 181.2,248.8 182.1,246.9 183.0,247.1 183.9,246.4 184.8,247.0 185.8,247.1 186.7,246.9 187.6,248.4 188.5,248.5 189.4,247.2 190.3,248.2 191.2,247.3 192.1,248.0 193.1,248.8 194.0,248.7 194.9,249.3 195.8,249.8 196.7,249.9 197.6,248.7 198.5,248.9 199.4,249.4 200.4,249.8 201.3,250.6 202.2,250.9 203.1,250.6 204.0,250.6 204.9,250.7 205.8,251.2 206.7,250.9 207.6,251.7 208.5,251.1 209.5,251.6 210.4,250.5 211.3,251.8 212.2,252.9 213.1,252.1 214.0,251.4 214.9,252.8 215.8,254.1 216.7,252.1 217.6,254.1 218.5,252.5 219.4,253.2 220.3,252.9 221.3,253.3 222.2,252.9 223.1,253.1 224.0,253.1 224.9,254.8 225.8,253.9 226.7,254.3 227.6,254.1 228.5,255.1 229.5,254.1 230.4,255.0 231.3,254.9 232.2,255.5 233.1,255.8 234.0,255.4 234.9,255.2 235.8,255.8 236.7,256.6 237.7,254.9 238.6,257.0 239.5,257.0 240.4,257.3 241.3,256.6 242.2,256.1 243.1,257.7 244.0,257.0 244.9,256.8 245.9,257.0 246.8,257.4 247.7,260.1 248.6,257.3 249.5,259.1 250.4,258.5 251.3,260.0 252.2,258.0 253.2,259.1 254.1,258.2 255.0,258.5 255.9,260.0 256.8,259.8 257.7,259.5 258.6,258.8 259.5,260.4 260.4,261.4 261.3,259.1 262.2,259.4 263.1,259.9 264.0,260.1 264.9,260.3 265.8,260.0 266.7,260.6 267.6,259.9 268.5,261.4 269.4,260.4 270.3,261.5 271.2,261.4 272.2,261.2 273.1,261.8 274.0,261.4 274.9,261.4 275.8,261.1 276.7,262.3 277.6,262.9 278.5,261.9 279.4,262.9 280.3,264.3 281.2,262.7 282.1,263.3 283.0,261.5 283.9,263.0 284.8,263.4 285.7,262.7 286.6,264.2 287.5,264.5 288.4,262.7 289.4,263.4 290.3,262.3 291.2,263.0 292.1,263.5 293.0,261.0 293.9,264.5 294.8,263.5 295.7,263.4 296.6,264.1 297.5,264.0 298.4,263.6 299.3,265.3 300.2,266.6 301.1,265.4 302.0,263.5 302.9,264.7 303.8,266.3 304.7,264.6 305.6,264.9 306.5,265.2 307.4,263.7 308.3,265.0 309.2,264.3 310.2,264.3 311.1,262.9 312.0,265.6 312.9,265.4 313.8,265.0 314.7,265.2 315.6,265.2 316.5,264.8 317.4,265.8 318.3,266.4 319.2,264.3 320.2,267.2 321.1,263.6 322.0,267.2 322.9,264.4 323.8,265.9 324.7,266.3 325.6,267.2 326.5,264.2 327.4,265.3 328.3,267.0 329.2,267.6 330.2,267.6 331.1,265.1 332.0,268.2 332.9,266.4 333.8,266.4 334.7,266.9 335.6,266.8 336.5,267.2 337.4,267.6 338.3,268.1 339.2,267.0 340.1,267.1 341.0,267.3 341.9,268.4 342.8,267.3 343.7,268.7 344.7,267.0 345.6,267.8 346.5,267.1 347.4,269.2 348.3,268.7 349.2,267.8 350.1,269.7 351.0,268.7 351.9,268.7 352.8,268.8 353.7,267.1 354.6,268.8 355.5,268.7 356.5,268.7 357.4,267.2 358.3,267.2 359.2,267.5 360.1,268.8 361.0,269.4 361.9,269.2 362.8,269.6 363.7,268.0 364.6,267.7 365.5,269.2 366.4,269.0 367.3,268.5 368.3,266.7 369.2,268.0 370.1,269.3 371.0,269.6 371.9,269.3 372.8,269.6 373.7,269.0 374.6,268.1 375.5,269.0 376.4,268.2 377.3,269.1 378.2,270.6 379.2,267.9 380.1,268.9 381.0,270.2 381.9,270.0 382.8,269.0 383.7,268.8 384.6,270.4 385.5,268.3 386.4,270.8 387.3,270.7 388.2,269.5 389.1,271.0 390.0,271.0 390.9,271.1 391.9,269.2 392.8,272.3 393.7,270.0 394.6,271.1 395.5,269.3 396.4,267.4 397.3,270.8 398.2,270.3 399.1,272.6 400.0,270.0 400.9,270.1 401.9,269.6 402.8,270.8 403.7,271.8 404.6,272.5 405.5,269.3 406.4,270.3 407.3,271.5 408.2,270.6 409.1,273.1 410.0,271.7 410.9,269.1 411.8,269.7 412.7,270.7 413.6,272.0 414.6,272.5 415.5,271.3 416.4,270.7 417.3,271.4 418.2,270.0 419.1,270.3 420.0,272.3 420.9,270.7 421.8,270.6 422.7,271.3 423.7,269.8 424.6,271.0 425.5,272.8 426.4,270.2 427.3,272.2 428.2,271.8 429.1,271.0 430.0,272.8 430.9,270.8 431.8,272.9 432.7,271.8 433.6,272.7 434.5,271.4 435.4,271.9 436.3,271.1 437.3,270.9 438.2,270.0 439.1,271.7 440.0,271.3 440.9,270.5 441.8,271.7 442.7,272.6 443.6,273.3 444.5,272.2 445.4,272.8 446.3,273.4 447.3,271.5 448.2,271.9 449.1,271.4 450.0,272.0 450.9,271.9 451.8,270.8 452.7,272.8 453.6,271.2 454.5,270.2 455.4,273.4 456.3,270.9 457.2,271.9 458.1,272.8 459.0,271.7 460.0,273.1 460.9,274.0 461.8,272.7 462.7,273.3 463.6,271.2 464.5,272.4 465.4,272.9 466.3,273.2 467.2,272.7 468.1,273.3 469.0,272.3 469.9,272.9 470.9,273.8 471.8,273.6 472.7,272.7 473.6,270.7 474.5,272.9 475.4,274.7 476.3,271.2 477.2,274.6 478.1,274.7 479.0,273.1 479.9,275.3 480.9,271.3 481.8,273.6 482.7,273.4 483.6,272.5 484.5,273.6 485.4,271.4 486.3,272.7 487.2,274.0 488.1,273.9 489.0,272.7 489.9,274.6 490.8,274.3 491.7,273.1 492.6,273.5 493.5,274.6 494.5,273.5 495.4,272.8 496.3,273.6 497.2,274.5 498.1,272.4 499.0,273.3 499.9,273.3 500.8,270.9 501.7,273.3 502.6,272.7 503.5,273.1 504.4,272.8 505.3,274.8 506.3,274.7 507.2,274.2 508.1,276.2 509.0,271.7 509.9,273.5 510.8,273.2 511.7,274.0 512.6,274.5 513.5,274.5 514.4,274.0 515.3,274.4 516.2,274.2 517.2,272.8 518.1,274.5 519.0,271.4 519.9,273.0 520.8,272.7 521.7,274.1 522.6,274.7 523.5,272.6 524.4,272.0 525.3,274.4 526.2,273.8 527.1,273.1 528.0,273.3 529.0,275.3 529.9,274.8 530.8,274.1 531.7,274.3 532.6,274.1 533.5,273.7 534.4,273.1 535.3,274.1 536.2,276.4 537.1,275.3 538.0,275.6 538.9,276.9 539.8,273.7 540.7,276.7 541.6,276.2 542.6,275.1 543.5,275.9 544.4,275.4 545.3,274.7 546.2,274.2 547.1,274.7 548.0,274.2 548.9,274.9 549.8,275.9 550.7,276.2 551.6,273.7 552.5,275.0 553.4,273.3 554.3,275.8 555.2,273.9 556.2,276.8 557.1,273.7 558.0,274.2 558.9,273.3 559.8,275.1 560.7,274.9 561.6,275.0 562.5,274.3 563.4,274.6 564.3,275.3 565.2,275.9 566.1,274.7 567.1,276.4 568.0,273.7 568.9,275.2 569.8,275.2 570.7,273.0 571.6,276.4 572.5,278.0 573.4,275.9 574.3,276.8 575.2,276.2 576.1,277.2 577.0,276.2 577.9,274.6 578.8,275.6 579.8,276.3 580.7,275.2 581.6,276.5 582.5,276.3 583.4,275.9 584.3,276.3 585.3,276.4 586.2,274.4 587.1,277.2 588.0,276.8 588.9,274.2 589.8,278.1 590.7,275.1 591.6,277.3 592.5,274.7 593.4,275.6 594.3,275.0 595.3,274.3 596.2,275.9 597.1,275.5 598.0,275.5 598.9,277.4 599.8,277.0 600.7,275.2 601.6,275.3 602.5,276.0 603.4,275.4 604.3,276.6 605.2,278.5 606.1,276.9 607.1,276.7 608.0,273.9 608.9,275.4 609.8,279.5 610.7,277.9 611.6,277.7 612.5,276.2 613.4,277.4 614.3,276.1 615.2,277.7 616.1,277.1 617.0,276.3 617.9,275.2 618.8,279.7 619.7,278.3 620.6,275.4 621.5,277.0 622.5,276.9 623.4,275.9 624.3,277.9 625.2,275.3 626.1,275.7 627.0,276.8 627.9,276.6 628.8,276.8 629.7,279.1 630.6,277.9 631.5,275.0 632.4,278.4 633.3,277.6 634.2,275.4 635.1,278.9 636.0,276.4 637.0,279.3 637.9,276.9 638.8,275.9 639.7,276.9 640.6,279.1 641.5,276.2 642.4,278.5 643.3,276.6 644.2,276.2 645.1,278.0 646.0,275.3 646.9,277.4 647.8,275.3 648.7,276.5 649.6,279.1 650.5,278.8 651.4,276.1 652.3,278.3 653.2,277.7 654.1,278.0 655.1,278.0 656.0,277.8 656.9,276.0 657.8,278.1 658.7,277.4 659.6,275.9 660.5,278.5 661.4,277.5 662.3,275.7 663.2,278.4 664.1,276.5 665.0,277.0 665.9,278.3 666.8,276.2 667.7,277.4 668.6,279.2 669.6,277.8 670.5,279.6 671.4,276.1 672.3,278.8 673.2,277.6 674.1,279.0 675.0,276.3" fill="none" stroke="#64748b" stroke-width="1.5" stroke-dasharray="5,3"/>
<polyline points="65.0,119.3 65.9,52.9 66.8,88.2 67.7,144.2 68.6,161.3 69.5,155.1 70.4,156.3 71.2,161.2 72.1,167.3 73.0,170.7 73.9,173.6 74.8,176.1 75.7,176.9 76.6,179.1 77.5,180.8 78.4,181.5 79.3,183.8 80.2,185.7 81.1,187.4 82.0,189.8 82.9,191.4 83.8,193.9 84.7,196.4 85.6,197.6 86.5,199.1 87.4,201.1 88.3,203.2 89.2,204.5 90.1,204.9 91.0,206.9 92.0,208.2 92.9,209.3 93.8,210.0 94.7,210.4 95.6,210.9 96.5,212.2 97.4,212.5 98.3,214.6 99.2,214.3 100.1,214.8 101.0,215.4 101.9,215.6 102.8,216.5 103.7,217.4 104.6,217.8 105.5,218.8 106.4,218.4 107.3,220.1 108.2,219.6 109.1,221.2 110.0,221.0 110.9,223.3 111.8,222.8 112.7,223.3 113.6,224.3 114.5,224.8 115.4,226.4 116.3,225.6 117.2,228.8 118.1,227.4 119.0,228.2 119.9,228.9 120.8,229.7 121.7,229.4 122.6,231.2 123.6,231.3 124.5,231.6 125.4,233.7 126.3,232.9 127.2,233.1 128.1,235.6 129.0,234.5 129.9,235.5 130.8,236.1 131.7,235.6 132.6,236.7 133.5,236.2 134.4,236.3 135.3,236.0 136.2,237.2 137.1,238.2 138.0,239.1 138.9,238.1 139.8,239.8 140.7,238.9 141.6,239.9 142.5,238.1 143.4,239.2 144.3,240.1 145.2,239.9 146.1,240.6 147.0,242.1 147.9,241.8 148.8,241.8 149.7,241.8 150.6,241.9 151.5,242.9 152.4,243.5 153.3,242.1 154.2,243.1 155.1,242.5 156.0,243.7 156.9,243.8 157.8,242.0 158.7,243.6 159.6,243.0 160.5,243.7 161.4,243.1 162.3,244.1 163.2,244.1 164.1,243.2 165.0,244.2 165.9,244.8 166.8,245.0 167.7,245.4 168.6,246.7 169.5,243.5 170.4,246.4 171.4,244.8 172.3,245.7 173.2,246.6 174.1,247.1 175.0,247.6 175.9,246.6 176.8,246.5 177.7,247.2 178.6,246.1 179.5,247.5 180.4,247.2 181.3,247.9 182.2,249.6 183.1,247.1 184.0,249.3 185.0,248.8 185.9,248.6 186.8,249.0 187.7,248.5 188.6,248.9 189.5,250.1 190.4,249.1 191.3,250.8 192.2,249.4 193.1,250.6 194.0,250.3 194.9,250.1 195.8,250.7 196.7,251.5 197.6,251.0 198.5,251.0 199.4,251.5 200.3,251.0 201.2,250.7 202.1,251.1 203.0,251.3 203.9,253.0 204.8,252.1 205.8,252.1 206.7,253.1 207.6,253.1 208.5,253.9 209.4,253.1 210.3,251.9 211.2,253.4 212.1,253.5 213.0,255.4 213.9,253.8 214.8,253.4 215.7,254.3 216.6,255.3 217.5,255.7 218.4,254.8 219.3,252.6 220.2,255.4 221.1,256.4 222.0,256.2 222.9,255.6 223.8,255.4 224.7,256.0 225.6,255.4 226.5,255.7 227.4,256.7 228.3,257.7 229.2,256.2 230.1,257.5 231.0,258.9 231.9,256.3 232.8,256.9 233.7,257.9 234.7,256.2 235.6,257.3 236.5,257.6 237.4,258.3 238.3,258.0 239.2,258.6 240.1,259.2 241.0,259.5 241.9,257.8 242.8,259.1 243.7,259.9 244.6,258.1 245.5,259.0 246.4,260.2 247.3,261.1 248.2,259.8 249.1,259.5 250.0,260.7 250.9,261.6 251.8,260.1 252.7,259.8 253.6,260.0 254.5,259.5 255.4,260.7 256.3,259.4 257.2,259.9 258.1,260.9 259.0,260.6 259.9,260.7 260.8,260.4 261.7,260.8 262.6,261.4 263.5,260.3 264.4,260.9 265.3,261.3 266.2,260.6 267.1,261.4 268.0,260.5 268.9,261.7 269.8,261.5 270.7,261.0 271.6,261.4 272.6,263.4 273.5,262.6 274.4,261.9 275.3,261.2 276.2,262.8 277.1,262.0 278.0,261.1 278.9,262.2 279.8,262.9 280.7,262.5 281.6,263.4 282.5,261.9 283.4,263.4 284.3,263.1 285.2,264.0 286.1,264.1 287.0,263.9 287.9,264.1 288.8,263.1 289.7,264.9 290.6,263.5 291.5,263.5 292.4,263.7 293.3,263.0 294.2,263.3 295.1,264.6 296.0,264.0 296.9,262.3 297.8,265.0 298.7,263.4 299.6,262.5 300.5,264.9 301.4,264.9 302.3,264.8 303.2,264.6 304.1,263.3 305.0,263.7 305.9,264.6 306.8,264.8 307.7,263.7 308.6,266.1 309.5,264.6 310.4,264.8 311.3,265.3 312.3,265.6 313.2,264.6 314.1,265.2 315.0,265.9 315.9,264.3 316.8,265.7 317.7,264.7 318.6,263.4 319.5,264.9 320.4,265.6 321.3,265.2 322.2,265.2 323.1,267.1 324.0,263.6 324.9,265.5 325.8,263.7 326.7,264.8 327.6,266.7 328.5,266.2 329.4,264.5 330.3,265.8 331.2,266.4 332.1,266.0 333.0,266.2 333.9,267.4 334.8,266.6 335.7,267.1 336.6,264.0 337.5,266.0 338.4,267.3 339.4,267.1 340.3,267.9 341.2,267.2 342.1,267.8 343.0,267.3 343.9,265.8 344.8,266.4 345.7,266.9 346.6,267.1 347.5,266.7 348.4,267.9 349.3,266.0 350.2,269.0 351.1,266.6 352.0,267.4 352.9,267.7 353.8,268.4 354.7,267.6 355.6,268.5 356.5,267.5 357.4,266.3 358.3,269.3 359.2,268.2 360.1,267.3 361.0,268.7 361.9,269.2 362.9,267.8 363.8,267.3 364.7,268.8 365.6,267.6 366.5,269.5 367.4,267.6 368.3,268.5 369.2,268.8 370.1,266.8 371.0,269.2 371.9,269.6 372.8,269.6 373.7,268.8 374.6,267.3 375.5,268.9 376.4,268.6 377.3,268.6 378.2,269.7 379.1,270.4 380.0,268.7 381.0,270.8 381.9,268.4 382.8,268.7 383.7,269.2 384.6,269.9 385.5,270.4 386.4,269.0 387.3,267.6 388.2,269.3 389.1,269.7 390.0,269.6 390.9,270.1 391.8,271.3 392.7,268.9 393.6,267.7 394.5,269.0 395.4,268.7 396.3,270.8 397.2,271.1 398.1,269.5 399.0,269.3 399.9,269.8 400.8,270.0 401.7,270.4 402.6,269.3 403.5,269.0 404.4,269.8 405.3,271.2 406.3,269.0 407.1,271.8 408.1,267.7 409.0,271.1 409.9,269.7 410.8,271.5 411.7,268.8 412.6,272.2 413.5,270.2 414.4,272.5 415.3,269.1 416.2,269.9 417.1,268.5 418.0,273.0 418.9,270.0 419.8,268.1 420.7,272.3 421.6,269.2 422.6,272.0 423.5,269.5 424.4,270.4 425.3,268.5 426.2,270.8 427.1,271.5 428.0,271.2 428.9,270.5 429.8,270.3 430.7,270.4 431.6,271.8 432.5,271.7 433.4,271.4 434.3,270.5 435.2,270.4 436.1,269.6 437.1,271.5 438.0,270.4 438.9,271.6 439.8,271.6 440.7,270.1 441.6,270.6 442.5,272.7 443.4,271.2 444.3,272.0 445.2,273.0 446.1,272.5 447.0,272.8 447.9,271.8 448.8,271.1 449.7,270.9 450.6,271.9 451.5,272.2 452.4,271.6 453.3,272.3 454.2,274.1 455.1,273.9 456.0,270.4 457.0,271.0 457.9,272.2 458.8,272.9 459.7,271.7 460.6,271.6 461.5,270.3 462.4,273.0 463.3,270.4 464.2,272.8 465.1,272.9 466.0,271.8 466.9,271.3 467.8,272.7 468.7,271.8 469.6,271.6 470.5,273.1 471.4,273.5 472.3,271.3 473.2,271.7 474.1,272.7 475.0,273.6 475.9,273.4 476.8,273.2 477.7,274.1 478.6,271.9 479.5,272.8 480.4,273.5 481.3,271.4 482.2,273.5 483.1,271.8 484.1,271.8 485.0,272.1 485.9,273.2 486.8,273.7 487.7,271.8 488.6,275.0 489.5,273.0 490.4,273.0 491.3,272.7 492.2,274.5 493.1,275.2 494.0,273.3 494.9,273.1 495.8,273.3 496.7,273.7 497.6,273.5 498.5,273.9 499.4,273.1 500.3,272.6 501.2,274.2 502.1,272.3 503.0,272.2 503.9,273.3 504.8,274.3 505.7,274.7 506.6,273.2 507.5,272.9 508.5,274.0 509.4,273.8 510.3,276.6 511.2,274.3 512.1,272.2 513.0,273.1 513.9,275.6 514.8,272.3 515.7,273.6 516.6,274.6 517.5,271.8 518.4,273.8 519.3,273.7 520.2,273.5 521.2,275.3 522.1,274.2 523.0,275.5 523.9,273.9 524.8,273.6 525.7,273.0 526.6,273.8 527.5,275.4 528.4,274.0 529.3,273.1 530.2,275.1 531.1,276.8 532.0,273.6 533.0,273.6 533.9,273.6 534.8,274.4 535.7,273.7 536.6,274.0 537.5,275.5 538.4,272.6 539.3,274.6 540.2,274.5 541.1,274.5 542.0,273.8 542.9,273.8 543.9,276.1 544.8,276.4 545.7,275.4 546.6,275.3 547.5,273.7 548.4,272.5 549.3,276.6 550.2,274.3 551.1,272.7 552.0,274.1 552.9,275.8 553.8,276.5 554.8,274.9 555.7,274.4 556.6,276.3 557.5,276.5 558.4,275.9 559.3,274.9 560.2,275.1 561.1,276.1 562.0,274.2 562.9,275.8 563.8,275.2 564.8,274.8 565.7,276.4 566.6,276.2 567.5,276.8 568.4,276.7 569.3,275.9 570.2,275.0 571.1,275.8 572.0,274.9 572.9,276.5 573.8,275.0 574.7,274.2 575.6,275.9 576.5,276.0 577.4,276.4 578.3,273.6 579.2,277.5 580.2,275.8 581.0,278.7 582.0,276.4 583.0,275.7 583.9,275.3 584.8,274.5 585.7,275.1 586.6,276.1 587.5,276.7 588.4,275.1 589.3,276.9 590.2,276.6 591.1,277.1 592.0,276.1 592.9,276.7 593.8,275.6 594.8,274.7 595.7,274.3 596.6,275.8 597.5,276.9 598.4,276.7 599.3,276.3 600.2,275.9 601.1,276.5 602.0,276.2 602.9,277.0 603.8,277.8 604.7,276.3 605.6,273.9 606.5,277.3 607.5,276.5 608.4,276.3 609.3,273.4 610.2,277.7 611.1,278.2 612.0,275.8 612.9,275.6 613.8,277.9 614.7,276.4 615.6,277.6 616.5,275.9 617.4,275.3 618.3,278.0 619.2,277.6 620.1,276.5 621.1,277.4 622.0,276.9 622.9,277.1 623.8,277.2 624.7,276.0 625.6,278.9 626.5,275.8 627.4,275.5 628.3,275.5 629.2,279.6 630.2,277.2 631.1,276.7 632.0,276.9 632.9,276.5 633.8,279.0 634.7,276.5 635.6,275.3 636.5,275.6 637.4,278.0 638.3,276.2 639.2,279.4 640.1,276.8 641.0,276.3 641.9,277.9 642.9,277.8 643.8,275.9 644.7,276.9 645.6,277.6 646.5,275.4 647.4,276.7 648.3,277.2 649.2,276.7 650.1,277.5 651.0,277.0 651.9,277.5 652.8,278.5 653.7,276.7 654.6,275.7 655.5,278.6 656.4,277.4 657.4,276.2 658.3,277.0 659.2,277.0 660.1,276.5 661.0,278.4 661.9,278.3 662.8,276.0 663.7,275.8 664.6,276.7 665.5,278.6 666.4,278.0 667.3,276.4 668.3,280.5 669.2,275.5 670.1,277.3 671.0,277.8 671.9,280.0 672.8,277.4 673.7,276.9 674.6,277.8" fill="none" stroke="#16a34a" stroke-width="1.5"/>
<polyline points="65.0,97.1 65.9,195.9 66.8,308.7 67.7,243.5 68.6,173.1 69.5,92.3 70.4,112.7 71.2,42.8 72.1,149.2 73.0,169.2 73.9,189.0 74.8,237.1 75.7,176.6 76.6,204.4 77.5,184.1 78.4,149.8 79.3,166.0 80.2,235.8 81.1,249.7 82.0,264.1 82.9,258.5 83.8,303.9 84.7,327.2 85.6,278.1 86.5,256.7 87.4,246.6 88.3,253.7 89.2,227.2 90.1,177.1 91.0,207.3 92.0,221.4 92.9,237.9 93.8,200.9 94.7,181.2 95.6,152.1 96.5,169.5 97.4,181.9 98.3,224.0 99.2,184.5 100.1,177.1 101.0,177.2 101.9,156.9 102.8,163.9 103.7,185.5 104.6,190.5 105.5,173.0 106.4,150.0 107.3,202.0 108.2,201.3 109.1,198.7 110.0,189.9 110.9,231.2 111.8,191.3 112.7,196.4 113.6,194.9 114.5,189.7 115.4,227.6 116.3,197.8 117.2,262.9 118.1,197.2 119.0,215.1 119.9,199.6 120.8,221.7 121.7,195.0 122.6,209.1 123.6,173.4 124.5,146.6 125.4,206.4 126.3,180.2 127.2,166.5 128.1,219.8 129.0,178.6 129.9,181.9 130.8,182.0 131.7,173.8 132.6,190.0 133.5,171.5 134.4,155.6 135.3,137.6 136.2,137.2 137.1,151.7 138.0,186.6 138.9,157.3 139.8,200.0 140.7,139.2 141.6,161.1 142.5,116.0 143.4,123.1 144.3,141.7 145.2,159.6 146.1,142.0 147.0,149.2 147.9,169.2 148.8,166.0 149.7,144.2 150.6,150.1 151.5,178.6 152.4,188.9 153.3,145.4 154.2,150.5 155.1,130.8 156.0,173.4 156.9,156.5 157.8,100.9 158.7,147.9 159.6,103.3 160.5,157.7 161.4,152.3 162.3,146.2 163.2,157.6 164.1,125.5 165.0,128.7 165.9,128.4 166.8,129.0 167.7,151.8 168.6,199.4 169.5,75.0 170.4,164.6 171.4,104.0 172.3,127.7 173.2,168.1 174.1,181.5 175.0,218.1 175.9,132.0 176.8,120.9 177.7,162.7 178.6,115.5 179.5,175.5 180.4,137.5 181.3,112.5 182.2,200.7 183.1,130.9 184.0,203.5 185.0,176.6 185.9,170.2 186.8,180.0 187.7,131.7 188.6,144.9 189.5,202.4 190.4,156.0 191.3,219.9 192.2,163.0 193.1,176.7 194.0,169.8 194.9,148.2 195.8,153.5 196.7,171.1 197.6,187.1 198.5,184.8 199.4,183.6 200.3,161.7 201.2,132.0 202.1,135.8 203.0,147.8 203.9,190.5 204.8,165.4 205.8,152.8 206.7,185.0 207.6,166.1 208.5,200.1 209.4,171.0 210.3,161.1 211.2,172.7 212.1,149.0 213.0,211.1 213.9,188.0 214.8,148.9 215.7,135.9 216.6,205.1 217.5,175.1 218.4,182.2 219.3,115.9 220.2,191.6 221.1,209.9 222.0,210.4 222.9,193.6 223.8,187.2 224.7,169.8 225.6,161.4 226.5,166.9 227.4,193.9 228.3,201.0 229.2,174.3 230.1,196.5 231.0,228.6 231.9,153.7 232.8,158.5 233.7,186.4 234.7,151.8 235.6,172.0 236.5,161.6 237.4,200.1 238.3,169.2 239.2,168.6 240.1,177.0 241.0,193.0 241.9,166.2 242.8,179.6 243.7,194.0 244.6,158.7 245.5,180.3 246.4,201.0 247.3,180.3 248.2,161.0 249.1,157.9 250.0,176.2 250.9,186.2 251.8,156.2 252.7,158.1 253.6,161.5 254.5,156.3 255.4,163.5 256.3,118.0 257.2,134.8 258.1,171.5 259.0,152.6 259.9,125.3 260.8,130.3 261.7,167.5 262.6,171.5 263.5,137.5 264.4,146.1 265.3,156.2 266.2,137.0 267.1,156.8 268.0,127.4 268.9,146.0 269.8,143.5 270.7,117.9 271.6,130.2 272.6,174.0 273.5,152.0 274.4,140.5 275.3,127.8 276.2,157.7 277.1,115.5 278.0,96.4 278.9,125.6 279.8,115.2 280.7,101.8 281.6,140.4 282.5,112.7 283.4,159.8 284.3,126.4 285.2,149.8 286.1,149.0 287.0,119.2 287.9,133.3 288.8,131.5 289.7,173.2 290.6,152.6 291.5,138.2 292.4,156.1 293.3,144.8 294.2,109.0 295.1,155.0 296.0,136.4 296.9,86.6 297.8,155.5 298.7,111.9 299.6,53.3 300.5,97.8 301.4,131.3 302.3,148.9 303.2,113.7 304.1,72.5 305.0,105.5 305.9,118.2 306.8,131.8 307.7,117.6 308.6,160.4 309.5,137.7 310.4,152.2 311.3,165.1 312.3,131.2 313.2,114.3 314.1,131.8 315.0,143.9 315.9,111.5 316.8,143.4 317.7,100.6 318.6,71.8 319.5,125.6 320.4,114.7 321.3,145.5 322.2,98.6 323.1,181.2 324.0,74.8 324.9,106.9 325.8,62.9 326.7,137.3 327.6,153.7 328.5,108.9 329.4,58.8 330.3,97.4 331.2,145.9 332.1,87.4 333.0,124.8 333.9,149.1 334.8,122.1 335.7,135.5 336.6,52.3 337.5,92.3 338.4,114.2 339.4,130.3 340.3,145.7 341.2,122.6 342.1,120.4 343.0,124.9 343.9,69.4 344.8,112.7 345.7,110.5 346.6,123.5 347.5,73.7 348.4,112.9 349.3,83.3 350.2,116.0 351.1,82.3 352.0,99.8 352.9,107.7 353.8,155.1 354.7,101.6 355.6,124.0 356.5,103.9 357.4,108.2 358.3,174.5 359.2,143.4 360.1,95.4 361.0,113.6 361.9,127.3 362.9,90.6 363.8,113.7 364.7,152.6 365.6,93.1 366.5,141.3 367.4,110.0 368.3,170.3 369.2,145.7 370.1,72.9 371.0,119.3 371.9,134.8 372.8,131.0 373.7,123.4 374.6,111.2 375.5,126.5 376.4,136.7 377.3,118.1 378.2,109.1 379.1,184.4 380.0,125.8 381.0,142.2 381.9,93.6 382.8,121.8 383.7,137.8 384.6,119.8 385.5,172.3 386.4,92.4 387.3,59.0 388.2,122.8 389.1,102.9 390.0,97.0 390.9,105.5 391.8,172.0 392.7,58.6 393.6,72.1 394.5,85.4 395.4,112.1 396.3,199.0 397.2,144.8 398.1,110.1 399.0,60.8 399.9,115.2 400.8,127.1 401.7,143.8 402.6,100.0 403.5,70.0 404.4,73.6 405.3,161.6 406.3,103.6 407.1,139.4 408.1,61.2 409.0,94.7 409.9,80.0 410.8,171.0 411.7,109.8 412.6,165.2 413.5,94.1 414.4,131.3 415.3,74.7 416.2,107.4 417.1,66.8 418.0,189.0 418.9,125.3 419.8,46.0 420.7,157.3 421.6,97.3 422.6,145.6 423.5,114.7 424.4,122.1 425.3,42.8 426.2,130.8 427.1,123.2 428.0,114.1 428.9,113.7 429.8,82.5 430.7,109.1 431.6,115.7 432.5,120.0 433.4,103.7 434.3,101.1 435.2,99.6 436.1,91.2 437.1,140.8 438.0,132.3 438.9,135.3 439.8,134.5 440.7,114.4 441.6,113.0 442.5,135.2 443.4,87.4 444.3,117.9 445.2,137.0 446.1,112.8 447.0,144.8 447.9,129.1 448.8,118.6 449.7,108.6 450.6,128.4 451.5,152.3 452.4,116.1 453.3,142.8 454.2,208.0 455.1,160.4 456.0,101.6 457.0,116.5 457.9,123.0 458.8,148.9 459.7,109.1 460.6,82.4 461.5,65.9 462.4,126.8 463.3,97.4 464.2,146.8 465.1,132.4 466.0,100.6 466.9,95.6 467.8,122.1 468.7,109.6 469.6,106.0 470.5,121.7 471.4,126.4 472.3,91.0 473.2,132.8 474.1,143.3 475.0,120.3 475.9,144.2 476.8,131.7 477.7,116.3 478.6,85.8 479.5,95.5 480.4,137.1 481.3,104.1 482.2,129.4 483.1,104.1 484.1,101.7 485.0,121.6 485.9,153.5 486.8,135.1 487.7,82.6 488.6,165.4 489.5,115.1 490.4,97.5 491.3,106.2 492.2,155.8 493.1,153.2 494.0,112.2 494.9,127.2 495.8,130.9 496.7,121.8 497.6,126.5 498.5,151.5 499.4,123.9 500.3,137.4 501.2,176.6 502.1,112.4 503.0,115.1 503.9,135.7 504.8,144.2 505.7,126.3 506.6,100.8 507.5,82.0 508.5,122.9 509.4,158.0 510.3,197.8 511.2,144.9 512.1,84.9 513.0,99.7 513.9,157.6 514.8,88.6 515.7,113.4 516.6,149.8 517.5,92.3 518.4,142.1 519.3,164.3 520.2,142.5 521.2,171.8 522.1,126.1 523.0,165.1 523.9,163.5 524.8,142.4 525.7,104.8 526.6,136.2 527.5,175.4 528.4,126.5 529.3,85.9 530.2,141.8 531.1,184.0 532.0,116.3 533.0,123.1 533.9,131.5 534.8,148.5 535.7,99.6 536.6,88.8 537.5,130.3 538.4,52.5 539.3,109.2 540.2,119.2 541.1,88.1 542.0,86.9 542.9,94.6 543.9,138.1 544.8,158.2 545.7,149.9 546.6,146.9 547.5,111.4 548.4,85.6 549.3,155.1 550.2,91.3 551.1,78.4 552.0,125.3 552.9,162.5 553.8,172.9 554.8,128.0 555.7,110.7 556.6,149.9 557.5,184.3 558.4,173.7 559.3,145.5 560.2,131.8 561.1,152.2 562.0,118.2 562.9,158.8 563.8,134.8 564.8,112.5 565.7,151.2 566.6,143.5 567.5,165.3 568.4,178.0 569.3,143.9 570.2,145.9 571.1,157.1 572.0,81.1 572.9,115.7 573.8,101.8 574.7,77.6 575.6,113.0 576.5,113.8 577.4,148.3 578.3,98.3 579.2,161.2 580.2,128.2 581.0,190.2 582.0,128.3 583.0,121.3 583.9,113.3 584.8,90.9 585.7,118.4 586.6,140.0 587.5,122.2 588.4,115.8 589.3,152.1 590.2,124.2 591.1,149.9 592.0,126.9 592.9,163.2 593.8,134.7 594.8,128.6 595.7,114.4 596.6,130.9 597.5,159.3 598.4,137.2 599.3,108.1 600.2,122.9 601.1,155.5 602.0,142.4 602.9,155.2 603.8,167.4 604.7,106.0 605.6,45.7 606.5,137.9 607.5,150.0 608.4,164.9 609.3,47.6 610.2,105.9 611.1,135.9 612.0,102.0 612.9,104.7 613.8,152.1 614.7,121.2 615.6,132.7 616.5,110.7 617.4,118.1 618.3,144.0 619.2,99.1 620.1,119.5 621.1,156.5 622.0,127.2 622.9,143.0 623.8,136.6 624.7,113.0 625.6,199.4 626.5,119.5 627.4,102.4 628.3,103.1 629.2,162.8 630.2,102.7 631.1,132.7 632.0,132.0 632.9,96.6 633.8,182.8 634.7,112.2 635.6,80.2 636.5,80.9 637.4,126.1 638.3,124.6 639.2,192.2 640.1,103.8 641.0,102.4 641.9,140.0 642.9,135.9 643.8,118.1 644.7,124.4 645.6,151.5 646.5,107.3 647.4,137.5 648.3,154.4 649.2,105.4 650.1,99.7 651.0,121.9 651.9,133.6 652.8,140.4 653.7,105.3 654.6,80.0 655.5,143.6 656.4,141.4 657.4,108.6 658.3,113.1 659.2,138.5 660.1,112.4 661.0,137.2 661.9,165.4 662.8,104.4 663.7,94.7 664.6,127.0 665.5,147.3 666.4,146.9 667.3,120.3 668.3,173.0 669.2,68.5 670.1,96.7 671.0,131.5 671.9,178.2 672.8,112.9 673.7,98.0 674.6,134.1" fill="none" stroke="#2563eb" stroke-width="2.5"/>
<rect x="65" y="20" width="610" height="330" fill="none" stroke="#888" stroke-width="1.5"/>
<line x1="62" y1="308.5" x2="65" y2="308.5" stroke="#64748b" stroke-width="1" opacity="0.6"/>
<line x1="62" y1="260.0" x2="65" y2="260.0" stroke="#64748b" stroke-width="1" opacity="0.6"/>
<line x1="62" y1="199.0" x2="65" y2="199.0" stroke="#64748b" stroke-width="1" opacity="0.6"/>
<line x1="60" y1="116.3" x2="65" y2="116.3" stroke="#64748b" stroke-width="1.5"/>
<text x="57" y="116.3" text-anchor="end" dominant-baseline="middle" font-size="11" font-family="monospace,sans-serif" fill="#64748b">10</text>
<line x1="62" y1="33.5" x2="65" y2="33.5" stroke="#64748b" stroke-width="1" opacity="0.6"/>
<line x1="675" y1="321.1" x2="680" y2="321.1" stroke="#2563eb" stroke-width="1.5"/>
<text x="683" y="321.1" text-anchor="start" dominant-baseline="middle" font-size="11" font-family="monospace,sans-serif" fill="#2563eb">-0.20</text>
<line x1="675" y1="225.0" x2="680" y2="225.0" stroke="#2563eb" stroke-width="1.5"/>
<text x="683" y="225.0" text-anchor="start" dominant-baseline="middle" font-size="11" font-family="monospace,sans-serif" fill="#2563eb">-0.10</text>
<line x1="675" y1="128.9" x2="680" y2="128.9" stroke="#2563eb" stroke-width="1.5"/>
<text x="683" y="128.9" text-anchor="start" dominant-baseline="middle" font-size="11" font-family="monospace,sans-serif" fill="#2563eb">0.00</text>
<line x1="675" y1="32.9" x2="680" y2="32.9" stroke="#2563eb" stroke-width="1.5"/>
<text x="683" y="32.9" text-anchor="start" dominant-baseline="middle" font-size="11" font-family="monospace,sans-serif" fill="#2563eb">0.10</text>
<line x1="65.0" y1="350" x2="65.0" y2="355" stroke="#888" stroke-width="1.5"/>
<text x="65.0" y="368" text-anchor="middle" font-size="11" font-family="monospace,sans-serif">0</text>
<line x1="187.1" y1="350" x2="187.1" y2="355" stroke="#888" stroke-width="1.5"/>
<text x="187.1" y="368" text-anchor="middle" font-size="11" font-family="monospace,sans-serif">2</text>
<line x1="309.2" y1="350" x2="309.2" y2="355" stroke="#888" stroke-width="1.5"/>
<text x="309.2" y="368" text-anchor="middle" font-size="11" font-family="monospace,sans-serif">4</text>
<line x1="431.3" y1="350" x2="431.3" y2="355" stroke="#888" stroke-width="1.5"/>
<text x="431.3" y="368" text-anchor="middle" font-size="11" font-family="monospace,sans-serif">6</text>
<line x1="553.3" y1="350" x2="553.3" y2="355" stroke="#888" stroke-width="1.5"/>
<text x="553.3" y="368" text-anchor="middle" font-size="11" font-family="monospace,sans-serif">8</text>
<line x1="675.4" y1="350" x2="675.4" y2="355" stroke="#888" stroke-width="1.5"/>
<text x="675.4" y="368" text-anchor="middle" font-size="11" font-family="monospace,sans-serif">10</text>
<text x="370" y="392" text-anchor="middle" font-size="13" font-family="sans-serif">Runtime (minutes)</text>
<text transform="rotate(-90,28,185)" x="28" y="185" text-anchor="middle" font-size="13" font-family="sans-serif" fill="#64748b">Train loss (log scale)</text>
<text transform="rotate(90,746,185)" x="746" y="185" text-anchor="middle" font-size="13" font-family="sans-serif" fill="#2563eb">Train loss diff (exp − base)</text>
<rect x="72" y="26" width="140" height="62" fill="white" fill-opacity="0.85" stroke="#ddd" stroke-width="1" rx="3"/>
<line x1="77" y1="37" x2="99" y2="37" stroke="#64748b" stroke-width="1.5" stroke-dasharray="5,3"/>
<text x="104" y="41" font-size="11" font-family="sans-serif" fill="#64748b">Baseline train loss</text>
<line x1="77" y1="55" x2="99" y2="55" stroke="#16a34a" stroke-width="1.5"/>
<text x="104" y="59" font-size="11" font-family="sans-serif" fill="#16a34a">Experiment train loss</text>
<line x1="77" y1="73" x2="99" y2="73" stroke="#2563eb" stroke-width="2.5"/>
<text x="104" y="77" font-size="11" font-family="sans-serif" fill="#2563eb">Train loss diff</text>
</svg>