<svg xmlns="http://www.w3.org/2000/svg" viewBox="0 0 760 400" width="760" height="400" style="background:white">
<rect x="65" y="20" width="610" height="330" fill="#f9f9f9"/>
<line x1="65" y1="308.5" x2="675" y2="308.5" stroke="#ececec" stroke-width="1"/>
<line x1="65" y1="260.0" x2="675" y2="260.0" stroke="#ececec" stroke-width="1"/>
<line x1="65" y1="199.0" x2="675" y2="199.0" stroke="#ececec" stroke-width="1"/>
<line x1="65" y1="116.3" x2="675" y2="116.3" stroke="#ddd" stroke-width="1"/>
<line x1="65" y1="33.5" x2="675" y2="33.5" stroke="#ececec" stroke-width="1"/>
<line x1="65.0" y1="20" x2="65.0" y2="350" stroke="#ececec" stroke-width="1"/>
<line x1="187.1" y1="20" x2="187.1" y2="350" stroke="#ececec" stroke-width="1"/>
<line x1="309.3" y1="20" x2="309.3" y2="350" stroke="#ececec" stroke-width="1"/>
<line x1="431.4" y1="20" x2="431.4" y2="350" stroke="#ececec" stroke-width="1"/>
<line x1="553.6" y1="20" x2="553.6" y2="350" stroke="#ececec" stroke-width="1"/>
<line x1="675.7" y1="20" x2="675.7" y2="350" stroke="#ececec" stroke-width="1"/>
<line x1="65" y1="285.4" x2="675" y2="285.4" stroke="#2563eb" stroke-width="0.75" stroke-dasharray="3,3" opacity="0.4"/>
<polyline points="65.0,119.8 65.7,52.7 66.4,85.4 67.2,143.1 67.9,161.7 68.6,155.9 69.3,156.3 70.1,160.5 70.8,165.4 71.5,169.2 72.2,173.0 72.9,174.1 73.7,175.4 74.4,177.2 75.1,179.4 75.9,182.9 76.6,182.6 77.3,184.4 78.1,185.3 78.8,187.9 79.5,183.4 80.3,190.6 81.0,195.3 81.7,195.4 82.5,197.5 83.2,199.1 83.9,201.0 84.7,202.6 85.4,203.9 86.1,205.5 86.9,207.3 87.6,206.5 88.3,208.8 89.1,210.2 89.8,209.9 90.5,211.2 91.3,211.7 92.0,213.6 92.7,213.0 93.5,211.6 94.2,215.0 94.9,216.3 95.7,215.9 96.4,216.4 97.2,218.2 97.9,216.4 98.6,215.7 99.3,216.3 100.1,217.6 100.8,217.9 101.5,220.5 102.3,218.4 103.0,221.0 103.7,216.1 104.5,223.2 105.2,221.9 105.9,224.2 106.7,223.4 107.4,223.2 108.1,225.6 108.9,224.9 109.6,226.2 110.3,225.8 111.1,228.0 111.8,229.5 112.6,228.1 113.3,229.9 114.0,229.6 114.7,229.6 115.5,228.9 116.2,231.5 116.9,228.9 117.7,229.7 118.4,231.5 119.1,231.5 119.9,233.3 120.6,232.0 121.4,234.0 122.1,232.7 122.8,236.1 123.6,235.2 124.3,234.4 125.0,234.6 125.8,233.6 126.5,232.0 127.2,230.8 128.0,235.6 128.7,233.4 129.5,235.9 130.2,236.0 130.9,235.3 131.7,234.7 132.4,232.1 133.1,234.5 133.9,236.5 134.6,236.2 135.3,237.5 136.1,235.4 136.8,239.0 137.5,233.1 138.3,238.7 139.0,238.8 139.8,238.1 140.5,239.0 141.2,240.5 142.0,239.5 142.7,239.8 143.4,241.3 144.2,240.6 144.9,241.0 145.6,236.4 146.4,241.3 147.1,241.1 147.9,242.2 148.6,241.8 149.3,241.0 150.1,244.4 150.8,239.8 151.5,240.6 152.3,242.8 153.0,242.2 153.8,244.3 154.5,242.3 155.2,238.8 156.0,245.0 156.7,243.3 157.4,243.1 158.2,243.9 158.9,244.6 159.7,244.0 160.4,245.5 161.1,244.2 161.9,245.5 162.6,246.0 163.3,241.8 164.1,246.5 164.8,246.6 165.6,245.1 166.3,247.4 167.0,247.2 167.8,246.3 168.5,247.1 169.2,246.4 170.0,244.9 170.7,248.1 171.5,246.2 172.2,248.8 172.9,246.1 173.7,247.4 174.4,245.7 175.1,247.1 175.9,247.5 176.6,245.5 177.3,249.1 178.1,248.2 178.8,248.1 179.6,247.3 180.3,246.2 181.0,247.8 181.8,248.0 182.5,250.2 183.2,247.2 184.0,248.8 184.7,246.6 185.5,243.3 186.2,247.7 186.9,248.8 187.7,249.7 188.4,248.0 189.2,247.2 189.9,246.4 190.6,248.4 191.4,248.0 192.1,249.3 192.8,247.3 193.6,249.0 194.3,249.4 195.0,250.6 195.8,250.2 196.5,248.7 197.3,250.5 198.0,240.0 198.7,248.8 199.5,250.7 200.2,251.8 201.0,246.5 201.7,252.7 202.4,250.3 203.2,252.9 203.9,250.6 204.6,252.3 205.4,250.1 206.1,252.6 206.8,251.4 207.6,251.6 208.3,251.9 209.1,250.9 209.8,252.5 210.5,253.6 211.3,252.8 212.0,251.7 212.8,251.3 213.5,255.2 214.2,254.8 215.0,248.8 215.7,252.1 216.5,254.0 217.2,253.9 217.9,254.9 218.7,258.1 219.4,256.3 220.1,255.7 220.9,255.1 221.6,254.5 222.4,254.8 223.1,255.2 223.8,254.4 224.6,255.3 225.3,257.0 226.0,257.0 226.8,258.2 227.5,257.4 228.3,257.5 229.0,257.2 229.7,259.1 230.5,259.2 231.2,258.0 232.0,260.6 232.7,258.7 233.4,260.1 234.2,259.0 234.9,260.3 235.6,259.9 236.4,261.2 237.1,260.1 237.8,262.0 238.6,262.1 239.3,259.5 240.1,244.4 240.8,260.8 241.5,257.8 242.3,257.5 243.0,260.7 243.7,264.4 244.5,257.7 245.2,257.9 246.0,260.4 246.7,260.1 247.4,259.8 248.2,261.3 248.9,262.3 249.6,260.4 250.4,261.6 251.1,260.3 251.9,259.6 252.6,263.2 253.3,261.6 254.1,260.1 254.8,260.7 255.5,264.0 256.3,263.3 257.0,262.9 257.7,261.4 258.5,264.1 259.2,262.7 259.9,263.8 260.7,261.5 261.4,262.5 262.2,261.4 262.9,259.0 263.6,259.5 264.4,262.0 265.1,264.0 265.8,261.6 266.6,258.9 267.3,262.2 268.1,262.2 268.8,261.9 269.5,261.5 270.3,260.3 271.0,264.5 271.7,264.6 272.5,258.7 273.2,254.7 273.9,255.7 274.7,260.8 275.4,262.0 276.2,263.4 276.9,259.3 277.6,261.9 278.4,263.4 279.1,265.7 279.8,262.5 280.6,260.2 281.3,262.3 282.1,263.6 282.8,262.4 283.5,262.0 284.3,259.0 285.0,263.3 285.7,262.5 286.5,262.8 287.2,263.2 287.9,262.9 288.7,268.3 289.4,263.3 290.2,263.3 290.9,264.3 291.7,265.5 292.4,263.1 293.1,263.1 293.9,262.9 294.6,260.9 295.3,268.0 296.1,266.2 296.8,263.6 297.6,263.3 298.3,266.8 299.0,266.5 299.8,263.4 300.5,264.6 301.3,263.9 302.0,263.0 302.7,266.0 303.5,266.6 304.2,265.9 304.9,266.2 305.7,264.5 306.4,266.9 307.1,266.5 307.9,267.8 308.6,267.3 309.3,266.6 310.1,264.8 310.8,264.8 311.6,265.7 312.3,267.6 313.0,268.6 313.8,268.4 314.5,269.6 315.3,266.7 316.0,266.4 316.7,264.1 317.5,267.2 318.2,268.5 318.9,267.1 319.7,264.7 320.4,267.2 321.2,272.0 321.9,269.2 322.6,267.2 323.4,266.8 324.1,267.8 324.9,268.5 325.6,269.5 326.3,267.1 327.1,268.4 327.8,267.2 328.5,271.3 329.3,266.2 330.0,267.9 330.7,268.3 331.5,268.8 332.2,268.6 332.9,269.2 333.7,272.0 334.4,266.2 335.2,269.5 335.9,265.3 336.6,266.1 337.4,263.6 338.1,267.2 338.9,267.9 339.6,266.1 340.3,267.3 341.1,269.8 341.8,267.3 342.6,265.1 343.3,272.1 344.0,251.6 344.8,262.1 345.5,260.5 346.2,275.1 347.0,264.9 347.7,269.8 348.5,265.1 349.2,266.7 349.9,268.6 350.7,267.2 351.4,265.8 352.1,266.0 352.9,267.9 353.6,267.1 354.3,267.6 355.1,267.2 355.8,267.7 356.6,266.3 357.3,274.1 358.0,268.6 358.8,266.3 359.5,267.1 360.3,267.6 361.0,266.1 361.7,267.6 362.5,268.9 363.2,266.8 363.9,267.7 364.7,268.2 365.4,270.2 366.1,267.5 366.9,270.8 367.6,267.9 368.4,267.0 369.1,265.9 369.8,268.4 370.6,277.4 371.3,269.7 372.0,265.5 372.8,267.6 373.5,265.7 374.3,265.4 375.0,267.5 375.7,266.6 376.4,270.2 377.2,268.7 377.9,269.0 378.7,267.6 379.4,269.5 380.1,273.2 380.9,279.5 381.6,270.0 382.4,269.6 383.1,269.3 383.8,269.6 384.6,272.7 385.3,270.3 386.1,268.3 386.8,272.7 387.5,270.7 388.3,273.3 389.0,268.6 389.7,271.4 390.5,270.0 391.2,270.2 391.9,270.5 392.7,272.7 393.4,268.8 394.2,265.9 394.9,270.9 395.6,273.7 396.4,269.4 397.1,272.0 397.9,272.6 398.6,269.7 399.3,271.8 400.0,273.2 400.8,271.2 401.5,270.1 402.3,273.8 403.0,270.9 403.7,273.0 404.5,274.1 405.2,270.7 405.9,272.4 406.7,271.0 407.4,273.8 408.2,274.0 408.9,270.9 409.6,267.2 410.4,268.8 411.1,269.2 411.9,270.4 412.6,270.7 413.3,270.3 414.1,269.7 414.8,268.3 415.6,268.7 416.3,269.6 417.0,271.5 417.8,269.3 418.5,266.8 419.2,270.3 420.0,269.8 420.7,269.3 421.4,268.6 422.2,269.2 422.9,272.8 423.7,265.8 424.4,272.7 425.1,267.7 425.9,273.7 426.6,271.9 427.4,270.9 428.1,269.3 428.8,270.0 429.6,275.4 430.3,271.9 431.1,270.4 431.8,271.7 432.5,270.3 433.3,270.1 434.0,266.5 434.7,272.1 435.5,268.7 436.2,268.8 436.9,269.5 437.7,271.6 438.4,269.8 439.2,272.0 439.9,272.8 440.6,271.9 441.4,267.8 442.1,270.8 442.8,269.0 443.6,271.6 444.3,266.6 445.0,268.9 445.8,269.4 446.5,271.2 447.2,272.4 448.0,272.6 448.7,266.4 449.5,268.4 450.2,270.6 450.9,268.3 451.7,269.7 452.4,270.5 453.1,271.3 453.9,271.2 454.6,272.2 455.4,271.2 456.1,269.9 456.8,270.5 457.6,269.8 458.3,272.7 459.0,273.1 459.8,275.3 460.5,271.2 461.3,272.5 462.0,272.8 462.7,276.0 463.5,274.0 464.2,273.0 464.9,276.6 465.7,273.5 466.4,272.7 467.2,275.0 467.9,274.3 468.6,273.8 469.4,272.5 470.1,276.1 470.8,275.6 471.6,270.5 472.3,278.0 473.0,276.1 473.8,275.1 474.5,274.1 475.3,275.2 476.0,276.6 476.7,273.6 477.5,275.0 478.2,273.3 479.0,273.1 479.7,272.6 480.4,269.2 481.2,267.8 481.9,272.3 482.6,270.9 483.4,273.4 484.1,271.0 484.8,270.3 485.6,271.5 486.3,271.4 487.0,271.9 487.8,279.3 488.5,274.7 489.3,272.6 490.0,274.4 490.7,273.8 491.5,278.7 492.2,258.4 492.9,271.8 493.7,272.6 494.4,276.6 495.1,272.8 495.9,274.0 496.6,274.3 497.4,273.5 498.1,276.4 498.8,274.5 499.6,272.5 500.3,272.2 501.0,271.4 501.8,271.3 502.5,271.4 503.2,271.4 504.0,271.8 504.7,271.3 505.5,272.1 506.2,272.6 506.9,274.3 507.7,274.1 508.4,273.8 509.1,273.3 509.9,269.4 510.6,270.8 511.3,272.6 512.1,272.9 512.8,275.9 513.5,273.4 514.3,270.3 515.0,272.4 515.8,272.6 516.5,270.9 517.2,272.9 518.0,275.7 518.7,274.1 519.4,272.7 520.2,276.0 520.9,276.4 521.7,272.8 522.4,267.7 523.1,276.9 523.9,275.3 524.6,274.4 525.3,276.0 526.1,278.2 526.8,275.6 527.6,274.6 528.3,277.0 529.0,273.0 529.8,277.3 530.5,281.3 531.2,274.9 532.0,274.8 532.7,277.9 533.5,274.4 534.2,276.6 534.9,275.9 535.7,276.2 536.4,276.5 537.1,274.5 537.9,272.7 538.6,277.3 539.4,275.1 540.1,277.9 540.8,279.8 541.6,275.7 542.3,276.6 543.0,276.6 543.8,275.5 544.5,277.6 545.2,278.1 546.0,274.1 546.7,275.6 547.5,276.7 548.2,270.1 548.9,274.0 549.7,275.2 550.4,272.7 551.1,275.4 551.9,275.6 552.6,275.6 553.4,274.8 554.1,276.2 554.8,271.5 555.6,272.5 556.3,265.9 557.0,274.9 557.8,273.8 558.5,275.8 559.2,276.9 560.0,279.1 560.7,273.6 561.5,276.7 562.2,273.2 562.9,272.3 563.7,271.3 564.4,272.7 565.2,275.1 565.9,275.9 566.6,280.3 567.4,276.8 568.1,274.6 568.8,275.5 569.6,260.9 570.3,276.9 571.0,276.4 571.8,274.0 572.5,274.9 573.3,275.8 574.0,275.8 574.7,276.3 575.5,275.4 576.2,278.3 576.9,271.3 577.7,275.9 578.4,276.4 579.2,279.1 579.9,283.6 580.6,279.9 581.4,277.5 582.1,277.8 582.8,275.4 583.6,276.0 584.3,276.5 585.0,277.2 585.8,276.3 586.5,275.6 587.3,274.3 588.0,279.9 588.7,277.1 589.5,273.7 590.2,270.0 590.9,274.0 591.7,276.9 592.4,278.1 593.1,279.0 593.9,276.1 594.6,273.8 595.4,281.4 596.1,270.3 596.8,278.2 597.6,275.5 598.3,279.5 599.1,276.5 599.8,276.2 600.5,276.6 601.3,275.1 602.0,273.2 602.7,275.3 603.5,277.2 604.2,286.5 605.0,278.8 605.7,274.6 606.4,276.1 607.2,274.3 607.9,272.3 608.6,275.9 609.4,277.5 610.1,275.1 610.9,278.5 611.6,278.1 612.3,276.3 613.1,277.7 613.8,278.4 614.6,278.1 615.3,273.8 616.0,275.3 616.8,276.8 617.5,279.0 618.3,275.3 619.0,287.6 619.7,274.6 620.5,277.9 621.2,274.8 621.9,271.4 622.7,281.9 623.4,274.8 624.2,276.4 624.9,273.2 625.6,276.1 626.4,277.5 627.1,275.6 627.9,274.0 628.6,274.0 629.3,273.0 630.1,275.5 630.8,276.9 631.6,276.2 632.3,278.3 633.0,281.9 633.8,279.1 634.5,278.7 635.2,276.7 636.0,278.3 636.7,278.5 637.4,277.2 638.2,277.3 638.9,275.2 639.6,276.3 640.4,276.4 641.1,277.7 641.8,278.0 642.6,276.2 643.3,279.2 644.1,278.6 644.8,281.1 645.5,280.1 646.3,279.2 647.0,274.3 647.7,280.3 648.5,281.9 649.2,292.1 650.0,280.0 650.7,278.3 651.4,277.4 652.2,278.2 652.9,281.5 653.6,279.4 654.4,279.0 655.1,277.7 655.9,282.5 656.6,278.6 657.3,281.7 658.1,278.3 658.8,278.7 659.5,277.4 660.3,278.6 661.0,278.8 661.8,278.2 662.5,281.6 663.2,276.4 664.0,278.2 664.7,277.5 665.4,282.3 666.2,279.1 666.9,280.0 667.6,282.8 668.4,279.9 669.1,280.2 669.8,277.4 670.6,281.5 671.3,280.2 672.1,280.6 672.8,278.8 673.5,277.9 674.3,276.0 675.0,282.3" fill="none" stroke="#64748b" stroke-width="1.5" stroke-dasharray="5,3"/>
<polyline points="65.0,119.3 65.9,52.9 66.8,88.2 67.7,144.2 68.6,161.3 69.5,155.1 70.4,156.3 71.2,161.2 72.1,167.3 73.0,170.7 73.9,173.6 74.8,176.1 75.7,176.9 76.6,179.1 77.5,180.8 78.4,181.5 79.3,183.8 80.2,185.7 81.1,187.4 82.0,189.8 82.9,191.4 83.8,193.9 84.7,196.4 85.6,197.6 86.5,199.1 87.4,201.1 88.3,203.2 89.2,204.5 90.1,204.9 91.1,206.9 92.0,208.2 92.9,209.3 93.8,210.0 94.7,210.4 95.6,210.9 96.5,212.2 97.4,212.5 98.3,214.6 99.2,214.3 100.1,214.8 101.0,215.4 101.9,215.6 102.8,216.5 103.7,217.4 104.6,217.8 105.5,218.8 106.4,218.4 107.3,220.1 108.2,219.6 109.1,221.2 110.0,221.0 110.9,223.3 111.8,222.8 112.7,223.3 113.6,224.3 114.5,224.8 115.4,226.4 116.3,225.6 117.2,228.8 118.1,227.4 119.0,228.2 120.0,228.9 120.9,229.7 121.8,229.4 122.7,231.2 123.6,231.3 124.5,231.6 125.4,233.7 126.3,232.9 127.2,233.1 128.1,235.6 129.0,234.5 129.9,235.5 130.8,236.1 131.7,235.6 132.6,236.7 133.5,236.2 134.4,236.3 135.3,236.0 136.2,237.2 137.1,238.2 138.0,239.1 138.9,238.1 139.8,239.8 140.7,238.9 141.6,239.9 142.5,238.1 143.4,239.2 144.3,240.1 145.2,239.9 146.1,240.6 147.0,242.1 147.9,241.8 148.8,241.8 149.7,241.8 150.6,241.9 151.5,242.9 152.4,243.5 153.3,242.1 154.2,243.1 155.1,242.5 156.0,243.7 156.9,243.8 157.8,242.0 158.7,243.6 159.7,243.0 160.5,243.7 161.5,243.1 162.4,244.1 163.3,244.1 164.2,243.2 165.1,244.2 166.0,244.8 166.9,245.0 167.8,245.4 168.7,246.7 169.6,243.5 170.5,246.4 171.4,244.8 172.3,245.7 173.2,246.6 174.1,247.1 175.0,247.6 175.9,246.6 176.8,246.5 177.8,247.2 178.7,246.1 179.6,247.5 180.5,247.2 181.4,247.9 182.3,249.6 183.2,247.1 184.1,249.3 185.0,248.8 185.9,248.6 186.8,249.0 187.7,248.5 188.6,248.9 189.5,250.1 190.4,249.1 191.3,250.8 192.2,249.4 193.1,250.6 194.1,250.3 195.0,250.1 195.9,250.7 196.8,251.5 197.7,251.0 198.6,251.0 199.5,251.5 200.4,251.0 201.3,250.7 202.2,251.1 203.1,251.3 204.0,253.0 204.9,252.1 205.8,252.1 206.7,253.1 207.6,253.1 208.5,253.9 209.4,253.1 210.3,251.9 211.2,253.4 212.1,253.5 213.1,255.4 214.0,253.8 214.9,253.4 215.8,254.3 216.7,255.3 217.6,255.7 218.5,254.8 219.4,252.6 220.3,255.4 221.2,256.4 222.1,256.2 223.0,255.6 223.9,255.4 224.8,256.0 225.7,255.4 226.6,255.7 227.5,256.7 228.4,257.7 229.3,256.2 230.2,257.5 231.1,258.9 232.0,256.3 232.9,256.9 233.8,257.9 234.7,256.2 235.6,257.3 236.5,257.6 237.5,258.3 238.4,258.0 239.3,258.6 240.1,259.2 241.0,259.5 242.0,257.8 242.9,259.1 243.8,259.9 244.7,258.1 245.6,259.0 246.5,260.2 247.4,261.1 248.3,259.8 249.2,259.5 250.1,260.7 251.0,261.6 251.9,260.1 252.8,259.8 253.7,260.0 254.6,259.5 255.5,260.7 256.4,259.4 257.3,259.9 258.2,260.9 259.1,260.6 260.0,260.7 260.9,260.4 261.8,260.8 262.7,261.4 263.6,260.3 264.5,260.9 265.4,261.3 266.3,260.6 267.2,261.4 268.1,260.5 269.0,261.7 269.9,261.5 270.8,261.0 271.7,261.4 272.7,263.4 273.6,262.6 274.5,261.9 275.4,261.2 276.3,262.8 277.2,262.0 278.1,261.1 279.0,262.2 279.9,262.9 280.8,262.5 281.7,263.4 282.6,261.9 283.5,263.4 284.4,263.1 285.3,264.0 286.2,264.1 287.1,263.9 288.0,264.1 288.9,263.1 289.8,264.9 290.7,263.5 291.6,263.5 292.5,263.7 293.4,263.0 294.3,263.3 295.2,264.6 296.1,264.0 297.0,262.3 297.9,265.0 298.8,263.4 299.7,262.5 300.6,264.9 301.5,264.9 302.4,264.8 303.3,264.6 304.2,263.3 305.1,263.7 306.0,264.6 307.0,264.8 307.9,263.7 308.8,266.1 309.7,264.6 310.6,264.8 311.5,265.3 312.4,265.6 313.3,264.6 314.2,265.2 315.1,265.9 316.0,264.3 316.9,265.7 317.8,264.7 318.7,263.4 319.6,264.9 320.5,265.6 321.4,265.2 322.3,265.2 323.2,267.1 324.1,263.6 325.0,265.5 325.9,263.7 326.8,264.8 327.7,266.7 328.6,266.2 329.5,264.5 330.5,265.8 331.4,266.4 332.3,266.0 333.2,266.2 334.0,267.4 335.0,266.6 335.9,267.1 336.8,264.0 337.7,266.0 338.6,267.3 339.5,267.1 340.4,267.9 341.3,267.2 342.2,267.8 343.1,267.3 344.0,265.8 344.9,266.4 345.8,266.9 346.7,267.1 347.6,266.7 348.5,267.9 349.4,266.0 350.3,269.0 351.3,266.6 352.1,267.4 353.0,267.7 354.0,268.4 354.9,267.6 355.8,268.5 356.7,267.5 357.6,266.3 358.5,269.3 359.4,268.2 360.3,267.3 361.2,268.7 362.1,269.2 363.0,267.8 363.9,267.3 364.8,268.8 365.7,267.6 366.6,269.5 367.5,267.6 368.4,268.5 369.3,268.8 370.2,266.8 371.2,269.2 372.1,269.6 373.0,269.6 373.9,268.8 374.8,267.3 375.7,268.9 376.6,268.6 377.5,268.6 378.4,269.7 379.3,270.4 380.2,268.7 381.1,270.8 382.0,268.4 382.9,268.7 383.8,269.2 384.7,269.9 385.6,270.4 386.5,269.0 387.4,267.6 388.3,269.3 389.2,269.7 390.1,269.6 391.0,270.1 391.9,271.3 392.9,268.9 393.8,267.7 394.7,269.0 395.6,268.7 396.5,270.8 397.4,271.1 398.3,269.5 399.2,269.3 400.1,269.8 401.0,270.0 401.9,270.4 402.8,269.3 403.7,269.0 404.6,269.8 405.5,271.2 406.4,269.0 407.3,271.8 408.2,267.7 409.1,271.1 410.0,269.7 410.9,271.5 411.8,268.8 412.7,272.2 413.7,270.2 414.6,272.5 415.5,269.1 416.4,269.9 417.3,268.5 418.2,273.0 419.1,270.0 420.0,268.1 420.9,272.3 421.8,269.2 422.7,272.0 423.6,269.5 424.5,270.4 425.4,268.5 426.4,270.8 427.3,271.5 428.2,271.2 429.1,270.5 430.0,270.3 430.9,270.4 431.8,271.8 432.7,271.7 433.6,271.4 434.5,270.5 435.4,270.4 436.3,269.6 437.2,271.5 438.1,270.4 439.0,271.6 440.0,271.6 440.8,270.1 441.8,270.6 442.7,272.7 443.6,271.2 444.5,272.0 445.4,273.0 446.3,272.5 447.2,272.8 448.1,271.8 449.0,271.1 449.9,270.9 450.8,271.9 451.7,272.2 452.6,271.6 453.5,272.3 454.4,274.1 455.3,273.9 456.2,270.4 457.1,271.0 458.0,272.2 458.9,272.9 459.9,271.7 460.8,271.6 461.7,270.3 462.6,273.0 463.5,270.4 464.4,272.8 465.3,272.9 466.2,271.8 467.1,271.3 468.0,272.7 468.9,271.8 469.8,271.6 470.7,273.1 471.6,273.5 472.5,271.3 473.4,271.7 474.3,272.7 475.2,273.6 476.1,273.4 477.0,273.2 477.9,274.1 478.8,271.9 479.7,272.8 480.6,273.5 481.5,271.4 482.4,273.5 483.3,271.8 484.3,271.8 485.2,272.1 486.1,273.2 487.0,273.7 487.9,271.8 488.8,275.0 489.7,273.0 490.6,273.0 491.5,272.7 492.4,274.5 493.3,275.2 494.2,273.3 495.1,273.1 496.0,273.3 496.9,273.7 497.8,273.5 498.7,273.9 499.6,273.1 500.5,272.6 501.4,274.2 502.3,272.3 503.2,272.2 504.1,273.3 505.0,274.3 505.9,274.7 506.9,273.2 507.8,272.9 508.7,274.0 509.6,273.8 510.5,276.6 511.4,274.3 512.3,272.2 513.2,273.1 514.1,275.6 515.0,272.3 515.9,273.6 516.8,274.6 517.7,271.8 518.6,273.8 519.5,273.7 520.5,273.5 521.4,275.3 522.3,274.2 523.2,275.5 524.1,273.9 525.0,273.6 525.9,273.0 526.8,273.8 527.7,275.4 528.6,274.0 529.5,273.1 530.4,275.1 531.4,276.8 532.3,273.6 533.2,273.6 534.1,273.6 535.0,274.4 535.9,273.7 536.8,274.0 537.7,275.5 538.6,272.6 539.5,274.6 540.4,274.5 541.3,274.5 542.2,273.8 543.2,273.8 544.1,276.1 545.0,276.4 545.9,275.4 546.8,275.3 547.7,273.7 548.6,272.5 549.5,276.6 550.4,274.3 551.4,272.7 552.3,274.1 553.2,275.8 554.1,276.5 555.0,274.9 555.9,274.4 556.8,276.3 557.7,276.5 558.6,275.9 559.5,274.9 560.4,275.1 561.4,276.1 562.3,274.2 563.2,275.8 564.1,275.2 565.0,274.8 565.9,276.4 566.8,276.2 567.7,276.8 568.6,276.7 569.5,275.9 570.4,275.0 571.3,275.8 572.3,274.9 573.2,276.5 574.1,275.0 575.0,274.2 575.9,275.9 576.8,276.0 577.7,276.4 578.6,273.6 579.5,277.5 580.4,275.8 581.3,278.7 582.2,276.4 583.2,275.7 584.1,275.3 585.0,274.5 585.9,275.1 586.8,276.1 587.7,276.7 588.6,275.1 589.5,276.9 590.4,276.6 591.4,277.1 592.3,276.1 593.2,276.7 594.1,275.6 595.0,274.7 595.9,274.3 596.8,275.8 597.7,276.9 598.6,276.7 599.5,276.3 600.4,275.9 601.4,276.5 602.3,276.2 603.2,277.0 604.1,277.8 605.0,276.3 605.9,273.9 606.8,277.3 607.7,276.5 608.6,276.3 609.5,273.4 610.4,277.7 611.3,278.2 612.2,275.8 613.2,275.6 614.1,277.9 615.0,276.4 615.9,277.6 616.8,275.9 617.7,275.3 618.6,278.0 619.5,277.6 620.4,276.5 621.3,277.4 622.2,276.9 623.1,277.1 624.0,277.2 624.9,276.0 625.9,278.9 626.8,275.8 627.7,275.5 628.6,275.5 629.5,279.6 630.4,277.2 631.3,276.7 632.2,276.9 633.1,276.5 634.1,279.0 635.0,276.5 635.9,275.3 636.8,275.6 637.7,278.0 638.6,276.2 639.5,279.4 640.4,276.8 641.3,276.3 642.2,277.9 643.1,277.8 644.0,275.9 644.9,276.9 645.9,277.6 646.8,275.4 647.7,276.7 648.6,277.2 649.5,276.7 650.4,277.5 651.3,277.0 652.2,277.5 653.1,278.5 654.0,276.7 654.9,275.7 655.8,278.6 656.7,277.4 657.6,276.2 658.5,277.0 659.5,277.0 660.4,276.5 661.3,278.4 662.2,278.3 663.1,276.0 664.0,275.8 664.9,276.7 665.8,278.6 666.7,278.0 667.6,276.4 668.5,280.5 669.4,275.5 670.4,277.3 671.3,277.8 672.2,280.0 673.1,277.4 674.0,276.9 674.9,277.8" fill="none" stroke="#16a34a" stroke-width="1.5"/>
<polyline points="65.0,280.5 65.9,173.2 66.8,42.8 67.7,195.0 68.6,321.8 69.5,270.8 70.4,242.3 71.2,241.3 72.1,251.8 73.0,263.5 73.9,271.3 74.8,271.3 75.7,254.7 76.6,264.8 77.5,263.2 78.4,256.9 79.3,279.7 80.2,261.3 81.1,242.9 82.0,251.7 82.9,248.7 83.8,250.8 84.7,254.2 85.6,252.0 86.5,249.5 87.4,259.0 88.3,258.8 89.2,259.3 90.1,259.5 91.1,264.1 92.0,261.4 92.9,269.7 93.8,271.8 94.7,261.1 95.6,263.2 96.5,266.2 97.4,263.0 98.3,279.3 99.2,277.1 100.1,273.3 101.0,272.0 101.9,268.3 102.8,270.0 103.7,289.2 104.6,263.6 105.5,268.9 106.4,263.4 107.3,272.7 108.2,261.0 109.1,268.8 110.0,265.2 110.9,268.7 111.8,258.9 112.7,264.9 113.6,264.0 114.5,266.3 115.4,275.1 116.3,264.1 117.2,283.8 118.1,271.7 119.0,272.4 120.0,269.0 120.9,274.2 121.8,270.6 122.7,269.5 123.6,270.6 124.5,274.6 125.4,284.0 126.3,287.0 127.2,293.4 128.1,286.7 129.0,285.8 129.9,283.7 130.8,287.8 131.7,289.2 132.6,299.8 133.5,287.7 134.4,285.3 135.3,280.3 136.2,289.7 137.1,291.3 138.0,294.4 138.9,282.7 139.8,291.1 140.7,283.4 141.6,285.0 142.5,279.4 143.4,277.8 144.3,283.4 145.2,288.7 146.1,289.0 147.0,288.7 147.9,283.9 148.8,286.2 149.7,282.0 150.6,288.8 151.5,293.3 152.4,288.1 153.3,282.0 154.2,285.6 155.1,296.7 156.0,281.3 156.9,287.4 157.8,280.1 158.7,282.4 159.7,282.2 160.5,280.2 161.5,279.8 162.4,279.5 163.3,291.5 164.2,274.2 165.1,279.1 166.0,280.0 166.9,277.9 167.8,282.3 168.7,284.4 169.6,277.8 170.5,282.9 171.4,280.2 172.3,276.4 173.2,285.5 174.1,287.8 175.0,287.6 175.9,283.2 176.8,285.0 177.8,280.9 178.7,278.5 179.6,286.2 180.5,287.7 181.4,285.3 182.3,285.8 183.2,284.4 184.1,288.2 185.0,296.9 185.9,294.1 186.8,286.6 187.7,282.1 188.6,289.4 189.5,296.3 190.4,289.5 191.3,294.5 192.2,287.0 193.1,293.7 194.1,288.6 195.0,284.0 195.9,287.5 196.8,292.7 197.7,306.1 198.6,299.3 199.5,287.8 200.4,286.9 201.3,289.6 202.2,285.6 203.1,280.9 204.0,292.2 204.9,287.6 205.8,287.0 206.7,290.0 207.6,290.3 208.5,292.6 209.4,290.2 210.3,280.9 211.2,287.1 212.1,291.2 213.1,293.5 214.0,281.9 214.9,297.2 215.8,291.8 216.7,289.7 217.6,289.4 218.5,277.9 219.4,273.7 220.3,284.9 221.2,290.1 222.1,290.2 223.0,286.6 223.9,288.5 224.8,286.0 225.7,280.3 226.6,278.6 227.5,283.3 228.4,286.2 229.3,279.7 230.2,280.3 231.1,287.7 232.0,272.8 232.9,278.5 233.8,280.3 234.7,273.6 235.6,277.7 236.5,275.4 237.5,277.5 238.4,273.2 239.3,282.2 240.1,326.0 241.0,284.6 242.0,285.9 242.9,282.5 243.8,272.7 244.7,286.5 245.6,285.1 246.5,285.3 247.4,289.3 248.3,280.3 249.2,279.1 250.1,283.9 251.0,288.7 251.9,286.1 252.8,276.7 253.7,282.9 254.6,282.2 255.5,275.8 256.4,274.3 257.3,278.3 258.2,278.9 259.1,278.7 260.0,276.9 260.9,281.1 261.8,282.4 262.7,291.1 263.6,287.9 264.5,280.8 265.4,280.7 266.3,287.8 267.2,284.3 268.1,280.4 269.0,285.2 269.9,287.3 270.8,277.6 271.7,275.8 272.7,302.3 273.6,307.9 274.5,293.5 275.4,283.4 276.3,285.3 277.2,290.6 278.1,280.4 279.0,276.3 279.9,286.8 280.8,290.6 281.7,286.9 282.6,282.7 283.5,289.4 284.4,295.6 285.3,288.4 286.2,289.7 287.1,287.8 288.0,288.2 288.9,274.0 289.8,290.0 290.7,284.1 291.6,280.0 292.5,287.2 293.4,285.1 294.3,289.9 295.2,279.6 296.1,279.4 297.0,281.8 297.9,285.6 298.8,276.2 299.7,282.1 300.6,286.4 301.5,289.3 302.4,285.2 303.3,279.9 304.2,278.0 305.1,279.7 306.0,282.0 307.0,280.3 307.9,273.6 308.8,282.4 309.7,282.0 310.6,285.4 311.5,284.5 312.4,279.4 313.3,274.2 314.2,274.4 315.1,281.0 316.0,279.4 316.9,287.9 317.8,276.6 318.7,273.5 319.6,285.4 320.5,279.0 321.4,269.2 322.3,277.3 323.2,285.9 324.1,273.4 325.0,276.4 325.9,272.0 326.8,276.3 327.7,283.9 328.6,273.3 329.5,278.6 330.5,278.6 331.4,278.7 332.3,278.0 333.2,274.8 334.0,280.4 335.0,280.1 335.9,289.8 336.8,280.4 337.7,288.4 338.6,284.3 339.5,287.2 340.4,286.5 341.3,280.3 342.2,290.2 343.1,277.0 344.0,327.2 344.9,298.8 345.8,286.5 346.7,282.0 347.6,278.3 348.5,292.7 349.4,281.8 350.3,288.8 351.3,286.8 352.1,289.2 353.0,285.3 354.0,288.4 354.9,286.2 355.8,287.7 356.7,286.1 357.6,269.1 358.5,290.9 359.4,289.0 360.3,284.8 361.2,291.5 362.1,288.0 363.0,286.4 363.9,284.6 364.8,286.1 365.7,281.3 366.6,285.1 367.5,283.6 368.4,289.9 369.3,291.1 370.2,267.0 371.2,279.8 372.1,296.8 373.0,292.3 373.9,294.4 374.8,286.5 375.7,291.6 376.6,281.6 377.5,284.9 378.4,289.7 379.3,288.6 380.2,272.0 381.1,270.2 382.0,281.5 382.9,283.5 383.8,284.3 384.7,279.2 385.6,287.8 386.5,279.6 387.4,275.9 388.3,275.4 389.2,286.2 390.1,282.4 391.0,285.0 391.9,287.5 392.9,277.3 393.8,285.9 394.7,284.8 395.6,272.7 396.5,288.3 397.4,282.5 398.3,281.4 399.2,279.4 400.1,276.2 401.0,282.8 401.9,281.3 402.8,278.7 403.7,274.7 404.6,275.4 405.5,284.8 406.4,278.5 407.3,281.2 408.2,268.8 409.1,289.1 410.0,290.1 410.9,291.9 411.8,280.9 412.7,289.5 413.7,285.7 414.6,295.5 415.5,286.6 416.4,285.4 417.3,279.0 418.2,299.4 419.1,286.6 420.0,280.6 420.9,294.2 421.8,286.4 422.7,285.7 423.6,295.4 424.5,282.1 425.4,280.6 426.4,280.7 427.3,286.8 428.2,290.4 429.1,282.0 430.0,276.6 430.9,284.4 431.8,285.7 432.7,289.3 433.6,293.3 434.5,286.0 435.4,289.5 436.3,287.2 437.2,288.6 438.1,285.2 439.0,285.2 440.0,282.5 440.8,283.8 441.8,288.8 442.7,294.4 443.6,284.4 444.5,298.9 445.4,295.9 446.3,290.5 447.2,286.6 448.1,285.2 449.0,296.5 449.9,288.7 450.8,294.0 451.7,292.2 452.6,287.6 453.5,288.3 454.4,291.2 455.3,292.5 456.2,286.6 457.1,287.5 458.0,286.9 458.9,285.1 459.9,277.0 460.8,285.3 461.7,278.9 462.6,279.2 463.5,275.7 464.4,282.4 465.3,279.2 466.2,282.3 467.1,276.1 468.0,281.5 468.9,281.1 469.8,277.3 470.7,278.4 471.6,292.5 472.5,269.1 473.4,274.8 474.3,280.7 475.2,281.3 476.1,278.2 477.0,282.9 477.9,285.7 478.8,281.9 479.7,286.4 480.6,298.2 481.5,289.1 482.4,291.6 483.3,281.2 484.3,287.9 485.2,288.9 486.1,290.3 487.0,290.3 487.9,267.1 488.8,288.1 489.7,283.8 490.6,282.9 491.5,270.3 492.4,321.5 493.3,293.4 494.2,279.9 495.1,285.4 496.0,283.3 496.9,284.4 497.8,280.6 498.7,282.8 499.6,286.9 500.5,287.3 501.4,293.0 502.3,287.7 503.2,287.6 504.1,289.7 505.0,292.6 505.9,291.4 506.9,283.1 507.8,282.1 508.7,286.5 509.6,293.1 510.5,301.4 511.4,289.7 512.3,281.2 513.2,281.6 514.1,297.7 515.0,285.2 515.9,289.2 516.8,293.1 517.7,277.4 518.6,284.4 519.5,286.7 520.5,278.5 521.4,288.4 522.3,300.8 523.2,281.9 524.1,282.4 525.0,281.0 525.9,273.1 526.8,280.6 527.7,285.8 528.6,282.2 529.5,277.7 530.4,270.3 531.4,290.4 532.3,279.1 533.2,279.9 534.1,278.2 535.0,281.4 535.9,278.4 536.8,281.7 537.7,291.6 538.6,272.9 539.5,282.3 540.4,274.1 541.3,279.1 542.2,278.1 543.2,278.5 544.1,284.5 545.0,281.6 545.9,287.9 546.8,284.1 547.7,283.1 548.6,285.9 549.5,289.7 550.4,289.3 551.4,278.2 552.3,281.5 553.2,287.3 554.1,286.3 555.0,293.7 555.9,299.0 556.8,296.5 557.7,292.4 558.6,285.1 559.5,277.9 560.4,284.0 561.4,284.9 562.3,288.2 563.2,295.6 564.1,293.7 565.0,286.1 565.9,286.6 566.8,277.1 567.7,288.4 568.6,289.3 569.5,325.2 570.4,280.6 571.3,286.5 572.3,286.2 573.2,287.3 574.1,283.2 575.0,280.4 575.9,282.6 576.8,293.7 577.7,286.8 578.6,276.5 579.5,276.1 580.4,271.8 581.3,287.9 582.2,282.7 583.2,285.4 584.1,282.7 585.0,278.6 585.9,282.5 586.8,288.2 587.7,282.2 588.6,279.2 589.5,294.9 590.4,299.7 591.4,289.0 592.3,280.7 593.2,279.9 594.1,285.7 595.0,277.8 595.9,288.2 596.8,279.9 597.7,287.1 598.6,281.4 599.5,285.3 600.4,283.8 601.4,289.6 602.3,291.5 603.2,286.9 604.1,268.1 605.0,279.3 605.9,282.5 606.8,290.8 607.7,295.1 608.6,286.6 609.5,275.7 610.4,288.5 611.3,285.1 612.2,283.6 613.2,279.8 614.1,284.3 615.0,287.3 615.9,292.2 616.8,282.7 617.7,278.2 618.6,277.7 619.5,283.4 620.4,282.5 621.3,293.8 622.2,289.5 623.1,284.1 624.0,288.0 624.9,292.4 625.9,291.5 626.8,283.4 627.7,288.2 628.6,289.3 629.5,301.1 630.4,288.2 631.3,286.0 632.2,282.2 633.1,272.6 634.1,285.6 635.0,283.2 635.9,277.8 636.8,278.3 637.7,287.3 638.6,285.8 639.5,294.0 640.4,286.3 641.3,281.6 642.2,287.6 643.1,283.8 644.0,278.4 644.9,275.4 645.9,280.0 646.8,284.0 647.7,277.6 648.6,270.0 649.5,258.0 650.4,281.4 651.3,283.7 652.2,283.5 653.1,279.2 654.0,279.0 654.9,279.2 655.8,276.1 656.7,281.0 657.6,274.9 658.5,281.3 659.5,284.0 660.4,280.0 661.3,284.8 662.2,280.5 663.1,281.8 664.0,279.2 664.9,280.0 665.8,280.2 666.7,280.8 667.6,269.1 668.5,286.8 669.4,276.7 670.4,277.7 671.3,279.0 672.2,284.5 673.1,282.5 674.0,285.8 674.9,276.6" fill="none" stroke="#2563eb" stroke-width="2.5"/>
<rect x="65" y="20" width="610" height="330" fill="none" stroke="#888" stroke-width="1.5"/>
<line x1="62" y1="308.5" x2="65" y2="308.5" stroke="#64748b" stroke-width="1" opacity="0.6"/>
<line x1="62" y1="260.0" x2="65" y2="260.0" stroke="#64748b" stroke-width="1" opacity="0.6"/>
<line x1="62" y1="199.0" x2="65" y2="199.0" stroke="#64748b" stroke-width="1" opacity="0.6"/>
<line x1="60" y1="116.3" x2="65" y2="116.3" stroke="#64748b" stroke-width="1.5"/>
<text x="57" y="116.3" text-anchor="end" dominant-baseline="middle" font-size="11" font-family="monospace,sans-serif" fill="#64748b">10</text>
<line x1="62" y1="33.5" x2="65" y2="33.5" stroke="#64748b" stroke-width="1" opacity="0.6"/>
<line x1="675" y1="285.4" x2="680" y2="285.4" stroke="#2563eb" stroke-width="1.5"/>
<text x="683" y="285.4" text-anchor="start" dominant-baseline="middle" font-size="11" font-family="monospace,sans-serif" fill="#2563eb">0.0</text>
<line x1="675" y1="166.0" x2="680" y2="166.0" stroke="#2563eb" stroke-width="1.5"/>
<text x="683" y="166.0" text-anchor="start" dominant-baseline="middle" font-size="11" font-family="monospace,sans-serif" fill="#2563eb">1.0</text>
<line x1="675" y1="46.7" x2="680" y2="46.7" stroke="#2563eb" stroke-width="1.5"/>
<text x="683" y="46.7" text-anchor="start" dominant-baseline="middle" font-size="11" font-family="monospace,sans-serif" fill="#2563eb">2.0</text>
<line x1="65.0" y1="350" x2="65.0" y2="355" stroke="#888" stroke-width="1.5"/>
<text x="65.0" y="368" text-anchor="middle" font-size="11" font-family="monospace,sans-serif">0</text>
<line x1="187.1" y1="350" x2="187.1" y2="355" stroke="#888" stroke-width="1.5"/>
<text x="187.1" y="368" text-anchor="middle" font-size="11" font-family="monospace,sans-serif">2</text>
<line x1="309.3" y1="350" x2="309.3" y2="355" stroke="#888" stroke-width="1.5"/>
<text x="309.3" y="368" text-anchor="middle" font-size="11" font-family="monospace,sans-serif">4</text>
<line x1="431.4" y1="350" x2="431.4" y2="355" stroke="#888" stroke-width="1.5"/>
<text x="431.4" y="368" text-anchor="middle" font-size="11" font-family="monospace,sans-serif">6</text>
<line x1="553.6" y1="350" x2="553.6" y2="355" stroke="#888" stroke-width="1.5"/>
<text x="553.6" y="368" text-anchor="middle" font-size="11" font-family="monospace,sans-serif">8</text>
<line x1="675.7" y1="350" x2="675.7" y2="355" stroke="#888" stroke-width="1.5"/>
<text x="675.7" y="368" text-anchor="middle" font-size="11" font-family="monospace,sans-serif">10</text>
<text x="370" y="392" text-anchor="middle" font-size="13" font-family="sans-serif">Runtime (minutes)</text>
<text transform="rotate(-90,28,185)" x="28" y="185" text-anchor="middle" font-size="13" font-family="sans-serif" fill="#64748b">Train loss (log scale)</text>
<text transform="rotate(90,746,185)" x="746" y="185" text-anchor="middle" font-size="13" font-family="sans-serif" fill="#2563eb">Train loss diff (exp − base)</text>
<rect x="72" y="26" width="140" height="62" fill="white" fill-opacity="0.85" stroke="#ddd" stroke-width="1" rx="3"/>
<line x1="77" y1="37" x2="99" y2="37" stroke="#64748b" stroke-width="1.5" stroke-dasharray="5,3"/>
<text x="104" y="41" font-size="11" font-family="sans-serif" fill="#64748b">Baseline train loss</text>
<line x1="77" y1="55" x2="99" y2="55" stroke="#16a34a" stroke-width="1.5"/>
<text x="104" y="59" font-size="11" font-family="sans-serif" fill="#16a34a">Experiment train loss</text>
<line x1="77" y1="73" x2="99" y2="73" stroke="#2563eb" stroke-width="2.5"/>
<text x="104" y="77" font-size="11" font-family="sans-serif" fill="#2563eb">Train loss diff</text>
</svg>