<svg xmlns="http://www.w3.org/2000/svg" viewBox="0 0 760 400" width="760" height="400" style="background:white">
<rect x="65" y="20" width="625" height="330" fill="#f9f9f9"/>
<line x1="65" y1="308.5" x2="690" y2="308.5" stroke="#ececec" stroke-width="1"/>
<line x1="65" y1="260.0" x2="690" y2="260.0" stroke="#ececec" stroke-width="1"/>
<line x1="65" y1="199.0" x2="690" y2="199.0" stroke="#ececec" stroke-width="1"/>
<line x1="65" y1="116.3" x2="690" y2="116.3" stroke="#ddd" stroke-width="1"/>
<line x1="65" y1="33.5" x2="690" y2="33.5" stroke="#ececec" stroke-width="1"/>
<line x1="65.0" y1="20" x2="65.0" y2="350" stroke="#ececec" stroke-width="1"/>
<line x1="190.1" y1="20" x2="190.1" y2="350" stroke="#ececec" stroke-width="1"/>
<line x1="315.1" y1="20" x2="315.1" y2="350" stroke="#ececec" stroke-width="1"/>
<line x1="440.2" y1="20" x2="440.2" y2="350" stroke="#ececec" stroke-width="1"/>
<line x1="565.3" y1="20" x2="565.3" y2="350" stroke="#ececec" stroke-width="1"/>
<line x1="690.4" y1="20" x2="690.4" y2="350" stroke="#ececec" stroke-width="1"/>
<polyline points="65.0,119.6 65.3,53.2 65.5,91.2 65.8,148.0 66.0,160.9 66.3,153.1 66.6,153.2 66.8,158.5 67.1,164.3 67.4,168.1 67.6,170.3 67.9,173.5 68.1,175.8 68.4,178.0 68.7,180.1 68.9,181.8 69.2,183.5 69.4,185.1 69.7,186.9 70.0,188.4 70.2,191.1 70.5,192.9 70.8,195.3 71.0,197.4 71.3,199.4 71.5,201.3 71.8,202.8 72.1,204.5 72.3,206.1 72.6,207.3 72.8,209.0 73.1,210.3 73.4,211.2 73.6,211.5 73.9,212.5 74.2,213.7 74.4,214.0 74.7,214.8 74.9,215.6 75.2,216.6 75.5,217.3 75.7,217.9 76.0,218.9 76.3,219.5 76.5,220.1 76.8,220.8 77.0,221.9 77.3,222.0 77.6,223.4 77.8,224.2 78.1,225.6 78.3,226.2 78.6,226.5 78.9,227.4 79.1,227.5 79.4,229.5 79.7,229.6 79.9,230.6 80.2,231.4 80.4,231.8 80.7,232.3 81.0,233.4 81.2,234.6 81.5,234.5 81.7,234.9 82.0,235.7 82.3,236.3 82.5,236.6 82.8,236.2 83.1,239.3 83.3,238.9 83.6,239.4 83.8,239.8 84.1,240.1 84.4,241.3 84.6,241.0 84.9,242.3 85.2,240.8 85.4,242.8 85.7,243.4 85.9,243.0 86.2,243.5 86.5,244.3 86.7,244.8 87.0,245.3 87.3,244.7 87.5,244.5 87.8,246.8 88.0,246.1 88.3,247.8 88.6,247.4 88.8,247.5 89.1,247.6 89.4,248.2 89.6,248.0 89.9,249.4 90.1,249.3 90.4,249.4 90.7,250.2 90.9,249.7 91.2,250.8 91.5,249.5 91.7,250.2 92.0,252.6 92.2,252.6 92.5,252.4 92.8,252.5 93.0,252.8 93.3,252.6 93.5,253.9 93.8,253.0 94.1,254.6 94.3,255.0 94.6,254.9 94.9,255.3 95.1,256.2 95.4,256.8 95.6,255.6 95.9,257.1 96.2,257.5 96.4,257.5 96.7,257.1 97.0,256.9 97.2,257.4 97.5,257.0 97.7,258.4 98.0,258.2 98.3,257.4 98.5,259.6 98.8,259.3 99.1,258.9 99.3,260.7 99.6,260.4 99.8,259.5 100.1,259.3 100.4,260.5 100.6,260.6 100.9,262.3 101.2,261.6 101.4,261.1 101.7,261.8 101.9,262.1 102.2,262.2 102.5,262.4 102.7,261.5 103.0,262.6 103.2,262.0 103.5,262.3 103.8,262.1 104.0,262.6 104.3,262.6 104.6,263.6 104.8,263.8 105.1,265.0 105.3,263.8 105.6,262.2 105.9,263.1 106.1,263.6 106.4,263.0 106.6,265.5 106.9,264.2 107.2,264.7 107.4,265.0 107.7,265.1 108.0,264.5 108.2,265.4 108.5,266.7 108.7,265.6 109.0,266.0 109.3,265.7 109.5,265.8 109.8,266.3 110.0,266.3 110.3,266.9 110.6,266.6 110.8,265.6 111.1,266.6 111.4,266.9 111.6,266.5 111.9,267.6 112.1,267.3 112.4,268.0 112.7,267.8 112.9,267.3 113.2,268.5 113.4,267.6 113.7,266.4 114.0,267.6 114.2,268.8 114.5,268.7 114.8,269.2 115.0,270.2 115.3,268.8 115.5,269.8 115.8,268.6 116.1,270.2 116.3,268.2 116.6,268.4 116.8,269.2 117.1,268.9 117.4,269.4 117.6,269.9 117.9,269.7 118.2,271.1 118.4,269.6 118.7,270.1 118.9,269.9 119.2,270.6 119.5,269.9 119.7,270.5 120.0,271.4 120.2,271.4 120.5,271.1 120.8,270.5 121.0,271.3 121.3,271.8 121.6,271.3 121.8,272.4 122.1,270.8 122.3,271.9 122.6,272.5 122.9,272.0 123.1,272.0 123.4,271.3 123.6,272.8 123.9,271.1 124.2,271.9 124.4,272.8 124.7,271.4 125.0,272.6 125.2,272.4 125.5,272.3 125.7,273.9 126.0,272.4 126.3,272.6 126.5,273.1 126.8,272.9 127.0,273.6 127.3,273.3 127.6,273.1 127.8,274.8 128.1,274.8 128.4,273.2 128.6,273.3 128.9,275.0 129.1,273.7 129.4,274.1 129.7,273.6 129.9,273.6 130.2,272.6 130.4,274.0 130.7,274.9 131.0,274.9 131.2,273.7 131.5,274.0 131.8,274.5 132.0,275.7 132.3,275.3 132.5,273.8 132.8,275.0 133.1,275.2 133.3,275.5 133.6,276.2 133.8,276.1 134.1,277.0 134.4,276.1 134.6,276.2 134.9,274.9 135.2,276.5 135.4,275.0 135.7,276.0 135.9,274.1 136.2,275.4 136.5,276.5 136.7,275.2 137.0,278.3 137.2,275.0 137.5,275.3 137.8,275.6 138.0,274.7 138.3,276.2 138.6,275.5 138.8,277.3 139.1,277.8 139.3,277.4 139.6,277.3 139.9,277.8 140.1,276.9 140.4,276.7 140.6,277.9 140.9,276.9 141.2,276.7 141.4,276.7 141.7,277.3 142.0,277.8 142.2,276.4 142.5,276.9 142.8,278.0 143.0,278.3 143.3,276.5 143.5,278.2 143.8,279.3 144.1,279.4 144.3,278.6 144.6,278.9 144.8,278.7 145.1,278.4 145.4,278.9 145.6,278.2 145.9,278.7 146.2,278.0 146.4,279.4 146.7,278.6 146.9,278.4 147.2,278.8 147.5,279.5 147.7,279.4 148.0,279.1 148.2,278.9 148.5,278.5 148.8,278.9 149.0,279.0 149.3,278.8 149.6,279.4 149.8,278.8 150.1,279.8 150.3,280.9 150.6,278.5 150.9,279.5 151.1,279.2 151.4,279.3 151.6,279.9 151.9,279.3 152.2,279.7 152.4,280.6 152.7,280.3 153.0,281.7 153.2,280.6 153.5,279.9 153.7,282.4 154.0,279.2 154.3,280.1 154.5,279.6 154.8,280.8 155.1,280.2 155.3,280.7 155.6,280.4 155.9,282.1 156.1,280.6 156.4,280.3 156.7,282.1 156.9,280.6 157.2,281.8 157.5,281.0 157.8,281.2 158.0,280.7 158.3,279.1 158.6,280.5 158.8,281.4 159.1,282.4 159.3,281.3 159.6,282.1 159.9,281.4 160.1,281.0 160.4,280.2 160.7,282.3 160.9,282.1 161.2,281.9 161.4,282.3 161.7,282.4 162.0,281.4 162.2,282.7 162.5,280.4 162.8,281.7 163.0,281.9 163.3,282.0 163.5,281.9 163.8,282.8 164.1,283.0 164.3,282.6 164.6,280.9 164.9,283.4 165.1,282.5 165.4,281.3 165.6,282.4 165.9,283.1 166.2,282.2 166.4,284.1 166.7,282.5 166.9,282.7 167.2,281.9 167.5,283.4 167.7,281.8 168.0,282.9 168.3,282.7 168.5,283.8 168.8,282.6 169.0,282.1 169.3,284.0 169.6,282.8 169.8,283.4 170.1,284.5 170.4,284.0 170.6,281.6 170.9,282.0 171.1,283.6 171.4,283.3 171.7,282.6 171.9,284.5 172.2,282.6 172.5,284.5 172.7,284.0 173.0,284.2 173.2,282.9 173.5,281.9 173.8,283.3 174.0,283.8 174.3,283.5 174.5,283.2 174.8,284.1 175.1,281.6 175.3,283.6 175.6,284.1 175.9,284.5 176.1,284.8 176.4,283.9 176.7,284.4 176.9,285.8 177.2,284.0 177.4,283.1 177.7,282.8 178.0,285.6 178.2,283.3 178.5,283.4 178.7,285.5 179.0,282.5 179.3,283.1 179.5,284.4 179.8,285.7 180.1,284.9 180.3,284.9 180.6,282.5 180.8,284.8 181.1,284.9 181.4,284.7 181.6,286.5 181.9,285.0 182.2,282.3 182.4,285.7 182.7,284.8 182.9,283.6 183.2,285.5 183.5,286.0 183.7,285.4 184.0,285.1 184.2,284.9 184.5,285.3 184.8,285.7 185.0,285.9 185.3,287.2 185.6,284.7 185.8,283.5 186.1,284.5 186.3,285.3 186.6,284.9 186.9,285.3 187.1,286.7 187.4,285.9 187.7,286.6 187.9,285.9 188.2,284.6 188.4,285.1 188.7,284.3 189.0,285.2 189.2,286.0 189.5,285.9 189.8,285.2 190.0,286.2 190.3,285.8 190.5,285.4 190.8,285.6 191.1,287.8 191.3,287.3 191.6,286.5 191.9,285.9 192.1,284.7 192.4,286.3 192.6,286.8 192.9,285.7 193.2,285.9 193.4,286.0 193.7,287.1 193.9,286.0 194.2,286.1 194.5,285.6 194.7,288.0 195.0,286.9 195.3,285.9 195.5,286.0 195.8,284.9 196.0,286.2 196.3,286.3 196.6,285.4 196.8,287.1 197.1,285.6 197.4,285.8 198.0,285.4 198.3,287.0 198.5,286.0 198.8,286.6 199.1,286.3 199.3,287.0 199.6,285.9 199.8,286.7 200.1,286.0 200.4,286.2 200.6,287.8 200.9,288.1 201.1,287.2 201.4,287.6 201.7,286.4 201.9,288.0 202.2,286.4 202.5,287.8 202.7,286.4 203.0,287.8 203.2,288.0 203.5,285.8 203.8,287.4 204.0,286.6 204.3,286.6 204.5,288.0 204.8,285.8 205.1,287.3 205.3,287.4 205.6,287.3 205.9,287.1 206.1,289.0 206.4,287.4 206.6,287.6 206.9,286.9 207.2,287.4 207.4,288.4 207.7,286.5 208.0,288.3 208.2,287.7 208.5,288.0 208.7,287.8 209.0,288.9 209.3,288.0 209.5,288.7 209.8,287.6 210.1,288.5 210.3,289.0 210.6,287.2 210.8,288.3 211.1,288.5 211.4,288.1 211.6,286.8 211.9,287.7 212.2,288.3 212.4,288.1 212.7,289.0 212.9,289.1 213.2,289.1 213.5,287.4 213.7,289.4 214.0,288.1 214.3,289.2 214.5,287.7 214.8,288.6 215.0,288.4 215.3,287.9 215.6,288.8 215.8,288.5 216.1,287.4 216.4,289.9 216.6,288.8 216.9,289.1 217.1,288.7 217.4,288.6 217.7,288.7 217.9,289.3 218.2,288.2 218.4,289.0 218.7,288.9 219.0,289.2 219.2,288.2 219.5,289.1 219.8,290.7 220.0,289.1 220.3,288.7 220.5,288.3 220.8,289.9 221.1,290.1 221.3,288.1 221.6,289.8 221.8,287.0 222.1,290.2 222.4,288.3 222.6,290.0 222.9,289.9 223.2,288.7 223.4,289.4 223.7,290.0 224.0,290.4 224.2,291.3 224.5,289.0 224.7,290.1 225.0,289.5 225.3,288.4 225.5,289.7 225.8,290.9 226.1,291.4 226.3,289.2 226.6,290.4 226.8,290.3 227.1,288.5 227.4,290.8 227.6,290.7 227.9,288.8 228.2,289.5 228.4,288.6 228.7,289.9 228.9,289.5 229.5,290.9 230.2,289.9 230.4,290.1 230.7,289.2 231.0,290.8 231.2,290.2 231.5,288.2 231.7,290.9 232.0,289.7 232.3,289.2 232.5,290.4 232.8,290.9 233.4,289.9 233.7,290.3 233.9,289.3 234.2,288.6 234.5,290.2 234.7,289.5 235.0,290.0 235.2,290.9 235.5,292.1 235.8,289.4 236.0,289.8 236.3,290.3 236.5,292.2 236.8,289.3 237.1,291.1 237.3,291.1 237.6,290.2 237.9,289.2 238.1,290.6 238.4,290.5 238.6,288.3 238.9,290.0 239.2,290.2 239.4,290.5 239.7,291.6 240.0,289.7 240.2,290.7 240.5,290.3 240.7,291.1 241.0,289.4 241.3,291.4 241.5,290.0 241.8,290.3 242.1,290.9 242.3,289.6 242.6,289.7 242.8,291.8 243.1,289.6 243.4,289.1 243.6,291.5 243.9,291.0 244.1,290.4 244.4,291.5 244.7,290.3 244.9,291.0 245.2,290.7 245.5,289.8 245.7,291.2 246.0,291.1 246.2,290.4 246.5,292.8 246.8,292.7 247.0,292.0 247.3,290.4 247.5,292.3 247.8,292.3 248.1,291.1 248.3,291.8 248.6,292.1 248.9,292.8 249.1,290.8 249.7,291.5 250.0,292.3 250.3,291.7 250.5,291.0 250.8,290.4 251.0,291.4 251.3,290.7 251.6,293.4 251.8,292.4 252.1,290.0 252.4,291.3 252.6,291.0 252.9,293.2 253.1,293.0 253.4,291.1 253.7,291.6 253.9,291.3 254.2,292.0 254.5,292.9 254.7,291.0 255.0,290.3 255.2,291.4 255.5,292.7 255.8,292.1 256.0,292.2 256.3,290.4 256.5,290.7 256.8,292.2 257.1,292.3 257.3,292.1 257.6,292.0 257.9,290.3 258.1,292.4 258.4,291.3 258.6,292.2 258.9,293.0 259.2,291.3 259.4,291.5 259.7,291.5 259.9,291.5 260.2,293.3 260.5,291.8 260.7,292.5 261.0,291.6 261.3,292.0 261.5,290.8 261.8,291.6 262.0,290.6 262.3,292.9 262.6,292.6 262.8,293.8 263.1,292.0 263.4,293.5 263.6,291.4 263.9,291.2 264.1,292.8 264.4,292.1 264.7,292.5 264.9,291.2 265.2,291.7 265.5,291.9 265.7,291.4 266.0,292.9 266.2,292.7 266.5,292.5 266.8,291.2 267.0,293.7 267.3,293.3 267.6,292.4 267.8,290.8 268.1,292.4 268.3,293.3 268.9,291.2 269.2,292.5 269.5,292.5 269.7,292.2 270.0,291.7 270.2,292.9 270.5,292.3 270.8,291.0 271.0,291.8 271.3,291.7 271.5,293.1 271.8,293.8 272.1,292.5 272.3,292.1 272.6,292.2 272.9,292.7 273.1,292.3 273.4,292.8 273.6,291.1 273.9,291.3 274.2,293.5 274.4,293.1 274.7,293.1 275.0,293.8 275.2,293.7 275.5,293.9 275.7,292.0 276.0,293.3 276.3,293.5 276.5,292.6 276.8,292.3 277.1,291.4 277.3,293.5 277.6,293.7 277.8,292.9 278.1,291.8 278.4,292.8 278.6,293.1 278.9,293.0 279.2,293.6 279.4,292.2 279.7,292.9 279.9,293.1 280.2,294.1 280.5,291.8 280.7,293.1 281.0,293.7 281.2,292.2 281.5,295.1 281.8,292.8 282.0,295.0 282.3,293.3 282.6,292.2 282.8,293.6 283.1,292.3 283.3,293.4 283.6,292.7 283.9,293.2 284.1,292.2 284.4,293.9 284.6,292.4 284.9,294.5 285.2,292.6 285.4,294.0 285.7,292.1 286.0,292.3 286.2,292.7 286.5,293.4 286.7,293.7 287.0,292.2 287.3,294.0 287.5,291.1 287.8,292.3 288.0,292.6 288.3,294.0 288.6,294.4 288.8,291.3 289.1,292.3 289.4,293.1 289.6,293.9 289.9,294.0 290.1,294.4 290.4,294.3 290.7,292.9 290.9,291.4 291.2,292.9 291.5,293.0 291.7,293.0 292.0,293.2 292.2,293.5 292.5,294.6 292.8,292.3 293.0,293.2 293.3,293.2 293.6,294.5 293.8,293.2 294.1,295.0 294.3,292.8 294.6,292.5 294.9,292.7 295.1,292.5 295.4,293.5 295.6,292.5 295.9,294.6 296.2,293.5 296.4,293.0 296.7,294.6 297.0,293.7 297.2,294.4 297.5,293.0 297.7,293.6 298.0,294.0 298.3,294.1 298.5,293.0 298.8,294.8 299.1,293.7 299.3,294.0 299.6,292.9 299.8,294.1 300.1,292.9 300.4,293.1 300.6,293.6 300.9,293.7 301.1,294.6 301.4,295.5 301.7,292.5 301.9,294.6 302.2,294.2 302.5,293.4 302.7,294.0 303.0,294.1 303.2,294.8 303.5,295.0 303.8,295.8 304.0,293.9 304.3,293.9 304.6,293.6 304.8,295.1 305.1,294.1 305.3,293.7 305.6,294.2 305.9,293.1 306.1,295.4 306.4,295.4 306.6,292.7 306.9,294.6 307.2,294.7 307.4,292.7 307.7,293.6 308.0,293.4 308.2,295.4 308.5,295.0 308.7,295.4 309.0,294.4 309.3,293.6 309.5,293.0 309.8,295.9 310.1,293.6 310.3,294.6 310.6,295.1 310.8,293.7 311.1,293.7 311.4,294.5 311.6,295.2 311.9,293.3 312.1,293.7 312.4,295.7 312.7,292.7 312.9,293.5 313.2,294.9 313.5,294.1 313.7,295.4 314.0,294.5 314.2,293.0 314.5,293.9 314.8,293.9 315.0,293.9 315.3,293.9 315.5,295.1 315.8,293.9 316.1,294.7 316.3,294.0 316.6,293.5 316.9,294.6 317.1,293.8 317.4,294.4 317.6,294.2 317.9,294.7 318.2,296.8 318.4,295.2 318.7,293.6 318.9,293.5 319.2,294.0 319.5,294.5 319.7,293.7 320.0,293.1 320.3,296.2 320.5,294.6 320.8,292.9 321.0,293.8 321.3,294.5 321.6,293.9 321.8,294.5 322.1,293.4 322.4,293.8 322.6,292.8 322.9,294.1 323.1,296.8 323.4,293.4 323.7,293.2 323.9,294.8 324.2,295.1 324.4,293.4 324.7,297.2 325.0,294.5 325.2,295.6 325.8,295.6 326.1,295.6 326.4,296.0 326.6,294.8 326.9,294.4 327.2,296.2 327.4,295.2 327.7,296.3 327.9,294.6 328.2,294.4 328.5,294.5 328.7,296.1 329.0,295.5 329.2,296.7 329.5,295.8 329.8,295.1 330.0,294.9 330.3,295.0 330.6,294.5 330.8,296.8 331.1,295.3 331.3,295.3 331.6,295.8 331.9,295.4 332.1,296.2 332.4,296.4 332.7,295.2 332.9,296.2 333.2,294.8 333.4,294.4 333.7,294.8 334.0,295.9 334.2,295.7 334.5,295.3 334.7,294.5 335.0,293.3 335.3,295.4 335.5,295.5 335.8,295.8 336.1,295.3 336.3,295.1 336.6,294.0 336.8,295.0 337.1,295.1 337.4,293.4 337.6,294.3 337.9,294.7 338.2,295.5 338.4,295.2 338.7,294.1 338.9,295.0 339.2,293.8 339.5,294.2 339.7,295.8 340.0,294.5 340.2,295.9 340.5,294.9 340.8,295.5 341.0,295.6 341.3,294.1 341.6,293.8 341.8,293.0 342.1,293.9 342.3,294.6 342.6,294.6 342.9,295.1 343.1,295.7 343.4,295.4 343.7,294.9 343.9,296.2 344.2,294.6 344.4,294.6 344.7,296.7 345.0,295.9 345.2,295.7 345.5,295.7 345.7,296.4 346.0,294.8 346.3,293.1 346.5,294.5 346.8,292.7 347.1,295.7 347.3,295.5 347.6,295.8 347.8,294.7 348.1,293.9 348.4,294.9 348.6,294.9 348.9,296.4 349.2,295.7 349.4,295.4 349.7,295.5 349.9,294.9 350.2,296.0 350.5,296.1 350.7,297.2 351.0,295.4 351.2,295.5 351.5,296.6 351.8,297.3 352.0,294.0 352.3,296.5 352.6,296.9 352.8,295.5 353.1,295.1 353.3,294.9 353.6,296.0 353.9,295.5 354.1,295.3 354.4,294.1 354.7,296.2 354.9,295.3 355.2,295.6 355.4,295.5 355.7,297.2 356.0,296.5 356.2,295.7 356.5,297.8 356.8,295.1 357.0,295.1 357.3,296.1 357.5,295.4 357.8,295.5 358.1,298.5 358.3,295.2 358.6,295.1 358.8,295.3 359.1,295.9 359.4,296.3 359.6,296.2 359.9,295.1 360.2,296.6 360.8,295.4 361.1,295.4 361.3,297.8 361.6,297.3 361.9,296.7 362.1,295.5 362.4,294.4 362.6,294.8 362.9,296.2 363.2,296.2 363.4,297.5 363.7,295.3 364.0,296.3 364.2,295.7 364.5,295.4 364.8,296.0 365.0,295.2 365.3,296.5 365.6,295.9 365.8,295.1 366.1,296.7 366.3,296.1 366.6,295.7 366.9,296.9 367.1,295.2 367.4,298.0 367.6,294.8 367.9,294.0 368.2,296.7 368.4,295.1 368.7,298.0 369.0,294.4 369.2,295.4 369.5,297.6 369.7,296.5 370.0,295.3 370.3,297.8 370.5,293.9 370.8,295.5 371.1,296.0 371.3,296.2 371.6,298.4 371.8,296.6 372.1,293.4 372.4,296.4 372.6,295.4 372.9,296.5 373.1,293.5 373.4,295.9 373.7,298.1 373.9,296.5 374.2,296.0 374.5,296.5 374.7,295.7 375.0,294.8 375.2,297.1 375.5,296.6 375.8,296.4 376.0,297.9 376.3,294.9 376.6,297.4 376.8,296.3 377.1,296.3 377.3,296.4 377.6,296.6 377.9,296.1 378.1,295.4 378.4,296.6 378.6,295.5 378.9,294.6 379.2,296.4 379.4,297.3 379.7,294.9 380.0,297.5 380.2,297.3 380.5,295.7 380.7,297.8 381.0,295.7 381.3,295.5 381.5,296.1 381.8,297.0 382.1,297.8 382.3,296.6 382.6,296.2 382.8,295.6 383.1,297.6 383.4,297.4 383.6,297.5 383.9,297.2 384.1,295.7 384.4,296.1 384.7,297.1 384.9,297.1 385.2,295.5 385.5,296.0 385.7,295.4 386.0,296.0 386.2,296.9 386.5,297.4 386.8,296.8 387.0,295.2 387.3,295.9 387.6,296.3 387.8,298.1 388.1,296.1 388.3,296.5 388.6,295.1 388.9,297.1 389.1,297.3 389.4,297.4 389.7,296.6 389.9,295.6 390.2,296.3 390.4,295.4 390.7,296.6 391.0,297.2 391.2,297.0 391.5,296.9 391.7,297.5 392.0,297.7 392.3,296.9 392.5,296.6 392.8,296.3 393.1,296.7 393.3,296.3 393.6,297.5 393.8,296.8 394.1,296.5 394.4,296.0 394.6,294.6 394.9,296.6 395.2,297.0 395.4,294.9 395.7,297.0 395.9,297.8 396.2,296.8 396.5,297.5 396.7,296.0 397.0,298.1 397.2,297.8 397.5,296.1 397.8,296.6 398.0,296.7 398.3,296.8 398.6,297.3 398.8,297.1 399.1,296.2 399.3,297.3 399.6,295.4 399.9,295.3 400.1,297.9 400.4,297.7 400.7,297.6 400.9,297.8 401.2,296.2 401.4,297.8 401.7,297.1 402.0,298.5 402.2,295.8 402.5,296.6 402.8,296.8 403.0,297.1 403.3,296.8 403.5,295.9 403.8,296.5 404.1,296.2 404.3,297.1 404.6,297.8 404.8,295.8 405.1,297.1 405.4,295.7 405.6,295.9 405.9,296.8 406.2,297.3 406.4,296.8 406.7,297.1 407.0,297.1 407.2,297.7 407.5,295.7 407.7,296.4 408.0,296.7 408.3,298.4 408.5,297.3 408.8,296.0 409.0,296.2 409.3,298.0 409.6,298.1 409.8,297.7 410.1,296.9 410.4,297.0 410.6,296.5 410.9,297.8 411.1,296.7 411.4,297.3 411.7,296.3 411.9,296.2 412.2,297.3 412.4,296.2 412.7,296.6 413.0,297.2 413.2,297.2 413.5,295.6 413.8,296.2 414.0,295.6 414.3,297.3 414.5,297.2 414.8,298.7 415.1,298.4 415.3,296.5 415.6,297.1 415.9,297.5 416.1,296.2 416.4,297.9 416.6,296.3 416.9,297.7 417.2,296.8 417.4,296.1 417.7,297.4 417.9,299.1 418.2,296.9 418.5,297.6 418.7,298.3 419.0,296.7 419.3,298.2 419.5,297.0 419.8,298.5 420.0,297.7 420.3,297.5 420.6,297.8 420.8,298.1 421.1,295.4 421.3,295.9 421.6,297.1 421.9,297.6 422.1,296.6 422.4,299.1 422.7,297.9 422.9,296.5 423.2,297.4 423.5,296.6 423.7,295.8 424.0,297.5 424.2,297.3 424.5,296.2 424.8,296.3 425.0,296.5 425.3,296.7 425.6,298.0 425.8,297.4 426.1,296.4 426.3,296.5 426.6,297.0 426.9,296.8 427.1,298.9 427.4,297.8 427.7,297.9 428.0,298.1 428.2,298.2 428.5,296.8 428.7,298.2 429.0,297.8 429.3,297.7 429.5,296.2 429.8,296.4 430.0,296.9 430.3,298.3 430.6,298.3 430.8,297.4 431.1,295.9 431.4,298.6 431.6,297.7 431.9,297.0 432.1,298.2 432.4,298.4 432.7,297.8 432.9,298.4 433.2,297.2 433.5,297.8 433.7,297.8 434.0,297.0 434.3,296.8 434.5,297.8 434.8,296.4 435.0,297.0 435.3,298.6 435.6,296.9 435.8,297.2 436.1,297.4 436.3,297.9 436.6,298.0 436.9,297.7 437.1,296.7 437.4,297.3 437.7,296.8 437.9,296.4 438.2,297.9 438.4,299.2 438.7,297.3 439.0,297.1 439.2,297.8 439.5,296.6 439.7,295.0 440.0,297.0 440.3,299.2 440.5,296.9 440.8,296.8 441.1,298.7 441.3,297.1 441.6,297.0 441.8,297.3 442.1,298.3 442.4,298.5 442.6,295.4 442.9,298.4 443.1,296.9 443.4,297.8 443.7,298.4 443.9,297.2 444.2,298.4 444.5,297.8 444.7,297.6 445.0,296.5 445.2,298.0 445.5,297.7 445.8,299.0 446.0,297.3 446.3,298.4 446.6,297.8 446.8,296.5 447.1,296.9 447.3,297.2 447.6,298.6 447.9,298.2 448.1,298.6 448.4,295.5 448.7,298.0 448.9,297.7 449.2,297.8 449.4,296.1 449.7,296.1 450.0,297.8 450.2,297.3 450.5,297.7 450.7,297.6 451.0,298.0 451.3,297.7 451.5,298.1 451.8,299.4 452.1,296.7 452.3,297.8 452.6,297.3 452.8,299.2 453.1,297.8 453.4,298.7 453.6,298.6 453.9,298.2 454.2,299.0 454.4,296.9 454.7,297.5 454.9,298.3 455.2,297.6 455.5,299.2 455.7,297.1 456.0,297.1 456.2,297.6 456.5,296.6 456.8,299.7 457.0,295.8 457.3,298.6 457.6,297.5 457.8,296.8 458.1,297.5 458.3,298.4 458.6,298.2 458.9,299.4 459.1,296.1 459.4,297.7 459.7,295.9 459.9,298.9 460.2,296.8 460.4,295.0 460.7,296.2 461.0,297.5 461.2,297.3 461.5,297.4 461.7,296.8 462.0,299.4 462.3,298.7 462.5,297.2 462.8,297.6 463.1,297.8 463.3,296.6 463.6,299.3 463.8,298.5 464.1,297.3 464.4,297.7 464.6,298.2 464.9,297.3 465.1,297.5 465.4,298.6 465.7,296.6 465.9,297.2 466.2,298.6 466.5,298.8 466.7,298.5 467.0,298.7 467.2,297.5 467.5,297.4 467.8,296.6 468.0,295.3 468.3,298.4 468.5,296.9 468.8,296.5 469.1,297.7 469.3,297.5 469.6,299.0 469.9,298.3 470.1,297.3 470.4,297.2 470.6,300.0 470.9,299.2 471.2,298.4 471.4,297.1 471.7,298.7 471.9,298.3 472.2,298.7 472.5,298.5 472.7,298.4 473.0,297.5 473.3,298.5 473.5,297.7 473.8,297.8 474.0,299.4 474.3,297.1 474.6,297.4 474.8,297.6 475.1,297.6 475.3,296.9 475.6,298.6 475.9,296.8 476.1,298.3 476.4,299.3 476.7,298.3 476.9,298.7 477.2,297.5 477.4,297.3 477.7,298.4 478.0,296.4 478.2,297.8 478.5,297.2 478.8,297.5 479.0,296.4 479.3,299.0 479.5,299.7 479.8,299.0 480.1,297.9 480.3,298.5 480.6,297.9 480.8,298.8 481.1,297.2 481.4,298.3 481.6,297.6 481.9,298.0 482.2,296.9 482.4,298.5 482.7,298.5 482.9,298.1 483.2,298.5 483.5,297.3 483.7,298.1 484.0,297.7 484.2,299.3 484.5,298.6 484.8,298.7 485.0,298.2 485.3,298.4 485.6,299.5 485.8,299.6 486.1,297.7 486.3,297.9 486.6,300.5 486.9,299.3 487.1,300.0 487.4,298.7 487.7,298.8 487.9,296.1 488.2,297.6 488.4,298.8 488.7,298.3 489.0,298.4 489.2,298.7 489.5,298.0 489.8,298.7 490.0,299.0 490.3,299.6 490.5,299.6 490.8,297.8 491.1,297.4 491.3,298.5 491.6,299.2 491.9,297.3 492.1,298.4 492.4,298.3 492.6,298.9 492.9,297.5 493.2,298.4 493.4,299.8 493.7,296.2 493.9,299.0 494.2,297.8 494.5,297.3 494.7,298.7 495.0,297.8 495.3,299.7 495.5,298.6 495.8,298.8 496.0,299.0 496.3,299.5 496.6,296.7 496.8,298.0 497.1,298.5 497.3,299.3 497.6,297.5 497.9,299.9 498.1,298.8 498.4,299.4 498.7,298.2 498.9,298.2 499.2,298.7 499.4,298.9 499.7,297.7 500.0,298.3 500.2,299.0 500.5,297.7 500.8,297.6 501.0,298.0 501.3,297.7 501.5,300.3 501.8,301.0 502.1,299.7 502.3,299.2 502.6,299.8 502.9,297.0 503.1,298.2 503.4,297.7 503.6,297.5 503.9,299.4 504.2,298.9 504.4,297.6 504.7,298.8 505.0,297.3 505.2,298.0 505.5,298.0 505.7,298.1 506.0,296.8 506.3,299.0 506.5,298.0 506.8,298.9 507.0,298.5 507.3,297.3 507.6,297.9 507.8,298.4 508.1,298.8 508.4,298.2 508.6,299.3 508.9,298.4 509.1,299.3 509.4,297.5 509.7,297.6 509.9,299.9 510.2,298.4 510.5,296.6 510.7,297.3 511.0,297.3 511.2,299.4 511.5,299.7 511.8,297.4 512.0,299.3 512.3,298.2 512.6,297.7 512.8,299.5 513.1,299.1 513.3,297.9 513.6,299.1 513.9,299.9 514.1,298.7 514.4,298.1 514.6,299.1 514.9,299.3 515.2,298.3 515.4,297.5 515.7,297.8 516.0,298.3 516.2,297.6 516.5,299.3 516.7,297.9 517.0,297.4 517.3,296.8 517.5,298.2 517.8,299.5 518.0,300.1 518.3,297.4 518.6,300.1 518.8,299.0 519.1,298.1 519.4,300.0 519.6,298.6 519.9,299.8 520.1,299.2 520.4,300.3 520.7,297.3 520.9,299.4 521.2,297.8 521.4,297.3 521.7,300.2 522.0,299.1 522.2,298.9 522.5,297.8 522.8,298.8 523.0,298.8 523.3,298.5 523.5,299.8 523.8,299.5 524.1,299.5 524.3,298.7 524.6,298.5 524.9,298.5 525.1,299.5 525.4,299.0 525.6,300.2 525.9,298.9 526.2,299.0 526.4,300.2 526.7,300.7 527.0,299.0 527.2,298.4 527.5,298.6 527.7,299.2 528.0,297.0 528.3,298.0 528.5,299.0 528.8,298.2 529.0,298.2 529.3,299.0 529.6,297.3 529.8,297.7 530.1,300.1 530.4,297.5 530.6,296.8 530.9,299.1 531.1,299.3 531.4,299.4 531.7,296.5 531.9,297.7 532.2,297.9 532.5,299.7 532.7,297.2 533.0,297.8 533.2,298.6 533.5,298.1 533.8,299.0 534.0,298.8 534.3,298.6 534.5,297.3 534.8,298.3 535.1,299.3 535.3,298.6 535.6,298.6 535.9,299.0 536.1,299.1 536.4,298.7 536.6,297.1 536.9,297.9 537.2,298.3 537.4,299.0 537.7,299.8 537.9,300.0 538.2,299.2 538.5,300.4 538.7,297.3 539.0,299.1 539.3,298.6 539.5,297.5 539.8,297.9 540.0,299.6 540.3,298.5 540.6,298.4 540.8,298.6 541.1,298.0 541.3,298.2 541.6,298.4 541.9,299.2 542.1,297.9 542.4,300.5 542.7,298.1 542.9,298.6 543.2,299.0 543.4,300.6 543.7,297.9 544.0,299.7 544.2,299.4 544.5,300.0 544.7,297.1 545.0,298.1 545.3,298.8 545.5,299.8 545.8,296.6 546.1,299.4 546.3,298.1 546.6,297.8 546.8,301.2 547.1,298.2 547.4,298.6 547.6,299.5 547.9,299.8 548.2,298.5 548.4,299.8 548.7,300.7 548.9,299.6 549.2,297.7 549.5,299.1 549.7,299.9 550.0,297.5 550.2,297.8 550.5,297.8 550.8,299.1 551.0,299.0 551.3,299.6 551.6,298.3 551.8,299.6 552.1,300.9 552.3,298.9 552.6,300.6 552.9,300.9 553.1,299.3 553.4,299.7 553.7,299.7 553.9,298.6 554.2,299.2 554.4,298.2 554.7,298.0 555.0,297.4 555.2,299.0 555.5,298.0 555.7,300.4 556.0,299.3 556.3,298.7 556.5,299.3 556.8,298.1 557.1,299.8 557.3,299.3 557.6,300.1 557.8,297.6 558.1,298.5 558.4,300.0 558.6,297.7 558.9,297.7 559.2,298.5 559.4,300.2 559.7,298.1 559.9,297.7 560.2,298.3 560.5,297.8 560.7,299.5 561.0,298.7 561.2,300.8 561.5,298.4 561.8,301.0 562.0,298.2 562.3,298.4 562.6,300.4 562.8,300.4 563.1,299.3 563.3,298.3 563.6,299.1 563.9,300.4 564.1,298.1 564.4,298.8 564.6,300.0 564.9,300.5 565.2,300.7 565.4,299.4 565.7,298.3 566.0,298.8 566.2,300.8 566.5,298.0 566.7,299.2 567.0,299.2 567.3,298.7 567.5,300.8 567.8,298.3 568.1,298.4 568.3,300.3 568.6,298.7 568.8,298.4 569.1,299.9 569.4,297.9 569.6,300.2 569.9,299.6 570.2,299.3 570.4,299.3 570.7,299.7 570.9,300.7 571.2,299.6 571.5,299.6 571.7,297.9 572.0,297.6 572.3,299.9 572.5,298.8 572.8,300.8 573.0,299.3 573.3,299.0 573.6,297.6 573.8,299.4 574.1,298.5 574.3,299.9 574.6,297.4 574.9,298.9 575.1,297.1 575.4,299.3 575.7,299.7 575.9,299.3 576.2,299.1 576.4,299.9 576.7,299.1 577.0,298.2 577.2,298.6 577.5,298.6 577.7,299.0 578.0,298.6 578.3,301.5 578.5,301.5 578.8,300.3 579.1,297.8 579.3,300.1 579.6,300.1 579.8,300.2 580.1,297.8 580.4,299.5 580.6,300.3 580.9,299.4 581.2,298.3 581.4,298.9 581.7,298.9 581.9,300.2 582.2,299.4 582.5,300.4 582.7,299.6 583.0,298.7 583.2,298.2 583.5,298.9 583.8,298.3 584.0,299.1 584.3,297.5 584.6,299.1 584.8,299.3 585.1,297.4 585.3,301.2 585.6,300.4 585.9,300.6 586.1,300.6 586.4,299.2 586.7,300.2 586.9,300.2 587.2,299.9 587.4,298.9 587.7,299.3 588.0,299.9 588.2,300.1 588.5,299.4 588.8,300.3 589.0,300.3 589.3,300.2 589.5,297.6 589.8,298.6 590.1,297.3 590.3,300.2 590.6,300.4 590.9,300.9 591.1,299.0 591.4,299.2 591.6,298.7 591.9,298.9 592.2,298.9 592.4,299.6 592.7,299.4 593.0,299.4 593.2,298.8 593.5,300.7 593.7,300.9 594.0,298.9 594.3,299.0 594.5,298.8 594.8,299.7 595.0,300.3 595.3,298.7 595.6,301.1 595.8,300.6 596.1,298.5 596.4,299.0 596.6,299.2 596.9,299.9 597.1,299.7 597.4,300.6 597.7,301.1 597.9,298.3 598.2,300.9 598.5,300.4 598.7,300.0 599.0,298.4 599.2,300.2 599.5,299.9 599.8,299.1 600.0,299.1 600.3,298.7 600.5,300.4 600.8,297.1 601.1,297.8 601.3,298.5 601.6,298.5 601.9,300.1 602.1,301.0 602.4,297.9 602.6,298.2 602.9,301.3 603.2,299.6 603.4,299.9 603.7,298.5 604.0,299.1 604.2,300.8 604.5,299.6 604.7,299.4 605.0,298.3 605.3,299.9 605.5,300.2 605.8,299.2 606.1,300.4 606.3,298.5 606.6,297.9 606.8,299.2 607.1,300.5 607.4,300.2 607.6,298.4 607.9,299.8 608.2,299.6 608.4,300.2 608.7,299.6 608.9,300.5 609.2,299.4 609.5,299.7 609.7,298.8 610.0,299.8 610.3,299.7 610.5,297.6 610.8,300.5 611.0,300.6 611.3,302.1 611.6,298.8 611.8,300.5 612.1,299.8 612.4,298.4 612.6,299.7 612.9,300.1 613.2,300.8 613.4,299.8 613.7,299.7 613.9,300.4 614.2,300.0 614.5,298.8 614.7,299.7 615.0,297.9 615.3,300.1 615.5,297.8 615.8,299.9 616.0,299.0 616.3,297.6 616.6,298.6 616.8,300.0 617.1,301.4 617.3,299.5 617.6,299.4 617.9,299.7 618.1,298.5 618.4,299.6 618.7,299.5 618.9,299.6 619.2,300.4 619.4,299.9 619.7,300.8 620.0,299.5 620.2,298.9 620.5,299.9 620.8,300.2 621.0,298.8 621.3,299.5 621.6,299.8 621.8,301.7 622.1,299.3 622.3,301.0 622.6,298.0 622.9,299.0 623.1,300.3 623.4,299.3 623.6,299.0 623.9,299.9 624.2,300.3 624.4,301.3 624.7,300.2 625.0,299.7 625.2,300.6 625.5,297.5 625.7,298.2 626.0,300.5 626.3,299.7 626.5,300.3 626.8,301.8 627.1,300.6 627.3,299.9 627.6,300.5 627.8,300.3 628.1,298.6 628.4,299.1 628.6,298.2 628.9,299.3 629.2,300.3 629.4,300.5 629.7,300.5 629.9,300.0 630.2,298.9 630.5,300.1 630.7,301.0 631.0,297.8 631.3,299.8 631.5,300.5 631.8,298.9 632.0,299.7 632.3,297.0 632.6,300.1 632.8,300.9 633.1,300.1 633.4,299.1 633.6,299.0 633.9,298.6 634.1,299.4 634.4,300.2 634.7,300.6 634.9,300.6 635.2,301.8 635.5,301.8 635.7,300.1 636.0,298.4 636.2,300.7 636.5,300.2 636.8,298.8 637.0,300.3 637.3,297.5 637.6,301.5 637.8,300.5 638.1,299.4 638.3,300.5 638.6,300.6 638.9,299.5 639.1,300.7 639.4,298.9 639.7,301.0 639.9,300.1 640.2,299.1 640.4,299.9 640.7,300.2 641.0,299.6 641.2,299.3 641.5,299.8 641.8,299.8 642.0,299.3 642.3,298.7 642.6,297.9 642.8,300.1 643.1,299.1 643.3,301.1 643.6,300.4 643.9,300.7 644.1,301.3 644.4,298.3 644.7,299.5 644.9,300.0 645.2,298.4 645.4,300.1 645.7,301.7 646.0,300.3 646.2,300.3 646.5,302.0 646.8,299.4 647.0,301.3 647.3,301.7 647.5,298.6 647.8,299.9 648.1,299.2 648.3,302.4 648.6,300.5 648.9,300.1 649.1,298.2 649.4,299.0 649.6,301.2 649.9,301.0 650.2,300.1 650.4,300.8 650.7,298.2 650.9,299.3 651.2,300.3 651.5,300.3 651.7,300.1 652.0,299.4 652.3,300.7 652.5,299.2 652.8,300.9 653.0,299.7 653.3,299.6 653.6,300.2 653.8,297.9 654.1,297.6 654.4,299.7 654.6,298.6 654.9,300.0 655.1,300.0 655.4,298.7 655.7,301.4 655.9,299.0 656.2,301.5 656.5,299.1 656.7,299.0 657.0,300.8 657.2,299.4 657.5,299.9 657.8,301.3 658.0,300.6 658.3,300.1 658.6,300.3 658.8,299.6 659.1,298.9 659.3,299.4 659.6,300.7 659.9,299.9 660.1,298.9 660.4,299.7 660.6,300.1 660.9,301.6 661.2,299.6 661.4,299.3 661.7,300.6 662.0,299.9 662.2,299.9 662.5,299.9 662.7,298.2 663.0,300.4 663.3,299.7 663.5,300.6 663.8,299.7 664.1,300.6 664.3,300.7 664.6,300.0 664.8,299.3 665.1,299.3 665.4,298.2 665.6,299.7 665.9,298.7 666.1,299.6 666.4,299.9 666.7,301.7 666.9,300.2 667.2,300.0 667.5,299.0 667.7,299.6 668.0,299.7 668.2,302.6 668.5,300.5 668.8,297.6 669.0,299.0 669.3,300.1 669.6,299.8 669.8,300.0 670.1,300.1 670.3,300.0 670.6,300.4 670.9,299.7 671.1,299.1 671.4,298.9 671.7,300.2 671.9,298.3 672.2,299.8 672.4,300.9 672.7,299.3 673.0,299.8 673.2,298.6 673.5,301.3 673.7,298.4 674.0,300.3 674.3,299.5 674.5,302.2 674.8,300.2 675.1,300.3 675.3,300.5 675.6,300.3 675.8,299.2 676.1,300.6 676.4,300.7 676.6,300.6 676.9,299.4 677.2,301.3 677.4,299.3 677.7,301.3 677.9,298.9 678.2,298.8 678.5,300.4 678.7,299.3 679.0,302.6 679.2,300.8 679.5,300.8 679.8,300.6 680.0,300.4 680.3,300.5 680.6,299.2 680.8,301.2 681.1,301.7 681.3,299.6 681.6,301.0 681.9,300.9 682.1,300.5 682.4,299.2 682.7,299.6 682.9,300.4 683.2,300.2 683.4,299.5 683.7,299.7 684.0,301.5 684.2,300.3 684.5,300.7 684.8,301.4 685.0,298.1 685.3,300.4 685.5,302.0 685.8,301.1 686.1,299.9 686.3,299.5 686.6,300.7 686.9,299.5 687.1,300.7 687.4,300.3 687.6,299.4 687.9,299.6 688.2,301.2 688.4,300.4 688.7,299.4 689.0,300.1 689.2,299.1 689.5,298.8 689.7,301.0 690.0,301.2" fill="none" stroke="#94a3b8" stroke-width="1.5"/>
<rect x="65" y="20" width="625" height="330" fill="none" stroke="#888" stroke-width="1.5"/>
<line x1="62" y1="308.5" x2="65" y2="308.5" stroke="#94a3b8" stroke-width="1" opacity="0.6"/>
<line x1="62" y1="260.0" x2="65" y2="260.0" stroke="#94a3b8" stroke-width="1" opacity="0.6"/>
<line x1="62" y1="199.0" x2="65" y2="199.0" stroke="#94a3b8" stroke-width="1" opacity="0.6"/>
<line x1="60" y1="116.3" x2="65" y2="116.3" stroke="#94a3b8" stroke-width="1.5"/>
<text x="57" y="116.3" text-anchor="end" dominant-baseline="middle" font-size="11" font-family="monospace,sans-serif" fill="#94a3b8">10</text>
<line x1="62" y1="33.5" x2="65" y2="33.5" stroke="#94a3b8" stroke-width="1" opacity="0.6"/>
<line x1="65.0" y1="350" x2="65.0" y2="355" stroke="#888" stroke-width="1.5"/>
<text x="65.0" y="368" text-anchor="middle" font-size="11" font-family="monospace,sans-serif">0</text>
<line x1="190.1" y1="350" x2="190.1" y2="355" stroke="#888" stroke-width="1.5"/>
<text x="190.1" y="368" text-anchor="middle" font-size="11" font-family="monospace,sans-serif">2</text>
<line x1="315.1" y1="350" x2="315.1" y2="355" stroke="#888" stroke-width="1.5"/>
<text x="315.1" y="368" text-anchor="middle" font-size="11" font-family="monospace,sans-serif">4</text>
<line x1="440.2" y1="350" x2="440.2" y2="355" stroke="#888" stroke-width="1.5"/>
<text x="440.2" y="368" text-anchor="middle" font-size="11" font-family="monospace,sans-serif">6</text>
<line x1="565.3" y1="350" x2="565.3" y2="355" stroke="#888" stroke-width="1.5"/>
<text x="565.3" y="368" text-anchor="middle" font-size="11" font-family="monospace,sans-serif">8</text>
<line x1="690.4" y1="350" x2="690.4" y2="355" stroke="#888" stroke-width="1.5"/>
<text x="690.4" y="368" text-anchor="middle" font-size="11" font-family="monospace,sans-serif">10</text>
<text x="377" y="392" text-anchor="middle" font-size="13" font-family="sans-serif">Runtime (minutes)</text>
<text transform="rotate(-90,16,185)" x="16" y="185" text-anchor="middle" font-size="13" font-family="sans-serif" fill="#94a3b8">Train loss (log scale)</text>
</svg>