<svg xmlns="http://www.w3.org/2000/svg" viewBox="0 0 720 400" width="720" height="400" style="background:white">
<rect x="65" y="20" width="635" height="330" fill="#f9f9f9"/>
<line x1="65" y1="308.5" x2="700" y2="308.5" stroke="#e8e8e8" stroke-width="1"/>
<line x1="65" y1="260.0" x2="700" y2="260.0" stroke="#e8e8e8" stroke-width="1"/>
<line x1="65" y1="199.0" x2="700" y2="199.0" stroke="#e8e8e8" stroke-width="1"/>
<line x1="65" y1="116.3" x2="700" y2="116.3" stroke="#ccc" stroke-width="1"/>
<line x1="65" y1="33.5" x2="700" y2="33.5" stroke="#e8e8e8" stroke-width="1"/>
<line x1="65.0" y1="20" x2="65.0" y2="350" stroke="#e8e8e8" stroke-width="1"/>
<line x1="192.1" y1="20" x2="192.1" y2="350" stroke="#e8e8e8" stroke-width="1"/>
<line x1="319.1" y1="20" x2="319.1" y2="350" stroke="#e8e8e8" stroke-width="1"/>
<line x1="446.2" y1="20" x2="446.2" y2="350" stroke="#e8e8e8" stroke-width="1"/>
<line x1="573.3" y1="20" x2="573.3" y2="350" stroke="#e8e8e8" stroke-width="1"/>
<line x1="700.4" y1="20" x2="700.4" y2="350" stroke="#e8e8e8" stroke-width="1"/>
<polyline points="65.0,119.6 65.3,53.2 65.5,91.2 65.8,148.0 66.1,160.9 66.3,153.1 66.6,153.2 66.9,158.5 67.1,164.3 67.4,168.1 67.7,170.3 67.9,173.5 68.2,175.8 68.5,178.0 68.7,180.1 69.0,181.8 69.3,183.5 69.5,185.1 69.8,186.9 70.0,188.4 70.3,191.1 70.6,192.9 70.8,195.3 71.1,197.4 71.4,199.4 71.6,201.3 71.9,202.8 72.2,204.5 72.4,206.1 72.7,207.3 73.0,209.0 73.2,210.3 73.5,211.2 73.8,211.5 74.0,212.5 74.3,213.7 74.6,214.0 74.8,214.8 75.1,215.6 75.4,216.6 75.6,217.3 75.9,217.9 76.2,218.9 76.4,219.5 76.7,220.1 77.0,220.8 77.2,221.9 77.5,222.0 77.8,223.4 78.0,224.2 78.3,225.6 78.6,226.2 78.8,226.5 79.1,227.4 79.4,227.5 79.6,229.5 79.9,229.6 80.2,230.6 80.4,231.4 80.7,231.8 81.0,232.3 81.2,233.4 81.5,234.6 81.7,234.5 82.0,234.9 82.3,235.7 82.5,236.3 82.8,236.6 83.1,236.2 83.3,239.3 83.6,238.9 83.9,239.4 84.1,239.8 84.4,240.1 84.7,241.3 84.9,241.0 85.2,242.3 85.5,240.8 85.7,242.8 86.0,243.4 86.3,243.0 86.5,243.5 86.8,244.3 87.1,244.8 87.3,245.3 87.6,244.7 87.9,244.5 88.1,246.8 88.4,246.1 88.7,247.8 88.9,247.4 89.2,247.5 89.5,247.6 89.7,248.2 90.0,248.0 90.3,249.4 90.5,249.3 90.8,249.4 91.1,250.2 91.3,249.7 91.6,250.8 91.9,249.5 92.1,250.2 92.4,252.6 92.7,252.6 92.9,252.4 93.2,252.5 93.5,252.8 93.7,252.6 94.0,253.9 94.3,253.0 94.5,254.6 94.8,255.0 95.1,254.9 95.3,255.3 95.6,256.2 95.9,256.8 96.1,255.6 96.4,257.1 96.7,257.5 96.9,257.5 97.2,257.1 97.5,256.9 97.7,257.4 98.0,257.0 98.3,258.4 98.5,258.2 98.8,257.4 99.1,259.6 99.3,259.3 99.6,258.9 99.9,260.7 100.1,260.4 100.4,259.5 100.7,259.3 100.9,260.5 101.2,260.6 101.5,262.3 101.7,261.6 102.0,261.1 102.3,261.8 102.5,262.1 102.8,262.2 103.1,262.4 103.3,261.5 103.6,262.6 103.9,262.0 104.1,262.3 104.4,262.1 104.7,262.6 104.9,262.6 105.2,263.6 105.5,263.8 105.7,265.0 106.0,263.8 106.2,262.2 106.5,263.1 106.8,263.6 107.0,263.0 107.3,265.5 107.6,264.2 107.8,264.7 108.1,265.0 108.4,265.1 108.6,264.5 108.9,265.4 109.2,266.7 109.4,265.6 109.7,266.0 110.0,265.7 110.2,265.8 110.5,266.3 110.8,266.3 111.0,266.9 111.3,266.6 111.6,265.6 111.8,266.6 112.1,266.9 112.4,266.5 112.6,267.6 112.9,267.3 113.2,268.0 113.4,267.8 113.7,267.3 114.0,268.5 114.2,267.6 114.5,266.4 114.8,267.6 115.0,268.8 115.3,268.7 115.6,269.2 115.8,270.2 116.1,268.8 116.3,269.8 116.6,268.6 116.9,270.2 117.1,268.2 117.4,268.4 117.7,269.2 117.9,268.9 118.2,269.4 118.5,269.9 118.7,269.7 119.0,271.1 119.3,269.6 119.5,270.1 119.8,269.9 120.1,270.6 120.3,269.9 120.6,270.5 120.9,271.4 121.1,271.4 121.4,271.1 121.7,270.5 121.9,271.3 122.2,271.8 122.5,271.3 122.7,272.4 123.0,270.8 123.3,271.9 123.5,272.5 123.8,272.0 124.1,272.0 124.3,271.3 124.6,272.8 124.8,271.1 125.1,271.9 125.4,272.8 125.6,271.4 125.9,272.6 126.2,272.4 126.4,272.3 126.7,273.9 127.0,272.4 127.2,272.6 127.5,273.1 127.8,272.9 128.0,273.6 128.3,273.3 128.6,273.1 128.8,274.8 129.1,274.8 129.4,273.2 129.6,273.3 129.9,275.0 130.2,273.7 130.4,274.1 130.7,273.6 131.0,273.6 131.2,272.6 131.5,274.0 131.8,274.9 132.0,274.9 132.3,273.7 132.6,274.0 132.8,274.5 133.1,275.7 133.4,275.3 133.6,273.8 133.9,275.0 134.2,275.2 134.4,275.5 134.7,276.2 134.9,276.1 135.2,277.0 135.5,276.1 135.7,276.2 136.0,274.9 136.3,276.5 136.5,275.0 136.8,276.0 137.1,274.1 137.3,275.4 137.6,276.5 137.9,275.2 138.1,278.3 138.4,275.0 138.7,275.3 138.9,275.6 139.2,274.7 139.5,276.2 139.7,275.5 140.0,277.3 140.3,277.8 140.5,277.4 140.8,277.3 141.1,277.8 141.3,276.9 141.6,276.7 141.9,277.9 142.1,276.9 142.4,276.7 142.7,276.7 142.9,277.3 143.2,277.8 143.5,276.4 143.7,276.9 144.0,278.0 144.3,278.3 144.5,276.5 144.8,278.2 145.1,279.3 145.3,279.4 145.6,278.6 145.9,278.9 146.1,278.7 146.4,278.4 146.7,278.9 146.9,278.2 147.2,278.7 147.5,278.0 147.7,279.4 148.0,278.6 148.3,278.4 148.5,278.8 148.8,279.5 149.0,279.4 149.3,279.1 149.6,278.9 149.8,278.5 150.1,278.9 150.4,279.0 150.6,278.8 150.9,279.4 151.2,278.8 151.4,279.8 151.7,280.9 152.0,278.5 152.2,279.5 152.5,279.2 152.8,279.3 153.0,279.9 153.3,279.3 153.6,279.7 153.8,280.6 154.1,280.3 154.4,281.7 154.6,280.6 154.9,279.9 155.2,282.4 155.4,279.2 155.7,280.1 156.0,279.6 156.2,280.8 156.5,280.2 156.8,280.7 157.0,280.4 157.3,282.1 157.6,280.6 157.9,280.3 158.1,282.1 158.4,280.6 158.7,281.8 159.0,281.0 159.2,281.2 159.5,280.7 159.8,279.1 160.0,280.5 160.3,281.4 160.6,282.4 160.8,281.3 161.1,282.1 161.4,281.4 161.7,281.0 161.9,280.2 162.2,282.3 162.5,282.1 162.7,281.9 163.0,282.3 163.3,282.4 163.5,281.4 163.8,282.7 164.1,280.4 164.3,281.7 164.6,281.9 164.8,282.0 165.1,281.9 165.4,282.8 165.7,283.0 165.9,282.6 166.2,280.9 166.4,283.4 166.7,282.5 167.0,281.3 167.2,282.4 167.5,283.1 167.8,282.2 168.0,284.1 168.3,282.5 168.6,282.7 168.8,281.9 169.1,283.4 169.4,281.8 169.6,282.9 169.9,282.7 170.2,283.8 170.4,282.6 170.7,282.1 171.0,284.0 171.2,282.8 171.5,283.4 171.8,284.5 172.0,284.0 172.3,281.6 172.6,282.0 172.8,283.6 173.1,283.3 173.4,282.6 173.6,284.5 173.9,282.6 174.2,284.5 174.4,284.0 174.7,284.2 175.0,282.9 175.2,281.9 175.5,283.3 175.8,283.8 176.0,283.5 176.3,283.2 176.6,284.1 176.8,281.6 177.1,283.6 177.4,284.1 177.6,284.5 177.9,284.8 178.2,283.9 178.4,284.4 178.7,285.8 179.0,284.0 179.2,283.1 179.5,282.8 179.8,285.6 180.0,283.3 180.3,283.4 180.6,285.5 180.8,282.5 181.1,283.1 181.4,284.4 181.6,285.7 181.9,284.9 182.2,284.9 182.4,282.5 182.7,284.8 183.0,284.9 183.2,284.7 183.5,286.5 183.8,285.0 184.0,282.3 184.3,285.7 184.6,284.8 184.8,283.6 185.1,285.5 185.4,286.0 185.6,285.4 185.9,285.1 186.2,284.9 186.4,285.3 186.7,285.7 187.0,285.9 187.2,287.2 187.5,284.7 187.8,283.5 188.0,284.5 188.3,285.3 188.6,284.9 188.8,285.3 189.1,286.7 189.4,285.9 189.6,286.6 189.9,285.9 190.2,284.6 190.4,285.1 190.7,284.3 191.0,285.2 191.2,286.0 191.5,285.9 191.8,285.2 192.0,286.2 192.3,285.8 192.6,285.4 192.8,285.6 193.1,287.8 193.4,287.3 193.6,286.5 193.9,285.9 194.1,284.7 194.4,286.3 194.7,286.8 194.9,285.7 195.2,285.9 195.5,286.0 195.7,287.1 196.0,286.0 196.3,286.1 196.5,285.6 196.8,288.0 197.1,286.9 197.3,285.9 197.6,286.0 197.9,284.9 198.1,286.2 198.4,286.3 198.7,285.4 198.9,287.1 199.2,285.6 199.5,285.8 200.1,285.4 200.4,287.0 200.7,286.0 200.9,286.6 201.2,286.3 201.5,287.0 201.7,285.9 202.0,286.7 202.3,286.0 202.5,286.2 202.8,287.8 203.1,288.1 203.3,287.2 203.6,287.6 203.9,286.4 204.1,288.0 204.4,286.4 204.7,287.8 204.9,286.4 205.2,287.8 205.5,288.0 205.7,285.8 206.0,287.4 206.3,286.6 206.5,286.6 206.8,288.0 207.0,285.8 207.3,287.3 207.6,287.4 207.8,287.3 208.1,287.1 208.4,289.0 208.6,287.4 208.9,287.6 209.2,286.9 209.4,287.4 209.7,288.4 210.0,286.5 210.2,288.3 210.5,287.7 210.8,288.0 211.0,287.8 211.3,288.9 211.6,288.0 211.8,288.7 212.1,287.6 212.4,288.5 212.7,289.0 212.9,287.2 213.2,288.3 213.4,288.5 213.7,288.1 214.0,286.8 214.3,287.7 214.5,288.3 214.8,288.1 215.1,289.0 215.3,289.1 215.6,289.1 215.8,287.4 216.1,289.4 216.4,288.1 216.6,289.2 216.9,287.7 217.2,288.6 217.4,288.4 217.7,287.9 218.0,288.8 218.2,288.5 218.5,287.4 218.8,289.9 219.0,288.8 219.3,289.1 219.6,288.7 219.8,288.6 220.1,288.7 220.4,289.3 220.6,288.2 220.9,289.0 221.2,288.9 221.4,289.2 221.7,288.2 222.0,289.1 222.2,290.7 222.5,289.1 222.8,288.7 223.0,288.3 223.3,289.9 223.6,290.1 223.8,288.1 224.1,289.8 224.4,287.0 224.6,290.2 224.9,288.3 225.2,290.0 225.4,289.9 225.7,288.7 226.0,289.4 226.2,290.0 226.5,290.4 226.8,291.3 227.0,289.0 227.3,290.1 227.6,289.5 227.8,288.4 228.1,289.7 228.4,290.9 228.6,291.4 228.9,289.2 229.2,290.4 229.4,290.3 229.7,288.5 230.0,290.8 230.2,290.7 230.5,288.8 230.8,289.5 231.0,288.6 231.3,289.9 231.6,289.5 232.2,290.9 232.8,289.9 233.1,290.1 233.3,289.2 233.6,290.8 233.9,290.2 234.1,288.2 234.4,290.9 234.7,289.7 234.9,289.2 235.2,290.4 235.5,290.9 236.1,289.9 236.4,290.3 236.6,289.3 236.9,288.6 237.2,290.2 237.4,289.5 237.7,290.0 238.0,290.9 238.2,292.1 238.5,289.4 238.8,289.8 239.0,290.3 239.3,292.2 239.6,289.3 239.8,291.1 240.1,291.1 240.4,290.2 240.6,289.2 240.9,290.6 241.2,290.5 241.4,288.3 241.7,290.0 242.0,290.2 242.2,290.5 242.5,291.6 242.8,289.7 243.0,290.7 243.3,290.3 243.6,291.1 243.8,289.4 244.1,291.4 244.4,290.0 244.6,290.3 244.9,290.9 245.2,289.6 245.4,289.7 245.7,291.8 245.9,289.6 246.2,289.1 246.5,291.5 246.7,291.0 247.0,290.4 247.3,291.5 247.5,290.3 247.8,291.0 248.1,290.7 248.3,289.8 248.6,291.2 248.9,291.1 249.1,290.4 249.4,292.8 249.7,292.7 249.9,292.0 250.2,290.4 250.5,292.3 250.7,292.3 251.0,291.1 251.3,291.8 251.5,292.1 251.8,292.8 252.1,290.8 252.7,291.5 253.0,292.3 253.2,291.7 253.5,291.0 253.8,290.4 254.0,291.4 254.3,290.7 254.6,293.4 254.8,292.4 255.1,290.0 255.4,291.3 255.6,291.0 255.9,293.2 256.2,293.0 256.4,291.1 256.7,291.6 257.0,291.3 257.2,292.0 257.5,292.9 257.7,291.0 258.0,290.3 258.3,291.4 258.5,292.7 258.8,292.1 259.1,292.2 259.3,290.4 259.6,290.7 259.9,292.2 260.1,292.3 260.4,292.1 260.7,292.0 260.9,290.3 261.2,292.4 261.5,291.3 261.7,292.2 262.0,293.0 262.3,291.3 262.5,291.5 262.8,291.5 263.1,291.5 263.3,293.3 263.6,291.8 263.9,292.5 264.1,291.6 264.4,292.0 264.7,290.8 264.9,291.6 265.2,290.6 265.5,292.9 265.7,292.6 266.0,293.8 266.3,292.0 266.5,293.5 266.8,291.4 267.1,291.2 267.3,292.8 267.6,292.1 267.9,292.5 268.1,291.2 268.4,291.7 268.7,291.9 268.9,291.4 269.2,292.9 269.5,292.7 269.7,292.5 270.0,291.2 270.3,293.7 270.5,293.3 270.8,292.4 271.1,290.8 271.3,292.4 271.6,293.3 272.2,291.2 272.5,292.5 272.7,292.5 273.0,292.2 273.3,291.7 273.5,292.9 273.8,292.3 274.1,291.0 274.3,291.8 274.6,291.7 274.9,293.1 275.1,293.8 275.4,292.5 275.6,292.1 275.9,292.2 276.2,292.7 276.4,292.3 276.7,292.8 277.0,291.1 277.2,291.3 277.5,293.5 277.8,293.1 278.1,293.1 278.3,293.8 278.6,293.7 278.9,293.9 279.1,292.0 279.4,293.3 279.7,293.5 279.9,292.6 280.2,292.3 280.5,291.4 280.7,293.5 281.0,293.7 281.2,292.9 281.5,291.8 281.8,292.8 282.0,293.1 282.3,293.0 282.6,293.6 282.8,292.2 283.1,292.9 283.4,293.1 283.6,294.1 283.9,291.8 284.2,293.1 284.4,293.7 284.7,292.2 285.0,295.1 285.2,292.8 285.5,295.0 285.8,293.3 286.0,292.2 286.3,293.6 286.6,292.3 286.8,293.4 287.1,292.7 287.4,293.2 287.6,292.2 287.9,293.9 288.2,292.4 288.4,294.5 288.7,292.6 289.0,294.0 289.2,292.1 289.5,292.3 289.8,292.7 290.0,293.4 290.3,293.7 290.6,292.2 290.8,294.0 291.1,291.1 291.3,292.3 291.6,292.6 291.9,294.0 292.1,294.4 292.4,291.3 292.7,292.3 292.9,293.1 293.2,293.9 293.5,294.0 293.7,294.4 294.0,294.3 294.3,292.9 294.5,291.4 294.8,292.9 295.1,293.0 295.3,293.0 295.6,293.2 295.9,293.5 296.1,294.6 296.4,292.3 296.7,293.2 296.9,293.2 297.2,294.5 297.5,293.2 297.7,295.0 298.0,292.8 298.3,292.5 298.5,292.7 298.8,292.5 299.1,293.5 299.3,292.5 299.6,294.6 299.9,293.5 300.1,293.0 300.4,294.6 300.7,293.7 300.9,294.4 301.2,293.0 301.5,293.6 301.7,294.0 302.0,294.1 302.3,293.0 302.5,294.8 302.8,293.7 303.1,294.0 303.3,292.9 303.6,294.1 303.9,292.9 304.1,293.1 304.4,293.6 304.7,293.7 304.9,294.6 305.2,295.5 305.5,292.5 305.7,294.6 306.0,294.2 306.3,293.4 306.5,294.0 306.8,294.1 307.1,294.8 307.3,295.0 307.6,295.8 307.9,293.9 308.1,293.9 308.4,293.6 308.6,295.1 308.9,294.1 309.2,293.7 309.4,294.2 309.7,293.1 310.0,295.4 310.2,295.4 310.5,292.7 310.8,294.6 311.0,294.7 311.3,292.7 311.6,293.6 311.8,293.4 312.1,295.4 312.4,295.0 312.6,295.4 312.9,294.4 313.2,293.6 313.4,293.0 313.7,295.9 314.0,293.6 314.2,294.6 314.5,295.1 314.8,293.7 315.0,293.7 315.3,294.5 315.6,295.2 315.8,293.3 316.1,293.7 316.4,295.7 316.6,292.7 316.9,293.5 317.2,294.9 317.4,294.1 317.7,295.4 318.0,294.5 318.2,293.0 318.5,293.9 318.8,293.9 319.0,293.9 319.3,293.9 319.6,295.1 319.8,293.9 320.1,294.7 320.4,294.0 320.6,293.5 320.9,294.6 321.2,293.8 321.4,294.4 321.7,294.2 321.9,294.7 322.2,296.8 322.5,295.2 322.7,293.6 323.0,293.5 323.3,294.0 323.5,294.5 323.8,293.7 324.1,293.1 324.3,296.2 324.6,294.6 324.9,292.9 325.1,293.8 325.4,294.5 325.7,293.9 325.9,294.5 326.2,293.4 326.5,293.8 326.7,292.8 327.0,294.1 327.3,296.8 327.5,293.4 327.8,293.2 328.1,294.8 328.3,295.1 328.6,293.4 328.9,297.2 329.1,294.5 329.4,295.6 330.0,295.6 330.3,295.6 330.6,296.0 330.8,294.8 331.1,294.4 331.4,296.2 331.6,295.2 331.9,296.3 332.1,294.6 332.4,294.4 332.7,294.5 332.9,296.1 333.2,295.5 333.5,296.7 333.7,295.8 334.0,295.1 334.3,294.9 334.5,295.0 334.8,294.5 335.1,296.8 335.3,295.3 335.6,295.3 335.9,295.8 336.1,295.4 336.4,296.2 336.7,296.4 336.9,295.2 337.2,296.2 337.5,294.8 337.7,294.4 338.0,294.8 338.3,295.9 338.5,295.7 338.8,295.3 339.1,294.5 339.3,293.3 339.6,295.4 339.9,295.5 340.1,295.8 340.4,295.3 340.7,295.1 340.9,294.0 341.2,295.0 341.5,295.1 341.7,293.4 342.0,294.3 342.3,294.7 342.5,295.5 342.8,295.2 343.1,294.1 343.3,295.0 343.6,293.8 343.9,294.2 344.1,295.8 344.4,294.5 344.7,295.9 344.9,294.9 345.2,295.5 345.5,295.6 345.7,294.1 346.0,293.8 346.2,293.0 346.5,293.9 346.8,294.6 347.0,294.6 347.3,295.1 347.6,295.7 347.8,295.4 348.1,294.9 348.4,296.2 348.6,294.6 348.9,294.6 349.2,296.7 349.4,295.9 349.7,295.7 350.0,295.7 350.2,296.4 350.5,294.8 350.8,293.1 351.0,294.5 351.3,292.7 351.6,295.7 351.8,295.5 352.1,295.8 352.4,294.7 352.6,293.9 352.9,294.9 353.2,294.9 353.4,296.4 353.7,295.7 354.0,295.4 354.2,295.5 354.5,294.9 354.8,296.0 355.0,296.1 355.3,297.2 355.6,295.4 355.8,295.5 356.1,296.6 356.4,297.3 356.6,294.0 356.9,296.5 357.2,296.9 357.4,295.5 357.7,295.1 358.0,294.9 358.2,296.0 358.5,295.5 358.8,295.3 359.0,294.1 359.3,296.2 359.6,295.3 359.8,295.6 360.1,295.5 360.4,297.2 360.6,296.5 360.9,295.7 361.2,297.8 361.4,295.1 361.7,295.1 362.0,296.1 362.2,295.4 362.5,295.5 362.7,298.5 363.0,295.2 363.3,295.1 363.5,295.3 363.8,295.9 364.1,296.3 364.4,296.2 364.6,295.1 364.9,296.6 365.5,295.4 365.8,295.4 366.1,297.8 366.3,297.3 366.6,296.7 366.9,295.5 367.1,294.4 367.4,294.8 367.7,296.2 368.0,296.2 368.2,297.5 368.5,295.3 368.8,296.3 369.0,295.7 369.3,295.4 369.6,296.0 369.8,295.2 370.1,296.5 370.4,295.9 370.6,295.1 370.9,296.7 371.2,296.1 371.4,295.7 371.7,296.9 372.0,295.2 372.2,298.0 372.5,294.8 372.8,294.0 373.0,296.7 373.3,295.1 373.6,298.0 373.8,294.4 374.1,295.4 374.4,297.6 374.6,296.5 374.9,295.3 375.1,297.8 375.4,293.9 375.7,295.5 375.9,296.0 376.2,296.2 376.5,298.4 376.7,296.6 377.0,293.4 377.3,296.4 377.5,295.4 377.8,296.5 378.1,293.5 378.3,295.9 378.6,298.1 378.9,296.5 379.1,296.0 379.4,296.5 379.7,295.7 379.9,294.8 380.2,297.1 380.5,296.6 380.7,296.4 381.0,297.9 381.3,294.9 381.5,297.4 381.8,296.3 382.1,296.3 382.3,296.4 382.6,296.6 382.9,296.1 383.1,295.4 383.4,296.6 383.7,295.5 383.9,294.6 384.2,296.4 384.5,297.3 384.7,294.9 385.0,297.5 385.3,297.3 385.5,295.7 385.8,297.8 386.1,295.7 386.3,295.5 386.6,296.1 386.9,297.0 387.1,297.8 387.4,296.6 387.7,296.2 387.9,295.6 388.2,297.6 388.5,297.4 388.7,297.5 389.0,297.2 389.3,295.7 389.5,296.1 389.8,297.1 390.1,297.1 390.3,295.5 390.6,296.0 390.9,295.4 391.1,296.0 391.4,296.9 391.7,297.4 391.9,296.8 392.2,295.2 392.4,295.9 392.7,296.3 393.0,298.1 393.2,296.1 393.5,296.5 393.8,295.1 394.0,297.1 394.3,297.3 394.6,297.4 394.8,296.6 395.1,295.6 395.4,296.3 395.6,295.4 395.9,296.6 396.2,297.2 396.4,297.0 396.7,296.9 397.0,297.5 397.2,297.7 397.5,296.9 397.8,296.6 398.0,296.3 398.3,296.7 398.6,296.3 398.8,297.5 399.1,296.8 399.4,296.5 399.6,296.0 399.9,294.6 400.2,296.6 400.4,297.0 400.7,294.9 401.0,297.0 401.2,297.8 401.5,296.8 401.8,297.5 402.0,296.0 402.3,298.1 402.6,297.8 402.8,296.1 403.1,296.6 403.4,296.7 403.6,296.8 403.9,297.3 404.2,297.1 404.4,296.2 404.7,297.3 405.0,295.4 405.2,295.3 405.5,297.9 405.8,297.7 406.0,297.6 406.3,297.8 406.6,296.2 406.8,297.8 407.1,297.1 407.4,298.5 407.6,295.8 407.9,296.6 408.2,296.8 408.4,297.1 408.7,296.8 409.0,295.9 409.2,296.5 409.5,296.2 409.8,297.1 410.0,297.8 410.3,295.8 410.5,297.1 410.8,295.7 411.1,295.9 411.4,296.8 411.6,297.3 411.9,296.8 412.2,297.1 412.4,297.1 412.7,297.7 413.0,295.7 413.2,296.4 413.5,296.7 413.8,298.4 414.0,297.3 414.3,296.0 414.6,296.2 414.8,298.0 415.1,298.1 415.3,297.7 415.6,296.9 415.9,297.0 416.1,296.5 416.4,297.8 416.7,296.7 416.9,297.3 417.2,296.3 417.5,296.2 417.7,297.3 418.0,296.2 418.3,296.6 418.5,297.2 418.8,297.2 419.1,295.6 419.3,296.2 419.6,295.6 419.9,297.3 420.1,297.2 420.4,298.7 420.7,298.4 420.9,296.5 421.2,297.1 421.5,297.5 421.7,296.2 422.0,297.9 422.3,296.3 422.5,297.7 422.8,296.8 423.1,296.1 423.3,297.4 423.6,299.1 423.9,296.9 424.1,297.6 424.4,298.3 424.7,296.7 424.9,298.2 425.2,297.0 425.5,298.5 425.7,297.7 426.0,297.5 426.3,297.8 426.5,298.1 426.8,295.4 427.0,295.9 427.3,297.1 427.6,297.6 427.9,296.6 428.1,299.1 428.4,297.9 428.7,296.5 428.9,297.4 429.2,296.6 429.5,295.8 429.7,297.5 430.0,297.3 430.3,296.2 430.5,296.3 430.8,296.5 431.1,296.7 431.3,298.0 431.6,297.4 431.9,296.4 432.1,296.5 432.4,297.0 432.6,296.8 432.9,298.9 433.2,297.8 433.5,297.9 433.8,298.1 434.0,298.2 434.3,296.8 434.6,298.2 434.8,297.8 435.1,297.7 435.4,296.2 435.6,296.4 435.9,296.9 436.2,298.3 436.4,298.3 436.7,297.4 437.0,295.9 437.2,298.6 437.5,297.7 437.8,297.0 438.0,298.2 438.3,298.4 438.6,297.8 438.8,298.4 439.1,297.2 439.4,297.8 439.6,297.8 439.9,297.0 440.2,296.8 440.4,297.8 440.7,296.4 441.0,297.0 441.2,298.6 441.5,296.9 441.8,297.2 442.0,297.4 442.3,297.9 442.6,298.0 442.8,297.7 443.1,296.7 443.3,297.3 443.6,296.8 443.9,296.4 444.1,297.9 444.4,299.2 444.7,297.3 444.9,297.1 445.2,297.8 445.5,296.6 445.7,295.0 446.0,297.0 446.3,299.2 446.5,296.9 446.8,296.8 447.1,298.7 447.3,297.1 447.6,297.0 447.9,297.3 448.1,298.3 448.4,298.5 448.7,295.4 448.9,298.4 449.2,296.9 449.5,297.8 449.7,298.4 450.0,297.2 450.3,298.4 450.5,297.8 450.8,297.6 451.1,296.5 451.3,298.0 451.6,297.7 451.9,299.0 452.1,297.3 452.4,298.4 452.7,297.8 452.9,296.5 453.2,296.9 453.5,297.2 453.7,298.6 454.0,298.2 454.3,298.6 454.5,295.5 454.8,298.0 455.1,297.7 455.3,297.8 455.6,296.1 455.9,296.1 456.1,297.8 456.4,297.3 456.7,297.7 456.9,297.6 457.2,298.0 457.4,297.7 457.7,298.1 458.0,299.4 458.2,296.7 458.5,297.8 458.8,297.3 459.0,299.2 459.3,297.8 459.6,298.7 459.8,298.6 460.1,298.2 460.4,299.0 460.6,296.9 460.9,297.5 461.2,298.3 461.4,297.6 461.7,299.2 462.0,297.1 462.2,297.1 462.5,297.6 462.8,296.6 463.0,299.7 463.3,295.8 463.6,298.6 463.8,297.5 464.1,296.8 464.4,297.5 464.6,298.4 464.9,298.2 465.2,299.4 465.4,296.1 465.7,297.7 466.0,295.9 466.2,298.9 466.5,296.8 466.8,295.0 467.0,296.2 467.3,297.5 467.6,297.3 467.8,297.4 468.1,296.8 468.4,299.4 468.6,298.7 468.9,297.2 469.2,297.6 469.4,297.8 469.7,296.6 470.0,299.3 470.2,298.5 470.5,297.3 470.7,297.7 471.0,298.2 471.3,297.3 471.5,297.5 471.8,298.6 472.1,296.6 472.3,297.2 472.6,298.6 472.9,298.8 473.1,298.5 473.4,298.7 473.7,297.5 473.9,297.4 474.2,296.6 474.5,295.3 474.7,298.4 475.0,296.9 475.3,296.5 475.5,297.7 475.8,297.5 476.1,299.0 476.3,298.3 476.6,297.3 476.9,297.2 477.1,300.0 477.4,299.2 477.7,298.4 477.9,297.1 478.2,298.7 478.5,298.3 478.7,298.7 479.0,298.5 479.3,298.4 479.5,297.5 479.8,298.5 480.1,297.7 480.3,297.8 480.6,299.4 480.9,297.1 481.1,297.4 481.4,297.6 481.6,297.6 481.9,296.9 482.2,298.6 482.4,296.8 482.7,298.3 483.0,299.3 483.2,298.3 483.5,298.7 483.8,297.5 484.0,297.3 484.3,298.4 484.6,296.4 484.8,297.8 485.1,297.2 485.4,297.5 485.6,296.4 485.9,299.0 486.2,299.7 486.4,299.0 486.7,297.9 487.0,298.5 487.2,297.9 487.5,298.8 487.8,297.2 488.0,298.3 488.3,297.6 488.6,298.0 488.8,296.9 489.1,298.5 489.4,298.5 489.6,298.1 489.9,298.5 490.2,297.3 490.4,298.1 490.7,297.7 491.0,299.3 491.2,298.6 491.5,298.7 491.8,298.2 492.0,298.4 492.3,299.5 492.6,299.6 492.8,297.7 493.1,297.9 493.3,300.5 493.6,299.3 493.9,300.0 494.1,298.7 494.4,298.8 494.7,296.1 495.0,297.6 495.2,298.8 495.5,298.3 495.8,298.4 496.0,298.7 496.3,298.0 496.6,298.7 496.8,299.0 497.1,299.6 497.3,299.6 497.6,297.8 497.9,297.4 498.1,298.5 498.4,299.2 498.7,297.3 498.9,298.4 499.2,298.3 499.5,298.9 499.7,297.5 500.0,298.4 500.3,299.8 500.5,296.2 500.8,299.0 501.1,297.8 501.3,297.3 501.6,298.7 501.9,297.8 502.1,299.7 502.4,298.6 502.7,298.8 502.9,299.0 503.2,299.5 503.5,296.7 503.7,298.0 504.0,298.5 504.3,299.3 504.5,297.5 504.8,299.9 505.1,298.8 505.3,299.4 505.6,298.2 505.9,298.2 506.1,298.7 506.4,298.9 506.7,297.7 506.9,298.3 507.2,299.0 507.5,297.7 507.7,297.6 508.0,298.0 508.3,297.7 508.5,300.3 508.8,301.0 509.1,299.7 509.3,299.2 509.6,299.8 509.9,297.0 510.1,298.2 510.4,297.7 510.7,297.5 510.9,299.4 511.2,298.9 511.5,297.6 511.7,298.8 512.0,297.3 512.3,298.0 512.5,298.0 512.8,298.1 513.1,296.8 513.3,299.0 513.6,298.0 513.9,298.9 514.1,298.5 514.4,297.3 514.7,297.9 514.9,298.4 515.2,298.8 515.5,298.2 515.7,299.3 516.0,298.4 516.3,299.3 516.5,297.5 516.8,297.6 517.0,299.9 517.3,298.4 517.6,296.6 517.8,297.3 518.1,297.3 518.4,299.4 518.6,299.7 518.9,297.4 519.2,299.3 519.4,298.2 519.7,297.7 520.0,299.5 520.2,299.1 520.5,297.9 520.8,299.1 521.0,299.9 521.3,298.7 521.6,298.1 521.8,299.1 522.1,299.3 522.4,298.3 522.6,297.5 522.9,297.8 523.2,298.3 523.4,297.6 523.7,299.3 524.0,297.9 524.2,297.4 524.5,296.8 524.8,298.2 525.0,299.5 525.3,300.1 525.6,297.4 525.8,300.1 526.1,299.0 526.4,298.1 526.6,300.0 526.9,298.6 527.2,299.8 527.4,299.2 527.7,300.3 528.0,297.3 528.2,299.4 528.5,297.8 528.8,297.3 529.0,300.2 529.3,299.1 529.5,298.9 529.8,297.8 530.1,298.8 530.4,298.8 530.6,298.5 530.9,299.8 531.1,299.5 531.4,299.5 531.7,298.7 531.9,298.5 532.2,298.5 532.5,299.5 532.7,299.0 533.0,300.2 533.3,298.9 533.5,299.0 533.8,300.2 534.1,300.7 534.3,299.0 534.6,298.4 534.9,298.6 535.1,299.2 535.4,297.0 535.7,298.0 535.9,299.0 536.2,298.2 536.5,298.2 536.7,299.0 537.0,297.3 537.3,297.7 537.5,300.1 537.8,297.5 538.1,296.8 538.3,299.1 538.6,299.3 538.9,299.4 539.1,296.5 539.4,297.7 539.7,297.9 539.9,299.7 540.2,297.2 540.5,297.8 540.7,298.6 541.0,298.1 541.3,299.0 541.5,298.8 541.8,298.6 542.1,297.3 542.3,298.3 542.6,299.3 542.9,298.6 543.1,298.6 543.4,299.0 543.7,299.1 543.9,298.7 544.2,297.1 544.4,297.9 544.7,298.3 545.0,299.0 545.2,299.8 545.5,300.0 545.8,299.2 546.0,300.4 546.3,297.3 546.6,299.1 546.8,298.6 547.1,297.5 547.4,297.9 547.6,299.6 547.9,298.5 548.2,298.4 548.4,298.6 548.7,298.0 549.0,298.2 549.2,298.4 549.5,299.2 549.8,297.9 550.0,300.5 550.3,298.1 550.6,298.6 550.8,299.0 551.1,300.6 551.4,297.9 551.6,299.7 551.9,299.4 552.2,300.0 552.4,297.1 552.7,298.1 553.0,298.8 553.2,299.8 553.5,296.6 553.8,299.4 554.0,298.1 554.3,297.8 554.6,301.2 554.8,298.2 555.1,298.6 555.4,299.5 555.6,299.8 555.9,298.5 556.1,299.8 556.4,300.7 556.7,299.6 556.9,297.7 557.2,299.1 557.5,299.9 557.7,297.5 558.0,297.8 558.3,297.8 558.5,299.1 558.8,299.0 559.1,299.6 559.3,298.3 559.6,299.6 559.9,300.9 560.1,298.9 560.4,300.6 560.7,300.9 560.9,299.3 561.2,299.7 561.5,299.7 561.7,298.6 562.0,299.2 562.3,298.2 562.5,298.0 562.8,297.4 563.1,299.0 563.3,298.0 563.6,300.4 563.9,299.3 564.1,298.7 564.4,299.3 564.7,298.1 564.9,299.8 565.2,299.3 565.5,300.1 565.7,297.6 566.0,298.5 566.3,300.0 566.5,297.7 566.8,297.7 567.1,298.5 567.3,300.2 567.6,298.1 567.9,297.7 568.1,298.3 568.4,297.8 568.7,299.5 568.9,298.7 569.2,300.8 569.4,298.4 569.7,301.0 570.0,298.2 570.2,298.4 570.5,300.4 570.8,300.4 571.0,299.3 571.3,298.3 571.6,299.1 571.8,300.4 572.1,298.1 572.4,298.8 572.6,300.0 572.9,300.5 573.2,300.7 573.4,299.4 573.7,298.3 574.0,298.8 574.2,300.8 574.5,298.0 574.8,299.2 575.0,299.2 575.3,298.7 575.6,300.8 575.8,298.3 576.1,298.4 576.4,300.3 576.6,298.7 576.9,298.4 577.2,299.9 577.4,297.9 577.7,300.2 578.0,299.6 578.2,299.3 578.5,299.3 578.8,299.7 579.0,300.7 579.3,299.6 579.6,299.6 579.8,297.9 580.1,297.6 580.4,299.9 580.6,298.8 580.9,300.8 581.2,299.3 581.4,299.0 581.7,297.6 582.0,299.4 582.2,298.5 582.5,299.9 582.8,297.4 583.0,298.9 583.3,297.1 583.6,299.3 583.8,299.7 584.1,299.3 584.4,299.1 584.6,299.9 584.9,299.1 585.2,298.2 585.4,298.6 585.7,298.6 586.0,299.0 586.2,298.6 586.5,301.5 586.7,301.5 587.0,300.3 587.3,297.8 587.5,300.1 587.8,300.1 588.1,300.2 588.3,297.8 588.6,299.5 588.9,300.3 589.1,299.4 589.4,298.3 589.7,298.9 589.9,298.9 590.2,300.2 590.5,299.4 590.7,300.4 591.0,299.6 591.3,298.7 591.5,298.2 591.8,298.9 592.1,298.3 592.3,299.1 592.6,297.5 592.9,299.1 593.1,299.3 593.4,297.4 593.7,301.2 593.9,300.4 594.2,300.6 594.5,300.6 594.7,299.2 595.0,300.2 595.3,300.2 595.5,299.9 595.8,298.9 596.1,299.3 596.3,299.9 596.6,300.1 596.9,299.4 597.1,300.3 597.4,300.3 597.7,300.2 597.9,297.6 598.2,298.6 598.5,297.3 598.7,300.2 599.0,300.4 599.3,300.9 599.5,299.0 599.8,299.2 600.1,298.7 600.3,298.9 600.6,298.9 600.9,299.6 601.1,299.4 601.4,299.4 601.7,298.8 601.9,300.7 602.2,300.9 602.5,298.9 602.7,299.0 603.0,298.8 603.3,299.7 603.5,300.3 603.8,298.7 604.1,301.1 604.3,300.6 604.6,298.5 604.9,299.0 605.1,299.2 605.4,299.9 605.7,299.7 605.9,300.6 606.2,301.1 606.5,298.3 606.7,300.9 607.0,300.4 607.3,300.0 607.5,298.4 607.8,300.2 608.1,299.9 608.3,299.1 608.6,299.1 608.8,298.7 609.1,300.4 609.4,297.1 609.6,297.8 609.9,298.5 610.2,298.5 610.4,300.1 610.7,301.0 611.0,297.9 611.2,298.2 611.5,301.3 611.8,299.6 612.0,299.9 612.3,298.5 612.6,299.1 612.8,300.8 613.1,299.6 613.4,299.4 613.6,298.3 613.9,299.9 614.2,300.2 614.4,299.2 614.7,300.4 615.0,298.5 615.2,297.9 615.5,299.2 615.8,300.5 616.0,300.2 616.3,298.4 616.6,299.8 616.8,299.6 617.1,300.2 617.4,299.6 617.6,300.5 617.9,299.4 618.2,299.7 618.4,298.8 618.7,299.8 619.0,299.7 619.2,297.6 619.5,300.5 619.8,300.6 620.0,302.1 620.3,298.8 620.6,300.5 620.8,299.8 621.1,298.4 621.4,299.7 621.6,300.1 621.9,300.8 622.2,299.8 622.5,299.7 622.7,300.4 623.0,300.0 623.3,298.8 623.5,299.7 623.8,297.9 624.1,300.1 624.3,297.8 624.6,299.9 624.9,299.0 625.1,297.6 625.4,298.6 625.7,300.0 625.9,301.4 626.2,299.5 626.5,299.4 626.7,299.7 627.0,298.5 627.3,299.6 627.5,299.5 627.8,299.6 628.1,300.4 628.3,299.9 628.6,300.8 628.9,299.5 629.1,298.9 629.4,299.9 629.7,300.2 629.9,298.8 630.2,299.5 630.5,299.8 630.7,301.7 631.0,299.3 631.3,301.0 631.5,298.0 631.8,299.0 632.1,300.3 632.3,299.3 632.6,299.0 632.9,299.9 633.1,300.3 633.4,301.3 633.7,300.2 633.9,299.7 634.2,300.6 634.5,297.5 634.7,298.2 635.0,300.5 635.3,299.7 635.5,300.3 635.8,301.8 636.1,300.6 636.3,299.9 636.6,300.5 636.9,300.3 637.1,298.6 637.4,299.1 637.7,298.2 637.9,299.3 638.2,300.3 638.5,300.5 638.7,300.5 639.0,300.0 639.2,298.9 639.5,300.1 639.8,301.0 640.0,297.8 640.3,299.8 640.6,300.5 640.8,298.9 641.1,299.7 641.4,297.0 641.6,300.1 641.9,300.9 642.2,300.1 642.4,299.1 642.7,299.0 643.0,298.6 643.2,299.4 643.5,300.2 643.8,300.6 644.1,300.6 644.3,301.8 644.6,301.8 644.9,300.1 645.1,298.4 645.4,300.7 645.7,300.2 645.9,298.8 646.2,300.3 646.5,297.5 646.7,301.5 647.0,300.5 647.3,299.4 647.5,300.5 647.8,300.6 648.1,299.5 648.3,300.7 648.6,298.9 648.9,301.0 649.1,300.1 649.4,299.1 649.7,299.9 649.9,300.2 650.2,299.6 650.5,299.3 650.7,299.8 651.0,299.8 651.3,299.3 651.5,298.7 651.8,297.9 652.1,300.1 652.3,299.1 652.6,301.1 652.9,300.4 653.1,300.7 653.4,301.3 653.7,298.3 653.9,299.5 654.2,300.0 654.5,298.4 654.7,300.1 655.0,301.7 655.3,300.3 655.5,300.3 655.8,302.0 656.1,299.4 656.3,301.3 656.6,301.7 656.9,298.6 657.1,299.9 657.4,299.2 657.7,302.4 657.9,300.5 658.2,300.1 658.5,298.2 658.7,299.0 659.0,301.2 659.3,301.0 659.5,300.1 659.8,300.8 660.1,298.2 660.3,299.3 660.6,300.3 660.9,300.3 661.1,300.1 661.4,299.4 661.7,300.7 661.9,299.2 662.2,300.9 662.5,299.7 662.7,299.6 663.0,300.2 663.3,297.9 663.5,297.6 663.8,299.7 664.1,298.6 664.3,300.0 664.6,300.0 664.9,298.7 665.1,301.4 665.4,299.0 665.7,301.5 665.9,299.1 666.2,299.0 666.5,300.8 666.7,299.4 667.0,299.9 667.3,301.3 667.5,300.6 667.8,300.1 668.1,300.3 668.3,299.6 668.6,298.9 668.9,299.4 669.1,300.7 669.4,299.9 669.6,298.9 669.9,299.7 670.2,300.1 670.4,301.6 670.7,299.6 671.0,299.3 671.2,300.6 671.5,299.9 671.8,299.9 672.0,299.9 672.3,298.2 672.6,300.4 672.8,299.7 673.1,300.6 673.4,299.7 673.6,300.6 673.9,300.7 674.2,300.0 674.4,299.3 674.7,299.3 675.0,298.2 675.2,299.7 675.5,298.7 675.8,299.6 676.0,299.9 676.3,301.7 676.6,300.2 676.8,300.0 677.1,299.0 677.4,299.6 677.6,299.7 677.9,302.6 678.2,300.5 678.4,297.6 678.7,299.0 679.0,300.1 679.2,299.8 679.5,300.0 679.8,300.1 680.0,300.0 680.3,300.4 680.6,299.7 680.8,299.1 681.1,298.9 681.4,300.2 681.6,298.3 681.9,299.8 682.2,300.9 682.4,299.3 682.7,299.8 683.0,298.6 683.2,301.3 683.5,298.4 683.8,300.3 684.0,299.5 684.3,302.2 684.6,300.2 684.8,300.3 685.1,300.5 685.4,300.3 685.6,299.2 685.9,300.6 686.2,300.7 686.4,300.6 686.7,299.4 687.0,301.3 687.2,299.3 687.5,301.3 687.7,298.9 688.0,298.8 688.3,300.4 688.5,299.3 688.8,302.6 689.1,300.8 689.3,300.8 689.6,300.6 689.9,300.4 690.1,300.5 690.4,299.2 690.7,301.2 690.9,301.7 691.2,299.6 691.5,301.0 691.7,300.9 692.0,300.5 692.3,299.2 692.5,299.6 692.8,300.4 693.1,300.2 693.3,299.5 693.6,299.7 693.9,301.5 694.1,300.3 694.4,300.7 694.7,301.4 694.9,298.1 695.2,300.4 695.5,302.0 695.7,301.1 696.0,299.9 696.3,299.5 696.5,300.7 696.8,299.5 697.1,300.7 697.3,300.3 697.6,299.4 697.9,299.6 698.1,301.2 698.4,300.4 698.7,299.4 698.9,300.1 699.2,299.1 699.5,298.8 699.7,301.0 700.0,301.2" fill="none" stroke="#2563eb" stroke-width="2"/>
<rect x="65" y="20" width="635" height="330" fill="none" stroke="#555" stroke-width="1.5"/>
<line x1="62" y1="308.5" x2="65" y2="308.5" stroke="#888" stroke-width="1"/>
<line x1="62" y1="260.0" x2="65" y2="260.0" stroke="#888" stroke-width="1"/>
<line x1="62" y1="199.0" x2="65" y2="199.0" stroke="#888" stroke-width="1"/>
<line x1="60" y1="116.3" x2="65" y2="116.3" stroke="#555" stroke-width="1.5"/>
<text x="57" y="116.3" text-anchor="end" dominant-baseline="middle" font-size="11" font-family="monospace,sans-serif">10</text>
<line x1="62" y1="33.5" x2="65" y2="33.5" stroke="#888" stroke-width="1"/>
<line x1="65.0" y1="350" x2="65.0" y2="355" stroke="#555" stroke-width="1.5"/>
<text x="65.0" y="368" text-anchor="middle" font-size="11" font-family="monospace,sans-serif">0</text>
<line x1="192.1" y1="350" x2="192.1" y2="355" stroke="#555" stroke-width="1.5"/>
<text x="192.1" y="368" text-anchor="middle" font-size="11" font-family="monospace,sans-serif">2</text>
<line x1="319.1" y1="350" x2="319.1" y2="355" stroke="#555" stroke-width="1.5"/>
<text x="319.1" y="368" text-anchor="middle" font-size="11" font-family="monospace,sans-serif">4</text>
<line x1="446.2" y1="350" x2="446.2" y2="355" stroke="#555" stroke-width="1.5"/>
<text x="446.2" y="368" text-anchor="middle" font-size="11" font-family="monospace,sans-serif">6</text>
<line x1="573.3" y1="350" x2="573.3" y2="355" stroke="#555" stroke-width="1.5"/>
<text x="573.3" y="368" text-anchor="middle" font-size="11" font-family="monospace,sans-serif">8</text>
<line x1="700.4" y1="350" x2="700.4" y2="355" stroke="#555" stroke-width="1.5"/>
<text x="700.4" y="368" text-anchor="middle" font-size="11" font-family="monospace,sans-serif">10</text>
<text x="382" y="392" text-anchor="middle" font-size="13" font-family="sans-serif">Runtime (minutes)</text>
<text transform="rotate(-90,16,185)" x="16" y="185" text-anchor="middle" font-size="13" font-family="sans-serif">Loss (log scale)</text>
</svg>