<svg xmlns="http://www.w3.org/2000/svg" viewBox="0 0 760 400" width="760" height="400" style="background:white">
<rect x="65" y="20" width="610" height="330" fill="#f9f9f9"/>
<line x1="65" y1="308.5" x2="675" y2="308.5" stroke="#ececec" stroke-width="1"/>
<line x1="65" y1="260.0" x2="675" y2="260.0" stroke="#ececec" stroke-width="1"/>
<line x1="65" y1="199.0" x2="675" y2="199.0" stroke="#ececec" stroke-width="1"/>
<line x1="65" y1="116.3" x2="675" y2="116.3" stroke="#ddd" stroke-width="1"/>
<line x1="65" y1="33.5" x2="675" y2="33.5" stroke="#ececec" stroke-width="1"/>
<line x1="65.0" y1="20" x2="65.0" y2="350" stroke="#ececec" stroke-width="1"/>
<line x1="187.1" y1="20" x2="187.1" y2="350" stroke="#ececec" stroke-width="1"/>
<line x1="309.1" y1="20" x2="309.1" y2="350" stroke="#ececec" stroke-width="1"/>
<line x1="431.2" y1="20" x2="431.2" y2="350" stroke="#ececec" stroke-width="1"/>
<line x1="553.3" y1="20" x2="553.3" y2="350" stroke="#ececec" stroke-width="1"/>
<line x1="675.3" y1="20" x2="675.3" y2="350" stroke="#ececec" stroke-width="1"/>
<polyline points="65.0,119.6 65.3,53.2 65.5,91.2 65.8,148.0 66.0,160.9 66.3,153.1 66.5,153.2 66.8,158.5 67.0,164.3 67.3,168.1 67.6,170.3 67.8,173.5 68.1,175.8 68.3,178.0 68.6,180.1 68.8,181.8 69.1,183.5 69.3,185.1 69.6,186.9 69.9,188.4 70.1,191.1 70.4,192.9 70.6,195.3 70.9,197.4 71.1,199.4 71.4,201.3 71.6,202.8 71.9,204.5 72.1,206.1 72.4,207.3 72.7,209.0 72.9,210.3 73.2,211.2 73.4,211.5 73.7,212.5 73.9,213.7 74.2,214.0 74.4,214.8 74.7,215.6 75.0,216.6 75.2,217.3 75.5,217.9 75.7,218.9 76.0,219.5 76.2,220.1 76.5,220.8 76.7,221.9 77.0,222.0 77.3,223.4 77.5,224.2 77.8,225.6 78.0,226.2 78.3,226.5 78.5,227.4 78.8,227.5 79.0,229.5 79.3,229.6 79.6,230.6 79.8,231.4 80.1,231.8 80.3,232.3 80.6,233.4 80.8,234.6 81.1,234.5 81.3,234.9 81.6,235.7 81.9,236.3 82.1,236.6 82.4,236.2 82.6,239.3 82.9,238.9 83.1,239.4 83.4,239.8 83.6,240.1 83.9,241.3 84.2,241.0 84.4,242.3 84.7,240.8 84.9,242.8 85.2,243.4 85.4,243.0 85.7,243.5 86.0,244.3 86.2,244.8 86.5,245.3 86.7,244.7 87.0,244.5 87.2,246.8 87.5,246.1 87.8,247.8 88.0,247.4 88.3,247.5 88.5,247.6 88.8,248.2 89.0,248.0 89.3,249.4 89.5,249.3 89.8,249.4 90.1,250.2 90.3,249.7 90.6,250.8 90.8,249.5 91.1,250.2 91.3,252.6 91.6,252.6 91.8,252.4 92.1,252.5 92.4,252.8 92.6,252.6 92.9,253.9 93.1,253.0 93.4,254.6 93.6,255.0 93.9,254.9 94.1,255.3 94.4,256.2 94.7,256.8 94.9,255.6 95.2,257.1 95.4,257.5 95.7,257.5 95.9,257.1 96.2,256.9 96.4,257.4 96.7,257.0 97.0,258.4 97.2,258.2 97.5,257.4 97.7,259.6 98.0,259.3 98.2,258.9 98.5,260.7 98.7,260.4 99.0,259.5 99.3,259.3 99.5,260.5 99.8,260.6 100.0,262.3 100.3,261.6 100.5,261.1 100.8,261.8 101.0,262.1 101.3,262.2 101.6,262.4 101.8,261.5 102.1,262.6 102.3,262.0 102.6,262.3 102.8,262.1 103.1,262.6 103.3,262.6 103.6,263.6 103.9,263.8 104.1,265.0 104.4,263.8 104.6,262.2 104.9,263.1 105.1,263.6 105.4,263.0 105.6,265.5 105.9,264.2 106.2,264.7 106.4,265.0 106.7,265.1 106.9,264.5 107.2,265.4 107.4,266.7 107.7,265.6 107.9,266.0 108.2,265.7 108.5,265.8 108.7,266.3 109.0,266.3 109.2,266.9 109.5,266.6 109.7,265.6 110.0,266.6 110.2,266.9 110.5,266.5 110.8,267.6 111.0,267.3 111.3,268.0 111.5,267.8 111.8,267.3 112.0,268.5 112.3,267.6 112.5,266.4 112.8,267.6 113.1,268.8 113.3,268.7 113.6,269.2 113.8,270.2 114.1,268.8 114.3,269.8 114.6,268.6 114.8,270.2 115.1,268.2 115.3,268.4 115.6,269.2 115.9,268.9 116.1,269.4 116.4,269.9 116.6,269.7 116.9,271.1 117.1,269.6 117.4,270.1 117.6,269.9 117.9,270.6 118.2,269.9 118.4,270.5 118.7,271.4 118.9,271.4 119.2,271.1 119.4,270.5 119.7,271.3 119.9,271.8 120.2,271.3 120.5,272.4 120.7,270.8 121.0,271.9 121.2,272.5 121.5,272.0 121.7,272.0 122.0,271.3 122.2,272.8 122.5,271.1 122.7,271.9 123.0,272.8 123.3,271.4 123.5,272.6 123.8,272.4 124.0,272.3 124.3,273.9 124.5,272.4 124.8,272.6 125.0,273.1 125.3,272.9 125.6,273.6 125.8,273.3 126.1,273.1 126.3,274.8 126.6,274.8 126.8,273.2 127.1,273.3 127.3,275.0 127.6,273.7 127.9,274.1 128.1,273.6 128.4,273.6 128.6,272.6 128.9,274.0 129.1,274.9 129.4,274.9 129.6,273.7 129.9,274.0 130.2,274.5 130.4,275.7 130.7,275.3 130.9,273.8 131.2,275.0 131.4,275.2 131.7,275.5 131.9,276.2 132.2,276.1 132.5,277.0 132.7,276.1 133.0,276.2 133.2,274.9 133.5,276.5 133.7,275.0 134.0,276.0 134.2,274.1 134.5,275.4 134.7,276.5 135.0,275.2 135.3,278.3 135.5,275.0 135.8,275.3 136.0,275.6 136.3,274.7 136.5,276.2 136.8,275.5 137.0,277.3 137.3,277.8 137.6,277.4 137.8,277.3 138.1,277.8 138.3,276.9 138.6,276.7 138.8,277.9 139.1,276.9 139.3,276.7 139.6,276.7 139.9,277.3 140.1,277.8 140.4,276.4 140.6,276.9 140.9,278.0 141.1,278.3 141.4,276.5 141.7,278.2 141.9,279.3 142.2,279.4 142.4,278.6 142.7,278.9 142.9,278.7 143.2,278.4 143.4,278.9 143.7,278.2 144.0,278.7 144.2,278.0 144.5,279.4 144.7,278.6 145.0,278.4 145.2,278.8 145.5,279.5 145.7,279.4 146.0,279.1 146.2,278.9 146.5,278.5 146.8,278.9 147.0,279.0 147.3,278.8 147.5,279.4 147.8,278.8 148.0,279.8 148.3,280.9 148.5,278.5 148.8,279.5 149.1,279.2 149.3,279.3 149.6,279.9 149.8,279.3 150.1,279.7 150.3,280.6 150.6,280.3 150.8,281.7 151.1,280.6 151.4,279.9 151.6,282.4 151.9,279.2 152.1,280.1 152.4,279.6 152.6,280.8 152.9,280.2 153.2,280.7 153.4,280.4 153.7,282.1 153.9,280.6 154.2,280.3 154.5,282.1 154.7,280.6 155.0,281.8 155.3,281.0 155.5,281.2 155.8,280.7 156.0,279.1 156.3,280.5 156.6,281.4 156.8,282.4 157.1,281.3 157.3,282.1 157.6,281.4 157.8,281.0 158.1,280.2 158.4,282.3 158.6,282.1 158.9,281.9 159.1,282.3 159.4,282.4 159.6,281.4 159.9,282.7 160.2,280.4 160.4,281.7 160.7,281.9 160.9,282.0 161.2,281.9 161.4,282.8 161.7,283.0 161.9,282.6 162.2,280.9 162.5,283.4 162.7,282.5 163.0,281.3 163.2,282.4 163.5,283.1 163.7,282.2 164.0,284.1 164.2,282.5 164.5,282.7 164.8,281.9 165.0,283.4 165.3,281.8 165.5,282.9 165.8,282.7 166.0,283.8 166.3,282.6 166.5,282.1 166.8,284.0 167.1,282.8 167.3,283.4 167.6,284.5 167.8,284.0 168.1,281.6 168.3,282.0 168.6,283.6 168.8,283.3 169.1,282.6 169.4,284.5 169.6,282.6 169.9,284.5 170.1,284.0 170.4,284.2 170.6,282.9 170.9,281.9 171.2,283.3 171.4,283.8 171.7,283.5 171.9,283.2 172.2,284.1 172.4,281.6 172.7,283.6 172.9,284.1 173.2,284.5 173.5,284.8 173.7,283.9 174.0,284.4 174.2,285.8 174.5,284.0 174.7,283.1 175.0,282.8 175.3,285.6 175.5,283.3 175.8,283.4 176.0,285.5 176.3,282.5 176.5,283.1 176.8,284.4 177.0,285.7 177.3,284.9 177.6,284.9 177.8,282.5 178.1,284.8 178.3,284.9 178.6,284.7 178.8,286.5 179.1,285.0 179.3,282.3 179.6,285.7 179.9,284.8 180.1,283.6 180.4,285.5 180.6,286.0 180.9,285.4 181.1,285.1 181.4,284.9 181.6,285.3 181.9,285.7 182.2,285.9 182.4,287.2 182.7,284.7 182.9,283.5 183.2,284.5 183.4,285.3 183.7,284.9 184.0,285.3 184.2,286.7 184.5,285.9 184.7,286.6 185.0,285.9 185.2,284.6 185.5,285.1 185.7,284.3 186.0,285.2 186.3,286.0 186.5,285.9 186.8,285.2 187.0,286.2 187.3,285.8 187.5,285.4 187.8,285.6 188.0,287.8 188.3,287.3 188.6,286.5 188.8,285.9 189.1,284.7 189.3,286.3 189.6,286.8 189.8,285.7 190.1,285.9 190.3,286.0 190.6,287.1 190.9,286.0 191.1,286.1 191.4,285.6 191.6,288.0 191.9,286.9 192.1,285.9 192.4,286.0 192.6,284.9 192.9,286.2 193.2,286.3 193.4,285.4 193.7,287.1 193.9,285.6 194.2,285.8 194.8,285.4 195.1,287.0 195.3,286.0 195.6,286.6 195.8,286.3 196.1,287.0 196.3,285.9 196.6,286.7 196.9,286.0 197.1,286.2 197.4,287.8 197.6,288.1 197.9,287.2 198.1,287.6 198.4,286.4 198.6,288.0 198.9,286.4 199.2,287.8 199.4,286.4 199.7,287.8 199.9,288.0 200.2,285.8 200.4,287.4 200.7,286.6 200.9,286.6 201.2,288.0 201.5,285.8 201.7,287.3 202.0,287.4 202.2,287.3 202.5,287.1 202.7,289.0 203.0,287.4 203.2,287.6 203.5,286.9 203.8,287.4 204.0,288.4 204.3,286.5 204.5,288.3 204.8,287.7 205.0,288.0 205.3,287.8 205.5,288.9 205.8,288.0 206.1,288.7 206.3,287.6 206.6,288.5 206.8,289.0 207.1,287.2 207.3,288.3 207.6,288.5 207.9,288.1 208.1,286.8 208.4,287.7 208.6,288.3 208.9,288.1 209.1,289.0 209.4,289.1 209.7,289.1 209.9,287.4 210.2,289.4 210.4,288.1 210.7,289.2 210.9,287.7 211.2,288.6 211.4,288.4 211.7,287.9 212.0,288.8 212.2,288.5 212.5,287.4 212.7,289.9 213.0,288.8 213.2,289.1 213.5,288.7 213.7,288.6 214.0,288.7 214.3,289.3 214.5,288.2 214.8,289.0 215.0,288.9 215.3,289.2 215.5,288.2 215.8,289.1 216.0,290.7 216.3,289.1 216.6,288.7 216.8,288.3 217.1,289.9 217.3,290.1 217.6,288.1 217.8,289.8 218.1,287.0 218.3,290.2 218.6,288.3 218.9,290.0 219.1,289.9 219.4,288.7 219.6,289.4 219.9,290.0 220.1,290.4 220.4,291.3 220.7,289.0 220.9,290.1 221.2,289.5 221.4,288.4 221.7,289.7 221.9,290.9 222.2,291.4 222.4,289.2 222.7,290.4 223.0,290.3 223.2,288.5 223.5,290.8 223.7,290.7 224.0,288.8 224.2,289.5 224.5,288.6 224.8,289.9 225.0,289.5 225.6,290.9 226.2,289.9 226.5,290.1 226.7,289.2 227.0,290.8 227.2,290.2 227.5,288.2 227.7,290.9 228.0,289.7 228.3,289.2 228.5,290.4 228.8,290.9 229.4,289.9 229.6,290.3 229.9,289.3 230.1,288.6 230.4,290.2 230.6,289.5 230.9,290.0 231.2,290.9 231.4,292.1 231.7,289.4 231.9,289.8 232.2,290.3 232.4,292.2 232.7,289.3 232.9,291.1 233.2,291.1 233.5,290.2 233.7,289.2 234.0,290.6 234.2,290.5 234.5,288.3 234.7,290.0 235.0,290.2 235.2,290.5 235.5,291.6 235.8,289.7 236.0,290.7 236.3,290.3 236.5,291.1 236.8,289.4 237.0,291.4 237.3,290.0 237.5,290.3 237.8,290.9 238.1,289.6 238.3,289.7 238.6,291.8 238.8,289.6 239.1,289.1 239.3,291.5 239.6,291.0 239.8,290.4 240.1,291.5 240.4,290.3 240.6,291.0 240.9,290.7 241.1,289.8 241.4,291.2 241.6,291.1 241.9,290.4 242.1,292.8 242.4,292.7 242.7,292.0 242.9,290.4 243.2,292.3 243.4,292.3 243.7,291.1 243.9,291.8 244.2,292.1 244.5,292.8 244.7,290.8 245.3,291.5 245.6,292.3 245.8,291.7 246.1,291.0 246.3,290.4 246.6,291.4 246.8,290.7 247.1,293.4 247.3,292.4 247.6,290.0 247.9,291.3 248.1,291.0 248.4,293.2 248.6,293.0 248.9,291.1 249.1,291.6 249.4,291.3 249.7,292.0 249.9,292.9 250.2,291.0 250.4,290.3 250.7,291.4 250.9,292.7 251.2,292.1 251.4,292.2 251.7,290.4 251.9,290.7 252.2,292.2 252.5,292.3 252.7,292.1 253.0,292.0 253.2,290.3 253.5,292.4 253.7,291.3 254.0,292.2 254.2,293.0 254.5,291.3 254.8,291.5 255.0,291.5 255.3,291.5 255.5,293.3 255.8,291.8 256.0,292.5 256.3,291.6 256.5,292.0 256.8,290.8 257.1,291.6 257.3,290.6 257.6,292.9 257.8,292.6 258.1,293.8 258.3,292.0 258.6,293.5 258.9,291.4 259.1,291.2 259.4,292.8 259.6,292.1 259.9,292.5 260.1,291.2 260.4,291.7 260.6,291.9 260.9,291.4 261.2,292.9 261.4,292.7 261.7,292.5 261.9,291.2 262.2,293.7 262.4,293.3 262.7,292.4 262.9,290.8 263.2,292.4 263.5,293.3 264.0,291.2 264.3,292.5 264.5,292.5 264.8,292.2 265.1,291.7 265.3,292.9 265.6,292.3 265.8,291.0 266.1,291.8 266.3,291.7 266.6,293.1 266.8,293.8 267.1,292.5 267.4,292.1 267.6,292.2 267.9,292.7 268.1,292.3 268.4,292.8 268.6,291.1 268.9,291.3 269.2,293.5 269.4,293.1 269.7,293.1 269.9,293.8 270.2,293.7 270.4,293.9 270.7,292.0 270.9,293.3 271.2,293.5 271.5,292.6 271.7,292.3 272.0,291.4 272.2,293.5 272.5,293.7 272.7,292.9 273.0,291.8 273.2,292.8 273.5,293.1 273.8,293.0 274.0,293.6 274.3,292.2 274.5,292.9 274.8,293.1 275.0,294.1 275.3,291.8 275.5,293.1 275.8,293.7 276.1,292.2 276.3,295.1 276.6,292.8 276.8,295.0 277.1,293.3 277.3,292.2 277.6,293.6 277.8,292.3 278.1,293.4 278.4,292.7 278.6,293.2 278.9,292.2 279.1,293.9 279.4,292.4 279.6,294.5 279.9,292.6 280.1,294.0 280.4,292.1 280.6,292.3 280.9,292.7 281.2,293.4 281.4,293.7 281.7,292.2 281.9,294.0 282.2,291.1 282.4,292.3 282.7,292.6 282.9,294.0 283.2,294.4 283.5,291.3 283.7,292.3 284.0,293.1 284.2,293.9 284.5,294.0 284.7,294.4 285.0,294.3 285.2,292.9 285.5,291.4 285.8,292.9 286.0,293.0 286.3,293.0 286.5,293.2 286.8,293.5 287.0,294.6 287.3,292.3 287.6,293.2 287.8,293.2 288.1,294.5 288.3,293.2 288.6,295.0 288.8,292.8 289.1,292.5 289.3,292.7 289.6,292.5 289.9,293.5 290.1,292.5 290.4,294.6 290.6,293.5 290.9,293.0 291.1,294.6 291.4,293.7 291.6,294.4 291.9,293.0 292.2,293.6 292.4,294.0 292.7,294.1 292.9,293.0 293.2,294.8 293.4,293.7 293.7,294.0 293.9,292.9 294.2,294.1 294.5,292.9 294.7,293.1 295.0,293.6 295.2,293.7 295.5,294.6 295.7,295.5 296.0,292.5 296.2,294.6 296.5,294.2 296.8,293.4 297.0,294.0 297.3,294.1 297.5,294.8 297.8,295.0 298.0,295.8 298.3,293.9 298.5,293.9 298.8,293.6 299.1,295.1 299.3,294.1 299.6,293.7 299.8,294.2 300.1,293.1 300.3,295.4 300.6,295.4 300.8,292.7 301.1,294.6 301.4,294.7 301.6,292.7 301.9,293.6 302.1,293.4 302.4,295.4 302.6,295.0 302.9,295.4 303.1,294.4 303.4,293.6 303.7,293.0 303.9,295.9 304.2,293.6 304.4,294.6 304.7,295.1 304.9,293.7 305.2,293.7 305.4,294.5 305.7,295.2 306.0,293.3 306.2,293.7 306.5,295.7 306.7,292.7 307.0,293.5 307.2,294.9 307.5,294.1 307.7,295.4 308.0,294.5 308.3,293.0 308.5,293.9 308.8,293.9 309.0,293.9 309.3,293.9 309.5,295.1 309.8,293.9 310.0,294.7 310.3,294.0 310.6,293.5 310.8,294.6 311.1,293.8 311.3,294.4 311.6,294.2 311.8,294.7 312.1,296.8 312.3,295.2 312.6,293.6 312.9,293.5 313.1,294.0 313.4,294.5 313.6,293.7 313.9,293.1 314.1,296.2 314.4,294.6 314.6,292.9 314.9,293.8 315.2,294.5 315.4,293.9 315.7,294.5 315.9,293.4 316.2,293.8 316.4,292.8 316.7,294.1 316.9,296.8 317.2,293.4 317.5,293.2 317.7,294.8 318.0,295.1 318.2,293.4 318.5,297.2 318.7,294.5 319.0,295.6 319.6,295.6 319.8,295.6 320.1,296.0 320.4,294.8 320.6,294.4 320.9,296.2 321.1,295.2 321.4,296.3 321.6,294.6 321.9,294.4 322.1,294.5 322.4,296.1 322.7,295.5 322.9,296.7 323.2,295.8 323.4,295.1 323.7,294.9 323.9,295.0 324.2,294.5 324.4,296.8 324.7,295.3 325.0,295.3 325.2,295.8 325.5,295.4 325.7,296.2 326.0,296.4 326.2,295.2 326.5,296.2 326.7,294.8 327.0,294.4 327.3,294.8 327.5,295.9 327.8,295.7 328.0,295.3 328.3,294.5 328.5,293.3 328.8,295.4 329.0,295.5 329.3,295.8 329.6,295.3 329.8,295.1 330.1,294.0 330.3,295.0 330.6,295.1 330.8,293.4 331.1,294.3 331.3,294.7 331.6,295.5 331.9,295.2 332.1,294.1 332.4,295.0 332.6,293.8 332.9,294.2 333.1,295.8 333.4,294.5 333.6,295.9 333.9,294.9 334.2,295.5 334.4,295.6 334.7,294.1 334.9,293.8 335.2,293.0 335.4,293.9 335.7,294.6 335.9,294.6 336.2,295.1 336.5,295.7 336.7,295.4 337.0,294.9 337.2,296.2 337.5,294.6 337.7,294.6 338.0,296.7 338.2,295.9 338.5,295.7 338.8,295.7 339.0,296.4 339.3,294.8 339.5,293.1 339.8,294.5 340.0,292.7 340.3,295.7 340.5,295.5 340.8,295.8 341.1,294.7 341.3,293.9 341.6,294.9 341.8,294.9 342.1,296.4 342.3,295.7 342.6,295.4 342.8,295.5 343.1,294.9 343.4,296.0 343.6,296.1 343.9,297.2 344.1,295.4 344.4,295.5 344.6,296.6 344.9,297.3 345.1,294.0 345.4,296.5 345.7,296.9 345.9,295.5 346.2,295.1 346.4,294.9 346.7,296.0 346.9,295.5 347.2,295.3 347.4,294.1 347.7,296.2 348.0,295.3 348.2,295.6 348.5,295.5 348.7,297.2 349.0,296.5 349.2,295.7 349.5,297.8 349.7,295.1 350.0,295.1 350.3,296.1 350.5,295.4 350.8,295.5 351.0,298.5 351.3,295.2 351.5,295.1 351.8,295.3 352.1,295.9 352.3,296.3 352.6,296.2 352.8,295.1 353.1,296.6 353.7,295.4 354.0,295.4 354.2,297.8 354.5,297.3 354.7,296.7 355.0,295.5 355.2,294.4 355.5,294.8 355.8,296.2 356.0,296.2 356.3,297.5 356.5,295.3 356.8,296.3 357.1,295.7 357.3,295.4 357.6,296.0 357.8,295.2 358.1,296.5 358.3,295.9 358.6,295.1 358.9,296.7 359.1,296.1 359.4,295.7 359.6,296.9 359.9,295.2 360.1,298.0 360.4,294.8 360.6,294.0 360.9,296.7 361.2,295.1 361.4,298.0 361.7,294.4 361.9,295.4 362.2,297.6 362.4,296.5 362.7,295.3 362.9,297.8 363.2,293.9 363.5,295.5 363.7,296.0 364.0,296.2 364.2,298.4 364.5,296.6 364.7,293.4 365.0,296.4 365.2,295.4 365.5,296.5 365.8,293.5 366.0,295.9 366.3,298.1 366.5,296.5 366.8,296.0 367.0,296.5 367.3,295.7 367.5,294.8 367.8,297.1 368.1,296.6 368.3,296.4 368.6,297.9 368.8,294.9 369.1,297.4 369.3,296.3 369.6,296.3 369.8,296.4 370.1,296.6 370.4,296.1 370.6,295.4 370.9,296.6 371.1,295.5 371.4,294.6 371.6,296.4 371.9,297.3 372.1,294.9 372.4,297.5 372.6,297.3 372.9,295.7 373.2,297.8 373.4,295.7 373.7,295.5 373.9,296.1 374.2,297.0 374.4,297.8 374.7,296.6 375.0,296.2 375.2,295.6 375.5,297.6 375.7,297.4 376.0,297.5 376.2,297.2 376.5,295.7 376.7,296.1 377.0,297.1 377.3,297.1 377.5,295.5 377.8,296.0 378.0,295.4 378.3,296.0 378.5,296.9 378.8,297.4 379.0,296.8 379.3,295.2 379.6,295.9 379.8,296.3 380.1,298.1 380.3,296.1 380.6,296.5 380.8,295.1 381.1,297.1 381.4,297.3 381.6,297.4 381.9,296.6 382.1,295.6 382.4,296.3 382.6,295.4 382.9,296.6 383.1,297.2 383.4,297.0 383.7,296.9 383.9,297.5 384.2,297.7 384.4,296.9 384.7,296.6 384.9,296.3 385.2,296.7 385.4,296.3 385.7,297.5 386.0,296.8 386.2,296.5 386.5,296.0 386.7,294.6 387.0,296.6 387.2,297.0 387.5,294.9 387.7,297.0 388.0,297.8 388.3,296.8 388.5,297.5 388.8,296.0 389.0,298.1 389.3,297.8 389.5,296.1 389.8,296.6 390.0,296.7 390.3,296.8 390.6,297.3 390.8,297.1 391.1,296.2 391.3,297.3 391.6,295.4 391.8,295.3 392.1,297.9 392.3,297.7 392.6,297.6 392.9,297.8 393.1,296.2 393.4,297.8 393.6,297.1 393.9,298.5 394.1,295.8 394.4,296.6 394.6,296.8 394.9,297.1 395.2,296.8 395.4,295.9 395.7,296.5 395.9,296.2 396.2,297.1 396.4,297.8 396.7,295.8 396.9,297.1 397.2,295.7 397.5,295.9 397.7,296.8 398.0,297.3 398.2,296.8 398.5,297.1 398.7,297.1 399.0,297.7 399.3,295.7 399.5,296.4 399.8,296.7 400.0,298.4 400.3,297.3 400.5,296.0 400.8,296.2 401.0,298.0 401.3,298.1 401.6,297.7 401.8,296.9 402.1,297.0 402.3,296.5 402.6,297.8 402.8,296.7 403.1,297.3 403.3,296.3 403.6,296.2 403.9,297.3 404.1,296.2 404.4,296.6 404.6,297.2 404.9,297.2 405.1,295.6 405.4,296.2 405.6,295.6 405.9,297.3 406.2,297.2 406.4,298.7 406.7,298.4 406.9,296.5 407.2,297.1 407.4,297.5 407.7,296.2 407.9,297.9 408.2,296.3 408.5,297.7 408.7,296.8 409.0,296.1 409.2,297.4 409.5,299.1 409.7,296.9 410.0,297.6 410.2,298.3 410.5,296.7 410.8,298.2 411.0,297.0 411.3,298.5 411.5,297.7 411.8,297.5 412.0,297.8 412.3,298.1 412.5,295.4 412.8,295.9 413.0,297.1 413.3,297.6 413.6,296.6 413.8,299.1 414.1,297.9 414.3,296.5 414.6,297.4 414.9,296.6 415.1,295.8 415.4,297.5 415.6,297.3 415.9,296.2 416.1,296.3 416.4,296.5 416.6,296.7 416.9,298.0 417.2,297.4 417.4,296.4 417.7,296.5 417.9,297.0 418.2,296.8 418.4,298.9 418.7,297.8 419.0,297.9 419.2,298.1 419.5,298.2 419.8,296.8 420.0,298.2 420.3,297.8 420.5,297.7 420.8,296.2 421.0,296.4 421.3,296.9 421.5,298.3 421.8,298.3 422.1,297.4 422.3,295.9 422.6,298.6 422.8,297.7 423.1,297.0 423.3,298.2 423.6,298.4 423.8,297.8 424.1,298.4 424.4,297.2 424.6,297.8 424.9,297.8 425.1,297.0 425.4,296.8 425.6,297.8 425.9,296.4 426.2,297.0 426.4,298.6 426.7,296.9 426.9,297.2 427.2,297.4 427.4,297.9 427.7,298.0 427.9,297.7 428.2,296.7 428.5,297.3 428.7,296.8 429.0,296.4 429.2,297.9 429.5,299.2 429.7,297.3 430.0,297.1 430.2,297.8 430.5,296.6 430.7,295.0 431.0,297.0 431.3,299.2 431.5,296.9 431.8,296.8 432.0,298.7 432.3,297.1 432.5,297.0 432.8,297.3 433.0,298.3 433.3,298.5 433.6,295.4 433.8,298.4 434.1,296.9 434.3,297.8 434.6,298.4 434.8,297.2 435.1,298.4 435.3,297.8 435.6,297.6 435.9,296.5 436.1,298.0 436.4,297.7 436.6,299.0 436.9,297.3 437.1,298.4 437.4,297.8 437.7,296.5 437.9,296.9 438.2,297.2 438.4,298.6 438.7,298.2 438.9,298.6 439.2,295.5 439.4,298.0 439.7,297.7 440.0,297.8 440.2,296.1 440.5,296.1 440.7,297.8 441.0,297.3 441.2,297.7 441.5,297.6 441.7,298.0 442.0,297.7 442.3,298.1 442.5,299.4 442.8,296.7 443.0,297.8 443.3,297.3 443.5,299.2 443.8,297.8 444.0,298.7 444.3,298.6 444.6,298.2 444.8,299.0 445.1,296.9 445.3,297.5 445.6,298.3 445.8,297.6 446.1,299.2 446.3,297.1 446.6,297.1 446.9,297.6 447.1,296.6 447.4,299.7 447.6,295.8 447.9,298.6 448.1,297.5 448.4,296.8 448.6,297.5 448.9,298.4 449.2,298.2 449.4,299.4 449.7,296.1 449.9,297.7 450.2,295.9 450.4,298.9 450.7,296.8 450.9,295.0 451.2,296.2 451.5,297.5 451.7,297.3 452.0,297.4 452.2,296.8 452.5,299.4 452.7,298.7 453.0,297.2 453.2,297.6 453.5,297.8 453.8,296.6 454.0,299.3 454.3,298.5 454.5,297.3 454.8,297.7 455.0,298.2 455.3,297.3 455.5,297.5 455.8,298.6 456.1,296.6 456.3,297.2 456.6,298.6 456.8,298.8 457.1,298.5 457.3,298.7 457.6,297.5 457.8,297.4 458.1,296.6 458.3,295.3 458.6,298.4 458.9,296.9 459.1,296.5 459.4,297.7 459.6,297.5 459.9,299.0 460.1,298.3 460.4,297.3 460.6,297.2 460.9,300.0 461.2,299.2 461.4,298.4 461.7,297.1 461.9,298.7 462.2,298.3 462.4,298.7 462.7,298.5 462.9,298.4 463.2,297.5 463.5,298.5 463.7,297.7 464.0,297.8 464.2,299.4 464.5,297.1 464.7,297.4 465.0,297.6 465.2,297.6 465.5,296.9 465.8,298.6 466.0,296.8 466.3,298.3 466.5,299.3 466.8,298.3 467.0,298.7 467.3,297.5 467.5,297.3 467.8,298.4 468.1,296.4 468.3,297.8 468.6,297.2 468.8,297.5 469.1,296.4 469.3,299.0 469.6,299.7 469.8,299.0 470.1,297.9 470.4,298.5 470.6,297.9 470.9,298.8 471.1,297.2 471.4,298.3 471.6,297.6 471.9,298.0 472.1,296.9 472.4,298.5 472.7,298.5 472.9,298.1 473.2,298.5 473.4,297.3 473.7,298.1 473.9,297.7 474.2,299.3 474.4,298.6 474.7,298.7 475.0,298.2 475.2,298.4 475.5,299.5 475.7,299.6 476.0,297.7 476.2,297.9 476.5,300.5 476.7,299.3 477.0,300.0 477.3,298.7 477.5,298.8 477.8,296.1 478.0,297.6 478.3,298.8 478.5,298.3 478.8,298.4 479.1,298.7 479.3,298.0 479.6,298.7 479.8,299.0 480.1,299.6 480.3,299.6 480.6,297.8 480.8,297.4 481.1,298.5 481.3,299.2 481.6,297.3 481.9,298.4 482.1,298.3 482.4,298.9 482.6,297.5 482.9,298.4 483.1,299.8 483.4,296.2 483.6,299.0 483.9,297.8 484.2,297.3 484.4,298.7 484.7,297.8 484.9,299.7 485.2,298.6 485.4,298.8 485.7,299.0 485.9,299.5 486.2,296.7 486.5,298.0 486.7,298.5 487.0,299.3 487.2,297.5 487.5,299.9 487.7,298.8 488.0,299.4 488.3,298.2 488.5,298.2 488.8,298.7 489.0,298.9 489.3,297.7 489.5,298.3 489.8,299.0 490.0,297.7 490.3,297.6 490.6,298.0 490.8,297.7 491.1,300.3 491.3,301.0 491.6,299.7 491.8,299.2 492.1,299.8 492.3,297.0 492.6,298.2 492.9,297.7 493.1,297.5 493.4,299.4 493.6,298.9 493.9,297.6 494.1,298.8 494.4,297.3 494.7,298.0 494.9,298.0 495.2,298.1 495.4,296.8 495.7,299.0 495.9,298.0 496.2,298.9 496.4,298.5 496.7,297.3 496.9,297.9 497.2,298.4 497.5,298.8 497.7,298.2 498.0,299.3 498.2,298.4 498.5,299.3 498.7,297.5 499.0,297.6 499.3,299.9 499.5,298.4 499.8,296.6 500.0,297.3 500.3,297.3 500.5,299.4 500.8,299.7 501.0,297.4 501.3,299.3 501.6,298.2 501.8,297.7 502.1,299.5 502.3,299.1 502.6,297.9 502.8,299.1 503.1,299.9 503.3,298.7 503.6,298.1 503.9,299.1 504.1,299.3 504.4,298.3 504.6,297.5 504.9,297.8 505.1,298.3 505.4,297.6 505.6,299.3 505.9,297.9 506.1,297.4 506.4,296.8 506.7,298.2 506.9,299.5 507.2,300.1 507.4,297.4 507.7,300.1 507.9,299.0 508.2,298.1 508.4,300.0 508.7,298.6 509.0,299.8 509.2,299.2 509.5,300.3 509.7,297.3 510.0,299.4 510.2,297.8 510.5,297.3 510.7,300.2 511.0,299.1 511.3,298.9 511.5,297.8 511.8,298.8 512.0,298.8 512.3,298.5 512.5,299.8 512.8,299.5 513.1,299.5 513.3,298.7 513.6,298.5 513.8,298.5 514.1,299.5 514.3,299.0 514.6,300.2 514.8,298.9 515.1,299.0 515.4,300.2 515.6,300.7 515.9,299.0 516.1,298.4 516.4,298.6 516.6,299.2 516.9,297.0 517.1,298.0 517.4,299.0 517.7,298.2 517.9,298.2 518.2,299.0 518.4,297.3 518.7,297.7 518.9,300.1 519.2,297.5 519.4,296.8 519.7,299.1 520.0,299.3 520.2,299.4 520.5,296.5 520.7,297.7 521.0,297.9 521.2,299.7 521.5,297.2 521.7,297.8 522.0,298.6 522.3,298.1 522.5,299.0 522.8,298.8 523.0,298.6 523.3,297.3 523.5,298.3 523.8,299.3 524.0,298.6 524.3,298.6 524.6,299.0 524.8,299.1 525.1,298.7 525.3,297.1 525.6,297.9 525.8,298.3 526.1,299.0 526.3,299.8 526.6,300.0 526.8,299.2 527.1,300.4 527.4,297.3 527.6,299.1 527.9,298.6 528.1,297.5 528.4,297.9 528.6,299.6 528.9,298.5 529.1,298.4 529.4,298.6 529.7,298.0 529.9,298.2 530.2,298.4 530.4,299.2 530.7,297.9 530.9,300.5 531.2,298.1 531.4,298.6 531.7,299.0 532.0,300.6 532.2,297.9 532.5,299.7 532.7,299.4 533.0,300.0 533.2,297.1 533.5,298.1 533.7,298.8 534.0,299.8 534.3,296.6 534.5,299.4 534.8,298.1 535.0,297.8 535.3,301.2 535.5,298.2 535.8,298.6 536.0,299.5 536.3,299.8 536.6,298.5 536.8,299.8 537.1,300.7 537.3,299.6 537.6,297.7 537.8,299.1 538.1,299.9 538.3,297.5 538.6,297.8 538.9,297.8 539.1,299.1 539.4,299.0 539.6,299.6 539.9,298.3 540.1,299.6 540.4,300.9 540.6,298.9 540.9,300.6 541.2,300.9 541.4,299.3 541.7,299.7 541.9,299.7 542.2,298.6 542.4,299.2 542.7,298.2 542.9,298.0 543.2,297.4 543.5,299.0 543.7,298.0 544.0,300.4 544.2,299.3 544.5,298.7 544.7,299.3 545.0,298.1 545.2,299.8 545.5,299.3 545.8,300.1 546.0,297.6 546.3,298.5 546.5,300.0 546.8,297.7 547.0,297.7 547.3,298.5 547.5,300.2 547.8,298.1 548.1,297.7 548.3,298.3 548.6,297.8 548.8,299.5 549.1,298.7 549.3,300.8 549.6,298.4 549.8,301.0 550.1,298.2 550.4,298.4 550.6,300.4 550.9,300.4 551.1,299.3 551.4,298.3 551.6,299.1 551.9,300.4 552.1,298.1 552.4,298.8 552.7,300.0 552.9,300.5 553.2,300.7 553.4,299.4 553.7,298.3 553.9,298.8 554.2,300.8 554.4,298.0 554.7,299.2 555.0,299.2 555.2,298.7 555.5,300.8 555.7,298.3 556.0,298.4 556.2,300.3 556.5,298.7 556.7,298.4 557.0,299.9 557.3,297.9 557.5,300.2 557.8,299.6 558.0,299.3 558.3,299.3 558.5,299.7 558.8,300.7 559.1,299.6 559.3,299.6 559.6,297.9 559.8,297.6 560.1,299.9 560.3,298.8 560.6,300.8 560.8,299.3 561.1,299.0 561.4,297.6 561.6,299.4 561.9,298.5 562.1,299.9 562.4,297.4 562.6,298.9 562.9,297.1 563.1,299.3 563.4,299.7 563.7,299.3 563.9,299.1 564.2,299.9 564.4,299.1 564.7,298.2 564.9,298.6 565.2,298.6 565.4,299.0 565.7,298.6 566.0,301.5 566.2,301.5 566.5,300.3 566.7,297.8 567.0,300.1 567.2,300.1 567.5,300.2 567.7,297.8 568.0,299.5 568.3,300.3 568.5,299.4 568.8,298.3 569.0,298.9 569.3,298.9 569.5,300.2 569.8,299.4 570.0,300.4 570.3,299.6 570.6,298.7 570.8,298.2 571.1,298.9 571.3,298.3 571.6,299.1 571.8,297.5 572.1,299.1 572.3,299.3 572.6,297.4 572.9,301.2 573.1,300.4 573.4,300.6 573.6,300.6 573.9,299.2 574.1,300.2 574.4,300.2 574.6,299.9 574.9,298.9 575.2,299.3 575.4,299.9 575.7,300.1 575.9,299.4 576.2,300.3 576.4,300.3 576.7,300.2 577.0,297.6 577.2,298.6 577.5,297.3 577.7,300.2 578.0,300.4 578.2,300.9 578.5,299.0 578.7,299.2 579.0,298.7 579.3,298.9 579.5,298.9 579.8,299.6 580.0,299.4 580.3,299.4 580.5,298.8 580.8,300.7 581.0,300.9 581.3,298.9 581.6,299.0 581.8,298.8 582.1,299.7 582.3,300.3 582.6,298.7 582.8,301.1 583.1,300.6 583.3,298.5 583.6,299.0 583.9,299.2 584.1,299.9 584.4,299.7 584.6,300.6 584.9,301.1 585.1,298.3 585.4,300.9 585.6,300.4 585.9,300.0 586.2,298.4 586.4,300.2 586.7,299.9 586.9,299.1 587.2,299.1 587.4,298.7 587.7,300.4 587.9,297.1 588.2,297.8 588.5,298.5 588.7,298.5 589.0,300.1 589.2,301.0 589.5,297.9 589.7,298.2 590.0,301.3 590.3,299.6 590.5,299.9 590.8,298.5 591.0,299.1 591.3,300.8 591.5,299.6 591.8,299.4 592.0,298.3 592.3,299.9 592.6,300.2 592.8,299.2 593.1,300.4 593.3,298.5 593.6,297.9 593.8,299.2 594.1,300.5 594.4,300.2 594.6,298.4 594.9,299.8 595.1,299.6 595.4,300.2 595.6,299.6 595.9,300.5 596.1,299.4 596.4,299.7 596.7,298.8 596.9,299.8 597.2,299.7 597.4,297.6 597.7,300.5 597.9,300.6 598.2,302.1 598.4,298.8 598.7,300.5 599.0,299.8 599.2,298.4 599.5,299.7 599.7,300.1 600.0,300.8 600.3,299.8 600.5,299.7 600.8,300.4 601.0,300.0 601.3,298.8 601.5,299.7 601.8,297.9 602.0,300.1 602.3,297.8 602.6,299.9 602.8,299.0 603.1,297.6 603.3,298.6 603.6,300.0 603.8,301.4 604.1,299.5 604.3,299.4 604.6,299.7 604.9,298.5 605.1,299.6 605.4,299.5 605.6,299.6 605.9,300.4 606.1,299.9 606.4,300.8 606.7,299.5 606.9,298.9 607.2,299.9 607.4,300.2 607.7,298.8 607.9,299.5 608.2,299.8 608.4,301.7 608.7,299.3 609.0,301.0 609.2,298.0 609.5,299.0 609.7,300.3 610.0,299.3 610.2,299.0 610.5,299.9 610.8,300.3 611.0,301.3 611.3,300.2 611.5,299.7 611.8,300.6 612.0,297.5 612.3,298.2 612.5,300.5 612.8,299.7 613.1,300.3 613.3,301.8 613.6,300.6 613.8,299.9 614.1,300.5 614.3,300.3 614.6,298.6 614.8,299.1 615.1,298.2 615.4,299.3 615.6,300.3 615.9,300.5 616.1,300.5 616.4,300.0 616.6,298.9 616.9,300.1 617.2,301.0 617.4,297.8 617.7,299.8 617.9,300.5 618.2,298.9 618.4,299.7 618.7,297.0 618.9,300.1 619.2,300.9 619.5,300.1 619.7,299.1 620.0,299.0 620.2,298.6 620.5,299.4 620.7,300.2 621.0,300.6 621.3,300.6 621.5,301.8 621.8,301.8 622.0,300.1 622.3,298.4 622.5,300.7 622.8,300.2 623.0,298.8 623.3,300.3 623.6,297.5 623.8,301.5 624.1,300.5 624.3,299.4 624.6,300.5 624.8,300.6 625.1,299.5 625.4,300.7 625.6,298.9 625.9,301.0 626.1,300.1 626.4,299.1 626.6,299.9 626.9,300.2 627.2,299.6 627.4,299.3 627.7,299.8 627.9,299.8 628.2,299.3 628.4,298.7 628.7,297.9 628.9,300.1 629.2,299.1 629.5,301.1 629.7,300.4 630.0,300.7 630.2,301.3 630.5,298.3 630.7,299.5 631.0,300.0 631.3,298.4 631.5,300.1 631.8,301.7 632.0,300.3 632.3,300.3 632.5,302.0 632.8,299.4 633.0,301.3 633.3,301.7 633.6,298.6 633.8,299.9 634.1,299.2 634.3,302.4 634.6,300.5 634.8,300.1 635.1,298.2 635.4,299.0 635.6,301.2 635.9,301.0 636.1,300.1 636.4,300.8 636.6,298.2 636.9,299.3 637.1,300.3 637.4,300.3 637.7,300.1 637.9,299.4 638.2,300.7 638.4,299.2 638.7,300.9 638.9,299.7 639.2,299.6 639.4,300.2 639.7,297.9 640.0,297.6 640.2,299.7 640.5,298.6 640.7,300.0 641.0,300.0 641.2,298.7 641.5,301.4 641.8,299.0 642.0,301.5 642.3,299.1 642.5,299.0 642.8,300.8 643.0,299.4 643.3,299.9 643.5,301.3 643.8,300.6 644.1,300.1 644.3,300.3 644.6,299.6 644.8,298.9 645.1,299.4 645.3,300.7 645.6,299.9 645.8,298.9 646.1,299.7 646.4,300.1 646.6,301.6 646.9,299.6 647.1,299.3 647.4,300.6 647.6,299.9 647.9,299.9 648.1,299.9 648.4,298.2 648.7,300.4 648.9,299.7 649.2,300.6 649.4,299.7 649.7,300.6 649.9,300.7 650.2,300.0 650.4,299.3 650.7,299.3 651.0,298.2 651.2,299.7 651.5,298.7 651.7,299.6 652.0,299.9 652.2,301.7 652.5,300.2 652.7,300.0 653.0,299.0 653.3,299.6 653.5,299.7 653.8,302.6 654.0,300.5 654.3,297.6 654.5,299.0 654.8,300.1 655.0,299.8 655.3,300.0 655.6,300.1 655.8,300.0 656.1,300.4 656.3,299.7 656.6,299.1 656.8,298.9 657.1,300.2 657.3,298.3 657.6,299.8 657.9,300.9 658.1,299.3 658.4,299.8 658.6,298.6 658.9,301.3 659.1,298.4 659.4,300.3 659.7,299.5 659.9,302.2 660.2,300.2 660.4,300.3 660.7,300.5 660.9,300.3 661.2,299.2 661.4,300.6 661.7,300.7 662.0,300.6 662.2,299.4 662.5,301.3 662.7,299.3 663.0,301.3 663.2,298.9 663.5,298.8 663.7,300.4 664.0,299.3 664.3,302.6 664.5,300.8 664.8,300.8 665.0,300.6 665.3,300.4 665.5,300.5 665.8,299.2 666.0,301.2 666.3,301.7 666.5,299.6 666.8,301.0 667.1,300.9 667.3,300.5 667.6,299.2 667.8,299.6 668.1,300.4 668.3,300.2 668.6,299.5 668.9,299.7 669.1,301.5 669.4,300.3 669.6,300.7 669.9,301.4 670.1,298.1 670.4,300.4 670.7,302.0 670.9,301.1 671.2,299.9 671.4,299.5 671.7,300.7 671.9,299.5 672.2,300.7 672.4,300.3 672.7,299.4 673.0,299.6 673.2,301.2 673.5,300.4 673.7,299.4 674.0,300.1 674.2,299.1 674.5,298.8 674.7,301.0 675.0,301.2" fill="none" stroke="#16a34a" stroke-width="1.5"/>
<rect x="65" y="20" width="610" height="330" fill="none" stroke="#888" stroke-width="1.5"/>
<line x1="62" y1="308.5" x2="65" y2="308.5" stroke="#64748b" stroke-width="1" opacity="0.6"/>
<line x1="62" y1="260.0" x2="65" y2="260.0" stroke="#64748b" stroke-width="1" opacity="0.6"/>
<line x1="62" y1="199.0" x2="65" y2="199.0" stroke="#64748b" stroke-width="1" opacity="0.6"/>
<line x1="60" y1="116.3" x2="65" y2="116.3" stroke="#64748b" stroke-width="1.5"/>
<text x="57" y="116.3" text-anchor="end" dominant-baseline="middle" font-size="11" font-family="monospace,sans-serif" fill="#64748b">10</text>
<line x1="62" y1="33.5" x2="65" y2="33.5" stroke="#64748b" stroke-width="1" opacity="0.6"/>
<line x1="65.0" y1="350" x2="65.0" y2="355" stroke="#888" stroke-width="1.5"/>
<text x="65.0" y="368" text-anchor="middle" font-size="11" font-family="monospace,sans-serif">0</text>
<line x1="187.1" y1="350" x2="187.1" y2="355" stroke="#888" stroke-width="1.5"/>
<text x="187.1" y="368" text-anchor="middle" font-size="11" font-family="monospace,sans-serif">2</text>
<line x1="309.1" y1="350" x2="309.1" y2="355" stroke="#888" stroke-width="1.5"/>
<text x="309.1" y="368" text-anchor="middle" font-size="11" font-family="monospace,sans-serif">4</text>
<line x1="431.2" y1="350" x2="431.2" y2="355" stroke="#888" stroke-width="1.5"/>
<text x="431.2" y="368" text-anchor="middle" font-size="11" font-family="monospace,sans-serif">6</text>
<line x1="553.3" y1="350" x2="553.3" y2="355" stroke="#888" stroke-width="1.5"/>
<text x="553.3" y="368" text-anchor="middle" font-size="11" font-family="monospace,sans-serif">8</text>
<line x1="675.3" y1="350" x2="675.3" y2="355" stroke="#888" stroke-width="1.5"/>
<text x="675.3" y="368" text-anchor="middle" font-size="11" font-family="monospace,sans-serif">10</text>
<text x="370" y="392" text-anchor="middle" font-size="13" font-family="sans-serif">Runtime (minutes)</text>
<text transform="rotate(-90,28,185)" x="28" y="185" text-anchor="middle" font-size="13" font-family="sans-serif" fill="#64748b">Train loss (log scale)</text>
</svg>