<svg xmlns="http://www.w3.org/2000/svg" viewBox="0 0 760 400" width="760" height="400" style="background:white">
<rect x="65" y="20" width="610" height="330" fill="#f9f9f9"/>
<line x1="65" y1="308.5" x2="675" y2="308.5" stroke="#ececec" stroke-width="1"/>
<line x1="65" y1="260.0" x2="675" y2="260.0" stroke="#ececec" stroke-width="1"/>
<line x1="65" y1="199.0" x2="675" y2="199.0" stroke="#ececec" stroke-width="1"/>
<line x1="65" y1="116.3" x2="675" y2="116.3" stroke="#ddd" stroke-width="1"/>
<line x1="65" y1="33.5" x2="675" y2="33.5" stroke="#ececec" stroke-width="1"/>
<line x1="65.0" y1="20" x2="65.0" y2="350" stroke="#ececec" stroke-width="1"/>
<line x1="187.0" y1="20" x2="187.0" y2="350" stroke="#ececec" stroke-width="1"/>
<line x1="309.1" y1="20" x2="309.1" y2="350" stroke="#ececec" stroke-width="1"/>
<line x1="431.1" y1="20" x2="431.1" y2="350" stroke="#ececec" stroke-width="1"/>
<line x1="553.1" y1="20" x2="553.1" y2="350" stroke="#ececec" stroke-width="1"/>
<line x1="675.2" y1="20" x2="675.2" y2="350" stroke="#ececec" stroke-width="1"/>
<polyline points="65.0,119.4 65.3,52.7 65.7,87.8 66.0,144.8 66.3,160.3 66.6,152.1 66.9,152.8 67.3,159.1 67.6,164.6 67.9,168.8 68.2,171.5 69.0,173.6 69.7,176.1 70.4,177.7 71.2,179.7 71.9,181.6 72.6,183.2 73.3,184.8 74.1,186.3 74.8,188.3 75.5,190.4 76.2,192.7 76.9,194.7 77.6,197.0 78.3,199.1 79.0,201.2 79.7,202.4 80.4,204.0 81.1,205.5 81.7,207.1 82.4,208.1 83.1,208.6 83.8,209.8 84.5,211.5 85.1,212.1 85.8,213.2 86.5,213.8 87.2,214.6 87.8,215.0 88.5,216.8 89.1,216.7 89.8,217.5 90.5,217.7 91.1,218.8 91.8,218.6 92.4,220.1 93.1,220.7 93.7,221.2 94.4,222.1 95.0,223.3 95.6,223.1 96.3,225.3 96.9,226.0 97.5,226.1 98.2,226.8 98.8,227.4 99.4,227.1 100.0,228.5 100.6,230.8 101.2,230.3 101.8,232.0 102.5,233.0 103.1,232.7 103.7,233.9 104.3,233.6 104.9,234.7 105.5,235.4 106.1,236.0 106.7,236.5 107.3,237.3 107.9,238.3 108.5,236.8 109.1,238.9 109.7,239.8 110.2,239.9 110.8,239.0 111.4,241.2 112.0,241.4 112.5,240.9 113.1,241.6 113.7,241.3 114.3,242.2 114.8,242.5 115.4,243.2 116.0,243.1 116.5,244.2 117.1,244.2 117.6,244.6 118.2,245.0 118.8,245.4 119.3,245.3 119.9,245.2 120.4,246.0 121.0,246.2 121.6,246.8 122.2,247.1 122.8,247.5 123.3,248.8 123.9,248.3 124.4,248.4 124.9,247.7 125.5,249.1 126.0,248.6 126.6,249.5 127.1,250.0 127.6,250.9 128.2,249.6 128.7,250.7 129.3,252.2 129.8,250.8 130.3,251.1 130.8,251.3 131.4,252.6 131.9,252.1 132.4,251.1 132.9,252.3 133.5,253.0 134.0,254.0 134.5,253.3 135.1,254.7 135.6,254.4 136.1,254.2 136.6,254.1 137.1,253.0 137.6,255.9 138.1,255.4 138.7,256.5 139.2,256.8 139.7,255.4 140.2,256.6 140.7,257.3 141.2,256.8 141.7,257.6 142.2,258.0 142.8,258.0 143.3,257.3 143.9,257.5 144.4,258.4 144.9,257.5 145.4,257.9 145.9,258.9 146.4,258.5 146.9,259.5 147.4,258.4 147.9,259.9 148.4,259.2 148.9,259.6 149.4,259.5 149.9,259.8 150.4,260.1 150.9,260.2 151.4,261.2 151.9,261.2 152.4,259.9 152.9,261.4 153.3,262.3 153.8,261.9 154.3,262.7 154.8,261.5 155.3,261.0 155.8,262.8 156.3,261.5 156.7,261.2 157.2,262.5 157.7,263.9 158.2,261.9 158.7,262.6 159.1,262.1 159.6,263.0 160.1,263.6 160.6,263.3 161.0,263.5 161.5,262.9 162.0,263.6 162.4,263.3 162.9,263.0 163.4,264.3 163.8,264.4 164.3,264.8 164.8,263.2 165.3,264.2 165.7,265.0 166.2,265.2 166.7,263.9 167.1,264.2 167.6,264.7 168.0,265.9 168.5,266.1 168.9,264.7 169.4,265.1 169.9,265.2 170.3,265.7 170.8,266.2 171.2,265.3 171.7,266.6 172.1,266.8 172.6,265.8 173.0,266.9 173.5,266.9 173.9,266.0 174.4,266.2 174.9,267.9 175.3,266.5 175.8,266.1 176.2,267.4 176.7,267.9 177.1,266.8 177.6,267.5 178.0,266.3 178.5,267.4 178.9,268.2 179.4,266.8 179.8,267.5 180.3,266.8 180.8,268.0 181.2,268.5 181.7,268.7 182.1,269.9 182.6,267.2 183.0,268.1 183.5,268.7 183.9,268.6 184.4,268.7 184.8,269.0 185.2,268.4 185.7,269.4 186.1,269.9 186.6,270.1 187.0,269.8 187.4,270.5 187.9,269.3 188.3,268.1 188.8,269.9 189.2,269.8 189.6,270.6 190.1,269.6 190.5,270.9 191.0,270.2 191.4,271.6 191.8,270.9 192.2,269.7 192.7,269.8 193.1,270.4 193.6,270.2 194.1,269.9 194.5,270.5 194.9,271.3 195.3,270.7 195.8,272.0 196.2,272.1 196.6,272.4 197.1,270.2 197.5,271.4 197.9,273.0 198.3,270.8 198.8,271.7 199.2,272.3 199.6,273.3 200.0,271.8 200.4,271.6 200.9,271.8 201.3,272.0 201.7,271.7 202.1,272.9 202.6,271.4 203.0,273.3 203.4,271.8 203.8,273.0 204.2,272.4 204.6,272.7 205.0,272.4 205.5,273.0 205.9,272.1 206.3,272.6 206.7,271.9 207.1,273.7 207.6,273.3 208.0,272.3 208.4,271.6 208.8,273.8 209.2,273.8 209.6,273.6 210.0,273.9 210.4,272.1 210.8,273.4 211.2,274.0 211.6,273.6 212.0,274.1 212.4,274.7 212.8,272.4 213.3,274.0 213.7,273.8 214.1,274.0 214.5,274.0 214.9,273.7 215.3,274.9 215.7,276.1 216.1,274.9 216.5,273.8 216.9,273.8 217.3,273.6 217.7,275.6 218.1,274.1 218.5,273.9 218.9,275.1 219.3,274.7 219.8,274.8 220.1,275.4 220.5,275.0 220.9,274.1 221.4,275.3 221.8,275.0 222.2,276.1 222.6,277.1 223.0,275.6 223.4,274.6 223.8,275.8 224.2,274.9 224.6,276.5 225.0,277.2 225.4,274.5 225.7,274.9 226.2,275.2 226.6,275.4 226.9,275.6 227.3,274.8 227.7,274.8 228.1,275.8 228.5,275.7 228.9,276.7 229.3,274.1 229.7,276.4 230.1,275.6 230.5,275.2 230.9,277.1 231.3,275.8 231.7,276.2 232.1,276.7 232.5,276.9 232.9,276.6 233.3,276.7 233.7,277.0 234.1,276.7 234.4,277.3 234.9,276.3 235.3,276.3 235.6,276.8 236.0,276.2 236.4,277.2 236.8,275.8 237.2,275.9 237.6,277.3 238.0,277.4 238.4,277.1 238.8,277.1 239.1,277.7 239.5,277.6 239.9,276.6 240.3,278.2 240.7,276.4 241.1,278.1 241.5,276.8 241.9,275.4 242.2,276.8 242.6,277.4 243.0,277.0 243.4,277.0 243.8,277.5 244.2,278.0 244.5,277.8 244.9,277.4 245.3,276.7 245.7,277.4 246.1,277.4 246.5,278.5 246.9,277.6 247.2,276.6 247.6,277.1 248.0,279.0 248.4,278.4 248.8,280.3 249.1,279.0 249.5,279.0 249.9,278.3 250.3,277.9 250.7,278.9 251.1,278.2 251.4,279.1 251.8,277.6 252.2,279.6 252.6,278.7 252.9,278.6 253.3,279.2 253.7,278.8 254.1,280.1 254.5,278.8 254.8,279.0 255.2,280.6 255.6,279.1 256.0,279.2 256.3,279.3 256.7,278.9 257.1,279.6 257.4,279.0 257.8,278.8 258.2,279.5 258.5,279.3 258.9,279.1 259.3,279.1 259.7,279.1 260.0,280.0 260.4,279.4 260.8,279.4 261.2,278.4 261.5,279.5 261.9,279.2 262.3,280.1 262.6,280.7 263.0,278.8 263.4,279.3 263.8,280.7 264.1,280.5 264.5,279.9 264.9,279.1 265.2,278.5 265.6,278.4 266.0,279.3 266.3,280.3 266.7,278.7 267.1,280.1 267.5,282.6 267.8,279.5 268.2,280.6 268.6,280.6 268.9,281.3 269.3,279.9 269.7,279.7 270.0,279.4 270.4,279.3 270.8,281.0 271.1,279.2 271.5,280.8 271.9,280.7 272.2,281.3 272.6,279.7 273.0,281.0 273.3,281.4 273.7,280.9 274.1,280.5 274.4,278.7 274.8,280.9 275.2,281.1 275.6,280.5 275.9,281.3 276.3,280.8 276.7,279.7 277.0,281.5 277.4,279.6 277.8,281.0 278.1,282.2 278.5,281.8 278.9,279.2 279.2,280.1 279.6,282.3 279.9,282.3 280.3,282.9 280.7,279.9 281.0,280.1 281.4,281.8 281.8,280.3 282.1,279.8 282.5,281.5 282.9,281.0 283.3,280.0 283.6,279.7 284.0,281.1 284.4,280.2 284.7,280.9 285.1,281.0 285.5,282.2 285.8,281.3 286.2,281.9 286.6,281.7 286.9,280.7 287.3,279.4 287.7,282.1 288.0,282.0 288.4,280.6 288.8,281.3 289.1,281.4 289.5,280.5 289.9,281.7 290.2,281.3 290.6,281.1 291.0,282.1 291.3,280.9 291.7,281.8 292.1,282.3 292.4,282.4 292.8,282.4 293.1,282.1 293.5,281.9 293.9,281.5 294.2,282.9 294.6,281.6 294.9,281.9 295.3,283.0 295.6,282.5 296.0,282.4 296.4,282.9 296.7,282.6 297.1,283.0 297.4,280.6 297.8,280.5 298.2,282.5 298.5,282.5 298.9,282.2 299.2,284.9 299.6,282.5 300.0,280.7 300.3,283.1 300.7,282.6 301.0,282.1 301.4,282.0 301.8,283.1 302.1,282.8 302.5,282.1 302.8,282.5 303.2,282.5 303.5,283.5 303.9,285.2 304.2,282.6 304.6,283.3 305.0,281.9 305.3,284.4 305.7,284.3 306.0,284.3 306.4,282.8 306.7,283.4 307.1,282.4 307.5,283.1 307.8,283.4 308.2,281.7 308.5,284.1 308.9,284.1 309.2,283.2 309.6,283.7 309.9,281.9 310.3,282.3 310.7,282.8 311.0,284.6 311.4,282.6 311.7,281.9 312.1,284.0 312.4,284.4 312.8,282.7 313.1,283.8 313.5,284.6 313.8,284.3 314.2,284.1 314.5,282.8 314.9,282.9 315.2,284.6 315.6,284.3 315.9,283.5 316.3,285.1 316.6,283.0 317.0,282.9 317.4,284.5 317.7,284.0 318.1,283.6 318.4,284.8 318.8,284.1 319.1,283.6 319.5,284.1 319.8,284.0 320.2,283.7 320.5,284.5 320.9,284.4 321.2,285.6 321.6,283.5 321.9,283.7 322.3,285.1 322.6,283.4 323.0,282.9 323.4,283.8 323.7,283.2 324.1,283.7 324.4,284.5 324.8,284.6 325.5,284.9 325.9,284.7 326.3,284.2 326.6,285.3 327.0,284.4 327.3,284.5 327.7,284.9 328.0,285.2 328.4,282.9 328.7,284.5 329.1,282.7 329.4,284.9 329.8,286.4 330.1,285.2 330.5,283.5 330.8,283.5 331.2,284.5 331.5,283.9 331.9,286.4 332.2,285.4 332.6,283.8 332.9,285.1 333.3,284.6 333.6,284.4 334.0,285.3 334.3,284.7 334.7,285.0 335.0,284.9 335.4,284.7 335.7,285.2 336.0,284.4 336.4,285.4 336.7,285.1 337.1,285.0 337.4,283.9 337.8,286.5 338.1,285.3 338.5,284.4 338.8,285.2 339.2,284.6 339.5,283.7 339.9,285.6 340.2,286.2 340.5,284.1 340.9,286.0 341.2,283.3 341.6,285.1 341.9,285.1 342.3,285.6 342.6,284.0 343.0,285.5 343.3,284.7 343.6,286.3 344.0,285.3 344.3,285.7 344.7,284.9 345.0,285.4 345.4,283.9 345.7,284.6 346.0,285.7 346.4,286.2 346.7,286.5 347.1,287.2 347.4,285.9 347.8,285.1 348.1,285.5 348.5,286.8 348.8,285.3 349.2,286.0 349.5,284.7 349.8,284.7 350.2,285.1 350.5,285.8 350.9,286.8 351.2,285.5 351.5,284.9 351.9,286.9 352.2,285.1 352.6,286.3 352.9,284.8 353.3,287.2 353.6,284.9 353.9,287.1 354.3,285.3 354.6,285.4 355.0,287.5 355.3,285.3 355.7,286.4 356.0,286.3 356.4,285.6 356.7,286.7 357.1,286.0 357.4,286.8 357.7,287.2 358.1,286.2 358.4,286.0 358.8,287.2 359.1,285.7 359.5,286.3 359.8,288.3 360.1,287.5 360.5,285.7 360.8,286.6 361.2,286.9 361.5,284.3 361.9,284.9 362.2,285.8 362.5,284.8 362.9,285.6 363.2,287.4 363.6,286.0 363.9,286.4 364.3,285.8 364.6,286.5 365.0,284.7 365.3,286.6 365.6,286.4 366.0,287.2 366.3,286.0 366.7,287.7 367.0,286.3 367.5,287.6 367.8,286.0 368.1,286.4 368.5,287.8 368.8,286.7 369.2,286.2 369.5,287.4 369.9,286.2 370.2,286.6 370.5,288.0 370.9,287.8 371.2,287.5 371.6,287.4 371.9,285.9 372.2,285.6 372.6,287.7 372.9,287.1 373.2,286.0 373.6,288.0 373.9,286.7 374.3,286.8 374.6,286.3 374.9,286.0 375.3,286.6 375.6,288.6 376.0,286.4 376.3,285.9 376.6,288.7 377.0,287.4 377.3,288.4 377.7,285.9 378.0,286.0 378.3,286.9 378.7,287.2 379.0,286.7 379.4,287.1 379.7,287.3 380.0,286.6 380.4,286.0 380.7,286.7 381.1,286.8 381.4,286.6 381.7,288.2 382.1,288.5 382.4,286.2 382.8,287.5 383.1,287.3 383.4,286.4 383.8,287.2 384.1,286.8 384.5,285.4 384.8,288.3 385.1,287.6 385.5,287.0 385.8,287.4 386.1,286.4 386.5,286.7 386.8,288.2 387.2,288.9 387.5,287.7 387.8,288.4 388.2,288.1 388.5,287.3 388.9,288.5 389.2,287.4 389.5,288.9 389.9,287.3 390.2,288.8 390.6,288.0 390.9,286.4 391.7,288.1 392.0,287.8 392.4,287.9 392.7,288.1 393.1,286.0 393.4,288.4 393.7,288.5 394.1,287.2 394.4,286.2 394.7,287.1 395.1,287.9 395.4,287.3 395.8,288.2 396.1,287.2 396.5,287.8 396.8,287.3 397.1,288.5 397.5,289.1 397.8,288.3 398.1,288.8 398.5,286.5 398.8,287.9 399.1,289.2 399.5,286.7 399.8,287.0 400.1,286.2 400.5,288.6 400.8,288.1 401.1,287.8 401.5,288.4 401.8,288.4 402.1,288.2 402.5,288.9 402.8,286.5 403.1,287.8 403.5,287.5 403.8,289.7 404.2,287.0 404.5,288.8 404.8,287.5 405.2,287.6 405.5,286.1 405.8,289.2 406.2,288.9 406.5,288.5 406.8,288.3 407.1,287.4 407.5,288.5 407.8,289.6 408.1,289.9 408.5,287.2 408.8,289.0 409.1,287.0 409.5,288.4 409.8,287.7 410.1,290.2 410.5,288.3 410.8,289.5 411.1,289.4 411.5,288.6 411.8,287.6 412.1,289.5 412.5,289.2 412.8,288.5 413.1,287.8 413.5,288.4 413.8,289.0 414.2,289.8 414.5,287.6 414.9,289.3 415.2,288.4 415.5,288.5 415.9,287.3 416.2,288.3 416.5,287.5 416.9,288.3 417.2,289.2 417.6,288.5 417.9,287.2 418.2,288.9 418.6,289.4 418.9,287.9 419.2,287.6 419.6,289.2 419.9,289.5 420.3,288.2 420.6,288.2 420.9,288.2 421.3,288.7 421.6,288.6 421.9,288.2 422.3,288.6 422.6,288.0 423.0,290.1 423.3,290.2 423.7,288.0 424.0,289.5 424.3,289.3 424.7,289.0 425.0,286.9 425.3,290.4 425.7,289.1 426.0,288.4 426.3,287.7 426.7,289.4 427.0,290.0 427.3,288.4 427.7,288.7 428.0,288.5 428.3,289.5 428.7,289.2 429.0,288.1 429.4,287.9 429.7,289.7 430.0,289.7 430.4,288.8 430.7,289.3 431.0,290.1 431.4,288.1 431.7,288.9 432.0,289.5 432.4,289.0 432.7,289.4 433.0,289.4 433.4,288.9 433.7,289.6 434.1,289.8 434.4,288.7 434.7,288.8 435.1,288.2 435.4,289.1 435.8,290.0 436.1,289.1 436.4,290.4 436.8,288.5 437.1,289.2 437.5,288.8 437.8,287.8 438.1,289.8 438.5,289.4 438.8,289.0 439.1,290.9 439.5,288.5 439.8,290.1 440.2,290.2 440.5,289.3 440.8,290.7 441.2,288.5 441.5,289.2 441.8,288.1 442.2,288.7 442.5,290.5 442.9,288.6 443.2,289.0 443.5,289.3 443.9,287.5 444.2,287.7 444.5,288.4 444.9,289.3 445.2,290.6 445.5,290.7 445.9,290.6 446.2,288.2 446.5,290.6 446.9,289.0 447.2,288.9 447.5,288.6 447.9,291.1 448.2,289.7 448.5,289.1 448.9,290.0 449.2,289.4 449.5,290.6 449.9,289.1 450.2,289.6 450.5,289.3 450.9,290.3 451.2,290.6 451.5,290.6 451.9,290.1 452.2,289.6 452.5,289.1 452.9,289.2 453.2,289.6 453.5,289.5 453.9,290.1 454.2,289.9 454.5,289.1 454.9,287.1 455.2,290.6 455.5,288.6 455.9,289.8 456.2,290.4 456.5,289.2 456.9,291.1 457.2,289.1 457.5,290.3 457.9,290.8 458.2,288.8 458.5,290.5 458.9,289.6 459.2,290.5 459.5,290.4 459.9,290.6 460.2,290.0 460.5,289.3 460.9,288.2 461.2,287.9 461.5,290.9 461.8,288.8 462.2,289.1 462.5,288.7 462.9,291.1 463.2,289.6 463.5,289.8 463.8,290.1 464.2,289.6 464.5,290.2 464.9,289.7 465.2,291.5 465.5,289.4 465.9,289.2 466.2,291.0 466.5,289.6 466.9,289.8 467.2,290.8 467.5,290.1 467.8,292.0 468.2,289.5 468.5,289.6 468.8,288.7 469.2,290.3 469.5,290.2 469.8,290.9 470.2,288.1 470.5,290.9 470.8,290.9 471.2,291.1 471.5,289.3 471.8,289.6 472.2,290.7 472.5,290.5 472.8,289.8 473.2,289.9 473.5,290.8 473.8,288.3 474.2,291.5 474.5,289.4 474.8,290.7 475.2,289.7 475.5,291.3 475.8,291.1 476.2,289.7 476.5,289.2 476.8,289.4 477.2,290.4 477.5,287.9 477.8,290.3 478.1,291.8 478.5,291.3 478.8,290.3 479.1,290.9 479.5,289.8 479.8,291.6 480.1,289.4 480.5,288.7 480.8,290.5 481.1,291.2 481.5,289.0 481.8,288.7 482.1,289.4 482.5,291.2 482.8,289.9 483.1,288.8 483.5,290.8 483.8,292.2 484.1,290.8 484.5,289.5 484.8,289.4 485.1,289.7 485.5,291.6 485.8,290.9 486.1,289.8 486.5,291.2 486.8,291.1 487.1,291.7 487.5,289.7 487.8,291.3 488.1,288.7 488.5,290.6 488.8,290.0 489.1,291.2 489.5,291.5 489.8,289.8 490.1,289.0 490.4,291.4 490.8,291.4 491.1,291.1 491.4,290.1 491.8,288.7 492.1,290.0 492.4,293.0 492.8,291.4 493.1,289.8 493.4,290.5 493.8,291.0 494.1,291.8 494.4,290.8 494.8,290.7 495.1,289.7 495.5,290.8 495.8,291.5 496.1,291.5 496.4,291.2 496.8,291.3 497.1,291.3 497.4,292.8 497.8,291.4 498.1,289.6 498.4,290.5 498.8,291.5 499.1,290.8 499.5,292.2 499.8,289.5 500.1,290.0 500.5,290.8 500.8,291.0 501.1,291.2 501.5,291.2 501.8,290.8 502.1,291.2 502.5,291.3 502.8,289.9 503.1,290.9 503.5,289.7 503.8,290.1 504.1,290.3 504.5,291.3 504.8,291.5 505.1,290.3 505.5,290.8 505.8,291.6 506.1,292.7 506.5,292.0 506.8,292.8 507.1,291.7 507.5,290.1 507.8,292.7 508.1,291.1 508.5,291.4 508.8,290.2 509.1,290.4 509.5,291.1 509.8,291.7 510.1,292.2 510.5,290.6 510.8,292.8 511.1,290.7 511.5,290.9 511.8,292.6 512.1,291.9 512.5,289.5 512.8,290.7 513.2,291.2 513.5,291.5 513.8,291.4 514.2,292.0 514.5,292.2 514.8,290.6 515.2,291.9 515.5,292.0 515.8,291.5 516.2,292.5 516.5,291.4 516.8,291.7 517.2,291.7 517.5,291.4 517.8,291.7 518.2,290.5 518.5,293.0 518.8,293.1 519.2,290.5 519.5,292.7 519.8,291.0 520.2,292.0 520.5,290.8 520.9,292.6 521.2,291.4 521.5,290.6 521.9,290.6 522.2,291.7 522.5,291.0 522.9,291.8 523.2,290.7 523.5,292.0 523.9,291.1 524.2,293.1 524.5,291.8 524.9,292.0 525.2,291.6 525.5,292.2 525.9,291.5 526.2,289.6 526.5,292.1 526.8,293.0 527.2,291.7 527.5,291.4 527.8,292.6 528.2,293.3 528.5,292.2 528.8,292.5 529.2,291.1 529.5,292.3 529.9,292.1 530.2,292.9 530.5,291.0 530.9,291.3 531.2,290.3 531.5,292.2 531.9,291.5 532.2,291.7 532.5,291.4 532.9,291.9 533.2,290.5 533.5,291.7 533.9,292.5 534.2,292.6 534.5,290.2 534.9,291.1 535.2,291.1 535.5,291.4 535.9,291.9 536.2,291.9 536.5,292.5 536.9,291.2 537.2,290.0 537.5,291.8 537.8,291.6 538.2,292.0 538.5,291.4 538.8,292.1 539.2,290.8 539.5,290.2 539.8,289.9 540.2,293.2 540.5,292.8 540.8,291.4 541.2,291.3 541.5,291.7 541.8,291.6 542.1,291.1 542.5,290.7 542.8,293.1 543.1,293.0 543.5,290.7 543.8,293.3 544.1,291.8 544.5,292.2 544.8,291.8 545.1,290.8 545.5,291.4 545.8,292.1 546.1,291.3 546.5,291.9 546.8,291.2 547.1,289.7 547.4,291.2 547.8,291.5 548.1,290.1 548.4,291.1 548.8,292.9 549.1,292.2 549.4,292.8 549.8,292.3 550.1,293.3 550.4,291.7 550.7,291.7 551.1,292.9 551.4,291.9 551.7,291.7 552.1,291.0 552.4,292.0 552.7,294.0 553.1,291.1 553.4,291.1 553.7,291.9 554.1,293.2 554.4,293.1 554.7,290.7 555.1,291.6 555.4,291.9 555.7,293.2 556.1,294.2 556.4,292.1 556.7,292.4 557.1,292.4 557.4,292.3 557.7,290.9 558.0,292.6 558.4,291.7 558.7,291.5 559.0,290.7 559.4,292.7 559.7,292.9 560.0,291.5 560.4,289.4 560.7,292.2 561.0,292.6 561.4,293.1 561.7,291.4 562.0,292.5 562.3,293.4 562.7,292.6 563.0,292.7 563.3,292.5 563.7,291.4 564.0,291.7 564.3,291.7 564.7,289.7 565.0,291.7 565.3,291.7 565.7,292.9 566.0,292.3 566.3,292.7 566.6,291.5 567.0,290.7 567.3,293.5 567.6,293.2 567.9,293.2 568.3,291.9 568.6,293.5 568.9,292.2 569.3,293.6 569.6,292.7 569.9,292.6 570.3,291.9 570.6,293.5 570.9,292.1 571.3,291.5 571.6,293.0 571.9,293.9 572.2,290.4 572.6,290.5 572.9,293.6 573.2,292.9 573.6,293.3 573.9,292.5 574.2,291.4 574.6,291.6 574.9,292.5 575.2,291.7 575.6,293.6 575.9,293.1 576.2,291.2 576.6,291.9 576.9,292.5 577.2,291.4 577.6,292.8 577.9,290.7 578.2,292.5 578.5,292.9 578.9,292.5 579.2,292.0 579.5,292.4 579.9,291.1 580.2,292.0 580.5,291.7 580.9,293.0 581.2,291.4 581.5,293.6 581.9,290.9 582.2,294.0 582.5,291.0 582.9,292.6 583.2,292.2 583.5,292.3 583.9,293.2 584.2,292.4 584.5,293.3 584.8,293.4 585.2,291.3 585.5,292.9 585.8,293.1 586.2,293.0 586.5,291.4 586.8,292.2 587.2,292.7 587.5,292.6 587.8,293.7 588.2,291.8 588.5,294.3 588.8,291.8 589.2,294.1 589.5,292.3 589.8,293.4 590.2,294.5 590.5,294.0 590.8,293.0 591.2,292.0 591.5,291.6 591.8,292.3 592.2,292.9 592.5,292.0 592.8,291.3 593.1,292.7 593.5,293.8 593.8,291.7 594.1,291.0 594.5,293.1 594.8,293.0 595.1,293.0 595.5,292.6 595.8,293.3 596.1,292.4 596.5,293.9 596.8,292.1 597.1,291.3 597.5,292.7 597.8,291.9 598.1,292.8 598.4,292.4 598.8,293.1 599.1,292.3 599.4,292.3 599.8,292.6 600.1,293.0 600.4,293.5 600.8,292.2 601.1,293.3 601.4,294.0 601.8,292.6 602.1,291.8 602.4,294.8 602.7,292.5 603.1,292.3 603.4,293.3 603.7,293.3 604.1,291.6 604.4,291.8 604.7,292.0 605.1,292.0 605.4,292.8 605.7,291.9 606.0,291.0 606.4,294.1 606.7,293.1 607.0,291.3 607.4,292.4 607.7,293.4 608.0,292.4 608.4,293.2 608.7,292.7 609.0,294.4 609.3,292.0 609.7,292.7 610.0,293.5 610.3,292.4 610.7,294.4 611.0,292.3 611.3,293.1 611.7,292.8 612.0,293.4 612.3,292.1 612.6,292.9 613.0,293.8 613.3,294.4 613.6,291.8 614.0,292.2 614.3,292.7 614.6,293.2 615.0,292.7 615.3,294.4 615.6,292.6 615.9,291.3 616.3,294.4 616.6,293.7 616.9,292.7 617.3,293.4 617.6,293.7 617.9,294.0 618.3,294.0 618.6,292.4 618.9,294.4 619.2,292.7 619.6,293.3 619.9,293.5 620.2,293.0 620.6,293.6 620.9,292.3 621.2,292.7 621.6,293.6 621.9,292.2 622.2,291.9 622.5,293.3 622.9,293.7 623.2,292.6 623.5,293.9 623.9,293.9 624.2,292.6 624.5,291.4 624.9,293.6 625.2,293.2 625.5,293.1 625.8,290.6 626.2,293.6 626.5,293.3 626.8,292.2 627.1,292.6 627.5,293.8 627.8,292.6 628.1,292.2 628.5,292.9 628.8,294.3 629.1,292.4 629.4,293.0 629.8,292.9 630.1,294.3 630.4,293.8 630.8,294.0 631.1,293.2 631.4,293.5 631.8,292.4 632.1,292.9 632.4,292.5 632.7,293.7 633.1,293.1 633.4,291.8 633.7,294.0 634.0,293.2 634.4,292.0 634.7,294.1 635.0,294.9 635.4,293.4 635.7,294.8 636.0,292.7 636.3,294.0 636.7,294.5 637.0,292.4 637.3,293.7 637.7,293.5 638.0,294.4 638.3,293.3 638.6,293.3 639.0,292.9 639.3,294.2 639.6,293.5 639.9,292.0 640.3,292.9 640.6,292.0 640.9,291.9 641.3,293.3 641.6,292.5 641.9,293.5 642.2,293.1 642.6,293.9 642.9,292.4 643.2,293.5 643.5,292.1 643.9,292.3 644.2,292.7 644.5,293.7 644.8,292.3 645.2,293.4 645.5,293.3 645.8,294.0 646.2,293.2 646.5,292.3 646.8,294.2 647.1,293.5 647.5,293.5 647.8,292.7 648.1,292.9 648.4,293.2 648.8,291.1 649.1,292.8 649.4,293.1 649.8,293.2 650.1,294.3 650.4,294.5 650.7,293.5 651.1,293.1 651.4,294.0 651.7,292.2 652.0,292.8 652.4,295.0 652.7,294.7 653.0,293.5 653.4,292.3 653.7,293.5 654.0,293.0 654.3,293.2 654.7,291.9 655.0,294.2 655.3,293.4 655.6,293.9 656.0,294.3 656.3,295.2 656.6,292.9 656.9,293.1 657.3,295.3 657.6,294.6 657.9,293.3 658.3,293.3 658.6,293.4 658.9,292.5 659.2,294.2 659.6,293.2 659.9,293.9 660.2,293.0 660.5,295.3 660.9,293.7 661.2,294.2 661.5,295.3 661.9,294.6 662.2,293.0 662.5,292.8 662.8,294.2 663.2,292.6 663.5,292.0 663.8,293.0 664.2,293.1 664.5,292.5 664.8,293.1 665.1,293.6 665.5,293.1 665.8,294.1 666.1,294.4 666.5,292.2 666.8,294.8 667.1,293.8 667.4,292.3 667.8,293.8 668.1,292.7 668.4,293.3 668.8,293.9 669.1,293.9 669.4,292.0 669.7,292.3 670.1,291.3 670.4,294.0 670.7,294.0 671.1,295.0 671.4,294.8 671.7,293.0 672.1,293.6 672.4,293.4 672.7,293.8 673.0,294.8 673.4,294.5 673.7,293.5 674.0,294.5 674.3,293.9 674.7,294.8 675.0,293.8" fill="none" stroke="#16a34a" stroke-width="1.5"/>
<rect x="65" y="20" width="610" height="330" fill="none" stroke="#888" stroke-width="1.5"/>
<line x1="62" y1="308.5" x2="65" y2="308.5" stroke="#64748b" stroke-width="1" opacity="0.6"/>
<line x1="62" y1="260.0" x2="65" y2="260.0" stroke="#64748b" stroke-width="1" opacity="0.6"/>
<line x1="62" y1="199.0" x2="65" y2="199.0" stroke="#64748b" stroke-width="1" opacity="0.6"/>
<line x1="60" y1="116.3" x2="65" y2="116.3" stroke="#64748b" stroke-width="1.5"/>
<text x="57" y="116.3" text-anchor="end" dominant-baseline="middle" font-size="11" font-family="monospace,sans-serif" fill="#64748b">10</text>
<line x1="62" y1="33.5" x2="65" y2="33.5" stroke="#64748b" stroke-width="1" opacity="0.6"/>
<line x1="65.0" y1="350" x2="65.0" y2="355" stroke="#888" stroke-width="1.5"/>
<text x="65.0" y="368" text-anchor="middle" font-size="11" font-family="monospace,sans-serif">0</text>
<line x1="187.0" y1="350" x2="187.0" y2="355" stroke="#888" stroke-width="1.5"/>
<text x="187.0" y="368" text-anchor="middle" font-size="11" font-family="monospace,sans-serif">2</text>
<line x1="309.1" y1="350" x2="309.1" y2="355" stroke="#888" stroke-width="1.5"/>
<text x="309.1" y="368" text-anchor="middle" font-size="11" font-family="monospace,sans-serif">4</text>
<line x1="431.1" y1="350" x2="431.1" y2="355" stroke="#888" stroke-width="1.5"/>
<text x="431.1" y="368" text-anchor="middle" font-size="11" font-family="monospace,sans-serif">6</text>
<line x1="553.1" y1="350" x2="553.1" y2="355" stroke="#888" stroke-width="1.5"/>
<text x="553.1" y="368" text-anchor="middle" font-size="11" font-family="monospace,sans-serif">8</text>
<line x1="675.2" y1="350" x2="675.2" y2="355" stroke="#888" stroke-width="1.5"/>
<text x="675.2" y="368" text-anchor="middle" font-size="11" font-family="monospace,sans-serif">10</text>
<text x="370" y="392" text-anchor="middle" font-size="13" font-family="sans-serif">Runtime (minutes)</text>
<text transform="rotate(-90,28,185)" x="28" y="185" text-anchor="middle" font-size="13" font-family="sans-serif" fill="#64748b">Train loss (log scale)</text>
</svg>