<svg xmlns="http://www.w3.org/2000/svg" viewBox="0 0 760 400" width="760" height="400" style="background:white">
<rect x="65" y="20" width="610" height="330" fill="#f9f9f9"/>
<line x1="65" y1="308.5" x2="675" y2="308.5" stroke="#ececec" stroke-width="1"/>
<line x1="65" y1="260.0" x2="675" y2="260.0" stroke="#ececec" stroke-width="1"/>
<line x1="65" y1="199.0" x2="675" y2="199.0" stroke="#ececec" stroke-width="1"/>
<line x1="65" y1="116.3" x2="675" y2="116.3" stroke="#ddd" stroke-width="1"/>
<line x1="65" y1="33.5" x2="675" y2="33.5" stroke="#ececec" stroke-width="1"/>
<line x1="65.0" y1="20" x2="65.0" y2="350" stroke="#ececec" stroke-width="1"/>
<line x1="187.1" y1="20" x2="187.1" y2="350" stroke="#ececec" stroke-width="1"/>
<line x1="309.3" y1="20" x2="309.3" y2="350" stroke="#ececec" stroke-width="1"/>
<line x1="431.4" y1="20" x2="431.4" y2="350" stroke="#ececec" stroke-width="1"/>
<line x1="553.6" y1="20" x2="553.6" y2="350" stroke="#ececec" stroke-width="1"/>
<line x1="675.7" y1="20" x2="675.7" y2="350" stroke="#ececec" stroke-width="1"/>
<line x1="65" y1="326.8" x2="675" y2="326.8" stroke="#2563eb" stroke-width="0.75" stroke-dasharray="3,3" opacity="0.4"/>
<polyline points="65.0,119.8 65.7,52.7 66.4,85.4 67.2,143.1 67.9,161.7 68.6,155.9 69.3,156.3 70.1,160.5 70.8,165.4 71.5,169.2 72.2,173.0 72.9,174.1 73.7,175.4 74.4,177.2 75.1,179.4 75.9,182.9 76.6,182.6 77.3,184.4 78.1,185.3 78.8,187.9 79.5,183.4 80.3,190.6 81.0,195.3 81.7,195.4 82.5,197.5 83.2,199.1 83.9,201.0 84.7,202.6 85.4,203.9 86.1,205.5 86.9,207.3 87.6,206.5 88.3,208.8 89.1,210.2 89.8,209.9 90.5,211.2 91.3,211.7 92.0,213.6 92.7,213.0 93.5,211.6 94.2,215.0 94.9,216.3 95.7,215.9 96.4,216.4 97.2,218.2 97.9,216.4 98.6,215.7 99.3,216.3 100.1,217.6 100.8,217.9 101.5,220.5 102.3,218.4 103.0,221.0 103.7,216.1 104.5,223.2 105.2,221.9 105.9,224.2 106.7,223.4 107.4,223.2 108.1,225.6 108.9,224.9 109.6,226.2 110.3,225.8 111.1,228.0 111.8,229.5 112.6,228.1 113.3,229.9 114.0,229.6 114.7,229.6 115.5,228.9 116.2,231.5 116.9,228.9 117.7,229.7 118.4,231.5 119.1,231.5 119.9,233.3 120.6,232.0 121.4,234.0 122.1,232.7 122.8,236.1 123.6,235.2 124.3,234.4 125.0,234.6 125.8,233.6 126.5,232.0 127.2,230.8 128.0,235.6 128.7,233.4 129.5,235.9 130.2,236.0 130.9,235.3 131.7,234.7 132.4,232.1 133.1,234.5 133.9,236.5 134.6,236.2 135.3,237.5 136.1,235.4 136.8,239.0 137.5,233.1 138.3,238.7 139.0,238.8 139.8,238.1 140.5,239.0 141.2,240.5 142.0,239.5 142.7,239.8 143.4,241.3 144.2,240.6 144.9,241.0 145.6,236.4 146.4,241.3 147.1,241.1 147.9,242.2 148.6,241.8 149.3,241.0 150.1,244.4 150.8,239.8 151.5,240.6 152.3,242.8 153.0,242.2 153.8,244.3 154.5,242.3 155.2,238.8 156.0,245.0 156.7,243.3 157.4,243.1 158.2,243.9 158.9,244.6 159.7,244.0 160.4,245.5 161.1,244.2 161.9,245.5 162.6,246.0 163.3,241.8 164.1,246.5 164.8,246.6 165.6,245.1 166.3,247.4 167.0,247.2 167.8,246.3 168.5,247.1 169.2,246.4 170.0,244.9 170.7,248.1 171.5,246.2 172.2,248.8 172.9,246.1 173.7,247.4 174.4,245.7 175.1,247.1 175.9,247.5 176.6,245.5 177.3,249.1 178.1,248.2 178.8,248.1 179.6,247.3 180.3,246.2 181.0,247.8 181.8,248.0 182.5,250.2 183.2,247.2 184.0,248.8 184.7,246.6 185.5,243.3 186.2,247.7 186.9,248.8 187.7,249.7 188.4,248.0 189.2,247.2 189.9,246.4 190.6,248.4 191.4,248.0 192.1,249.3 192.8,247.3 193.6,249.0 194.3,249.4 195.0,250.6 195.8,250.2 196.5,248.7 197.3,250.5 198.0,240.0 198.7,248.8 199.5,250.7 200.2,251.8 201.0,246.5 201.7,252.7 202.4,250.3 203.2,252.9 203.9,250.6 204.6,252.3 205.4,250.1 206.1,252.6 206.8,251.4 207.6,251.6 208.3,251.9 209.1,250.9 209.8,252.5 210.5,253.6 211.3,252.8 212.0,251.7 212.8,251.3 213.5,255.2 214.2,254.8 215.0,248.8 215.7,252.1 216.5,254.0 217.2,253.9 217.9,254.9 218.7,258.1 219.4,256.3 220.1,255.7 220.9,255.1 221.6,254.5 222.4,254.8 223.1,255.2 223.8,254.4 224.6,255.3 225.3,257.0 226.0,257.0 226.8,258.2 227.5,257.4 228.3,257.5 229.0,257.2 229.7,259.1 230.5,259.2 231.2,258.0 232.0,260.6 232.7,258.7 233.4,260.1 234.2,259.0 234.9,260.3 235.6,259.9 236.4,261.2 237.1,260.1 237.8,262.0 238.6,262.1 239.3,259.5 240.1,244.4 240.8,260.8 241.5,257.8 242.3,257.5 243.0,260.7 243.7,264.4 244.5,257.7 245.2,257.9 246.0,260.4 246.7,260.1 247.4,259.8 248.2,261.3 248.9,262.3 249.6,260.4 250.4,261.6 251.1,260.3 251.9,259.6 252.6,263.2 253.3,261.6 254.1,260.1 254.8,260.7 255.5,264.0 256.3,263.3 257.0,262.9 257.7,261.4 258.5,264.1 259.2,262.7 259.9,263.8 260.7,261.5 261.4,262.5 262.2,261.4 262.9,259.0 263.6,259.5 264.4,262.0 265.1,264.0 265.8,261.6 266.6,258.9 267.3,262.2 268.1,262.2 268.8,261.9 269.5,261.5 270.3,260.3 271.0,264.5 271.7,264.6 272.5,258.7 273.2,254.7 273.9,255.7 274.7,260.8 275.4,262.0 276.2,263.4 276.9,259.3 277.6,261.9 278.4,263.4 279.1,265.7 279.8,262.5 280.6,260.2 281.3,262.3 282.1,263.6 282.8,262.4 283.5,262.0 284.3,259.0 285.0,263.3 285.7,262.5 286.5,262.8 287.2,263.2 287.9,262.9 288.7,268.3 289.4,263.3 290.2,263.3 290.9,264.3 291.7,265.5 292.4,263.1 293.1,263.1 293.9,262.9 294.6,260.9 295.3,268.0 296.1,266.2 296.8,263.6 297.6,263.3 298.3,266.8 299.0,266.5 299.8,263.4 300.5,264.6 301.3,263.9 302.0,263.0 302.7,266.0 303.5,266.6 304.2,265.9 304.9,266.2 305.7,264.5 306.4,266.9 307.1,266.5 307.9,267.8 308.6,267.3 309.3,266.6 310.1,264.8 310.8,264.8 311.6,265.7 312.3,267.6 313.0,268.6 313.8,268.4 314.5,269.6 315.3,266.7 316.0,266.4 316.7,264.1 317.5,267.2 318.2,268.5 318.9,267.1 319.7,264.7 320.4,267.2 321.2,272.0 321.9,269.2 322.6,267.2 323.4,266.8 324.1,267.8 324.9,268.5 325.6,269.5 326.3,267.1 327.1,268.4 327.8,267.2 328.5,271.3 329.3,266.2 330.0,267.9 330.7,268.3 331.5,268.8 332.2,268.6 332.9,269.2 333.7,272.0 334.4,266.2 335.2,269.5 335.9,265.3 336.6,266.1 337.4,263.6 338.1,267.2 338.9,267.9 339.6,266.1 340.3,267.3 341.1,269.8 341.8,267.3 342.6,265.1 343.3,272.1 344.0,251.6 344.8,262.1 345.5,260.5 346.2,275.1 347.0,264.9 347.7,269.8 348.5,265.1 349.2,266.7 349.9,268.6 350.7,267.2 351.4,265.8 352.1,266.0 352.9,267.9 353.6,267.1 354.3,267.6 355.1,267.2 355.8,267.7 356.6,266.3 357.3,274.1 358.0,268.6 358.8,266.3 359.5,267.1 360.3,267.6 361.0,266.1 361.7,267.6 362.5,268.9 363.2,266.8 363.9,267.7 364.7,268.2 365.4,270.2 366.1,267.5 366.9,270.8 367.6,267.9 368.4,267.0 369.1,265.9 369.8,268.4 370.6,277.4 371.3,269.7 372.0,265.5 372.8,267.6 373.5,265.7 374.3,265.4 375.0,267.5 375.7,266.6 376.4,270.2 377.2,268.7 377.9,269.0 378.7,267.6 379.4,269.5 380.1,273.2 380.9,279.5 381.6,270.0 382.4,269.6 383.1,269.3 383.8,269.6 384.6,272.7 385.3,270.3 386.1,268.3 386.8,272.7 387.5,270.7 388.3,273.3 389.0,268.6 389.7,271.4 390.5,270.0 391.2,270.2 391.9,270.5 392.7,272.7 393.4,268.8 394.2,265.9 394.9,270.9 395.6,273.7 396.4,269.4 397.1,272.0 397.9,272.6 398.6,269.7 399.3,271.8 400.0,273.2 400.8,271.2 401.5,270.1 402.3,273.8 403.0,270.9 403.7,273.0 404.5,274.1 405.2,270.7 405.9,272.4 406.7,271.0 407.4,273.8 408.2,274.0 408.9,270.9 409.6,267.2 410.4,268.8 411.1,269.2 411.9,270.4 412.6,270.7 413.3,270.3 414.1,269.7 414.8,268.3 415.6,268.7 416.3,269.6 417.0,271.5 417.8,269.3 418.5,266.8 419.2,270.3 420.0,269.8 420.7,269.3 421.4,268.6 422.2,269.2 422.9,272.8 423.7,265.8 424.4,272.7 425.1,267.7 425.9,273.7 426.6,271.9 427.4,270.9 428.1,269.3 428.8,270.0 429.6,275.4 430.3,271.9 431.1,270.4 431.8,271.7 432.5,270.3 433.3,270.1 434.0,266.5 434.7,272.1 435.5,268.7 436.2,268.8 436.9,269.5 437.7,271.6 438.4,269.8 439.2,272.0 439.9,272.8 440.6,271.9 441.4,267.8 442.1,270.8 442.8,269.0 443.6,271.6 444.3,266.6 445.0,268.9 445.8,269.4 446.5,271.2 447.2,272.4 448.0,272.6 448.7,266.4 449.5,268.4 450.2,270.6 450.9,268.3 451.7,269.7 452.4,270.5 453.1,271.3 453.9,271.2 454.6,272.2 455.4,271.2 456.1,269.9 456.8,270.5 457.6,269.8 458.3,272.7 459.0,273.1 459.8,275.3 460.5,271.2 461.3,272.5 462.0,272.8 462.7,276.0 463.5,274.0 464.2,273.0 464.9,276.6 465.7,273.5 466.4,272.7 467.2,275.0 467.9,274.3 468.6,273.8 469.4,272.5 470.1,276.1 470.8,275.6 471.6,270.5 472.3,278.0 473.0,276.1 473.8,275.1 474.5,274.1 475.3,275.2 476.0,276.6 476.7,273.6 477.5,275.0 478.2,273.3 479.0,273.1 479.7,272.6 480.4,269.2 481.2,267.8 481.9,272.3 482.6,270.9 483.4,273.4 484.1,271.0 484.8,270.3 485.6,271.5 486.3,271.4 487.0,271.9 487.8,279.3 488.5,274.7 489.3,272.6 490.0,274.4 490.7,273.8 491.5,278.7 492.2,258.4 492.9,271.8 493.7,272.6 494.4,276.6 495.1,272.8 495.9,274.0 496.6,274.3 497.4,273.5 498.1,276.4 498.8,274.5 499.6,272.5 500.3,272.2 501.0,271.4 501.8,271.3 502.5,271.4 503.2,271.4 504.0,271.8 504.7,271.3 505.5,272.1 506.2,272.6 506.9,274.3 507.7,274.1 508.4,273.8 509.1,273.3 509.9,269.4 510.6,270.8 511.3,272.6 512.1,272.9 512.8,275.9 513.5,273.4 514.3,270.3 515.0,272.4 515.8,272.6 516.5,270.9 517.2,272.9 518.0,275.7 518.7,274.1 519.4,272.7 520.2,276.0 520.9,276.4 521.7,272.8 522.4,267.7 523.1,276.9 523.9,275.3 524.6,274.4 525.3,276.0 526.1,278.2 526.8,275.6 527.6,274.6 528.3,277.0 529.0,273.0 529.8,277.3 530.5,281.3 531.2,274.9 532.0,274.8 532.7,277.9 533.5,274.4 534.2,276.6 534.9,275.9 535.7,276.2 536.4,276.5 537.1,274.5 537.9,272.7 538.6,277.3 539.4,275.1 540.1,277.9 540.8,279.8 541.6,275.7 542.3,276.6 543.0,276.6 543.8,275.5 544.5,277.6 545.2,278.1 546.0,274.1 546.7,275.6 547.5,276.7 548.2,270.1 548.9,274.0 549.7,275.2 550.4,272.7 551.1,275.4 551.9,275.6 552.6,275.6 553.4,274.8 554.1,276.2 554.8,271.5 555.6,272.5 556.3,265.9 557.0,274.9 557.8,273.8 558.5,275.8 559.2,276.9 560.0,279.1 560.7,273.6 561.5,276.7 562.2,273.2 562.9,272.3 563.7,271.3 564.4,272.7 565.2,275.1 565.9,275.9 566.6,280.3 567.4,276.8 568.1,274.6 568.8,275.5 569.6,260.9 570.3,276.9 571.0,276.4 571.8,274.0 572.5,274.9 573.3,275.8 574.0,275.8 574.7,276.3 575.5,275.4 576.2,278.3 576.9,271.3 577.7,275.9 578.4,276.4 579.2,279.1 579.9,283.6 580.6,279.9 581.4,277.5 582.1,277.8 582.8,275.4 583.6,276.0 584.3,276.5 585.0,277.2 585.8,276.3 586.5,275.6 587.3,274.3 588.0,279.9 588.7,277.1 589.5,273.7 590.2,270.0 590.9,274.0 591.7,276.9 592.4,278.1 593.1,279.0 593.9,276.1 594.6,273.8 595.4,281.4 596.1,270.3 596.8,278.2 597.6,275.5 598.3,279.5 599.1,276.5 599.8,276.2 600.5,276.6 601.3,275.1 602.0,273.2 602.7,275.3 603.5,277.2 604.2,286.5 605.0,278.8 605.7,274.6 606.4,276.1 607.2,274.3 607.9,272.3 608.6,275.9 609.4,277.5 610.1,275.1 610.9,278.5 611.6,278.1 612.3,276.3 613.1,277.7 613.8,278.4 614.6,278.1 615.3,273.8 616.0,275.3 616.8,276.8 617.5,279.0 618.3,275.3 619.0,287.6 619.7,274.6 620.5,277.9 621.2,274.8 621.9,271.4 622.7,281.9 623.4,274.8 624.2,276.4 624.9,273.2 625.6,276.1 626.4,277.5 627.1,275.6 627.9,274.0 628.6,274.0 629.3,273.0 630.1,275.5 630.8,276.9 631.6,276.2 632.3,278.3 633.0,281.9 633.8,279.1 634.5,278.7 635.2,276.7 636.0,278.3 636.7,278.5 637.4,277.2 638.2,277.3 638.9,275.2 639.6,276.3 640.4,276.4 641.1,277.7 641.8,278.0 642.6,276.2 643.3,279.2 644.1,278.6 644.8,281.1 645.5,280.1 646.3,279.2 647.0,274.3 647.7,280.3 648.5,281.9 649.2,292.1 650.0,280.0 650.7,278.3 651.4,277.4 652.2,278.2 652.9,281.5 653.6,279.4 654.4,279.0 655.1,277.7 655.9,282.5 656.6,278.6 657.3,281.7 658.1,278.3 658.8,278.7 659.5,277.4 660.3,278.6 661.0,278.8 661.8,278.2 662.5,281.6 663.2,276.4 664.0,278.2 664.7,277.5 665.4,282.3 666.2,279.1 666.9,280.0 667.6,282.8 668.4,279.9 669.1,280.2 669.8,277.4 670.6,281.5 671.3,280.2 672.1,280.6 672.8,278.8 673.5,277.9 674.3,276.0 675.0,282.3" fill="none" stroke="#64748b" stroke-width="1.5" stroke-dasharray="5,3"/>
<polyline points="65.0,119.9 66.7,59.2 68.4,98.1 70.0,150.1 71.7,161.7 73.4,152.2 75.1,153.9 76.8,157.2 78.5,162.9 80.2,166.7 81.8,170.6 83.5,172.8 85.2,175.1 86.9,176.9 88.6,178.7 90.3,182.4 92.0,183.8 93.7,186.9 95.4,188.6 97.1,191.7 98.7,188.7 100.4,194.8 102.1,199.3 103.8,199.5 105.5,201.5 107.2,202.5 108.9,204.0 110.6,204.9 112.3,206.1 114.0,207.1 115.7,208.7 117.4,207.9 119.1,210.0 120.8,210.8 122.5,210.5 124.1,211.5 125.8,211.9 127.5,213.3 129.2,212.8 130.9,211.7 132.6,214.9 134.3,216.1 136.0,216.0 137.7,216.0 139.4,217.8 141.1,216.1 142.8,214.5 144.5,216.3 146.2,217.5 147.9,217.4 149.6,220.8 151.3,218.5 153.0,221.4 154.7,216.3 156.4,223.6 158.1,222.2 159.8,224.9 161.5,223.8 163.2,223.6 164.9,225.7 166.6,225.3 168.3,226.5 170.0,226.2 171.7,228.1 173.4,229.8 175.1,228.5 176.8,230.3 178.5,230.0 180.2,229.8 181.9,229.2 183.6,232.4 185.3,228.7 187.0,229.7 188.7,232.0 190.4,232.4 192.1,233.7 193.8,232.2 195.5,234.3 197.2,232.7 198.9,236.1 200.6,234.9 202.3,234.0 204.0,234.5 205.7,233.5 207.4,232.0 209.1,230.9 210.8,235.7 212.5,233.5 214.2,236.1 215.9,236.3 217.6,235.5 219.3,235.0 221.0,232.4 222.7,234.8 224.4,236.7 226.1,236.1 227.8,237.5 229.4,235.4 231.1,238.7 232.8,233.0 234.5,238.5 236.2,238.7 237.9,237.9 239.6,239.1 241.3,240.9 243.0,239.7 244.7,240.1 246.4,241.8 248.1,241.0 249.8,240.9 251.5,236.3 253.2,241.3 254.9,241.4 256.6,242.4 258.3,241.8 260.0,240.8 261.7,244.1 263.4,239.8 265.1,240.1 266.8,242.5 268.5,242.0 270.2,244.3 271.9,241.9 273.6,238.4 275.3,245.0 277.0,243.1 278.7,243.1 280.4,243.8 282.0,244.8 283.7,243.7 285.4,245.7 287.2,244.5 288.9,246.0 290.6,246.0 292.3,242.1 294.0,246.3 295.7,246.4 297.4,245.0 299.1,247.5 300.8,246.8 302.5,246.0 304.2,246.9 305.9,246.2 307.6,244.6 309.3,248.0 311.0,246.2 312.7,248.9 314.4,246.4 316.1,247.4 317.8,245.7 319.5,246.8 321.2,246.9 322.9,245.1 324.5,248.9 326.2,248.1 327.9,248.0 329.6,247.1 331.3,245.6 333.0,247.6 334.7,247.7 336.4,249.9 338.1,246.8 339.8,248.3 341.5,245.9 343.2,243.4 344.9,247.5 346.6,248.5 348.3,249.3 350.0,247.5 351.7,246.5 353.3,245.8 355.1,248.4 356.8,247.4 358.5,248.3 360.2,246.5 361.9,248.4 363.6,248.3 365.3,250.1 366.9,249.4 368.6,248.2 370.3,249.5 372.0,238.9 373.7,247.9 375.4,249.7 377.1,250.9 378.8,245.1 380.5,251.5 382.2,249.2 383.9,251.8 385.6,249.4 387.3,251.1 389.0,248.8 390.7,251.1 392.4,249.8 394.1,250.6 395.8,250.6 397.5,249.2 399.2,250.9 400.9,252.2 402.6,251.9 404.3,250.7 406.0,250.2 407.7,254.1 409.4,253.0 411.1,247.2 412.8,250.8 414.5,252.2 416.2,252.2 417.9,253.3 419.5,256.2 421.2,254.6 422.9,253.9 424.6,253.7 426.3,252.8 428.0,252.6 429.7,253.9 431.4,252.9 433.1,254.3 434.8,255.8 436.5,255.7 438.2,257.0 439.9,256.3 441.6,256.2 443.3,256.0 445.0,257.7 446.7,257.9 448.4,257.1 450.1,259.8 451.8,257.9 453.5,259.4 455.2,258.0 456.9,259.2 458.6,258.9 460.3,260.4 462.0,259.0 463.6,261.2 465.3,261.3 467.0,258.8 468.7,245.0 470.4,259.9 472.1,257.1 473.8,256.8 475.5,260.3 477.2,264.1 478.9,257.1 480.6,257.2 482.3,260.1 484.0,259.6 485.7,259.5 487.4,261.0 489.1,261.9 490.8,260.2 492.5,261.4 494.2,260.1 495.9,259.6 497.6,263.3 499.3,261.5 501.0,259.8 502.7,260.3 504.4,263.6 506.1,263.1 507.8,263.1 509.5,261.3 511.2,264.1 512.9,262.7 514.6,263.9 516.3,261.4 518.0,262.3 519.7,261.4 521.4,258.6 523.1,258.6 524.8,261.9 526.5,263.8 528.2,261.2 529.9,258.6 531.6,262.0 533.3,261.9 534.9,261.9 536.6,261.7 538.3,260.7 540.0,264.5 541.7,264.7 543.4,258.7 545.1,254.5 546.8,255.6 548.5,260.6 550.2,262.1 551.9,263.4 553.6,259.5 555.3,262.4 557.0,263.5 558.7,266.0 560.4,262.6 562.1,260.1 563.8,262.2 565.5,263.8 567.2,262.5 568.9,262.0 570.6,258.6 572.3,263.2 574.0,262.6 575.7,262.7 577.4,263.2 579.1,263.0 580.8,268.9 582.5,263.4 584.2,263.4 585.9,264.4 587.6,265.8 589.3,263.3 591.0,263.2 592.6,263.2 594.3,261.0 596.0,267.8 597.7,266.3 599.4,263.9 601.1,263.9 602.8,267.2 604.5,267.5 606.2,263.9 607.9,264.8 609.6,264.2 611.3,263.3 613.0,266.1 614.7,267.0 616.4,266.2 618.1,266.5 619.8,264.8 621.5,267.3 623.2,266.9 624.9,268.1 626.6,267.5 628.3,266.7 630.0,265.3 631.7,265.1 633.4,266.3 635.1,268.1 636.8,269.0 638.5,268.7 640.2,269.9 641.9,266.9 643.6,266.5 645.3,264.6 647.0,267.8 648.7,268.9 650.4,267.1 652.1,265.1 653.7,267.6 655.4,272.4 657.1,269.9 658.8,267.5 660.5,266.7 662.2,267.9 663.9,268.8 665.6,269.9 667.3,267.5 669.0,268.6 670.7,267.3 672.4,272.0 674.1,266.6" fill="none" stroke="#16a34a" stroke-width="1.5"/>
<polyline points="65.0,327.2 66.7,42.8 68.4,58.2 70.0,289.9 71.7,298.7 73.4,251.7 75.1,244.8 76.8,245.7 78.5,255.0 80.2,259.7 81.8,256.2 83.5,252.5 85.2,250.7 86.9,247.7 88.6,248.1 90.3,255.4 92.0,253.4 93.7,264.1 95.4,261.0 97.1,265.3 98.7,261.9 100.4,273.6 102.1,282.7 103.8,287.3 105.5,279.9 107.2,281.4 108.9,281.5 110.6,280.5 112.3,279.2 114.0,279.7 115.7,283.2 117.4,281.9 119.1,282.6 120.8,282.9 122.5,278.6 124.1,280.5 125.8,283.5 127.5,287.8 129.2,282.1 130.9,279.5 132.6,290.9 134.3,287.2 136.0,288.6 137.7,290.4 139.4,287.0 141.1,280.0 142.8,277.1 144.5,279.9 146.2,283.4 147.9,279.7 149.6,286.6 151.3,284.9 153.0,287.9 154.7,279.0 156.4,289.4 158.1,286.6 159.8,291.4 161.5,288.3 163.2,291.9 164.9,289.7 166.6,287.1 168.3,290.2 170.0,292.7 171.7,292.8 173.4,296.5 175.1,293.8 176.8,298.2 178.5,294.8 180.2,297.6 181.9,292.9 183.6,299.7 185.3,299.2 187.0,293.1 188.7,299.4 190.4,300.0 192.1,300.0 193.8,297.3 195.5,299.4 197.2,296.2 198.9,304.3 200.6,302.8 202.3,298.2 204.0,299.0 205.7,296.5 207.4,293.2 209.1,292.0 210.8,297.2 212.5,296.2 214.2,295.7 215.9,299.5 217.6,295.1 219.3,290.9 221.0,288.4 222.7,293.0 224.4,296.3 226.1,292.3 227.8,294.2 229.4,289.0 231.1,295.3 232.8,283.6 234.5,292.6 236.2,291.1 237.9,288.0 239.6,303.8 241.3,298.3 243.0,293.0 244.7,298.2 246.4,297.5 248.1,294.6 249.8,295.2 251.5,288.3 253.2,294.3 254.9,295.4 256.6,294.4 258.3,292.8 260.0,290.7 261.7,298.8 263.4,295.3 265.1,289.1 266.8,299.3 268.5,295.3 270.2,301.4 271.9,292.7 273.6,299.2 275.3,300.7 277.0,300.8 278.7,293.8 280.4,299.9 282.0,297.6 283.7,299.3 285.4,300.2 287.2,297.8 288.9,295.1 290.6,299.3 292.3,293.4 294.0,301.6 295.7,295.4 297.4,298.4 299.1,298.3 300.8,300.0 302.5,297.6 304.2,297.9 305.9,297.7 307.6,292.2 309.3,298.7 311.0,298.0 312.7,298.1 314.4,292.2 316.1,298.2 317.8,293.3 319.5,298.5 321.2,289.7 322.9,293.3 324.5,298.0 326.2,297.8 327.9,296.9 329.6,296.6 331.3,291.8 333.0,294.2 334.7,297.2 336.4,302.9 338.1,296.1 339.8,299.5 341.5,292.8 343.2,285.1 344.9,304.7 346.6,294.4 348.3,301.2 350.0,295.3 351.7,297.3 353.3,294.0 355.1,298.6 356.8,295.4 358.5,298.1 360.2,295.0 361.9,297.6 363.6,298.4 365.3,297.7 366.9,295.6 368.6,299.1 370.3,290.6 372.0,284.8 373.7,299.9 375.4,301.0 377.1,300.2 378.8,292.0 380.5,291.4 382.2,296.4 383.9,300.4 385.6,296.9 387.3,297.2 389.0,297.2 390.7,298.9 392.4,294.4 394.1,303.4 395.8,294.4 397.5,292.9 399.2,296.7 400.9,299.3 402.6,296.9 404.3,293.3 406.0,294.4 407.7,298.7 409.4,304.0 411.1,294.0 412.8,297.6 414.5,302.1 416.2,301.5 417.9,303.8 419.5,306.8 421.2,306.2 422.9,300.0 424.6,301.7 426.3,298.2 428.0,302.1 429.7,297.2 431.4,300.4 433.1,303.9 434.8,304.1 436.5,307.4 438.2,307.8 439.9,303.4 441.6,308.5 443.3,305.8 445.0,310.9 446.7,307.5 448.4,309.5 450.1,311.9 451.8,309.8 453.5,310.0 455.2,307.7 456.9,310.9 458.6,307.2 460.3,309.7 462.0,307.5 463.6,309.3 465.3,308.1 467.0,304.8 468.7,284.3 470.4,304.7 472.1,300.0 473.8,301.3 475.5,305.5 477.2,312.6 478.9,304.1 480.6,310.0 482.3,310.9 484.0,310.4 485.7,309.9 487.4,306.7 489.1,311.4 490.8,307.1 492.5,323.6 494.2,305.6 495.9,306.8 497.6,311.5 499.3,310.5 501.0,310.5 502.7,311.1 504.4,315.8 506.1,313.8 507.8,311.8 509.5,312.8 511.2,315.6 512.9,309.2 514.6,316.8 516.3,312.8 518.0,308.5 519.7,309.7 521.4,305.0 523.1,302.3 524.8,309.1 526.5,309.2 528.2,305.6 529.9,300.3 531.6,309.2 533.3,308.3 534.9,307.7 536.6,307.4 538.3,306.3 540.0,309.0 541.7,311.7 543.4,302.8 545.1,293.9 546.8,298.4 548.5,311.2 550.2,311.3 551.9,310.2 553.6,304.9 555.3,313.2 557.0,311.9 558.7,313.3 560.4,308.5 562.1,307.8 563.8,313.9 565.5,311.0 567.2,306.3 568.9,309.1 570.6,301.8 572.3,311.2 574.0,308.8 575.7,308.4 577.4,312.0 579.1,305.5 580.8,313.0 582.5,308.9 584.2,309.2 585.9,310.9 587.6,312.3 589.3,311.3 591.0,312.0 592.6,306.3 594.3,307.9 596.0,322.0 597.7,313.4 599.4,309.9 601.1,311.3 602.8,315.8 604.5,306.3 606.2,310.9 607.9,316.4 609.6,309.9 611.3,306.6 613.0,311.5 614.7,313.3 616.4,313.5 618.1,314.0 619.8,313.2 621.5,318.6 623.2,313.4 624.9,320.0 626.6,314.3 628.3,316.9 630.0,313.4 631.7,311.4 633.4,308.0 635.1,314.9 636.8,314.5 638.5,316.6 640.2,318.3 641.9,312.2 643.6,310.3 645.3,305.8 647.0,317.7 648.7,307.0 650.4,310.9 652.1,309.4 653.7,311.3 655.4,317.3 657.1,312.6 658.8,312.0 660.5,311.0 662.2,310.4 663.9,314.6 665.6,311.9 667.3,308.3 669.0,311.6 670.7,308.6 672.4,316.9 674.1,313.7" fill="none" stroke="#2563eb" stroke-width="2.5"/>
<rect x="65" y="20" width="610" height="330" fill="none" stroke="#888" stroke-width="1.5"/>
<line x1="62" y1="308.5" x2="65" y2="308.5" stroke="#64748b" stroke-width="1" opacity="0.6"/>
<line x1="62" y1="260.0" x2="65" y2="260.0" stroke="#64748b" stroke-width="1" opacity="0.6"/>
<line x1="62" y1="199.0" x2="65" y2="199.0" stroke="#64748b" stroke-width="1" opacity="0.6"/>
<line x1="60" y1="116.3" x2="65" y2="116.3" stroke="#64748b" stroke-width="1.5"/>
<text x="57" y="116.3" text-anchor="end" dominant-baseline="middle" font-size="11" font-family="monospace,sans-serif" fill="#64748b">10</text>
<line x1="62" y1="33.5" x2="65" y2="33.5" stroke="#64748b" stroke-width="1" opacity="0.6"/>
<line x1="675" y1="326.8" x2="680" y2="326.8" stroke="#2563eb" stroke-width="1.5"/>
<text x="683" y="326.8" text-anchor="start" dominant-baseline="middle" font-size="11" font-family="monospace,sans-serif" fill="#2563eb">0.0</text>
<line x1="675" y1="209.4" x2="680" y2="209.4" stroke="#2563eb" stroke-width="1.5"/>
<text x="683" y="209.4" text-anchor="start" dominant-baseline="middle" font-size="11" font-family="monospace,sans-serif" fill="#2563eb">2.0</text>
<line x1="675" y1="92.0" x2="680" y2="92.0" stroke="#2563eb" stroke-width="1.5"/>
<text x="683" y="92.0" text-anchor="start" dominant-baseline="middle" font-size="11" font-family="monospace,sans-serif" fill="#2563eb">4.0</text>
<line x1="65.0" y1="350" x2="65.0" y2="355" stroke="#888" stroke-width="1.5"/>
<text x="65.0" y="368" text-anchor="middle" font-size="11" font-family="monospace,sans-serif">0</text>
<line x1="187.1" y1="350" x2="187.1" y2="355" stroke="#888" stroke-width="1.5"/>
<text x="187.1" y="368" text-anchor="middle" font-size="11" font-family="monospace,sans-serif">2</text>
<line x1="309.3" y1="350" x2="309.3" y2="355" stroke="#888" stroke-width="1.5"/>
<text x="309.3" y="368" text-anchor="middle" font-size="11" font-family="monospace,sans-serif">4</text>
<line x1="431.4" y1="350" x2="431.4" y2="355" stroke="#888" stroke-width="1.5"/>
<text x="431.4" y="368" text-anchor="middle" font-size="11" font-family="monospace,sans-serif">6</text>
<line x1="553.6" y1="350" x2="553.6" y2="355" stroke="#888" stroke-width="1.5"/>
<text x="553.6" y="368" text-anchor="middle" font-size="11" font-family="monospace,sans-serif">8</text>
<line x1="675.7" y1="350" x2="675.7" y2="355" stroke="#888" stroke-width="1.5"/>
<text x="675.7" y="368" text-anchor="middle" font-size="11" font-family="monospace,sans-serif">10</text>
<text x="370" y="392" text-anchor="middle" font-size="13" font-family="sans-serif">Runtime (minutes)</text>
<text transform="rotate(-90,28,185)" x="28" y="185" text-anchor="middle" font-size="13" font-family="sans-serif" fill="#64748b">Train loss (log scale)</text>
<text transform="rotate(90,746,185)" x="746" y="185" text-anchor="middle" font-size="13" font-family="sans-serif" fill="#2563eb">Train loss diff (exp − base)</text>
<rect x="72" y="26" width="140" height="62" fill="white" fill-opacity="0.85" stroke="#ddd" stroke-width="1" rx="3"/>
<line x1="77" y1="37" x2="99" y2="37" stroke="#64748b" stroke-width="1.5" stroke-dasharray="5,3"/>
<text x="104" y="41" font-size="11" font-family="sans-serif" fill="#64748b">Baseline train loss</text>
<line x1="77" y1="55" x2="99" y2="55" stroke="#16a34a" stroke-width="1.5"/>
<text x="104" y="59" font-size="11" font-family="sans-serif" fill="#16a34a">Experiment train loss</text>
<line x1="77" y1="73" x2="99" y2="73" stroke="#2563eb" stroke-width="2.5"/>
<text x="104" y="77" font-size="11" font-family="sans-serif" fill="#2563eb">Train loss diff</text>
</svg>