<svg xmlns="http://www.w3.org/2000/svg" viewBox="0 0 760 400" width="760" height="400" style="background:white">
<rect x="65" y="20" width="625" height="330" fill="#f9f9f9"/>
<line x1="65" y1="308.5" x2="690" y2="308.5" stroke="#ececec" stroke-width="1"/>
<line x1="65" y1="260.0" x2="690" y2="260.0" stroke="#ececec" stroke-width="1"/>
<line x1="65" y1="199.0" x2="690" y2="199.0" stroke="#ececec" stroke-width="1"/>
<line x1="65" y1="116.3" x2="690" y2="116.3" stroke="#ddd" stroke-width="1"/>
<line x1="65" y1="33.5" x2="690" y2="33.5" stroke="#ececec" stroke-width="1"/>
<line x1="65.0" y1="20" x2="65.0" y2="350" stroke="#ececec" stroke-width="1"/>
<line x1="190.2" y1="20" x2="190.2" y2="350" stroke="#ececec" stroke-width="1"/>
<line x1="315.5" y1="20" x2="315.5" y2="350" stroke="#ececec" stroke-width="1"/>
<line x1="440.7" y1="20" x2="440.7" y2="350" stroke="#ececec" stroke-width="1"/>
<line x1="565.9" y1="20" x2="565.9" y2="350" stroke="#ececec" stroke-width="1"/>
<line x1="691.1" y1="20" x2="691.1" y2="350" stroke="#ececec" stroke-width="1"/>
<polyline points="65.0,119.3 66.0,52.6 67.0,88.1 68.1,145.2 69.1,159.4 70.1,152.4 71.1,153.6 72.2,160.4 73.2,166.0 74.2,169.0 75.2,171.5 76.3,173.6 77.3,176.5 78.3,178.5 79.3,180.3 80.4,182.3 81.4,183.4 82.4,185.5 83.5,187.1 84.5,189.2 85.5,191.3 86.5,193.3 87.6,195.6 88.6,197.4 89.6,199.6 90.7,202.3 91.7,203.4 92.7,204.6 93.8,206.1 94.8,207.6 95.8,209.0 96.8,210.3 97.9,211.2 98.9,211.9 99.9,212.7 101.0,213.6 102.0,214.3 103.0,214.8 104.0,215.6 105.1,216.8 106.1,217.2 107.1,218.3 108.2,218.2 109.2,218.6 110.2,220.2 111.2,220.2 112.3,221.3 113.3,222.2 114.3,223.6 115.3,224.1 116.4,225.0 117.4,225.4 118.4,227.1 119.5,227.5 120.5,228.3 121.5,228.4 122.5,229.5 123.6,230.2 124.6,231.4 125.6,232.2 126.6,232.7 127.7,232.7 128.7,234.5 129.7,233.9 130.8,235.1 131.8,235.3 132.8,236.7 133.8,236.9 134.9,237.3 135.9,238.7 136.9,237.9 137.9,239.0 139.0,238.5 140.0,239.8 141.0,239.4 142.0,239.8 143.1,241.0 144.1,242.5 145.1,242.0 146.2,242.5 147.2,242.3 148.2,242.7 149.2,243.5 150.3,243.0 151.3,243.4 152.3,242.7 153.3,244.4 154.4,244.6 155.4,244.9 156.4,245.8 157.4,245.0 158.5,244.8 159.5,246.0 160.5,246.2 161.5,247.2 162.6,246.0 163.6,248.4 164.6,247.2 165.7,246.5 166.7,248.1 167.7,248.4 168.7,247.9 169.8,247.8 170.8,249.0 171.8,249.4 172.8,249.1 173.9,250.2 174.9,250.0 175.9,250.7 176.9,251.0 178.0,251.1 179.0,250.8 180.0,252.7 181.0,251.1 182.1,252.0 183.1,251.9 184.1,251.7 185.1,251.9 186.2,253.4 187.2,252.5 188.2,253.2 189.2,253.7 190.3,253.7 191.3,254.8 192.3,252.5 193.3,253.7 194.4,255.4 195.4,255.9 196.4,253.9 197.4,254.1 198.5,255.0 199.5,255.5 200.5,255.2 201.5,255.3 202.6,255.5 203.6,255.3 204.6,256.8 205.6,256.4 206.7,257.0 207.7,257.1 208.7,257.6 209.7,257.1 210.8,259.4 211.8,258.1 212.8,258.9 213.8,258.3 214.9,258.8 215.9,260.2 216.9,257.8 217.9,260.6 219.0,258.3 220.0,260.4 221.0,259.5 222.1,260.2 223.1,260.5 224.1,259.4 225.1,260.6 226.2,260.8 227.2,259.8 228.2,260.4 229.2,260.7 230.3,261.4 231.3,262.3 232.3,261.9 233.4,261.4 234.4,262.8 235.5,261.4 236.5,262.8 237.6,261.9 238.6,262.2 239.7,262.4 240.7,262.1 241.8,263.7 242.8,263.2 243.9,263.1 244.9,263.6 246.0,262.1 247.0,264.4 248.1,263.4 249.1,264.5 250.2,262.8 251.3,263.7 252.3,263.8 253.3,263.9 254.4,264.6 255.4,265.2 256.5,264.5 257.5,264.4 258.6,264.6 259.6,264.4 260.6,265.2 261.6,266.1 262.7,265.1 263.7,266.6 264.7,266.0 265.7,265.9 266.8,266.3 267.8,265.4 268.8,265.4 269.8,267.0 270.9,266.7 271.9,266.4 272.9,265.6 273.9,265.6 275.0,267.0 276.0,266.6 277.0,267.9 278.0,266.6 279.1,266.8 280.1,267.6 281.1,266.9 282.1,267.9 283.2,268.2 284.2,268.8 285.2,267.9 286.2,268.1 287.3,268.3 288.3,268.0 289.3,267.9 290.3,268.9 291.4,268.0 292.4,268.4 293.4,268.3 294.4,269.6 295.5,269.2 296.5,268.9 297.5,268.8 298.5,269.0 299.6,269.4 300.6,269.7 301.6,269.0 302.6,268.4 303.7,269.7 304.7,269.1 305.7,269.0 306.7,270.8 307.8,269.7 308.8,270.1 309.8,269.6 310.9,271.0 311.9,268.7 312.9,270.7 313.9,271.4 315.0,271.1 316.0,270.1 317.0,270.2 318.0,270.6 319.1,270.4 320.1,269.6 321.1,270.4 322.1,270.2 323.2,270.4 324.2,271.3 325.2,271.0 326.3,271.3 327.3,270.5 328.3,271.6 329.3,269.9 330.4,272.1 331.4,271.8 332.4,271.1 333.4,272.6 334.5,271.2 335.5,271.9 336.5,271.5 337.5,272.5 338.6,273.0 339.6,271.6 340.6,270.9 341.6,272.5 342.7,272.3 343.7,272.9 344.7,272.3 345.7,272.4 346.8,272.4 347.8,272.4 348.8,271.9 349.8,272.9 350.9,272.1 351.9,273.4 352.9,273.9 353.9,274.3 355.0,272.3 356.0,273.5 357.0,273.0 358.0,273.4 359.1,272.5 360.1,273.7 361.1,275.2 362.1,274.3 363.1,274.1 364.2,273.1 365.2,274.2 366.2,273.7 367.2,275.2 368.3,274.0 369.3,275.5 370.3,273.7 371.3,275.0 372.4,274.7 373.4,272.3 374.4,273.6 375.4,274.0 376.5,273.9 377.5,272.7 378.5,275.1 379.5,274.7 380.6,275.4 381.6,275.1 382.6,274.6 383.6,276.1 384.7,275.4 385.7,274.5 386.7,275.2 387.7,274.2 388.8,275.3 389.8,274.3 390.8,275.8 391.8,273.8 392.9,276.9 393.9,275.3 394.9,275.6 395.9,273.9 397.0,276.6 398.0,274.6 399.0,275.8 400.0,274.9 401.1,274.7 402.1,275.5 403.1,275.5 404.1,276.7 405.2,275.0 406.2,277.6 407.2,276.2 408.2,275.0 409.3,276.1 410.3,276.4 411.3,276.6 412.3,275.7 413.4,275.6 414.4,275.5 415.4,276.3 416.4,275.6 417.4,277.2 418.5,276.6 419.5,277.2 420.5,276.2 421.6,277.0 422.6,275.3 423.6,276.5 424.6,276.8 425.7,276.2 426.7,276.3 427.7,277.9 428.7,276.8 429.8,277.1 430.8,276.6 431.8,278.6 432.8,276.6 433.9,278.2 434.9,277.0 435.9,276.4 436.9,277.5 438.0,277.5 439.0,277.5 440.0,277.1 441.0,277.7 442.1,278.8 443.1,277.6 444.1,277.9 445.1,277.6 446.2,276.0 447.2,276.5 448.2,276.2 449.2,277.3 450.3,278.6 451.3,278.3 452.3,278.4 453.3,277.9 454.3,277.2 455.4,278.3 456.4,277.7 457.4,278.1 458.4,278.0 459.5,277.9 460.5,279.0 461.5,277.7 462.5,279.7 463.6,278.2 464.6,277.4 465.6,276.8 466.6,278.6 467.7,279.5 468.7,277.8 469.7,279.0 470.7,280.3 471.8,278.7 472.8,279.0 473.8,278.3 474.8,277.7 475.9,277.3 476.9,279.6 477.9,278.7 478.9,278.8 480.0,278.5 481.0,280.5 482.0,279.7 483.0,280.0 484.1,280.8 485.1,278.3 486.1,278.9 487.1,277.8 488.2,279.6 489.2,278.8 490.2,278.4 491.2,279.7 492.3,277.9 493.3,280.5 494.3,277.7 495.3,280.1 496.4,280.6 497.4,279.3 498.4,280.8 499.4,279.4 500.5,279.0 501.5,280.8 502.5,280.2 503.5,278.5 504.5,279.3 505.6,280.7 506.6,279.1 507.6,279.8 508.6,280.6 509.7,278.6 510.7,280.7 511.7,279.5 512.7,281.9 513.8,279.7 514.8,280.8 515.8,279.5 516.8,281.1 517.9,280.7 518.9,280.8 519.9,279.7 520.9,280.3 522.0,280.8 523.0,280.6 524.0,280.2 525.0,280.2 526.1,281.3 527.1,281.3 528.1,280.7 529.1,281.4 530.2,281.1 531.2,280.0 532.2,279.8 533.2,279.8 534.2,281.5 535.3,281.1 536.3,282.1 537.3,281.0 538.3,280.7 539.4,280.7 540.4,280.8 541.4,281.5 542.4,280.3 543.5,281.0 544.5,280.1 545.5,280.8 546.5,280.3 547.6,282.4 548.6,281.3 549.6,282.0 550.6,281.2 551.7,281.1 552.7,281.8 553.7,281.9 554.7,281.7 555.8,281.3 556.8,280.6 557.8,279.8 558.8,282.7 559.8,283.1 560.9,280.1 561.9,280.5 562.9,281.1 563.9,279.7 565.0,281.7 566.0,281.1 567.0,280.1 568.0,281.3 569.1,280.4 570.1,282.8 571.1,281.7 572.1,280.3 573.2,282.1 574.2,282.5 575.2,281.9 576.2,282.5 577.3,281.4 578.3,282.3 579.3,281.1 580.3,281.7 581.4,281.4 582.4,282.2 583.4,282.9 584.4,281.8 585.5,283.2 586.5,283.5 587.5,282.4 588.6,282.7 589.6,281.2 590.6,282.6 591.6,282.6 592.6,281.4 593.7,281.5 594.7,282.7 595.7,282.1 596.7,283.8 597.8,282.1 598.8,282.6 599.8,282.9 600.8,282.9 601.9,282.8 602.9,283.4 603.9,285.0 604.9,282.7 606.0,282.1 607.0,282.2 608.0,281.0 609.0,282.4 610.1,283.9 611.1,282.4 612.1,282.5 613.1,283.0 614.2,284.3 615.2,283.3 616.2,283.8 617.2,283.0 618.3,283.0 619.3,283.4 620.3,284.2 621.3,282.2 622.4,284.0 623.4,282.4 624.4,284.0 625.4,284.7 626.4,283.7 627.5,283.0 628.5,284.4 629.5,282.4 630.5,283.5 631.6,283.6 632.6,284.3 633.6,282.9 634.6,283.4 635.7,282.8 636.7,284.0 637.7,283.7 638.7,283.9 639.8,283.5 640.8,282.8 641.8,284.3 642.8,283.1 643.9,283.9 644.9,283.8 645.9,284.3 646.9,282.9 648.0,284.9 649.0,283.4 650.0,284.5 651.0,283.7 652.1,284.1 653.1,283.4 654.1,283.4 655.1,282.2 656.2,285.4 657.2,285.3 658.2,284.0 659.2,284.0 660.3,284.5 661.3,284.6 662.3,283.3 663.3,282.5 664.4,283.8 665.4,283.4 666.4,284.7 667.4,283.7 668.5,283.3 669.5,284.4 670.5,285.8 671.6,284.3 672.6,284.7 673.6,284.0 674.6,282.8 675.7,284.1 676.7,285.4 677.7,284.3 678.7,283.3 679.7,285.6 680.8,284.0 681.8,284.9 682.8,283.9 683.9,286.7 684.9,284.1 685.9,285.1 686.9,285.8 688.0,284.9 689.0,285.2 690.0,285.0" fill="none" stroke="#94a3b8" stroke-width="1.5"/>
<rect x="65" y="20" width="625" height="330" fill="none" stroke="#888" stroke-width="1.5"/>
<line x1="62" y1="308.5" x2="65" y2="308.5" stroke="#94a3b8" stroke-width="1" opacity="0.6"/>
<line x1="62" y1="260.0" x2="65" y2="260.0" stroke="#94a3b8" stroke-width="1" opacity="0.6"/>
<line x1="62" y1="199.0" x2="65" y2="199.0" stroke="#94a3b8" stroke-width="1" opacity="0.6"/>
<line x1="60" y1="116.3" x2="65" y2="116.3" stroke="#94a3b8" stroke-width="1.5"/>
<text x="57" y="116.3" text-anchor="end" dominant-baseline="middle" font-size="11" font-family="monospace,sans-serif" fill="#94a3b8">10</text>
<line x1="62" y1="33.5" x2="65" y2="33.5" stroke="#94a3b8" stroke-width="1" opacity="0.6"/>
<line x1="65.0" y1="350" x2="65.0" y2="355" stroke="#888" stroke-width="1.5"/>
<text x="65.0" y="368" text-anchor="middle" font-size="11" font-family="monospace,sans-serif">0</text>
<line x1="190.2" y1="350" x2="190.2" y2="355" stroke="#888" stroke-width="1.5"/>
<text x="190.2" y="368" text-anchor="middle" font-size="11" font-family="monospace,sans-serif">2</text>
<line x1="315.5" y1="350" x2="315.5" y2="355" stroke="#888" stroke-width="1.5"/>
<text x="315.5" y="368" text-anchor="middle" font-size="11" font-family="monospace,sans-serif">4</text>
<line x1="440.7" y1="350" x2="440.7" y2="355" stroke="#888" stroke-width="1.5"/>
<text x="440.7" y="368" text-anchor="middle" font-size="11" font-family="monospace,sans-serif">6</text>
<line x1="565.9" y1="350" x2="565.9" y2="355" stroke="#888" stroke-width="1.5"/>
<text x="565.9" y="368" text-anchor="middle" font-size="11" font-family="monospace,sans-serif">8</text>
<line x1="691.1" y1="350" x2="691.1" y2="355" stroke="#888" stroke-width="1.5"/>
<text x="691.1" y="368" text-anchor="middle" font-size="11" font-family="monospace,sans-serif">10</text>
<text x="377" y="392" text-anchor="middle" font-size="13" font-family="sans-serif">Runtime (minutes)</text>
<text transform="rotate(-90,16,185)" x="16" y="185" text-anchor="middle" font-size="13" font-family="sans-serif" fill="#94a3b8">Train loss (log scale)</text>
</svg>