<svg xmlns="http://www.w3.org/2000/svg" viewBox="0 0 760 400" width="760" height="400" style="background:white">
<rect x="65" y="20" width="610" height="330" fill="#f9f9f9"/>
<line x1="65" y1="308.5" x2="675" y2="308.5" stroke="#ececec" stroke-width="1"/>
<line x1="65" y1="260.0" x2="675" y2="260.0" stroke="#ececec" stroke-width="1"/>
<line x1="65" y1="199.0" x2="675" y2="199.0" stroke="#ececec" stroke-width="1"/>
<line x1="65" y1="116.3" x2="675" y2="116.3" stroke="#ddd" stroke-width="1"/>
<line x1="65" y1="33.5" x2="675" y2="33.5" stroke="#ececec" stroke-width="1"/>
<line x1="65.0" y1="20" x2="65.0" y2="350" stroke="#ececec" stroke-width="1"/>
<line x1="187.2" y1="20" x2="187.2" y2="350" stroke="#ececec" stroke-width="1"/>
<line x1="309.4" y1="20" x2="309.4" y2="350" stroke="#ececec" stroke-width="1"/>
<line x1="431.7" y1="20" x2="431.7" y2="350" stroke="#ececec" stroke-width="1"/>
<line x1="553.9" y1="20" x2="553.9" y2="350" stroke="#ececec" stroke-width="1"/>
<line x1="676.1" y1="20" x2="676.1" y2="350" stroke="#ececec" stroke-width="1"/>
<polyline points="65.0,119.3 66.0,52.6 67.0,88.1 68.0,145.2 69.0,159.4 70.0,152.4 71.0,153.6 72.0,160.4 73.0,166.0 74.0,169.0 75.0,171.5 76.0,173.6 77.0,176.5 78.0,178.5 79.0,180.3 80.0,182.3 81.0,183.4 82.0,185.5 83.0,187.1 84.0,189.2 85.0,191.3 86.0,193.3 87.0,195.6 88.0,197.4 89.1,199.6 90.1,202.3 91.1,203.4 92.1,204.6 93.1,206.1 94.1,207.6 95.1,209.0 96.1,210.3 97.1,211.2 98.1,211.9 99.1,212.7 100.1,213.6 101.1,214.3 102.1,214.8 103.1,215.6 104.1,216.8 105.1,217.2 106.1,218.3 107.1,218.2 108.1,218.6 109.1,220.2 110.1,220.2 111.1,221.3 112.1,222.2 113.1,223.6 114.1,224.1 115.1,225.0 116.1,225.4 117.1,227.1 118.1,227.5 119.1,228.3 120.1,228.4 121.2,229.5 122.2,230.2 123.2,231.4 124.2,232.2 125.2,232.7 126.2,232.7 127.2,234.5 128.2,233.9 129.2,235.1 130.2,235.3 131.2,236.7 132.2,236.9 133.2,237.3 134.2,238.7 135.2,237.9 136.2,239.0 137.2,238.5 138.2,239.8 139.2,239.4 140.2,239.8 141.2,241.0 142.2,242.5 143.2,242.0 144.2,242.5 145.2,242.3 146.2,242.7 147.2,243.5 148.2,243.0 149.2,243.4 150.2,242.7 151.2,244.4 152.2,244.6 153.2,244.9 154.2,245.8 155.2,245.0 156.2,244.8 157.2,246.0 158.2,246.2 159.2,247.2 160.2,246.0 161.2,248.4 162.2,247.2 163.2,246.5 164.2,248.1 165.2,248.4 166.2,247.9 167.2,247.8 168.2,249.0 169.2,249.4 170.2,249.1 171.2,250.2 172.2,250.0 173.2,250.7 174.3,251.0 175.3,251.1 176.3,250.8 177.3,252.7 178.3,251.1 179.3,252.0 180.3,251.9 181.3,251.7 182.3,251.9 183.3,253.4 184.3,252.5 185.3,253.2 186.3,253.7 187.3,253.7 188.3,254.8 189.3,252.5 190.3,253.7 191.3,255.4 192.3,255.9 193.3,253.9 194.3,254.1 195.3,255.0 196.3,255.5 197.3,255.2 198.3,255.3 199.3,255.5 200.3,255.3 201.3,256.8 202.3,256.4 203.3,257.0 204.3,257.1 205.3,257.6 206.3,257.1 207.3,259.4 208.3,258.1 209.3,258.9 210.3,258.3 211.3,258.8 212.3,260.2 213.3,257.8 214.3,260.6 215.3,258.3 216.3,260.4 217.3,259.5 218.3,260.2 219.3,260.5 220.3,259.4 221.3,260.6 222.3,260.8 223.3,259.8 224.3,260.4 225.3,260.7 226.3,261.4 227.3,262.3 228.3,261.9 229.3,261.4 230.3,262.8 231.4,261.4 232.4,262.8 233.4,261.9 234.5,262.2 235.5,262.4 236.5,262.1 237.5,263.7 238.5,263.2 239.6,263.1 240.6,263.6 241.6,262.1 242.7,264.4 243.7,263.4 244.7,264.5 245.7,262.8 246.8,263.7 247.8,263.8 248.8,263.9 249.8,264.6 250.8,265.2 251.9,264.5 252.9,264.4 253.9,264.6 254.9,264.4 255.9,265.2 256.9,266.1 257.9,265.1 258.9,266.6 259.9,266.0 260.9,265.9 261.9,266.3 262.9,265.4 263.9,265.4 264.9,267.0 265.9,266.7 266.9,266.4 267.9,265.6 268.9,265.6 269.9,267.0 270.9,266.6 271.9,267.9 272.9,266.6 273.9,266.8 274.9,267.6 275.9,266.9 276.9,267.9 277.9,268.2 278.9,268.8 279.9,267.9 280.9,268.1 281.9,268.3 282.9,268.0 283.9,267.9 284.9,268.9 285.9,268.0 286.9,268.4 287.9,268.3 288.9,269.6 289.9,269.2 290.9,268.9 291.9,268.8 292.9,269.0 293.9,269.4 294.9,269.7 295.9,269.0 296.9,268.4 297.9,269.7 298.9,269.1 299.9,269.0 300.9,270.8 301.9,269.7 303.0,270.1 304.0,269.6 305.0,271.0 306.0,268.7 307.0,270.7 308.0,271.4 309.0,271.1 310.0,270.1 311.0,270.2 312.0,270.6 313.0,270.4 314.0,269.6 315.0,270.4 316.0,270.2 317.0,270.4 318.0,271.3 319.0,271.0 320.0,271.3 321.0,270.5 322.0,271.6 323.0,269.9 324.0,272.1 325.0,271.8 326.0,271.1 327.0,272.6 328.0,271.2 329.0,271.9 330.0,271.5 331.0,272.5 332.0,273.0 333.0,271.6 334.0,270.9 335.0,272.5 336.0,272.3 337.0,272.9 338.0,272.3 339.0,272.4 340.0,272.4 341.0,272.4 342.0,271.9 343.0,272.9 344.0,272.1 345.0,273.4 346.0,273.9 347.0,274.3 348.0,272.3 349.0,273.5 350.0,273.0 351.0,273.4 352.0,272.5 353.0,273.7 354.0,275.2 355.0,274.3 356.0,274.1 357.0,273.1 358.0,274.2 359.0,273.7 360.0,275.2 361.0,274.0 362.0,275.5 363.0,273.7 364.0,275.0 365.0,274.7 366.0,272.3 367.0,273.6 368.0,274.0 369.0,273.9 370.0,272.7 371.0,275.1 372.0,274.7 373.0,275.4 374.0,275.1 375.0,274.6 376.0,276.1 377.0,275.4 378.0,274.5 379.0,275.2 380.0,274.2 381.0,275.3 382.0,274.3 383.0,275.8 384.0,273.8 385.0,276.9 386.0,275.3 387.0,275.6 388.0,273.9 389.0,276.6 390.0,274.6 391.0,275.8 392.0,274.9 393.0,274.7 394.0,275.5 395.0,275.5 396.0,276.7 397.0,275.0 398.0,277.6 399.0,276.2 400.0,275.0 401.0,276.1 402.0,276.4 403.0,276.6 404.0,275.7 405.0,275.6 406.0,275.5 407.0,276.3 408.0,275.6 409.0,277.2 410.0,276.6 411.0,277.2 412.0,276.2 413.0,277.0 414.0,275.3 415.0,276.5 416.0,276.8 417.0,276.2 418.0,276.3 419.0,277.9 420.0,276.8 421.0,277.1 422.0,276.6 423.0,278.6 424.0,276.6 425.0,278.2 426.0,277.0 427.0,276.4 428.0,277.5 429.0,277.5 430.0,277.5 431.0,277.1 432.0,277.7 433.0,278.8 434.0,277.6 435.0,277.9 436.0,277.6 437.0,276.0 438.0,276.5 439.0,276.2 440.0,277.3 441.0,278.6 442.0,278.3 443.0,278.4 444.0,277.9 445.0,277.2 446.0,278.3 447.0,277.7 448.0,278.1 449.0,278.0 450.0,277.9 451.0,279.0 452.0,277.7 453.0,279.7 454.0,278.2 455.0,277.4 456.0,276.8 457.0,278.6 458.0,279.5 459.0,277.8 460.0,279.0 461.0,280.3 462.0,278.7 463.0,279.0 464.0,278.3 465.0,277.7 466.0,277.3 467.0,279.6 468.0,278.7 469.0,278.8 470.0,278.5 471.0,280.5 472.0,279.7 473.0,280.0 474.0,280.8 475.0,278.3 476.0,278.9 477.0,277.8 478.0,279.6 479.0,278.8 480.0,278.4 481.0,279.7 482.0,277.9 483.0,280.5 484.0,277.7 485.0,280.1 486.0,280.6 487.0,279.3 488.0,280.8 489.0,279.4 490.0,279.0 491.0,280.8 492.0,280.2 493.0,278.5 494.0,279.3 495.0,280.7 496.0,279.1 497.0,279.8 498.0,280.6 499.0,278.6 500.0,280.7 501.0,279.5 502.0,281.9 503.0,279.7 504.0,280.8 505.0,279.5 506.0,281.1 507.0,280.7 508.0,280.8 509.0,279.7 510.0,280.3 511.0,280.8 512.0,280.6 513.0,280.2 514.0,280.2 515.0,281.3 516.0,281.3 517.0,280.7 518.0,281.4 519.0,281.1 520.0,280.0 521.0,279.8 522.0,279.8 523.0,281.5 524.0,281.1 525.0,282.1 526.0,281.0 527.0,280.7 528.0,280.7 529.0,280.8 530.0,281.5 531.0,280.3 532.0,281.0 533.0,280.1 534.0,280.8 535.0,280.3 536.0,282.4 537.0,281.3 538.0,282.0 539.0,281.2 540.0,281.1 541.0,281.8 542.0,281.9 543.0,281.7 544.0,281.3 545.0,280.6 546.0,279.8 547.0,282.7 548.0,283.1 549.0,280.1 550.0,280.5 551.0,281.1 552.0,279.7 553.0,281.7 554.0,281.1 555.0,280.1 556.0,281.3 557.0,280.4 558.0,282.8 559.0,281.7 560.0,280.3 561.0,282.1 562.0,282.5 563.0,281.9 564.0,282.5 565.0,281.4 566.0,282.3 567.0,281.1 568.0,281.7 569.0,281.4 570.0,282.2 571.0,282.9 572.0,281.8 573.0,283.2 574.0,283.5 575.0,282.4 576.0,282.7 577.0,281.2 578.0,282.6 579.0,282.6 580.0,281.4 581.0,281.5 582.0,282.7 583.0,282.1 584.0,283.8 585.0,282.1 586.0,282.6 587.0,282.9 588.0,282.9 589.0,282.8 590.0,283.4 591.0,285.0 592.0,282.7 593.0,282.1 594.0,282.2 595.0,281.0 596.0,282.4 597.0,283.9 598.0,282.4 599.0,282.5 600.0,283.0 601.0,284.3 602.0,283.3 603.0,283.8 604.0,283.0 605.0,283.0 606.0,283.4 607.0,284.2 608.0,282.2 609.0,284.0 610.0,282.4 611.0,284.0 612.0,284.7 613.0,283.7 614.0,283.0 615.0,284.4 616.0,282.4 617.0,283.5 618.0,283.6 619.0,284.3 620.0,282.9 621.0,283.4 622.0,282.8 623.0,284.0 624.0,283.7 625.0,283.9 626.0,283.5 627.0,282.8 628.0,284.3 629.0,283.1 630.0,283.9 631.0,283.8 632.0,284.3 633.0,282.9 634.0,284.9 635.0,283.4 636.0,284.5 637.0,283.7 638.0,284.1 639.0,283.4 640.0,283.4 641.0,282.2 642.0,285.4 643.0,285.3 644.0,284.0 645.0,284.0 646.0,284.5 647.0,284.6 648.0,283.3 649.0,282.5 650.0,283.8 651.0,283.4 652.0,284.7 653.0,283.7 654.0,283.3 655.0,284.4 656.0,285.8 657.0,284.3 658.0,284.7 659.0,284.0 660.0,282.8 661.0,284.1 662.0,285.4 663.0,284.3 664.0,283.3 665.0,285.6 666.0,284.0 667.0,284.9 668.0,283.9 669.0,286.7 670.0,284.1 671.0,285.1 672.0,285.8 673.0,284.9 674.0,285.2 675.0,285.0" fill="none" stroke="#16a34a" stroke-width="1.5"/>
<rect x="65" y="20" width="610" height="330" fill="none" stroke="#888" stroke-width="1.5"/>
<line x1="62" y1="308.5" x2="65" y2="308.5" stroke="#64748b" stroke-width="1" opacity="0.6"/>
<line x1="62" y1="260.0" x2="65" y2="260.0" stroke="#64748b" stroke-width="1" opacity="0.6"/>
<line x1="62" y1="199.0" x2="65" y2="199.0" stroke="#64748b" stroke-width="1" opacity="0.6"/>
<line x1="60" y1="116.3" x2="65" y2="116.3" stroke="#64748b" stroke-width="1.5"/>
<text x="57" y="116.3" text-anchor="end" dominant-baseline="middle" font-size="11" font-family="monospace,sans-serif" fill="#64748b">10</text>
<line x1="62" y1="33.5" x2="65" y2="33.5" stroke="#64748b" stroke-width="1" opacity="0.6"/>
<line x1="65.0" y1="350" x2="65.0" y2="355" stroke="#888" stroke-width="1.5"/>
<text x="65.0" y="368" text-anchor="middle" font-size="11" font-family="monospace,sans-serif">0</text>
<line x1="187.2" y1="350" x2="187.2" y2="355" stroke="#888" stroke-width="1.5"/>
<text x="187.2" y="368" text-anchor="middle" font-size="11" font-family="monospace,sans-serif">2</text>
<line x1="309.4" y1="350" x2="309.4" y2="355" stroke="#888" stroke-width="1.5"/>
<text x="309.4" y="368" text-anchor="middle" font-size="11" font-family="monospace,sans-serif">4</text>
<line x1="431.7" y1="350" x2="431.7" y2="355" stroke="#888" stroke-width="1.5"/>
<text x="431.7" y="368" text-anchor="middle" font-size="11" font-family="monospace,sans-serif">6</text>
<line x1="553.9" y1="350" x2="553.9" y2="355" stroke="#888" stroke-width="1.5"/>
<text x="553.9" y="368" text-anchor="middle" font-size="11" font-family="monospace,sans-serif">8</text>
<line x1="676.1" y1="350" x2="676.1" y2="355" stroke="#888" stroke-width="1.5"/>
<text x="676.1" y="368" text-anchor="middle" font-size="11" font-family="monospace,sans-serif">10</text>
<text x="370" y="392" text-anchor="middle" font-size="13" font-family="sans-serif">Runtime (minutes)</text>
<text transform="rotate(-90,28,185)" x="28" y="185" text-anchor="middle" font-size="13" font-family="sans-serif" fill="#64748b">Train loss (log scale)</text>
</svg>