<svg xmlns="http://www.w3.org/2000/svg" viewBox="0 0 720 400" width="720" height="400" style="background:white">
<rect x="65" y="20" width="635" height="330" fill="#f9f9f9"/>
<line x1="65" y1="308.5" x2="700" y2="308.5" stroke="#e8e8e8" stroke-width="1"/>
<line x1="65" y1="260.0" x2="700" y2="260.0" stroke="#e8e8e8" stroke-width="1"/>
<line x1="65" y1="199.0" x2="700" y2="199.0" stroke="#e8e8e8" stroke-width="1"/>
<line x1="65" y1="116.3" x2="700" y2="116.3" stroke="#ccc" stroke-width="1"/>
<line x1="65" y1="33.5" x2="700" y2="33.5" stroke="#e8e8e8" stroke-width="1"/>
<line x1="65.0" y1="20" x2="65.0" y2="350" stroke="#e8e8e8" stroke-width="1"/>
<line x1="192.2" y1="20" x2="192.2" y2="350" stroke="#e8e8e8" stroke-width="1"/>
<line x1="319.5" y1="20" x2="319.5" y2="350" stroke="#e8e8e8" stroke-width="1"/>
<line x1="446.7" y1="20" x2="446.7" y2="350" stroke="#e8e8e8" stroke-width="1"/>
<line x1="573.9" y1="20" x2="573.9" y2="350" stroke="#e8e8e8" stroke-width="1"/>
<line x1="701.2" y1="20" x2="701.2" y2="350" stroke="#e8e8e8" stroke-width="1"/>
<polyline points="65.0,119.3 66.0,52.6 67.1,88.1 68.1,145.2 69.2,159.4 70.2,152.4 71.2,153.6 72.3,160.4 73.3,166.0 74.4,169.0 75.4,171.5 76.4,173.6 77.5,176.5 78.5,178.5 79.6,180.3 80.6,182.3 81.7,183.4 82.7,185.5 83.8,187.1 84.8,189.2 85.9,191.3 86.9,193.3 87.9,195.6 89.0,197.4 90.0,199.6 91.1,202.3 92.1,203.4 93.2,204.6 94.2,206.1 95.3,207.6 96.3,209.0 97.4,210.3 98.4,211.2 99.4,211.9 100.5,212.7 101.5,213.6 102.6,214.3 103.6,214.8 104.7,215.6 105.7,216.8 106.8,217.2 107.8,218.3 108.8,218.2 109.9,218.6 110.9,220.2 112.0,220.2 113.0,221.3 114.1,222.2 115.1,223.6 116.1,224.1 117.2,225.0 118.2,225.4 119.3,227.1 120.3,227.5 121.4,228.3 122.4,228.4 123.5,229.5 124.5,230.2 125.5,231.4 126.6,232.2 127.6,232.7 128.7,232.7 129.7,234.5 130.8,233.9 131.8,235.1 132.8,235.3 133.9,236.7 134.9,236.9 136.0,237.3 137.0,238.7 138.1,237.9 139.1,239.0 140.1,238.5 141.2,239.8 142.2,239.4 143.3,239.8 144.3,241.0 145.4,242.5 146.4,242.0 147.5,242.5 148.5,242.3 149.5,242.7 150.6,243.5 151.6,243.0 152.7,243.4 153.7,242.7 154.8,244.4 155.8,244.6 156.8,244.9 157.9,245.8 158.9,245.0 160.0,244.8 161.0,246.0 162.0,246.2 163.1,247.2 164.1,246.0 165.2,248.4 166.2,247.2 167.3,246.5 168.3,248.1 169.3,248.4 170.4,247.9 171.4,247.8 172.5,249.0 173.5,249.4 174.6,249.1 175.6,250.2 176.6,250.0 177.7,250.7 178.7,251.0 179.8,251.1 180.8,250.8 181.9,252.7 182.9,251.1 183.9,252.0 185.0,251.9 186.0,251.7 187.1,251.9 188.1,253.4 189.1,252.5 190.2,253.2 191.2,253.7 192.3,253.7 193.3,254.8 194.4,252.5 195.4,253.7 196.4,255.4 197.5,255.9 198.5,253.9 199.6,254.1 200.6,255.0 201.6,255.5 202.7,255.2 203.7,255.3 204.8,255.5 205.8,255.3 206.8,256.8 207.9,256.4 208.9,257.0 210.0,257.1 211.0,257.6 212.1,257.1 213.1,259.4 214.1,258.1 215.2,258.9 216.2,258.3 217.3,258.8 218.3,260.2 219.4,257.8 220.4,260.6 221.4,258.3 222.5,260.4 223.5,259.5 224.6,260.2 225.6,260.5 226.7,259.4 227.7,260.6 228.7,260.8 229.8,259.8 230.8,260.4 231.9,260.7 232.9,261.4 234.0,262.3 235.0,261.9 236.1,261.4 237.1,262.8 238.2,261.4 239.2,262.8 240.3,261.9 241.4,262.2 242.5,262.4 243.5,262.1 244.6,263.7 245.6,263.2 246.7,263.1 247.8,263.6 248.9,262.1 249.9,264.4 251.0,263.4 252.1,264.5 253.2,262.8 254.2,263.7 255.3,263.8 256.3,263.9 257.4,264.6 258.4,265.2 259.5,264.5 260.6,264.4 261.7,264.6 262.7,264.4 263.7,265.2 264.8,266.1 265.8,265.1 266.9,266.6 267.9,266.0 268.9,265.9 270.0,266.3 271.0,265.4 272.1,265.4 273.1,267.0 274.1,266.7 275.2,266.4 276.2,265.6 277.3,265.6 278.3,267.0 279.4,266.6 280.4,267.9 281.4,266.6 282.5,266.8 283.5,267.6 284.6,266.9 285.6,267.9 286.6,268.2 287.7,268.8 288.7,267.9 289.8,268.1 290.8,268.3 291.8,268.0 292.9,267.9 293.9,268.9 295.0,268.0 296.0,268.4 297.1,268.3 298.1,269.6 299.1,269.2 300.2,268.9 301.2,268.8 302.3,269.0 303.3,269.4 304.4,269.7 305.4,269.0 306.4,268.4 307.5,269.7 308.5,269.1 309.6,269.0 310.6,270.8 311.7,269.7 312.7,270.1 313.7,269.6 314.8,271.0 315.8,268.7 316.9,270.7 317.9,271.4 318.9,271.1 320.0,270.1 321.0,270.2 322.1,270.6 323.1,270.4 324.2,269.6 325.2,270.4 326.3,270.2 327.3,270.4 328.3,271.3 329.4,271.0 330.4,271.3 331.5,270.5 332.5,271.6 333.6,269.9 334.6,272.1 335.6,271.8 336.7,271.1 337.7,272.6 338.8,271.2 339.8,271.9 340.9,271.5 341.9,272.5 342.9,273.0 344.0,271.6 345.0,270.9 346.1,272.5 347.1,272.3 348.1,272.9 349.2,272.3 350.2,272.4 351.3,272.4 352.3,272.4 353.3,271.9 354.4,272.9 355.4,272.1 356.5,273.4 357.5,273.9 358.6,274.3 359.6,272.3 360.6,273.5 361.7,273.0 362.7,273.4 363.8,272.5 364.8,273.7 365.8,275.2 366.9,274.3 367.9,274.1 369.0,273.1 370.0,274.2 371.0,273.7 372.1,275.2 373.1,274.0 374.2,275.5 375.2,273.7 376.2,275.0 377.3,274.7 378.3,272.3 379.4,273.6 380.4,274.0 381.5,273.9 382.5,272.7 383.5,275.1 384.6,274.7 385.6,275.4 386.7,275.1 387.7,274.6 388.7,276.1 389.8,275.4 390.8,274.5 391.9,275.2 392.9,274.2 394.0,275.3 395.0,274.3 396.0,275.8 397.1,273.8 398.1,276.9 399.2,275.3 400.2,275.6 401.2,273.9 402.3,276.6 403.3,274.6 404.4,275.8 405.4,274.9 406.4,274.7 407.5,275.5 408.5,275.5 409.6,276.7 410.6,275.0 411.6,277.6 412.7,276.2 413.7,275.0 414.8,276.1 415.8,276.4 416.8,276.6 417.9,275.7 418.9,275.6 420.0,275.5 421.0,276.3 422.0,275.6 423.1,277.2 424.1,276.6 425.2,277.2 426.2,276.2 427.3,277.0 428.3,275.3 429.3,276.5 430.4,276.8 431.4,276.2 432.5,276.3 433.5,277.9 434.6,276.8 435.6,277.1 436.6,276.6 437.7,278.6 438.7,276.6 439.8,278.2 440.8,277.0 441.8,276.4 442.9,277.5 443.9,277.5 445.0,277.5 446.0,277.1 447.1,277.7 448.1,278.8 449.1,277.6 450.2,277.9 451.2,277.6 452.3,276.0 453.3,276.5 454.3,276.2 455.4,277.3 456.4,278.6 457.5,278.3 458.5,278.4 459.5,277.9 460.6,277.2 461.6,278.3 462.7,277.7 463.7,278.1 464.7,278.0 465.8,277.9 466.8,279.0 467.9,277.7 468.9,279.7 469.9,278.2 471.0,277.4 472.0,276.8 473.1,278.6 474.1,279.5 475.2,277.8 476.2,279.0 477.2,280.3 478.3,278.7 479.3,279.0 480.4,278.3 481.4,277.7 482.4,277.3 483.5,279.6 484.5,278.7 485.6,278.8 486.6,278.5 487.6,280.5 488.7,279.7 489.7,280.0 490.8,280.8 491.8,278.3 492.9,278.9 493.9,277.8 494.9,279.6 496.0,278.8 497.0,278.4 498.1,279.7 499.1,277.9 500.1,280.5 501.2,277.7 502.2,280.1 503.3,280.6 504.3,279.3 505.3,280.8 506.4,279.4 507.4,279.0 508.5,280.8 509.5,280.2 510.5,278.5 511.6,279.3 512.6,280.7 513.7,279.1 514.7,279.8 515.7,280.6 516.8,278.6 517.8,280.7 518.9,279.5 519.9,281.9 521.0,279.7 522.0,280.8 523.0,279.5 524.1,281.1 525.1,280.7 526.2,280.8 527.2,279.7 528.2,280.3 529.3,280.8 530.3,280.6 531.4,280.2 532.4,280.2 533.4,281.3 534.5,281.3 535.5,280.7 536.6,281.4 537.6,281.1 538.6,280.0 539.7,279.8 540.7,279.8 541.8,281.5 542.8,281.1 543.8,282.1 544.9,281.0 545.9,280.7 547.0,280.7 548.0,280.8 549.0,281.5 550.1,280.3 551.1,281.0 552.2,280.1 553.2,280.8 554.2,280.3 555.3,282.4 556.3,281.3 557.4,282.0 558.4,281.2 559.4,281.1 560.5,281.8 561.5,281.9 562.6,281.7 563.6,281.3 564.6,280.6 565.7,279.8 566.7,282.7 567.8,283.1 568.8,280.1 569.8,280.5 570.9,281.1 571.9,279.7 573.0,281.7 574.0,281.1 575.1,280.1 576.1,281.3 577.1,280.4 578.2,282.8 579.2,281.7 580.3,280.3 581.3,282.1 582.3,282.5 583.4,281.9 584.4,282.5 585.5,281.4 586.5,282.3 587.5,281.1 588.6,281.7 589.6,281.4 590.7,282.2 591.7,282.9 592.8,281.8 593.8,283.2 594.8,283.5 595.9,282.4 596.9,282.7 598.0,281.2 599.0,282.6 600.1,282.6 601.1,281.4 602.1,281.5 603.2,282.7 604.2,282.1 605.2,283.8 606.3,282.1 607.3,282.6 608.4,282.9 609.4,282.9 610.5,282.8 611.5,283.4 612.5,285.0 613.6,282.7 614.6,282.1 615.7,282.2 616.7,281.0 617.7,282.4 618.8,283.9 619.8,282.4 620.9,282.5 621.9,283.0 622.9,284.3 624.0,283.3 625.0,283.8 626.1,283.0 627.1,283.0 628.1,283.4 629.2,284.2 630.2,282.2 631.3,284.0 632.3,282.4 633.3,284.0 634.4,284.7 635.4,283.7 636.5,283.0 637.5,284.4 638.6,282.4 639.6,283.5 640.6,283.6 641.7,284.3 642.7,282.9 643.8,283.4 644.8,282.8 645.8,284.0 646.9,283.7 647.9,283.9 649.0,283.5 650.0,282.8 651.0,284.3 652.1,283.1 653.1,283.9 654.2,283.8 655.2,284.3 656.3,282.9 657.3,284.9 658.3,283.4 659.4,284.5 660.4,283.7 661.5,284.1 662.5,283.4 663.5,283.4 664.6,282.2 665.6,285.4 666.7,285.3 667.7,284.0 668.8,284.0 669.8,284.5 670.8,284.6 671.9,283.3 672.9,282.5 674.0,283.8 675.0,283.4 676.0,284.7 677.1,283.7 678.1,283.3 679.2,284.4 680.2,285.8 681.3,284.3 682.3,284.7 683.3,284.0 684.4,282.8 685.4,284.1 686.5,285.4 687.5,284.3 688.5,283.3 689.6,285.6 690.6,284.0 691.7,284.9 692.7,283.9 693.8,286.7 694.8,284.1 695.8,285.1 696.9,285.8 697.9,284.9 699.0,285.2 700.0,285.0" fill="none" stroke="#2563eb" stroke-width="2"/>
<rect x="65" y="20" width="635" height="330" fill="none" stroke="#555" stroke-width="1.5"/>
<line x1="62" y1="308.5" x2="65" y2="308.5" stroke="#888" stroke-width="1"/>
<line x1="62" y1="260.0" x2="65" y2="260.0" stroke="#888" stroke-width="1"/>
<line x1="62" y1="199.0" x2="65" y2="199.0" stroke="#888" stroke-width="1"/>
<line x1="60" y1="116.3" x2="65" y2="116.3" stroke="#555" stroke-width="1.5"/>
<text x="57" y="116.3" text-anchor="end" dominant-baseline="middle" font-size="11" font-family="monospace,sans-serif">10</text>
<line x1="62" y1="33.5" x2="65" y2="33.5" stroke="#888" stroke-width="1"/>
<line x1="65.0" y1="350" x2="65.0" y2="355" stroke="#555" stroke-width="1.5"/>
<text x="65.0" y="368" text-anchor="middle" font-size="11" font-family="monospace,sans-serif">0</text>
<line x1="192.2" y1="350" x2="192.2" y2="355" stroke="#555" stroke-width="1.5"/>
<text x="192.2" y="368" text-anchor="middle" font-size="11" font-family="monospace,sans-serif">2</text>
<line x1="319.5" y1="350" x2="319.5" y2="355" stroke="#555" stroke-width="1.5"/>
<text x="319.5" y="368" text-anchor="middle" font-size="11" font-family="monospace,sans-serif">4</text>
<line x1="446.7" y1="350" x2="446.7" y2="355" stroke="#555" stroke-width="1.5"/>
<text x="446.7" y="368" text-anchor="middle" font-size="11" font-family="monospace,sans-serif">6</text>
<line x1="573.9" y1="350" x2="573.9" y2="355" stroke="#555" stroke-width="1.5"/>
<text x="573.9" y="368" text-anchor="middle" font-size="11" font-family="monospace,sans-serif">8</text>
<line x1="701.2" y1="350" x2="701.2" y2="355" stroke="#555" stroke-width="1.5"/>
<text x="701.2" y="368" text-anchor="middle" font-size="11" font-family="monospace,sans-serif">10</text>
<text x="382" y="392" text-anchor="middle" font-size="13" font-family="sans-serif">Runtime (minutes)</text>
<text transform="rotate(-90,16,185)" x="16" y="185" text-anchor="middle" font-size="13" font-family="sans-serif">Loss (log scale)</text>
</svg>