<svg xmlns="http://www.w3.org/2000/svg" viewBox="0 0 760 400" width="760" height="400" style="background:white">
<rect x="65" y="20" width="610" height="330" fill="#f9f9f9"/>
<line x1="65" y1="308.5" x2="675" y2="308.5" stroke="#ececec" stroke-width="1"/>
<line x1="65" y1="260.0" x2="675" y2="260.0" stroke="#ececec" stroke-width="1"/>
<line x1="65" y1="199.0" x2="675" y2="199.0" stroke="#ececec" stroke-width="1"/>
<line x1="65" y1="116.3" x2="675" y2="116.3" stroke="#ddd" stroke-width="1"/>
<line x1="65" y1="33.5" x2="675" y2="33.5" stroke="#ececec" stroke-width="1"/>
<line x1="65.0" y1="20" x2="65.0" y2="350" stroke="#ececec" stroke-width="1"/>
<line x1="187.1" y1="20" x2="187.1" y2="350" stroke="#ececec" stroke-width="1"/>
<line x1="309.1" y1="20" x2="309.1" y2="350" stroke="#ececec" stroke-width="1"/>
<line x1="431.2" y1="20" x2="431.2" y2="350" stroke="#ececec" stroke-width="1"/>
<line x1="553.2" y1="20" x2="553.2" y2="350" stroke="#ececec" stroke-width="1"/>
<line x1="675.3" y1="20" x2="675.3" y2="350" stroke="#ececec" stroke-width="1"/>
<polyline points="65.0,119.2 65.1,52.8 65.2,88.1 65.4,145.9 65.5,161.4 65.6,152.6 65.7,153.7 65.9,160.4 66.0,165.6 66.1,168.5 66.2,170.5 66.4,173.0 66.5,175.2 66.6,177.4 66.7,180.5 66.9,182.1 67.0,183.5 67.1,184.8 67.2,186.6 67.4,188.2 67.5,190.6 67.6,192.6 67.7,195.2 67.9,196.6 68.0,198.9 68.1,200.8 68.2,202.9 68.4,203.7 68.5,204.7 68.6,207.1 68.7,207.5 68.8,210.1 69.0,210.6 69.1,210.3 69.2,212.1 69.3,213.2 69.5,213.3 69.6,213.7 69.7,215.3 69.8,215.5 70.0,217.3 70.1,216.9 70.2,218.2 70.3,218.7 70.5,219.1 70.6,219.3 70.7,219.5 70.8,222.2 71.0,220.8 71.1,222.0 71.2,222.0 71.3,224.8 71.5,225.0 71.6,226.0 71.7,225.5 71.8,227.7 72.0,229.1 72.1,228.7 72.2,229.9 72.3,231.5 72.4,232.4 72.6,231.7 72.7,233.8 72.8,232.6 72.9,234.9 73.1,234.9 73.2,235.3 73.3,235.6 73.4,236.8 73.6,237.6 73.7,237.2 73.8,237.4 73.9,238.5 74.1,239.8 74.2,238.8 74.3,240.7 74.4,239.8 74.6,240.4 74.7,242.7 74.8,240.6 74.9,243.5 75.1,242.5 75.2,242.6 75.3,243.0 75.5,245.7 75.6,245.0 75.7,244.5 75.8,245.3 76.0,243.8 76.1,244.7 76.2,245.1 76.4,245.6 76.5,247.7 76.6,247.2 76.7,245.6 76.9,247.6 77.0,248.8 77.1,246.9 77.2,248.8 77.4,248.1 77.5,248.2 77.6,247.0 77.7,250.3 77.9,250.4 78.0,249.2 78.1,248.5 78.2,250.9 78.4,250.9 78.5,251.1 78.6,250.1 78.7,249.8 78.9,251.8 79.0,251.1 79.1,252.2 79.2,254.7 79.4,252.8 79.5,254.3 79.6,251.6 79.7,251.2 79.9,255.2 80.0,253.2 80.1,254.9 80.2,254.5 80.4,254.3 80.5,256.1 80.6,255.4 80.8,255.6 80.9,254.7 81.0,256.9 81.1,255.1 81.3,257.3 81.4,256.5 81.5,256.0 81.6,259.1 81.8,258.9 81.9,257.9 82.0,257.6 82.1,258.0 82.3,257.0 82.4,258.2 82.5,259.4 82.6,259.3 82.8,257.8 82.9,260.1 83.0,259.1 83.1,259.8 83.3,261.7 83.4,260.1 83.5,259.1 83.6,262.3 83.8,259.8 83.9,260.8 84.0,258.9 84.1,258.4 84.3,263.0 84.4,260.4 84.5,261.0 84.6,259.3 84.8,260.2 84.9,262.6 85.0,260.2 85.1,261.1 85.3,260.2 85.4,263.7 85.5,260.0 85.6,262.5 85.8,264.1 85.9,262.2 86.0,262.4 86.1,264.9 86.3,263.6 86.4,261.2 86.5,260.5 86.6,263.8 86.8,262.2 86.9,264.0 87.0,262.7 87.1,265.5 87.3,263.2 87.4,263.3 87.5,264.1 87.6,266.6 87.8,261.5 87.9,263.8 88.0,263.0 88.2,264.2 88.3,266.2 88.4,265.3 88.5,265.4 88.6,265.5 88.8,265.6 88.9,264.6 89.0,267.2 89.2,266.2 89.3,264.5 89.4,264.7 89.5,264.5 89.7,266.3 89.8,265.8 89.9,266.3 90.0,268.7 90.2,266.8 90.3,266.1 90.4,266.0 90.5,268.5 90.7,267.4 90.8,266.0 90.9,265.4 91.0,265.8 91.2,267.2 91.3,266.5 91.4,265.8 91.5,268.6 91.7,265.7 91.8,268.8 91.9,268.6 92.0,267.4 92.2,267.4 92.3,269.3 92.4,266.6 92.5,269.8 92.7,266.3 92.8,268.5 92.9,269.4 93.0,269.4 93.2,270.5 93.3,269.4 93.4,267.8 93.5,269.0 93.7,271.0 93.8,269.8 93.9,268.3 94.0,269.1 94.2,267.5 94.3,268.1 94.4,269.7 94.5,268.6 94.7,270.0 94.8,267.8 94.9,269.7 95.0,268.5 95.2,268.7 95.3,271.0 95.4,272.0 95.6,271.7 95.7,269.8 95.8,270.1 95.9,269.7 96.1,274.3 96.2,270.3 96.3,272.4 96.4,270.0 96.6,270.4 96.7,272.2 96.8,274.6 96.9,270.8 97.1,269.4 97.2,271.9 97.3,272.3 97.5,271.1 97.6,271.5 97.7,270.6 97.8,273.4 98.0,272.0 98.1,273.0 98.2,272.1 98.3,271.9 98.5,275.2 98.6,271.4 98.7,271.6 98.8,272.3 99.0,272.9 99.1,274.7 99.2,272.2 99.3,273.9 99.5,273.3 99.6,271.5 99.7,271.4 99.8,272.8 100.0,271.3 100.1,272.7 100.2,274.4 100.3,274.7 100.5,273.1 100.6,273.7 100.7,273.4 100.9,273.7 101.0,272.6 101.1,274.6 101.2,273.3 101.4,273.2 101.5,271.4 101.6,273.0 101.7,275.1 101.9,274.6 102.0,273.1 102.1,276.2 102.2,272.9 102.4,274.7 102.5,275.5 102.6,275.2 102.7,272.9 102.9,273.3 103.0,274.8 103.1,273.7 103.2,276.0 103.4,273.4 103.5,276.4 103.6,274.9 103.7,274.0 103.9,275.5 104.0,274.6 104.1,274.7 104.2,273.3 104.4,274.9 104.5,277.8 104.6,277.3 104.7,273.8 104.9,275.7 105.0,275.9 105.1,274.2 105.2,277.4 105.4,274.1 105.5,276.5 105.6,276.4 105.8,276.1 105.9,275.7 106.0,276.2 106.1,275.0 106.3,273.8 106.4,274.8 106.5,277.3 106.6,278.0 106.8,277.2 106.9,275.9 107.0,276.3 107.1,278.9 107.3,276.3 107.4,274.2 107.5,275.9 107.6,273.8 107.8,277.6 107.9,275.1 108.0,274.4 108.1,276.7 108.3,279.0 108.4,274.9 108.5,277.0 108.7,278.1 108.8,275.7 108.9,277.9 109.0,276.4 109.2,277.5 109.3,274.5 109.4,274.9 109.5,278.6 109.7,276.7 109.8,280.3 109.9,274.2 110.0,276.8 110.2,280.1 110.3,277.7 110.4,278.9 110.5,278.3 110.7,275.6 110.8,275.4 110.9,280.0 111.0,278.2 111.2,279.3 111.3,275.1 111.4,280.3 111.5,275.4 111.7,280.8 111.8,279.0 111.9,276.5 112.0,277.2 112.2,277.6 112.3,281.6 112.4,279.8 112.6,279.0 112.7,277.0 112.8,277.2 112.9,277.5 113.1,277.4 113.2,278.0 113.3,278.7 113.4,277.2 113.6,275.2 113.7,278.8 113.8,280.2 113.9,278.0 114.1,278.7 114.2,279.0 114.3,277.1 114.4,279.1 114.6,279.5 114.7,278.4 114.8,278.2 114.9,277.9 115.1,276.2 115.2,279.4 115.3,277.5 115.4,279.1 115.6,277.7 115.7,278.2 115.8,278.0 115.9,280.5 116.1,278.7 116.2,281.2 116.3,281.1 116.5,276.8 116.6,279.2 116.7,280.5 116.8,279.1 117.0,281.0 117.1,281.1 117.2,279.1 117.3,279.5 117.5,279.0 117.6,280.6 117.7,279.4 117.9,278.5 118.0,279.8 118.1,278.2 118.2,278.6 118.4,275.2 118.5,278.7 118.6,281.3 118.7,280.9 118.9,278.5 119.0,280.4 119.1,279.8 119.2,280.6 119.4,278.3 119.5,277.5 119.6,282.0 119.7,278.3 119.9,279.9 120.0,275.3 120.1,280.3 120.2,282.6 120.4,282.7 120.5,276.7 120.6,280.5 120.7,282.6 120.9,281.7 121.0,283.2 121.1,282.3 121.2,278.5 121.4,283.9 121.5,281.4 121.6,282.8 121.7,280.6 121.9,282.3 122.0,281.6 122.1,279.3 122.3,280.8 122.4,278.1 122.5,280.6 122.6,277.7 122.8,282.3 122.9,280.3 123.0,281.6 123.1,282.3 123.3,281.5 123.4,281.7 123.5,278.5 123.7,280.3 123.8,283.5 123.9,280.4 124.0,280.2 124.2,279.4 124.3,284.8 124.4,282.0 124.5,281.2 124.7,281.8 124.8,278.5 124.9,280.7 125.1,282.5 125.2,278.3 125.3,285.9 125.4,279.2 125.6,281.3 125.7,279.4 125.8,281.5 125.9,283.3 126.1,281.7 126.2,279.5 126.3,282.1 126.5,282.5 126.6,282.4 126.7,282.4 126.8,279.5 127.0,284.2 127.1,281.6 127.2,281.0 127.3,278.4 127.5,285.1 127.6,284.5 127.7,283.7 127.8,279.4 128.0,284.0 128.1,282.5 128.2,282.3 128.4,279.4 128.5,282.7 128.6,284.9 128.7,282.9 128.9,281.9 129.0,281.3 129.1,282.2 129.2,283.1 129.4,277.4 129.5,280.2 129.6,283.5 129.8,282.8 129.9,281.2 130.0,283.6 130.1,282.7 130.3,281.3 130.4,283.1 130.5,284.3 130.6,281.3 130.8,282.2 130.9,284.2 131.0,285.6 131.1,284.2 131.3,280.8 131.4,283.3 131.5,282.4 131.6,281.8 131.8,285.0 131.9,283.9 132.0,280.1 132.1,283.4 132.3,281.4 132.4,283.5 132.5,281.2 132.6,284.2 132.8,281.8 132.9,284.1 133.0,281.9 133.2,280.2 133.3,287.6 133.4,284.7 133.5,280.6 133.7,281.2 133.8,281.7 133.9,283.2 134.0,283.8 134.2,283.1 134.3,284.4 134.4,283.4 134.5,285.8 134.7,286.3 134.8,283.5 134.9,284.9 135.0,284.7 135.2,282.3 135.3,283.6 135.4,284.2 135.5,282.2 135.7,282.9 135.8,285.3 135.9,283.1 136.0,284.4 136.2,282.1 136.3,282.7 136.4,283.4 136.5,281.4 136.7,283.2 136.8,283.7 136.9,282.5 137.0,283.4 137.2,282.9 137.3,282.3 137.4,283.6 137.5,282.9 137.7,287.6 137.8,284.3 137.9,282.3 138.0,283.1 138.2,284.8 138.3,281.9 138.4,283.7 138.5,284.2 138.7,283.0 138.8,281.4 138.9,285.1 139.0,285.7 139.2,281.9 139.3,286.7 139.4,285.4 139.5,284.2 139.7,283.3 139.8,282.9 139.9,284.2 140.0,282.1 140.2,284.6 140.3,284.2 140.4,285.7 140.5,287.6 140.7,280.5 140.8,283.6 140.9,288.2 141.0,289.2 141.2,285.6 141.3,282.3 141.4,286.1 141.5,283.5 141.7,283.0 141.8,282.7 141.9,283.6 142.0,285.8 142.2,286.0 142.3,284.6 142.4,283.6 142.5,283.4 142.7,286.1 142.8,285.3 142.9,283.3 143.0,286.7 143.2,286.2 143.3,285.2 143.4,283.9 143.5,284.2 143.7,287.7 143.8,284.8 143.9,288.1 144.0,287.2 144.2,286.9 144.3,284.4 144.4,285.7 144.5,287.8 144.7,289.0 144.8,284.9 144.9,283.1 145.0,287.0 145.2,285.8 145.3,286.9 145.4,284.5 145.5,284.3 145.7,287.8 145.8,288.3 145.9,288.1 146.0,284.5 146.2,284.7 146.3,283.4 146.4,285.6 146.5,284.4 146.7,283.8 146.8,289.6 146.9,287.2 147.0,286.0 147.1,286.4 147.3,284.3 147.4,284.0 147.5,287.3 147.6,287.0 147.8,287.0 147.9,286.6 148.0,285.4 148.1,283.6 148.3,285.8 148.4,285.9 148.5,286.8 148.6,284.6 148.8,283.6 148.9,286.1 149.0,284.7 149.2,284.6 149.3,286.9 149.4,289.1 149.5,287.9 149.7,287.7 149.8,287.1 149.9,284.1 150.0,286.9 150.1,286.2 150.3,286.9 150.4,284.5 150.5,290.2 150.6,285.4 150.8,287.0 150.9,286.1 151.0,285.3 151.1,286.8 151.3,286.1 151.4,286.3 151.5,284.3 151.6,290.1 151.8,286.1 151.9,284.4 152.0,284.4 152.1,281.9 152.3,286.1 152.4,282.1 152.5,286.0 152.6,285.7 152.8,283.9 152.9,286.3 153.0,287.4 153.1,285.1 153.3,288.2 153.4,285.5 153.5,285.5 153.6,286.8 153.8,289.7 153.9,284.2 154.0,287.2 154.1,290.8 154.2,286.1 154.4,285.5 154.5,287.0 154.6,284.3 154.7,284.4 154.9,285.9 155.0,287.1 155.1,283.6 155.2,286.8 155.4,286.0 155.5,288.0 155.6,285.7 155.7,285.8 155.9,290.1 156.0,287.6 156.1,287.1 156.2,286.6 156.4,288.6 156.5,287.4 156.6,286.0 156.7,288.4 156.9,287.7 157.0,289.0 157.1,289.5 157.2,287.6 157.4,285.5 157.5,283.4 157.6,288.3 157.7,288.8 157.9,290.1 158.0,285.8 158.1,289.0 158.2,288.6 158.4,288.7 158.5,284.5 158.6,287.6 158.7,288.1 158.9,285.9 159.0,288.3 159.1,285.5 159.2,285.8 159.3,286.9 159.5,284.8 159.6,285.2 159.7,287.7 159.8,284.6 160.0,287.8 160.1,287.9 160.2,287.8 160.3,287.8 160.5,286.8 160.6,288.0 160.7,286.4 160.8,285.8 161.0,286.8 161.1,288.0 161.2,289.2 161.3,285.1 161.5,286.9 161.6,289.3 161.7,286.4 161.8,289.5 162.0,288.5 162.1,287.8 162.2,287.8 162.3,288.3 162.5,287.9 162.6,288.3 162.7,284.7 162.8,288.4 162.9,288.2 163.1,288.0 163.2,288.0 163.3,288.7 163.4,287.2 163.6,287.0 163.7,288.5 163.8,288.5 163.9,286.6 164.1,289.3 164.2,286.6 164.3,287.4 164.4,288.5 164.6,285.6 164.7,289.8 164.8,288.8 164.9,286.6 165.1,288.3 165.2,288.2 165.3,288.5 165.4,288.0 165.6,288.0 165.7,286.2 165.8,288.0 165.9,287.6 166.1,285.9 166.2,289.7 166.3,285.6 166.4,289.1 166.6,285.3 166.7,288.2 166.8,290.4 166.9,287.6 167.1,287.1 167.2,286.2 167.3,287.7 167.4,289.4 167.6,290.1 167.7,292.7 167.8,286.6 167.9,289.0 168.0,287.3 168.2,285.2 168.3,286.2 168.4,285.3 168.5,289.9 168.7,290.4 168.8,286.5 168.9,288.1 169.0,286.0 169.2,285.4 169.3,288.4 169.4,288.4 169.5,286.8 169.7,289.5 169.8,288.4 169.9,289.6 170.0,285.7 170.2,287.5 170.3,288.9 170.4,284.6 170.5,285.1 170.7,288.5 170.8,289.2 170.9,286.8 171.0,286.9 171.1,288.8 171.3,290.6 171.4,288.8 171.5,288.0 171.6,289.0 171.8,290.4 171.9,285.1 172.0,287.7 172.1,289.0 172.3,290.2 172.4,288.8 172.5,288.8 172.6,288.3 172.8,285.6 172.9,287.2 173.0,290.3 173.1,290.7 173.3,287.4 173.4,288.6 173.5,290.2 173.6,288.7 173.7,289.0 173.9,289.6 174.0,289.0 174.1,287.9 174.2,290.0 174.4,292.4 174.5,288.5 174.6,290.8 174.7,290.5 174.9,285.5 175.0,288.3 175.1,290.6 175.2,286.5 175.4,289.6 175.5,287.5 175.6,289.5 175.8,289.7 175.9,288.5 176.0,289.9 176.1,293.1 176.3,289.2 176.4,289.2 176.5,287.3 176.6,289.1 176.7,287.7 176.9,289.8 177.0,288.4 177.1,289.3 177.2,288.7 177.4,293.1 177.5,289.8 177.6,290.8 177.7,288.4 177.9,287.0 178.0,288.6 178.1,286.7 178.2,287.7 178.4,288.3 178.5,290.0 178.6,290.4 178.7,290.7 178.8,287.0 179.0,289.1 179.1,287.5 179.2,289.8 179.4,289.3 179.5,288.5 179.6,290.2 179.7,289.7 179.9,291.4 180.0,290.8 180.1,290.4 180.2,290.8 180.3,291.5 180.5,291.4 180.6,290.2 180.7,290.7 180.8,290.1 181.0,289.5 181.1,289.9 181.2,287.5 181.3,292.9 181.5,290.3 181.6,290.6 181.7,288.7 181.8,285.2 182.0,290.8 182.1,289.5 182.2,288.8 182.3,288.1 182.5,290.9 182.6,292.6 182.7,287.1 182.8,291.8 183.0,289.5 183.1,290.7 183.2,288.5 183.3,289.2 183.4,287.4 183.6,289.8 183.7,285.0 183.8,288.3 183.9,290.9 184.1,288.3 184.2,289.8 184.3,288.9 184.4,292.3 184.6,288.9 184.7,291.7 184.8,289.9 184.9,292.1 185.1,294.4 185.2,289.3 185.3,289.0 185.4,289.6 185.5,288.1 185.7,292.9 185.8,293.0 185.9,288.5 186.0,292.1 186.2,291.0 186.3,291.5 186.4,290.3 186.5,292.8 186.7,291.7 186.8,289.2 186.9,288.7 187.0,290.9 187.2,290.6 187.3,294.8 187.4,288.4 187.5,292.7 187.7,289.5 187.8,288.4 187.9,289.8 188.0,293.0 188.2,285.9 188.3,290.4 188.4,287.9 188.5,289.6 188.6,291.4 188.8,285.2 188.9,288.2 189.0,286.4 189.1,290.2 189.3,291.0 189.4,292.2 189.5,290.9 189.6,293.5 189.8,289.1 189.9,288.0 190.0,290.7 190.1,288.9 190.3,290.4 190.4,288.7 190.5,290.5 190.6,290.9 190.8,289.5 190.9,289.6 191.0,287.5 191.2,290.8 191.3,292.2 191.4,291.3 191.5,292.6 191.7,293.0 191.8,289.5 191.9,290.8 192.0,290.3 192.1,289.5 192.3,290.4 192.4,288.0 192.5,288.6 192.6,290.4 192.8,289.8 192.9,291.7 193.0,292.4 193.2,291.2 193.3,290.7 193.4,290.2 193.5,291.3 193.7,291.7 193.8,288.1 193.9,288.6 194.0,289.0 194.2,290.1 194.3,292.7 194.4,292.9 194.5,290.9 194.7,291.9 194.8,290.4 194.9,291.5 195.1,290.8 195.2,291.3 195.3,289.5 195.4,289.4 195.6,291.0 195.7,291.7 195.8,288.5 195.9,289.8 196.1,291.1 196.2,292.4 196.3,291.1 196.4,286.9 196.6,291.6 196.7,292.0 196.8,289.6 196.9,288.7 197.1,290.7 197.2,289.3 197.3,287.0 197.4,288.5 197.6,291.9 197.7,292.0 197.8,290.8 197.9,287.5 198.1,291.2 198.2,291.1 198.3,294.9 198.4,290.7 198.6,287.1 198.7,293.3 198.8,292.3 199.0,290.8 199.1,291.8 199.2,289.1 199.3,292.0 199.5,288.8 199.6,289.8 199.7,293.9 199.8,289.9 200.0,293.1 200.1,291.7 200.2,291.8 200.3,290.7 200.5,291.1 200.6,294.0 200.7,289.6 200.8,289.2 201.0,291.4 201.1,289.8 201.2,291.2 201.3,291.2 201.5,291.3 201.6,291.0 201.7,288.8 201.8,291.3 202.0,291.4 202.1,290.8 202.2,291.3 202.3,294.0 202.5,291.5 202.6,289.8 202.7,293.3 202.8,289.9 203.0,291.6 203.1,293.0 203.2,291.7 203.4,288.7 203.5,289.8 203.6,293.3 203.7,291.9 203.9,293.7 204.0,288.5 204.1,289.8 204.2,291.3 204.4,293.2 204.5,294.6 204.6,289.3 204.7,291.4 204.8,292.5 205.0,294.1 205.1,289.5 205.2,289.3 205.3,291.0 205.5,290.4 205.6,291.9 205.7,292.0 205.8,290.7 206.0,291.7 206.1,293.8 206.2,291.7 206.3,292.8 206.5,290.7 206.6,291.3 206.7,293.4 206.8,291.1 207.0,292.1 207.1,289.9 207.2,294.0 207.3,292.6 207.5,291.6 207.6,291.7 207.7,289.9 207.8,290.6 208.0,291.9 208.1,294.2 208.2,290.1 208.3,290.3 208.5,289.9 208.6,291.3 208.7,290.7 208.8,292.7 209.0,291.3 209.1,289.5 209.2,291.9 209.3,289.8 209.5,288.7 209.6,291.6 209.7,291.0 209.8,290.9 210.0,291.6 210.1,291.0 210.2,288.0 210.3,289.3 210.5,291.0 210.6,292.0 210.7,291.8 210.8,292.3 211.0,290.5 211.1,291.5 211.2,293.2 211.3,291.8 211.5,289.8 211.6,292.6 211.7,291.0 211.8,291.4 212.0,292.2 212.1,292.0 212.2,289.2 212.3,292.6 212.5,292.9 212.6,291.0 212.7,290.4 212.8,289.1 213.0,291.1 213.1,291.1 213.2,291.1 213.3,290.9 213.5,293.0 213.6,294.7 213.7,294.7 213.8,289.9 214.0,291.7 214.1,289.6 214.2,287.2 214.3,292.0 214.5,293.9 214.6,291.6 214.7,293.3 214.8,292.6 215.0,292.3 215.1,290.5 215.2,291.2 215.3,292.3 215.5,289.1 215.6,288.8 215.7,291.1 215.8,287.8 216.0,291.8 216.1,293.3 216.2,292.1 216.3,291.8 216.5,293.2 216.6,291.2 216.7,294.0 216.9,291.0 217.0,290.2 217.1,290.1 217.2,292.0 217.3,290.2 217.5,291.9 217.6,294.0 217.7,292.0 217.8,294.6 218.0,294.1 218.1,293.7 218.2,292.8 218.3,290.5 218.5,289.2 218.6,291.0 218.7,291.0 218.8,293.0 219.0,290.8 219.1,291.0 219.2,293.6 219.3,290.6 219.5,291.2 219.6,294.2 219.7,292.6 219.8,294.2 220.0,292.2 220.1,292.7 220.2,293.4 220.3,290.2 220.5,292.2 220.6,295.3 220.7,292.1 220.8,293.1 221.0,291.7 221.1,291.8 221.2,293.0 221.3,291.2 221.5,296.3 221.6,293.0 221.7,291.5 221.8,288.2 222.0,291.2 222.1,290.6 222.2,290.0 222.3,289.7 222.5,293.2 222.6,291.5 222.7,292.4 222.8,291.3 223.0,292.7 223.1,289.0 223.2,292.2 223.3,290.8 223.5,295.6 223.6,290.9 223.7,295.1 223.8,292.3 224.0,292.1 224.1,293.0 224.2,289.9 224.3,289.5 224.5,293.8 224.6,292.0 224.7,287.9 224.8,290.8 225.0,293.0 225.1,287.3 225.2,291.8 225.3,290.0 225.5,290.0 225.6,290.9 225.7,293.2 225.8,291.3 225.9,293.4 226.1,291.6 226.2,295.1 226.3,294.1 226.4,289.1 226.6,291.6 226.7,294.7 226.8,292.1 226.9,294.5 227.1,292.5 227.2,291.1 227.3,290.9 227.4,293.3 227.6,291.9 227.7,293.5 227.8,289.5 227.9,295.0 228.1,293.9 228.2,291.3 228.3,294.3 228.4,292.9 228.6,295.2 228.7,292.1 228.8,293.5 228.9,289.5 229.1,291.6 229.2,291.2 229.3,292.3 229.4,291.4 229.6,294.9 229.7,291.1 229.8,294.8 229.9,293.1 230.1,290.9 230.2,289.3 230.3,293.4 230.4,290.9 230.6,293.5 230.7,291.4 230.8,296.1 230.9,290.0 231.1,296.0 231.2,291.7 231.3,288.4 231.4,292.4 231.6,292.4 231.7,293.4 231.8,293.8 231.9,290.3 232.1,292.4 232.2,293.4 232.3,289.4 232.4,294.0 232.6,293.1 232.7,292.9 232.8,290.2 232.9,294.4 233.0,296.7 233.2,293.7 233.3,292.3 233.4,292.0 233.5,294.5 233.7,294.7 233.8,294.2 233.9,291.0 234.0,290.9 234.2,292.6 234.3,291.8 234.4,292.9 234.5,291.3 234.7,292.2 234.8,292.8 234.9,291.6 235.0,291.8 235.2,293.5 235.3,294.4 235.4,291.5 235.5,290.6 235.7,293.6 235.8,292.7 235.9,292.5 236.0,296.5 236.2,292.7 236.3,292.5 236.4,291.9 236.5,293.4 236.7,297.0 236.8,292.9 236.9,292.0 237.1,288.9 237.2,296.0 237.3,286.9 237.4,291.1 237.6,290.2 237.7,293.0 237.8,293.4 237.9,293.5 238.1,296.5 238.2,293.2 238.3,293.3 238.4,293.5 238.6,292.7 238.7,294.7 238.8,294.3 238.9,291.8 239.1,296.2 239.2,293.3 239.3,294.9 239.4,293.2 239.5,291.1 239.7,291.1 239.8,294.3 239.9,295.2 240.0,295.2 240.2,292.3 240.3,292.9 240.4,295.5 240.6,291.7 240.7,294.5 240.8,295.7 240.9,290.2 241.1,289.8 241.2,293.1 241.3,292.4 241.4,293.9 241.6,291.6 241.7,293.7 241.8,293.6 241.9,292.2 242.1,290.6 242.2,293.9 242.3,292.9 242.4,292.5 242.6,293.1 242.7,294.2 242.8,294.5 242.9,292.5 243.1,294.8 243.2,293.3 243.3,296.7 243.4,291.8 243.6,291.6 243.7,291.6 243.8,292.8 243.9,292.8 244.1,294.0 244.2,291.8 244.3,291.0 244.4,294.7 244.6,292.9 244.7,290.7 244.8,294.1 244.9,293.1 245.1,292.1 245.2,295.6 245.3,295.3 245.4,294.2 245.6,291.1 245.7,294.2 245.8,295.4 245.9,295.2 246.1,295.6 246.2,294.0 246.3,293.0 246.4,291.8 246.5,294.5 246.7,294.2 246.8,293.6 246.9,294.5 247.0,291.0 247.2,298.9 247.3,295.3 247.4,292.4 247.5,293.3 247.7,295.3 247.8,296.4 247.9,294.0 248.0,294.4 248.2,290.4 248.3,292.3 248.4,292.9 248.5,291.1 248.7,291.9 248.8,292.9 248.9,295.4 249.0,293.6 249.2,293.3 249.3,292.4 249.4,296.6 249.5,294.5 249.7,289.9 249.8,290.5 249.9,293.5 250.0,293.0 250.2,295.6 250.3,290.4 250.4,292.0 250.5,296.2 250.7,293.0 250.8,296.4 250.9,291.0 251.0,291.8 251.2,294.9 251.3,294.8 251.4,292.7 251.5,295.3 251.7,292.9 251.8,293.1 251.9,292.1 252.0,296.4 252.2,291.2 252.3,292.8 252.4,295.5 252.6,294.2 252.7,291.7 252.8,293.2 252.9,290.2 253.1,291.9 253.2,293.3 253.3,289.1 253.4,293.7 253.6,293.6 253.7,295.5 253.8,291.0 253.9,295.3 254.1,291.3 254.2,293.1 254.3,292.7 254.4,291.3 254.6,293.5 254.7,292.7 254.8,291.6 254.9,296.1 255.1,293.5 255.2,292.5 255.3,291.6 255.4,295.4 255.6,292.2 255.7,291.9 255.8,291.9 255.9,293.5 256.1,293.4 256.2,293.6 256.3,292.9 256.4,293.6 256.6,294.5 256.7,293.2 256.8,293.3 256.9,292.3 257.1,292.9 257.2,292.7 257.3,293.6 257.5,292.5 257.6,292.1 257.7,291.7 257.8,294.5 258.0,292.9 258.1,293.2 258.2,292.5 258.3,295.1 258.5,296.8 258.6,294.0 258.7,292.6 258.8,291.5 259.0,291.3 259.1,293.7 259.2,295.2 259.3,293.9 259.5,290.1 259.6,294.5 259.7,296.4 259.8,295.1 260.0,293.3 260.1,292.5 260.2,294.4 260.3,294.6 260.5,295.2 260.6,291.3 260.7,294.1 260.8,293.8 261.0,291.8 261.1,293.4 261.2,295.0 261.3,294.9 261.5,294.4 261.6,287.8 261.7,296.1 261.8,290.9 262.0,294.7 262.1,294.7 262.2,293.2 262.3,295.2 262.5,294.2 262.6,295.7 262.7,292.5 262.8,292.1 263.0,294.5 263.1,291.3 263.2,291.7 263.4,288.5 263.5,292.7 263.6,293.0 263.7,297.9 263.8,293.2 264.0,296.7 264.1,294.2 264.2,291.0 264.3,290.2 264.5,294.0 264.6,292.2 264.7,294.4 264.8,294.0 265.0,290.5 265.1,291.1 265.2,295.5 265.3,292.7 265.5,291.8 265.6,294.1 265.7,294.5 265.8,291.4 266.0,292.3 266.1,296.7 266.2,295.2 266.3,293.3 266.5,292.8 266.6,293.2 266.7,294.3 266.8,291.7 267.0,287.8 267.1,295.2 267.2,293.2 267.3,293.9 267.5,295.2 267.6,292.7 267.7,295.7 267.8,294.2 267.9,292.1 268.1,291.0 268.2,294.4 268.3,294.0 268.4,293.7 268.6,292.6 268.7,292.8 268.8,292.8 268.9,296.6 269.1,294.4 269.2,295.9 269.3,295.0 269.4,294.3 269.6,297.3 269.7,295.5 269.8,292.3 269.9,293.2 270.1,293.8 270.2,295.3 270.3,293.4 270.4,294.5 270.6,292.2 270.7,290.9 270.8,296.3 270.9,295.9 271.1,293.2 271.2,295.3 271.3,276.2 271.4,295.7 271.5,292.8 271.7,291.9 271.8,293.7 271.9,293.3 272.0,293.6 272.2,293.8 272.3,293.8 272.4,292.7 272.5,290.5 272.7,297.2 272.8,292.8 272.9,295.1 273.0,290.6 273.2,291.6 273.3,293.6 273.4,292.6 273.5,295.9 273.7,299.0 273.8,295.2 273.9,293.3 274.0,293.6 274.1,296.3 274.3,290.4 274.4,296.2 274.5,294.5 274.7,296.1 274.8,294.6 274.9,291.8 275.0,293.8 275.2,294.9 275.3,292.2 275.4,298.8 275.5,295.9 275.6,293.1 275.8,295.1 275.9,292.8 276.0,294.8 276.1,295.2 276.3,297.4 276.4,296.3 276.5,294.9 276.6,292.4 276.8,297.1 276.9,295.2 277.0,296.9 277.1,294.9 277.3,293.7 277.4,292.9 277.5,295.0 277.6,291.6 277.8,294.6 277.9,294.5 278.0,296.0 278.1,289.8 278.3,295.5 278.4,296.1 278.5,296.8 278.6,293.5 278.8,291.4 278.9,296.9 279.0,291.7 279.1,294.8 279.3,295.4 279.4,294.1 279.5,294.9 279.6,296.5 279.7,294.7 279.9,294.1 280.0,294.9 280.1,296.8 280.2,293.7 280.4,292.9 280.5,292.7 280.6,294.7 280.7,293.0 280.9,296.0 281.0,296.1 281.1,292.0 281.2,292.6 281.4,295.3 281.5,297.0 281.6,294.3 281.7,291.7 281.9,293.7 282.0,295.2 282.1,290.9 282.2,297.0 282.3,295.6 282.5,292.9 282.6,293.4 282.7,297.6 282.8,294.9 283.0,295.4 283.1,294.1 283.2,295.5 283.3,293.8 283.5,294.7 283.6,295.3 283.7,295.7 283.8,293.0 284.0,290.4 284.1,291.8 284.2,296.8 284.3,295.6 284.5,295.0 284.6,297.1 284.7,292.8 284.8,291.6 284.9,293.7 285.1,292.9 285.2,293.4 285.3,295.2 285.4,297.7 285.6,293.3 285.7,292.8 285.8,294.6 285.9,294.8 286.1,291.5 286.2,296.4 286.3,298.4 286.4,294.9 286.6,293.1 286.7,297.6 286.8,298.3 286.9,292.7 287.1,291.2 287.2,294.3 287.3,293.6 287.4,292.7 287.6,296.4 287.7,294.7 287.8,295.3 287.9,297.0 288.1,294.8 288.2,295.5 288.3,295.0 288.4,296.2 288.6,295.4 288.7,295.4 288.8,292.7 288.9,295.5 289.0,295.6 289.2,295.7 289.3,292.5 289.4,296.7 289.5,293.7 289.7,293.5 289.8,294.0 289.9,295.5 290.0,294.8 290.2,296.3 290.3,294.0 290.4,296.1 290.5,296.0 290.7,292.8 290.8,292.4 290.9,293.8 291.0,292.9 291.2,296.2 291.3,294.0 291.4,294.4 291.5,293.7 291.6,299.1 291.8,296.2 291.9,292.2 292.0,295.9 292.1,292.0 292.3,295.6 292.4,292.7 292.5,293.0 292.6,294.4 292.8,293.3 292.9,293.5 293.0,297.3 293.1,295.6 293.3,297.7 293.4,295.7 293.5,293.7 293.6,296.0 293.8,291.6 293.9,294.7 294.0,292.3 294.1,297.9 294.3,291.5 294.4,295.7 294.5,295.0 294.6,294.0 294.7,294.2 294.9,294.2 295.0,292.3 295.1,294.6 295.2,292.0 295.4,295.5 295.5,293.8 295.6,293.1 295.7,294.7 295.9,293.7 296.0,292.9 296.1,293.9 296.2,291.7 296.4,292.9 296.5,295.3 296.6,292.6 296.7,294.6 296.9,297.3 297.0,293.0 297.1,299.8 297.2,297.7 297.3,294.6 297.5,296.1 297.6,294.8 297.7,299.0 297.8,290.7 298.0,294.0 298.1,294.3 298.2,299.2 298.3,297.0 298.5,295.8 298.6,291.2 298.7,297.7 298.8,293.9 299.0,295.7 299.1,296.9 299.2,293.6 299.3,296.1 299.5,291.8 299.6,294.1 299.7,293.4 299.8,297.8 300.0,289.0 300.1,293.1 300.2,297.3 300.3,298.3 300.5,295.3 300.6,295.4 300.7,293.3 300.8,293.5 301.0,294.7 301.1,293.5 301.2,297.2 301.3,294.7 301.5,293.3 301.6,292.5 301.7,295.0 301.8,297.8 302.0,293.5 302.1,293.3 302.2,292.5 302.3,294.5 302.5,290.4 302.6,293.6 302.7,296.6 302.8,296.7 302.9,294.0 303.1,297.7 303.2,294.3 303.3,298.0 303.4,295.2 303.6,295.6 303.7,293.3 303.8,298.3 303.9,295.5 304.1,294.9 304.2,296.3 304.3,294.1 304.4,295.7 304.6,295.1 304.7,296.8 304.8,294.9 304.9,294.4 305.1,292.6 305.2,296.7 305.3,296.1 305.4,295.8 305.5,294.8 305.7,297.9 305.8,295.3 305.9,295.0 306.0,292.7 306.2,293.0 306.3,292.5 306.4,296.3 306.5,291.6 306.7,292.3 306.8,296.7 306.9,294.9 307.0,298.1 307.2,291.7 307.3,297.8 307.4,294.6 307.5,296.1 307.7,290.8 307.8,294.9 307.9,297.1 308.0,298.8 308.1,296.0 308.3,294.5 308.4,295.4 308.5,297.9 308.6,295.2 308.8,299.0 308.9,294.8 309.0,296.1 309.1,295.6 309.3,296.3 309.4,295.8 309.5,303.3 309.6,294.7 309.8,292.9 309.9,295.6 310.0,294.0 310.1,296.3 310.3,295.1 310.4,294.3 310.5,295.9 310.6,295.0 310.8,291.4 310.9,295.3 311.0,296.6 311.1,296.0 311.3,300.2 311.4,295.9 311.5,295.7 311.6,296.2 311.7,295.6 311.9,292.9 312.0,297.5 312.1,296.6 312.2,296.5 312.4,299.2 312.5,294.6 312.6,295.9 312.7,295.8 312.9,296.9 313.0,294.5 313.1,293.6 313.2,294.6 313.4,295.1 313.5,296.3 313.6,296.6 313.7,295.1 313.9,294.3 314.0,294.8 314.1,297.7 314.2,293.2 314.4,295.9 314.5,293.5 314.6,293.3 314.7,296.3 314.9,294.3 315.0,295.3 315.1,295.6 315.2,291.5 315.4,295.9 315.5,295.8 315.6,293.0 315.7,297.3 315.9,295.5 316.0,293.9 316.1,297.7 316.2,292.9 316.4,293.6 316.5,295.9 316.6,297.3 316.7,293.8 316.9,293.9 317.0,296.7 317.1,295.9 317.2,296.8 317.4,293.6 317.5,295.9 317.6,293.5 317.7,294.8 317.9,296.5 318.0,294.1 318.1,294.1 318.2,294.8 318.4,292.7 318.5,293.1 318.6,290.3 318.7,296.5 318.9,297.8 319.0,295.8 319.1,295.7 319.2,292.2 319.4,294.1 319.5,295.9 319.6,296.5 319.7,293.0 319.9,296.4 320.0,294.9 320.1,295.0 320.2,297.0 320.4,296.8 320.5,295.4 320.6,294.1 320.7,297.7 320.9,296.9 321.0,294.2 321.1,298.4 321.2,293.2 321.4,296.5 321.5,295.9 321.6,295.5 321.7,293.0 321.9,294.9 322.0,297.0 322.1,295.4 322.2,295.7 322.3,294.2 322.5,297.0 322.6,298.8 322.7,294.5 322.8,293.4 323.0,295.4 323.1,293.8 323.2,295.7 323.3,293.0 323.5,297.2 323.6,295.6 323.7,293.8 323.8,293.1 324.0,296.2 324.1,292.8 324.2,291.4 324.3,298.1 324.5,297.0 324.6,294.4 324.7,292.2 324.8,292.0 325.0,295.0 325.1,296.3 325.2,298.0 325.3,295.1 325.4,297.2 325.6,295.3 325.7,297.0 325.8,295.0 325.9,295.6 326.1,297.2 326.2,295.2 326.3,295.0 326.4,295.1 326.6,296.1 326.7,295.5 326.8,296.4 326.9,294.8 327.1,295.2 327.2,296.7 327.3,294.4 327.4,296.0 327.6,297.2 327.7,294.5 327.8,296.1 327.9,296.7 328.1,297.6 328.2,294.0 328.3,293.6 328.4,293.2 328.6,295.0 328.7,293.3 328.8,297.5 328.9,295.6 329.1,295.9 329.2,294.2 329.3,294.6 329.4,295.8 329.6,296.6 329.7,298.7 329.8,294.9 329.9,292.4 330.1,297.3 330.2,293.5 330.3,296.2 330.4,296.2 330.6,292.2 330.7,295.2 330.8,295.0 330.9,298.1 331.1,295.7 331.2,294.6 331.3,294.5 331.4,297.4 331.6,296.3 331.7,299.3 331.8,295.7 331.9,294.4 332.1,295.5 332.2,296.0 332.3,293.0 332.4,293.5 332.6,295.9 332.7,291.3 332.8,297.3 332.9,293.7 333.1,295.7 333.2,295.3 333.3,297.2 333.4,295.3 333.5,293.5 333.7,293.6 333.8,295.0 333.9,297.6 334.0,294.0 334.2,293.3 334.3,294.7 334.4,298.4 334.6,295.7 334.7,295.4 334.8,299.0 334.9,296.3 335.1,293.4 335.2,296.4 335.3,292.9 335.5,297.3 335.6,295.9 335.7,292.6 335.8,295.5 336.0,296.1 336.1,296.4 336.2,294.9 336.3,292.1 336.5,296.2 336.6,296.1 336.7,298.5 336.9,297.4 337.0,295.0 337.1,293.6 337.2,297.0 337.4,293.8 337.5,297.4 337.6,295.8 337.7,296.4 337.9,296.7 338.0,288.8 338.1,297.0 338.2,294.2 338.4,293.4 338.5,296.4 338.6,297.0 338.7,295.4 338.9,296.7 339.0,298.8 339.1,293.2 339.2,294.8 339.4,294.4 339.5,294.5 339.6,297.5 339.7,295.7 339.9,297.0 340.0,293.7 340.1,293.3 340.2,294.1 340.3,295.9 340.5,296.4 340.6,296.7 340.7,294.8 340.8,296.5 341.0,296.4 341.1,296.5 341.2,298.4 341.3,296.6 341.5,302.3 341.6,295.7 341.7,293.0 341.8,295.5 342.0,293.9 342.1,299.0 342.2,295.6 342.3,293.2 342.5,294.1 342.6,297.3 342.7,295.4 342.8,296.5 343.0,295.9 343.1,292.1 343.2,297.2 343.3,294.2 343.5,296.3 343.6,294.7 343.7,295.2 343.8,296.4 344.0,297.2 344.1,298.5 344.2,292.6 344.3,296.8 344.5,294.3 344.6,294.8 344.7,295.9 344.8,294.1 344.9,296.9 345.1,299.3 345.2,292.5 345.3,295.3 345.4,296.1 345.6,298.6 345.7,294.4 345.8,298.4 345.9,295.6 346.1,293.9 346.2,297.7 346.3,296.3 346.4,296.4 346.6,298.1 346.7,295.5 346.8,299.1 346.9,295.6 347.1,295.8 347.2,293.3 347.3,296.2 347.4,295.5 347.6,296.6 347.7,294.0 347.8,293.2 347.9,296.0 348.1,294.5 348.2,294.0 348.3,297.9 348.4,298.1 348.5,292.2 348.7,296.6 348.8,295.4 348.9,293.4 349.0,295.0 349.2,293.9 349.3,291.9 349.4,291.4 349.5,295.8 349.7,298.1 349.8,298.4 349.9,294.3 350.0,292.9 350.2,292.9 350.3,296.6 350.4,298.7 350.5,294.4 350.7,293.1 350.8,296.1 350.9,295.8 351.0,294.2 351.1,296.8 351.3,296.0 351.4,295.1 351.5,294.8 351.6,295.2 351.8,294.9 351.9,292.1 352.0,295.3 352.1,294.6 352.3,298.1 352.4,294.2 352.5,295.1 352.6,294.4 352.8,299.0 352.9,296.1 353.0,296.0 353.1,296.5 353.3,294.8 353.4,295.3 353.5,297.1 353.6,296.1 353.7,298.1 353.9,292.9 354.0,295.0 354.1,294.7 354.2,296.2 354.4,301.4 354.5,295.1 354.6,293.9 354.7,296.1 354.9,296.8 355.0,296.2 355.1,295.6 355.2,296.5 355.4,297.6 355.5,294.5 355.6,294.6 355.7,296.6 355.9,294.0 356.0,298.1 356.1,296.0 356.2,298.1 356.3,295.6 356.5,296.0 356.6,294.9 356.7,294.6 356.8,296.2 357.0,296.0 357.1,296.8 357.2,293.2 357.3,291.8 357.5,299.8 357.6,295.2 357.7,298.0 357.8,294.7 358.0,297.9 358.1,295.1 358.2,298.0 358.3,296.8 358.4,293.5 358.6,295.7 358.7,295.2 358.9,294.5 359.0,297.8 359.1,297.1 359.2,297.5 359.4,297.5 359.5,295.8 359.6,296.1 359.7,293.9 359.9,297.5 360.0,295.3 360.1,300.5 360.2,297.1 360.4,294.8 360.5,298.9 360.6,294.8 360.7,299.4 360.8,293.4 361.0,297.3 361.1,296.9 361.2,293.7 361.4,293.9 361.5,293.5 361.6,296.7 361.7,297.9 361.8,294.7 362.0,296.6 362.1,296.3 362.2,294.8 362.3,291.7 362.5,298.5 362.6,296.0 362.7,294.4 362.8,298.2 363.0,296.8 363.1,292.5 363.2,294.6 363.3,298.7 363.5,294.8 363.6,295.8 363.7,300.3 363.8,296.6 364.0,295.0 364.1,295.2 364.2,297.3 364.3,294.0 364.5,297.7 364.6,295.2 364.7,293.4 364.8,295.7 364.9,296.4 365.1,299.3 365.2,295.1 365.3,297.1 365.4,295.5 365.6,294.6 365.7,297.0 365.8,296.1 365.9,294.8 366.1,295.0 366.2,294.8 366.3,296.4 366.4,296.8 366.6,295.8 366.7,298.8 366.8,295.1 366.9,293.7 367.0,296.2 367.2,296.9 367.3,295.2 367.4,297.0 367.5,294.6 367.7,297.4 367.8,295.3 367.9,294.6 368.0,297.0 368.2,296.0 368.3,296.2 368.4,297.0 368.5,293.7 368.7,295.9 368.8,300.6 368.9,296.0 369.0,293.5 369.2,294.0 369.3,293.5 369.4,292.3 369.5,296.2 369.7,295.5 369.8,295.9 369.9,295.4 370.0,294.5 370.2,295.7 370.3,300.0 370.4,295.4 370.5,292.7 370.6,299.1 370.8,295.2 370.9,299.1 371.0,295.0 371.1,297.5 371.3,295.9 371.4,296.7 371.5,299.6 371.6,295.5 371.8,298.1 371.9,294.7 372.0,297.6 372.1,297.1 372.3,297.3 372.4,298.3 372.5,293.8 372.6,298.2 372.8,298.4 372.9,296.3 373.0,295.9 373.1,296.0 373.3,297.5 373.4,294.5 373.5,296.0 373.6,297.7 373.8,294.1 373.9,295.2 374.0,297.8 374.1,295.6 374.3,295.1 374.4,295.2 374.5,297.9 374.6,300.0 374.8,291.8 374.9,297.2 375.0,295.4 375.1,295.5 375.3,293.8 375.4,298.2 375.5,295.6 375.6,296.8 375.8,298.4 375.9,297.4 376.0,295.2 376.1,296.6 376.3,298.0 376.4,296.7 376.5,295.1 376.6,295.7 376.7,294.7 376.9,294.2 377.0,294.3 377.1,296.1 377.2,300.0 377.4,300.0 377.5,296.2 377.6,294.5 377.7,298.2 377.9,294.8 378.0,295.5 378.1,299.8 378.2,296.5 378.4,297.5 378.5,297.4 378.6,296.8 378.7,295.4 378.9,298.6 379.0,298.3 379.1,296.6 379.2,297.6 379.3,297.5 379.5,295.2 379.6,292.3 379.7,297.6 379.8,294.9 380.0,296.4 380.1,298.4 380.2,296.3 380.3,298.6 380.5,297.4 380.6,297.2 380.7,298.8 380.8,298.4 381.0,294.7 381.1,296.4 381.2,295.9 381.3,296.7 381.5,293.6 381.6,296.0 381.7,296.0 381.8,290.9 381.9,299.0 382.1,295.0 382.2,294.8 382.3,297.7 382.4,294.8 382.6,295.0 382.7,293.0 382.8,300.6 382.9,296.8 383.1,297.0 383.2,297.4 383.3,297.2 383.4,295.5 383.6,296.7 383.7,295.0 383.8,296.9 383.9,295.1 384.1,296.8 384.2,293.0 384.3,298.0 384.4,295.2 384.5,297.0 384.7,297.7 384.8,298.5 384.9,293.5 385.0,296.6 385.2,299.4 385.3,296.2 385.4,293.3 385.5,299.7 385.7,298.7 385.8,299.5 385.9,294.3 386.0,296.8 386.2,298.4 386.3,296.7 386.4,294.6 386.5,297.5 386.7,298.0 386.8,295.1 386.9,297.2 387.0,300.1 387.1,296.6 387.3,295.9 387.4,298.3 387.5,295.4 387.6,295.1 387.8,297.7 387.9,297.2 388.0,292.8 388.1,294.3 388.3,292.9 388.4,299.5 388.5,298.1 388.6,294.7 388.8,297.8 388.9,298.8 389.0,296.8 389.1,296.9 389.3,295.0 389.4,299.0 389.5,295.4 389.6,296.4 389.7,296.6 389.9,295.6 390.0,297.3 390.1,293.4 390.2,294.6 390.4,296.1 390.5,298.4 390.6,297.7 390.7,298.1 390.9,297.4 391.0,296.5 391.1,295.4 391.2,295.8 391.4,295.2 391.5,297.5 391.6,300.9 391.7,296.7 391.8,296.5 392.0,295.2 392.1,296.6 392.2,297.1 392.3,296.8 392.5,297.2 392.6,294.3 392.7,295.7 392.8,296.2 393.0,295.8 393.1,295.3 393.2,298.4 393.3,299.8 393.5,297.4 393.6,295.3 393.7,297.9 393.9,296.9 394.0,296.8 394.1,300.3 394.2,299.7 394.4,294.4 394.5,300.8 394.6,294.1 394.7,296.8 394.9,295.2 395.0,297.0 395.1,294.1 395.2,296.4 395.4,300.6 395.5,298.1 395.6,296.1 395.7,296.2 395.9,298.5 396.0,296.6 396.1,294.3 396.3,296.9 396.4,298.0 396.5,298.0 396.6,295.8 396.8,297.1 396.9,295.2 397.0,297.1 397.1,294.3 397.3,295.5 397.4,299.8 397.5,299.5 397.6,296.1 397.8,297.4 397.9,297.3 398.0,298.8 398.1,298.5 398.3,295.2 398.4,295.8 398.5,297.1 398.6,297.3 398.7,296.6 398.9,294.6 399.0,300.1 399.1,304.4 399.2,296.5 399.4,298.3 399.5,294.2 399.6,295.3 399.7,295.9 399.9,300.4 400.0,296.9 400.1,297.8 400.2,298.4 400.4,296.4 400.5,294.4 400.6,299.5 400.7,298.3 400.9,297.3 401.0,298.0 401.1,296.3 401.2,297.4 401.4,297.7 401.5,298.0 401.6,297.8 401.7,299.4 401.9,297.9 402.0,293.8 402.1,297.7 402.2,297.4 402.4,295.9 402.5,296.9 402.6,295.9 402.7,295.1 402.9,299.8 403.0,301.3 403.1,298.1 403.2,298.2 403.4,293.3 403.5,297.6 403.6,296.7 403.7,298.2 403.9,298.1 404.0,296.7 404.1,300.1 404.2,294.7 404.4,295.6 404.5,296.5 404.6,298.3 404.7,296.4 404.9,295.2 405.0,297.5 405.1,295.5 405.2,296.8 405.4,295.5 405.5,297.2 405.6,299.7 405.7,294.9 405.9,292.7 406.0,298.8 406.1,296.7 406.2,295.8 406.4,296.4 406.5,293.1 406.6,294.8 406.7,298.3 406.9,295.8 407.0,298.3 407.1,297.7 407.2,297.4 407.4,295.2 407.5,294.9 407.6,298.6 407.7,295.9 407.9,297.2 408.0,299.7 408.1,298.0 408.2,295.5 408.4,298.6 408.5,296.7 408.6,294.8 408.7,295.4 408.9,299.7 409.0,299.2 409.1,297.3 409.2,297.4 409.4,297.2 409.5,298.1 409.6,297.6 409.7,294.7 409.8,297.1 410.0,300.5 410.1,292.5 410.2,296.8 410.4,297.7 410.5,298.2 410.6,296.4 410.7,295.2 410.8,295.8 411.0,298.0 411.1,294.8 411.2,293.7 411.3,294.0 411.5,296.2 411.6,297.4 411.7,294.3 411.8,298.1 412.0,295.7 412.1,295.6 412.2,291.5 412.3,299.3 412.5,298.4 412.6,299.1 412.7,297.9 412.8,297.2 413.0,297.6 413.1,295.9 413.2,299.1 413.3,295.7 413.5,294.0 413.6,297.4 413.7,296.5 413.8,293.3 414.0,297.0 414.1,298.1 414.2,293.8 414.3,298.1 414.5,299.4 414.6,298.4 414.8,296.9 414.9,297.1 415.0,297.1 415.1,301.3 415.3,299.8 415.4,296.2 415.5,293.6 415.7,297.4 415.8,296.3 415.9,294.9 416.0,299.2 416.2,295.9 416.3,297.6 416.4,295.0 416.5,294.3 416.7,299.9 416.8,295.8 416.9,294.6 417.0,295.1 417.2,295.1 417.3,300.5 417.4,295.7 417.5,299.5 417.7,294.9 417.8,299.6 417.9,297.8 418.1,295.5 418.2,294.5 418.3,297.2 418.4,297.5 418.6,290.5 418.7,292.8 418.8,298.7 419.0,298.7 419.1,299.4 419.2,295.7 419.3,296.1 419.5,297.9 419.6,299.6 419.7,296.3 419.8,294.0 420.0,295.9 420.1,297.2 420.2,298.3 420.3,297.3 420.5,295.3 420.6,296.4 420.7,289.5 420.8,296.9 421.0,298.4 421.1,298.2 421.2,295.7 421.4,296.9 421.5,296.9 421.6,296.6 421.7,296.4 421.9,297.4 422.0,298.4 422.1,297.3 422.2,296.2 422.4,294.9 422.5,300.7 422.6,299.9 422.7,292.9 422.9,295.6 423.0,295.0 423.1,296.5 423.2,295.3 423.4,299.5 423.5,295.2 423.6,295.5 423.7,295.3 423.9,295.5 424.0,297.9 424.1,294.7 424.2,296.5 424.4,295.3 424.5,299.0 424.6,294.6 424.7,298.7 424.9,300.8 425.0,295.7 425.1,302.3 425.2,299.3 425.4,299.2 425.5,299.6 425.6,297.8 425.7,297.3 425.9,300.0 426.0,296.4 426.1,298.8 426.3,301.7 426.4,294.6 426.5,296.6 426.6,295.2 426.7,300.2 426.9,293.7 427.0,297.2 427.1,298.0 427.2,295.8 427.4,300.8 427.5,296.9 427.6,298.4 427.7,298.8 427.9,295.8 428.0,298.4 428.1,298.9 428.2,297.4 428.4,295.9 428.5,297.0 428.6,298.2 428.7,297.6 428.9,297.5 429.0,295.7 429.1,297.3 429.2,294.8 429.4,296.8 429.5,299.1 429.6,298.6 429.7,299.6 429.9,296.7 430.0,294.4 430.1,293.9 430.2,295.5 430.4,296.8 430.5,297.0 430.6,300.7 430.7,291.9 430.9,295.0 431.0,299.0 431.1,296.9 431.2,294.3 431.4,292.5 431.5,297.9 431.6,294.8 431.7,297.5 431.9,294.9 432.0,299.0 432.1,297.0 432.2,295.5 432.4,299.5 432.5,301.8 432.6,299.2 432.7,294.7 432.9,294.2 433.0,297.7 433.1,296.1 433.2,296.8 433.4,298.3 433.5,297.5 433.6,295.6 433.7,296.2 433.9,297.1 434.0,295.7 434.1,298.1 434.2,297.1 434.4,298.1 434.5,295.7 434.6,295.0 434.7,297.9 434.8,298.1 435.0,298.0 435.1,300.3 435.2,297.9 435.3,298.1 435.5,300.7 435.6,297.4 435.7,300.4 435.9,298.8 436.0,301.0 436.1,296.1 436.2,295.4 436.4,297.9 436.5,300.2 436.6,295.5 436.7,299.0 436.9,296.4 437.0,299.8 437.1,297.6 437.2,297.1 437.4,300.1 437.5,296.3 437.6,298.7 437.7,296.4 437.9,297.9 438.0,297.5 438.1,297.6 438.2,299.4 438.4,297.8 438.5,298.1 438.6,299.7 438.7,298.2 438.9,297.9 439.0,297.7 439.1,298.4 439.2,298.6 439.4,299.3 439.5,299.4 439.6,296.6 439.7,296.5 439.9,296.8 440.0,299.3 440.1,293.3 440.2,298.4 440.4,296.4 440.5,297.5 440.6,299.2 440.7,300.1 440.8,299.9 441.0,295.1 441.1,295.7 441.2,297.8 441.3,298.6 441.5,296.6 441.6,295.5 441.7,296.2 441.8,296.5 442.0,297.0 442.1,298.5 442.2,296.7 442.4,300.2 442.5,296.1 442.6,293.2 442.7,298.1 442.9,297.6 443.0,298.0 443.1,300.3 443.2,296.8 443.4,295.2 443.5,297.5 443.6,298.2 443.7,292.9 443.9,298.0 444.0,296.0 444.1,298.3 444.2,295.0 444.4,300.1 444.5,301.0 444.6,293.6 444.7,295.7 444.9,297.8 445.0,297.6 445.1,296.7 445.2,297.5 445.4,299.8 445.5,296.1 445.6,302.4 445.7,296.7 445.9,296.2 446.0,300.1 446.1,295.9 446.2,299.5 446.4,297.8 446.5,298.2 446.6,292.9 446.7,300.3 446.9,296.0 447.0,299.1 447.1,297.4 447.2,297.5 447.4,295.7 447.5,296.3 447.6,295.5 447.7,298.7 447.9,296.2 448.0,298.1 448.1,296.7 448.2,298.0 448.3,301.0 448.5,299.3 448.6,298.7 448.7,298.6 448.8,294.3 449.0,298.2 449.1,297.3 449.2,298.6 449.3,295.4 449.5,297.4 449.6,294.5 449.7,298.5 449.9,298.5 450.0,294.4 450.1,296.0 450.2,298.8 450.4,296.0 450.5,296.4 450.6,299.4 450.7,295.3 450.9,297.5 451.0,297.1 451.1,297.8 451.2,296.9 451.4,301.0 451.5,296.5 451.6,301.6 451.7,296.5 451.9,295.4 452.0,296.8 452.1,297.1 452.2,297.6 452.4,298.5 452.5,297.4 452.6,298.6 452.7,297.6 452.9,295.7 453.0,296.5 453.1,298.4 453.2,296.5 453.4,298.6 453.5,297.3 453.6,298.1 453.7,295.9 453.9,296.5 454.0,296.4 454.1,297.3 454.2,298.4 454.4,298.9 454.5,299.3 454.6,298.1 454.7,298.1 454.9,299.6 455.0,297.4 455.1,299.4 455.2,297.1 455.4,296.8 455.5,300.3 455.6,301.1 455.7,295.5 455.9,295.4 456.0,296.8 456.1,296.7 456.2,300.2 456.4,299.3 456.5,298.5 456.6,295.5 456.7,297.5 456.9,297.7 457.0,299.7 457.1,295.4 457.2,299.8 457.4,294.8 457.5,296.4 457.6,299.4 457.7,297.7 457.9,298.1 458.0,296.6 458.1,298.4 458.2,301.3 458.4,296.0 458.5,295.9 458.6,298.8 458.7,296.5 458.9,296.1 459.0,294.7 459.1,296.9 459.2,297.6 459.4,296.4 459.5,296.7 459.6,298.9 459.7,296.4 459.9,298.4 460.0,295.3 460.1,297.6 460.2,296.4 460.4,297.7 460.5,296.9 460.6,294.9 460.7,299.0 460.9,298.8 461.0,298.7 461.1,295.1 461.3,298.0 461.4,299.4 461.5,296.6 461.6,300.6 461.8,297.0 461.9,299.7 462.0,299.9 462.1,298.8 462.3,297.1 462.4,296.1 462.5,297.3 462.6,296.5 462.8,299.4 462.9,298.4 463.0,294.3 463.1,296.4 463.3,296.5 463.4,300.2 463.5,297.2 463.6,294.5 463.8,301.9 463.9,300.5 464.0,300.2 464.1,298.7 464.3,299.6 464.4,296.7 464.5,298.8 464.7,298.5 464.8,294.2 464.9,297.1 465.0,298.3 465.2,295.6 465.3,296.3 465.4,296.7 465.5,296.4 465.7,297.0 465.8,300.5 465.9,299.4 466.0,297.9 466.2,301.4 466.3,297.8 466.4,300.3 466.5,300.1 466.7,298.0 466.8,297.3 466.9,300.6 467.0,295.8 467.2,299.3 467.3,298.6 467.4,299.3 467.6,298.8 467.7,296.5 467.8,299.2 467.9,298.4 468.1,298.0 468.2,295.4 468.3,299.9 468.4,300.3 468.6,297.0 468.7,297.0 468.8,296.5 468.9,297.7 469.1,298.1 469.2,295.9 469.3,297.1 469.4,301.3 469.6,296.6 469.7,298.6 469.8,298.3 469.9,296.4 470.1,298.8 470.2,299.2 470.3,298.0 470.5,300.2 470.6,300.6 470.7,295.9 470.8,299.5 471.0,298.6 471.1,298.7 471.2,297.3 471.3,302.6 471.5,296.8 471.6,296.4 471.7,299.4 471.8,296.3 472.0,297.2 472.1,301.5 472.2,297.5 472.3,300.6 472.5,301.4 472.6,297.2 472.7,296.7 472.8,300.2 473.0,300.4 473.1,298.3 473.2,298.6 473.3,295.8 473.5,295.8 473.6,296.6 473.7,299.9 473.8,298.0 474.0,299.6 474.1,295.9 474.2,296.7 474.3,296.6 474.5,296.2 474.6,297.9 474.7,296.6 474.8,297.4 475.0,298.7 475.1,299.2 475.2,299.3 475.3,297.6 475.5,297.9 475.6,297.2 475.7,298.1 475.8,299.5 476.0,297.9 476.1,297.1 476.2,300.9 476.3,296.8 476.5,299.1 476.6,295.3 476.7,296.6 476.9,300.0 477.0,295.4 477.1,299.9 477.2,299.7 477.4,299.2 477.5,297.3 477.6,297.2 477.7,299.9 477.9,295.0 478.0,298.4 478.1,301.4 478.2,296.7 478.4,295.5 478.5,299.1 478.6,295.9 478.7,302.0 478.9,297.8 479.0,296.9 479.1,297.4 479.2,299.8 479.4,296.6 479.5,298.6 479.6,298.8 479.7,299.4 479.9,298.2 480.0,298.6 480.1,300.9 480.2,298.5 480.4,298.2 480.5,297.5 480.6,294.5 480.7,294.5 480.9,298.0 481.0,296.3 481.1,298.6 481.3,299.9 481.4,297.5 481.5,299.7 481.6,297.8 481.8,297.1 481.9,299.6 482.0,297.6 482.1,295.5 482.3,302.0 482.4,298.7 482.5,301.0 482.6,299.1 482.8,296.1 482.9,299.2 483.0,295.0 483.1,302.7 483.3,294.7 483.4,294.1 483.5,297.6 483.6,298.5 483.8,299.1 483.9,294.6 484.0,292.8 484.1,300.2 484.3,297.9 484.4,293.0 484.5,299.6 484.6,297.8 484.8,299.0 484.9,298.1 485.0,300.4 485.1,299.0 485.3,299.7 485.4,299.4 485.5,296.8 485.6,295.8 485.8,294.2 485.9,297.1 486.0,296.9 486.1,299.5 486.3,295.7 486.4,297.8 486.5,300.6 486.6,295.3 486.8,299.0 486.9,297.9 487.0,296.7 487.1,298.3 487.3,298.6 487.4,299.2 487.5,298.9 487.6,300.5 487.8,296.6 487.9,297.7 488.0,299.5 488.1,296.4 488.3,295.1 488.4,292.9 488.5,300.1 488.6,298.5 488.8,299.8 488.9,299.7 489.0,297.3 489.1,300.8 489.3,298.4 489.4,294.9 489.5,296.2 489.6,298.7 489.8,298.8 489.9,296.9 490.0,295.5 490.1,302.2 490.3,300.1 490.4,298.4 490.5,298.6 490.6,298.8 490.8,299.2 490.9,298.4 491.0,296.0 491.1,298.1 491.3,298.7 491.4,296.1 491.5,297.1 491.6,295.6 491.8,294.9 491.9,297.9 492.0,298.2 492.1,299.8 492.3,300.0 492.4,302.0 492.5,294.6 492.6,302.4 492.8,299.9 492.9,297.1 493.0,297.8 493.1,299.8 493.3,298.2 493.4,298.9 493.5,298.6 493.6,293.3 493.8,298.0 493.9,298.0 494.0,301.0 494.1,292.1 494.3,296.7 494.4,293.8 494.5,298.1 494.6,299.1 494.8,300.8 494.9,296.6 495.0,297.0 495.2,298.9 495.3,300.0 495.4,299.2 495.5,298.2 495.6,300.9 495.8,293.5 495.9,301.1 496.0,298.2 496.1,296.5 496.3,299.7 496.4,293.4 496.5,300.1 496.6,298.5 496.8,296.7 496.9,297.6 497.0,294.6 497.1,298.9 497.3,300.3 497.4,297.7 497.5,298.8 497.6,298.8 497.8,297.0 497.9,296.5 498.0,299.3 498.1,297.0 498.3,299.0 498.4,296.1 498.5,296.9 498.6,296.3 498.8,302.9 498.9,299.7 499.0,295.0 499.1,297.9 499.3,297.0 499.4,298.2 499.5,297.4 499.6,298.5 499.8,298.9 499.9,297.9 500.0,297.6 500.1,297.3 500.3,298.0 500.4,294.4 500.5,295.4 500.6,299.1 500.8,297.4 500.9,295.5 501.0,298.6 501.1,296.9 501.2,300.1 501.4,298.1 501.5,295.6 501.6,298.1 501.8,298.5 501.9,299.6 502.0,300.2 502.1,300.7 502.3,300.4 502.4,298.6 502.5,298.9 502.6,299.7 502.7,296.2 502.9,296.6 503.0,295.1 503.1,296.1 503.2,298.4 503.4,297.8 503.5,298.6 503.6,298.3 503.7,301.9 503.9,299.1 504.0,299.0 504.1,298.1 504.2,297.6 504.4,295.2 504.5,298.2 504.6,293.5 504.7,300.3 504.9,299.9 505.0,300.7 505.1,294.0 505.2,299.1 505.4,297.5 505.5,297.5 505.6,298.2 505.7,298.2 505.9,300.4 506.0,295.8 506.1,300.3 506.2,298.2 506.4,298.1 506.5,297.3 506.6,295.7 506.7,297.7 506.9,300.6 507.0,301.1 507.1,297.0 507.2,300.7 507.4,297.9 507.5,297.0 507.6,298.5 507.7,296.0 507.9,300.0 508.0,299.5 508.1,299.3 508.3,298.1 508.4,300.1 508.5,300.1 508.6,299.3 508.7,296.0 508.9,297.2 509.0,298.4 509.1,299.0 509.3,298.2 509.4,299.8 509.5,298.1 509.6,300.7 509.8,298.5 509.9,299.9 510.0,297.8 510.1,296.2 510.2,296.1 510.4,296.2 510.5,300.4 510.6,293.5 510.7,297.6 510.9,300.4 511.0,298.3 511.1,297.0 511.2,297.1 511.4,297.7 511.5,294.1 511.6,298.8 511.7,300.2 511.9,297.7 512.0,296.2 512.1,300.7 512.2,299.2 512.4,296.7 512.5,296.7 512.6,299.4 512.7,296.4 512.9,296.9 513.0,298.0 513.1,298.1 513.2,298.9 513.4,297.5 513.5,296.0 513.6,301.5 513.7,292.7 513.8,296.0 514.0,299.3 514.1,298.0 514.2,297.3 514.3,298.4 514.5,296.8 514.6,296.0 514.7,300.9 514.8,297.4 515.0,297.3 515.1,295.6 515.2,299.8 515.3,300.1 515.5,299.3 515.6,297.5 515.7,299.4 515.8,298.0 516.0,297.6 516.1,298.6 516.2,297.4 516.3,298.2 516.5,296.5 516.6,296.7 516.7,301.5 516.8,296.4 517.0,299.2 517.1,300.8 517.2,297.1 517.3,300.1 517.5,297.8 517.6,299.0 517.7,299.7 517.8,297.7 518.0,297.6 518.1,299.9 518.2,294.8 518.3,296.5 518.4,297.2 518.6,299.9 518.7,297.0 518.8,298.8 518.9,297.0 519.1,299.8 519.2,300.0 519.3,296.6 519.4,295.4 519.6,299.0 519.7,301.2 519.8,297.2 519.9,298.1 520.1,294.5 520.2,298.5 520.3,295.6 520.4,297.9 520.6,300.2 520.7,299.1 520.8,297.1 520.9,299.3 521.1,299.1 521.2,295.9 521.3,299.1 521.4,297.1 521.5,296.5 521.7,299.1 521.8,297.3 521.9,299.4 522.0,296.7 522.2,300.1 522.3,299.5 522.4,299.3 522.5,300.5 522.7,296.3 522.8,298.3 522.9,298.5 523.0,300.0 523.2,301.6 523.3,299.4 523.4,302.2 523.5,296.6 523.7,298.3 523.8,296.9 523.9,297.3 524.0,300.3 524.2,294.3 524.3,299.5 524.4,298.9 524.5,299.2 524.7,299.4 524.8,297.0 524.9,297.8 525.0,293.6 525.1,299.8 525.3,297.0 525.4,295.9 525.5,298.3 525.6,297.2 525.8,298.9 525.9,297.3 526.0,293.8 526.1,301.5 526.3,298.6 526.4,300.1 526.5,298.2 526.6,301.2 526.8,300.9 526.9,297.6 527.0,299.7 527.1,297.8 527.3,299.4 527.4,301.3 527.5,299.1 527.6,297.9 527.8,300.3 527.9,297.4 528.0,296.2 528.1,300.1 528.2,301.2 528.4,295.5 528.5,298.5 528.6,297.7 528.8,301.8 528.9,296.4 529.0,297.0 529.1,294.7 529.3,299.3 529.4,296.6 529.5,297.1 529.6,296.3 529.8,301.3 529.9,299.1 530.0,294.5 530.1,298.7 530.3,295.5 530.4,298.9 530.5,302.1 530.6,297.2 530.8,298.4 530.9,297.7 531.0,297.9 531.1,296.8 531.3,301.2 531.4,301.1 531.5,299.1 531.6,300.9 531.8,300.3 531.9,298.2 532.0,295.9 532.1,296.8 532.3,298.1 532.4,300.0 532.5,296.4 532.6,295.5 532.8,303.0 532.9,296.7 533.0,297.6 533.1,301.6 533.3,300.0 533.4,299.7 533.5,298.4 533.6,299.7 533.8,297.4 533.9,298.0 534.0,297.8 534.1,300.1 534.3,303.8 534.4,297.8 534.5,300.2 534.6,299.6 534.8,298.5 534.9,297.0 535.0,297.6 535.1,301.8 535.3,294.8 535.4,300.4 535.5,298.1 535.6,296.5 535.8,299.9 535.9,301.4 536.0,299.0 536.1,299.4 536.3,298.8 536.4,298.4 536.5,296.8 536.6,298.1 536.7,295.2 536.9,301.1 537.0,299.8 537.1,296.0 537.2,297.7 537.4,301.3 537.5,301.4 537.6,297.9 537.7,301.1 537.9,296.5 538.0,295.6 538.1,296.4 538.2,296.2 538.4,295.7 538.5,297.0 538.6,298.5 538.7,296.2 538.8,300.9 539.0,298.6 539.1,299.2 539.2,298.6 539.3,297.1 539.5,296.1 539.6,299.8 539.7,299.1 539.8,298.1 540.0,299.0 540.1,299.0 540.2,301.9 540.3,300.3 540.5,300.3 540.6,301.9 540.7,297.7 540.8,296.2 540.9,299.5 541.1,296.9 541.2,296.3 541.3,294.8 541.4,300.5 541.6,296.3 541.7,299.4 541.8,299.5 541.9,297.3 542.1,296.4 542.2,300.3 542.3,297.9 542.4,300.9 542.6,300.1 542.7,299.4 542.8,294.8 542.9,299.2 543.1,295.3 543.2,298.5 543.3,296.4 543.4,295.5 543.5,297.2 543.7,298.6 543.8,298.0 543.9,300.0 544.0,298.1 544.2,298.5 544.3,302.6 544.4,296.9 544.5,297.7 544.7,300.8 544.8,296.7 544.9,295.8 545.0,296.8 545.1,299.9 545.3,297.7 545.4,298.7 545.5,300.9 545.6,297.8 545.8,298.3 545.9,299.8 546.0,297.4 546.1,297.2 546.3,296.5 546.4,296.7 546.5,300.6 546.6,296.6 546.8,296.3 546.9,295.3 547.0,299.1 547.1,295.5 547.3,299.2 547.4,302.6 547.5,299.2 547.6,299.6 547.8,298.6 547.9,297.0 548.0,296.8 548.1,297.1 548.3,296.0 548.4,295.6 548.5,297.8 548.6,299.9 548.8,298.1 548.9,298.6 549.0,299.3 549.1,297.6 549.2,296.3 549.4,297.3 549.5,299.6 549.6,300.9 549.7,296.6 549.9,295.1 550.0,299.0 550.1,297.0 550.2,294.2 550.4,298.6 550.5,298.3 550.6,298.4 550.7,299.3 550.9,298.4 551.0,297.8 551.1,297.3 551.2,303.1 551.4,298.5 551.5,300.1 551.6,296.0 551.7,298.1 551.9,298.6 552.0,298.8 552.1,297.5 552.2,297.1 552.4,298.9 552.5,299.0 552.6,298.7 552.7,298.8 552.9,295.1 553.0,302.1 553.1,299.9 553.2,296.9 553.3,299.8 553.5,302.3 553.6,298.2 553.7,298.7 553.8,294.2 554.0,301.0 554.1,300.2 554.2,301.5 554.3,299.9 554.5,299.7 554.6,300.9 554.7,298.7 554.8,302.8 555.0,298.2 555.1,297.7 555.2,300.3 555.3,300.4 555.5,297.4 555.6,298.7 555.7,293.8 555.8,301.8 556.0,303.1 556.1,299.4 556.2,297.9 556.3,297.7 556.4,297.7 556.6,296.0 556.7,298.5 556.8,301.6 556.9,298.8 557.1,298.1 557.2,298.8 557.3,297.0 557.4,298.3 557.6,300.1 557.7,300.6 557.8,298.2 557.9,294.3 558.1,297.5 558.2,297.8 558.3,300.9 558.4,300.9 558.6,296.2 558.7,298.1 558.8,295.8 558.9,297.9 559.1,298.4 559.2,298.6 559.3,300.1 559.4,297.6 559.5,298.6 559.7,297.8 559.8,296.6 559.9,295.9 560.0,298.5 560.2,297.1 560.3,302.2 560.4,302.0 560.5,297.3 560.7,299.4 560.8,298.4 560.9,298.5 561.0,301.5 561.2,298.2 561.3,299.0 561.4,298.2 561.5,299.3 561.7,300.7 561.8,299.1 561.9,301.4 562.0,299.5 562.1,297.9 562.3,296.7 562.4,301.2 562.5,301.5 562.6,293.3 562.8,297.1 562.9,295.9 563.0,299.6 563.1,299.4 563.3,298.6 563.4,299.8 563.5,299.1 563.6,298.8 563.8,300.7 563.9,298.1 564.0,297.3 564.1,299.7 564.3,298.4 564.4,297.8 564.5,299.3 564.6,297.8 564.8,297.3 564.9,298.9 565.0,298.8 565.1,299.9 565.3,296.6 565.4,296.6 565.5,303.0 565.6,299.8 565.7,298.9 565.9,299.9 566.0,298.1 566.1,299.3 566.2,299.9 566.4,300.1 566.5,296.2 566.6,299.7 566.7,296.8 566.9,299.5 567.0,299.4 567.1,299.3 567.2,295.2 567.4,298.5 567.5,299.6 567.6,298.0 567.7,299.2 567.9,298.2 568.0,297.7 568.1,299.7 568.2,298.0 568.3,296.1 568.5,299.8 568.6,297.4 568.7,295.4 568.8,299.5 569.0,298.4 569.1,298.6 569.2,301.5 569.3,294.8 569.5,301.6 569.6,297.3 569.7,296.5 569.8,296.9 570.0,301.6 570.1,298.1 570.2,297.6 570.3,296.7 570.5,298.7 570.6,301.4 570.7,299.5 570.8,300.6 571.0,301.4 571.1,298.3 571.2,301.9 571.3,298.4 571.5,296.5 571.6,299.5 571.7,300.8 571.8,298.5 572.0,296.1 572.1,299.4 572.2,297.2 572.3,298.8 572.4,302.2 572.6,300.1 572.7,298.6 572.8,301.6 572.9,299.0 573.1,299.3 573.2,300.6 573.3,298.9 573.4,300.3 573.6,300.3 573.7,297.4 573.8,300.2 573.9,296.6 574.1,296.1 574.2,298.6 574.3,298.7 574.4,295.6 574.6,300.0 574.7,299.6 574.8,298.9 574.9,299.0 575.0,298.5 575.2,299.1 575.3,296.9 575.4,299.2 575.5,300.4 575.7,295.5 575.8,297.0 575.9,298.2 576.0,299.4 576.2,300.2 576.3,297.3 576.4,296.8 576.5,298.4 576.7,300.3 576.8,299.2 576.9,297.0 577.0,297.4 577.2,302.5 577.3,296.8 577.4,297.9 577.5,300.9 577.6,299.9 577.8,298.3 577.9,298.1 578.0,298.3 578.1,298.0 578.3,300.5 578.4,293.2 578.5,301.3 578.6,300.4 578.8,297.9 578.9,300.7 579.0,299.1 579.1,298.2 579.3,301.6 579.4,299.9 579.5,297.8 579.6,296.3 579.8,297.5 579.9,298.5 580.0,298.3 580.1,296.9 580.3,299.5 580.4,299.5 580.5,293.6 580.6,300.8 580.7,300.5 580.9,296.4 581.0,300.5 581.1,299.3 581.2,298.3 581.4,296.1 581.5,299.3 581.6,299.7 581.7,301.2 581.9,297.0 582.0,298.9 582.1,297.0 582.2,297.5 582.4,298.0 582.5,299.5 582.6,301.5 582.7,296.3 582.9,300.3 583.0,298.7 583.1,301.6 583.2,299.9 583.4,301.4 583.5,299.1 583.6,301.1 583.7,302.5 583.9,299.2 584.0,298.0 584.1,296.1 584.2,297.5 584.3,295.5 584.5,299.7 584.6,297.7 584.7,301.5 584.9,300.6 585.0,299.2 585.1,299.1 585.2,299.5 585.4,297.0 585.5,300.3 585.6,301.7 585.7,300.7 585.9,302.0 586.0,296.5 586.1,296.2 586.2,301.0 586.3,298.7 586.5,298.6 586.6,299.5 586.7,302.6 586.8,297.2 587.0,297.6 587.1,300.3 587.2,299.7 587.3,300.1 587.5,296.6 587.6,297.7 587.7,297.3 587.8,300.0 588.0,300.0 588.1,297.9 588.2,302.0 588.3,301.5 588.5,298.0 588.6,300.8 588.7,296.7 588.8,299.5 589.0,300.6 589.1,300.4 589.2,301.0 589.3,296.9 589.5,300.3 589.6,302.2 589.7,296.7 589.8,298.9 590.0,300.3 590.1,298.9 590.2,302.1 590.3,303.2 590.5,297.1 590.6,297.2 590.7,298.4 590.8,296.0 591.0,295.3 591.1,300.5 591.2,298.0 591.3,295.7 591.5,300.0 591.6,299.3 591.7,297.5 591.8,299.7 592.0,297.6 592.1,301.1 592.2,298.7 592.3,298.9 592.5,297.2 592.6,297.0 592.7,296.0 592.8,301.4 593.0,303.0 593.1,295.9 593.2,293.0 593.3,300.7 593.5,298.3 593.6,301.1 593.7,296.0 593.8,296.9 594.0,296.5 594.1,299.9 594.2,300.0 594.3,298.6 594.5,300.2 594.6,300.7 594.7,298.9 594.8,300.1 595.0,298.3 595.1,299.1 595.2,298.4 595.3,298.4 595.5,300.3 595.6,299.2 595.7,299.5 595.8,298.3 596.0,298.5 596.1,297.1 596.2,298.3 596.3,297.1 596.5,299.5 596.6,298.7 596.7,300.4 596.8,301.4 596.9,300.1 597.1,299.9 597.2,302.7 597.3,297.8 597.4,299.9 597.6,299.4 597.7,298.5 597.8,299.6 597.9,298.6 598.1,300.2 598.2,298.0 598.3,295.1 598.4,298.0 598.6,298.6 598.7,299.4 598.8,299.6 598.9,298.7 599.1,301.0 599.2,299.5 599.3,301.1 599.4,298.8 599.6,298.9 599.7,297.7 599.8,300.3 599.9,299.8 600.0,300.9 600.2,301.3 600.3,299.3 600.4,296.2 600.5,298.9 600.7,298.4 600.8,300.5 600.9,301.6 601.0,300.5 601.2,295.2 601.3,300.3 601.5,296.4 601.6,298.7 601.7,298.5 601.8,299.9 602.0,296.7 602.1,298.8 602.2,299.7 602.3,297.3 602.4,300.0 602.6,296.4 602.7,299.3 602.8,296.7 602.9,298.3 603.1,296.6 603.2,298.4 603.3,299.7 603.4,299.8 603.6,298.6 603.7,298.8 603.8,303.0 603.9,295.9 604.0,300.2 604.2,299.6 604.3,297.3 604.4,297.0 604.5,298.5 604.7,299.3 604.8,299.5 604.9,300.0 605.0,299.1 605.2,300.7 605.3,302.9 605.4,302.1 605.5,297.0 605.6,297.3 605.8,301.6 605.9,299.9 606.0,298.0 606.1,300.5 606.3,296.8 606.4,302.8 606.5,296.7 606.6,298.1 606.8,300.8 606.9,297.7 607.0,295.5 607.1,296.5 607.3,295.2 607.4,295.9 607.5,300.1 607.6,295.9 607.7,296.8 607.9,297.7 608.0,298.0 608.1,299.0 608.2,299.9 608.4,300.0 608.5,299.5 608.6,299.1 608.7,301.1 608.9,300.6 609.0,299.3 609.1,299.7 609.2,300.2 609.3,300.0 609.5,297.5 609.6,299.0 609.7,297.7 609.8,299.1 610.0,302.3 610.1,297.1 610.2,300.7 610.3,301.5 610.5,299.3 610.6,300.1 610.7,296.6 610.8,298.3 611.0,297.9 611.1,295.9 611.2,304.9 611.3,297.9 611.5,301.1 611.6,302.7 611.7,300.1 611.8,302.4 612.0,301.3 612.1,298.9 612.2,297.0 612.3,295.4 612.4,297.5 612.6,296.3 612.7,300.9 612.8,300.0 612.9,297.5 613.1,296.9 613.2,299.5 613.3,295.8 613.4,298.2 613.6,296.5 613.7,302.3 613.8,298.8 613.9,299.9 614.1,301.8 614.2,296.0 614.3,300.1 614.4,298.7 614.6,301.5 614.7,299.5 614.8,296.3 614.9,298.8 615.1,297.9 615.2,299.2 615.3,298.9 615.4,295.6 615.5,301.5 615.7,297.0 615.8,298.4 615.9,299.0 616.0,298.0 616.2,298.1 616.3,299.4 616.4,300.2 616.5,297.8 616.6,301.1 616.8,299.0 616.9,297.4 617.0,300.2 617.1,294.9 617.3,300.1 617.4,298.7 617.5,297.7 617.6,300.9 617.8,297.6 617.9,295.6 618.0,297.0 618.1,298.5 618.2,300.5 618.4,298.7 618.5,299.4 618.6,296.6 618.7,301.0 618.9,300.3 619.0,302.2 619.1,303.5 619.2,302.1 619.4,297.9 619.5,295.8 619.6,299.4 619.7,298.1 619.8,300.7 620.0,301.0 620.1,298.3 620.2,299.3 620.3,298.5 620.5,295.0 620.6,300.9 620.7,297.9 620.8,298.4 621.0,294.7 621.1,299.9 621.2,300.6 621.3,300.8 621.4,300.7 621.6,299.2 621.7,296.5 621.8,302.3 621.9,302.1 622.1,300.4 622.2,299.9 622.3,300.4 622.4,299.4 622.6,299.2 622.7,297.2 622.8,299.4 622.9,299.0 623.1,299.5 623.2,298.7 623.3,297.4 623.4,300.7 623.5,299.4 623.7,298.7 623.8,298.4 623.9,298.8 624.0,298.9 624.2,301.1 624.3,298.1 624.4,298.5 624.5,298.9 624.7,300.4 624.8,302.5 624.9,299.8 625.0,297.6 625.1,296.6 625.3,300.0 625.4,301.9 625.5,297.0 625.6,302.1 625.8,300.6 625.9,296.9 626.0,300.6 626.1,302.5 626.3,299.1 626.4,299.5 626.5,297.7 626.6,297.1 626.7,300.0 626.9,298.3 627.0,297.4 627.1,302.0 627.2,297.8 627.4,296.5 627.5,297.1 627.6,300.2 627.7,297.8 627.9,297.2 628.0,300.5 628.1,298.7 628.2,297.5 628.4,298.1 628.5,296.2 628.6,299.4 628.7,301.7 628.9,301.9 629.0,298.7 629.1,297.6 629.2,297.3 629.4,301.3 629.5,301.0 629.6,298.0 629.7,299.1 629.8,291.7 630.0,299.7 630.1,299.5 630.2,299.1 630.3,302.0 630.5,297.7 630.6,302.9 630.7,299.3 630.8,298.8 631.0,300.2 631.1,300.1 631.2,295.2 631.3,299.6 631.4,299.7 631.6,298.9 631.7,300.6 631.8,299.3 631.9,299.5 632.1,300.3 632.2,298.7 632.3,296.2 632.4,303.8 632.5,300.4 632.7,301.4 632.8,300.2 632.9,298.2 633.0,301.4 633.2,297.0 633.3,299.3 633.4,300.4 633.5,296.9 633.7,297.0 633.8,297.9 633.9,298.2 634.0,299.9 634.2,303.6 634.3,294.9 634.4,300.4 634.5,295.3 634.6,298.8 634.8,299.3 634.9,299.2 635.0,298.6 635.1,302.6 635.3,296.8 635.4,299.3 635.5,296.9 635.6,296.9 635.8,300.8 635.9,297.0 636.0,298.3 636.1,298.7 636.2,301.0 636.4,299.1 636.5,300.2 636.6,300.8 636.7,299.1 636.9,298.5 637.0,298.9 637.1,298.4 637.2,303.1 637.4,298.2 637.5,301.2 637.6,299.7 637.7,297.8 637.9,298.9 638.0,299.4 638.1,298.9 638.2,298.9 638.4,300.0 638.5,296.2 638.6,302.2 638.7,299.5 638.9,299.1 639.0,297.8 639.1,300.4 639.2,299.8 639.3,303.3 639.5,296.5 639.6,301.5 639.7,300.2 639.8,296.5 640.0,296.7 640.1,299.9 640.2,300.0 640.3,300.7 640.5,301.2 640.6,303.2 640.7,298.8 640.8,301.6 640.9,299.5 641.1,297.8 641.2,299.2 641.3,301.4 641.4,300.1 641.6,299.1 641.7,302.3 641.8,301.0 641.9,302.9 642.1,298.8 642.2,300.8 642.3,300.5 642.4,299.7 642.5,293.4 642.7,301.6 642.8,297.9 642.9,298.0 643.0,298.0 643.2,299.9 643.3,299.0 643.4,302.0 643.5,298.8 643.6,301.5 643.8,300.6 643.9,298.5 644.0,297.6 644.1,299.5 644.3,298.3 644.4,299.0 644.5,299.4 644.6,294.8 644.8,299.3 644.9,296.1 645.0,297.7 645.1,295.5 645.3,299.0 645.4,299.0 645.5,303.0 645.6,298.0 645.7,297.6 645.9,298.1 646.0,298.2 646.1,296.0 646.2,299.3 646.4,302.6 646.5,299.8 646.6,300.7 646.7,298.8 646.9,299.0 647.0,297.9 647.1,299.1 647.2,300.5 647.3,300.1 647.5,298.0 647.6,301.0 647.7,299.5 647.8,300.6 648.0,303.1 648.1,300.9 648.2,300.7 648.3,295.1 648.5,298.5 648.6,299.1 648.7,298.4 648.8,300.6 649.0,296.7 649.1,296.8 649.2,298.5 649.3,302.0 649.4,300.5 649.6,298.6 649.7,299.5 649.8,300.9 649.9,302.5 650.1,294.0 650.2,299.2 650.3,304.3 650.4,294.3 650.6,299.6 650.7,299.3 650.8,299.9 650.9,300.9 651.1,297.0 651.2,296.2 651.3,300.7 651.4,299.6 651.5,302.4 651.7,300.8 651.8,296.1 651.9,298.0 652.0,302.3 652.2,296.7 652.3,298.7 652.4,298.3 652.5,300.8 652.6,297.1 652.8,299.1 652.9,298.7 653.0,298.4 653.1,300.0 653.3,301.2 653.4,299.1 653.5,301.4 653.6,302.2 653.8,299.2 653.9,300.3 654.0,297.5 654.1,300.8 654.3,297.4 654.4,298.5 654.5,297.6 654.6,297.0 654.7,299.1 654.9,298.3 655.0,301.1 655.1,298.8 655.2,299.5 655.4,295.6 655.5,297.5 655.6,300.3 655.7,298.1 655.9,298.0 656.0,298.4 656.1,301.1 656.2,296.9 656.4,300.8 656.5,296.7 656.6,302.8 656.7,302.3 656.8,298.4 657.0,299.8 657.1,302.6 657.2,298.6 657.3,296.6 657.5,299.2 657.6,300.2 657.7,296.7 657.8,300.9 658.0,301.5 658.1,298.1 658.2,300.4 658.3,302.4 658.5,299.0 658.6,297.7 658.7,299.3 658.8,301.0 658.9,297.9 659.1,298.0 659.2,299.7 659.3,298.4 659.4,301.2 659.6,300.0 659.7,296.4 659.8,299.1 659.9,299.8 660.1,299.1 660.2,297.9 660.3,300.4 660.4,297.7 660.5,299.0 660.7,298.2 660.8,296.6 660.9,302.0 661.0,295.2 661.2,299.4 661.3,302.3 661.4,300.3 661.5,299.8 661.7,297.5 661.8,300.6 661.9,299.4 662.0,297.5 662.2,298.7 662.3,299.5 662.4,300.0 662.5,301.0 662.6,299.9 662.8,299.2 662.9,299.1 663.0,298.5 663.1,297.5 663.3,295.0 663.4,297.4 663.5,297.0 663.6,302.9 663.8,296.1 663.9,299.4 664.0,300.0 664.1,299.8 664.3,300.6 664.4,301.4 664.5,298.8 664.6,300.9 664.8,299.5 664.9,299.3 665.0,297.5 665.1,300.1 665.3,301.3 665.4,301.8 665.5,299.7 665.6,301.1 665.8,299.8 665.9,299.1 666.0,300.2 666.1,301.4 666.2,300.7 666.4,297.8 666.5,298.5 666.6,301.5 666.7,297.6 666.9,299.4 667.0,298.6 667.1,300.5 667.2,299.3 667.4,298.5 667.5,300.4 667.6,298.3 667.7,299.4 667.9,296.7 668.0,300.7 668.1,300.0 668.2,297.6 668.4,301.3 668.5,295.6 668.6,298.4 668.7,295.3 668.9,299.4 669.0,300.9 669.1,301.1 669.2,299.3 669.3,302.2 669.5,299.3 669.6,298.8 669.7,298.4 669.8,296.7 670.0,302.9 670.1,305.6 670.2,299.6 670.3,299.5 670.5,299.2 670.6,298.1 670.7,301.3 670.8,297.3 670.9,303.8 671.1,302.6 671.2,298.0 671.3,299.0 671.4,301.6 671.6,300.8 671.7,302.2 671.8,299.6 671.9,300.2 672.0,301.5 672.2,299.0 672.3,300.2 672.4,302.0 672.5,296.5 672.7,297.7 672.8,299.6 672.9,298.1 673.0,299.8 673.2,300.3 673.3,300.2 673.4,297.9 673.5,301.2 673.6,300.0 673.8,302.2 673.9,301.5 674.0,299.0 674.1,296.0 674.3,298.7 674.4,297.6 674.5,300.0 674.6,296.7 674.8,297.8 674.9,299.4 675.0,300.1" fill="none" stroke="#16a34a" stroke-width="1.5"/>
<rect x="65" y="20" width="610" height="330" fill="none" stroke="#888" stroke-width="1.5"/>
<line x1="62" y1="308.5" x2="65" y2="308.5" stroke="#64748b" stroke-width="1" opacity="0.6"/>
<line x1="62" y1="260.0" x2="65" y2="260.0" stroke="#64748b" stroke-width="1" opacity="0.6"/>
<line x1="62" y1="199.0" x2="65" y2="199.0" stroke="#64748b" stroke-width="1" opacity="0.6"/>
<line x1="60" y1="116.3" x2="65" y2="116.3" stroke="#64748b" stroke-width="1.5"/>
<text x="57" y="116.3" text-anchor="end" dominant-baseline="middle" font-size="11" font-family="monospace,sans-serif" fill="#64748b">10</text>
<line x1="62" y1="33.5" x2="65" y2="33.5" stroke="#64748b" stroke-width="1" opacity="0.6"/>
<line x1="65.0" y1="350" x2="65.0" y2="355" stroke="#888" stroke-width="1.5"/>
<text x="65.0" y="368" text-anchor="middle" font-size="11" font-family="monospace,sans-serif">0</text>
<line x1="187.1" y1="350" x2="187.1" y2="355" stroke="#888" stroke-width="1.5"/>
<text x="187.1" y="368" text-anchor="middle" font-size="11" font-family="monospace,sans-serif">2</text>
<line x1="309.1" y1="350" x2="309.1" y2="355" stroke="#888" stroke-width="1.5"/>
<text x="309.1" y="368" text-anchor="middle" font-size="11" font-family="monospace,sans-serif">4</text>
<line x1="431.2" y1="350" x2="431.2" y2="355" stroke="#888" stroke-width="1.5"/>
<text x="431.2" y="368" text-anchor="middle" font-size="11" font-family="monospace,sans-serif">6</text>
<line x1="553.2" y1="350" x2="553.2" y2="355" stroke="#888" stroke-width="1.5"/>
<text x="553.2" y="368" text-anchor="middle" font-size="11" font-family="monospace,sans-serif">8</text>
<line x1="675.3" y1="350" x2="675.3" y2="355" stroke="#888" stroke-width="1.5"/>
<text x="675.3" y="368" text-anchor="middle" font-size="11" font-family="monospace,sans-serif">10</text>
<text x="370" y="392" text-anchor="middle" font-size="13" font-family="sans-serif">Runtime (minutes)</text>
<text transform="rotate(-90,28,185)" x="28" y="185" text-anchor="middle" font-size="13" font-family="sans-serif" fill="#64748b">Train loss (log scale)</text>
</svg>